<?xml version="1.0" standalone="no"?>
<!DOCTYPE svg PUBLIC "-//W3C//DTD SVG 1.1//EN" "http://www.w3.org/Graphics/SVG/1.1/DTD/svg11.dtd" >
<svg xmlns="http://www.w3.org/2000/svg" xmlns:xlink="http://www.w3.org/1999/xlink" version="1.1">
<metadata></metadata>
<defs>
<font id="bitterbold" horiz-adv-x="1224" >
<font-face units-per-em="2048" ascent="1638" descent="-410" />
<missing-glyph horiz-adv-x="485" />
<glyph unicode="&#xd;" horiz-adv-x="687" />
<glyph unicode=" "  horiz-adv-x="485" />
<glyph unicode="&#x09;" horiz-adv-x="485" />
<glyph unicode="&#xa0;" horiz-adv-x="485" />
<glyph unicode="!" horiz-adv-x="702" d="M176 162q0 84 53 134.5t125 50.5q84 0 128.5 -48.5t44.5 -136.5q0 -87 -52.5 -138t-127.5 -51q-171 1 -171 189zM188 1583h323l-37 -1043l-249 -11z" />
<glyph unicode="&#x22;" horiz-adv-x="912" d="M118 1034v584h279l-46 -584h-233zM533 1034v584h282l-47 -584h-235z" />
<glyph unicode="#" horiz-adv-x="1509" d="M124 292v213h219l36 255h-203v213h229l37 268h263l-36 -268h260l35 268h262l-34 -268h194v-213h-223l-34 -255h205v-213h-233l-37 -292h-263l36 292h-258l-39 -292h-263l39 292h-192zM606 505h261l33 255h-259z" />
<glyph unicode="$" horiz-adv-x="1141" d="M114 43v367h190l31 -155q71 -38 180 -38q99 0 165 38.5t66 108.5q0 43 -34.5 76.5t-90.5 55t-123.5 43.5t-134.5 53.5t-123 74t-91 116t-35 168.5q0 158 95 257t257 130v245h221v-237q79 -6 159.5 -24.5t121.5 -34.5l41 -14l-8 -340h-178l-39 153q-87 31 -166 31 q-97 0 -148.5 -36.5t-51.5 -93.5q0 -60 65 -100.5t157 -70.5t185 -71.5t158 -126.5t65 -208q0 -168 -98 -276.5t-263 -143.5v-292h-221v279q-85 4 -173 20.5t-133 31.5z" />
<glyph unicode="%" horiz-adv-x="1933" d="M114 1094q0 180 105.5 284.5t266.5 104.5q157 0 253 -95t96 -271q0 -178 -105.5 -285.5t-267.5 -107.5q-160 0 -254 92t-94 278zM351 1103q0 -199 121 -199q126 0 126 205q0 197 -122 196q-125 1 -125 -202zM371 -16l864 1489h300l-864 -1489h-300zM1074 341 q0 180 105.5 284.5t266.5 104.5q158 0 254 -95t96 -271q0 -178 -105.5 -285.5t-269.5 -107.5q-160 0 -253.5 92.5t-93.5 277.5zM1311 349q0 -199 120 -197q126 0 126 204q0 196 -122 196q-124 0 -124 -203z" />
<glyph unicode="&#x26;" horiz-adv-x="1399" d="M114 389q0 77 32 146t80.5 114.5t83.5 71t67 41.5q-107 66 -152 121q-68 89 -67 205q0 192 139 293.5t382 101.5q107 0 231 -31t176 -56l-10 -326h-195q-14 55 -33 134q-70 27 -186 27q-95 0 -145.5 -48t-50.5 -115q0 -89 69 -139t168 -50h635v-176l-144 -48v-219 q0 -215 -150 -338t-407 -123q-262 0 -392.5 112t-130.5 302zM434 432q0 -97 60 -151t164 -54q110 0 173 62t63 177v189h-156q-134 0 -219 -55.5t-85 -167.5z" />
<glyph unicode="'" horiz-adv-x="495" d="M118 1034v584h279l-46 -584h-233z" />
<glyph unicode="(" horiz-adv-x="729" d="M112 579q0 286 83 520.5t261 493.5h268q-148 -227 -235.5 -496.5t-87.5 -512.5q0 -269 86 -557t235 -503h-266q-180 255 -262 500t-82 555z" />
<glyph unicode=")" horiz-adv-x="723" d="M-2 1593h269q177 -259 260 -493.5t83 -520.5q0 -310 -82 -556t-261 -499h-267q148 215 234 502.5t86 557.5q0 244 -87 513t-235 496z" />
<glyph unicode="*" horiz-adv-x="855" d="M45 1186l62 184l238 -93l-29 245l193 4l-19 -251l230 101l64 -186l-253 -53l170 -196l-151 -114l-134 230l22 91l93 -11l-75 55l34 83l-74 -61l-71 63l38 -89l-81 -47l93 7l21 -91l-124 -230l-160 112l170 202z" />
<glyph unicode="+" horiz-adv-x="1281" d="M87 436v245h418v422h275v-422h414v-245h-414v-436h-275v436h-418z" />
<glyph unicode="," horiz-adv-x="626" d="M83 -275q124 166 124 248q0 25 -30.5 81t-30.5 110q0 82 51 132.5t128 50.5q79 0 126.5 -49.5t47.5 -139.5q0 -234 -286 -541z" />
<glyph unicode="-" horiz-adv-x="816" d="M118 434v259h585v-259h-585z" />
<glyph unicode="." horiz-adv-x="620" d="M134 162q0 84 53 134.5t125 50.5q85 0 129.5 -48.5t44.5 -136.5q0 -87 -51.5 -138t-126.5 -51q-85 0 -129.5 49t-44.5 140z" />
<glyph unicode="/" horiz-adv-x="1066" d="M41 0l689 1458h316l-690 -1458h-315z" />
<glyph unicode="0" horiz-adv-x="1333" d="M124 718q0 377 133.5 571t429.5 194t414.5 -181t118.5 -554q0 -775 -554 -775q-284 0 -413 187t-129 558zM460 728q0 -268 49.5 -382.5t165 -114.5t162 114.5t46.5 392.5q0 273 -45.5 379.5t-163 106.5t-166 -109.5t-48.5 -386.5z" />
<glyph unicode="1" horiz-adv-x="1112" d="M31 1144l492 314h265v-1220h280v-238h-890v238h290v889l-316 -203z" />
<glyph unicode="2" horiz-adv-x="1255" d="M83 0v252q161 131 246 201t187 164.5t150 153t81 126t33 127.5q0 95 -66.5 151t-176.5 56q-49 0 -96.5 -9.5t-71.5 -17.5l-24 -10l-20 -176h-218l-10 382q233 83 455 83q269 0 417 -94t148 -313q0 -105 -36.5 -202.5t-121 -202t-178.5 -194.5t-250 -225h621v-252h-1069z " />
<glyph unicode="3" d="M52 87l86 227q186 -87 369 -87q126 0 194.5 54t68.5 157q0 95 -77 149t-217 54h-162v217h172q268 0 269 201q0 79 -60 125.5t-168 46.5q-45 0 -95.5 -7.5t-80.5 -15.5l-26 -8l-21 -166h-217l-10 362q254 87 460 87q533 1 533 -372q0 -132 -66.5 -224.5t-192.5 -124.5 q130 -30 210 -120t80 -208q0 -122 -51 -213t-137 -143.5t-188.5 -77.5t-217.5 -25q-118 0 -231.5 28t-168.5 55z" />
<glyph unicode="4" horiz-adv-x="1296" d="M31 537q577 851 648 953l345 -32v-910h207v-254h-207v-294h-319v294h-643zM341 548h368v546z" />
<glyph unicode="5" horiz-adv-x="1157" d="M35 87l89 227q186 -87 366 -87q103 0 169.5 55t66.5 152q0 116 -96.5 168.5t-288.5 52.5h-223l36 803h847l-6 -254h-549l-14 -310q300 0 469 -112.5t169 -315.5q0 -228 -161 -359.5t-386 -131.5q-124 0 -245.5 28t-182.5 55z" />
<glyph unicode="6" horiz-adv-x="1275" d="M107 610q0 391 198 632t578 241q53 0 100 -5t67 -9l20 -7l-16 -242q-61 10 -160 11q-124 0 -217 -42.5t-138 -102.5t-72 -120t-31 -101l-4 -44q147 89 323 89q199 0 327 -112.5t128 -321.5q0 -217 -155 -360t-389 -143q-267 0 -413 178t-146 459zM424 544 q0 -161 67.5 -239t172.5 -78q99 0 159 59t60 158q0 222 -223 222q-58 0 -117 -18.5t-87 -35.5l-32 -18v-50z" />
<glyph unicode="7" horiz-adv-x="1097" d="M10 1007v451h1056v-223l-543 -1235h-341l536 1200h-457l-42 -193h-209z" />
<glyph unicode="8" horiz-adv-x="1277" d="M93 397q0 217 265 349q-218 123 -218 332q0 192 141 298.5t383 106.5q233 0 359.5 -107.5t126.5 -283.5q0 -205 -226 -310q261 -122 262 -356q0 -203 -157.5 -328t-412.5 -125q-250 0 -386.5 117t-136.5 307zM418 412q0 -89 56.5 -137t162 -48t163.5 50t58 141 q0 79 -62 125.5t-186 93.5q-192 -87 -192 -225zM448 1078q0 -73 57.5 -116.5t167.5 -84.5q167 70 166 201q0 68 -53.5 110.5t-142.5 42.5q-91 0 -143 -42.5t-52 -110.5z" />
<glyph unicode="9" horiz-adv-x="1275" d="M67 981q0 219 155 360.5t388 141.5q267 0 413 -177t146 -458q0 -254 -81 -447.5t-259 -310.5t-436 -117q-54 0 -100.5 5.5t-65.5 9.5l-20 6l14 241q62 -8 162 -8q126 0 220 41.5t138.5 101.5t70 120t27.5 102l5 41q-146 -85 -323 -85q-199 0 -326.5 112t-127.5 321z M393 1011q0 -105 57 -163t166 -58q58 0 117 18.5t90 37.5l29 19v55q0 158 -67 234.5t-173 76.5q-99 0 -159 -59t-60 -161z" />
<glyph unicode=":" horiz-adv-x="630" d="M138 162q0 84 53 134.5t127 50.5q172 0 172 -185q0 -87 -51.5 -138t-126.5 -51q-85 0 -129.5 49t-44.5 140zM138 782q0 87 53 138t127 51q172 0 172 -189q0 -85 -52.5 -135.5t-125.5 -50.5q-85 0 -129.5 48.5t-44.5 137.5z" />
<glyph unicode=";" horiz-adv-x="642" d="M87 -275q124 166 124 248q0 25 -29.5 81t-29.5 110q0 82 50 132.5t129 50.5t125.5 -49.5t46.5 -139.5q0 -233 -284 -541zM152 782q0 87 51.5 138t125.5 51q85 0 129.5 -49t44.5 -140q0 -85 -53 -135.5t-125 -50.5q-85 0 -129 48.5t-44 137.5z" />
<glyph unicode="&#x3c;" horiz-adv-x="1234" d="M83 430v249l1069 452v-268l-734 -311l734 -300v-272z" />
<glyph unicode="=" horiz-adv-x="1240" d="M103 221v239h1034v-239h-1034zM103 666v238h1034v-238h-1034z" />
<glyph unicode="&#x3e;" horiz-adv-x="1234" d="M83 -20v272l734 300l-734 311v268l1069 -452v-249z" />
<glyph unicode="?" horiz-adv-x="959" d="M134 1541q172 50 308 50q112 0 201 -28t151 -102.5t62 -190.5q0 -89 -38 -167.5t-92.5 -136.5t-109.5 -109.5t-93.5 -106.5t-38.5 -107l4 -120l-275 -12q-18 134 -18 203q0 67 54.5 135.5t119.5 117.5t120 115t55 130q0 136 -186 136q-40 0 -86.5 -6t-72.5 -10l-25 -6z M195 162q0 84 52.5 134.5t125.5 50.5q85 0 129 -48.5t44 -136.5q0 -87 -53 -138t-127 -51q-171 1 -171 189z" />
<glyph unicode="@" horiz-adv-x="1695" d="M97 714q0 356 210 562.5t564 206.5q345 0 543.5 -188t198.5 -537q0 -214 -108.5 -334t-278.5 -120q-176 0 -247 128q-12 -12 -33.5 -32.5t-85.5 -54t-126 -33.5q-110 0 -171.5 64t-61.5 174q0 247 347 246h95v71q0 97 -120 97q-41 0 -96.5 -8.5t-91.5 -16.5l-35 -10 l-39 153q165 61 312 62q159 0 231.5 -62t72.5 -199v-343q0 -72 72 -72q64 0 100.5 71t36.5 207q0 253 -135.5 395t-389.5 142q-257 0 -396.5 -146t-139.5 -413q0 -268 121 -411t367 -143q62 0 127 12.5t98 24.5l34 14l84 -169q-16 -9 -45 -23.5t-122 -37t-190 -22.5 q-339 0 -520.5 191t-181.5 554zM718 569q0 -36 23 -56.5t62 -20.5q71 0 140 71v97h-80q-145 0 -145 -91z" />
<glyph unicode="A" horiz-adv-x="1575" d="M25 0v180l151 47l455 1225l331 6l445 -1231l144 -47v-180h-657v180l154 47l-49 156h-459l-52 -154l161 -49v-180h-624zM612 604h319l-155 490z" />
<glyph unicode="B" horiz-adv-x="1358" d="M83 0v180q51 18 155 51v983l-155 63v171l469 10h218q209 0 331.5 -89.5t122.5 -267.5q0 -263 -247 -341q296 -85 296 -332q0 -428 -539 -428h-651zM552 242h172q107 0 164 49.5t57 136.5q0 112 -66 164.5t-206 52.5h-121v-403zM552 863h121q231 0 231 191 q0 79 -48.5 119.5t-127.5 40.5h-176v-351z" />
<glyph unicode="C" horiz-adv-x="1348" d="M83 707q0 362 188.5 569t508.5 207q112 0 231.5 -24t184.5 -48l65 -25l-10 -393h-203l-47 199q-94 32 -223 32h-8q-342 0 -342 -506q0 -476 352 -476q91 0 189.5 36t151.5 73l52 36l114 -186q-8 -8 -25 -23.5t-72 -55t-114.5 -68.5t-150 -54t-181.5 -25 q-316 0 -488.5 187t-172.5 545z" />
<glyph unicode="D" horiz-adv-x="1509" d="M107 0v180l156 51v983l-156 63v171l477 10h196q314 0 485.5 -182t171.5 -528q0 -347 -185.5 -547.5t-503.5 -200.5h-641zM584 242h171q162 0 248.5 115t86.5 381q0 253 -81.5 364.5t-238.5 111.5h-186v-972z" />
<glyph unicode="E" horiz-adv-x="1296" d="M114 0v180l155 51v983l-155 63v171l476 10h579v-399h-192l-53 155h-334v-345h417v-228h-417v-399h365l48 172h191v-414h-1080z" />
<glyph unicode="F" horiz-adv-x="1198" d="M93 0v180q51 18 155 51v983l-155 63v171l476 10h579v-392h-193l-51 148h-335v-366h428v-228h-428v-389q161 -43 191 -51v-180h-667z" />
<glyph unicode="G" horiz-adv-x="1551" d="M114 707q0 362 188 569t509 207q112 0 232 -24t186 -48l64 -25l-10 -372h-193l-52 178q-94 32 -225 32h-8q-345 0 -345 -506q0 -480 351 -480q47 0 104.5 9.5t89.5 17.5l33 10v260l-155 49v168l596 12v-180l-141 -49v-421q-25 -16 -69.5 -39t-191 -61.5t-301.5 -38.5 q-316 0 -489 187t-173 545z" />
<glyph unicode="H" horiz-adv-x="1638" d="M73 0v180l154 51v983l-154 63v171l634 10v-181l-159 -63v-341h542v341l-159 63v171l635 10v-181l-155 -63v-983l155 -51v-180h-635v180l159 51v400h-542v-400l159 -51v-180h-634z" />
<glyph unicode="I" horiz-adv-x="775" d="M73 0v180l154 51v983l-154 63v171l630 10v-181l-155 -63v-983l155 -51v-180h-630z" />
<glyph unicode="J" horiz-adv-x="789" d="M-67 -310l28 207h99q181 0 182 198v1119l-155 63v171l631 10v-181l-155 -63v-995q0 -282 -104.5 -413t-367.5 -131z" />
<glyph unicode="K" horiz-adv-x="1520" d="M83 0v180l155 51v983l-155 63v171l635 10v-181l-159 -63v-356h140l345 590l377 10v-181l-184 -59l-273 -450l386 -537l154 -51v-180h-635v180l120 49l-280 402h-150v-400l159 -51v-180h-635z" />
<glyph unicode="L" horiz-adv-x="1116" d="M67 0v180l154 51v983l-154 63v171l630 10v-181l-155 -63v-972h316l46 234h197v-476h-1034z" />
<glyph unicode="M" horiz-adv-x="1813" d="M77 0v180l154 51v983l-154 63v171l533 10l310 -688l325 678l496 10v-181l-148 -63v-983l155 -51v-180h-617v180l162 51v785q-38 -97 -86.5 -202t-109.5 -227.5t-94 -193.5l-223 -10l-238 490l-35 108v-750l159 -51v-180h-589z" />
<glyph unicode="N" horiz-adv-x="1623" d="M73 0v180l154 51v983l-154 63v171l496 10l558 -955v711l-150 63v171l589 10v-181l-155 -63v-1214h-345l-555 937v-706l162 -51v-180h-600z" />
<glyph unicode="O" horiz-adv-x="1561" d="M114 718q0 356 183 560.5t499 204.5q310 0 481 -193.5t171 -541.5q0 -349 -191 -562t-502 -213t-476 190.5t-165 554.5zM460 728q0 -254 75 -375.5t231 -121.5q163 0 249 119.5t86 387.5q0 253 -79 369.5t-236 116.5q-162 0 -244 -114.5t-82 -381.5z" />
<glyph unicode="P" horiz-adv-x="1302" d="M87 0v180l155 51v983l-155 63v171l476 10h197q235 0 368 -116t133 -318q0 -256 -152 -386.5t-436 -130.5h-110v-276l155 -51v-180h-631zM563 748h110q130 0 199 60.5t69 174.5q0 103 -55 167t-158 64h-165v-466z" />
<glyph unicode="Q" horiz-adv-x="1534" d="M114 718q0 354 188 559.5t509 205.5q316 0 487 -193.5t171 -541.5q0 -266 -114 -456.5t-317 -268.5q16 -10 92 -61t111.5 -71.5t94 -43.5t101.5 -23q30 0 77 18t81 36l33 19q20 -31 59.5 -91.5t49.5 -74.5q-25 -16 -64 -40t-133 -64.5t-154 -40.5q-103 0 -265 110 l-418 281q-288 18 -438.5 207t-150.5 534zM456 728q0 -497 324 -497q175 0 261 124.5t86 382.5q0 251 -78 368.5t-248 117.5q-176 0 -260.5 -118.5t-84.5 -377.5z" />
<glyph unicode="R" horiz-adv-x="1405" d="M83 0v180l155 51v983l-155 63v171l476 10h157q259 0 398 -106.5t139 -315.5q0 -274 -233 -391q52 -59 87 -134l138 -284l141 -47v-180h-383l-174 383q-55 124 -87.5 157t-110.5 33h-72v-342l148 -51v-180h-624zM559 790h118q122 0 190 57t68 160q0 93 -56 150t-151 57 h-169v-424z" />
<glyph unicode="S" horiz-adv-x="1248" d="M120 1044q0 209 146 324t379 115q103 0 217.5 -21t175.5 -41l63 -21l-11 -376h-190l-52 176q-93 31 -182 31q-105 0 -162.5 -41.5t-57.5 -105.5q0 -56 52 -97.5t129.5 -65t168 -61t167.5 -81t129 -128t52 -198.5q0 -225 -156.5 -352.5t-401.5 -127.5q-103 0 -219.5 19.5 t-180.5 40.5l-62 19v396h211l31 -173q82 -44 203 -44q105 0 177.5 44.5t72.5 123.5q0 55 -51.5 96.5t-129 65t-168.5 61.5t-169 82t-129.5 132t-51.5 208z" />
<glyph unicode="T" horiz-adv-x="1240" d="M20 1018v434l1200 6v-440h-192l-51 196h-197v-983l171 -51v-180h-661v180l170 51v983h-197l-52 -196h-191z" />
<glyph unicode="U" horiz-adv-x="1617" d="M67 1277v171l636 10v-181l-161 -63v-655q0 -180 60 -256t209 -76q158 0 211.5 84t53.5 279v624l-162 63v171l637 10v-181l-155 -63v-624q0 -310 -136.5 -462.5t-458.5 -152.5q-306 0 -443 141t-137 443v655z" />
<glyph unicode="V" horiz-adv-x="1506" d="M14 1277v171l641 10v-181l-152 -61l190 -598l67 -254l65 244l205 606l-157 63v171l619 10v-181l-152 -63l-436 -1214h-331l-417 1218z" />
<glyph unicode="W" horiz-adv-x="2140" d="M10 1277v171l614 10v-181l-150 -63l177 -748l290 975l279 17l278 -990l198 746l-155 63v171l589 10v-181l-148 -63l-354 -1214h-294l-270 983q-50 -203 -163 -572.5t-125 -410.5h-286l-334 1216z" />
<glyph unicode="X" horiz-adv-x="1530" d="M20 0v180l128 43l419 509l-385 505l-120 40v171l621 10v-181l-104 -36l213 -288l203 280l-112 44v171l596 10v-181l-137 -42l-380 -487l404 -527l144 -41v-180h-641v180l95 33l-228 310l-231 -302l130 -41v-180h-615z" />
<glyph unicode="Y" horiz-adv-x="1379" d="M14 1277v171l586 10v-181l-106 -44l207 -449l219 447l-113 46v171l559 10v-181l-144 -57l-374 -713v-276l155 -51v-180h-630v180l154 51v274l-379 715z" />
<glyph unicode="Z" horiz-adv-x="1271" d="M62 0v211l734 1003h-434l-52 -186h-196v430h1096v-234l-720 -982h472l45 214h197v-456h-1142z" />
<glyph unicode="[" horiz-adv-x="727" d="M138 -476v2069l517 -10v-213l-245 -24v-1577l245 -24v-211z" />
<glyph unicode="\" horiz-adv-x="1046" d="M14 1458h317l689 -1458h-315z" />
<glyph unicode="]" horiz-adv-x="727" d="M67 -252l247 23v1575l-247 24v213l517 10v-2069l-517 10v214z" />
<glyph unicode="^" horiz-adv-x="1230" d="M103 662l398 796h227l399 -796h-266l-251 507l-248 -507h-259z" />
<glyph unicode="_" horiz-adv-x="1034" d="M0 -166h1034v-207h-1034v207z" />
<glyph unicode="`" horiz-adv-x="864" d="M148 1528l121 226l447 -292l-98 -165z" />
<glyph unicode="a" d="M77 304q0 341 496 341h145v115q0 154 -157 154h-2q-48 0 -93.5 -8t-68.5 -16l-20 -7l-32 -135h-185l-16 306q251 83 450 83q235 0 332.5 -92t97.5 -317v-511l155 -37v-166l-409 -14l-38 134q-18 -16 -49.5 -41.5t-119 -69t-166.5 -43.5q-152 0 -236 84t-84 240zM375 335 q0 -124 122 -124q49 0 103.5 30t86.5 61l31 29v139h-118q-120 0 -172.5 -32t-52.5 -103z" />
<glyph unicode="b" horiz-adv-x="1230" d="M-20 1421v166l458 16v-575q142 109 293 109h3q207 0 315.5 -142.5t108.5 -404.5q0 -296 -153 -455.5t-446 -159.5q-101 0 -207 11.5t-162 21.5l-56 12v1360zM438 233q48 -16 154 -16q245 0 245 349q0 328 -202 328q-55 0 -104 -23t-71 -48l-22 -22v-568z" />
<glyph unicode="c" horiz-adv-x="1064" d="M62 542q0 277 150 436t419 159q79 0 170 -17t142 -36l50 -18l-10 -338h-187l-28 149q-60 16 -144 17q-116 0 -178.5 -78t-62.5 -232q0 -176 65 -269.5t193 -93.5q42 0 79.5 7t72 22t54.5 25.5t54 31t40 24.5l103 -175q-201 -176 -444 -176q-255 0 -396.5 148.5 t-141.5 413.5z" />
<glyph unicode="d" horiz-adv-x="1292" d="M67 531q0 294 147.5 450t436.5 156q69 0 135 -20v263l-166 41v166l470 16v-1382l165 -41v-166l-434 -14l-18 110q-130 -130 -313 -130q-213 0 -318 144.5t-105 406.5zM586 221q57 0 107.5 30.5t72.5 58.5l20 29v530q-52 31 -162 31q-237 0 -237 -349q0 -330 199 -330z " />
<glyph unicode="e" horiz-adv-x="1151" d="M73 537q0 275 146.5 437.5t404.5 162.5q227 0 349.5 -130t122.5 -356l-12 -154l-687 -7q8 -128 75.5 -198.5t172.5 -70.5q77 0 164 24t134 49l50 24l89 -164q-24 -19 -64.5 -48t-165 -77.5t-242.5 -48.5q-263 0 -400 145.5t-137 411.5zM401 683h373q0 213 -170 213 q-85 0 -137.5 -58t-65.5 -155z" />
<glyph unicode="f" horiz-adv-x="961" d="M107 890v176l187 30v94q0 203 113.5 320.5t326.5 117.5q99 0 189.5 -19.5t130.5 -38.5l42 -19l-6 -306h-180l-31 153q-52 8 -119 9q-160 0 -160 -183v-128h269l-6 -206h-263v-673l199 -51v-166h-671v166l166 51v673h-187z" />
<glyph unicode="g" horiz-adv-x="1271" d="M87 -227q0 79 54 140.5t107 84.5l56 22q-14 2 -35 8.5t-55 41.5t-34 88q0 63 108 233q-160 105 -160 323q0 205 137.5 314t358.5 109q139 0 245 -49l355 8v-165l-170 -29q0 -2 11 -28t18 -61t7 -75q0 -215 -134.5 -319.5t-361.5 -104.5q-25 0 -49 2t-39.5 5.5t-17.5 3.5 l-8 -139h306q199 0 306.5 -83t107.5 -237q0 -178 -146 -285.5t-434 -107.5q-260 0 -396.5 68t-136.5 232zM387 -176q0 -74 61 -99t197 -25q141 0 203 33.5t62 106.5q0 67 -48.5 93t-158.5 26h-217q-10 -4 -27 -15t-44.5 -45.5t-27.5 -74.5zM438 728q0 -207 166 -207 q95 0 135.5 49.5t40.5 157.5q0 196 -166 196q-176 0 -176 -196z" />
<glyph unicode="h" horiz-adv-x="1379" d="M52 0v166l165 51v1163l-165 41v166l469 16v-606q170 140 348 140q155 0 238 -98t83 -273v-549l144 -51v-166h-558v166l107 49v503q0 165 -135 165h-2q-51 0 -106.5 -28t-87.5 -54l-31 -27v-557l110 -51v-166h-579z" />
<glyph unicode="i" horiz-adv-x="740" d="M73 0v166l165 51v677l-165 41v166l469 16v-900l145 -51v-166h-614zM199 1458q0 85 52.5 135.5t125.5 50.5q173 0 173 -186q0 -86 -53 -137t-120 -51q-85 0 -131.5 49t-46.5 139z" />
<glyph unicode="j" horiz-adv-x="659" d="M-97 -492l24 192h108q91 0 130.5 50.5t39.5 154.5v989l-166 41v166l472 16v-1090q0 -278 -99.5 -406t-351.5 -128zM164 1458q0 83 50.5 134.5t126.5 51.5q174 0 174 -186q0 -82 -50.5 -135t-123.5 -53q-84 0 -130.5 49t-46.5 139z" />
<glyph unicode="k" horiz-adv-x="1313" d="M52 0v166l165 51v1163l-165 41v166l469 16v-906h134l144 219l-92 29v166l534 10v-176l-145 -27l-192 -275l231 -428l158 -49v-166h-383l-257 507h-132v-290l114 -51v-166h-583z" />
<glyph unicode="l" horiz-adv-x="740" d="M52 0v166l165 51v1163l-165 41v166l477 16v-1386l197 -51v-166h-674z" />
<glyph unicode="m" horiz-adv-x="2031" d="M73 0v166l158 51v679l-156 39v166l426 16l14 -146q20 18 55.5 45.5t130.5 74t176 46.5q205 0 281 -177q32 31 73.5 64t130 73t171.5 40q156 0 234 -97t78 -274v-549l141 -51v-166h-555v166l110 51v486q0 87 -28 128.5t-92 41.5q-60 0 -117 -27t-84 -54l-28 -26v-549 l107 -51v-166h-521v166l108 51v486q0 89 -27.5 129.5t-90.5 40.5q-60 0 -118 -27t-87 -54l-28 -26v-549l110 -51v-166h-572z" />
<glyph unicode="n" horiz-adv-x="1395" d="M73 0v166l158 51v677l-158 41v166l428 16l14 -142q23 18 60 43.5t137.5 70t183.5 44.5q148 0 228 -98t80 -269v-549q27 -8 76.5 -26.5t67.5 -24.5v-166h-558v166l110 51v501q0 73 -38.5 119t-101.5 46q-58 0 -113 -30t-82 -59l-28 -28v-549l108 -51v-166h-572z" />
<glyph unicode="o" d="M73 548q0 277 151 433t407 156q251 0 386 -145.5t135 -412.5q0 -277 -150 -438t-402 -161q-527 0 -527 568zM393 559q0 -178 52 -260t165.5 -82t167 81t53.5 271q0 167 -50.5 249t-160.5 82q-118 0 -172.5 -77t-54.5 -264z" />
<glyph unicode="p" horiz-adv-x="1302" d="M41 935v166l435 16l18 -116q16 14 44.5 37.5t108 61t154.5 37.5q211 0 320.5 -145.5t109.5 -401.5q0 -294 -142 -452t-423 -158q-73 0 -155 20v-263l196 -47v-166h-662v166l162 47v1157zM511 227q50 -30 155 -30h7q128 0 182.5 88t54.5 267q0 342 -207 342 q-60 0 -107.5 -29.5t-66.5 -57.5l-18 -27v-553z" />
<glyph unicode="q" d="M67 527q0 288 153 449t446 161q101 0 207 -12t161 -24l56 -13v-1347l155 -51v-166h-655v166l196 51v350q-14 -12 -42 -31t-105.5 -49.5t-148.5 -30.5q-211 0 -317 145.5t-106 401.5zM435.5 303q48.5 -82 156.5 -82q57 0 105.5 24t68.5 47l20 22v569q-58 16 -162 17 q-237 0 -237 -349q0 -166 48.5 -248z" />
<glyph unicode="r" horiz-adv-x="1013" d="M73 0v166l165 51v677l-165 41v166l428 16l18 -142q16 18 45.5 44.5t104.5 72t138 45.5q49 0 95.5 -9t70.5 -19l20 -8l-16 -394h-181l-30 176q-54 0 -110 -29t-85 -58l-29 -28v-551l196 -51v-166h-665z" />
<glyph unicode="s" horiz-adv-x="1015" d="M79 784q0 182 121.5 267.5t304.5 85.5q83 0 179 -15t151 -30l55 -16q-4 -103 -9 -310h-182l-30 134q-54 20 -138 20q-63 0 -100.5 -27.5t-37.5 -77.5q0 -47 57 -80.5t136.5 -58.5t160 -56.5t137.5 -100.5t57 -168q0 -175 -129 -273t-346 -98q-87 0 -182.5 11t-147.5 21 l-51 13v337h190l17 -145q69 -20 170 -20q162 0 162 110q0 49 -55.5 83t-136.5 59t-161.5 59t-136 104.5t-55.5 171.5z" />
<glyph unicode="t" horiz-adv-x="902" d="M35 863v196l192 27v286l304 55v-341h290v-223h-290v-468q0 -103 23 -144.5t87 -41.5q75 0 164 48l74 -150q-182 -127 -352 -127q-171 0 -235.5 110.5t-64.5 385.5v387h-192z" />
<glyph unicode="u" horiz-adv-x="1354" d="M33 935v166l457 16v-710q0 -85 27 -125t89 -40q58 0 119 28t94 57l31 29v542l-153 37v166l457 16v-900l157 -41v-162l-421 -14l-21 144q-6 -6 -20 -17t-52.5 -40t-80 -51t-100.5 -39t-113 -17q-156 0 -237.5 97t-81.5 272v549z" />
<glyph unicode="v" horiz-adv-x="1238" d="M10 941v166l542 10v-176l-116 -21l188 -610l183 604l-120 27v166l542 10v-176l-118 -27l-333 -914h-342l-326 908z" />
<glyph unicode="w" horiz-adv-x="1815" d="M12 941v166l542 10v-176l-130 -25l137 -581l219 747l272 45l227 -792l121 575l-125 31v166l529 10v-176l-110 -25l-275 -916h-316l-164 527l-37 162l-52 -225l-151 -464h-314l-282 912z" />
<glyph unicode="x" d="M20 0v166l156 41l227 341l-249 366l-113 27v166l536 10v-176l-62 -12l107 -183l215 361l346 10v-176l-129 -27l-237 -355l233 -352l154 -41v-166h-563v166l64 22l-109 183l-223 -371h-353z" />
<glyph unicode="y" horiz-adv-x="1263" d="M20 941v166l553 10v-176l-115 -21l183 -579l176 573l-120 27v166l556 10v-176l-128 -27l-304 -847q-45 -123 -85.5 -206.5t-106.5 -173.5t-159 -137t-211 -47l-201 17l29 221h134q58 0 107 26t82.5 74.5t51 80t37.5 76.5l-369 910z" />
<glyph unicode="z" horiz-adv-x="1068" d="M103 0v190l540 710h-298l-35 -162h-182v379h869v-193l-531 -707h316l39 186h182v-403h-900z" />
<glyph unicode="{" horiz-adv-x="835" d="M62 507v207q110 0 153.5 55.5t43.5 159.5v291q0 201 92.5 292t283.5 91h139v-213q-147 0 -199 -43.5t-52 -167.5v-217q0 -143 -42.5 -228t-147.5 -124q190 -75 190 -294v-357q0 -125 52 -168t199 -43v-214h-139q-207 0 -291.5 101.5t-84.5 337.5v319q0 103 -43.5 159 t-153.5 56z" />
<glyph unicode="|" horiz-adv-x="582" d="M170 -476v2037h244v-2037h-244z" />
<glyph unicode="}" horiz-adv-x="845" d="M83 -252q146 0 197 43t51 168v357q0 219 192 294q-192 75 -192 292v277q0 124 -51 167.5t-197 43.5v213h138q192 0 284.5 -92t92.5 -291v-291q0 -103 43.5 -159t152.5 -56v-207q-110 0 -153 -56t-43 -159v-319q0 -236 -87 -337.5t-292 -101.5h-136v214z" />
<glyph unicode="~" horiz-adv-x="1294" d="M89 537q4 10 13.5 27t40.5 58.5t66 73.5t93 59t120 27q91 0 224.5 -69.5t203.5 -69.5q50 0 99.5 28t74.5 57l24 30l138 -105q-4 -10 -13.5 -26.5t-42 -59t-67.5 -75t-91 -60t-114 -27.5q-88 0 -232 69.5t-216 69.5q-49 0 -97 -28t-73 -56l-23 -28z" />
<glyph unicode="&#xa1;" horiz-adv-x="696" d="M170 964q0 86 52.5 137t126.5 51q172 -1 172 -188q0 -85 -52.5 -135.5t-125.5 -50.5q-84 0 -128.5 48.5t-44.5 137.5zM190 -458l37 1044l249 10l39 -1054h-325z" />
<glyph unicode="&#xa2;" horiz-adv-x="1054" d="M79 730q0 211 98 349.5t285 177.5v201h223v-188q66 -6 135.5 -23.5t106.5 -32.5l35 -14l-11 -314h-175l-30 142q-59 16 -132 16q-231 0 -231 -274q0 -326 246 -326q32 0 62.5 6t52.5 12t49.5 18t40 19.5t38.5 22.5t30 18l101 -161q-145 -129 -318 -156v-223h-223v227 q-184 34 -283.5 166t-99.5 337z" />
<glyph unicode="&#xa3;" horiz-adv-x="1292" d="M124 0v180l103 37q60 20 79 65t19 146q0 20 -11 234h-190v192l176 29q-6 87 -6 171q0 203 107.5 316t332.5 113q118 0 228 -17.5t159 -36.5l52 -18v-335h-186l-42 153q-76 12 -175 12q-170 0 -170 -182v-39q0 -47 4 -130h298v-228h-282q10 -121 11 -202q0 -149 -77 -218 h385l48 214h192v-456h-1055z" />
<glyph unicode="&#xa4;" horiz-adv-x="1289" d="M105 242l158 155q-46 97 -46 215q0 120 54 215l-164 166l154 165l165 -165q110 61 229 61q117 0 216 -51l159 157l153 -165l-153 -153q52 -97 52 -218q0 -126 -58 -229l162 -160l-156 -162l-163 160q-99 -57 -222 -57q-136 0 -229 55l-155 -154zM470 616q0 -225 179 -225 q182 0 182 225q0 217 -182 217q-179 0 -179 -217z" />
<glyph unicode="&#xa5;" horiz-adv-x="1389" d="M20 1277v171l584 10v-181l-105 -44l208 -437l220 435l-116 46v171l559 10v-181l-146 -57l-213 -387h197v-186h-1034v186h195l-211 385zM174 337v186h1034v-186h-356v-116l155 -41v-180h-630v180l154 41v116h-357z" />
<glyph unicode="&#xa6;" horiz-adv-x="614" d="M180 300h244v-848h-244v848zM180 755v828h244v-828h-244z" />
<glyph unicode="&#xa7;" horiz-adv-x="1103" d="M128 722q0 201 145 306q-62 99 -62 221q0 168 116.5 273.5t299.5 105.5q81 0 161.5 -15.5t119.5 -31.5l39 -18l-8 -341h-163l-36 178q-51 12 -97 13q-76 0 -118.5 -39.5t-42.5 -100.5q0 -69 54 -129t130 -109.5t152 -106.5t129.5 -142t53.5 -190q0 -197 -145 -302 q62 -97 62 -211q0 -176 -115.5 -282.5t-299.5 -106.5q-77 0 -157.5 14.5t-122.5 30.5l-41 15l4 353h170l29 -182q43 -12 105 -12q75 0 117 37.5t42 101.5q0 66 -53.5 123.5t-130 107.5t-153.5 105.5t-130.5 141.5t-53.5 192zM389 758q0 -58 40.5 -104t142 -113t133.5 -95 q37 46 37 117q0 57 -40 103t-142 113t-136 92q-35 -47 -35 -113z" />
<glyph unicode="&#xa8;" horiz-adv-x="1125" d="M186 1473q0 72 44.5 116.5t108.5 44.5q73 0 111 -42.5t38 -118.5q0 -75 -44.5 -118.5t-108.5 -43.5q-149 0 -149 162zM637 1473q0 72 45.5 116.5t107.5 44.5q148 0 149 -161q0 -75 -44.5 -118.5t-108.5 -43.5q-149 0 -149 162z" />
<glyph unicode="&#xa9;" horiz-adv-x="1701" d="M77 714q0 333 220 553.5t553 220.5q336 0 555 -211t219 -542.5t-229.5 -552.5t-565.5 -221q-333 0 -542.5 209t-209.5 544zM288 724q0 -254 151 -411t400 -157q253 0 413.5 158t160.5 410q0 251 -160.5 410t-413.5 159q-250 0 -400.5 -158t-150.5 -411zM464 707 q0 201 106.5 319t296.5 118q57 0 123.5 -15.5t105.5 -32.5l37 -14l-6 -232h-142l-23 114q-52 12 -99 13q-172 0 -172 -243q0 -248 180 -248q57 0 117 25.5t94 53.5l76 -119q-159 -132 -314 -132q-175 0 -277.5 102.5t-102.5 290.5z" />
<glyph unicode="&#xaa;" horiz-adv-x="967" d="M116 892q0 244 354 243h95v75q0 45 -28 70t-75 25q-32 0 -64 -5t-49 -9l-16 -4l-19 -89h-146l-12 225q196 60 336 60q170 0 238.5 -69.5t68.5 -225.5v-349l109 -24v-136l-288 -13l-28 104q-12 -12 -33.5 -32t-84 -53.5t-125.5 -33.5q-112 0 -172.5 62.5t-60.5 178.5z M136 279v207h772v-207h-772zM339 908q0 -33 23 -54t60 -21q34 0 68.5 18t55.5 35l19 18v97h-81q-145 0 -145 -93z" />
<glyph unicode="&#xab;" horiz-adv-x="1238" d="M114 468v159l314 366l172 -114l-225 -331l225 -331l-172 -116zM631 468v159l322 366l172 -114l-233 -331l233 -331l-172 -116z" />
<glyph unicode="&#xac;" horiz-adv-x="1327" d="M124 537v239h1090v-610h-263v371h-827z" />
<glyph unicode="&#xad;" horiz-adv-x="816" d="M118 434v259h585v-259h-585z" />
<glyph unicode="&#xae;" horiz-adv-x="1494" d="M93 929q0 284 187.5 470t468.5 186t467.5 -177t186.5 -457q0 -281 -196 -468t-481 -187q-279 0 -456 175.5t-177 457.5zM296 941q0 -209 118.5 -336t323.5 -127q207 0 335.5 128t128.5 335t-128.5 334.5t-335.5 127.5q-205 0 -323.5 -126.5t-118.5 -335.5zM460 624v94 l69 24v410l-69 29v87l295 5h7q74 0 128.5 -21t86.5 -64.5t32 -103.5q0 -120 -109 -174q16 -10 35 -45l64 -123l69 -24v-94h-187l-85 189q-16 37 -28.5 49.5t-31.5 12.5h-47v-133l69 -24v-94h-298zM689 985h53q44 0 75 22.5t31 60.5q0 82 -90 82h-69v-165z" />
<glyph unicode="&#xaf;" horiz-adv-x="723" d="M87 1324v221h548v-221h-548z" />
<glyph unicode="&#xb0;" horiz-adv-x="880" d="M93 1200q0 148 97.5 240.5t250.5 92.5t250 -88.5t97 -234.5q0 -158 -97 -250.5t-251 -92.5q-155 0 -251 88.5t-96 244.5zM300 1208q0 -75 36.5 -116.5t104.5 -41.5t104 41.5t36 116.5q0 67 -38 103.5t-102 36.5t-102.5 -36.5t-38.5 -103.5z" />
<glyph unicode="&#xb1;" horiz-adv-x="1285" d="M107 -75v237h1072v-237h-1072zM107 596v241h400v304h275v-304h397v-241h-397v-312h-275v312h-400z" />
<glyph unicode="&#xb2;" horiz-adv-x="835" d="M69 579v207q262 201 318 258q79 83 79 154q0 81 -106 81q-24 0 -45 -4.5t-33 -8.5l-11 -2l-14 -110h-176l-6 273q159 52 306 52q169 0 267 -61.5t98 -186.5q0 -118 -70 -205t-254 -230h333v-217h-686z" />
<glyph unicode="&#xb3;" horiz-adv-x="816" d="M35 641l56 174q128 -55 246 -55q64 0 102.5 29.5t38.5 66.5q0 93 -151 93h-112v156h114q141 0 141 99q0 83 -114 83l-110 -12l-11 -87h-168l-7 243q177 48 321 48q167 0 257 -59t90 -171q0 -80 -45.5 -132.5t-121.5 -74.5q78 -14 132.5 -69t54.5 -131 q0 -140 -110.5 -209.5t-281.5 -69.5q-73 0 -152.5 19.5t-124.5 37.5z" />
<glyph unicode="&#xb4;" horiz-adv-x="864" d="M148 1462l448 292l120 -223l-470 -234z" />
<glyph unicode="&#xb5;" horiz-adv-x="1362" d="M35 935v166l457 16v-722q0 -154 120 -153q60 0 121 28t94 57l31 29v538l-153 41v166l458 16v-900l157 -41v-162l-420 -14l-21 146q-18 -18 -50.5 -45.5t-115 -74t-144.5 -46.5q-44 0 -77 12v-478h-304v1380z" />
<glyph unicode="&#xb6;" horiz-adv-x="1490" d="M103 1016q0 192 125.5 317t340.5 125h382l427 -17v-164l-166 -42v-1586h-261v1586h-217v-1586h-416v171l170 46v699q-166 16 -275.5 143t-109.5 308z" />
<glyph unicode="&#xb7;" horiz-adv-x="618" d="M126 633q0 91 51.5 142.5t134.5 51.5q178 0 178 -194q0 -91 -50.5 -142t-133.5 -51q-180 1 -180 193z" />
<glyph unicode="&#xb8;" horiz-adv-x="890" d="M197 -416l64 114q82 -43 161 -43q48 0 75.5 21.5t27.5 56.5q0 89 -169 89v178h175v-89q83 -16 130.5 -64t47.5 -120q0 -93 -72 -151t-189 -58q-61 0 -124 17t-97 33z" />
<glyph unicode="&#xb9;" horiz-adv-x="812" d="M31 1253l327 205h226v-694h188v-185h-650v185h198v432l-188 -114z" />
<glyph unicode="&#xba;" horiz-adv-x="1021" d="M103 1054q0 195 119 312t303 117q182 0 287.5 -104t105.5 -294.5t-116.5 -312t-300.5 -121.5q-186 0 -292 102.5t-106 300.5zM120 279v207h782v-207h-782zM362 1064q0 -222 149 -222t149 234q0 217 -145 217q-153 0 -153 -229z" />
<glyph unicode="&#xbb;" horiz-adv-x="1238" d="M114 217l233 331l-233 331l172 114l322 -366v-159l-322 -367zM639 217l226 331l-226 331l172 114l314 -366v-159l-314 -367z" />
<glyph unicode="&#xbc;" horiz-adv-x="2216" d="M93 1253l327 205h225v-694h166v-185h-627v185h199v432l-188 -114zM527 0l845 1458h300l-845 -1458h-300zM1279 333l407 557l298 -36v-503h120v-191h-120v-160h-263v160h-414zM1524 351h197v263z" />
<glyph unicode="&#xbd;" horiz-adv-x="2218" d="M93 1253l327 205h225v-694h166v-185h-627v185h199v432l-188 -114zM529 0l845 1458h300l-845 -1458h-300zM1413 0v207q261 201 310 253q87 86 87 160q0 79 -107 79q-23 0 -45 -4t-32 -8l-13 -2l-12 -110h-176l-6 273q158 52 304 52q172 0 270.5 -61t98.5 -188 q0 -118 -71 -204.5t-255 -229.5h334v-217h-687z" />
<glyph unicode="&#xbe;" horiz-adv-x="2179" d="M83 622l55 174q127 -54 245 -54q53 0 97.5 26t44.5 71q0 93 -152 94h-110v153h114q138 0 138 104q0 81 -112 80q-27 0 -55 -4.5t-42 -8.5l-14 -2l-10 -84h-168l-9 242q180 47 323 47q168 0 257 -58.5t89 -168.5q0 -163 -168 -209q77 -12 133.5 -68t56.5 -133 q0 -138 -110.5 -207.5t-282.5 -69.5q-73 0 -153 19t-124 39zM492 0l844 1458h300l-844 -1458h-300zM1243 333l405 557l298 -36v-503h120v-191h-120v-160h-262v160h-411zM1488 351h196v263z" />
<glyph unicode="&#xbf;" horiz-adv-x="953" d="M103 -144q0 88 38.5 166.5t93.5 136.5t109.5 109.5t93 106.5t38.5 107l-4 120l272 12q19 -134 20 -202q0 -67 -55.5 -136t-119.5 -117.5t-118.5 -115t-54.5 -130.5q0 -136 186 -136q39 0 84.5 6t73.5 10l26 6l39 -215q-174 -50 -308 -50q-112 0 -201 28t-151 102.5 t-62 191.5zM414 964q0 86 51.5 137t126.5 51q85 0 129.5 -49t44.5 -139q0 -85 -53 -135.5t-125 -50.5q-85 0 -129.5 48.5t-44.5 137.5z" />
<glyph unicode="&#xc0;" horiz-adv-x="1575" d="M25 0v180l151 47l455 1225l331 6l445 -1231l144 -47v-180h-657v180l154 47l-49 156h-459l-52 -154l161 -49v-180h-624zM509 1752l120 226l445 -292l-95 -166zM612 604h319l-155 490z" />
<glyph unicode="&#xc1;" horiz-adv-x="1575" d="M25 0v180l151 47l455 1225l331 6l445 -1231l144 -47v-180h-657v180l154 47l-49 156h-459l-52 -154l161 -49v-180h-624zM612 604h319l-155 490zM633 1686l445 292l120 -226l-470 -232z" />
<glyph unicode="&#xc2;" horiz-adv-x="1575" d="M25 0v180l151 47l455 1225l331 6l445 -1231l144 -47v-180h-657v180l154 47l-49 156h-459l-52 -154l161 -49v-180h-624zM373 1672l316 270l184 16l335 -286l-99 -137l-313 202l-324 -202zM612 604h319l-155 490z" />
<glyph unicode="&#xc3;" horiz-adv-x="1575" d="M25 0v180l151 47l455 1225l331 6l445 -1231l144 -47v-180h-657v180l154 47l-49 156h-459l-52 -154l161 -49v-180h-624zM425 1739q4 8 10 23.5t30.5 55t52 70t73 55t92.5 24.5q75 0 179 -47.5t165 -47.5q35 0 71 22t55 44l16 21l110 -96q-4 -8 -11.5 -23.5t-31.5 -54.5 t-51.5 -68.5t-72 -54t-91.5 -24.5q-75 0 -181.5 45.5t-166.5 45.5q-39 0 -76.5 -22t-55.5 -42l-19 -21zM612 604h319l-155 490z" />
<glyph unicode="&#xc4;" horiz-adv-x="1575" d="M25 0v180l151 47l455 1225l331 6l445 -1231l144 -47v-180h-657v180l154 47l-49 156h-459l-52 -154l161 -49v-180h-624zM468 1752q0 73 44.5 117t107.5 44q73 0 111.5 -42.5t38.5 -118.5q0 -74 -44.5 -117.5t-109.5 -43.5q-148 0 -148 161zM612 604h319l-155 490z M918 1752q0 73 45.5 117t108.5 44q148 0 148 -161q0 -74 -44.5 -117.5t-107.5 -43.5q-150 0 -150 161z" />
<glyph unicode="&#xc5;" horiz-adv-x="1575" d="M25 0v180l151 47l455 1225l331 6l445 -1231l144 -47v-180h-657v180l154 47l-49 156h-459l-52 -154l161 -49v-180h-624zM514 1663q0 125 84 200t193.5 75t192.5 -70t83 -192.5t-84 -198.5t-191 -76q-112 0 -195 70t-83 192zM612 604h319l-155 490zM691 1669 q0 -118 101 -118q44 0 71.5 31.5t27.5 88.5q0 119 -99 119q-45 0 -73 -31.5t-28 -89.5z" />
<glyph unicode="&#xc6;" horiz-adv-x="2035" d="M41 0v180l170 51l478 987l-176 59v171l395 10h1003v-404h-192l-51 160h-336v-345h418v-228h-418v-399h366l48 176h190v-418h-1078v180l153 51v166h-399l-83 -174l129 -43v-180h-617zM709 620h302v594h-28z" />
<glyph unicode="&#xc7;" horiz-adv-x="1348" d="M83 707q0 362 188.5 569t508.5 207q112 0 231.5 -24t184.5 -48l65 -25l-10 -393h-203l-47 199q-97 33 -231 32q-342 0 -342 -506q0 -476 352 -476q91 0 189.5 36t151.5 73l52 36l114 -186q-6 -6 -20 -18.5t-57 -46t-89.5 -60.5t-119 -53.5t-147.5 -38.5v-75 q176 -35 176 -186q0 -91 -74.5 -149t-185.5 -58q-62 0 -127.5 18t-98.5 36l-33 16l66 116q87 -47 169 -47q44 0 70 20.5t26 55.5q0 89 -169 89v160q-284 18 -437 204.5t-153 522.5z" />
<glyph unicode="&#xc8;" horiz-adv-x="1292" d="M114 0v180l155 51v983l-155 63v171l476 10h579v-399h-192l-53 155h-334v-345h417v-228h-417v-399h365l48 172h191v-414h-1080zM329 1752l119 226l448 -292l-97 -166z" />
<glyph unicode="&#xc9;" horiz-adv-x="1296" d="M114 0v180l155 51v983l-155 63v171l476 10h579v-399h-192l-53 155h-334v-345h417v-228h-417v-399h365l48 172h191v-414h-1080zM446 1685l448 292l120 -223l-470 -234z" />
<glyph unicode="&#xca;" horiz-adv-x="1296" d="M114 0v180l155 51v983l-155 63v171l476 10h579v-399h-192l-53 155h-334v-345h417v-228h-417v-399h365l48 172h191v-414h-1080zM284 1672l316 270l184 16l335 -286l-99 -137l-313 202l-324 -202z" />
<glyph unicode="&#xcb;" horiz-adv-x="1296" d="M114 0v180l155 51v983l-155 63v171l476 10h579v-399h-192l-53 155h-334v-345h417v-228h-417v-399h365l48 172h191v-414h-1080zM300 1755q0 72 44.5 116.5t108.5 44.5q73 0 111 -42.5t38 -118.5q0 -75 -44.5 -118.5t-108.5 -43.5q-149 0 -149 162zM751 1755 q0 72 45.5 116.5t107.5 44.5q148 0 149 -161q0 -75 -44.5 -118.5t-108.5 -43.5q-149 0 -149 162z" />
<glyph unicode="&#xcc;" horiz-adv-x="764" d="M18 1752l120 226l448 -292l-98 -166zM52 0v180l155 51v983l-155 63v171l631 10v-181l-156 -63v-983l156 -51v-180h-631z" />
<glyph unicode="&#xcd;" horiz-adv-x="827" d="M83 0v180l155 51v983l-155 63v171l631 10v-181l-155 -63v-983l155 -51v-180h-631zM188 1686l447 292l120 -224l-469 -234z" />
<glyph unicode="&#xce;" horiz-adv-x="928" d="M41 1672l317 270l184 16l335 -286l-99 -137l-312 202l-326 -202zM152 0v180l154 51v983l-154 63v171l630 10v-181l-155 -63v-983l155 -51v-180h-630z" />
<glyph unicode="&#xcf;" horiz-adv-x="835" d="M54 1752q0 73 44 117t109 44q73 0 111 -42.5t38 -118.5q0 -74 -44.5 -117.5t-108.5 -43.5q-149 0 -149 161zM101 0v180l156 51v983l-156 63v171l631 10v-181l-155 -63v-983l155 -51v-180h-631zM484 1752q0 73 45.5 117t107.5 44q149 0 149 -161q0 -74 -44.5 -117.5 t-108.5 -43.5q-149 0 -149 161z" />
<glyph unicode="&#xd0;" horiz-adv-x="1573" d="M103 0v180l187 51v414h-172v228h172v341l-187 63v171l507 10h205q312 0 484 -182t172 -528q0 -347 -186.5 -547.5t-500.5 -200.5h-681zM608 242h180q161 0 249 115t88 381q0 253 -81.5 364.5t-238.5 111.5h-197v-341h250v-228h-250v-403z" />
<glyph unicode="&#xd1;" horiz-adv-x="1623" d="M73 0v180l154 51v983l-154 63v171l496 10l558 -955v711l-150 63v171l589 10v-181l-155 -63v-1214h-345l-555 937v-706l162 -51v-180h-600zM387 1678q4 8 10 23.5t31 55t52 69t72.5 54.5t92.5 25q75 0 187.5 -47.5t172.5 -47.5q35 0 71.5 21.5t52.5 42.5l19 23l113 -87 q-4 -8 -12 -22.5t-35.5 -52t-58 -66.5t-78 -51.5t-94.5 -22.5q-75 0 -181.5 40.5t-166.5 40.5q-39 0 -76.5 -20t-53.5 -38l-19 -21z" />
<glyph unicode="&#xd2;" horiz-adv-x="1561" d="M114 718q0 356 183 560.5t499 204.5q310 0 481 -193.5t171 -541.5q0 -349 -191 -562t-502 -213t-476 190.5t-165 554.5zM432 1752l120 226l447 -292l-97 -166zM460 728q0 -254 75 -375.5t231 -121.5q163 0 249 119.5t86 387.5q0 253 -79 369.5t-236 116.5 q-162 0 -244 -114.5t-82 -381.5z" />
<glyph unicode="&#xd3;" horiz-adv-x="1561" d="M114 718q0 356 183 560.5t499 204.5q310 0 481 -193.5t171 -541.5q0 -349 -191 -562t-502 -213t-476 190.5t-165 554.5zM460 728q0 -254 75 -375.5t231 -121.5q163 0 249 119.5t86 387.5q0 253 -79 369.5t-236 116.5q-162 0 -244 -114.5t-82 -381.5zM531 1685l448 292 l120 -223l-470 -234z" />
<glyph unicode="&#xd4;" horiz-adv-x="1561" d="M114 718q0 356 183 560.5t499 204.5q310 0 481 -193.5t171 -541.5q0 -349 -191 -562t-502 -213t-476 190.5t-165 554.5zM373 1672l316 270l184 16l335 -286l-99 -137l-313 202l-324 -202zM460 728q0 -254 75 -375.5t231 -121.5q163 0 249 119.5t86 387.5q0 253 -79 369.5 t-236 116.5q-162 0 -244 -114.5t-82 -381.5z" />
<glyph unicode="&#xd5;" horiz-adv-x="1561" d="M114 718q0 356 183 560.5t499 204.5q310 0 481 -193.5t171 -541.5q0 -349 -191 -562t-502 -213t-476 190.5t-165 554.5zM345 1688q4 8 10.5 23.5t31.5 55t52 69t72.5 54.5t92.5 25q75 0 187.5 -47.5t172.5 -47.5q35 0 71.5 21.5t52.5 45.5l19 20l113 -87q-4 -8 -12 -22.5 t-36 -51.5t-58 -66.5t-77.5 -52t-95.5 -22.5q-74 0 -181 40.5t-166 40.5q-40 0 -77 -20t-53 -40l-20 -19zM460 728q0 -254 75 -375.5t231 -121.5q163 0 249 119.5t86 387.5q0 253 -79 369.5t-236 116.5q-162 0 -244 -114.5t-82 -381.5z" />
<glyph unicode="&#xd6;" horiz-adv-x="1561" d="M114 718q0 356 183 560.5t499 204.5q310 0 481 -193.5t171 -541.5q0 -349 -191 -562t-502 -213t-476 190.5t-165 554.5zM401 1752q0 73 44.5 117t108.5 44q73 0 111 -42.5t38 -118.5q0 -74 -44.5 -117.5t-108.5 -43.5q-149 0 -149 161zM460 728q0 -254 75 -375.5 t231 -121.5q163 0 249 119.5t86 387.5q0 253 -79 369.5t-236 116.5q-162 0 -244 -114.5t-82 -381.5zM852 1752q0 73 45.5 117t107.5 44q148 0 149 -161q0 -74 -44 -117.5t-109 -43.5q-149 0 -149 161z" />
<glyph unicode="&#xd7;" horiz-adv-x="1267" d="M110 209l350 350l-350 349l174 176l349 -352l352 352l173 -176l-349 -349l349 -350l-173 -176l-352 352l-349 -352z" />
<glyph unicode="&#xd8;" horiz-adv-x="1591" d="M128 718q0 356 184.5 560.5t498.5 204.5q162 0 287 -56l128 213l185 -105l-138 -226q189 -195 189 -561q0 -347 -191 -560t-501 -213q-158 0 -280 50l-153 -252l-183 105l160 264q-186 190 -186 576zM476 750q0 -177 43 -272q56 93 432 712q-65 34 -150 34 q-160 0 -242.5 -111.5t-82.5 -362.5zM637 267q60 -36 143 -36q337 0 337 507q0 145 -45 241z" />
<glyph unicode="&#xd9;" horiz-adv-x="1617" d="M67 1277v171l636 10v-181l-161 -63v-655q0 -180 60 -256t209 -76q158 0 211.5 84t53.5 279v624l-162 63v171l637 10v-181l-155 -63v-624q0 -310 -136.5 -462.5t-458.5 -152.5q-306 0 -443 141t-137 443v655zM452 1751l121 226l447 -292l-98 -165z" />
<glyph unicode="&#xda;" horiz-adv-x="1617" d="M67 1277v171l636 10v-181l-161 -63v-655q0 -180 60 -256t209 -76q158 0 211.5 84t53.5 279v624l-162 63v171l637 10v-181l-155 -63v-624q0 -310 -136.5 -462.5t-458.5 -152.5q-306 0 -443 141t-137 443v655zM645 1686l447 292l120 -224l-470 -234z" />
<glyph unicode="&#xdb;" horiz-adv-x="1617" d="M67 1277v171l636 10v-181l-161 -63v-655q0 -180 60 -256t209 -76q158 0 211.5 84t53.5 279v624l-162 63v171l637 10v-181l-155 -63v-624q0 -310 -136.5 -462.5t-458.5 -152.5q-306 0 -443 141t-137 443v655zM384 1671l318 271l183 16l336 -287l-100 -137l-312 203 l-325 -203z" />
<glyph unicode="&#xdc;" horiz-adv-x="1617" d="M67 1277v171l636 10v-181l-161 -63v-655q0 -180 60 -256t209 -76q158 0 211.5 84t53.5 279v624l-162 63v171l637 10v-181l-155 -63v-624q0 -310 -136.5 -462.5t-458.5 -152.5q-306 0 -443 141t-137 443v655zM432 1752q0 73 44.5 117t109.5 44q73 0 110.5 -42.5 t37.5 -118.5q0 -74 -44.5 -117.5t-108.5 -43.5q-149 0 -149 161zM883 1752q0 73 46 117t107 44q149 0 150 -161q0 -74 -45 -117.5t-109 -43.5q-149 0 -149 161z" />
<glyph unicode="&#xdd;" horiz-adv-x="1379" d="M14 1277v171l586 10v-181l-106 -44l207 -449l219 447l-113 46v171l559 10v-181l-144 -57l-374 -713v-276l155 -51v-180h-630v180l154 51v274l-379 715zM521 1685l448 292l120 -223l-470 -234z" />
<glyph unicode="&#xde;" horiz-adv-x="1331" d="M62 0v180l186 51v983l-186 63v171l693 10v-181l-186 -63v-66h205q235 0 365.5 -99.5t130.5 -282.5q0 -224 -156.5 -329.5t-432.5 -105.5h-112v-100l186 -51v-180h-693zM569 552h132q120 0 186 48.5t66 143.5q0 85 -59 130.5t-158 45.5h-167v-368z" />
<glyph unicode="&#xdf;" horiz-adv-x="1627" d="M107 869v179l207 32v99q0 203 138 326t365 123q249 0 385 -94.5t136 -254.5q0 -83 -36 -150t-80.5 -103.5t-80.5 -84t-36 -93.5q0 -51 49.5 -89.5t119.5 -67.5t139.5 -64t119.5 -104.5t50 -166.5q0 -170 -126.5 -273t-327.5 -103q-75 0 -162.5 11t-139.5 21l-51 13v333 h186l21 -139q55 -23 136 -22q149 0 149 111q0 50 -49.5 86t-119 65t-139.5 66.5t-120 109.5t-50 174q0 81 38.5 144t83.5 96t83.5 81.5t38.5 104.5q0 79 -64 122t-149 43q-95 0 -148 -54.5t-53 -151.5v-1194h-472v166l166 51v652h-207z" />
<glyph unicode="&#xe0;" d="M77 304q0 341 496 341h145v115q0 155 -159 154q-48 0 -93.5 -8t-68.5 -16l-20 -7l-32 -135h-185l-16 306q251 83 450 83q235 0 332.5 -92t97.5 -317v-511l155 -37v-166l-409 -14l-38 134q-18 -16 -49.5 -41.5t-119 -69t-166.5 -43.5q-152 0 -236 84t-84 240zM229 1541 l142 215l460 -368l-101 -151zM375 335q0 -124 122 -124q49 0 103.5 30t86.5 61l31 29v139h-118q-120 0 -172.5 -32t-52.5 -103z" />
<glyph unicode="&#xe1;" d="M77 304q0 341 496 341h145v115q0 155 -159 154q-48 0 -93.5 -8t-68.5 -16l-20 -7l-32 -135h-185l-16 306q251 83 450 83q235 0 332.5 -92t97.5 -317v-511l155 -37v-166l-409 -14l-38 134q-18 -16 -49.5 -41.5t-119 -69t-166.5 -43.5q-152 0 -236 84t-84 240zM302 1388 l462 368l140 -215l-501 -304zM375 335q0 -124 122 -124q49 0 103.5 30t86.5 61l31 29v139h-118q-120 0 -172.5 -32t-52.5 -103z" />
<glyph unicode="&#xe2;" d="M77 304q0 341 496 341h145v115q0 155 -159 154q-48 0 -93.5 -8t-68.5 -16l-20 -7l-32 -135h-185l-16 306q251 83 450 83q235 0 332.5 -92t97.5 -317v-511l155 -37v-166l-409 -14l-38 134q-18 -16 -49.5 -41.5t-119 -69t-166.5 -43.5q-152 0 -236 84t-84 240zM146 1386 l340 317l185 16l361 -333l-99 -137l-339 249l-348 -249zM375 335q0 -124 122 -124q49 0 103.5 30t86.5 61l31 29v139h-118q-120 0 -172.5 -32t-52.5 -103z" />
<glyph unicode="&#xe3;" d="M77 304q0 341 496 341h145v115q0 155 -159 154q-48 0 -93.5 -8t-68.5 -16l-20 -7l-32 -135h-185l-16 306q251 83 450 83q235 0 332.5 -92t97.5 -317v-511l155 -37v-166l-409 -14l-38 134q-18 -16 -49.5 -41.5t-119 -69t-166.5 -43.5q-152 0 -236 84t-84 240zM142 1398 q4 8 11 23.5t31.5 55t51.5 70t72.5 55t92.5 24.5q75 0 179.5 -47.5t163.5 -47.5q36 0 72 22t53 44l19 21l109 -96q-4 -8 -11 -23.5t-31 -54.5t-52 -68.5t-72.5 -54t-92.5 -24.5q-74 0 -181 45.5t-166 45.5q-40 0 -77 -22t-55 -42l-19 -21zM375 335q0 -124 122 -124 q49 0 103.5 30t86.5 61l31 29v139h-118q-120 0 -172.5 -32t-52.5 -103z" />
<glyph unicode="&#xe4;" d="M77 304q0 341 496 341h145v115q0 155 -159 154q-48 0 -93.5 -8t-68.5 -16l-20 -7l-32 -135h-185l-16 306q251 83 450 83q235 0 332.5 -92t97.5 -317v-511l155 -37v-166l-409 -14l-38 134q-18 -16 -49.5 -41.5t-119 -69t-166.5 -43.5q-152 0 -236 84t-84 240zM215 1444 q0 72 44.5 116.5t108.5 44.5q73 0 111 -42.5t38 -118.5q0 -75 -44.5 -118.5t-108.5 -43.5q-149 0 -149 162zM375 335q0 -124 122 -124q49 0 103.5 30t86.5 61l31 29v139h-118q-120 0 -172.5 -32t-52.5 -103zM666 1444q0 72 45.5 116.5t107.5 44.5q148 0 149 -161 q0 -75 -44.5 -118.5t-108.5 -43.5q-149 0 -149 162z" />
<glyph unicode="&#xe5;" d="M77 304q0 341 496 341h145v115q0 155 -159 154q-48 0 -93.5 -8t-68.5 -16l-20 -7l-32 -135h-185l-16 306q251 83 450 83q235 0 332.5 -92t97.5 -317v-511l155 -37v-166l-409 -14l-38 134q-18 -16 -49.5 -41.5t-119 -69t-166.5 -43.5q-152 0 -236 84t-84 240zM334 1456 q0 125 84 200t193.5 75t192.5 -70t83 -192.5t-84 -198.5t-191 -76q-112 0 -195 70t-83 192zM375 335q0 -124 122 -124q49 0 103.5 30t86.5 61l31 29v139h-118q-120 0 -172.5 -32t-52.5 -103zM511 1462q0 -118 101 -118q44 0 71.5 31.5t27.5 88.5q0 119 -99 119 q-45 0 -73 -31.5t-28 -89.5z" />
<glyph unicode="&#xe6;" horiz-adv-x="1784" d="M77 304q0 341 496 341h145v115q0 155 -159 154q-46 0 -91.5 -8t-68.5 -16l-22 -7l-32 -135h-185l-16 306q0 4 69 23t179.5 38.5t197.5 19.5q231 0 322 -119q138 122 343 121q224 0 346 -128t122 -356l-12 -161l-685 -6q8 -126 75.5 -195.5t175.5 -69.5q76 0 161.5 24 t133.5 49l48 24l91 -164q-25 -19 -68.5 -48t-169 -77.5t-238.5 -48.5q-302 0 -430 206q-176 -207 -408 -206q-147 0 -233.5 87t-86.5 237zM373 335q0 -57 32.5 -90.5t91.5 -33.5q47 0 102.5 31t87.5 62l31 31v135h-118q-120 0 -173.5 -32t-53.5 -103zM1026 673h379 q0 223 -170 223q-87 0 -142 -59t-67 -164z" />
<glyph unicode="&#xe7;" horiz-adv-x="1064" d="M62 542q0 277 150 436t419 159q79 0 170 -17t142 -36l50 -18l-10 -338h-187l-28 149q-60 16 -144 17q-116 0 -178.5 -78t-62.5 -232q0 -176 65 -269.5t193 -93.5q42 0 79.5 7t72 22t54.5 25.5t54 31t40 24.5l103 -175q-163 -141 -353 -168v-71q81 -16 129.5 -65 t48.5 -121q0 -89 -74.5 -147t-184.5 -58q-62 0 -126 17t-97 33l-33 17l64 113q87 -43 170 -43q45 0 71 20.5t26 55.5q0 44 -46.5 67.5t-125.5 23.5v156q-215 23 -333 168.5t-118 387.5z" />
<glyph unicode="&#xe8;" horiz-adv-x="1151" d="M73 537q0 275 146.5 437.5t404.5 162.5q227 0 349.5 -130t122.5 -356l-12 -154l-687 -7q8 -128 75.5 -198.5t172.5 -70.5q77 0 164 24t134 49l50 24l89 -164q-24 -19 -64.5 -48t-165 -77.5t-242.5 -48.5q-263 0 -400 145.5t-137 411.5zM261 1541l140 215l462 -368 l-101 -151zM401 683h373q0 213 -170 213q-85 0 -137.5 -58t-65.5 -155z" />
<glyph unicode="&#xe9;" horiz-adv-x="1151" d="M73 537q0 275 146.5 437.5t404.5 162.5q227 0 349.5 -130t122.5 -356l-12 -154l-687 -7q8 -128 75.5 -198.5t172.5 -70.5q77 0 164 24t134 49l50 24l89 -164q-24 -19 -64.5 -48t-165 -77.5t-242.5 -48.5q-263 0 -400 145.5t-137 411.5zM347 1388l462 368l140 -215 l-501 -304zM401 683h373q0 213 -170 213q-85 0 -137.5 -58t-65.5 -155z" />
<glyph unicode="&#xea;" horiz-adv-x="1151" d="M73 537q0 275 146.5 437.5t404.5 162.5q227 0 349.5 -130t122.5 -356l-12 -154l-687 -7q8 -128 75.5 -198.5t172.5 -70.5q77 0 164 24t134 49l50 24l89 -164q-24 -19 -64.5 -48t-165 -77.5t-242.5 -48.5q-263 0 -400 145.5t-137 411.5zM154 1386l338 317l185 16l361 -333 l-99 -137l-339 249l-348 -249zM401 683h373q0 213 -170 213q-85 0 -137.5 -58t-65.5 -155z" />
<glyph unicode="&#xeb;" horiz-adv-x="1151" d="M73 537q0 275 146.5 437.5t404.5 162.5q227 0 349.5 -130t122.5 -356l-12 -154l-687 -7q8 -128 75.5 -198.5t172.5 -70.5q77 0 164 24t134 49l50 24l89 -164q-24 -19 -64.5 -48t-165 -77.5t-242.5 -48.5q-263 0 -400 145.5t-137 411.5zM215 1444q0 73 44.5 117t109.5 44 q72 0 110 -42.5t38 -118.5q0 -74 -44.5 -117.5t-108.5 -43.5q-149 0 -149 161zM401 683h373q0 213 -170 213q-85 0 -137.5 -58t-65.5 -155zM666 1444q0 73 46 117t107 44q149 0 149 -161q0 -74 -44.5 -117.5t-108.5 -43.5q-149 0 -149 161z" />
<glyph unicode="&#xec;" horiz-adv-x="762" d="M52 1541l140 215l461 -368l-101 -151zM95 0v166l166 51v677l-166 41v166l470 16v-900l144 -51v-166h-614z" />
<glyph unicode="&#xed;" horiz-adv-x="740" d="M73 0v166l165 51v677l-165 41v166l469 16v-900l145 -51v-166h-614zM112 1388l461 368l141 -215l-501 -304z" />
<glyph unicode="&#xee;" horiz-adv-x="740" d="M-58 1386l323 317l183 16l344 -333l-101 -137l-318 249l-330 -249zM73 0v166l165 51v677l-165 41v166l469 16v-900l145 -51v-166h-614z" />
<glyph unicode="&#xef;" horiz-adv-x="740" d="M-2 1444q0 73 44.5 117t109.5 44q72 0 110 -42.5t38 -118.5q0 -74 -44.5 -117.5t-109.5 -43.5q-148 0 -148 161zM73 0v166l165 51v677l-165 41v166l469 16v-900l145 -51v-166h-614zM428 1444q0 73 45.5 117t107.5 44q148 0 149 -161q0 -74 -44.5 -117.5t-108.5 -43.5 q-149 0 -149 161z" />
<glyph unicode="&#xf0;" horiz-adv-x="1230" d="M67 497q0 254 145.5 400.5t381.5 146.5q81 0 161 -45q-55 148 -161 248l-243 -138l-120 164l183 103q-85 45 -176 76l95 180q162 -39 304 -126l217 126l121 -163l-168 -95q300 -296 300 -811q0 -267 -145 -427.5t-389 -160.5q-239 0 -372.5 132.5t-133.5 389.5zM387 507 q0 -296 197 -296q110 0 156 77.5t46 228.5q0 145 -42.5 217.5t-149.5 72.5q-207 0 -207 -300z" />
<glyph unicode="&#xf1;" horiz-adv-x="1399" d="M62 0v166l176 55v673l-176 41v166l445 16l12 -142q58 53 160.5 105.5t220.5 52.5q148 0 229 -98t81 -269v-545l149 -55v-166h-563v166l108 55v497q0 75 -36.5 120t-101.5 45q-58 0 -114 -30t-83 -59l-27 -28v-545l109 -55v-166h-589zM275 1400q4 8 10.5 23.5t30 55 t51.5 69t72.5 54t93.5 24.5q75 0 177.5 -46.5t162.5 -46.5q35 0 71.5 22t56.5 42l19 23l109 -96q-4 -8 -11 -23.5t-30.5 -54.5t-52 -69.5t-74 -55t-92.5 -24.5q-75 0 -180 46.5t-166 46.5q-39 0 -77.5 -21t-56.5 -41l-16 -23z" />
<glyph unicode="&#xf2;" d="M73 548q0 277 151 433t407 156q251 0 386 -145.5t135 -412.5q0 -277 -150 -438t-402 -161q-527 0 -527 568zM292 1541l140 215l462 -368l-102 -151zM393 559q0 -178 52 -260t165.5 -82t167 81t53.5 271q0 167 -50.5 249t-160.5 82q-118 0 -172.5 -77t-54.5 -264z" />
<glyph unicode="&#xf3;" d="M73 548q0 277 151 433t407 156q251 0 386 -145.5t135 -412.5q0 -277 -150 -438t-402 -161q-527 0 -527 568zM337 1388l462 368l140 -215l-501 -304zM393 559q0 -178 52 -260t165.5 -82t167 81t53.5 271q0 167 -50.5 249t-160.5 82q-118 0 -172.5 -77t-54.5 -264z" />
<glyph unicode="&#xf4;" d="M73 548q0 277 151 433t407 156q251 0 386 -145.5t135 -412.5q0 -277 -150 -438t-402 -161q-527 0 -527 568zM176 1386l339 317l184 16l363 -333l-100 -137l-340 249l-347 -249zM393 559q0 -178 52 -260t165.5 -82t167 81t53.5 271q0 167 -50.5 249t-160.5 82 q-118 0 -172.5 -77t-54.5 -264z" />
<glyph unicode="&#xf5;" d="M73 548q0 277 151 433t407 156q251 0 386 -145.5t135 -412.5q0 -277 -150 -438t-402 -161q-527 0 -527 568zM184 1398q4 8 10 23.5t30.5 55t52 70t73 55t92.5 24.5q75 0 179 -47.5t165 -47.5q35 0 71 22t55 44l16 21l110 -96q-4 -8 -11.5 -23.5t-31.5 -54.5t-51.5 -68.5 t-72 -54t-91.5 -24.5q-75 0 -181.5 45.5t-166.5 45.5q-39 0 -76.5 -22t-55.5 -42l-19 -21zM393 559q0 -178 52 -260t165.5 -82t167 81t53.5 271q0 167 -50.5 249t-160.5 82q-118 0 -172.5 -77t-54.5 -264z" />
<glyph unicode="&#xf6;" d="M73 548q0 277 151 433t407 156q251 0 386 -145.5t135 -412.5q0 -277 -150 -438t-402 -161q-527 0 -527 568zM235 1444q0 72 44.5 116.5t108.5 44.5q73 0 111 -42.5t38 -118.5q0 -75 -44.5 -118.5t-108.5 -43.5q-149 0 -149 162zM393 559q0 -178 52 -260t165.5 -82t167 81 t53.5 271q0 167 -50.5 249t-160.5 82q-118 0 -172.5 -77t-54.5 -264zM686 1444q0 72 45.5 116.5t107.5 44.5q148 0 149 -161q0 -75 -44.5 -118.5t-108.5 -43.5q-149 0 -149 162z" />
<glyph unicode="&#xf7;" horiz-adv-x="1302" d="M107 430v239h1087v-239h-1087zM472 105q0 91 51.5 141t131.5 50q176 0 176 -191q0 -91 -50.5 -141.5t-131.5 -50.5q-177 0 -177 192zM472 995q0 91 51.5 141t131.5 50q176 0 176 -191q0 -91 -50.5 -141.5t-131.5 -50.5q-177 0 -177 192z" />
<glyph unicode="&#xf8;" horiz-adv-x="1244" d="M83 548q0 277 151 433t407 156q105 0 205 -32l135 225l154 -87l-134 -225q162 -144 162 -439q0 -277 -150 -438t-403 -161q-105 0 -213 28l-151 -250l-155 86l149 251q-157 138 -157 453zM403 557q0 -87 23 -152l286 478q-37 17 -81 17q-120 0 -174 -79t-54 -264z M531 233q34 -16 89 -16q116 0 169 83t53 269q0 91 -23 145z" />
<glyph unicode="&#xf9;" horiz-adv-x="1354" d="M33 935v166l457 16v-710q0 -85 27 -125t89 -40q58 0 119 28t94 57l31 29v542l-153 37v166l457 16v-900l157 -41v-162l-421 -14l-21 144q-6 -6 -20 -17t-52.5 -40t-80 -51t-100.5 -39t-113 -17q-156 0 -237.5 97t-81.5 272v549zM314 1541l142 215l460 -368l-101 -151z" />
<glyph unicode="&#xfa;" horiz-adv-x="1354" d="M33 935v166l457 16v-710q0 -85 27 -125t89 -40q58 0 119 28t94 57l31 29v542l-153 37v166l457 16v-900l157 -41v-162l-421 -14l-21 144q-6 -6 -20 -17t-52.5 -40t-80 -51t-100.5 -39t-113 -17q-156 0 -237.5 97t-81.5 272v549zM383 1388l461 368l141 -215l-501 -304z" />
<glyph unicode="&#xfb;" horiz-adv-x="1354" d="M33 935v166l457 16v-710q0 -85 27 -125t89 -40q58 0 119 28t94 57l31 29v542l-153 37v166l457 16v-900l157 -41v-162l-421 -14l-21 144q-6 -6 -20 -17t-52.5 -40t-80 -51t-100.5 -39t-113 -17q-156 0 -237.5 97t-81.5 272v549zM215 1386l339 317l184 16l363 -333 l-100 -137l-339 249l-348 -249z" />
<glyph unicode="&#xfc;" horiz-adv-x="1354" d="M33 935v166l457 16v-710q0 -85 27 -125t89 -40q58 0 119 28t94 57l31 29v542l-153 37v166l457 16v-900l157 -41v-162l-421 -14l-21 144q-6 -6 -20 -17t-52.5 -40t-80 -51t-100.5 -39t-113 -17q-156 0 -237.5 97t-81.5 272v549zM273 1444q0 73 44.5 117t108.5 44 q73 0 111 -42.5t38 -118.5q0 -74 -44.5 -117.5t-108.5 -43.5q-149 0 -149 161zM724 1444q0 73 45.5 117t107.5 44q148 0 149 -161q0 -74 -44.5 -117.5t-108.5 -43.5q-149 0 -149 161z" />
<glyph unicode="&#xfd;" horiz-adv-x="1263" d="M20 941v166l553 10v-176l-115 -21l183 -579l176 573l-120 27v166l556 10v-176l-128 -27l-304 -847q-45 -123 -85.5 -206.5t-106.5 -173.5t-159 -137t-211 -47l-201 17l29 221h134q58 0 107 26t82.5 74.5t51 80t37.5 76.5l-369 910zM476 1388l461 368l141 -215l-501 -304z " />
<glyph unicode="&#xfe;" horiz-adv-x="1271" d="M52 1421v166l475 16v-585q12 12 36.5 33t100.5 53.5t157 32.5q203 0 311.5 -146.5t108.5 -400.5q0 -292 -148 -451t-442 -159q-25 0 -55.5 4t-49.5 8l-19 4v-269l217 -47v-166h-688v166l161 47v1653zM527 244q52 -27 158 -27q235 0 235 352q0 325 -202 325 q-55 0 -103 -25t-69 -50l-19 -23v-552z" />
<glyph unicode="&#xff;" horiz-adv-x="1263" d="M20 941v166l553 10v-176l-115 -21l183 -579l176 573l-120 27v166l556 10v-176l-128 -27l-304 -847q-45 -123 -85.5 -206.5t-106.5 -173.5t-159 -137t-211 -47l-201 17l29 221h134q58 0 107 26t82.5 74.5t51 80t37.5 76.5l-369 910zM235 1444q0 73 45 117t109 44 q73 0 110.5 -42.5t37.5 -118.5q0 -74 -44.5 -117.5t-107.5 -43.5q-150 0 -150 161zM255 1473q0 -162 148 -162q64 0 109 43.5t45 118.5q0 76 -38.5 118.5t-111.5 42.5q-64 0 -108 -44.5t-44 -116.5zM687 1444q0 73 45.5 117t106.5 44q149 0 150 -161q0 -74 -44.5 -117.5 t-109.5 -43.5q-148 0 -148 161zM705 1473q0 -162 149 -162q64 0 108.5 43.5t44.5 118.5q0 161 -149 161q-61 0 -107 -44.5t-46 -116.5z" />
<glyph unicode="&#x105;" horiz-adv-x="1178" d="M77 304q0 341 496 341h145v115q0 155 -159 154q-48 0 -93.5 -8t-68.5 -16l-20 -7l-32 -135h-185l-16 306q251 83 450 83q235 0 332.5 -92t97.5 -317v-511l155 -37v-166q-10 -6 -27 -15t-58.5 -38.5t-73 -57t-58.5 -64t-27 -66.5q0 -36 22 -55.5t57 -19.5l89 12l34 -144 q-99 -52 -213 -52q-97 0 -162 52.5t-65 154.5q0 103 76.5 179.5t138.5 103.5l-142 -4l-38 134q-18 -16 -49.5 -41.5t-119 -69t-166.5 -43.5q-152 0 -236 84t-84 240zM375 335q0 -124 122 -124q49 0 103.5 30t86.5 61l31 29v139h-118q-120 0 -172.5 -32t-52.5 -103z" />
<glyph unicode="&#x119;" horiz-adv-x="1095" d="M41 537q0 275 147 437.5t406 162.5q227 0 349.5 -130t122.5 -356l-14 -154l-686 -7q8 -128 75.5 -198.5t172.5 -70.5q75 0 141 18t128 46.5t79 32.5l88 -164q-55 -40 -120 -93t-144 -141t-79 -141q0 -38 21.5 -59.5t57.5 -21.5l87 12l35 -144q-97 -52 -211 -52 q-99 0 -163 52.5t-64 149.5q0 135 165 268q-37 -4 -56 -4q-263 0 -400.5 145.5t-137.5 411.5zM371 683h371q0 213 -169 213q-85 0 -137.5 -58t-64.5 -155z" />
<glyph unicode="&#x128;" horiz-adv-x="775" d="M-47 1688q4 8 10 23.5t30.5 55t52 69t73 54.5t92.5 25q75 0 187.5 -47.5t172.5 -47.5q35 0 71.5 21.5t52.5 45.5l19 20l113 -87q-4 -8 -12 -22.5t-36.5 -51.5t-58 -66.5t-77 -52t-95.5 -22.5q-74 0 -180.5 40.5t-166.5 40.5q-39 0 -76.5 -20t-53.5 -40l-19 -19zM73 0v180 l154 51v983l-154 63v171l630 10v-181l-155 -63v-983l155 -51v-180h-630z" />
<glyph unicode="&#x129;" horiz-adv-x="740" d="M-67 1398q4 8 11 23.5t30.5 55t51.5 70t71 55t89 24.5q71 0 169 -47.5t146 -47.5q33 0 67 22t52 44l17 21l109 -96q-4 -8 -10 -23.5t-30.5 -54.5t-51.5 -68.5t-70.5 -54t-89.5 -24.5q-64 0 -163.5 45.5t-154.5 45.5q-36 0 -71.5 -22t-55.5 -42l-18 -21zM73 0v166l165 51 v677l-165 41v166l469 16v-900l145 -51v-166h-614z" />
<glyph unicode="&#x131;" horiz-adv-x="740" d="M73 0v166l165 51v677l-165 41v166l469 16v-900l145 -51v-166h-614z" />
<glyph unicode="&#x140;" horiz-adv-x="1358" d="M52 0v166l165 51v1163l-165 41v166l477 16v-1386l197 -51v-166h-674zM831 724q0 91 52 142.5t135 51.5q178 0 178 -194q0 -91 -51 -142t-134 -51q-180 1 -180 193z" />
<glyph unicode="&#x141;" horiz-adv-x="1209" d="M79 677l225 99v438l-156 63v171l632 10v-181l-156 -63v-308l284 126l67 -221l-351 -156v-413h317l46 234h196v-476h-1035v180l156 51v294l-160 -69z" />
<glyph unicode="&#x142;" horiz-adv-x="890" d="M52 728l252 111v541l-166 41v166l478 16v-635l207 91l48 -230l-255 -111v-501l197 -51v-166h-675v166l166 51v375l-188 -83z" />
<glyph unicode="&#x152;" horiz-adv-x="1976" d="M107 718q0 356 184.5 558.5t498.5 202.5q61 0 187 -10.5t179 -10.5h693v-399h-193l-51 155h-335v-345h418v-228h-418v-399h366l48 172h190v-414h-745q-47 0 -179.5 -10t-201.5 -10q-312 0 -476.5 188t-164.5 550zM456 728q0 -254 75 -375.5t235 -121.5q41 0 108 5.5 t75 5.5v972q-57 8 -146 8q-178 0 -262.5 -108.5t-84.5 -385.5z" />
<glyph unicode="&#x153;" horiz-adv-x="1923" d="M77 548q0 275 151 432t403 157q247 0 385 -177q138 177 380 177q223 0 344 -130t121 -356l-12 -154l-686 -7q8 -128 75 -198.5t173 -70.5q75 0 141 18t127.5 46.5t78.5 32.5l89 -164q-23 -19 -64.5 -48t-163 -77.5t-237.5 -48.5q-259 0 -389 180q-149 -180 -393 -180 q-523 0 -523 568zM397 559q0 -178 53 -260t164 -82q116 0 172 82t56 270q-1 331 -218 331q-116 0 -171.5 -77t-55.5 -264zM1167 683h372q0 213 -169 213q-85 0 -138 -58t-65 -155z" />
<glyph unicode="&#x160;" horiz-adv-x="1251" d="M120 1044q0 209 146 324t379 115q103 0 217.5 -21t175.5 -41l63 -21l-11 -376h-190l-52 176q-93 31 -182 31q-105 0 -162.5 -41.5t-57.5 -105.5q0 -56 52 -97.5t129.5 -65t168 -61t167.5 -81t129 -128t52 -198.5q0 -225 -156.5 -352.5t-401.5 -127.5q-103 0 -219.5 19.5 t-180.5 40.5l-62 19v396h211l31 -173q82 -44 203 -44q105 0 177.5 44.5t72.5 123.5q0 55 -51.5 96.5t-129 65t-168.5 61.5t-169 82t-129.5 132t-51.5 208zM207 1855l115 125l292 -220l288 220l103 -125l-296 -304h-186z" />
<glyph unicode="&#x161;" horiz-adv-x="1015" d="M79 784q0 182 121.5 267.5t304.5 85.5q83 0 179 -15t151 -30l55 -16q-4 -103 -9 -310h-182l-30 134q-54 20 -138 20q-63 0 -100.5 -27.5t-37.5 -77.5q0 -47 57 -80.5t136.5 -58.5t160 -56.5t137.5 -100.5t57 -168q0 -175 -129 -273t-346 -98q-87 0 -182.5 11t-147.5 21 l-51 13v337h190l17 -145q69 -20 170 -20q163 0 162 111q0 48 -55.5 82t-136.5 59t-161.5 59t-136 104.5t-55.5 171.5zM91 1593l114 124l292 -219l287 219l104 -124l-296 -304h-185z" />
<glyph unicode="&#x178;" horiz-adv-x="1379" d="M14 1277v171l586 10v-181l-106 -44l207 -449l219 447l-113 46v171l559 10v-181l-144 -57l-374 -713v-276l155 -51v-180h-630v180l154 51v274l-379 715zM306 1755q0 72 44.5 116.5t108.5 44.5q73 0 111 -42.5t38 -118.5q0 -75 -44.5 -118.5t-108.5 -43.5q-149 0 -149 162z M757 1755q0 72 45.5 116.5t107.5 44.5q148 0 149 -161q0 -75 -44.5 -118.5t-108.5 -43.5q-149 0 -149 162z" />
<glyph unicode="&#x17d;" horiz-adv-x="1271" d="M62 0v211l734 1003h-434l-52 -186h-196v430h1096v-234l-720 -982h472l45 214h197v-456h-1142zM231 1855l116 125l292 -220l288 220l103 -125l-296 -304h-186z" />
<glyph unicode="&#x17e;" horiz-adv-x="1068" d="M103 0v190l540 710h-298l-35 -162h-182v379h869v-193l-531 -707h316l39 186h182v-403h-900zM114 1593l114 124l292 -219l287 219l104 -124l-296 -304h-185z" />
<glyph unicode="&#x192;" horiz-adv-x="910" d="M-138 -401l26 215h87q97 0 134 45.5t49 152.5l67 743h-169l2 176l186 31l17 177q20 234 129 354t326 120l194 -12l-20 -215h-135q-96 0 -133.5 -45.5t-48.5 -152.5l-21 -226h271l-6 -207h-282l-65 -695q-24 -234 -131.5 -354t-324.5 -120z" />
<glyph unicode="&#x2c6;" horiz-adv-x="1125" d="M144 1450l318 271l183 16l336 -287l-100 -137l-312 203l-325 -203z" />
<glyph unicode="&#x2c7;" horiz-adv-x="1064" d="M134 1593l114 124l292 -219l287 219l104 -124l-296 -304h-185z" />
<glyph unicode="&#x2d8;" horiz-adv-x="910" d="M116 1583l180 18q0 -6 3 -16t14.5 -37.5t27 -47t46.5 -36t69 -16.5q63 0 102.5 33t45.5 66l8 36l180 14q0 -172 -102 -268t-256 -96q-136 0 -227 94t-91 256z" />
<glyph unicode="&#x2d9;" horiz-adv-x="614" d="M156 1448q0 76 43 120.5t107 44.5q71 0 112.5 -43.5t41.5 -121.5q0 -74 -44.5 -118.5t-109.5 -44.5q-71 0 -110.5 43.5t-39.5 119.5z" />
<glyph unicode="&#x2da;" horiz-adv-x="849" d="M148 1456q0 125 84 200t193.5 75t192.5 -70t83 -192.5t-84 -198.5t-191 -76q-112 0 -195 70t-83 192zM325 1462q0 -118 101 -118q44 0 71.5 31.5t27.5 88.5q0 119 -99 119q-45 0 -73 -31.5t-28 -89.5z" />
<glyph unicode="&#x2db;" horiz-adv-x="640" d="M114 -279q0 52 24 101.5t56.5 81.5t66 58t57.5 38l23 10h249q-10 -6 -26 -15t-57 -37.5t-72.5 -55t-57.5 -62.5t-26 -67q0 -75 77 -75l89 12l35 -144q-96 -52 -211 -52q-99 0 -163 52.5t-64 154.5z" />
<glyph unicode="&#x2dc;" horiz-adv-x="1174" d="M166 1398q4 8 10 23.5t30.5 55t52 70t73 55t92.5 24.5q75 0 179 -47.5t165 -47.5q35 0 71 22t55 44l16 21l110 -96q-4 -8 -11.5 -23.5t-31.5 -54.5t-51.5 -68.5t-72 -54t-91.5 -24.5q-75 0 -181.5 45.5t-166.5 45.5q-39 0 -76.5 -22t-55.5 -42l-19 -21z" />
<glyph unicode="&#x2dd;" horiz-adv-x="1287" d="M166 1423l365 393l168 -172l-403 -349zM631 1423l366 393l168 -172l-403 -349z" />
<glyph unicode="&#x3c0;" horiz-adv-x="1427" d="M45 935v161l441 21h827v-182l-167 -41v-555q0 -130 103 -130q28 0 62.5 8t58.5 16l20 9l72 -145q-16 -12 -47 -32t-118 -52.5t-168 -32.5q-126 0 -206.5 91t-80.5 280v532h-331v-883h-304v890z" />
<glyph unicode="&#x2000;" horiz-adv-x="990" />
<glyph unicode="&#x2001;" horiz-adv-x="1980" />
<glyph unicode="&#x2002;" horiz-adv-x="990" />
<glyph unicode="&#x2003;" horiz-adv-x="1980" />
<glyph unicode="&#x2004;" horiz-adv-x="660" />
<glyph unicode="&#x2005;" horiz-adv-x="495" />
<glyph unicode="&#x2006;" horiz-adv-x="330" />
<glyph unicode="&#x2007;" horiz-adv-x="330" />
<glyph unicode="&#x2008;" horiz-adv-x="247" />
<glyph unicode="&#x2009;" horiz-adv-x="396" />
<glyph unicode="&#x200a;" horiz-adv-x="110" />
<glyph unicode="&#x2010;" horiz-adv-x="816" d="M118 434v259h585v-259h-585z" />
<glyph unicode="&#x2011;" horiz-adv-x="816" d="M118 434v259h585v-259h-585z" />
<glyph unicode="&#x2012;" horiz-adv-x="816" d="M118 434v259h585v-259h-585z" />
<glyph unicode="&#x2013;" horiz-adv-x="1034" d="M0 552v244h1034v-244h-1034z" />
<glyph unicode="&#x2014;" horiz-adv-x="2005" d="M0 552v244h2007v-244h-2007z" />
<glyph unicode="&#x2018;" horiz-adv-x="642" d="M128 1090q0 231 286 538l130 -106q-124 -166 -124 -249q0 -24 30 -80t30 -111q0 -83 -50.5 -133.5t-127.5 -50.5q-79 0 -126.5 49.5t-47.5 142.5z" />
<glyph unicode="&#x2019;" horiz-adv-x="642" d="M97 1005q124 166 124 248q0 26 -29.5 81.5t-29.5 109.5q0 83 50.5 133.5t129 50.5t125 -50t46.5 -141q0 -231 -284 -539z" />
<glyph unicode="&#x201a;" horiz-adv-x="642" d="M97 -327q124 165 124 248q0 25 -29.5 81t-29.5 110q0 83 50.5 133.5t129 50.5t125 -49.5t46.5 -141.5q0 -231 -284 -539z" />
<glyph unicode="&#x201c;" horiz-adv-x="1123" d="M128 1090q0 231 286 538l130 -106q-124 -166 -124 -249q0 -24 30 -80t30 -111q0 -83 -50.5 -133.5t-127.5 -50.5q-79 0 -126.5 49.5t-47.5 142.5zM610 1090q0 229 284 538l132 -106q-124 -166 -124 -249q0 -24 30 -80t30 -111q0 -83 -50.5 -133.5t-129.5 -50.5 t-125.5 49.5t-46.5 142.5z" />
<glyph unicode="&#x201d;" horiz-adv-x="1123" d="M97 1005q124 166 124 248q0 26 -29.5 81.5t-29.5 109.5q0 83 50.5 133.5t129 50.5t125 -50t46.5 -141q0 -231 -284 -539zM579 1005q124 166 124 248q0 26 -30 81.5t-30 109.5q0 83 50.5 133.5t127.5 50.5q79 0 126.5 -50t47.5 -141q0 -233 -286 -539z" />
<glyph unicode="&#x201e;" horiz-adv-x="1123" d="M97 -327q124 165 124 248q0 25 -29.5 81t-29.5 110q0 83 50.5 133.5t129 50.5t125 -49.5t46.5 -141.5q0 -231 -284 -539zM579 -327q124 165 124 248q0 25 -30 81t-30 110q0 83 50.5 133.5t127.5 50.5q79 0 126.5 -49.5t47.5 -141.5q0 -233 -286 -539z" />
<glyph unicode="&#x2020;" horiz-adv-x="1064" d="M73 1066v195h341l-11 294l259 17l-15 -311h346v-195l-462 -71zM371 916l160 -35l164 35l-33 -811l-131 -105l-128 105z" />
<glyph unicode="&#x2021;" horiz-adv-x="1064" d="M73 1066v195h341l-11 294l259 17l-15 -311h346v-195l-462 -71zM168 746v205l363 -59l365 59v-205l-365 -86zM385 592l146 -33l150 33l-19 -487l-131 -105l-128 105z" />
<glyph unicode="&#x2022;" horiz-adv-x="1123" d="M166 651.5q0 161.5 114.5 276t276 114.5t276 -114.5t114.5 -276t-114.5 -276t-276 -114.5t-276 114.5t-114.5 276z" />
<glyph unicode="&#x2026;" horiz-adv-x="1612" d="M107 162q0 84 53 134.5t128 50.5q172 0 172 -185q0 -87 -52 -138t-126 -51q-85 0 -130 49t-45 140zM631 162q0 84 52.5 134.5t125.5 50.5q85 0 129.5 -48.5t44.5 -136.5q0 -87 -52 -138t-126 -51q-85 0 -129.5 49t-44.5 140zM1152 162q0 84 52.5 134.5t127.5 50.5 q172 0 172 -185q0 -87 -52 -138t-126 -51q-85 0 -129.5 49t-44.5 140z" />
<glyph unicode="&#x202f;" horiz-adv-x="396" />
<glyph unicode="&#x2030;" horiz-adv-x="2715" d="M114 1094q0 180 105.5 284.5t266.5 104.5q157 0 253 -95t96 -271q0 -178 -105.5 -285.5t-267.5 -107.5q-160 0 -254 92t-94 278zM351 1103q0 -199 121 -199q126 0 126 205q0 197 -122 196q-125 1 -125 -202zM371 -16l864 1489h300l-864 -1489h-300zM1074 341 q0 180 105.5 284.5t266.5 104.5q158 0 254 -95t96 -271q0 -178 -105.5 -285.5t-269.5 -107.5q-160 0 -253.5 92.5t-93.5 277.5zM1311 349q0 -199 120 -197q126 0 126 204q0 196 -122 196q-124 0 -124 -203zM1881 341q0 180 105.5 284.5t265.5 104.5q158 0 254 -95t96 -271 q0 -178 -105.5 -285.5t-268.5 -107.5q-160 0 -253.5 92.5t-93.5 277.5zM2118 349q0 -199 120 -197q126 0 126 204q0 196 -122 196q-124 0 -124 -203z" />
<glyph unicode="&#x2039;" horiz-adv-x="700" d="M103 468v159l323 366l172 -114l-234 -331l234 -331l-172 -116z" />
<glyph unicode="&#x203a;" horiz-adv-x="700" d="M114 217l233 331l-233 331l172 114l322 -366v-159l-322 -367z" />
<glyph unicode="&#x2044;" horiz-adv-x="1269" d="M-31 -14l1115 1611l207 -139l-1115 -1612z" />
<glyph unicode="&#x205f;" horiz-adv-x="495" />
<glyph unicode="&#x20ac;" horiz-adv-x="1317" d="M56 458v185h889v-185h-397q62 -218 263 -218q79 0 161 29t126 58l43 31l114 -182q-8 -8 -22.5 -22t-64 -47.5t-103.5 -61t-135.5 -49t-163.5 -21.5q-143 0 -251 48t-167.5 127t-90 152t-46.5 156h-155zM56 774v186h149q18 103 58.5 191t108.5 165.5t177 122t247 44.5 q97 0 202 -22t160 -42l56 -23l-10 -342h-193l-32 146q-79 31 -193 31q-64 0 -113 -28t-73.5 -67.5t-41 -79.5t-21.5 -67l-4 -29h412v-186h-889z" />
<glyph unicode="&#x2206;" horiz-adv-x="1403" d="M35 0v207l536 1289h275l522 -1289v-207h-1333zM314 231h740l-369 927z" />
<glyph unicode="&#x220f;" horiz-adv-x="1520" d="M67 1277v160l450 21h935v-181l-165 -46v-1717h-294v1710h-472v-1710h-294v1717z" />
<glyph unicode="&#x2211;" horiz-adv-x="1269" d="M56 1247v211h1100v-399h-192l-52 165h-500l527 -703l-552 -773h554l34 175h202v-409h-1110v213l545 765z" />
<glyph unicode="&#x2212;" horiz-adv-x="1198" d="M103 476v242h993v-242h-993z" />
<glyph unicode="&#x221a;" horiz-adv-x="1441" d="M20 914v172l377 10l244 -790l373 1287l448 10v-174l-223 -37l-449 -1392h-337l-313 881z" />
<glyph unicode="&#x222b;" horiz-adv-x="902" d="M25 -476l18 201q62 -10 115 -11q80 0 112 58t32 183q0 138 -12.5 469t-12.5 536q0 128 17.5 222.5t59 171.5t120 116.5t192.5 39.5q37 0 85 -9t76 -20l31 -8q-16 -137 -23 -205q-51 14 -113 15q-81 0 -113 -57t-32 -182q0 -140 12.5 -471t12.5 -536q0 -274 -82 -411 t-305 -137q-33 0 -80.5 9.5t-78.5 17.5z" />
<glyph unicode="&#x2248;" horiz-adv-x="1323" d="M114 279q4 10 13 26.5t40.5 59t66.5 75t93 59t119 26.5q91 0 225 -70t204 -70q51 0 102 28.5t73 58.5l26 27l134 -92q-4 -10 -13 -26.5t-41.5 -60t-68 -76.5t-91 -59.5t-113.5 -26.5q-89 0 -232.5 70t-216.5 70q-49 0 -96.5 -27t-70.5 -56l-23 -27zM114 683q4 10 13 26.5 t40.5 59t66.5 74.5t93 59t119 27q91 0 225 -70.5t204 -70.5q51 0 102 28t73 57l26 29l134 -91q-4 -10 -13 -26.5t-41.5 -60t-68 -77t-91 -60t-113.5 -26.5q-89 0 -232.5 70t-216.5 70q-49 0 -96.5 -28t-70.5 -55l-23 -26z" />
<glyph unicode="&#x2260;" horiz-adv-x="1323" d="M128 235v239h340l97 203h-437v237h551l109 227h274l-111 -227h243v-237h-357l-97 -203h454v-239h-565l-114 -235h-273l114 235h-228z" />
<glyph unicode="&#x2264;" horiz-adv-x="1202" d="M93 -52v247h1018v-247h-1018zM93 631v248l1018 341v-254l-714 -214l714 -221v-252z" />
<glyph unicode="&#x2265;" horiz-adv-x="1202" d="M93 -52v247h1018v-247h-1018zM93 279v252l714 221l-714 214v254l1018 -341v-248z" />
<glyph unicode="&#x25ca;" horiz-adv-x="1157" d="M33 758l405 845h269l410 -848l-403 -848h-270zM327 774l259 -567l239 531l-256 567z" />
<glyph unicode="&#x25fc;" horiz-adv-x="1116" d="M0 0v1117h1117v-1117h-1117z" />
<glyph unicode="&#xfb01;" horiz-adv-x="1565" d="M107 894v172l187 30v87q0 219 125 332t412 113q122 0 246.5 -19.5t188.5 -38.5l62 -19l-4 -292h-223l-27 131q-121 16 -222 17q-138 0 -195 -48t-57 -139v-124l770 21v-900l144 -51v-166h-594v166l146 51v677h-466v-677l150 -51v-166h-622v166l166 51v677h-187z" />
<glyph unicode="&#xfb02;" horiz-adv-x="1629" d="M107 890v176l187 30v98q0 434 523 434q126 0 264.5 -13.5t213.5 -25.5l77 -12v-1360l169 -51v-166h-621v166l142 51v1171q-119 18 -220 19q-242 0 -242 -176v-135h269l-6 -206h-263v-673l150 -51v-166h-622v166l166 51v673h-187z" />
<glyph horiz-adv-x="661" d="M49 1541l141 215l461 -368l-101 -151z" />
<glyph horiz-adv-x="661" d="M29 1388l461 368l141 -215l-501 -304z" />
<glyph horiz-adv-x="1161" d="M138 1405l340 316l184 16l362 -332l-100 -137l-338 248l-348 -248z" />
<glyph horiz-adv-x="1563" d="M83 190v1016q0 192 190 192h1016q192 0 192 -192v-1016q0 -190 -192 -190h-1016q-190 0 -190 190zM304 333h178v433q0 29 55 28q103 0 104 -134v-327h178v429q0 76 -52.5 124.5t-133.5 48.5l-116 -68q-18 -6 -23 -6q-12 0 -12 18v281h-178v-827zM890 833h59q28 0 28 -22 v-317q0 -75 52.5 -125.5t133.5 -50.5l150 89v61q-37 -10 -64 -10q-95 0 -95 138v215q0 23 23 22h139v87h-139q-24 0 -23 25v66h-51l-213 -134v-44z" />
</font>
</defs>
</svg>
