<?xml version="1.0" standalone="no"?>
<!DOCTYPE svg PUBLIC "-//W3C//DTD SVG 1.1//EN" "http://www.w3.org/Graphics/SVG/1.1/DTD/svg11.dtd" >
<svg xmlns="http://www.w3.org/2000/svg" xmlns:xlink="http://www.w3.org/1999/xlink" version="1.1">
<metadata></metadata>
<defs>
<font id="slabo_27pxregular" horiz-adv-x="995" >
<font-face units-per-em="2048" ascent="1638" descent="-410" />
<missing-glyph horiz-adv-x="382" />
<glyph unicode="&#xfb00;" horiz-adv-x="1148" d="M77 0v127h127v742h-127v127h127v179q0 102 27 169.5t72.5 110t106 60t126.5 17.5q105 0 204 -45v-134q-95 57 -194 57q-107 0 -147.5 -51t-40.5 -161v-202h382v187q0 184 88.5 273t241.5 89q102 0 212 -38v-230h-133v138q-38 8 -76 7q-95 0 -137 -51t-42 -166v-209h229 v-127h-229v-742h127v-127h-408v127h127v742h-382v-742h127v-127h-408z" />
<glyph unicode="&#xfb01;" horiz-adv-x="1071" d="M77 0v127h127v742h-127v127h127v187q0 178 99.5 270t304.5 92q148 0 286 -43v-276h-154v181q-66 15 -137 15q-130 0 -187.5 -52t-57.5 -170v-204h536v-869h127v-127h-408v127h127v742h-382v-742h127v-127h-408z" />
<glyph unicode="&#xfb02;" horiz-adv-x="1071" d="M77 0v127h127v742h-127v127h127v187q0 184 105 273t286 89q87 0 177 -23l112 15h10v-1410h127v-127h-383v127h102v1275q-63 20 -142 20q-127 0 -183.5 -52t-56.5 -165v-209h230v-127h-230v-742h102v-127h-383z" />
<glyph unicode="&#xfb03;" horiz-adv-x="1607" d="M77 0v127h127v742h-127v127h127v174q0 183 98.5 272.5t279.5 89.5q77 0 158 -18v-132q-71 28 -155 28q-127 0 -177 -52.5t-50 -164.5v-197h382v187q0 178 99.5 270t304.5 92q149 0 286 -43v-276h-153v181q-67 15 -138 15q-130 0 -187.5 -52t-57.5 -170v-204h536v-869h127 v-127h-408v127h128v742h-383v-742h127v-127h-408v127h127v742h-382v-742h127v-127h-408z" />
<glyph unicode="&#xfb04;" horiz-adv-x="1607" d="M77 0v127h127v742h-127v127h127v174q0 183 98.5 272.5t279.5 89.5q77 0 158 -18v-132q-71 28 -155 28q-127 0 -177 -52.5t-50 -164.5v-197h382v187q0 184 105 273t286 89q87 0 177 -23l112 15h10v-1410h127v-127h-382v127h102v1275q-64 20 -143 20q-127 0 -183.5 -52 t-56.5 -165v-209h229v-127h-229v-742h102v-127h-383v127h127v742h-382v-742h127v-127h-408z" />
<glyph unicode="fb" horiz-adv-x="1607" d="M77 0v127h127v742h-127v127h127v187q0 184 105 273t286 89q84 0 169 -21l107 13h10v-605l5 -3q107 92 253 92q166 0 267 -140.5t101 -359.5q0 -255 -129.5 -400.5t-353.5 -145.5q-145 0 -296 48v1382q-58 18 -130 17q-127 0 -183.5 -52t-56.5 -165v-209h230v-127h-230 v-742h127v-127h-408zM881 117q76 -15 150 -15q154 0 234 94.5t80 301.5q0 184 -62 290t-190 106q-112 0 -212 -84v-693z" />
<glyph unicode="ffb" horiz-adv-x="2144" d="M77 0v127h127v742h-127v127h127v174q0 183 98.5 272.5t279.5 89.5q77 0 158 -18v-132q-71 28 -155 28q-127 0 -177 -52.5t-50 -164.5v-197h382v187q0 184 105 273t286 89q84 0 169 -21l107 13h10v-605l5 -3q107 92 254 92q165 0 266 -140.5t101 -359.5 q0 -255 -129 -400.5t-354 -145.5q-145 0 -295 48v1382q-59 18 -131 17q-127 0 -183.5 -52t-56.5 -165v-209h229v-127h-229v-742h127v-127h-408v127h127v742h-382v-742h127v-127h-408zM1417 117q77 -15 151 -15q153 0 233.5 94.5t80.5 301.5q0 184 -62.5 290t-190.5 106 q-112 0 -212 -84v-693z" />
<glyph unicode="ffh" horiz-adv-x="2144" d="M77 0v127h127v742h-127v127h127v174q0 183 98.5 272.5t279.5 89.5q77 0 158 -18v-132q-71 28 -155 28q-127 0 -177 -52.5t-50 -164.5v-197h382v187q0 184 105 273t286 89q82 0 164 -21l100 13h10v-658h2q138 143 314 142q127 0 186 -72.5t59 -205.5v-616h128v-127h-383 v127h102v596q0 102 -36 136.5t-99 34.5q-149 0 -273 -146v-621h102v-127h-358v127h102v1280q-53 15 -117 15q-127 0 -183.5 -52t-56.5 -165v-209h229v-127h-229v-742h102v-127h-383v127h127v742h-382v-742h127v-127h-408z" />
<glyph unicode="ff&#x133;" horiz-adv-x="2068" d="M77 0v127h127v742h-127v127h127v174q0 183 98.5 272.5t279.5 89.5q77 0 158 -18v-132q-71 28 -155 28q-127 0 -177 -52.5t-50 -164.5v-197h382v187q0 178 99.5 270t304.5 92q149 0 286 -43v-276h-153v181q-67 15 -138 15q-130 0 -187.5 -52t-57.5 -170v-204h536v-869h127 v-127h-408v127h128v742h-383v-742h127v-127h-408v127h127v742h-382v-742h127v-127h-408zM1609 -332q20 -3 43 -2q79 0 107.5 41t28.5 145v1017h-127v127h280v-1121q-1 -174 -64 -256q-62 -84 -196 -84q-36 0 -72 5v128zM1744 1267q0 53 29.5 82.5t80.5 29.5q49 0 79.5 -29.5 t30.5 -77.5q0 -52 -30.5 -81t-82.5 -29q-48 0 -77.5 29t-29.5 76z" />
<glyph unicode="ffj" horiz-adv-x="1532" d="M77 0v127h127v742h-127v127h127v174q0 183 98.5 272.5t279.5 89.5q77 0 158 -18v-132q-71 28 -155 28q-127 0 -177 -52.5t-50 -164.5v-197h382v187q0 178 96 270t293 92q144 0 276 -43v-276h-154v181q-61 15 -128 15q-122 0 -175.5 -52t-53.5 -170v-204h511v-1121 q0 -174 -65 -256q-61 -84 -196 -84q-35 0 -71 5v128q20 -3 43 -2q79 0 107 41t28 145v1017h-357v-742h127v-127h-408v127h127v742h-382v-742h127v-127h-408z" />
<glyph unicode="ffk" horiz-adv-x="2068" d="M77 0v127h127v742h-127v127h127v174q0 183 98.5 272.5t279.5 89.5q77 0 158 -18v-132q-71 28 -155 28q-127 0 -177 -52.5t-50 -164.5v-197h382v187q0 184 105 273t286 89q87 0 177 -23l112 15h10v-1410h102v-127h-357v127h102v1275q-64 20 -143 20q-127 0 -183.5 -52 t-56.5 -165v-209h229v-127h-229v-742h102v-127h-383v127h127v742h-382v-742h127v-127h-408zM1455 544l299 325h-95v127h384v-127h-135l-292 -309l335 -433h117v-127h-395v127h95l2 5z" />
<glyph unicode="fh" horiz-adv-x="1607" d="M77 0v127h127v742h-127v127h127v187q0 184 105 273t286 89q82 0 164 -21l99 13h11v-658h2q138 143 314 142q127 0 186 -72.5t59 -205.5v-616h127v-127h-382v127h102v596q0 102 -36 136.5t-100 34.5q-148 0 -272 -146v-621h102v-127h-358v127h102v1280q-53 15 -117 15 q-127 0 -183.5 -52t-56.5 -165v-209h230v-127h-230v-742h102v-127h-383z" />
<glyph unicode="f&#x133;" horiz-adv-x="1532" d="M77 0v127h127v742h-127v127h127v187q0 178 99.5 270t304.5 92q148 0 286 -43v-276h-154v181q-66 15 -137 15q-130 0 -187.5 -52t-57.5 -170v-204h536v-869h127v-127h-408v127h127v742h-382v-742h127v-127h-408zM1073 -332q20 -3 43 -2q79 0 107.5 41t28.5 145v1017h-127 v127h280v-1121q-1 -174 -64 -256q-62 -84 -196 -84q-36 0 -72 5v128zM1208 1267q0 53 29.5 82.5t80.5 29.5q49 0 79.5 -29.5t30.5 -77.5q0 -52 -30.5 -81t-82.5 -29q-48 0 -77.5 29t-29.5 76z" />
<glyph unicode="fj" d="M77 0v127h127v742h-127v127h127v187q0 178 96 270t293 92q143 0 276 -43v-276h-154v181q-62 15 -127 15q-122 0 -176 -52t-54 -170v-204h511v-1121q0 -174 -65 -256q-62 -84 -196 -84q-35 0 -72 5v128q21 -3 44 -2q79 0 107 40t28 146v1017h-357v-742h127v-127h-408z" />
<glyph unicode="fk" horiz-adv-x="1532" d="M77 0v127h127v742h-127v127h127v187q0 184 105 273t286 89q87 0 177 -23l112 15h10v-1410h102v-127h-358v127h102v1275q-63 20 -142 20q-127 0 -183.5 -52t-56.5 -165v-209h230v-127h-230v-742h102v-127h-383zM919 544l299 325h-95v127h384v-127h-135l-291 -309l334 -433 h117v-127h-396v127h95l2 5z" />
<glyph horiz-adv-x="0" />
<glyph unicode="&#xd;" horiz-adv-x="382" />
<glyph horiz-adv-x="0" />
<glyph horiz-adv-x="0" />
<glyph unicode=" "  horiz-adv-x="382" />
<glyph unicode="&#x09;" horiz-adv-x="382" />
<glyph unicode="&#xa0;" horiz-adv-x="382" />
<glyph unicode="!" horiz-adv-x="612" d="M204 100q0 62 35 98.5t93 36.5q59 0 93.5 -37t34.5 -88q0 -64 -36 -99.5t-97 -35.5q-56 0 -89.5 35.5t-33.5 89.5zM235 1379h189l-41 -996h-104z" />
<glyph unicode="&#x22;" horiz-adv-x="688" d="M107 1379h169l-34 -460h-102zM413 1379h169l-34 -460h-102z" />
<glyph unicode="#" horiz-adv-x="1071" d="M77 358l10 102h199l28 307h-202l10 102h202l34 357h122l-34 -357h223l33 357h123l-33 -357h204l-10 -102h-202l-29 -307h206l-11 -102h-205l-30 -358h-127l32 358h-219l-30 -358h-126l34 358h-202zM411 460h220l28 307h-220z" />
<glyph unicode="$" horiz-adv-x="1071" d="M97 1024q0 146 96 240t267 115v178h117v-175q187 -10 322 -67v-242h-132v150q-87 28 -190 30v-500q194 -81 281 -169t87 -221q0 -144 -93 -241t-275 -119v-182h-117v174q-182 3 -358 64v273h133v-176q87 -29 225 -31v511q-199 82 -281 167.5t-82 220.5zM256 1044 q0 -95 53.5 -148.5t150.5 -93.5v449q-105 -13 -154.5 -70.5t-49.5 -136.5zM577 130q107 18 158.5 74.5t51.5 132.5q0 97 -56.5 153t-153.5 100v-460z" />
<glyph unicode="%" horiz-adv-x="1991" d="M127 968q0 214 95 325.5t248 111.5q148 0 235 -111t87 -311q0 -222 -93.5 -334.5t-244.5 -112.5q-145 0 -236 112.5t-91 319.5zM271 976q0 -159 47.5 -239.5t141.5 -80.5q91 0 139.5 80.5t48.5 239.5q0 155 -44 232t-144 77q-92 0 -140.5 -73t-48.5 -236zM447 0l945 1405 h153l-945 -1405h-153zM1200 435q0 214 95 325.5t248 111.5q148 0 235 -111t87 -311q0 -222 -93.5 -334.5t-244.5 -112.5q-145 0 -236 112.5t-91 319.5zM1344 443q0 -159 47.5 -239.5t141.5 -80.5q91 0 139.5 80.5t48.5 239.5q0 155 -44 232t-144 77q-92 0 -140.5 -73 t-48.5 -236z" />
<glyph unicode="&#x26;" horiz-adv-x="1378" d="M120 366q0 245 263 398q-154 173 -153 317q0 143 93 233.5t244 90.5q143 0 235 -78.5t92 -205.5q0 -107 -70.5 -195.5t-223.5 -180.5q40 -46 91.5 -98t100.5 -103l174 -171q76 155 81 342h-128v127h409v-127h-148q-13 -245 -117 -436q81 -84 137 -124t113 -40q35 0 66 5 v-120q-47 -13 -94 -13q-74 0 -139 36t-173 138q-171 -187 -411 -186q-197 0 -319.5 113.5t-122.5 277.5zM281 396q0 -130 82.5 -212t218.5 -82q168 0 299 143q-82 79 -189 185t-232 247q-179 -102 -179 -281zM381 1096q0 -120 142 -266q112 62 167 130.5t55 150.5 q0 79 -51 122.5t-132 43.5q-82 0 -131.5 -46t-49.5 -135z" />
<glyph unicode="'" horiz-adv-x="382" d="M107 1379h169l-34 -460h-102z" />
<glyph unicode="(" horiz-adv-x="688" d="M120 610q-3 501 370 922h148q-357 -386 -357 -912q0 -538 357 -926h-148q-373 414 -370 916z" />
<glyph unicode=")" horiz-adv-x="688" d="M52 -306q357 388 357 916q0 536 -357 922h147q373 -421 371 -912q3 -513 -371 -926h-147z" />
<glyph unicode="*" horiz-adv-x="919" d="M100 1126l48 151l266 -104l-21 282h158l-23 -285l271 107l43 -154l-277 -58l188 -228l-128 -97l-152 254l-154 -251l-125 97l184 225z" />
<glyph unicode="+" d="M77 468v137h352v340h138v-340h352v-137h-352v-341h-138v341h-352z" />
<glyph unicode="," horiz-adv-x="535" d="M122 -192q110 105 108 202q0 77 -98 166l147 125q117 -110 117 -229q0 -166 -194 -338z" />
<glyph unicode="-" horiz-adv-x="535" d="M77 460v128h383v-128h-383z" />
<glyph unicode="." horiz-adv-x="459" d="M127 100q0 62 35 98.5t94 36.5q58 0 92.5 -37t34.5 -88q0 -64 -36 -99.5t-97 -35.5q-56 0 -89.5 35.5t-33.5 89.5z" />
<glyph unicode="/" horiz-adv-x="612" d="M-30 -306l541 1685h132l-541 -1685h-132z" />
<glyph unicode="0" horiz-adv-x="1071" d="M102 572q0 283 121 443t326 160q189 0 305.5 -154.5t116.5 -432.5q0 -276 -119 -444.5t-321 -168.5q-194 0 -311.5 163t-117.5 434zM263 582q0 -233 73 -356.5t197 -123.5q133 0 205 126.5t72 359.5q0 222 -68 340.5t-204 118.5q-130 0 -202.5 -116.5t-72.5 -348.5z" />
<glyph unicode="1" horiz-adv-x="612" d="M102 1021v128h332v-1149h-153v1021h-179z" />
<glyph unicode="2" horiz-adv-x="919" d="M77 0v115q240 194 400.5 394.5t160.5 337.5q0 92 -43.5 146t-160.5 54q-100 0 -199 -43v-187h-133v261q176 97 350 97q169 0 258 -83t89 -228q0 -166 -162 -370.5t-356 -361.5v-5h429v154h132v-281h-765z" />
<glyph unicode="3" horiz-adv-x="919" d="M25 -82q146 -43 297 -43q176 0 268 70t92 211q0 132 -88 193.5t-265 61.5h-73v125h50q154 0 239.5 77t85.5 212q0 107 -59 164.5t-184 57.5q-112 0 -204 -38v-167h-132v244q168 89 346 89q184 0 289 -94.5t105 -245.5q0 -227 -246 -339v-6q296 -64 296 -334 q0 -89 -34 -164.5t-100.5 -130.5t-166.5 -86t-227 -31q-153 0 -289 42v132z" />
<glyph unicode="4" horiz-adv-x="1071" d="M52 154v112l665 883h125v-868h154v-127h-154v-308h-152v308h-638zM222 281h468v618h-5l-463 -613v-5z" />
<glyph unicode="5" d="M102 -92q125 -33 253 -33q178 0 278 80t100 247q0 150 -98.5 229.5t-305.5 79.5q-95 0 -202 -10v648h695v-280h-132v152h-422v-388q53 5 98 5q237 0 382.5 -108.5t145.5 -317.5q0 -204 -145.5 -336t-399.5 -132q-132 0 -247 29v135z" />
<glyph unicode="6" horiz-adv-x="1071" d="M102 643q0 353 172 557.5t479 204.5q62 0 141 -13v-127q-84 13 -141 12q-240 0 -361 -149.5t-129 -422.5l5 -3q135 140 330 140q176 0 287 -112t111 -281q0 -188 -120.5 -318.5t-313.5 -130.5q-215 0 -337.5 167t-122.5 476zM263 580q13 -199 88 -326t216 -127 q117 0 192.5 79.5t75.5 219.5q0 131 -70 210t-195 79q-175 0 -307 -135z" />
<glyph unicode="7" horiz-adv-x="919" d="M77 850v299h817v-110q-89 -145 -167.5 -298t-138.5 -311.5t-95 -323.5t-39 -336h-173q8 160 52.5 329t108.5 331.5t140.5 311.5t150.5 274l-3 5h-521v-171h-132z" />
<glyph unicode="8" horiz-adv-x="1071" d="M95 349q0 236 276 379v5q-251 125 -251 319q0 159 121.5 256t309.5 97q187 0 294 -89.5t107 -237.5q0 -199 -265 -335v-5q148 -76 219.5 -165.5t71.5 -201.5q0 -159 -125 -265t-327 -106q-197 0 -314 97t-117 252zM256 358q0 -116 76.5 -173.5t198.5 -57.5 q131 0 208.5 61.5t77.5 158.5t-80.5 170t-253.5 155q-227 -115 -227 -314zM274 1086q0 -52 24 -91.5t64.5 -72.5t97 -62.5t120.5 -62.5q219 120 219 276q0 102 -73 153t-188 51t-189.5 -51t-74.5 -140z" />
<glyph unicode="9" horiz-adv-x="1071" d="M77 730q0 189 120 317t314 128q217 0 338.5 -167.5t121.5 -476.5q0 -362 -174 -574.5t-478 -212.5q-61 0 -140 14v127q82 -13 140 -12q238 0 360.5 154.5t130.5 440.5l-6 2q-135 -139 -329 -138q-176 0 -287 112.5t-111 285.5zM237 748q0 -130 70.5 -209t195.5 -79 q172 0 307 135q-13 199 -88.5 325.5t-215.5 126.5q-117 0 -193 -79t-76 -220z" />
<glyph unicode=":" horiz-adv-x="535" d="M154 100q0 62 34 98.5t93 36.5q58 0 93 -37t35 -88q0 -64 -36 -99.5t-97 -35.5q-57 0 -89.5 35.5t-32.5 89.5zM154 861q0 61 34 98t93 37q58 0 93 -37t35 -88q0 -64 -36 -100t-97 -36q-57 0 -89.5 36t-32.5 90z" />
<glyph unicode=";" horiz-adv-x="535" d="M148 -192q111 105 108 202q0 77 -97 166l145 125q117 -110 117 -229q0 -166 -194 -338zM154 861q0 61 34 98t93 37q58 0 93 -37t35 -88q0 -64 -36 -100t-97 -36q-57 0 -89.5 36t-32.5 90z" />
<glyph unicode="&#x3c;" d="M77 468v137l842 314v-140l-672 -241v-5l672 -234v-145z" />
<glyph unicode="=" d="M77 306v138h842v-138h-842zM77 628v139h842v-139h-842z" />
<glyph unicode="&#x3e;" d="M77 154v145l671 234v5l-671 241v140l842 -314v-137z" />
<glyph unicode="?" horiz-adv-x="765" d="M154 1238v134q100 33 207 33q155 0 257 -89.5t102 -242.5q0 -112 -46 -189t-130 -144q-83 -68 -125.5 -123t-42.5 -132q0 -47 15 -102h-112q-29 77 -29 153q0 87 39.5 152t111.5 122q69 57 115 110t46 148q0 100 -63 151t-165 51q-82 0 -180 -32zM204 100q0 62 35 98.5 t93 36.5q59 0 93.5 -37t34.5 -88q0 -64 -36 -99.5t-97 -35.5q-56 0 -89.5 35.5t-33.5 89.5z" />
<glyph unicode="@" horiz-adv-x="1684" d="M127 376q0 362 216.5 606t555.5 244q309 0 497 -203t188 -505q0 -230 -107.5 -386.5t-266.5 -156.5q-95 0 -154.5 57t-59.5 167h-2q-95 -224 -264 -224q-107 0 -169.5 97t-62.5 247q0 222 111 372.5t303 150.5q115 0 255 -45l-26 -351q-15 -150 -15 -229q0 -112 84 -112 q97 0 161 118.5t64 294.5q0 256 -152 414.5t-387 158.5q-266 0 -440.5 -198t-174.5 -502q0 -294 156 -463.5t415 -169.5q176 0 374 66v-141q-187 -67 -384 -66q-327 0 -521 208t-194 551zM664 329q0 -105 24 -162t81 -57q88 0 151 139t79 289l15 172q-51 15 -110 15 q-110 0 -175 -113.5t-65 -282.5z" />
<glyph unicode="A" horiz-adv-x="1225" d="M0 0v127h127l411 1265h149l419 -1265h120v-127h-409v127h128l-125 384h-427l-119 -384h135v-127h-409zM431 638h348l-174 537h-5z" />
<glyph unicode="B" horiz-adv-x="1148" d="M77 0v127h153v1124h-153v128h467q231 0 340.5 -84.5t109.5 -242.5q0 -107 -50 -185t-160 -117v-5q135 -33 199 -125t64 -217q0 -189 -124 -296t-382 -107h-464zM383 127h163q171 0 254.5 62.5t83.5 213.5q0 132 -78 196.5t-246 64.5h-177v-537zM383 792h163 q286 0 286 237q0 120 -71 171t-228 51h-150v-459z" />
<glyph unicode="C" horiz-adv-x="1148" d="M102 690q0 332 161 523.5t429 191.5q187 0 381 -82v-302h-141v202q-102 41 -245 42q-204 0 -314 -139.5t-110 -425.5q0 -299 115 -442t319 -143q171 0 376 102v-140q-189 -102 -383 -102q-274 0 -431 190t-157 525z" />
<glyph unicode="D" horiz-adv-x="1301" d="M77 0v127h153v1124h-153v128h456q333 0 491.5 -165t158.5 -489q0 -357 -180.5 -541t-514.5 -184h-411zM383 127h123q247 0 381 141t134 442q0 281 -122 411t-393 130h-123v-1124z" />
<glyph unicode="E" horiz-adv-x="1071" d="M77 0v127h153v1124h-153v128h894v-306h-136v178h-452v-484h255v127h129v-409h-129v153h-255v-511h478v179h135v-306h-919z" />
<glyph unicode="F" d="M77 0v127h153v1124h-153v128h894v-306h-136v178h-452v-511h281v129h128v-409h-128v153h-281v-486h179v-127h-485z" />
<glyph unicode="G" horiz-adv-x="1301" d="M102 690q0 332 168.5 523.5t452.5 191.5q197 0 400 -82v-327h-140v227q-112 41 -266 42q-219 0 -336.5 -139.5t-117.5 -425.5q0 -299 122.5 -442t344.5 -143q117 0 243 35v361h-181v127h434v-127h-103v-447q-192 -89 -398 -89q-296 0 -459.5 190t-163.5 525z" />
<glyph unicode="H" horiz-adv-x="1455" d="M77 0v127h153v1124h-153v128h459v-128h-153v-484h690v484h-154v128h460v-128h-153v-1124h153v-127h-460v127h154v511h-690v-511h153v-127h-459z" />
<glyph unicode="I" horiz-adv-x="612" d="M77 0v127h153v1124h-153v128h459v-128h-153v-1124h153v-127h-459z" />
<glyph unicode="J" horiz-adv-x="612" d="M15 -242q33 -3 62 -3q84 0 118.5 38t34.5 155v1303h-153v128h459v-128h-153v-1284q0 -171 -65.5 -260.5t-225.5 -89.5q-38 0 -77 7v134z" />
<glyph unicode="K" horiz-adv-x="1225" d="M77 0v127h153v1124h-153v128h459v-128h-153v-1124h153v-127h-459zM396 717l478 529v5h-107v128h408v-128h-128l-470 -521l493 -603h156v-127h-459v127h104v5z" />
<glyph unicode="L" d="M77 0v127h153v1124h-153v128h459v-128h-153v-1124h427v179h135v-306h-868z" />
<glyph unicode="M" horiz-adv-x="1761" d="M52 0v127h145l33 1124h-151v128h357l443 -1142h5l434 1142h360v-128h-146l28 -1124h151v-127h-434v127h130l-25 1029h-5l-448 -1169h-117l-444 1147h-5l-26 -1007h123v-127h-408z" />
<glyph unicode="N" horiz-adv-x="1378" d="M77 0v127h153v1124h-153v128h306l618 -1062h5v934h-154v128h450v-128h-153v-1251h-148l-623 1075h-5v-948h153v-127h-449z" />
<glyph unicode="O" horiz-adv-x="1301" d="M120 692q0 332 147 522.5t397 190.5q245 0 382 -184t137 -511q0 -347 -147 -541t-393 -194q-237 0 -380 190t-143 527zM281 700q0 -286 98.5 -435.5t271.5 -149.5q174 0 272 149.5t98 437.5q0 279 -93 421t-272 142q-181 0 -278 -138t-97 -427z" />
<glyph unicode="P" horiz-adv-x="1071" d="M77 0v127h153v1124h-153v128h461q225 0 332.5 -98t107.5 -285q0 -212 -121.5 -323t-353.5 -111h-120v-435h179v-127h-485zM383 690h128q149 0 227.5 67.5t78.5 220.5q0 155 -71.5 214t-222.5 59h-140v-561z" />
<glyph unicode="Q" horiz-adv-x="1301" d="M120 692q0 332 148 522.5t396 190.5q242 0 380.5 -184t138.5 -511q0 -304 -107.5 -483t-265.5 -224v-6q67 -120 174 -183.5t234 -63.5q122 0 237 48v-130q-118 -51 -250 -51h-5q-176 0 -325.5 98t-241.5 260q-232 8 -372.5 195.5t-140.5 521.5zM281 700 q0 -286 98.5 -435.5t271.5 -149.5q174 0 272 149.5t98 437.5q0 279 -92 421t-273 142t-278 -138t-97 -427z" />
<glyph unicode="R" horiz-adv-x="1148" d="M77 0v127h153v1124h-135v128h443q238 0 348 -87t110 -258q0 -304 -322 -372v-6q35 -20 76.5 -62.5t101.5 -157.5l169 -309h128v-127h-245q-30 69 -58.5 122.5t-53.5 99.5l-95 176q-52 89 -82 135.5t-69 76.5q-38 28 -100 28h-63v-511h153v-127h-459zM383 767h123 q164 0 246.5 59.5t82.5 192.5q0 130 -75 181t-237 51h-140v-484z" />
<glyph unicode="S" d="M77 1037q0 166 122.5 267t331.5 101q184 0 338 -77v-281h-139v184q-92 39 -212 39q-140 0 -211.5 -67t-71.5 -159q0 -56 22 -95.5t61.5 -70.5t97 -53.5t128.5 -50.5q72 -29 139 -60.5t119.5 -76t84.5 -109.5t32 -165q0 -176 -126 -282t-341 -106q-193 0 -360 71v286h138 v-189q89 -33 235 -33q140 0 218 65t78 177q0 59 -22 101.5t-59 74.5t-93 58.5t-127 54.5q-69 26 -136.5 55t-123 72.5t-89.5 110t-34 158.5z" />
<glyph unicode="T" horiz-adv-x="1071" d="M43 1047v332h986v-332h-135v204h-281v-1124h179v-127h-511v127h179v1124h-281v-204h-136z" />
<glyph unicode="U" horiz-adv-x="1378" d="M52 1251v128h459v-128h-153v-810q0 -160 89 -243t240 -83q163 0 253.5 87t90.5 247v802h-155v128h452v-128h-153v-793q0 -215 -131.5 -349t-358.5 -134q-219 0 -350 126t-131 338v812h-152z" />
<glyph unicode="V" horiz-adv-x="1225" d="M0 1251v128h409v-128h-123l334 -1047h5l322 1047h-130v128h409v-128h-133l-406 -1264h-149l-413 1264h-125z" />
<glyph unicode="W" horiz-adv-x="1838" d="M0 1251v128h409v-128h-123l322 -1047h5l237 738l-102 309h-135v128h434v-128h-145l344 -1047h5l309 1047h-130v128h408v-128h-132l-393 -1264h-148l-246 748h-5l-240 -748h-148l-401 1264h-125z" />
<glyph unicode="X" horiz-adv-x="1148" d="M0 0v127h122l366 588l-324 536h-139v128h435v-128h-123l251 -414l254 414h-127v128h408v-128h-124l-340 -531l362 -593h128v-127h-434v127h130l-288 473l-278 -473h130v-127h-409z" />
<glyph unicode="Y" horiz-adv-x="1225" d="M0 1251v128h409v-128h-118l332 -506l322 506h-128v128h409v-128h-120l-416 -638v-486h179v-127h-511v127h178v486l-419 638h-117z" />
<glyph unicode="Z" horiz-adv-x="1148" d="M77 0v115l748 1136h-588v-178h-135v306h919v-114l-747 -1138h638v179h135v-306h-970z" />
<glyph unicode="[" horiz-adv-x="612" d="M154 -306v1838h357v-127h-217v-1584h217v-127h-357z" />
<glyph unicode="\" horiz-adv-x="612" d="M-30 1379h132l541 -1685h-132z" />
<glyph unicode="]" horiz-adv-x="612" d="M102 -179h217v1584h-217v127h358v-1838h-358v127z" />
<glyph unicode="^" horiz-adv-x="919" d="M69 690l334 702h115l334 -702h-147l-242 536h-5l-241 -536h-148z" />
<glyph unicode="_" horiz-adv-x="765" d="M-25 -115h817v-115h-817v115z" />
<glyph unicode="`" horiz-adv-x="459" d="M62 1405h178l143 -307h-117z" />
<glyph unicode="a" d="M102 250q0 161 139.5 240.5t404.5 79.5h44v150q0 95 -45 134.5t-149 39.5q-125 0 -210 -42v-137h-132v207q173 99 355 99h4q159 0 244 -72.5t85 -231.5v-590h129v-127h-266l-8 115l-5 2q-121 -142 -299 -142h-2q-132 0 -210.5 77.5t-78.5 197.5zM263 258q0 -82 46 -119 t117 -37q154 0 264 125v233h-62q-176 0 -270.5 -44.5t-94.5 -157.5z" />
<glyph unicode="b" horiz-adv-x="1071" d="M64 1405v127h280v-600l5 -3q108 92 254 92q166 0 267 -140.5t101 -359.5q0 -255 -129.5 -400.5t-353.5 -145.5q-146 0 -296 48v1382h-128zM344 117q77 -15 152 -15q153 0 233.5 94.5t80.5 301.5q0 184 -62.5 290t-190.5 106q-113 0 -213 -84v-693z" />
<glyph unicode="c" horiz-adv-x="919" d="M102 488q0 250 126.5 391.5t328.5 141.5q140 0 260 -58v-248h-135v156q-57 23 -138 23q-143 0 -212 -91t-69 -287q0 -209 74 -309t214 -100q139 0 266 69v-138q-122 -63 -268 -63q-207 0 -327 132.5t-120 380.5z" />
<glyph unicode="d" horiz-adv-x="1071" d="M102 483q0 240 122.5 389t316.5 149q97 0 194 -45l5 2v427h-152v127h306v-1405h127v-127h-273l-8 87l-5 2q-106 -114 -252 -114h-3q-174 0 -276 140.5t-102 367.5zM263 501q0 -194 62.5 -296.5t192.5 -102.5q127 0 222 102v654q-95 36 -191 36q-145 0 -215.5 -96 t-70.5 -297z" />
<glyph unicode="e" horiz-adv-x="919" d="M89 488q0 250 120 391.5t302 141.5q149 0 240 -117t91 -334v-80h-595q5 -179 70.5 -278.5t208.5 -104.5q159 1 291 85v-138q-127 -79 -299 -79q-202 0 -315.5 135t-113.5 378zM250 613h440q0 146 -54 213.5t-151 67.5q-95 0 -158.5 -70.5t-76.5 -210.5z" />
<glyph unicode="f" horiz-adv-x="612" d="M77 0v127h127v742h-127v127h127v187q0 184 88.5 273t240.5 89q100 0 212 -38v-230h-132v138q-34 7 -68 7h-9q-95 0 -136.5 -51t-41.5 -166v-209h230v-127h-230v-742h127v-127h-408z" />
<glyph unicode="g" horiz-adv-x="919" d="M52 -212q0 138 137 252q-62 52 -62 134q0 102 110 194q-135 105 -135 294q0 158 99.5 258.5t256.5 100.5q56 0 102 -12q40 -13 91 -13h243v-122h-146v-3q49 -84 49 -186q0 -169 -98.5 -274t-254.5 -105q-71 0 -127 21q-48 -56 -49 -108q0 -30 20.5 -47.5t63.5 -17.5h179 q169 0 259.5 -69.5t90.5 -204.5q0 -166 -133 -265.5t-334 -99.5q-164 0 -263 76.5t-99 196.5zM204 -179q0 -87 56.5 -137t173.5 -50q139 0 216.5 58t77.5 149q0 79 -52.5 119t-144.5 40h-247q-79 -77 -80 -179zM261 674q0 -115 48.5 -180t144.5 -65q92 0 138 58.5t46 179.5 q0 117 -47 172t-145 55q-91 0 -138 -54t-47 -166z" />
<glyph unicode="h" horiz-adv-x="1071" d="M52 0v127h127v1278h-127v127h280v-653h2q138 142 312 142h2q128 0 187 -72.5t59 -205.5v-616h127v-127h-383v127h102v596q0 102 -35.5 136.5t-99.5 34.5q-148 0 -273 -146v-621h102v-127h-382z" />
<glyph unicode="i" horiz-adv-x="535" d="M77 0v127h127v742h-127v127h281v-869h127v-127h-408zM161 1267q0 53 29 82.5t81 29.5q48 0 79 -29.5t31 -77.5q0 -52 -31 -81t-82 -29q-49 0 -78 29t-29 76z" />
<glyph unicode="j" horiz-adv-x="459" d="M0 -332q20 -3 43 -2q79 0 107.5 41t28.5 145v1017h-127v127h280v-1121q-1 -174 -64 -256q-62 -84 -196 -84q-36 0 -72 5v128zM135 1267q0 53 29.5 82.5t80.5 29.5q49 0 79.5 -29.5t30.5 -77.5q0 -52 -30.5 -81t-82.5 -29q-48 0 -77.5 29t-29.5 76z" />
<glyph unicode="k" d="M77 0v127h127v1278h-127v127h281v-1405h102v-127h-383zM383 544l299 325h-94v127h383v-127h-136l-291 -309l335 -433h117v-127h-396v127h95l2 5z" />
<glyph unicode="l" horiz-adv-x="535" d="M77 0v127h127v1278h-127v127h281v-1405h127v-127h-408z" />
<glyph unicode="m" horiz-adv-x="1607" d="M77 0v127h127v742h-127v127h270l8 -132h3q134 157 307 157h2q183 0 222 -160h5q138 160 316 160q127 0 186 -72.5t59 -205.5v-616h129v-127h-384v127h102v596q0 102 -35.5 136.5t-99.5 34.5q-139 0 -260 -144v-623h102v-127h-358v127h102v596q0 102 -34 136.5t-96 34.5 q-145 0 -265 -159v-608h102v-127h-383z" />
<glyph unicode="n" horiz-adv-x="1071" d="M77 0v127h127v742h-127v127h270l8 -132h3q137 157 314 157h2q127 0 186 -72.5t59 -205.5v-616h128v-127h-383v127h103v596q0 102 -36 136.5t-100 34.5q-148 0 -273 -159v-608h102v-127h-383z" />
<glyph unicode="o" d="M89 493q0 242 119 385t300 143q182 0 290.5 -133t108.5 -372q0 -245 -115 -393t-302 -148q-184 0 -292.5 141.5t-108.5 376.5zM250 516q0 -202 65.5 -308t187.5 -106q115 0 178.5 98.5t63.5 300.5q0 393 -249 393q-120 0 -183 -90.5t-63 -287.5z" />
<glyph unicode="p" horiz-adv-x="1071" d="M64 -332h128v1201h-128v127h273l7 -82h5q116 107 259 107q164 0 263.5 -134t99.5 -354q0 -250 -121.5 -404t-308.5 -154q-97 0 -192 45l-5 -2v-350h154v-128h-434v128zM344 140q77 -38 179 -38q136 0 211.5 99.5t75.5 306.5q0 199 -66.5 292.5t-178.5 93.5 q-123 0 -221 -110v-644z" />
<glyph unicode="q" d="M102 478q0 242 122.5 392.5t350.5 150.5q138 0 319 -53v-1300h127v-128h-433v128h152v414l-5 2q-104 -109 -254 -109h-3q-169 0 -272.5 140.5t-103.5 362.5zM263 498q0 -207 70 -301.5t185 -94.5q127 0 222 97v672q-97 23 -180 23q-149 0 -223 -94.5t-74 -301.5z" />
<glyph unicode="r" horiz-adv-x="688" d="M77 0v127h127v742h-127v127h272l9 -144h5q48 82 106.5 120.5t140.5 38.5q30 0 54 -5v-161q-35 7 -70 7h-9q-74 0 -129 -34t-98 -111v-580h153v-127h-434z" />
<glyph unicode="s" horiz-adv-x="842" d="M89 735q0 126 100 206t255 80q144 0 271 -60v-221h-133v136q-59 23 -146 23q-97 0 -145.5 -39.5t-48.5 -104.5q0 -63 52.5 -100t165.5 -78q160 -57 233.5 -125.5t73.5 -183.5q0 -133 -102.5 -213t-271.5 -80q-159 0 -291 60v221h133v-134q74 -22 160 -22h8 q115 0 162.5 39.5t47.5 110.5q0 67 -56 106.5t-176 82.5q-169 62 -230.5 132t-61.5 164z" />
<glyph unicode="t" horiz-adv-x="612" d="M52 869v127h127v230l153 27v-257h230v-127h-230v-642q0 -73 29.5 -99t77.5 -26q62 0 123 30v-124q-69 -33 -146 -33q-110 0 -173.5 57t-63.5 170v667h-127z" />
<glyph unicode="u" horiz-adv-x="1071" d="M52 869v127h280v-717q0 -102 44.5 -139.5t121.5 -37.5q148 0 242 120v647h-127v127h281v-869h127v-127h-268l-8 110h-5q-112 -135 -282 -135q-136 0 -207.5 71t-71.5 206v617h-127z" />
<glyph unicode="v" d="M0 869v127h383v-127h-112l222 -685h5l230 685h-115v127h383v-127h-127l-312 -882h-146l-296 882h-115z" />
<glyph unicode="w" horiz-adv-x="1532" d="M0 869v127h383v-127h-112l209 -685h5l210 571l-39 114h-120v127h409v-127h-138l235 -685h5l218 685h-116v127h383v-127h-127l-299 -882h-145l-202 590h-6l-209 -590h-146l-283 882h-115z" />
<glyph unicode="x" horiz-adv-x="919" d="M0 0v127h115l266 374l-251 368h-117v127h370v-127h-82v-5l172 -251l175 251v5h-86v127h345v-127h-120l-254 -351l266 -391h120v-127h-383v127h89v5l-184 271l-189 -271v-5h106v-127h-358z" />
<glyph unicode="y" d="M0 869v127h383v-127h-112l222 -685h5l232 685h-117v127h383v-127h-127l-331 -933q-30 -89 -64.5 -163t-79.5 -129t-106 -83.5t-145 -28.5q-46 0 -91 8v141q48 -8 93 -8q41 0 76 9t65.5 35.5t63.5 89.5t74 180h-13l-296 882h-115z" />
<glyph unicode="z" horiz-adv-x="919" d="M77 0v110l551 764h-419v-159h-132v281h740v-110l-549 -764h442v159h132v-281h-765z" />
<glyph unicode="{" horiz-adv-x="688" d="M64 551v123q86 0 132 45t46 152v404q0 135 68 196t193 61h85v-127h-95q-47 0 -78.5 -24.5t-31.5 -98.5v-403q0 -112 -43.5 -176.5t-135.5 -87.5v-5q92 -25 135.5 -88.5t43.5 -174.5v-404q0 -71 33 -96.5t82 -25.5h90v-127h-90q-127 0 -191.5 61t-64.5 197v397 q0 111 -46 156.5t-132 45.5z" />
<glyph unicode="|" horiz-adv-x="612" d="M242 -485v2042h129v-2042h-129z" />
<glyph unicode="}" horiz-adv-x="688" d="M102 -179h90q48 0 81 26t33 96v404q0 111 43.5 174.5t135.5 88.5v5q-92 23 -135.5 87.5t-43.5 176.5v403q0 73 -32 98t-77 25h-95v127h85q125 0 192 -61t67 -196v-404q0 -107 46 -152t133 -45v-123q-87 0 -133 -45.5t-46 -156.5v-397q0 -136 -63.5 -197t-190.5 -61h-90 v127z" />
<glyph unicode="~" horiz-adv-x="1071" d="M77 414v135q130 92 265 92q72 0 123 -19t95 -40q40 -20 80 -34.5t88 -14.5q136 0 268 103v-135q-135 -92 -271 -92q-69 0 -118.5 18.5t-93.5 40.5q-40 20 -81 35t-93 15q-127 0 -262 -104z" />
<glyph unicode="&#xa1;" horiz-adv-x="612" d="M154 886q0 61 34 98t93 37q58 0 93 -37t35 -88q0 -64 -36 -99.5t-97 -35.5q-57 0 -89.5 35.5t-32.5 89.5zM189 -383l41 996h104l44 -996h-189z" />
<glyph unicode="&#xa2;" horiz-adv-x="919" d="M102 490q0 232 98.5 357.5t259.5 146.5v181h117v-176q76 -5 143 -21.5t122 -43.5v-227h-127v143q-30 11 -65 17.5t-73 8.5v-754q120 8 265 90v-135q-125 -72 -265 -80v-176h-117v179q-169 20 -263.5 143t-94.5 347zM261 508q0 -176 50 -265t149 -113v741 q-105 -24 -152 -107.5t-47 -255.5z" />
<glyph unicode="&#xa3;" d="M102 0v110q179 138 179 388q0 48 -7 102h-172v115h148q-46 199 -46 291q0 174 107.5 273.5t286.5 99.5q158 0 296 -71v-256h-133v169q-79 30 -171 30q-112 0 -172 -60t-60 -172q0 -87 48 -304h334v-115h-314q8 -54 8 -94q0 -230 -160 -374v-5h513v179h132v-306h-817z" />
<glyph unicode="&#xa4;" horiz-adv-x="1148" d="M30 135l197 192q-73 112 -73 245q0 143 73 248l-197 191l108 107l186 -199q112 77 251 77q138 0 245 -72l191 199l107 -112l-199 -189q77 -107 77 -250q0 -133 -77 -248l197 -192l-107 -109l-192 199q-105 -68 -242 -68q-139 0 -243 68l-189 -197zM294 572 q0 -139 76 -215t202 -76q130 0 206.5 76.5t76.5 214.5t-76.5 217.5t-206.5 79.5q-126 0 -202 -79.5t-76 -217.5z" />
<glyph unicode="&#xa5;" horiz-adv-x="1071" d="M0 1251v128h381v-128h-110l278 -523h5l263 523h-127v128h383v-128h-118l-270 -523h234v-115h-306v-153h306v-116h-306v-217h154v-127h-461v127h154v217h-304v116h304v153h-304v115h232l-281 523h-107z" />
<glyph unicode="&#xa6;" horiz-adv-x="612" d="M230 -25v561h153v-561h-153zM230 842v563h153v-563h-153z" />
<glyph unicode="&#xa7;" horiz-adv-x="1071" d="M154 488q0 212 214 309v5q-189 92 -189 281q0 145 106 233.5t290 88.5q153 0 294 -65v-242h-134v153q-89 26 -173 26q-102 0 -166 -41t-64 -123q0 -46 20.5 -81.5t54.5 -62.5t79 -48.5t96 -44.5q58 -26 117.5 -56.5t109 -72.5t80 -99.5t30.5 -141.5q0 -214 -212 -307v-5 q187 -97 187 -281q0 -145 -106 -233.5t-290 -88.5q-154 0 -294 65v242h133v-154q87 -25 174 -25q102 0 165.5 41t63.5 123q0 46 -21.5 81.5t-57.5 64t-80.5 50t-90.5 41.5q-67 28 -128 60t-107 74t-73.5 99.5t-27.5 134.5zM306 516q0 -51 20.5 -89.5t57.5 -66.5t84.5 -51 t134.5 -62q164 72 164 228q0 53 -22 91.5t-58 68t-83 52.5t-134 61q-164 -73 -164 -232z" />
<glyph unicode="&#xa8;" horiz-adv-x="765" d="M89 1267q0 51 31 81.5t76 30.5q52 0 81 -30.5t29 -78.5q0 -49 -29 -78.5t-83 -29.5q-46 0 -75.5 29t-29.5 76zM460 1267q0 51 30 81.5t77 30.5q51 0 80.5 -30.5t29.5 -78.5q0 -49 -29.5 -78.5t-83.5 -29.5q-47 0 -75.5 29t-28.5 76z" />
<glyph unicode="&#xa9;" horiz-adv-x="1607" d="M102 690q0 322 194 518.5t506 196.5q311 0 508 -198t197 -517q0 -322 -197 -518.5t-508 -196.5t-505.5 196.5t-194.5 518.5zM230 690q0 -279 151.5 -440t420.5 -161q268 0 422.5 161t154.5 440q0 284 -154.5 442t-422.5 158t-420 -158t-152 -442zM383 687 q0 194 113.5 311.5t310.5 117.5q148 0 291 -69v-237h-127v151q-67 35 -167 35q-135 0 -201.5 -78t-66.5 -218q0 -146 72 -231.5t209 -85.5q130 0 281 87v-126q-135 -81 -291 -81q-197 0 -310.5 116.5t-113.5 307.5z" />
<glyph unicode="&#xaa;" horiz-adv-x="842" d="M77 745q0 238 421 238h38v38q0 161 -150 162q-132 0 -259 -62v122q131 59 276 59q135 0 204.5 -63.5t69.5 -189.5v-367h115v-120h-241l-7 89h-6q-100 -115 -234 -115q-102 0 -164.5 57.5t-62.5 151.5zM219 753q0 -46 32.5 -71.5t87.5 -25.5q121 0 197 103v122h-40 q-132 0 -204.5 -28t-72.5 -100z" />
<glyph unicode="&#xab;" horiz-adv-x="842" d="M77 498l217 344h166l-218 -344l218 -344h-166zM383 498l217 344h166l-218 -344l218 -344h-166z" />
<glyph unicode="&#xac;" d="M77 468v137h827v-478h-137v341h-690z" />
<glyph unicode="&#xad;" horiz-adv-x="535" d="M77 460v128h383v-128h-383z" />
<glyph unicode="&#xae;" horiz-adv-x="1607" d="M102 690q0 322 194 518.5t506 196.5q311 0 508 -198t197 -517q0 -322 -197 -518.5t-508 -196.5t-505.5 196.5t-194.5 518.5zM230 690q0 -279 151.5 -440t420.5 -161q268 0 422.5 161t154.5 440q0 284 -154.5 442t-422.5 158t-420 -158t-152 -442zM434 266v117h102v613 h-102v117h353q174 0 255 -59.5t81 -169.5q0 -92 -48.5 -156t-170.5 -87v-5q30 -8 65 -32t68 -78l84 -143h105v-117h-210q-30 61 -66 122l-61 108q-41 74 -75.5 96.5t-90.5 22.5h-46v-232h105v-117h-348zM677 728h78q116 0 166 33t50 110q0 63 -46 94t-151 31h-97v-268z" />
<glyph unicode="&#xaf;" horiz-adv-x="688" d="M75 1180v122h537v-122h-537z" />
<glyph unicode="&#xb0;" horiz-adv-x="765" d="M77 1086q0 138 87.5 228.5t231.5 90.5q140 0 229.5 -91t89.5 -228q0 -139 -89.5 -229t-229.5 -90q-144 0 -231.5 90t-87.5 229zM214 1086q0 -84 51.5 -138t130.5 -54q84 0 134 53.5t50 138.5q0 84 -50 136.5t-134 52.5q-79 0 -130.5 -52.5t-51.5 -136.5z" />
<glyph unicode="&#xb1;" d="M77 8v137h842v-137h-842zM77 468v137h352v264h138v-264h352v-137h-352v-264h-138v264h-352z" />
<glyph unicode="&#xb2;" horiz-adv-x="842" d="M102 562v112q197 138 333.5 268.5t136.5 235.5q0 53 -39.5 81t-118.5 28q-87 0 -167 -36v-153h-120v225q146 82 307 82q141 0 211 -56.5t70 -158.5q0 -139 -123.5 -265t-280.5 -240v-5h309v112h120v-230h-638z" />
<glyph unicode="&#xb3;" horiz-adv-x="842" d="M102 577v125q122 -49 259 -49q102 0 169.5 32t67.5 107q0 61 -59 94t-200 33h-58v112h41q125 0 182.5 36t57.5 103q0 51 -41 84t-135 33q-92 0 -164 -26v-112h-120v181q140 74 294 75q135 0 219.5 -60t84.5 -160q0 -133 -143 -186v-5q183 -41 183 -202q0 -122 -106 -189 t-266 -67q-159 0 -266 41z" />
<glyph unicode="&#xb4;" horiz-adv-x="459" d="M76 1098l143 307h178l-204 -307h-117z" />
<glyph unicode="&#xb5;" d="M127 -460v1456h154v-746q53 -148 192 -148q143 0 217 150v744h152v-869h129v-127h-264l-7 115h-5q-84 -140 -215 -140q-136 0 -194 114h-5v-549h-154z" />
<glyph unicode="&#xb6;" horiz-adv-x="1148" d="M25 1011q0 176 108.5 272t336.5 96h577v-128h-128v-1634h-152v1634h-154v-1634h-153v996q-208 5 -321.5 107t-113.5 291z" />
<glyph unicode="&#xb7;" horiz-adv-x="459" d="M102 493q0 61 34.5 98t93.5 37t93.5 -37t34.5 -88q0 -64 -36 -99.5t-98 -35.5q-56 0 -89 35.5t-33 89.5z" />
<glyph unicode="&#xb8;" horiz-adv-x="535" d="M77 -344q49 -11 100 -11q49 0 77 19t28 65q0 82 -146 82l77 209h118l-49 -132q77 -18 109 -62.5t32 -101.5q0 -89 -67 -143t-174 -54q-51 0 -105 13v116z" />
<glyph unicode="&#xb9;" horiz-adv-x="612" d="M154 1258v121h292v-817h-140v696h-152z" />
<glyph unicode="&#xba;" horiz-adv-x="842" d="M77 917q0 171 95.5 278t261.5 107q156 0 244.5 -102t88.5 -268q0 -176 -96 -286t-252 -110q-158 0 -250 105t-92 276zM222 934q0 -135 52.5 -206.5t151.5 -71.5q100 0 147 68t47 198q0 125 -47 193t-154 68q-95 0 -146 -60.5t-51 -188.5z" />
<glyph unicode="&#xbb;" horiz-adv-x="842" d="M77 154l217 344l-217 344h165l218 -344l-218 -344h-165zM383 154l217 344l-217 344h165l218 -344l-218 -344h-165z" />
<glyph unicode="&#xbc;" horiz-adv-x="1761" d="M154 1258v121h292v-817h-140v696h-152zM294 0l945 1405h153l-945 -1405h-153zM944 220v102l453 537h135v-523h154v-116h-154v-191h-153v191h-435zM1103 341l3 -5h273v326h-6z" />
<glyph unicode="&#xbd;" horiz-adv-x="1838" d="M154 1258v121h292v-817h-140v696h-152zM294 0l945 1405h153l-945 -1405h-153zM1098 29v112q197 138 333.5 268.5t136.5 235.5q0 53 -39.5 81t-118.5 28q-87 0 -167 -36v-153h-120v225q146 82 307 82q141 0 211 -56.5t70 -158.5q0 -139 -123.5 -265t-280.5 -240v-5h309 v112h120v-230h-638z" />
<glyph unicode="&#xbe;" horiz-adv-x="1914" d="M102 577v125q122 -49 259 -49q102 0 169.5 32t67.5 107q0 61 -59 94t-200 33h-58v112h41q125 0 182.5 36t57.5 103q0 51 -41 84t-135 33q-92 0 -164 -26v-112h-120v181q140 74 294 75q135 0 219.5 -60t84.5 -160q0 -133 -143 -186v-5q183 -41 183 -202q0 -122 -106 -189 t-266 -67q-159 0 -266 41zM447 0l945 1405h153l-945 -1405h-153zM1098 220v102l453 537h135v-523h154v-116h-154v-191h-153v191h-435zM1257 341l3 -5h273v326h-6z" />
<glyph unicode="&#xbf;" horiz-adv-x="765" d="M46 -77q0 112 46 189t130 144q84 68 126.5 123t42.5 132q0 47 -15 102h112q28 -77 28 -153q0 -87 -40 -152.5t-110 -120.5q-69 -57 -115.5 -110.5t-46.5 -148.5q0 -100 62.5 -151t164.5 -51q82 0 182 32v-134q-100 -33 -207 -33q-156 0 -258 89.5t-102 242.5zM306 886 q0 63 36 99t97 36q57 0 90 -36t33 -89q0 -62 -34.5 -98.5t-93.5 -36.5q-58 0 -93 37t-35 88z" />
<glyph unicode="&#xc0;" horiz-adv-x="1225" d="M0 0v127h127l411 1265h149l419 -1265h120v-127h-409v127h128l-125 384h-427l-119 -384h135v-127h-409zM344 1762h179l154 -281h-112zM431 638h348l-174 537h-5z" />
<glyph unicode="&#xc1;" horiz-adv-x="1225" d="M0 0v127h127l411 1265h149l419 -1265h120v-127h-409v127h128l-125 384h-427l-119 -384h135v-127h-409zM431 638h348l-174 537h-5zM549 1481l153 281h179l-219 -281h-113z" />
<glyph unicode="&#xc2;" horiz-adv-x="1225" d="M0 0v127h127l411 1265h149l419 -1265h120v-127h-409v127h128l-125 384h-427l-119 -384h135v-127h-409zM332 1481l217 281h128l217 -281h-154l-125 163h-5l-124 -163h-154zM431 638h348l-174 537h-5z" />
<glyph unicode="&#xc3;" horiz-adv-x="1225" d="M0 0v127h127l411 1265h149l419 -1265h120v-127h-409v127h128l-125 384h-427l-119 -384h135v-127h-409zM344 1489v130q59 54 139 54q63 0 153 -49q67 -33 112 -33q77 0 128 58h5v-130q-59 -53 -138 -53q-63 0 -153 48q-67 33 -112 33q-77 0 -128 -58h-6zM431 638h348 l-174 537h-5z" />
<glyph unicode="&#xc4;" horiz-adv-x="1225" d="M0 0v127h127l411 1265h149l419 -1265h120v-127h-409v127h128l-125 384h-427l-119 -384h135v-127h-409zM319 1584q0 51 29.5 80t75.5 29q52 0 79.5 -29.5t27.5 -77.5q0 -49 -28 -77t-82 -28q-46 0 -74 28t-28 75zM431 638h348l-174 537h-5zM695 1584q0 51 29 80t76 29 q51 0 79 -29.5t28 -77.5q0 -49 -28.5 -77t-81.5 -28q-47 0 -74.5 28t-27.5 75z" />
<glyph unicode="&#xc5;" horiz-adv-x="1225" d="M0 0v127h127l411 1265h149l419 -1265h120v-127h-409v127h128l-125 384h-427l-119 -384h135v-127h-409zM429 1627q0 77 51 119t138 42t133 -42.5t46 -113.5q0 -72 -50 -117.5t-139 -45.5q-84 0 -131.5 44.5t-47.5 113.5zM431 638h348l-174 537h-5zM529 1632 q0 -46 22 -66.5t62 -20.5q38 0 61 23t23 64q0 39 -23 59t-61 20q-40 0 -62 -20t-22 -59z" />
<glyph unicode="&#xc6;" horiz-adv-x="1684" d="M-25 0v127h117l656 1252h836v-306h-136v178h-452v-484h255v127h128v-409h-128v153h-255v-511h478v179h135v-306h-919v127h152v384h-396l-199 -384h111v-127h-383zM516 638h326v613h-5z" />
<glyph unicode="&#xc7;" horiz-adv-x="1148" d="M102 690q0 332 161 523.5t429 191.5q187 0 381 -82v-302h-141v202q-102 41 -245 42q-204 0 -314 -139.5t-110 -425.5q0 -299 115 -442t319 -143q171 0 376 102v-140q-189 -102 -383 -102q-274 0 -431 190t-157 525zM498 -344q49 -11 100 -11q49 0 77 19t28 65 q0 82 -146 82l77 209h118l-49 -132q77 -18 109 -62.5t32 -101.5q0 -89 -67 -143t-174 -54q-51 0 -105 13v116z" />
<glyph unicode="&#xc8;" horiz-adv-x="1071" d="M77 0v127h153v1124h-153v128h894v-306h-136v178h-452v-484h255v127h129v-409h-129v153h-255v-511h478v179h135v-306h-919zM306 1762h179l154 -281h-112z" />
<glyph unicode="&#xc9;" horiz-adv-x="1071" d="M77 0v127h153v1124h-153v128h894v-306h-136v178h-452v-484h255v127h129v-409h-129v153h-255v-511h478v179h135v-306h-919zM511 1481l153 281h179l-219 -281h-113z" />
<glyph unicode="&#xca;" horiz-adv-x="1071" d="M77 0v127h153v1124h-153v128h894v-306h-136v178h-452v-484h255v127h129v-409h-129v153h-255v-511h478v179h135v-306h-919zM294 1481l217 281h128l217 -281h-154l-125 163h-5l-124 -163h-154z" />
<glyph unicode="&#xcb;" horiz-adv-x="1071" d="M77 0v127h153v1124h-153v128h894v-306h-136v178h-452v-484h255v127h129v-409h-129v153h-255v-511h478v179h135v-306h-919zM281 1584q0 51 29.5 80t75.5 29q52 0 79.5 -29.5t27.5 -77.5q0 -49 -28 -77t-82 -28q-46 0 -74 28t-28 75zM657 1584q0 51 29 80t76 29 q51 0 79 -29.5t28 -77.5q0 -49 -28.5 -77t-81.5 -28q-47 0 -74.5 28t-27.5 75z" />
<glyph unicode="&#xcc;" horiz-adv-x="612" d="M37 1762h179l154 -281h-112zM77 0v127h153v1124h-153v128h459v-128h-153v-1124h153v-127h-459z" />
<glyph unicode="&#xcd;" horiz-adv-x="612" d="M77 0v127h153v1124h-153v128h459v-128h-153v-1124h153v-127h-459zM242 1481l153 281h179l-219 -281h-113z" />
<glyph unicode="&#xce;" horiz-adv-x="612" d="M25 1481l217 281h128l217 -281h-154l-125 163h-5l-124 -163h-154zM77 0v127h153v1124h-153v128h459v-128h-153v-1124h153v-127h-459z" />
<glyph unicode="&#xcf;" horiz-adv-x="612" d="M12 1584q0 51 29.5 80t75.5 29q52 0 79.5 -29.5t27.5 -77.5q0 -49 -28 -77t-82 -28q-46 0 -74 28t-28 75zM77 0v127h153v1124h-153v128h459v-128h-153v-1124h153v-127h-459zM388 1584q0 51 29 80t76 29q51 0 79 -29.5t28 -77.5q0 -49 -28.5 -77t-81.5 -28q-47 0 -74.5 28 t-27.5 75z" />
<glyph unicode="&#xd0;" horiz-adv-x="1301" d="M77 0v127h153v511h-153v129h153v484h-153v128h456q333 0 491.5 -165t158.5 -489q0 -357 -180.5 -541t-514.5 -184h-411zM383 127h123q247 0 381 141t134 442q0 281 -122 411t-393 130h-123v-484h255v-129h-255v-511z" />
<glyph unicode="&#xd1;" horiz-adv-x="1378" d="M77 0v127h153v1124h-153v128h306l618 -1062h5v934h-154v128h450v-128h-153v-1251h-148l-623 1075h-5v-948h153v-127h-449zM421 1489v130q59 54 139 54q63 0 153 -49q67 -33 112 -33q77 0 128 58h5v-130q-59 -53 -138 -53q-63 0 -153 48q-67 33 -112 33q-77 0 -128 -58h-6 z" />
<glyph unicode="&#xd2;" horiz-adv-x="1301" d="M120 692q0 332 147 522.5t397 190.5q245 0 382 -184t137 -511q0 -347 -147 -541t-393 -194q-237 0 -380 190t-143 527zM281 700q0 -286 98.5 -435.5t271.5 -149.5q174 0 272 149.5t98 437.5q0 279 -93 421t-272 142q-181 0 -278 -138t-97 -427zM382 1762h179l154 -281 h-112z" />
<glyph unicode="&#xd3;" horiz-adv-x="1301" d="M120 692q0 332 147 522.5t397 190.5q245 0 382 -184t137 -511q0 -347 -147 -541t-393 -194q-237 0 -380 190t-143 527zM281 700q0 -286 98.5 -435.5t271.5 -149.5q174 0 272 149.5t98 437.5q0 279 -93 421t-272 142q-181 0 -278 -138t-97 -427zM587 1481l153 281h179 l-219 -281h-113z" />
<glyph unicode="&#xd4;" horiz-adv-x="1301" d="M120 692q0 332 147 522.5t397 190.5q245 0 382 -184t137 -511q0 -347 -147 -541t-393 -194q-237 0 -380 190t-143 527zM281 700q0 -286 98.5 -435.5t271.5 -149.5q174 0 272 149.5t98 437.5q0 279 -93 421t-272 142q-181 0 -278 -138t-97 -427zM370 1481l217 281h128 l217 -281h-154l-125 163h-5l-124 -163h-154z" />
<glyph unicode="&#xd5;" horiz-adv-x="1301" d="M120 692q0 332 147 522.5t397 190.5q245 0 382 -184t137 -511q0 -347 -147 -541t-393 -194q-237 0 -380 190t-143 527zM281 700q0 -286 98.5 -435.5t271.5 -149.5q174 0 272 149.5t98 437.5q0 279 -93 421t-272 142q-181 0 -278 -138t-97 -427zM382 1489v130 q59 54 139 54q63 0 153 -49q67 -33 112 -33q77 0 128 58h5v-130q-59 -53 -138 -53q-63 0 -153 48q-67 33 -112 33q-77 0 -128 -58h-6z" />
<glyph unicode="&#xd6;" horiz-adv-x="1301" d="M120 692q0 332 147 522.5t397 190.5q245 0 382 -184t137 -511q0 -347 -147 -541t-393 -194q-237 0 -380 190t-143 527zM281 700q0 -286 98.5 -435.5t271.5 -149.5q174 0 272 149.5t98 437.5q0 279 -93 421t-272 142q-181 0 -278 -138t-97 -427zM357 1584q0 51 29.5 80 t75.5 29q52 0 79.5 -29.5t27.5 -77.5q0 -49 -28 -77t-82 -28q-46 0 -74 28t-28 75zM733 1584q0 51 29 80t76 29q51 0 79 -29.5t28 -77.5q0 -49 -28.5 -77t-81.5 -28q-47 0 -74.5 28t-27.5 75z" />
<glyph unicode="&#xd7;" horiz-adv-x="1007" d="M89 224l312 312l-312 311l98 98l311 -312l312 312l97 -98l-312 -311l312 -312l-97 -97l-312 312l-311 -312z" />
<glyph unicode="&#xd8;" horiz-adv-x="1301" d="M120 692q0 332 147 522.5t397 190.5q170 0 293 -92l95 156l97 -59l-110 -182q144 -184 144 -518q0 -347 -147 -541t-393 -194q-175 0 -294 102l-99 -166l-96 59l114 191q-148 186 -148 531zM281 700q0 -251 74 -394l524 877q-87 82 -223 82q-181 0 -278 -138t-97 -427z M426 204q93 -89 225 -89q174 0 272 149.5t98 437.5q0 240 -69 379z" />
<glyph unicode="&#xd9;" horiz-adv-x="1378" d="M52 1251v128h459v-128h-153v-810q0 -160 89 -243t240 -83q163 0 253.5 87t90.5 247v802h-155v128h452v-128h-153v-793q0 -215 -131.5 -349t-358.5 -134q-219 0 -350 126t-131 338v812h-152zM421 1762h179l154 -281h-112z" />
<glyph unicode="&#xda;" horiz-adv-x="1378" d="M52 1251v128h459v-128h-153v-810q0 -160 89 -243t240 -83q163 0 253.5 87t90.5 247v802h-155v128h452v-128h-153v-793q0 -215 -131.5 -349t-358.5 -134q-219 0 -350 126t-131 338v812h-152zM626 1481l153 281h179l-219 -281h-113z" />
<glyph unicode="&#xdb;" horiz-adv-x="1378" d="M52 1251v128h459v-128h-153v-810q0 -160 89 -243t240 -83q163 0 253.5 87t90.5 247v802h-155v128h452v-128h-153v-793q0 -215 -131.5 -349t-358.5 -134q-219 0 -350 126t-131 338v812h-152zM409 1481l217 281h128l217 -281h-154l-125 163h-5l-124 -163h-154z" />
<glyph unicode="&#xdc;" horiz-adv-x="1378" d="M52 1251v128h459v-128h-153v-810q0 -160 89 -243t240 -83q163 0 253.5 87t90.5 247v802h-155v128h452v-128h-153v-793q0 -215 -131.5 -349t-358.5 -134q-219 0 -350 126t-131 338v812h-152zM396 1584q0 51 29.5 80t75.5 29q52 0 79.5 -29.5t27.5 -77.5q0 -49 -28 -77 t-82 -28q-46 0 -74 28t-28 75zM772 1584q0 51 29 80t76 29q51 0 79 -29.5t28 -77.5q0 -49 -28.5 -77t-81.5 -28q-47 0 -74.5 28t-27.5 75z" />
<glyph unicode="&#xdd;" horiz-adv-x="1225" d="M0 1251v128h409v-128h-118l332 -506l322 506h-128v128h409v-128h-120l-416 -638v-486h179v-127h-511v127h178v486l-419 638h-117zM549 1481l153 281h179l-219 -281h-113z" />
<glyph unicode="&#xde;" horiz-adv-x="1071" d="M77 0v127h153v1124h-153v128h459v-128h-153v-128h155q225 0 332.5 -98t107.5 -285q0 -212 -121.5 -323t-353.5 -111h-120v-179h153v-127h-459zM383 434h128q149 0 227.5 68t78.5 221q0 156 -71.5 214.5t-222.5 58.5h-140v-562z" />
<glyph unicode="&#xdf;" horiz-adv-x="1148" d="M77 0v127h127v742h-127v127h127v166q0 181 117.5 282t303.5 101q169 0 270 -83t101 -224q0 -68 -17.5 -115.5t-46 -82t-63 -59t-67.5 -44.5q-74 -43 -106 -76.5t-32 -83.5q0 -59 51.5 -101.5t139.5 -90.5q41 -23 78.5 -48.5t69 -60.5t51 -82t19.5 -108q0 -146 -96 -228.5 t-254 -82.5q-95 0 -187 25v135q95 -33 187 -33q102 0 149 40t47 119q0 66 -41 108t-125 89q-46 25 -88 52.5t-73.5 61t-52.5 78.5t-21 100q0 59 15.5 97.5t38.5 68t56.5 56.5t68.5 49q35 23 62.5 42.5t46.5 43.5t29 53.5t10 70.5q0 95 -57.5 143t-174.5 48 q-120 0 -187.5 -56t-67.5 -181v-1185h-281z" />
<glyph unicode="&#xe0;" d="M102 250q0 161 139.5 240.5t404.5 79.5h44v150q0 95 -45 134.5t-149 39.5q-125 0 -210 -42v-137h-132v207q175 100 359 99q159 0 244 -72.5t85 -231.5v-590h129v-127h-266l-8 115l-5 2q-122 -143 -301 -142q-132 0 -210.5 77.5t-78.5 197.5zM256 1405h178l143 -307h-117z M263 258q0 -82 46 -119t117 -37q154 0 264 125v233h-62q-176 0 -270.5 -44.5t-94.5 -157.5z" />
<glyph unicode="&#xe1;" d="M102 250q0 161 139.5 240.5t404.5 79.5h44v150q0 95 -45 134.5t-149 39.5q-125 0 -210 -42v-137h-132v207q175 100 359 99q159 0 244 -72.5t85 -231.5v-590h129v-127h-266l-8 115l-5 2q-122 -143 -301 -142q-132 0 -210.5 77.5t-78.5 197.5zM263 258q0 -82 46 -119 t117 -37q154 0 264 125v233h-62q-176 0 -270.5 -44.5t-94.5 -157.5zM419 1098l143 307h178l-204 -307h-117z" />
<glyph unicode="&#xe2;" d="M102 250q0 161 139.5 240.5t404.5 79.5h44v150q0 95 -45 134.5t-149 39.5q-125 0 -210 -42v-137h-132v207q175 100 359 99q159 0 244 -72.5t85 -231.5v-590h129v-127h-266l-8 115l-5 2q-122 -143 -301 -142q-132 0 -210.5 77.5t-78.5 197.5zM197 1098l239 307h124 l239 -307h-152l-147 192h-5l-145 -192h-153zM263 258q0 -82 46 -119t117 -37q154 0 264 125v233h-62q-176 0 -270.5 -44.5t-94.5 -157.5z" />
<glyph unicode="&#xe3;" d="M102 250q0 161 139.5 240.5t404.5 79.5h44v150q0 95 -45 134.5t-149 39.5q-125 0 -210 -42v-137h-132v207q175 100 359 99q159 0 244 -72.5t85 -231.5v-590h129v-127h-266l-8 115l-5 2q-122 -143 -301 -142q-132 0 -210.5 77.5t-78.5 197.5zM204 1183v130q79 57 164 56 q66 0 155 -46q64 -30 110 -31q82 0 154 61h5v-130q-79 -56 -164 -56q-66 0 -155 46q-64 30 -110 30q-82 0 -154 -60h-5zM263 258q0 -82 46 -119t117 -37q154 0 264 125v233h-62q-176 0 -270.5 -44.5t-94.5 -157.5z" />
<glyph unicode="&#xe4;" d="M102 250q0 161 139.5 240.5t404.5 79.5h44v150q0 95 -45 134.5t-149 39.5q-125 0 -210 -42v-137h-132v207q175 100 359 99q159 0 244 -72.5t85 -231.5v-590h129v-127h-266l-8 115l-5 2q-122 -143 -301 -142q-132 0 -210.5 77.5t-78.5 197.5zM204 1267q0 51 31 81.5 t76 30.5q52 0 81 -30.5t29 -78.5q0 -49 -29 -78.5t-83 -29.5q-46 0 -75.5 29t-29.5 76zM263 258q0 -82 46 -119t117 -37q154 0 264 125v233h-62q-176 0 -270.5 -44.5t-94.5 -157.5zM575 1267q0 51 30 81.5t77 30.5q51 0 80.5 -30.5t29.5 -78.5q0 -49 -29.5 -78.5 t-83.5 -29.5q-47 0 -75.5 29t-28.5 76z" />
<glyph unicode="&#xe5;" d="M102 250q0 161 139.5 240.5t404.5 79.5h44v150q0 95 -45 134.5t-149 39.5q-125 0 -210 -42v-137h-132v207q175 100 359 99q159 0 244 -72.5t85 -231.5v-590h129v-127h-266l-8 115l-5 2q-122 -143 -301 -142q-132 0 -210.5 77.5t-78.5 197.5zM263 258q0 -82 46 -119 t117 -37q154 0 264 125v233h-62q-176 0 -270.5 -44.5t-94.5 -157.5zM306 1265q0 76 54 120.5t140 44.5q92 0 141 -45t49 -118q0 -72 -52.5 -120.5t-144.5 -48.5q-87 0 -137 47.5t-50 119.5zM411 1267q0 -47 23.5 -68t63.5 -21q38 0 62.5 24t24.5 65q0 40 -24.5 62t-62.5 22 q-40 0 -63.5 -22t-23.5 -62z" />
<glyph unicode="&#xe6;" horiz-adv-x="1455" d="M102 250q0 161 133 240.5t388 79.5h41v150q0 95 -42 134.5t-139 39.5q-117 0 -197 -42v-137h-132v207q168 100 347 99q212 0 276 -135h5q110 135 281 135q140 0 228 -117t88 -334v-80h-562q5 -179 66.5 -278.5t197.5 -104.5q147 1 272 85v-138q-122 -79 -285 -79 q-220 0 -330 175h-5q-145 -175 -352 -175q-127 0 -203 76t-76 199zM268 258q0 -79 40.5 -117.5t100.5 -38.5q159 -3 283 154q-28 83 -33 204h-54q-161 0 -249 -44.5t-88 -157.5zM820 613h406q0 146 -50 213.5t-139 67.5q-87 0 -146 -70.5t-71 -210.5z" />
<glyph unicode="&#xe7;" horiz-adv-x="919" d="M102 488q0 250 126.5 391.5t328.5 141.5q140 0 260 -58v-248h-135v156q-57 23 -138 23q-143 0 -212 -91t-69 -287q0 -209 74 -309t214 -100q139 0 266 69v-138q-122 -63 -268 -63q-207 0 -327 132.5t-120 380.5zM344 -344q49 -11 100 -11q49 0 77 19t28 65q0 82 -146 82 l77 209h118l-49 -132q77 -18 109 -62.5t32 -101.5q0 -89 -67 -143t-174 -54q-51 0 -105 13v116z" />
<glyph unicode="&#xe8;" horiz-adv-x="919" d="M89 488q0 250 120 391.5t302 141.5q149 0 240 -117t91 -334v-80h-595q5 -179 70.5 -278.5t208.5 -104.5q159 1 291 85v-138q-127 -79 -299 -79q-202 0 -315.5 135t-113.5 378zM250 613h440q0 146 -54 213.5t-151 67.5q-95 0 -158.5 -70.5t-76.5 -210.5zM256 1405h178 l143 -307h-117z" />
<glyph unicode="&#xe9;" horiz-adv-x="919" d="M89 488q0 250 120 391.5t302 141.5q149 0 240 -117t91 -334v-80h-595q5 -179 70.5 -278.5t208.5 -104.5q159 1 291 85v-138q-127 -79 -299 -79q-202 0 -315.5 135t-113.5 378zM250 613h440q0 146 -54 213.5t-151 67.5q-95 0 -158.5 -70.5t-76.5 -210.5zM419 1098l143 307 h178l-204 -307h-117z" />
<glyph unicode="&#xea;" horiz-adv-x="919" d="M89 488q0 250 120 391.5t302 141.5q149 0 240 -117t91 -334v-80h-595q5 -179 70.5 -278.5t208.5 -104.5q159 1 291 85v-138q-127 -79 -299 -79q-202 0 -315.5 135t-113.5 378zM197 1098l239 307h124l239 -307h-152l-147 192h-5l-145 -192h-153zM250 613h440 q0 146 -54 213.5t-151 67.5q-95 0 -158.5 -70.5t-76.5 -210.5z" />
<glyph unicode="&#xeb;" horiz-adv-x="919" d="M89 488q0 250 120 391.5t302 141.5q149 0 240 -117t91 -334v-80h-595q5 -179 70.5 -278.5t208.5 -104.5q159 1 291 85v-138q-127 -79 -299 -79q-202 0 -315.5 135t-113.5 378zM204 1267q0 51 31 81.5t76 30.5q52 0 81 -30.5t29 -78.5q0 -49 -29 -78.5t-83 -29.5 q-46 0 -75.5 29t-29.5 76zM250 613h440q0 146 -54 213.5t-151 67.5q-95 0 -158.5 -70.5t-76.5 -210.5zM575 1267q0 51 30 81.5t77 30.5q51 0 80.5 -30.5t29.5 -78.5q0 -49 -29.5 -78.5t-83.5 -29.5q-47 0 -75.5 29t-28.5 76z" />
<glyph unicode="&#xec;" horiz-adv-x="535" d="M27 1405h178l143 -307h-117zM77 0v127h127v742h-127v127h281v-869h127v-127h-408z" />
<glyph unicode="&#xed;" horiz-adv-x="535" d="M77 0v127h127v742h-127v127h281v-869h127v-127h-408zM190 1098l143 307h178l-204 -307h-117z" />
<glyph unicode="&#xee;" horiz-adv-x="535" d="M-32 1098l239 307h124l239 -307h-152l-147 192h-5l-145 -192h-153zM77 0v127h127v742h-127v127h281v-869h127v-127h-408z" />
<glyph unicode="&#xef;" horiz-adv-x="535" d="M-25 1267q0 51 31 81.5t76 30.5q52 0 81 -30.5t29 -78.5q0 -49 -29 -78.5t-83 -29.5q-46 0 -75.5 29t-29.5 76zM77 0v127h127v742h-127v127h281v-869h127v-127h-408zM346 1267q0 51 30 81.5t77 30.5q51 0 80.5 -30.5t29.5 -78.5q0 -49 -29.5 -78.5t-83.5 -29.5 q-47 0 -75.5 29t-28.5 76z" />
<glyph unicode="&#xf0;" horiz-adv-x="1071" d="M89 488q0 230 120 369t317 139q112 0 214 -54l5 3q-43 187 -157 313l-195 -145l-71 92l171 128q-105 62 -269 72v127q217 -8 376 -117l172 127l70 -92l-150 -112q250 -257 250 -720q0 -306 -116 -474.5t-318 -168.5q-192 0 -305.5 141.5t-113.5 371.5zM250 506 q0 -194 68 -299t200 -105q135 0 199.5 122.5t64.5 380.5q0 110 -13 205q-116 59 -238 59q-143 0 -212 -87t-69 -276z" />
<glyph unicode="&#xf1;" horiz-adv-x="1071" d="M77 0v127h127v742h-127v127h270l8 -132h3q138 158 316 157q127 0 186 -72.5t59 -205.5v-616h128v-127h-383v127h103v596q0 102 -36 136.5t-100 34.5q-148 0 -273 -159v-608h102v-127h-383zM281 1183v130q79 57 164 56q66 0 155 -46q64 -30 110 -31q82 0 154 61h5v-130 q-79 -56 -164 -56q-66 0 -155 46q-64 30 -110 30q-82 0 -154 -60h-5z" />
<glyph unicode="&#xf2;" d="M89 493q0 242 119 385t300 143q182 0 290.5 -133t108.5 -372q0 -245 -115 -393t-302 -148q-184 0 -292.5 141.5t-108.5 376.5zM250 516q0 -202 65.5 -308t187.5 -106q115 0 178.5 98.5t63.5 300.5q0 393 -249 393q-120 0 -183 -90.5t-63 -287.5zM256 1405h178l143 -307 h-117z" />
<glyph unicode="&#xf3;" d="M89 493q0 242 119 385t300 143q182 0 290.5 -133t108.5 -372q0 -245 -115 -393t-302 -148q-184 0 -292.5 141.5t-108.5 376.5zM250 516q0 -202 65.5 -308t187.5 -106q115 0 178.5 98.5t63.5 300.5q0 393 -249 393q-120 0 -183 -90.5t-63 -287.5zM419 1098l143 307h178 l-204 -307h-117z" />
<glyph unicode="&#xf4;" d="M89 493q0 242 119 385t300 143q182 0 290.5 -133t108.5 -372q0 -245 -115 -393t-302 -148q-184 0 -292.5 141.5t-108.5 376.5zM197 1098l239 307h124l239 -307h-152l-147 192h-5l-145 -192h-153zM250 516q0 -202 65.5 -308t187.5 -106q115 0 178.5 98.5t63.5 300.5 q0 393 -249 393q-120 0 -183 -90.5t-63 -287.5z" />
<glyph unicode="&#xf5;" d="M89 493q0 242 119 385t300 143q182 0 290.5 -133t108.5 -372q0 -245 -115 -393t-302 -148q-184 0 -292.5 141.5t-108.5 376.5zM204 1183v130q79 57 164 56q66 0 155 -46q64 -30 110 -31q82 0 154 61h5v-130q-79 -56 -164 -56q-66 0 -155 46q-64 30 -110 30 q-82 0 -154 -60h-5zM250 516q0 -202 65.5 -308t187.5 -106q115 0 178.5 98.5t63.5 300.5q0 393 -249 393q-120 0 -183 -90.5t-63 -287.5z" />
<glyph unicode="&#xf6;" d="M89 493q0 242 119 385t300 143q182 0 290.5 -133t108.5 -372q0 -245 -115 -393t-302 -148q-184 0 -292.5 141.5t-108.5 376.5zM204 1267q0 51 31 81.5t76 30.5q52 0 81 -30.5t29 -78.5q0 -49 -29 -78.5t-83 -29.5q-46 0 -75.5 29t-29.5 76zM250 516q0 -202 65.5 -308 t187.5 -106q115 0 178.5 98.5t63.5 300.5q0 393 -249 393q-120 0 -183 -90.5t-63 -287.5zM575 1267q0 51 30 81.5t77 30.5q51 0 80.5 -30.5t29.5 -78.5q0 -49 -29.5 -78.5t-83.5 -29.5q-47 0 -75.5 29t-28.5 76z" />
<glyph unicode="&#xf7;" d="M77 468v137h842v-137h-842zM388 217q0 54 29 84.5t84 30.5q48 0 76 -29t28 -81q0 -51 -28 -80.5t-79 -29.5q-52 0 -81 29.5t-29 75.5zM388 845q0 54 29 85t84 31q48 0 76 -29.5t28 -81.5q0 -51 -28 -80.5t-79 -29.5q-52 0 -81 29.5t-29 75.5z" />
<glyph unicode="&#xf8;" d="M89 493q0 235 117.5 381.5t301.5 146.5q125 0 217 -66l82 131l87 -52l-95 -150q107 -136 108 -368q0 -240 -115 -390.5t-302 -150.5q-125 0 -216 68l-82 -132l-90 51l97 155q-110 144 -110 376zM250 516q0 -153 41 -255l360 574q-61 59 -155 59q-115 0 -180.5 -89.5 t-65.5 -288.5zM349 166q59 -64 154 -64q115 0 178.5 101t63.5 298q0 145 -35 237z" />
<glyph unicode="&#xf9;" horiz-adv-x="1071" d="M52 869v127h280v-717q0 -102 44.5 -139.5t121.5 -37.5q148 0 242 120v647h-127v127h281v-869h127v-127h-268l-8 110h-5q-112 -135 -282 -135q-136 0 -207.5 71t-71.5 206v617h-127zM256 1405h178l143 -307h-117z" />
<glyph unicode="&#xfa;" horiz-adv-x="1071" d="M52 869v127h280v-717q0 -102 44.5 -139.5t121.5 -37.5q148 0 242 120v647h-127v127h281v-869h127v-127h-268l-8 110h-5q-112 -135 -282 -135q-136 0 -207.5 71t-71.5 206v617h-127zM419 1098l143 307h178l-204 -307h-117z" />
<glyph unicode="&#xfb;" horiz-adv-x="1071" d="M52 869v127h280v-717q0 -102 44.5 -139.5t121.5 -37.5q148 0 242 120v647h-127v127h281v-869h127v-127h-268l-8 110h-5q-112 -135 -282 -135q-136 0 -207.5 71t-71.5 206v617h-127zM197 1098l239 307h124l239 -307h-152l-147 192h-5l-145 -192h-153z" />
<glyph unicode="&#xfc;" horiz-adv-x="1071" d="M52 869v127h280v-717q0 -102 44.5 -139.5t121.5 -37.5q148 0 242 120v647h-127v127h281v-869h127v-127h-268l-8 110h-5q-112 -135 -282 -135q-136 0 -207.5 71t-71.5 206v617h-127zM204 1267q0 51 31 81.5t76 30.5q52 0 81 -30.5t29 -78.5q0 -49 -29 -78.5t-83 -29.5 q-46 0 -75.5 29t-29.5 76zM575 1267q0 51 30 81.5t77 30.5q51 0 80.5 -30.5t29.5 -78.5q0 -49 -29.5 -78.5t-83.5 -29.5q-47 0 -75.5 29t-28.5 76z" />
<glyph unicode="&#xfd;" d="M0 869v127h383v-127h-112l222 -685h5l232 685h-117v127h383v-127h-127l-331 -933q-30 -89 -64.5 -163t-79.5 -129t-106 -83.5t-145 -28.5q-46 0 -91 8v141q48 -8 93 -8q41 0 76 9t65.5 35.5t63.5 89.5t74 180h-13l-296 882h-115zM419 1098l143 307h178l-204 -307h-117z " />
<glyph unicode="&#xfe;" horiz-adv-x="1071" d="M64 -332h128v1737h-128v127h280v-600l5 -3q108 92 254 92q166 0 267 -140.5t101 -352.5q0 -245 -121.5 -399t-308.5 -154q-97 0 -192 45l-5 -2v-350h154v-128h-434v128zM344 140q77 -38 179 -38q136 0 211.5 100t75.5 304q0 176 -62.5 282t-190.5 106q-113 0 -213 -84 v-670z" />
<glyph unicode="&#xff;" d="M0 869v127h383v-127h-112l222 -685h5l232 685h-117v127h383v-127h-127l-331 -933q-30 -89 -64.5 -163t-79.5 -129t-106 -83.5t-145 -28.5q-46 0 -91 8v141q48 -8 93 -8q41 0 76 9t65.5 35.5t63.5 89.5t74 180h-13l-296 882h-115zM204 1267q0 51 31 81.5t76 30.5 q52 0 81 -30.5t29 -78.5q0 -49 -29 -78.5t-83 -29.5q-46 0 -75.5 29t-29.5 76zM575 1267q0 51 30 81.5t77 30.5q51 0 80.5 -30.5t29.5 -78.5q0 -49 -29.5 -78.5t-83.5 -29.5q-47 0 -75.5 29t-28.5 76z" />
<glyph unicode="&#x132;" horiz-adv-x="1225" d="M77 0v127h153v1124h-153v128h459v-128h-153v-1124h153v-127h-459zM628 -242q33 -3 62 -3q84 0 118.5 38t34.5 155v1303h-153v128h459v-128h-153v-1284q0 -171 -65.5 -260.5t-225.5 -89.5q-38 0 -77 7v134z" />
<glyph unicode="&#x133;" d="M77 0v127h127v742h-127v127h281v-869h127v-127h-408zM161 1267q0 53 29 82.5t81 29.5q48 0 79 -29.5t31 -77.5q0 -52 -31 -81t-82 -29q-49 0 -78 29t-29 76zM536 -332q20 -3 43 -2q79 0 107.5 41t28.5 145v1017h-127v127h280v-1121q-1 -174 -64 -256q-62 -84 -196 -84 q-36 0 -72 5v128zM671 1267q0 53 29.5 82.5t80.5 29.5q49 0 79.5 -29.5t30.5 -77.5q0 -52 -30.5 -81t-82.5 -29q-48 0 -77.5 29t-29.5 76z" />
<glyph unicode="&#x140;" horiz-adv-x="612" d="M77 0v127h127v1278h-127v127h281v-1405h127v-127h-408zM485 764q0 51 26.5 79t76.5 28q46 0 74 -28t28 -74q0 -49 -28.5 -77t-76.5 -28q-47 0 -73.5 28t-26.5 72z" />
<glyph unicode="&#x152;" horiz-adv-x="1761" d="M120 687q0 339 150.5 528.5t416.5 189.5q127 0 232 -47v21h740v-306h-135v178h-451v-484h255v127h127v-409h-127v153h-255v-511h477v179h136v-306h-767v35q-105 -61 -247 -60q-258 0 -405 187t-147 525zM281 702q0 -286 101 -436.5t295 -150.5q145 0 242 74v1014 q-97 62 -237 62q-199 0 -300 -137t-101 -426z" />
<glyph unicode="&#x153;" horiz-adv-x="1532" d="M89 493q0 235 114 381.5t290 146.5q204 0 306 -184h5q120 184 325 184q149 0 237.5 -117t88.5 -334v-80h-584q5 -179 69 -278.5t206 -104.5q156 0 284 85v-138q-122 -79 -294 -79q-237 0 -342 191h-5q-112 -192 -314 -191q-174 0 -280 143t-106 375zM250 516 q0 -197 61.5 -305.5t176.5 -108.5q107 0 167 101t60 298q0 192 -58.5 292.5t-176.5 100.5q-107 0 -168.5 -89.5t-61.5 -288.5zM874 613h428q0 146 -51 213.5t-148 67.5q-92 0 -154.5 -70.5t-74.5 -210.5z" />
<glyph unicode="&#x178;" horiz-adv-x="1225" d="M0 1251v128h409v-128h-118l332 -506l322 506h-128v128h409v-128h-120l-416 -638v-486h179v-127h-511v127h178v486l-419 638h-117zM319 1584q0 51 29.5 80t75.5 29q52 0 79.5 -29.5t27.5 -77.5q0 -49 -28 -77t-82 -28q-46 0 -74 28t-28 75zM695 1584q0 51 29 80t76 29 q51 0 79 -29.5t28 -77.5q0 -49 -28.5 -77t-81.5 -28q-47 0 -74.5 28t-27.5 75z" />
<glyph unicode="&#x2c6;" horiz-adv-x="765" d="M82 1098l239 307h124l239 -307h-152l-147 192h-5l-145 -192h-153z" />
<glyph unicode="&#x2dc;" horiz-adv-x="765" d="M89 1183v130q79 57 164 56q66 0 155 -46q64 -30 110 -31q82 0 154 61h5v-130q-79 -56 -164 -56q-66 0 -155 46q-64 30 -110 30q-82 0 -154 -60h-5z" />
<glyph unicode="&#x2000;" horiz-adv-x="894" />
<glyph unicode="&#x2001;" horiz-adv-x="1788" />
<glyph unicode="&#x2002;" horiz-adv-x="894" />
<glyph unicode="&#x2003;" horiz-adv-x="1788" />
<glyph unicode="&#x2004;" horiz-adv-x="596" />
<glyph unicode="&#x2005;" horiz-adv-x="447" />
<glyph unicode="&#x2006;" horiz-adv-x="298" />
<glyph unicode="&#x2007;" horiz-adv-x="298" />
<glyph unicode="&#x2008;" horiz-adv-x="223" />
<glyph unicode="&#x2009;" horiz-adv-x="357" />
<glyph unicode="&#x200a;" horiz-adv-x="99" />
<glyph unicode="&#x2010;" horiz-adv-x="535" d="M77 460v128h383v-128h-383z" />
<glyph unicode="&#x2011;" horiz-adv-x="535" d="M77 460v128h383v-128h-383z" />
<glyph unicode="&#x2012;" horiz-adv-x="535" d="M77 460v128h383v-128h-383z" />
<glyph unicode="&#x2013;" horiz-adv-x="1071" d="M77 460v128h919v-128h-919z" />
<glyph unicode="&#x2014;" horiz-adv-x="2068" d="M77 460v128h1915v-128h-1915z" />
<glyph unicode="&#x2018;" horiz-adv-x="382" d="M77 1086q0 158 181 319l74 -70q-102 -100 -102 -191q0 -73 92 -161l-135 -114q-110 105 -110 217z" />
<glyph unicode="&#x2019;" horiz-adv-x="382" d="M52 937q102 100 102 192q0 74 -92 161l135 115q110 -105 109 -217q0 -159 -181 -319z" />
<glyph unicode="&#x201a;" horiz-adv-x="382" d="M52 -166q102 100 102 191q0 74 -92 162l135 114q110 -105 109 -217q0 -159 -181 -319z" />
<glyph unicode="&#x201c;" horiz-adv-x="688" d="M77 1086q0 158 181 319l74 -70q-102 -100 -102 -191q0 -73 92 -161l-135 -114q-110 105 -110 217zM383 1086q0 158 181 319l74 -70q-102 -100 -102 -191q0 -73 92 -161l-135 -114q-110 105 -110 217z" />
<glyph unicode="&#x201d;" horiz-adv-x="688" d="M52 937q102 100 102 192q0 74 -92 161l135 115q110 -105 109 -217q0 -159 -181 -319zM358 937q102 100 102 192q0 74 -92 161l135 115q110 -105 109 -217q0 -159 -181 -319z" />
<glyph unicode="&#x201e;" horiz-adv-x="688" d="M52 -166q102 100 102 191q0 74 -92 162l135 114q110 -105 109 -217q0 -159 -181 -319zM358 -166q102 100 102 191q0 74 -92 162l135 114q110 -105 109 -217q0 -159 -181 -319z" />
<glyph unicode="&#x2022;" horiz-adv-x="612" d="M140 700q0 77 45 123t121 46q74 0 120.5 -45t46.5 -119q0 -79 -46 -124t-126 -45q-72 0 -116.5 45t-44.5 119z" />
<glyph unicode="&#x2026;" horiz-adv-x="1378" d="M127 100q0 62 35 98.5t94 36.5q58 0 92.5 -37t34.5 -88q0 -64 -36 -99.5t-97 -35.5q-56 0 -89.5 35.5t-33.5 89.5zM588 100q0 62 34 98.5t93 36.5t93 -37t34 -88q0 -64 -35 -99.5t-97 -35.5q-57 0 -89.5 35.5t-32.5 89.5zM1047 100q0 62 34.5 98.5t93.5 36.5 q58 0 92.5 -37t34.5 -88q0 -64 -35.5 -99.5t-96.5 -35.5q-57 0 -90 35.5t-33 89.5z" />
<glyph unicode="&#x202f;" horiz-adv-x="357" />
<glyph unicode="&#x2039;" horiz-adv-x="535" d="M77 498l217 344h166l-218 -344l218 -344h-166z" />
<glyph unicode="&#x203a;" horiz-adv-x="535" d="M77 154l217 344l-217 344h165l218 -344l-218 -344h-165z" />
<glyph unicode="&#x205f;" horiz-adv-x="447" />
<glyph unicode="&#x20ac;" horiz-adv-x="1148" d="M48 498l24 115h110q-3 35 -3 74q0 35 3 80h-125l20 114h117q43 247 191 385.5t379 138.5q165 0 309 -57v-237h-128v140q-73 26 -184 26q-353 0 -412 -396h575l-25 -114h-560q-3 -31 -2 -67q0 -44 2 -87h530l-27 -115h-490q34 -199 140 -297.5t275 -98.5q135 0 306 59 v-128q-156 -58 -314 -58q-233 0 -378.5 133.5t-188.5 389.5h-144z" />
<glyph unicode="&#x2122;" horiz-adv-x="2144" d="M102 1098v281h715v-281h-115v160h-174v-576h136v-120h-408v120h132v576h-166v-160h-120zM907 562v120h119l23 576h-130v121h317l253 -605h5l245 605h309v-121h-123l23 -576h120v-120h-357v120h102l-20 508h-5l-253 -633h-105l-257 616h-6l-18 -491h102v-120h-344z" />
<glyph unicode="&#x25fc;" d="M0 0v996h996v-996h-996z" />
<glyph horiz-adv-x="535" d="M77 0v127h127v742h-127v127h281v-869h127v-127h-408zM161 1267q0 53 29 82.5t81 29.5q48 0 79 -29.5t31 -77.5q0 -52 -31 -81t-82 -29q-49 0 -78 29t-29 76z" />
<glyph horiz-adv-x="612" d="M77 0v127h127v742h-127v127h127v197q0 176 82 264t225 88q95 0 179 -33v-235h-128v140q-24 5 -54 5q-82 0 -116 -49.5t-34 -156.5v-220h204v-127h-204v-742h127v-127h-408z" />
<glyph horiz-adv-x="612" d="M154 1269q0 61 34 98t93 37q58 0 93 -37t35 -88q0 -64 -36 -99.5t-97 -35.5q-57 0 -89.5 35.5t-32.5 89.5zM189 0l41 996h104l44 -996h-189z" />
<glyph horiz-adv-x="765" d="M46 306q0 112 46 189t130 144q84 68 126.5 123t42.5 132q0 47 -15 102h112q28 -77 28 -153q0 -87 -40 -152.5t-110 -120.5q-69 -57 -115.5 -110.5t-46.5 -148.5q0 -100 62.5 -151t164.5 -51q82 0 182 32v-134q-100 -33 -207 -33q-156 0 -258 89.5t-102 242.5zM306 1269 q0 63 36 99t97 36q57 0 90 -36t33 -89q0 -62 -34.5 -98.5t-93.5 -36.5q-58 0 -93 37t-35 88z" />
<glyph horiz-adv-x="688" d="M120 687q-3 501 370 922h148q-357 -386 -357 -912q0 -538 357 -926h-148q-373 414 -370 916z" />
<glyph horiz-adv-x="688" d="M52 -229q357 388 357 916q0 536 -357 922h147q373 -421 371 -912q3 -513 -371 -926h-147z" />
<glyph horiz-adv-x="612" d="M154 -229v1838h357v-127h-217v-1584h217v-127h-357z" />
<glyph horiz-adv-x="612" d="M102 -102h217v1584h-217v127h358v-1838h-358v127z" />
<glyph horiz-adv-x="688" d="M64 628v123q86 0 132 45t46 152v404q0 135 68 196t193 61h85v-127h-95q-47 0 -78.5 -24.5t-31.5 -98.5v-403q0 -112 -43.5 -176.5t-135.5 -87.5v-5q92 -25 135.5 -88.5t43.5 -174.5v-404q0 -71 33 -96.5t82 -25.5h90v-127h-90q-127 0 -191.5 61t-64.5 197v397 q0 111 -46 156.5t-132 45.5z" />
<glyph horiz-adv-x="688" d="M102 -102h90q48 0 81 26t33 96v404q0 111 43.5 174.5t135.5 88.5v5q-92 23 -135.5 87.5t-43.5 176.5v403q0 73 -32 98t-77 25h-95v127h85q125 0 192 -61t67 -196v-404q0 -107 46 -152t133 -45v-123q-87 0 -133 -45.5t-46 -156.5v-397q0 -136 -63.5 -197t-190.5 -61h-90 v127z" />
<glyph horiz-adv-x="535" d="M77 639v128h383v-128h-383z" />
<glyph horiz-adv-x="535" d="M77 639v128h383v-128h-383z" />
<glyph horiz-adv-x="1071" d="M77 639v128h919v-128h-919z" />
<glyph horiz-adv-x="2068" d="M77 639v128h1915v-128h-1915z" />
<glyph horiz-adv-x="535" d="M77 652l217 344h166l-218 -344l218 -344h-166z" />
<glyph horiz-adv-x="535" d="M77 308l217 344l-217 344h165l218 -344l-218 -344h-165z" />
<glyph horiz-adv-x="842" d="M77 652l217 344h166l-218 -344l218 -344h-166zM383 652l217 344h166l-218 -344l218 -344h-166z" />
<glyph horiz-adv-x="842" d="M77 308l217 344l-217 344h165l218 -344l-218 -344h-165zM383 308l217 344l-217 344h165l218 -344l-218 -344h-165z" />
</font>
</defs>
</svg>
