<?xml version="1.0" standalone="no"?>
<!DOCTYPE svg PUBLIC "-//W3C//DTD SVG 1.1//EN" "http://www.w3.org/Graphics/SVG/1.1/DTD/svg11.dtd" >
<svg xmlns="http://www.w3.org/2000/svg" xmlns:xlink="http://www.w3.org/1999/xlink" version="1.1">
<metadata></metadata>
<defs>
<font id="inconsolatamedium" horiz-adv-x="1218" >
<font-face units-per-em="2048" ascent="1679" descent="-369" />
<missing-glyph horiz-adv-x="500" />
<glyph horiz-adv-x="0" />
<glyph horiz-adv-x="682" />
<glyph unicode=" " />
<glyph unicode="!" d="M439 116.5q0 59.5 42 102t102 42.5t102.5 -42.5t42.5 -102t-42.5 -101.5t-102.5 -42t-102 42t-42 101.5zM464 1445q0 62 17 104q15 38 44.5 58.5t62.5 20.5q37 0 69.5 -26.5t45.5 -78.5q10 -38 10 -99q0 -53 -10.5 -151t-12.5 -127l-44 -672h-122l-36 672q-4 82 -14 171 t-10 128z" />
<glyph unicode="&#x22;" d="M271 1036l53 165q23 73 23 134q0 26 -7.5 77.5t-7.5 77.5q0 66 32 100t73 34q42 0 75.5 -37.5t33.5 -113.5q0 -48 -17.5 -115.5t-63.5 -192.5l-59 -162zM691 1036l54 165q24 73 24 134q0 26 -8 77.5t-8 77.5q0 66 32 100t72 34q42 0 75.5 -37.5t33.5 -113.5 q0 -32 -7.5 -72t-25 -95.5t-48.5 -140.5l-58 -162z" />
<glyph unicode="#" d="M61 461l10 111l240 4l50 415l-266 -2l9 115l270 4l48 413l148 6l-51 -418l269 4l47 395l152 7l-49 -401l221 3l-13 -117l-223 -3l-50 -410l242 4l-13 -114l-243 -3l-53 -441l-148 -8l54 446l-271 -5l-52 -433l-143 -6l52 437zM455 580l270 4l49 411l-268 -3z" />
<glyph unicode="$" d="M145 230l105 145q11 -6 11 -23q0 -19 8 -27q35 -38 80 -68.5t103 -52.5t120 -29v537q-87 30 -134 52q-59 28 -104 62.5t-71 67t-42.5 69t-22 65.5t-5.5 58q0 133 106 233t273 121v146h157q3 -4 3 -8q0 -8 -8.5 -19t-8.5 -24v-93q109 -10 202 -58.5t160 -128.5l-105 -132 q-11 3 -13 17q0 17 -2 21l-11 15q-84 101 -231 122v-470q131 -45 161 -58q19 -9 30 -14t40 -22t48.5 -32.5t45.5 -43.5t42 -57.5t27.5 -71t11.5 -86.5q0 -68 -25 -132.5t-73.5 -121t-128 -97t-179.5 -53.5v-152h-143v148q-127 8 -236.5 57.5t-190.5 137.5zM355 1108 q0 -112 132 -188q40 -23 85 -41v422q-107 -13 -162 -68t-55 -125zM715 181q113 21 180 92.5t67 157.5q0 17 -3 33.5t-11 37.5t-21 40t-35 39.5t-52 36.5q-42 22 -125 48v-485z" />
<glyph unicode="%" d="M69 1227q0 137 80 228t191 91q56 0 106 -24.5t87 -66.5t59 -102t22 -128q0 -135 -79.5 -226t-191.5 -91q-114 0 -194 92t-80 227zM112 0l841 1518h164l-850 -1518h-155zM217 1235q0 -39 6 -71.5t16.5 -53t23 -35.5t27 -22.5t27 -10.5t25.5 -3q20 0 39 8.5t38 28 t30.5 56.5t11.5 87q0 49 -9.5 86.5t-23 58t-31.5 33.5t-32 16.5t-28 3.5q-20 0 -39.5 -8.5t-38.5 -27.5t-30.5 -57t-11.5 -89zM631 290q0 135 80 226.5t192 91.5q113 0 193 -91t80 -225q0 -135 -80.5 -226t-192.5 -91q-113 0 -192.5 90.5t-79.5 224.5zM776 292q0 -52 12 -91 t31.5 -60.5t41.5 -31.5t45 -10q16 0 32.5 5t33.5 18.5t29.5 34t21 54t8.5 75.5q0 55 -12.5 96t-33 61.5t-41 29.5t-41.5 9t-42 -9.5t-41 -29.5t-32 -59.5t-12 -91.5z" />
<glyph unicode="&#x26;" d="M88 356q0 141 83.5 272t223.5 207q-172 209 -172 379q0 67 26.5 126.5t71.5 102t106.5 67t130.5 24.5q138 0 231.5 -92.5t93.5 -232.5q0 -79 -32.5 -156t-92 -142t-138.5 -108l274 -381q75 86 109 197q4 9 4 19q0 5 -2 14.5t-2 13.5q0 17 11 25l157 -108 q-82 -147 -184 -284l170 -222l-143 -107l-135 216q-75 -95 -184 -153t-227 -58q-108 0 -195 50t-136 137t-49 194zM273 374q0 -106 63.5 -174t158.5 -68q46 0 93 17.5t82 42.5t63.5 49.5t43.5 42.5l14 17l-311 420q-96 -62 -151.5 -156.5t-55.5 -190.5zM392 1210 q0 -55 31 -125.5t115 -175.5q84 47 135 126t51 162q0 84 -50 138t-119 54q-68 0 -115.5 -50t-47.5 -129z" />
<glyph unicode="'" d="M502 1036l54 165q24 73 24 134q0 26 -8 77.5t-8 77.5q0 66 31.5 100t72.5 34q42 0 75.5 -37.5t33.5 -113.5q0 -48 -17.5 -115.5t-63.5 -192.5l-58 -162z" />
<glyph unicode="(" d="M338 630q0 221 75 417.5t214.5 345t326.5 230.5l74 -149q-8 -4 -19 -4h-4.5t-4.5 0.5t-4.5 0.5t-4.5 0.5t-4 0.5h-4q-11 0 -23 -7q-213 -126 -333 -345.5t-120 -481.5q0 -189 62.5 -365.5t182.5 -323t284 -242.5l-79 -127q-191 100 -331 262.5t-214 364.5t-74 423z" />
<glyph unicode=")" d="M176 -277q248 130 393.5 368t145.5 512q0 271 -142 504.5t-384 362.5l47 152q196 -90 344 -245t228 -353t80 -414t-81.5 -418t-232.5 -361.5t-351 -255.5z" />
<glyph unicode="*" d="M101 860l63 157l393 -184l-37 431h198q-2 -14 -8 -32.5t-8 -33.5l-37 -365l387 176l65 -149l-418 -126l307 -367l-134 -106l-262 404l-273 -407l-134 109l318 365z" />
<glyph unicode="+" d="M109 709v149h431v416h154v-416h416v-149h-416v-457h-154v457h-431z" />
<glyph unicode="," d="M402 -337q68 63 123 153q35 57 35 101q0 23 -11 42t-20 26.5t-26 18.5q-14 9 -20 14t-20 19t-20.5 32.5t-6.5 41.5q0 56 40.5 97.5t99.5 41.5q68 0 118.5 -56t50.5 -146q0 -96 -66 -212.5t-193 -246.5z" />
<glyph unicode="-" d="M173 685v162h877v-162h-877z" />
<glyph unicode="." d="M438 113q0 57 42 98t102 41t102 -41t42 -98t-42.5 -98.5t-101.5 -41.5q-29 0 -56 11t-46 30t-30.5 45t-11.5 54z" />
<glyph unicode="/" d="M156 -32l763 1652l145 -74l-765 -1650z" />
<glyph unicode="0" d="M121 747q0 102 14.5 196.5t41 171.5t62.5 143.5t79 116t91.5 84.5t100 52.5t103.5 17.5q71 0 140 -32.5t131 -99t109 -159.5t75 -223.5t28 -281.5t-29 -278.5t-77 -215t-110.5 -149t-129.5 -89.5t-135 -28q-72 0 -143 32.5t-134.5 99t-111.5 157.5t-76.5 216.5 t-28.5 268.5zM281 777q0 -153 34 -287l535 692q-48 97 -111 147t-129 50q-45 0 -91.5 -25t-89 -76t-75.5 -121t-53 -169t-20 -211zM371 336q49 -99 115 -153t135 -54q42 0 84.5 19.5t85 64.5t74.5 110.5t52.5 167t20.5 223.5q0 174 -31 305z" />
<glyph unicode="1" d="M223 1316l389 205h114v-1389h274v-134h-718v134h282v1176l-301 -86z" />
<glyph unicode="2" d="M178 0v107q90 178 194.5 307.5t247.5 257.5q36 32 50.5 45.5t49.5 47.5t52 56t42.5 58t38.5 66t22.5 68.5t9.5 76.5q0 122 -84.5 205t-206.5 83q-38 0 -74.5 -9t-64 -23.5t-52 -33t-41 -36.5t-28.5 -36q-5 -8 -7.5 -18t-5 -19.5t-8.5 -18.5l-124 99q67 114 181 180 t244 66q122 0 223 -57t159 -155t58 -215q0 -53 -11 -103.5t-33.5 -95.5t-46 -82.5t-57.5 -76t-58.5 -63.5t-59.5 -57q-7 -7 -49.5 -46t-60 -56t-58 -57t-66 -70t-60 -72t-64 -85.5t-55.5 -88.5h637q13 0 26 10q16 16 33 11v-170h-893z" />
<glyph unicode="3" d="M168 148l128 153q11 -11 17 -34t15 -35q10 -10 23.5 -22t44.5 -33t75.5 -34.5t93.5 -13.5q87 0 157.5 42.5t109.5 113t39 153.5q0 133 -99.5 211t-257.5 78q-34 0 -76 -6v137q155 0 239 38q76 34 119 100.5t43 138.5q0 99 -74.5 168t-189.5 69q-72 0 -140.5 -30 t-121.5 -87l-94 106q71 78 166 120t198 42q88 0 166.5 -31t133 -83t86.5 -122.5t32 -147.5q0 -111 -62.5 -201t-164.5 -129q118 -43 189.5 -149.5t71.5 -241.5q0 -71 -20.5 -137t-60.5 -121.5t-96 -97t-130.5 -65t-159.5 -23.5q-77 0 -149 19.5t-136.5 59t-114.5 95.5z" />
<glyph unicode="4" d="M118 420v127l646 974h143v-951h195v-151h-195v-419h-178v420h-611zM286 570h446v680z" />
<glyph unicode="5" d="M156 206l151 114q12 -8 13.5 -30t4.5 -28q5 -9 25 -29t54.5 -46.5t88.5 -46t110 -19.5q62 0 117 24.5t97.5 69t67.5 114t25 154.5q0 88 -25.5 158.5t-69.5 114.5t-99 67t-116 23q-79 0 -154.5 -37.5t-130.5 -106.5l-109 44l52 772h770v-153h-626l-24 -438q119 60 248 60 q96 0 179.5 -34.5t146 -97.5t98 -160t35.5 -215q0 -97 -24.5 -179.5t-68.5 -142t-104 -102t-131.5 -63t-150.5 -20.5q-137 0 -256 61t-194 172z" />
<glyph unicode="6" d="M164 691q0 286 64 468q35 96 88 170t116 118t130.5 66t137.5 22q92 0 179 -36t154 -102l-118 -131q-12 9 -21.5 29t-15.5 26q-9 9 -27.5 21t-61.5 27t-88 15q-27 0 -54.5 -5t-64.5 -20.5t-69.5 -41t-65.5 -71t-57 -105t-40 -148t-18 -196.5q25 42 60 76.5t76.5 58 t89 36.5t96.5 13q82 0 156.5 -34t132.5 -96t93 -157.5t35 -210.5q0 -114 -35 -210.5t-95 -161t-138.5 -100.5t-164.5 -36q-105 0 -200 51.5t-160 149.5q-66 101 -90 229t-24 286zM340 627q-7 -104 13.5 -197.5t61.5 -159.5t101 -105t129 -39q50 0 95 21.5t82.5 62.5 t59.5 109.5t22 154.5q0 75 -16 137t-42 102t-61.5 67t-72 39t-74.5 12q-85 0 -165.5 -55t-132.5 -149z" />
<glyph unicode="7" d="M192 1357v161h860v-94q-153 -350 -288 -714q-141 -380 -243 -710h-191q142 428 290 812q82 214 221 545h-649z" />
<glyph unicode="8" d="M146 382q0 130 84 246t220 180q-104 54 -167.5 149.5t-63.5 206.5q0 101 53.5 187t148.5 136t209 50q109 0 200 -47.5t143 -130t52 -181.5q0 -110 -66 -209t-177 -157q86 -40 152 -104t104 -146.5t38 -169.5q0 -86 -36 -163t-98 -132.5t-149 -88.5t-185 -33 q-96 0 -182 32t-147 86.5t-97 129.5t-36 159zM321 405q0 -115 86 -195.5t209 -80.5q121 0 204 77.5t83 187.5q0 111 -88.5 204t-236.5 140q-72 -30 -130 -80.5t-92.5 -116.5t-34.5 -136zM383 1178q0 -41 15 -80t38.5 -68.5t51.5 -56t56.5 -44.5t52 -31t38.5 -20l15 -6 q59 32 106 78t74.5 102.5t27.5 113.5q0 96 -70 162.5t-172 66.5q-98 0 -165.5 -63t-67.5 -154z" />
<glyph unicode="9" d="M167 1031q0 86 22 164.5t62.5 139t94 105.5t119.5 69t136 24q61 0 120.5 -19.5t115 -57.5t101.5 -103t75 -149q52 -152 52 -426q0 -277 -64 -450q-34 -88 -86 -157t-115 -111t-131 -63.5t-139 -21.5q-95 0 -182 35.5t-154 102.5l118 131q9 -6 14.5 -14t7.5 -15.5t6 -15.5 t11 -13q3 -3 8.5 -6.5t24.5 -13t39 -17t50.5 -13.5t60.5 -6q34 0 67 7t67 22.5t64 39.5t56.5 59.5t45.5 80.5q55 134 62 376q-35 -51 -84.5 -88t-108 -56.5t-120.5 -19.5q-82 0 -157.5 34.5t-133 95.5t-91.5 152t-34 198zM332 1038q0 -82 22.5 -148t60.5 -106.5t85.5 -62 t99.5 -21.5q54 0 108 22.5t100.5 64.5t79.5 98q6 75 -0.5 143.5t-24.5 122.5t-45.5 97.5t-62 72.5t-75 45t-83.5 16q-52 0 -99.5 -23t-84.5 -65.5t-59 -109t-22 -146.5z" />
<glyph unicode=":" d="M438 113q0 57 42 98t102 41t102 -41t42 -98t-42.5 -98.5t-101.5 -41.5q-29 0 -56 11t-46 30t-30.5 45t-11.5 54zM438 891q0 58 42 99t101.5 41t102 -41.5t42.5 -99t-42 -98.5t-102 -41q-39 0 -72.5 19t-52.5 51t-19 70z" />
<glyph unicode=";" d="M402 -337q68 63 123 153q35 57 35 101q0 23 -11 42t-20 26.5t-26 18.5q-14 9 -20 14t-20 19t-20.5 32.5t-6.5 41.5q0 56 40.5 97.5t99.5 41.5q68 0 118.5 -56t50.5 -146q0 -96 -66 -212.5t-193 -246.5zM438 891q0 58 42 99t101.5 41t102 -41.5t42.5 -99t-42 -98.5 t-102 -41q-39 0 -72.5 19t-52.5 51t-19 70z" />
<glyph unicode="&#x3c;" d="M84 721l1039 -606v184l-852 479l846 431v173l-1033 -543v-118z" />
<glyph unicode="=" d="M109 414v150h1001v-150h-1001zM109 919v150h1001v-150h-1001z" />
<glyph unicode="&#x3e;" d="M96 115v184l852 479l-844 431v173l1031 -543v-118z" />
<glyph unicode="?" d="M156 1367q52 80 128 138t163.5 87.5t178.5 29.5q100 0 183 -35.5t137 -95t83 -137t29 -163.5q0 -54 -13.5 -103.5t-30.5 -83t-47.5 -69t-50.5 -53.5t-54.5 -46t-45.5 -38q-36 -32 -58.5 -62.5t-32 -63t-12.5 -58t-3 -63.5v-101h-159v101q0 48 3 80t13.5 72t34.5 79t63 82 q11 12 39.5 41.5t46 48t41.5 50.5t38 59.5t24.5 65t10.5 75.5q0 109 -73.5 184t-182.5 75q-46 0 -92.5 -15t-89.5 -42.5t-81 -66.5t-66 -87zM491 108q0 38 19.5 70.5t53.5 51.5t73 19t72 -19t52.5 -51.5t19.5 -70.5q0 -57 -42.5 -98.5t-101.5 -41.5q-60 0 -103 41t-43 99z " />
<glyph unicode="@" d="M76 765q0 90 11.5 172t32 149.5t49.5 126t63.5 104.5t75 83.5t83.5 63.5t89 44t91.5 26t90.5 8q134 0 246.5 -71t170.5 -199q25 -54 38 -120t15 -110.5t2 -120.5v-494h-147v93q-46 -54 -110 -84t-134 -30q-132 0 -224.5 93t-92.5 225q0 49 15 97t44 90t73.5 77t99.5 57 q45 18 100 26.5t89.5 10t97.5 1.5h36q0 89 -43.5 164.5t-118.5 119.5t-165 44q-64 0 -126 -23.5t-118.5 -75.5t-99.5 -125.5t-68 -180.5t-25 -234q0 -115 21.5 -213t60 -169t88 -125.5t108 -87.5t118 -49t120.5 -16q144 0 262 80l65 -118q-158 -101 -341 -101 q-67 0 -131.5 14t-128.5 44.5t-120.5 75t-105 109.5t-83 144.5t-54.5 183t-20 221.5zM578 731q0 -52 26 -96t70 -69.5t97 -25.5q55 0 103.5 28.5t76.5 82.5q11 21 18 49t10.5 45.5t5 58.5t2 51t0.5 60v47h-41q-34 0 -54.5 -1t-54 -4t-57.5 -8.5t-53 -16.5t-52 -28 q-48 -32 -72.5 -78.5t-24.5 -94.5z" />
<glyph unicode="A" d="M36 -2l536 1548h19l587 -1546h-177l-168 444h-482l-148 -446h-167zM384 576h411l-214 578z" />
<glyph unicode="B" d="M118 0v1518h431q59 0 96 -1.5t90.5 -11.5t97.5 -29q70 -31 120 -82.5t75 -114.5t25 -132q0 -109 -61 -200t-164 -133q128 -43 206.5 -152t78.5 -242q0 -121 -67 -222.5t-187 -152.5q-49 -20 -107 -30.5t-98 -12.5t-107 -2h-429zM286 149h290q41 0 67 1t62.5 8.5 t66.5 21.5q77 35 119.5 105t42.5 153q0 55 -19 106.5t-58.5 95t-94.5 69.5q-36 17 -78 25.5t-71.5 10t-78.5 1.5h-248v-597zM286 890h238q34 0 53 0.5t49.5 3t56.5 9t51 17.5q70 30 109 87.5t39 124.5t-40.5 125.5t-114.5 88.5q-31 13 -70 19t-63.5 7t-67.5 1h-240v-483z " />
<glyph unicode="C" d="M99 751q0 126 19.5 234t53 186.5t80 141.5t98 103t109 66.5t111 38t106.5 11.5q152 0 278.5 -82t187.5 -220l-161 -79q-12 9 -12 24q0 3 0.5 8.5t0.5 8.5q0 12 -8 27q-48 80 -125.5 128t-165.5 48q-53 0 -104 -19t-96 -54.5t-83 -90.5t-65 -123.5t-42.5 -156 t-15.5 -186.5q0 -149 34.5 -272.5t92.5 -203.5t133.5 -124t159.5 -44q90 0 174 50t136 136l126 -82q-47 -77 -117 -133.5t-154 -86.5t-174 -30q-43 0 -86 7t-88 23.5t-87 40.5t-82.5 59.5t-75.5 80t-64 103.5t-50 127t-32.5 153.5t-11.5 181.5z" />
<glyph unicode="D" d="M131 -2v1520h355q115 0 195.5 -15.5t157.5 -64.5q141 -93 211.5 -270.5t70.5 -405.5q0 -252 -87 -436.5t-249 -267.5q-73 -37 -147.5 -48.5t-180.5 -11.5h-326zM293 132h154q58 0 97 3.5t91 19.5t97 46q99 67 158.5 200t59.5 338q0 116 -17 214.5t-60.5 189.5t-110.5 147 q-64 52 -131 67.5t-156 15.5h-182v-1241z" />
<glyph unicode="E" d="M143 0v1521h932v-151h-770v-499h635v-156h-635v-564h764v-151h-926z" />
<glyph unicode="F" d="M189 0v1521h875v-150h-702v-477h567v-148h-567v-746h-173z" />
<glyph unicode="G" d="M88 741q0 98 11 184.5t31 154.5t46.5 126t60 101.5t69.5 79t76 59.5t78 41.5t77.5 27t73 14t65.5 4.5q140 0 258 -68t183 -186l-120 -122q-17 11 -33 47q-36 80 -113.5 130t-175.5 50q-101 0 -193 -55.5t-149 -162.5q-76 -143 -76 -389q0 -70 5 -130.5t19 -132.5 t44.5 -137.5t75.5 -117.5q59 -67 135 -100t154 -33q142 0 273 93v362h-275v147h433v-594q-105 -77 -221.5 -117.5t-224.5 -40.5q-59 0 -116.5 12t-116 39.5t-110 68.5t-97 103t-78 139t-51 180.5t-18.5 222.5z" />
<glyph unicode="H" d="M132 0v1518h189l4 -10q0 -9 -8 -21.5t-8 -26.5v-591h595v649h186q2 -3 2 -10q0 -9 -8.5 -20t-8.5 -24v-1466h-173v726h-593v-724h-177z" />
<glyph unicode="I" d="M198 -2v142h298v1236h-282v142h753v-142h-301v-1237h316v-141h-784z" />
<glyph unicode="J" d="M120 140l113 140q8 -7 9.5 -22.5t6.5 -21.5q2 -4 13 -15t33 -28t48 -32t62 -26t72 -11q55 0 102.5 25.5t77.5 70.5q19 29 31 61.5t16.5 72.5t5.5 66v30v41v6v5v5v869h-291v142h694v-142h-234v-867q0 -53 -1 -85.5t-6 -79.5t-18 -88.5t-34 -80.5q-52 -97 -144 -149.5 t-202 -52.5q-101 0 -193.5 43.5t-160.5 123.5z" />
<glyph unicode="K" d="M104 0v1521h203q2 -16 -14 -36q-9 -11 -9 -27v-639l635 713q51 -14 126 -14h63l-574 -655l614 -865q-53 0 -107 -2.5t-82 -4.5l-27 -2l-529 770l-119 -131v-628h-180z" />
<glyph unicode="L" d="M162 -2v1520h197q3 -16 -8 -38q-12 -21 -12 -44v-1291h732v-147h-909z" />
<glyph unicode="M" d="M99 -2v1520h134l377 -742l382 745h129v-1523h-162v1148l-328 -612h-66l-307 604v-1140h-159z" />
<glyph unicode="N" d="M123 0v1518h165l638 -1124v1127h181q2 -13 -7 -31q-10 -17 -10 -35v-1457h-136l-668 1197v-1195h-163z" />
<glyph unicode="O" d="M71 762q0 109 14.5 204.5t40 168.5t59 134t75 104t85.5 75t92 50.5t92.5 27.5t88.5 9q130 0 248 -72.5t190 -212.5q29 -58 49 -124t28.5 -133.5t11.5 -120.5t3 -116q0 -304 -90 -486q-48 -98 -121.5 -165t-153 -97.5t-164.5 -30.5q-52 0 -104 12t-106.5 40t-103 69 t-91.5 104.5t-74.5 142.5t-50 186t-18.5 231zM239 784q0 -139 23.5 -251.5t61 -183.5t88.5 -119t102.5 -67.5t105.5 -19.5q84 0 162.5 50.5t127.5 155.5q68 143 68 385q0 253 -59 401q-26 64 -62.5 112t-78 75t-83.5 40.5t-85 13.5q-50 0 -99.5 -17.5t-99.5 -61t-87.5 -109 t-61 -170t-23.5 -234.5z" />
<glyph unicode="P" d="M143 0v1518h463q60 0 98.5 -2t91 -14t96.5 -35q105 -53 161.5 -155t56.5 -221q0 -118 -55.5 -218.5t-158.5 -152.5q-62 -31 -125 -40t-152 -9h-299v-671h-177zM318 820h307q37 0 60.5 1.5t56 8.5t59.5 21q64 32 100 95t36 137q0 77 -37.5 142.5t-106.5 100.5 q-30 14 -64 22t-59.5 9.5t-63.5 1.5h-286z" />
<glyph unicode="Q" d="M71 762q0 124 18.5 230.5t50.5 184.5t75.5 140t92 102.5t103 67t105.5 37.5t102 11q131 0 249.5 -73.5t189.5 -215.5q54 -109 72.5 -232.5t18.5 -260.5q0 -303 -90 -484q-60 -121 -154 -193t-203 -91q1 -29 4.5 -52.5t15.5 -49t30.5 -43t51.5 -29t76 -11.5q30 0 97 6 t101 7l-5 -166q-30 0 -94 -1h-39q-34 0 -51 1q-24 1 -66 4t-70.5 11t-55.5 21q-80 40 -114 115q-31 70 -31 172v12q-70 11 -135 42t-129 92.5t-111 147t-76 214t-29 284.5zM238 787q0 -140 23 -253t60.5 -186t88 -122.5t103 -70.5t108.5 -21q30 0 60.5 6.5t67 24.5t69 46 t63.5 75t53.5 107.5t36 148t13.5 191.5q0 251 -62 405q-26 64 -63.5 112.5t-79.5 75.5t-84 40t-85 13q-52 0 -102 -18t-100 -62.5t-87 -110t-60 -169.5t-23 -232z" />
<glyph unicode="R" d="M137 0v1518h447q61 0 99.5 -2t92 -14t99.5 -35q102 -52 158.5 -150.5t56.5 -214.5q0 -151 -85.5 -269t-223.5 -156l351 -677h-192l-337 671h-294v-671h-172zM309 820h294q38 0 61 1.5t55.5 8.5t59.5 21q65 32 100.5 95t35.5 137q0 77 -37.5 142.5t-106.5 100.5 q-42 21 -85 27t-102 6h-275v-539z" />
<glyph unicode="S" d="M126 170l101 175q11 -5 11 -24q0 -16 7 -26q56 -71 151 -118.5t212 -47.5q79 0 144 24t105 63.5t61.5 88t21.5 98.5q0 131 -127 210q-37 23 -102.5 51t-125.5 51t-129.5 57t-117.5 69q-60 45 -97.5 99.5t-51 101.5t-13.5 96q0 62 21.5 120t63 106.5t97 85t128.5 57 t153 20.5q83 0 160 -21.5t144 -64.5t117 -103l-107 -146q-13 4 -13 21q0 14 -6 23q-22 33 -53 60t-70 47.5t-86.5 31.5t-99.5 11q-125 0 -199.5 -65t-74.5 -157q0 -20 3.5 -40t14 -45t27.5 -48t45 -47.5t65 -45.5q43 -26 115 -56t131 -52.5t126.5 -60t112.5 -80.5 q118 -110 118 -276q0 -50 -12 -99.5t-36.5 -99t-66 -92.5t-95.5 -76t-130 -52t-166 -19q-142 0 -265.5 49.5t-211.5 145.5z" />
<glyph unicode="T" d="M76 1367v154h1051v-154h-448v-1369h-172v1369h-431z" />
<glyph unicode="U" d="M123 524v994h190q2 -7 2 -11q0 -5 -1.5 -10.5t-3.5 -8.5t-5.5 -8t-4.5 -7q-10 -13 -10 -32v-920q0 -70 7 -121.5t30 -101.5q40 -86 118.5 -133t170.5 -47q93 0 171 46t119 131q24 52 31.5 106t7.5 127v990h162v-986q0 -104 -11 -177.5t-50 -145.5q-63 -115 -179.5 -175.5 t-253.5 -60.5q-139 0 -254.5 60.5t-177.5 174.5q-38 71 -48 142t-10 174z" />
<glyph unicode="V" d="M61 1521h178l389 -1168l369 1165h168l-509 -1529h-78z" />
<glyph unicode="W" d="M42 1518h158l164 -1025l244 914h52l247 -919l138 1030h144l-241 -1529h-66l-262 1003l-264 -1003h-70z" />
<glyph unicode="X" d="M99 0l415 775l-407 746h183l320 -577l313 577h171l-385 -743l431 -778h-192l-338 602l-324 -602h-187z" />
<glyph unicode="Y" d="M69 1521h194l372 -739l337 736h181l-432 -918v-600h-184v600z" />
<glyph unicode="Z" d="M123 -2v120l765 1247h-737v153h939l-2 -120l-751 -1249h716q17 0 37.5 9t36.5 6v-166h-1004z" />
<glyph unicode="[" d="M320 -217v1850h696v-145h-541v-1565h542v-140h-697z" />
<glyph unicode="\" d="M156 1546l145 74l763 -1652l-143 -72z" />
<glyph unicode="]" d="M202 -77h543v1565h-542v145h697v-1850h-698v140z" />
<glyph unicode="^" d="M227 894l373 624h52l330 -622l-130 -61l-236 426l-267 -426z" />
<glyph unicode="_" d="M84 -46h1051v-149h-1051v149z" />
<glyph unicode="`" d="M339 1574l125 61l66 -159q29 -73 69 -119q17 -21 55 -54.5t55 -54.5q29 -34 36.5 -69.5t-1.5 -60t-29 -40.5q-20 -17 -47 -21.5t-63.5 11.5t-70.5 55q-21 25 -40.5 61t-41.5 89t-53 140z" />
<glyph unicode="a" d="M119 288q0 99 65 185.5t191 132.5q50 18 106 29.5t131.5 15t112.5 4.5t131 1h35v40q0 44 -0.5 65.5t-9 60t-25.5 66.5q-28 45 -84 76t-146 31q-87 0 -171 -29t-148 -95l-86 111q76 78 178.5 117t218.5 39q131 0 232.5 -47.5t155.5 -137.5q24 -40 36.5 -87.5t15 -83.5 t2.5 -92v-690h-166v123q-90 -74 -193 -112t-207 -38q-85 0 -156.5 26t-118.5 70t-73.5 101t-26.5 118zM296 300q0 -79 63.5 -136t170.5 -57q51 0 100 14t86.5 36t62.5 41.5t43 39.5q27 28 43.5 56.5t23 58t8 48t1.5 46.5v74h-40q-21 0 -71 0.5t-80.5 0.5t-73 -1.5 t-77.5 -5.5t-63 -10q-98 -24 -147.5 -81t-49.5 -124z" />
<glyph unicode="b" d="M145 0v1622h206q1 -2 0.5 -5t-0.5 -5t-1.5 -4t-2.5 -3.5t-2.5 -3.5t-2.5 -3l-2 -2l-2 -1q-9 -8 -11.5 -13t-2.5 -15v-625q52 92 144 145t198 53q67 0 131 -21.5t122 -67.5t101.5 -112t69 -161t25.5 -208q0 -117 -26.5 -216.5t-71.5 -168.5t-105 -117.5t-126.5 -71.5 t-135.5 -23q-100 0 -187.5 46.5t-142.5 128.5l-62 -148h-113zM324 593q0 -162 7 -221q8 -60 32 -105.5t53.5 -70.5t66.5 -40.5t65 -20t55 -4.5q26 0 53 4t60 16t62.5 30.5t58 50t49.5 72t33.5 100t12.5 129.5q0 81 -13 148.5t-33.5 114t-49.5 82t-58 56t-62 33.5t-59 17.5 t-51 4.5q-55 0 -105 -19.5t-88.5 -56.5t-59.5 -86q-12 -29 -18.5 -66t-8.5 -75t-2 -93z" />
<glyph unicode="c" d="M137 557q0 124 41.5 231t115 183.5t177.5 120t225 43.5q133 0 241.5 -54t175.5 -152l-124 -145q-11 8 -11.5 29t-4.5 28q-2 7 -13 21t-36 36t-56.5 41t-80 33.5t-102.5 14.5q-76 0 -143.5 -29.5t-117 -81.5t-78 -130t-28.5 -171q0 -128 50 -229.5t137 -157.5t195 -56 q84 0 161.5 35t133.5 100l101 -118q-79 -85 -186 -130.5t-225 -45.5q-116 0 -218 44t-174.5 121.5t-114 186t-41.5 232.5z" />
<glyph unicode="d" d="M109 566q0 123 29 223t75.5 164.5t108.5 108t126 62t130 18.5q113 0 199 -52t127 -139v671h187q1 -12 -13 -37q-9 -15 -9 -33l2 -1448q0 -65 10 -104h-174q-11 35 -11 82v96q-53 -94 -145 -148.5t-199 -54.5q-66 0 -128.5 21.5t-120 69t-100.5 115t-68.5 167t-25.5 218.5 zM280 595q0 -88 14 -161t39 -122.5t55.5 -86t67 -57t70 -29.5t67.5 -9q58 0 112.5 24.5t98 73.5t64.5 114q22 70 22 202q0 168 -19 238q-11 40 -29.5 73.5t-42.5 56.5t-50.5 40.5t-55.5 27.5t-55.5 15t-52.5 5q-41 0 -81 -11.5t-81.5 -40.5t-72.5 -73.5t-50.5 -116.5 t-19.5 -163z" />
<glyph unicode="e" d="M119 544q0 119 28 218t76 168t113 117t139.5 70.5t155.5 22.5q47 0 92.5 -8.5t91 -27t86 -50t74.5 -74t59 -103t37 -132.5q12 -70 11 -138q0 -38 -3 -75h-790q4 -96 30.5 -171t65 -120t89 -74t97.5 -39.5t95 -10.5q84 0 159 32t129 93l98 -94q-70 -85 -173.5 -129 t-225.5 -44q-114 0 -211 37t-169 107.5t-113 179.5t-41 245zM294 666h613q2 20 2 40q-1 68 -27 128q-34 78 -105 125t-159 47q-39 0 -77 -10t-79 -34.5t-74 -61.5t-58.5 -97.5t-35.5 -136.5z" />
<glyph unicode="f" d="M154 909v138h241v110q0 90 11.5 155.5t50.5 128.5q38 62 98 106t131.5 66t150.5 22q52 0 101 -10t92 -29.5t80.5 -48t67.5 -64.5l-80 -162q-6 -1 -12.5 4t-7.5 16v7.5t-0.5 7t-2 6t-4.5 8.5q-36 56 -100.5 91.5t-142.5 35.5q-71 0 -130.5 -31.5t-92.5 -91.5 q-20 -34 -29.5 -80.5t-10.5 -74.5t-1 -85v-87h363v-138h-363v-909h-169v909h-241z" />
<glyph unicode="g" d="M94 -156q0 131 181 246q-48 26 -68.5 66.5t-20.5 82.5q0 110 126 216q-77 50 -121.5 130t-44.5 171q0 106 58 197.5t154 144t205 52.5q38 0 74.5 -7.5t69.5 -20.5t63.5 -33t56.5 -45q64 54 144 80q63 20 128 20q18 0 36 -2l22 -142q-29 4 -65 4q-106 0 -194 -53 q56 -85 56 -189q0 -102 -53.5 -189.5t-146.5 -139.5t-201 -52q-73 0 -141 25q-79 -70 -79 -125q0 -17 8 -31.5t23 -25t36 -16.5q57 -14 159 -14q23 0 93 2q52 1 84 1q10 0 19 -1q34 0 87.5 -8t94.5 -25q84 -34 128 -99.5t44 -142.5q0 -46 -16.5 -92t-55.5 -91.5t-96 -79.5 t-146 -55.5t-198 -21.5q-112 0 -201 16t-144.5 41.5t-92 60.5t-51 70.5t-14.5 74.5zM255 -114q0 -23 7.5 -45t33.5 -48t68 -43q94 -37 230 -37q159 0 250 49q53 29 78.5 68.5t25.5 79.5q0 19 -6.5 38.5t-20.5 38.5t-41.5 33t-64.5 19q-37 6 -125 6t-110 1q-135 6 -187 14 q-138 -77 -138 -174zM307 766q0 -101 72 -173t173.5 -72t173 72t71.5 173t-71.5 172.5t-173 71.5t-173.5 -71.5t-72 -172.5z" />
<glyph unicode="h" d="M170 0v1620h202q2 -3 2 -8q0 -10 -16 -26q-9 -9 -9 -24v-645q42 64 98 113t127.5 79.5t144.5 30.5q96 0 175.5 -52t120.5 -144q18 -42 27.5 -93t11.5 -85.5t2 -90.5v-675h-173v671q0 32 -0.5 50t-3.5 49t-9 53t-18 48t-30 46q-59 71 -151 71q-42 0 -84.5 -16t-77.5 -41 t-60.5 -49.5t-43.5 -48.5q-33 -44 -44.5 -87.5t-11.5 -104.5v-641h-179z" />
<glyph unicode="i" d="M244 0v140h284v832h-270v143h446v-975h261v-140h-721zM494 1473q0 52 36.5 88.5t89.5 36.5t89.5 -36.5t36.5 -88.5t-36.5 -88.5t-89.5 -36.5t-89.5 36.5t-36.5 88.5z" />
<glyph unicode="j" d="M118 -269l113 151q9 -7 13.5 -23.5t7.5 -21.5q7 -10 20.5 -24t40 -36t68 -36.5t88.5 -14.5q72 0 132.5 37t91.5 104q12 28 19 60.5t8 56t1 60.5v926h-414v145h591v-1038q0 -59 -2 -96.5t-13.5 -88.5t-34.5 -94q-54 -108 -160 -165.5t-230 -57.5q-103 0 -191.5 41 t-148.5 115zM685 1473q0 52 37 88.5t89.5 36.5t89.5 -36.5t37 -88.5t-37 -88.5t-89.5 -36.5t-89.5 36.5t-37 88.5z" />
<glyph unicode="k" d="M162 -2v1622h200q2 -15 -15 -35q-8 -11 -8 -28v-956l557 518q48 -12 131 -12h63l-470 -442l547 -667h-16q-52 0 -104.5 -2.5t-79.5 -4.5l-27 -2l-454 568l-147 -137v-422h-177z" />
<glyph unicode="l" d="M192 0v140h329v1338h-315v142h493v-1480h328v-140h-835z" />
<glyph unicode="m" d="M93 0v1113h162l-3 -110q40 61 101 99t128 38q74 0 128 -46t68 -116q32 74 100.5 118t149.5 44q33 0 63.5 -8.5t60 -28.5t50.5 -51q21 -33 31.5 -78t12 -76.5t1.5 -88.5v-18v-793h-165v791v30.5v36t-1.5 31t-5 34.5t-9.5 29q-13 30 -36.5 46t-51.5 16q-72 0 -130 -100 q-28 -48 -37 -86.5t-9 -88.5v-737h-164v774v22.5v26t-1 23.5t-2 26.5t-3.5 23t-5.5 24.5q-9 29 -26.5 49t-36.5 28.5t-40 8.5q-78 0 -134 -104q-22 -40 -29 -76.5t-7 -82.5v-743h-159z" />
<glyph unicode="n" d="M167 0v1113h178v-196q31 48 71.5 88t87.5 70.5t101.5 47.5t109.5 17q97 0 176 -52t121 -144q18 -42 27.5 -93t11 -85.5t1.5 -90.5v-675h-173v671v50t-3.5 49t-9.5 53t-18 48t-29 46q-60 71 -151 71q-42 0 -85 -16t-78 -40.5t-61 -49.5t-44 -49q-33 -44 -44 -87t-11 -105 v-641h-178z" />
<glyph unicode="o" d="M99 549q0 126 42.5 236.5t114.5 187t168.5 121t201.5 44.5q54 0 107 -12.5t102 -37t92 -60t79 -84.5t61.5 -107.5t39.5 -131t14 -153.5q0 -108 -26.5 -202t-73.5 -162.5t-110 -118t-137.5 -74.5t-153.5 -25q-104 0 -199.5 43.5t-166.5 118.5t-113 183.5t-42 233.5z M284 563q0 -100 28 -184.5t74.5 -140t107 -86.5t127.5 -31q62 0 119.5 27.5t103.5 78.5t73.5 133.5t27.5 183.5q0 110 -29 197.5t-77 140t-105.5 80t-119.5 27.5q-51 0 -99.5 -18t-90 -54t-73 -86t-49.5 -119.5t-18 -148.5z" />
<glyph unicode="p" d="M145 1113h179v-171q28 46 67 82.5t84 61.5t96.5 38.5t104.5 13.5q67 0 131 -21t122.5 -67t102 -111t69.5 -160.5t26 -209.5q0 -119 -27 -219t-72 -169t-105 -117.5t-126.5 -71t-136.5 -22.5q-101 0 -190 47t-144 131v-554h-178zM324 517.5q0 -28.5 1.5 -71.5t5 -66.5 t9.5 -50.5t16 -49q16 -37 43 -66.5t61 -48.5t72 -29t78 -10q26 0 52.5 4t60 15.5t63.5 30t60 50.5t51 73t34.5 101.5t13.5 132.5q0 84 -13.5 153t-35.5 115t-52 81t-60 55t-64 32t-59 16t-49 4q-56 0 -107 -19.5t-90.5 -56.5t-61.5 -86q-17 -41 -23 -91.5t-6 -127.5v-90.5z " />
<glyph unicode="q" d="M104 568q0 92 18.5 173.5t52 143.5t79 111.5t99.5 81t113 48t121 16.5q183 0 286 -131q16 -21 37 -60v162h167v-1519h-175v584q-53 -93 -144.5 -148t-197.5 -55q-92 0 -175 42.5t-145.5 118t-99 188t-36.5 244.5zM280 593q0 -114 27.5 -204.5t73.5 -146t102 -84 t117 -28.5q90 0 166 57t107 155q23 70 23 202q0 42 -0.5 73.5t-2.5 60t-5 50.5t-7.5 42.5t-10.5 38.5q-23 65 -71.5 109.5t-100.5 63t-105 18.5q-47 0 -90.5 -14.5t-84.5 -46t-71.5 -78t-48.5 -115.5t-18 -153z" />
<glyph unicode="r" d="M242 -2v1115h183l-6 -215q52 116 162 179t238 63q90 0 166.5 -33t131.5 -90l-82 -167q-6 6 -12 13.5t-10 13.5t-9.5 14.5t-9.5 14.5q-27 35 -73.5 59t-111.5 24q-34 0 -68.5 -7.5t-77.5 -26t-86.5 -58.5t-79.5 -96q-35 -56 -53.5 -108t-21.5 -81t-3 -72v-542h-177z" />
<glyph unicode="s" d="M139 151l100 175q12 -6 12 -23v-4.5v-5.5t0.5 -5t2 -5.5t3.5 -5.5q18 -20 44.5 -42t70.5 -49.5t105.5 -45t128.5 -17.5q121 0 203.5 49t82.5 127q0 89 -111 141q-47 22 -158 57t-141 46q-22 7 -35 12t-45 20t-53 29t-50 38t-46 49.5t-29.5 62t-12.5 75.5q0 63 30.5 119.5 t85.5 99t135.5 67.5t175.5 25q123 0 231 -45t184 -130l-102 -153q-13 3 -13 20v5.5v6t-1.5 4.5t-3.5 6q-19 24 -45.5 48t-65 49.5t-91 41t-107.5 15.5q-97 0 -166 -43.5t-69 -108.5q0 -82 111 -136q41 -20 118.5 -42.5t157 -48t133.5 -55.5q163 -91 163 -252 q0 -50 -18.5 -100t-57 -94.5t-92.5 -78.5t-130 -54t-165 -20q-131 0 -253 44t-217 132z" />
<glyph unicode="t" d="M170 970l3 143h265l20 298l192 31q3 -15 1.5 -21.5t-7.5 -20.5t-7 -23q-6 -28 -13 -93.5t-11 -116.5l-5 -52h364v-145h-366q-22 -218 -22 -436q0 -157 7 -214q13 -93 65.5 -136.5t122.5 -43.5q114 0 249 102l55 -138q-76 -56 -169 -90.5t-187 -34.5q-170 0 -253 119 q-23 32 -37.5 69t-20 80.5t-7 73.5t-1.5 79q0 292 23 570h-261z" />
<glyph unicode="u" d="M151 493l3 620h176v-620q0 -52 1 -81.5t10.5 -76t27.5 -83.5q32 -65 89.5 -101t123.5 -36q78 0 147.5 47t109.5 119q13 25 22 50.5t13.5 53.5t6.5 54.5t2 61.5v612h177v-1012q0 -64 12 -101h-184q-5 31 -5 66v20l2 84q-54 -92 -146.5 -144.5t-197.5 -52.5 q-111 0 -204.5 59.5t-141.5 167.5q-20 45 -30.5 101t-12 91.5t-1.5 100.5z" />
<glyph unicode="v" d="M96 1115h211q2 -9 0 -17.5t-5 -16.5t-3 -14t4 -15l322 -814l178 414q115 267 151 463h159q-44 -199 -167 -488l-271 -635h-137z" />
<glyph unicode="w" d="M38 1115h179q5 -17 -4 -49q-7 -22 -2 -44l161 -803l192 790h107l236 -788q69 456 87 621q15 136 16 231q0 21 -1 40h162q-71 -556 -184 -1115h-165l-206 721l-196 -721h-157z" />
<glyph unicode="x" d="M115 0l392 566l-384 549h190l293 -413l277 413h180l-362 -543l409 -572h-200l-307 433l-290 -433h-198z" />
<glyph unicode="y" d="M55 -330l90 157q7 -4 10 -11t5 -15.5t4 -12.5q3 -6 12 -15.5t24.5 -22t41 -21.5t53.5 -9q87 0 156 73q39 42 77 130l36 82l-452 1108h218q0 -8 -1.5 -15.5t-3.5 -12.5t-4 -12t-2 -13q0 -4 5 -19l326 -820l213 598q61 172 83 296h183q-47 -153 -112 -322l-346 -919 q-14 -39 -25 -63t-29.5 -55.5t-41.5 -57.5q-54 -61 -127 -91.5t-152 -30.5q-144 0 -241 94z" />
<glyph unicode="z" d="M123 -2v120l689 844h-639v153h866v-120l-680 -846h663q17 0 38 9t36 6v-166h-973z" />
<glyph unicode="{" d="M129 556v135h47q15 0 24 0.5t25.5 2t29 5t28.5 9.5t30 16t27 23q63 66 63 207q0 29 -3.5 86t-3.5 88q0 217 120 326q18 16 37.5 29t36.5 22.5t41 17t39.5 12.5t43.5 8.5t41 5t44 2.5t40.5 1h42.5h39h74v-138h-85q-16 0 -58 0.5t-57.5 0t-44 -3t-48 -10t-38.5 -18.5 q-98 -61 -98 -228q0 -29 4 -85t4 -86q0 -117 -38 -195q-27 -55 -72.5 -97.5t-101.5 -66.5q30 -11 57 -27.5t55 -47t48 -70.5t33 -100.5t13 -134.5q0 -39 -4.5 -106t-4.5 -97q0 -183 100 -251q14 -10 28 -17t33.5 -11.5t29.5 -7.5t36.5 -4t34 -1h41.5h40h90v-137h-88h-48 h-49.5t-44 1t-45.5 3t-40 5.5t-42.5 9t-37 12.5t-39 18t-34.5 24q-31 24 -55 54t-38 63t-23.5 63.5t-13.5 65.5t-5 58t-1 50q0 50 4.5 129t4.5 114q0 82 -14.5 136t-49.5 88q-23 22 -54.5 34t-50.5 13.5t-50 1.5h-49z" />
<glyph unicode="|" d="M528 -368v1958h163v-1958h-163z" />
<glyph unicode="}" d="M225 1414v138h74h39h42.5t40.5 -1t44 -2.5t41 -5t43 -8.5t39.5 -12.5t41.5 -17t36.5 -22.5t36.5 -29q120 -109 120 -326q0 -31 -2.5 -88t-2.5 -86q0 -141 63 -207q15 -16 33.5 -27t33.5 -16.5t35.5 -8.5t31.5 -3.5t29 -0.5h47v-135h-50q-30 0 -49 -1.5t-50.5 -13.5 t-54.5 -34q-24 -23 -38.5 -56t-20.5 -73.5t-6 -94.5q0 -35 5 -114t5 -129q0 -34 -1.5 -61.5t-9.5 -71.5t-21.5 -79.5t-40 -74.5t-63.5 -67q-17 -13 -34.5 -24t-39 -18t-37 -12.5t-42.5 -9t-40 -5.5t-46 -3t-44 -1h-49.5h-48.5h-88v137h91h35.5h35.5t31 0.5t32 2t28 4.5 t29.5 7.5t25 11t25.5 15.5q100 68 100 251q0 30 -4 97t-4 106q0 74 13 134.5t33 100.5t48 70.5t55 47t57 27.5q-57 24 -102 66.5t-72 97.5q-38 78 -38 195q0 30 3.5 86t3.5 85q0 167 -97 228q-16 10 -34.5 16.5t-34 9.5t-40 4.5t-40 1.5t-48 -0.5t-50.5 -0.5h-84z" />
<glyph unicode="~" d="M101 913q56 96 145.5 157.5t189.5 61.5q47 0 90 -13.5t73 -34t62 -44.5t57.5 -44t57.5 -34t64 -14q55 0 101 38.5t106 120.5l112 -93q-26 -40 -58.5 -76.5t-75.5 -71.5t-96 -56t-107.5 -21t-102 20t-81.5 48.5t-65.5 57t-69.5 48.5t-78 20q-53 0 -105 -38t-97 -112z" />
<glyph unicode="&#xa0;" />
<glyph unicode="&#xa1;" d="M439 1484q0 29 11.5 56t30.5 46t46 30.5t56 11.5q60 0 102.5 -42t42.5 -102q0 -39 -19.5 -72.5t-53 -52.5t-72.5 -19q-60 0 -102 42t-42 102zM455 176q0 54 10 152t12 127l44 672h123l35 -672q5 -82 14.5 -171.5t9.5 -127.5q0 -62 -16 -105q-16 -38 -45.5 -58t-61.5 -20 q-38 0 -70 26t-46 78q-9 38 -9 99z" />
<glyph unicode="&#xa2;" d="M118 664q0 162 67 292t190.5 206.5t283.5 84.5l35 274l164 -17q1 -15 -8 -34q-12 -21 -13 -34l-27 -200q96 -19 169.5 -68.5t120.5 -120.5l-108 -138q-10 8 -10 24q0 3 0.5 10t0 10t-2.5 8.5t-7 10.5q-28 34 -74.5 66t-107.5 51l-113 -853h3q88 0 171.5 35.5t147.5 100.5 l88 -117q-78 -85 -185 -130t-227 -45h-18l-36 -272l-140 17l34 276q-180 51 -289 202.5t-109 360.5zM290 687q0 -156 67 -267t180 -157l106 843q-76 -5 -140 -35.5t-111.5 -83t-74.5 -130t-27 -170.5z" />
<glyph unicode="&#xa3;" d="M95 120q5 2 14 7q84 38 112.5 57.5t54.5 59.5q85 130 85 296q0 90 -37 242h-160v139h126q-16 80 -16 156q0 100 35 184t94 140t136 86.5t162 30.5q58 0 114.5 -14t107.5 -42t94 -67l-107 -135q-8 6 -13 15t-9 19t-10 16q-9 10 -28.5 24t-63 30t-89.5 16q-50 0 -96 -19 t-83 -55t-59 -95t-22 -132q0 -67 20 -158h242v-139h-210q33 -140 33 -237q0 -182 -89 -326q36 6 66 6q54 0 111 -16t98 -35t94 -34.5t99 -15.5q100 0 180 68l65 -127q-126 -101 -254 -101q-51 0 -108 17t-100.5 37.5t-105 37.5t-120.5 17q-126 0 -300 -92z" />
<glyph unicode="&#xa4;" d="M165 486l137 136q-69 97 -69 219t70 220l-138 137l87 87l138 -137q98 72 222 72q119 0 217 -70l136 135l87 -87l-135 -134q73 -99 73 -223q0 -123 -71 -221l133 -134l-87 -86l-133 133q-99 -70 -220 -70q-124 0 -223 73l-137 -136zM367 841q0 -101 72 -173t173 -72 q66 0 122 33t89 89.5t33 122.5q0 101 -71.5 172.5t-172.5 71.5q-67 0 -123 -32.5t-89 -89t-33 -122.5z" />
<glyph unicode="&#xa5;" d="M88 1521h189l354 -636l323 633h181l-425 -799v-50h329v-139h-329v-154h329v-137h-329v-239h-165v239h-342v137h342v154h-342v139h342v50z" />
<glyph unicode="&#xa6;" d="M528 -368v845h163v-845h-163zM528 719v871h163v-871h-163z" />
<glyph unicode="&#xa7;" d="M158 76l128 149q6 -3 10 -8.5t5 -10.5l2.5 -12.5t2.5 -11.5q3 -8 13.5 -23.5t34 -38.5t53 -43t76 -34t98.5 -14q107 0 173.5 56.5t66.5 135.5q0 48 -26.5 93.5t-85.5 79.5q-41 24 -106.5 44.5t-134.5 43t-121 52.5q-39 24 -69 52t-48.5 58.5t-27.5 62t-9 63.5 q0 54 25.5 103t70 85t103.5 57q-83 52 -123.5 125t-40.5 151q0 69 30.5 132.5t83 110.5t127 75t158.5 28q120 0 221 -57.5t158 -157.5l-137 -123q-8 6 -11.5 14.5t-4.5 19.5t-3 16q-9 23 -26 46.5t-44 46.5t-67 37t-86 14q-47 0 -88.5 -15t-70.5 -40.5t-45.5 -60 t-16.5 -72.5q0 -28 9.5 -56.5t40 -63t80.5 -60.5q35 -19 122.5 -50.5t136.5 -54.5q61 -29 106 -64t70 -71t36.5 -70.5t11.5 -69.5q0 -50 -23.5 -96.5t-64 -82t-93.5 -57.5q77 -52 117 -127t40 -156q0 -71 -30.5 -136t-84.5 -114.5t-132 -78.5t-168 -29q-123 0 -234.5 54.5 t-187.5 153.5zM370 819q0 -49 30 -97.5t101 -82.5q31 -15 73.5 -28t90 -26.5t82.5 -27.5q41 21 64.5 59.5t23.5 85.5q0 32 -10.5 62.5t-43.5 66.5t-86 63q-35 17 -110 41.5t-104 35.5q-49 -16 -80 -58t-31 -94z" />
<glyph unicode="&#xa8;" d="M274 1497q0 51 35.5 87t86.5 36t87.5 -36t36.5 -87t-36.5 -87.5t-87 -36.5t-86.5 36.5t-36 87.5zM709 1497q0 51 36 87t86 36t86 -36t36 -87t-36 -87.5t-86 -36.5q-25 0 -47.5 10t-38.5 26.5t-26 39.5t-10 48z" />
<glyph unicode="&#xa9;" d="M33 668q0 128 47.5 244t127.5 198.5t189 131.5t228 49q118 0 227 -48.5t188 -131t126.5 -198t47.5 -243.5t-47.5 -244t-127 -199t-188 -132t-227.5 -49q-96 0 -185.5 31t-162.5 88t-127.5 133.5t-85 171.5t-30.5 198zM144 669q0 -107 38.5 -203.5t103.5 -165t154 -109 t186 -40.5t185.5 40.5t153.5 109t104 165t39 204.5q0 107 -38.5 203.5t-103.5 165.5t-153.5 109.5t-185.5 40.5t-186 -40.5t-154 -109.5t-104 -166t-39 -204zM280 672q0 102 48.5 185.5t131 129.5t179.5 46q114 0 197 -63t106 -162l-126 -49q-7 10 -8 29.5t-1 20.5 q-3 10 -11.5 24t-26 33.5t-50.5 32.5t-75 13q-60 0 -110.5 -24t-84 -76t-33.5 -124q0 -73 30.5 -133.5t83.5 -95t116 -34.5q57 0 106 29.5t76 79.5l109 -71q-52 -77 -132 -122t-170 -45q-73 0 -139 30.5t-113.5 81.5t-75 120t-27.5 144z" />
<glyph unicode="&#xaa;" d="M186 370v132h850v-132h-850zM249 881q0 65 36 126.5t108 99.5q20 10 43.5 18.5t41 14t48.5 9.5t43.5 6t50 3t43.5 1h49.5h44.5h36v30q0 28 -1 43.5t-7 39t-19 42.5q-46 72 -156 72q-67 0 -127.5 -26.5t-99.5 -80.5l-84 100q62 72 147.5 105t179.5 33q102 0 179.5 -40.5 t114.5 -119.5q18 -38 23 -78t5 -97v-532h-153v82q-54 -51 -121.5 -78t-137.5 -27q-125 0 -206 74.5t-81 179.5zM406 888q0 -53 42.5 -91.5t110.5 -38.5q53 0 102 22t84 55q25 23 37.5 50.5t15 48.5t2.5 56v43h-41q-12 0 -48 0.5t-57 0.5t-51 -2t-52 -6q-51 -9 -85 -33 t-47 -50.5t-13 -54.5z" />
<glyph unicode="&#xab;" d="M164 559v57l370 360l94 -101l-294 -288l312 -341l-97 -97zM606 559v57l370 360l95 -101l-295 -288l312 -341l-98 -97z" />
<glyph unicode="&#xac;" d="M223 691v155h786v-463h-155v308h-631z" />
<glyph unicode="&#xad;" d="M173 685v162h877v-162h-877z" />
<glyph unicode="&#xae;" d="M33 668q0 128 47.5 244t127.5 198.5t189 131.5t228 49q118 0 227 -48.5t188 -131t126.5 -198t47.5 -243.5t-47.5 -244t-127 -199t-188 -132t-227.5 -49q-96 0 -185.5 31t-162.5 88t-127.5 133.5t-85 171.5t-30.5 198zM144 669q0 -107 38.5 -203.5t103.5 -165t154 -109 t186 -40.5t185.5 40.5t153.5 109t104 165t39 204.5q0 107 -38.5 203.5t-103.5 165.5t-153.5 109.5t-185.5 40.5t-186 -40.5t-154 -109.5t-104 -166t-39 -204zM378 324v711h230q109 0 168 -25q60 -25 93 -74.5t33 -107.5q0 -65 -39.5 -117t-103.5 -70l158 -304l-116 -17 l-151 305h-160v-301h-112zM490 721h126q28 0 44 1t40 7t43 17q48 30 48 82q0 54 -54 86q-9 5 -18 8.5t-17 6t-19 4t-18 2.5t-18.5 1t-18 0.5t-18.5 0.5h-120v-216z" />
<glyph unicode="&#xaf;" d="M301 1378v137h618v-137h-618z" />
<glyph unicode="&#xb0;" d="M294 1229q0 89 44 164t120 119.5t165.5 44.5t165.5 -44.5t120 -119.5t44 -163.5t-44 -164t-120 -119.5t-165.5 -44t-165.5 44t-120 119t-44 164zM444 1232q0 -82 53.5 -139t128.5 -57q49 0 90.5 26t66.5 71.5t25 99.5q0 81 -53.5 138t-128.5 57t-128.5 -57t-53.5 -139z " />
<glyph unicode="&#xb1;" d="M109 835v149h431v417h154v-417h416v-149h-416v-457h-154v457h-431zM112 42v153h1003v-153h-1003z" />
<glyph unicode="&#xb2;" d="M271 1351q54 94 150.5 148t208.5 54q142 0 233 -79.5t91 -193.5q0 -122 -113 -227q-30 -28 -78.5 -63.5t-90.5 -65t-97 -76.5t-101 -99h443q13 0 25 10q17 16 34 11v-154h-682v108q47 65 110 129.5t104.5 99.5t103.5 83t70 54q61 49 93.5 93.5t32.5 95.5q0 61 -49.5 105 t-133.5 44q-67 0 -124.5 -29.5t-92.5 -74.5q-7 -9 -13 -25t-11 -25z" />
<glyph unicode="&#xb3;" d="M274 770l113 126q9 -9 13 -21.5t8 -24.5t13 -22q9 -8 22 -18t39 -25.5t63 -25.5t77 -10q59 0 108.5 21t78.5 57.5t29 79.5q0 16 -4 31.5t-18 35t-36 33.5t-62.5 24t-93.5 10q-25 0 -73 -5v123q31 -2 49 -2q57 0 98.5 11t63 30.5t31 40t9.5 43.5q0 57 -51.5 100.5 t-130.5 43.5q-62 0 -122.5 -30t-103.5 -83l-89 90q61 72 146 111.5t177 39.5q89 0 163 -36t115 -96t41 -130q0 -66 -38 -118t-100 -72q78 -13 129 -72.5t51 -135.5q0 -78 -51.5 -143.5t-136.5 -102t-181 -36.5q-50 0 -98 10.5t-92 31t-83.5 50t-72.5 66.5z" />
<glyph unicode="&#xb4;" d="M496 1346l214 358l154 -103l-245 -329z" />
<glyph unicode="&#xb5;" d="M58 -406q1 116 13.5 277.5t24 326.5t11.5 295v620h160v-661q0 -66 7 -115.5t29 -96.5q32 -64 86 -99.5t113 -35.5q67 0 126.5 43t91.5 116q8 19 13.5 38.5t9 38t5.5 40.5t2.5 41t0.5 44v647h156v-831q0 -82 20 -119q26 -48 76 -48q23 0 45.5 12.5t38 29.5t27.5 34.5 t18 29.5l6 12l65 -124q-38 -58 -94 -96t-120 -38q-77 0 -133.5 55t-66.5 134q-42 -87 -123.5 -139t-175.5 -52q-89 0 -164 47t-113 128q0 -371 -2 -554h-153z" />
<glyph unicode="&#xb6;" d="M156 1208q0 115 65.5 213t184.5 150q41 18 85 29t94.5 15.5t82.5 5.5t89 1h306v-1789h-142v1650h-184v-1650h-146v951q-121 8 -221.5 67.5t-157 153.5t-56.5 203z" />
<glyph unicode="&#xb7;" d="M438 807q0 57 42 98t102 41t102 -41t42 -98.5t-42.5 -99t-101.5 -41.5q-60 0 -102 41.5t-42 99.5z" />
<glyph unicode="&#xb8;" d="M383 -340l61 101q36 -30 79.5 -50t83.5 -28.5t78 -8.5q63 0 87.5 18.5t24.5 40.5q0 27 -26 43q-24 16 -89 16h-72l28 208h105l-14 -115l41 -3q61 -2 94 -19q34 -17 53.5 -47t19.5 -66q0 -72 -70 -126.5t-196 -54.5q-159 0 -288 91z" />
<glyph unicode="&#xb9;" d="M301 1365l321 177h104v-793h227v-133h-621v133h243v599l-235 -59z" />
<glyph unicode="&#xba;" d="M186 370v132h850v-132h-850zM233 1053q0 82 20 155.5t56 129t83.5 96t104.5 61.5t117 21q67 0 129 -27t113 -79t81 -136.5t30 -190.5q0 -92 -21 -168.5t-57 -129.5t-83.5 -89.5t-100 -53.5t-106.5 -17q-73 0 -139 30t-116.5 84t-80.5 135.5t-30 178.5zM381 1065 q0 -73 19 -132t51 -94.5t70.5 -54.5t80.5 -19q41 0 79 18t70 53t51.5 94.5t19.5 134.5q0 61 -12 113t-33 88.5t-49 62.5t-60 38t-66 12q-42 0 -81 -20t-70.5 -58t-50.5 -99t-19 -137z" />
<glyph unicode="&#xbb;" d="M164 246l311 341l-294 288l95 101l370 -360v-57l-385 -410zM606 246l311 341l-295 288l96 101l370 -360v-57l-386 -410z" />
<glyph unicode="&#xbc;" d="M14 1510l259 141h82v-635h182v-106h-497v106h193v480l-187 -47zM186 -40l762 1660l116 -66l-765 -1658zM575 20v69l390 500h75v-478h123v-93h-123v-188h-111v190h-354zM702 111h229v288z" />
<glyph unicode="&#xbd;" d="M14 1510l259 141h82v-635h182v-106h-497v106h193v480l-187 -47zM186 -40l762 1660l116 -66l-765 -1658zM640 409q44 76 121 119t166 43q114 0 187.5 -63.5t73.5 -154.5q0 -97 -92 -180q-29 -27 -82 -64.5t-108.5 -82t-103.5 -97.5h355q11 0 21 8q13 13 26 8v-122h-545v85 q31 43 67 83t73 73t65.5 56t61.5 48t43 33q32 26 52 47.5t34.5 48.5t14.5 55q0 49 -40 84t-107 35q-35 0 -69.5 -11.5t-60 -30t-43.5 -40.5q-6 -7 -10 -20t-8 -20z" />
<glyph unicode="&#xbe;" d="M27 1039l91 101q8 -9 13 -27.5t14 -27.5q71 -63 162 -63q71 0 122 37t51 89q0 17 -6.5 33t-23 34t-53 29t-89.5 11q-30 0 -58 -3v97q13 -1 38 -1q45 0 78.5 9t51 24.5t25.5 32t8 34.5q0 46 -41.5 81t-104.5 35q-50 0 -98.5 -24t-82.5 -67l-72 72q49 57 117 89t142 32 q70 0 129.5 -29t92.5 -77t33 -103q0 -54 -30 -95.5t-79 -57.5q62 -10 102.5 -57.5t40.5 -108.5q0 -62 -41.5 -114.5t-109 -81.5t-144.5 -29q-80 0 -152.5 33t-125.5 93zM198 -40l764 1660l115 -66l-765 -1658zM575 20v69l390 500h75v-478h123v-93h-123v-188h-111v190h-354z M702 111h229v288z" />
<glyph unicode="&#xbf;" d="M164 399q0 41 7.5 79.5t19 68t29.5 58t34.5 49t39.5 42.5t39.5 35.5t39 32t33.5 27.5q36 33 58.5 63.5t32 63t12.5 57.5t3 64v101h159v-101q0 -49 -3 -80.5t-13.5 -71.5t-34.5 -79t-63 -82q-11 -12 -34 -35.5t-38.5 -40.5t-37 -41.5t-35.5 -48t-27.5 -51.5t-20.5 -59 t-7 -64q0 -72 33 -131t92 -93.5t131 -34.5q93 0 182 57.5t147 153.5l124 -115q-52 -81 -127.5 -138.5t-162.5 -87t-179 -29.5q-100 0 -183 35t-137 95t-83.5 137.5t-29.5 163.5zM441 1482q0 57 43 98.5t102.5 41.5t102 -41t42.5 -99t-42.5 -99t-101.5 -41q-40 0 -73 19 t-53 51t-20 70z" />
<glyph unicode="&#xc0;" d="M36 -2l536 1548h19l587 -1546h-177l-168 444h-482l-148 -446h-167zM345 1759l96 170l373 -219l-57 -101zM384 576h411l-214 578z" />
<glyph unicode="&#xc1;" d="M36 -2l536 1548h19l587 -1546h-177l-168 444h-482l-148 -446h-167zM378 1710l373 219l96 -170l-411 -150zM384 576h411l-214 578z" />
<glyph unicode="&#xc2;" d="M36 -2l536 1548h19l587 -1546h-177l-168 444h-482l-148 -446h-167zM249 1686l319 243h52l301 -238l-80 -93l-252 173l-271 -166zM384 576h411l-214 578z" />
<glyph unicode="&#xc3;" d="M36 -2l536 1548h19l587 -1546h-177l-168 444h-482l-148 -446h-167zM211 1743q133 211 275 211q34 0 65.5 -10.5t59 -31t39 -31t31.5 -31.5q35 -37 63 -57t59 -20q18 0 32.5 5.5t29.5 20.5t23.5 25.5t28 37.5t28.5 40l90 -98q-72 -89 -125.5 -131t-115.5 -42q-39 0 -76 19 t-66 46.5t-56 54.5t-57 46t-59 19q-45 0 -77 -33.5t-83 -116.5zM384 576h411l-214 578z" />
<glyph unicode="&#xc4;" d="M36 -2l536 1548h19l587 -1546h-177l-168 444h-482l-148 -446h-167zM246 1799q0 51 36 87t87 36t87.5 -36t36.5 -87q0 -33 -17 -61.5t-45.5 -44.5t-61.5 -16q-51 0 -87 35.5t-36 86.5zM384 576h411l-214 578zM682 1799.5q0 50.5 35.5 86.5t85.5 36q33 0 61.5 -16.5 t45 -44.5t16.5 -61.5t-16.5 -62t-45 -44.5t-61.5 -16q-50 0 -85.5 36t-35.5 86.5z" />
<glyph unicode="&#xc5;" d="M36 -2l523 1511q-84 9 -140.5 70.5t-56.5 143.5q0 89 65 151.5t157.5 62.5t158 -62.5t65.5 -151.5q0 -54 -27 -102t-73.5 -77.5t-102.5 -34.5l573 -1509h-177l-168 444h-482l-148 -446h-167zM384 576h411l-214 578zM486 1724q0 -46 29.5 -79t71.5 -33q41 0 71 32.5 t30 79.5t-30 79.5t-71.5 32.5t-71 -32t-29.5 -80z" />
<glyph unicode="&#xc6;" d="M11 0l477 1521h692v-151h-423l5 -499h355v-156h-353l4 -564h405v-151h-559v412h-318l-129 -412h-156zM332 553h282v817h-27z" />
<glyph unicode="&#xc7;" d="M99 751q0 126 19.5 234t53 186.5t80 141.5t98 103t109 66.5t111 38t106.5 11.5q152 0 278.5 -82t187.5 -220l-161 -79q-12 8 -12 24q0 3 0.5 8.5t0.5 8.5q0 12 -8 27q-48 80 -125.5 128t-165.5 48q-53 0 -104 -19t-96 -54.5t-83 -90.5t-65 -123.5t-42.5 -156 t-15.5 -186.5q0 -149 34.5 -272.5t92.5 -203.5t133.5 -124t159.5 -44q90 0 174 50t136 136l126 -82q-62 -102 -162.5 -167t-218.5 -79l-11 -94l41 -3q61 -2 94 -19q34 -17 53.5 -47t19.5 -66q0 -72 -70 -126.5t-196 -54.5q-159 0 -288 91l61 101q36 -30 79.5 -50t83.5 -28.5 t78 -8.5q63 0 87.5 18.5t24.5 40.5q0 27 -26 43q-24 16 -89 16h-72l24 184q-41 4 -82 14t-83 28.5t-81.5 44.5t-76.5 62.5t-69 81t-58.5 102t-45 123.5t-29 147t-10.5 172z" />
<glyph unicode="&#xc8;" d="M143 0v1521h932v-151h-770v-499h635v-156h-635v-564h764v-151h-926zM345 1759l96 170l373 -219l-57 -101z" />
<glyph unicode="&#xc9;" d="M143 0v1521h932v-151h-770v-499h635v-156h-635v-564h764v-151h-926zM420 1710l373 219l97 -170l-413 -150z" />
<glyph unicode="&#xca;" d="M143 0v1521h932v-151h-770v-499h635v-156h-635v-564h764v-151h-926zM269 1686l320 243h52l301 -238l-79 -93l-253 173l-271 -166z" />
<glyph unicode="&#xcb;" d="M143 0v1521h932v-151h-770v-499h635v-156h-635v-564h764v-151h-926zM263 1799q0 51 36 87t87 36t87 -36t36 -86.5t-36 -86.5t-87 -36t-87 35.5t-36 86.5zM699 1799.5q0 50.5 35.5 86.5t85.5 36t86 -36t36 -86.5t-36 -86.5t-86 -36t-85.5 36t-35.5 86.5z" />
<glyph unicode="&#xcc;" d="M198 -2v142h298v1236h-282v142h753v-142h-301v-1237h316v-141h-784zM345 1759l96 170l373 -219l-57 -101z" />
<glyph unicode="&#xcd;" d="M198 -2v142h298v1236h-282v142h753v-142h-301v-1237h316v-141h-784zM420 1710l373 219l97 -170l-413 -150z" />
<glyph unicode="&#xce;" d="M198 -2v142h298v1236h-282v142h753v-142h-301v-1237h316v-141h-784zM246 1686l319 243h54l300 -238l-80 -93l-252 173l-272 -166z" />
<glyph unicode="&#xcf;" d="M198 -2v142h298v1236h-282v142h753v-142h-301v-1237h316v-141h-784zM255 1799q0 51 35.5 87t86.5 36q34 0 62.5 -16.5t45 -44.5t16.5 -61.5t-16.5 -62t-45 -44.5t-62.5 -16q-51 0 -86.5 35.5t-35.5 86.5zM690 1799q0 51 36 87t86 36q32 0 60.5 -16.5t45 -44.5t16.5 -61.5 t-16.5 -62t-45 -44.5t-61 -16t-60.5 16t-44.5 44.5t-16.5 61.5z" />
<glyph unicode="&#xd0;" d="M74 734v141h118v643h340q112 0 190.5 -17.5t152.5 -72.5q88 -65 148.5 -174t86.5 -231t26 -255q0 -122 -23 -234.5t-67.5 -207.5t-113 -168t-154.5 -113q-60 -28 -123 -37.5t-153 -9.5h-310v736h-118zM349 139h145q81 0 138 11.5t115 50.5q108 73 166.5 218t58.5 328 q0 137 -31.5 265t-96.5 217q-25 34 -53 60t-57 41.5t-54.5 25t-56.5 13.5t-51.5 5.5t-50.5 1.5h-172v-501h254v-141h-254v-595z" />
<glyph unicode="&#xd1;" d="M123 0v1518h165l638 -1124v1127h181q2 -13 -7 -31q-10 -17 -10 -35v-1457h-136l-668 1197v-1195h-163zM221 1743q134 211 275 211q24 0 46 -5t42.5 -15.5t34.5 -18.5t31 -24t22.5 -21.5t18.5 -19.5q37 -38 64 -57.5t58 -19.5q17 0 31.5 5.5t29.5 20.5t23.5 25.5t28 37.5 t28.5 40l91 -98q-73 -90 -125.5 -131.5t-115.5 -41.5q-39 0 -76 19t-65.5 46.5t-55.5 54.5t-57 46t-60 19q-44 0 -76.5 -34t-83.5 -116z" />
<glyph unicode="&#xd2;" d="M71 762q0 109 14.5 204.5t40 168.5t59 134t75 104t85.5 75t92 50.5t92.5 27.5t88.5 9q130 0 248 -72.5t190 -212.5q29 -58 49 -124t28.5 -133.5t11.5 -120.5t3 -116q0 -304 -90 -486q-48 -98 -121.5 -165t-153 -97.5t-164.5 -30.5q-52 0 -104 12t-106.5 40t-103 69 t-91.5 104.5t-74.5 142.5t-50 186t-18.5 231zM239 784q0 -139 23.5 -251.5t61 -183.5t88.5 -119t102.5 -67.5t105.5 -19.5q84 0 162.5 50.5t127.5 155.5q68 143 68 385q0 253 -59 401q-26 64 -62.5 112t-78 75t-83.5 40.5t-85 13.5q-50 0 -99.5 -17.5t-99.5 -61t-87.5 -109 t-61 -170t-23.5 -234.5zM345 1759l96 170l373 -219l-57 -101z" />
<glyph unicode="&#xd3;" d="M71 762q0 109 14.5 204.5t40 168.5t59 134t75 104t85.5 75t92 50.5t92.5 27.5t88.5 9q130 0 248 -72.5t190 -212.5q29 -58 49 -124t28.5 -133.5t11.5 -120.5t3 -116q0 -304 -90 -486q-48 -98 -121.5 -165t-153 -97.5t-164.5 -30.5q-52 0 -104 12t-106.5 40t-103 69 t-91.5 104.5t-74.5 142.5t-50 186t-18.5 231zM239 784q0 -139 23.5 -251.5t61 -183.5t88.5 -119t102.5 -67.5t105.5 -19.5q84 0 162.5 50.5t127.5 155.5q68 143 68 385q0 253 -59 401q-26 64 -62.5 112t-78 75t-83.5 40.5t-85 13.5q-50 0 -99.5 -17.5t-99.5 -61t-87.5 -109 t-61 -170t-23.5 -234.5zM420 1710l373 219l97 -170l-413 -150z" />
<glyph unicode="&#xd4;" d="M71 762q0 109 14.5 204.5t40 168.5t59 134t75 104t85.5 75t92 50.5t92.5 27.5t88.5 9q130 0 248 -72.5t190 -212.5q29 -58 49 -124t28.5 -133.5t11.5 -120.5t3 -116q0 -304 -90 -486q-48 -98 -121.5 -165t-153 -97.5t-164.5 -30.5q-52 0 -104 12t-106.5 40t-103 69 t-91.5 104.5t-74.5 142.5t-50 186t-18.5 231zM239 784q0 -139 23.5 -251.5t61 -183.5t88.5 -119t102.5 -67.5t105.5 -19.5q84 0 162.5 50.5t127.5 155.5q68 143 68 385q0 253 -59 401q-26 64 -62.5 112t-78 75t-83.5 40.5t-85 13.5q-50 0 -99.5 -17.5t-99.5 -61t-87.5 -109 t-61 -170t-23.5 -234.5zM276 1686l319 243h52l301 -238l-79 -93l-253 173l-271 -166z" />
<glyph unicode="&#xd5;" d="M71 762q0 109 14.5 204.5t40 168.5t59 134t75 104t85.5 75t92 50.5t92.5 27.5t88.5 9q130 0 248 -72.5t190 -212.5q29 -58 49 -124t28.5 -133.5t11.5 -120.5t3 -116q0 -304 -90 -486q-48 -98 -121.5 -165t-153 -97.5t-164.5 -30.5q-52 0 -104 12t-106.5 40t-103 69 t-91.5 104.5t-74.5 142.5t-50 186t-18.5 231zM221 1743q134 211 275 211q24 0 46 -5t42.5 -15.5t34.5 -18.5t31 -24t22.5 -21.5t18.5 -19.5q37 -38 64 -57.5t58 -19.5q17 0 31.5 5.5t29.5 20.5t23.5 25.5t28 37.5t28.5 40l91 -98q-73 -90 -125.5 -131.5t-115.5 -41.5 q-39 0 -76 19t-65.5 46.5t-55.5 54.5t-57 46t-60 19q-44 0 -76.5 -34t-83.5 -116zM239 784q0 -139 23.5 -251.5t61 -183.5t88.5 -119t102.5 -67.5t105.5 -19.5q84 0 162.5 50.5t127.5 155.5q68 143 68 385q0 253 -59 401q-26 64 -62.5 112t-78 75t-83.5 40.5t-85 13.5 q-50 0 -99.5 -17.5t-99.5 -61t-87.5 -109t-61 -170t-23.5 -234.5z" />
<glyph unicode="&#xd6;" d="M71 762q0 109 14.5 204.5t40 168.5t59 134t75 104t85.5 75t92 50.5t92.5 27.5t88.5 9q130 0 248 -72.5t190 -212.5q29 -58 49 -124t28.5 -133.5t11.5 -120.5t3 -116q0 -304 -90 -486q-48 -98 -121.5 -165t-153 -97.5t-164.5 -30.5q-52 0 -104 12t-106.5 40t-103 69 t-91.5 104.5t-74.5 142.5t-50 186t-18.5 231zM239 784q0 -139 23.5 -251.5t61 -183.5t88.5 -119t102.5 -67.5t105.5 -19.5q84 0 162.5 50.5t127.5 155.5q68 143 68 385q0 253 -59 401q-26 64 -62.5 112t-78 75t-83.5 40.5t-85 13.5q-50 0 -99.5 -17.5t-99.5 -61t-87.5 -109 t-61 -170t-23.5 -234.5zM263 1799q0 51 36 87t87 36t87 -36t36 -86.5t-36 -86.5t-87 -36t-87 35.5t-36 86.5zM699 1799.5q0 50.5 35.5 86.5t85.5 36t86 -36t36 -86.5t-36 -86.5t-86 -36t-85.5 36t-35.5 86.5z" />
<glyph unicode="&#xd7;" d="M206 471l307 319l-307 325l115 111l304 -320l307 320l115 -107l-315 -326l309 -328l-114 -112l-307 325l-305 -314z" />
<glyph unicode="&#xd8;" d="M71 762q0 109 14.5 204.5t40 168.5t59 134t75 104t85.5 75t92 50.5t92.5 27.5t88.5 9q155 0 282 -96l112 210l130 -70l-134 -251q25 -33 48 -78q29 -58 49 -124t28.5 -133.5t11.5 -120.5t3 -116q0 -304 -90 -486q-48 -98 -121.5 -165t-153 -97.5t-164.5 -30.5 q-155 0 -283 97l-122 -228l-126 66l143 268q-160 208 -160 582zM239 784q0 -265 83 -432l498 936q-93 88 -210 88q-50 0 -99.5 -17.5t-99.5 -61t-87.5 -109t-61 -170t-23.5 -234.5zM418 225q90 -82 202 -82q84 0 162.5 50.5t127.5 155.5q68 143 68 385q0 253 -59 401l-6 16z " />
<glyph unicode="&#xd9;" d="M123 524v994h190q2 -7 2 -11q0 -5 -1.5 -10.5t-3.5 -8.5t-5.5 -8t-4.5 -7q-10 -13 -10 -32v-920q0 -70 7 -121.5t30 -101.5q40 -86 118.5 -133t170.5 -47q93 0 171 46t119 131q24 52 31.5 106t7.5 127v990h162v-986q0 -104 -11 -177.5t-50 -145.5q-63 -115 -179.5 -175.5 t-253.5 -60.5q-139 0 -254.5 60.5t-177.5 174.5q-38 71 -48 142t-10 174zM345 1759l96 170l373 -219l-57 -101z" />
<glyph unicode="&#xda;" d="M123 524v994h190q2 -7 2 -11q0 -5 -1.5 -10.5t-3.5 -8.5t-5.5 -8t-4.5 -7q-10 -13 -10 -32v-920q0 -70 7 -121.5t30 -101.5q40 -86 118.5 -133t170.5 -47q93 0 171 46t119 131q24 52 31.5 106t7.5 127v990h162v-986q0 -104 -11 -177.5t-50 -145.5q-63 -115 -179.5 -175.5 t-253.5 -60.5q-139 0 -254.5 60.5t-177.5 174.5q-38 71 -48 142t-10 174zM420 1710l373 219l97 -170l-413 -150z" />
<glyph unicode="&#xdb;" d="M123 524v994h190q2 -7 2 -11q0 -5 -1.5 -10.5t-3.5 -8.5t-5.5 -8t-4.5 -7q-10 -13 -10 -32v-920q0 -70 7 -121.5t30 -101.5q40 -86 118.5 -133t170.5 -47q93 0 171 46t119 131q24 52 31.5 106t7.5 127v990h162v-986q0 -104 -11 -177.5t-50 -145.5q-63 -115 -179.5 -175.5 t-253.5 -60.5q-139 0 -254.5 60.5t-177.5 174.5q-38 71 -48 142t-10 174zM276 1686l319 243h52l301 -238l-79 -93l-253 173l-271 -166z" />
<glyph unicode="&#xdc;" d="M123 524v994h190q2 -7 2 -11q0 -5 -1.5 -10.5t-3.5 -8.5t-5.5 -8t-4.5 -7q-10 -13 -10 -32v-920q0 -70 7 -121.5t30 -101.5q40 -86 118.5 -133t170.5 -47q93 0 171 46t119 131q24 52 31.5 106t7.5 127v990h162v-986q0 -104 -11 -177.5t-50 -145.5q-63 -115 -179.5 -175.5 t-253.5 -60.5q-139 0 -254.5 60.5t-177.5 174.5q-38 71 -48 142t-10 174zM284 1799q0 51 36 87t87 36t87 -36t36 -87t-36 -86.5t-87 -35.5t-87 35.5t-36 86.5zM719 1799.5q0 50.5 36 86.5t86 36t86 -36t36 -86.5t-36 -86.5t-86 -36t-86 36t-36 86.5z" />
<glyph unicode="&#xdd;" d="M69 1521h194l372 -739l337 736h181l-432 -918v-600h-184v600zM420 1710l373 219l97 -170l-413 -150z" />
<glyph unicode="&#xde;" d="M143 0v1518h191q2 -3 2 -9q0 -9 -14 -32q-7 -11 -7 -25v-219h291q90 0 156 -10t130 -43q105 -53 161.5 -154.5t56.5 -221.5q0 -118 -55.5 -217.5t-158.5 -152.5q-63 -31 -126.5 -40.5t-150.5 -9.5h-304v-384h-172zM315 534h310q37 0 60.5 1.5t56 8.5t59.5 21 q64 33 100 95.5t36 136.5q0 77 -37.5 142.5t-106.5 100.5q-42 21 -84.5 26.5t-102.5 5.5h-291v-538z" />
<glyph unicode="&#xdf;" d="M134 0v1031q0 71 2 113.5t14 105.5t36 116q55 125 162 194.5t235 69.5q89 0 171 -34.5t141 -92.5t94.5 -137.5t35.5 -164.5q0 -70 -23.5 -133t-67.5 -113t-103 -80q136 -43 218.5 -162.5t82.5 -272.5q0 -78 -22.5 -150t-63.5 -128.5t-96 -99t-123.5 -65t-142.5 -22.5 q-141 0 -253 75l87 137q70 -56 164 -56q118 0 203 89.5t85 219.5q0 94 -45 173.5t-116 124.5q-48 29 -96.5 39t-117.5 10h-74v139h70q69 0 112 19q69 31 112 103t43 157q0 120 -78 202.5t-187 82.5q-63 0 -121.5 -31t-100.5 -92q-24 -36 -39.5 -77t-21.5 -89t-7.5 -80.5 t-1.5 -85.5v-1035h-167z" />
<glyph unicode="&#xe0;" d="M119 288q0 99 65 185.5t191 132.5q50 18 106 29.5t131.5 15t112.5 4.5t131 1h35v40q0 44 -0.5 65.5t-9 60t-25.5 66.5q-28 45 -84 76t-146 31q-87 0 -171 -29t-148 -95l-86 111q76 78 178.5 117t218.5 39q131 0 232.5 -47.5t155.5 -137.5q24 -40 36.5 -87.5t15 -83.5 t2.5 -92v-690h-166v123q-90 -74 -193 -112t-207 -38q-85 0 -156.5 26t-118.5 70t-73.5 101t-26.5 118zM296 300q0 -79 63.5 -136t170.5 -57q51 0 100 14t86.5 36t62.5 41.5t43 39.5q27 28 43.5 56.5t23 58t8 48t1.5 46.5v74h-40q-21 0 -71 0.5t-80.5 0.5t-73 -1.5 t-77.5 -5.5t-63 -10q-98 -24 -147.5 -81t-49.5 -124zM439 1601l154 103l215 -358l-123 -74z" />
<glyph unicode="&#xe1;" d="M119 288q0 99 65 185.5t191 132.5q50 18 106 29.5t131.5 15t112.5 4.5t131 1h35v40q0 44 -0.5 65.5t-9 60t-25.5 66.5q-28 45 -84 76t-146 31q-87 0 -171 -29t-148 -95l-86 111q76 78 178.5 117t218.5 39q131 0 232.5 -47.5t155.5 -137.5q24 -40 36.5 -87.5t15 -83.5 t2.5 -92v-690h-166v123q-90 -74 -193 -112t-207 -38q-85 0 -156.5 26t-118.5 70t-73.5 101t-26.5 118zM296 300q0 -79 63.5 -136t170.5 -57q51 0 100 14t86.5 36t62.5 41.5t43 39.5q27 28 43.5 56.5t23 58t8 48t1.5 46.5v74h-40q-21 0 -71 0.5t-80.5 0.5t-73 -1.5 t-77.5 -5.5t-63 -10q-98 -24 -147.5 -81t-49.5 -124zM496 1346l214 358l154 -103l-245 -329z" />
<glyph unicode="&#xe2;" d="M119 288q0 99 65 185.5t191 132.5q50 18 106 29.5t131.5 15t112.5 4.5t131 1h35v40q0 44 -0.5 65.5t-9 60t-25.5 66.5q-28 45 -84 76t-146 31q-87 0 -171 -29t-148 -95l-86 111q76 78 178.5 117t218.5 39q131 0 232.5 -47.5t155.5 -137.5q24 -40 36.5 -87.5t15 -83.5 t2.5 -92v-690h-166v123q-90 -74 -193 -112t-207 -38q-85 0 -156.5 26t-118.5 70t-73.5 101t-26.5 118zM296 300q0 -79 63.5 -136t170.5 -57q51 0 100 14t86.5 36t62.5 41.5t43 39.5q27 28 43.5 56.5t23 58t8 48t1.5 46.5v74h-40q-21 0 -71 0.5t-80.5 0.5t-73 -1.5 t-77.5 -5.5t-63 -10q-98 -24 -147.5 -81t-49.5 -124zM343 1327l271 343h52l271 -346l-115 -83l-189 250l-197 -247z" />
<glyph unicode="&#xe3;" d="M119 288q0 99 65 185.5t191 132.5q50 18 106 29.5t131.5 15t112.5 4.5t131 1h35v40q0 44 -0.5 65.5t-9 60t-25.5 66.5q-28 45 -84 76t-146 31q-87 0 -171 -29t-148 -95l-86 111q76 78 178.5 117t218.5 39q131 0 232.5 -47.5t155.5 -137.5q24 -40 36.5 -87.5t15 -83.5 t2.5 -92v-690h-166v123q-90 -74 -193 -112t-207 -38q-85 0 -156.5 26t-118.5 70t-73.5 101t-26.5 118zM244 1436q133 211 276 211q20 0 40.5 -4.5t35.5 -10t33 -17.5t27 -17.5t25 -21t18.5 -18t15.5 -16.5q23 -24 39.5 -38.5t38.5 -26t44 -11.5q17 0 31.5 5.5t29.5 20.5 t23.5 25.5t28 37.5t28.5 40l91 -98q-73 -90 -125.5 -131.5t-115.5 -41.5q-39 0 -76 19t-66 46.5t-56 54.5t-57.5 46t-59.5 19q-44 0 -76 -33.5t-84 -116.5zM296 300q0 -79 63.5 -136t170.5 -57q51 0 100 14t86.5 36t62.5 41.5t43 39.5q27 28 43.5 56.5t23 58t8 48t1.5 46.5 v74h-40q-21 0 -71 0.5t-80.5 0.5t-73 -1.5t-77.5 -5.5t-63 -10q-98 -24 -147.5 -81t-49.5 -124z" />
<glyph unicode="&#xe4;" d="M119 288q0 99 65 185.5t191 132.5q50 18 106 29.5t131.5 15t112.5 4.5t131 1h35v40q0 44 -0.5 65.5t-9 60t-25.5 66.5q-28 45 -84 76t-146 31q-87 0 -171 -29t-148 -95l-86 111q76 78 178.5 117t218.5 39q131 0 232.5 -47.5t155.5 -137.5q24 -40 36.5 -87.5t15 -83.5 t2.5 -92v-690h-166v123q-90 -74 -193 -112t-207 -38q-85 0 -156.5 26t-118.5 70t-73.5 101t-26.5 118zM296 300q0 -79 63.5 -136t170.5 -57q51 0 100 14t86.5 36t62.5 41.5t43 39.5q27 28 43.5 56.5t23 58t8 48t1.5 46.5v74h-40q-21 0 -71 0.5t-80.5 0.5t-73 -1.5 t-77.5 -5.5t-63 -10q-98 -24 -147.5 -81t-49.5 -124zM305 1497q0 51 36 87t87 36q34 0 62 -16.5t44.5 -45t16.5 -61.5q0 -51 -36 -87.5t-86.5 -36.5t-87 36.5t-36.5 87.5zM740 1497q0 33 16.5 61.5t45 45t61.5 16.5t60.5 -16.5t44 -45t16.5 -61.5q0 -51 -35.5 -87.5 t-85.5 -36.5q-25 0 -47.5 10t-39 26.5t-26.5 39.5t-10 48z" />
<glyph unicode="&#xe5;" d="M119 288q0 99 65 185.5t191 132.5q50 18 106 29.5t131.5 15t112.5 4.5t131 1h35v40q0 44 -0.5 65.5t-9 60t-25.5 66.5q-28 45 -84 76t-146 31q-87 0 -171 -29t-148 -95l-86 111q76 78 178.5 117t218.5 39q131 0 232.5 -47.5t155.5 -137.5q24 -40 36.5 -87.5t15 -83.5 t2.5 -92v-690h-166v123q-90 -74 -193 -112t-207 -38q-85 0 -156.5 26t-118.5 70t-73.5 101t-26.5 118zM296 300q0 -79 63.5 -136t170.5 -57q51 0 100 14t86.5 36t62.5 41.5t43 39.5q27 28 43.5 56.5t23 58t8 48t1.5 46.5v74h-40q-21 0 -71 0.5t-80.5 0.5t-73 -1.5 t-77.5 -5.5t-63 -10q-98 -24 -147.5 -81t-49.5 -124zM401 1474q0 58 30 107.5t81.5 78.5t112.5 29q92 0 157 -63t65 -151.5t-65 -151.5t-157 -63q-61 0 -112.5 29t-81.5 78t-30 107zM526 1476q0 -47 29.5 -79t71.5 -32t71.5 32.5t29.5 79.5t-29.5 78.5t-71.5 31.5t-71.5 -32 t-29.5 -79z" />
<glyph unicode="&#xe6;" d="M25 301q0 100 57 190t166 140q41 18 90.5 29t76.5 13t69 4l54 2v64q0 81 -16 125q-22 61 -70 97t-106 36q-51 0 -100.5 -28.5t-83.5 -76.5l-86 107q51 65 125 100t156 35q88 0 160 -40.5t111 -110.5q41 70 110 110.5t147 40.5q71 0 136.5 -35.5t108.5 -106.5 q24 -38 38 -79.5t19.5 -93t6.5 -81t1 -88.5v-92l-507 -22v-113q0 -54 4.5 -89.5t20.5 -70.5q20 -47 55.5 -81.5t80 -52.5t91.5 -18q54 0 100.5 23.5t78.5 64.5l86 -99q-34 -41 -78.5 -70.5t-95.5 -45t-104 -15.5q-93 0 -175 44.5t-132 122.5q-39 -77 -113 -122t-162 -45 q-87 0 -160.5 43.5t-116.5 119t-43 165.5zM181 312q0 -52 24.5 -96t66 -69.5t90.5 -25.5q52 0 96.5 30t63.5 85q7 16 10.5 34t4.5 40.5t1.5 37.5t0 46.5t-0.5 46.5v93l-52 -2q-45 -2 -65.5 -3.5t-57.5 -9.5t-65 -23q-39 -19 -66 -49.5t-39 -64.5t-12 -70zM688 679l365 15v49 q0 98 -22 151q-23 50 -62 79t-86 29q-30 0 -57.5 -12t-50 -32t-41.5 -48q-15 -23 -25 -47t-14 -49.5t-5.5 -45.5t-1.5 -47v-42z" />
<glyph unicode="&#xe7;" d="M137 557q0 124 41.5 231t115 183.5t177.5 120t225 43.5q133 0 241.5 -54t175.5 -152l-124 -145q-11 8 -11.5 29t-4.5 28q-2 7 -13 21t-36 36t-56.5 41t-80 33.5t-102.5 14.5q-76 0 -143.5 -29.5t-117 -81.5t-78 -130t-28.5 -171q0 -128 50 -229.5t137 -157.5t195 -56 q84 0 161.5 35t133.5 100l101 -118q-70 -75 -161.5 -119.5t-194.5 -54.5l-11 -90l41 -3q61 -2 94 -19q34 -17 53.5 -47t19.5 -66q0 -72 -70 -126.5t-196 -54.5q-159 0 -288 91l61 101q36 -30 79.5 -50t83.5 -28.5t78 -8.5q63 0 87.5 18.5t24.5 40.5q0 27 -26 43 q-24 16 -89 16h-72l24 183q-143 12 -256.5 90t-177 206.5t-63.5 285.5z" />
<glyph unicode="&#xe8;" d="M119 544q0 119 28 218t76 168t113 117t139.5 70.5t155.5 22.5q47 0 92.5 -8.5t91 -27t86 -50t74.5 -74t59 -103t37 -132.5q18 -109 8 -213h-790q4 -96 30.5 -171t65 -120t89 -74t97.5 -39.5t95 -10.5q84 0 159 32t129 93l98 -94q-70 -85 -173.5 -129t-225.5 -44 q-114 0 -211 37t-169 107.5t-113 179.5t-41 245zM294 666h613q10 90 -24.5 168t-105.5 125t-159 47q-39 0 -77 -10t-79 -34.5t-74 -61.5t-58.5 -97.5t-35.5 -136.5zM439 1601l154 103l215 -358l-123 -74z" />
<glyph unicode="&#xe9;" d="M119 544q0 119 28 218t76 168t113 117t139.5 70.5t155.5 22.5q47 0 92.5 -8.5t91 -27t86 -50t74.5 -74t59 -103t37 -132.5q18 -109 8 -213h-790q4 -96 30.5 -171t65 -120t89 -74t97.5 -39.5t95 -10.5q84 0 159 32t129 93l98 -94q-70 -85 -173.5 -129t-225.5 -44 q-114 0 -211 37t-169 107.5t-113 179.5t-41 245zM294 666h613q10 90 -24.5 168t-105.5 125t-159 47q-39 0 -77 -10t-79 -34.5t-74 -61.5t-58.5 -97.5t-35.5 -136.5zM496 1346l214 358l154 -103l-245 -329z" />
<glyph unicode="&#xea;" d="M119 544q0 119 28 218t76 168t113 117t139.5 70.5t155.5 22.5q47 0 92.5 -8.5t91 -27t86 -50t74.5 -74t59 -103t37 -132.5q18 -109 8 -213h-790q4 -96 30.5 -171t65 -120t89 -74t97.5 -39.5t95 -10.5q84 0 159 32t129 93l98 -94q-70 -85 -173.5 -129t-225.5 -44 q-114 0 -211 37t-169 107.5t-113 179.5t-41 245zM294 666h613q10 90 -24.5 168t-105.5 125t-159 47q-39 0 -77 -10t-79 -34.5t-74 -61.5t-58.5 -97.5t-35.5 -136.5zM326 1327l271 343h53l269 -346l-113 -83l-190 250l-197 -247z" />
<glyph unicode="&#xeb;" d="M119 544q0 119 28 218t76 168t113 117t139.5 70.5t155.5 22.5q47 0 92.5 -8.5t91 -27t86 -50t74.5 -74t59 -103t37 -132.5q18 -109 8 -213h-790q4 -96 30.5 -171t65 -120t89 -74t97.5 -39.5t95 -10.5q84 0 159 32t129 93l98 -94q-70 -85 -173.5 -129t-225.5 -44 q-114 0 -211 37t-169 107.5t-113 179.5t-41 245zM277 1497q0 51 36.5 87t87.5 36q33 0 61.5 -16.5t45 -45t16.5 -61.5t-16.5 -61.5t-45 -45.5t-61.5 -17q-51 0 -87.5 36.5t-36.5 87.5zM294 666h613q10 90 -24.5 168t-105.5 125t-159 47q-39 0 -77 -10t-79 -34.5t-74 -61.5 t-58.5 -97.5t-35.5 -136.5zM713 1497q0 33 16.5 61.5t45 45t60.5 16.5q50 0 86 -36t36 -87t-36 -87.5t-86 -36.5q-24 0 -46.5 10t-39 26.5t-26.5 39.5t-10 48z" />
<glyph unicode="&#xec;" d="M244 0v140h284v832h-270v143h446v-975h261v-140h-721zM313 1601l153 103l216 -358l-123 -74z" />
<glyph unicode="&#xed;" d="M244 0v140h284v832h-270v143h446v-975h261v-140h-721zM475 1346l215 358l154 -103l-247 -329z" />
<glyph unicode="&#xee;" d="M244 0v140h284v832h-270v143h446v-975h261v-140h-721zM276 1327l271 343h53l269 -346l-113 -83l-191 250l-197 -247z" />
<glyph unicode="&#xef;" d="M244 0v140h284v832h-270v143h446v-975h261v-140h-721zM249 1497q0 51 35.5 87t86.5 36q34 0 62 -16.5t44.5 -45t16.5 -61.5t-16.5 -61.5t-44.5 -45.5t-62 -17q-50 0 -86 36.5t-36 87.5zM683 1497q0 51 36 87t87 36q32 0 60 -16.5t44.5 -45t16.5 -61.5q0 -25 -9.5 -48 t-26 -39.5t-39 -26.5t-47 -10t-47 10t-39 26.5t-26.5 39.5t-10 48z" />
<glyph unicode="&#xf0;" d="M99 542.5q0 122.5 41.5 234t110.5 190.5t162 125.5t193 46.5q56 0 109.5 -15.5t100 -44t82.5 -67.5q-73 187 -209 334l-311 -88l-44 115l254 69q-113 96 -249 156l198 41q111 -63 212 -153l263 73l41 -110l-208 -59q277 -315 277 -774q0 -259 -95 -417 q-66 -110 -173 -169.5t-230 -59.5q-105 0 -201 43t-167.5 117.5t-114 182t-42.5 230zM284 566q0 -102 28.5 -187.5t75.5 -140.5t107.5 -85t126.5 -30q44 0 86.5 13t86 45.5t76.5 81.5t53.5 127t20.5 175t-22 173.5t-55.5 122.5t-78 76t-86 41t-82.5 11q-63 0 -122 -26.5 t-107.5 -76.5t-78 -133t-29.5 -187z" />
<glyph unicode="&#xf1;" d="M167 0v1113h178v-196q31 48 71.5 88t87.5 70.5t101.5 47.5t109.5 17q97 0 176 -52t121 -144q18 -42 27.5 -93t11 -85.5t1.5 -90.5v-675h-173v671v50t-3.5 49t-9.5 53t-18 48t-29 46q-60 71 -151 71q-42 0 -85 -16t-78 -40.5t-61 -49.5t-44 -49q-33 -44 -44 -87t-11 -105 v-641h-178zM208 1436q134 211 276 211q21 0 41.5 -4.5t35 -10t33 -17.5t27 -17.5t24.5 -21t18.5 -18t15.5 -16.5q36 -37 63.5 -56.5t58.5 -19.5q17 0 31.5 5.5t30 20.5t24 25.5t27.5 37.5t28 40l91 -98q-72 -90 -125 -131.5t-115 -41.5q-40 0 -77 19t-65.5 46.5t-56 54.5 t-58 46t-59.5 19q-44 0 -76 -33.5t-83 -116.5z" />
<glyph unicode="&#xf2;" d="M99 549q0 126 42.5 236.5t114.5 187t168.5 121t201.5 44.5q54 0 107 -12.5t102 -37t92 -60t79 -84.5t61.5 -107.5t39.5 -131t14 -153.5q0 -108 -26.5 -202t-73.5 -162.5t-110 -118t-137.5 -74.5t-153.5 -25q-104 0 -199.5 43.5t-166.5 118.5t-113 183.5t-42 233.5z M284 563q0 -100 28 -184.5t74.5 -140t107 -86.5t127.5 -31q62 0 119.5 27.5t103.5 78.5t73.5 133.5t27.5 183.5q0 110 -29 197.5t-77 140t-105.5 80t-119.5 27.5q-51 0 -99.5 -18t-90 -54t-73 -86t-49.5 -119.5t-18 -148.5zM439 1601l154 103l215 -358l-123 -74z" />
<glyph unicode="&#xf3;" d="M99 549q0 126 42.5 236.5t114.5 187t168.5 121t201.5 44.5q54 0 107 -12.5t102 -37t92 -60t79 -84.5t61.5 -107.5t39.5 -131t14 -153.5q0 -108 -26.5 -202t-73.5 -162.5t-110 -118t-137.5 -74.5t-153.5 -25q-104 0 -199.5 43.5t-166.5 118.5t-113 183.5t-42 233.5z M284 563q0 -100 28 -184.5t74.5 -140t107 -86.5t127.5 -31q62 0 119.5 27.5t103.5 78.5t73.5 133.5t27.5 183.5q0 110 -29 197.5t-77 140t-105.5 80t-119.5 27.5q-51 0 -99.5 -18t-90 -54t-73 -86t-49.5 -119.5t-18 -148.5zM496 1346l214 358l154 -103l-245 -329z" />
<glyph unicode="&#xf4;" d="M99 549q0 126 42.5 236.5t114.5 187t168.5 121t201.5 44.5q54 0 107 -12.5t102 -37t92 -60t79 -84.5t61.5 -107.5t39.5 -131t14 -153.5q0 -108 -26.5 -202t-73.5 -162.5t-110 -118t-137.5 -74.5t-153.5 -25q-104 0 -199.5 43.5t-166.5 118.5t-113 183.5t-42 233.5z M284 563q0 -100 28 -184.5t74.5 -140t107 -86.5t127.5 -31q62 0 119.5 27.5t103.5 78.5t73.5 133.5t27.5 183.5q0 110 -29 197.5t-77 140t-105.5 80t-119.5 27.5q-51 0 -99.5 -18t-90 -54t-73 -86t-49.5 -119.5t-18 -148.5zM326 1327l271 343h53l269 -346l-113 -83l-190 250 l-197 -247z" />
<glyph unicode="&#xf5;" d="M99 549q0 126 42.5 236.5t114.5 187t168.5 121t201.5 44.5q54 0 107 -12.5t102 -37t92 -60t79 -84.5t61.5 -107.5t39.5 -131t14 -153.5q0 -108 -26.5 -202t-73.5 -162.5t-110 -118t-137.5 -74.5t-153.5 -25q-104 0 -199.5 43.5t-166.5 118.5t-113 183.5t-42 233.5z M221 1436q134 211 275 211q28 0 56 -9t46 -18t40.5 -28t29 -25.5t23.5 -24.5q36 -37 63.5 -56.5t58.5 -19.5q17 0 31.5 5.5t29.5 20.5t23.5 25.5t28 37.5t28.5 40l91 -98q-73 -90 -125.5 -131.5t-115.5 -41.5q-39 0 -76 19t-65.5 46.5t-55.5 54.5t-57 46t-60 19 q-44 0 -76.5 -34t-83.5 -116zM284 563q0 -100 28 -184.5t74.5 -140t107 -86.5t127.5 -31q62 0 119.5 27.5t103.5 78.5t73.5 133.5t27.5 183.5q0 110 -29 197.5t-77 140t-105.5 80t-119.5 27.5q-51 0 -99.5 -18t-90 -54t-73 -86t-49.5 -119.5t-18 -148.5z" />
<glyph unicode="&#xf6;" d="M99 549q0 126 42.5 236.5t114.5 187t168.5 121t201.5 44.5q54 0 107 -12.5t102 -37t92 -60t79 -84.5t61.5 -107.5t39.5 -131t14 -153.5q0 -108 -26.5 -202t-73.5 -162.5t-110 -118t-137.5 -74.5t-153.5 -25q-104 0 -199.5 43.5t-166.5 118.5t-113 183.5t-42 233.5z M274 1497q0 51 35.5 87t86.5 36t87.5 -36t36.5 -87t-36.5 -87.5t-87 -36.5t-86.5 36.5t-36 87.5zM284 563q0 -100 28 -184.5t74.5 -140t107 -86.5t127.5 -31q62 0 119.5 27.5t103.5 78.5t73.5 133.5t27.5 183.5q0 110 -29 197.5t-77 140t-105.5 80t-119.5 27.5 q-51 0 -99.5 -18t-90 -54t-73 -86t-49.5 -119.5t-18 -148.5zM709 1497q0 51 36 87t86 36t86 -36t36 -87t-36 -87.5t-86 -36.5q-25 0 -47.5 10t-38.5 26.5t-26 39.5t-10 48z" />
<glyph unicode="&#xf7;" d="M173 685v162h877v-162h-877zM513 386.5q0 45.5 32 77.5t77.5 32t77.5 -32t32 -77.5t-32 -77.5t-77.5 -32t-77.5 32t-32 77.5zM513 1138q0 45 32 77t77.5 32t77.5 -32t32 -77.5t-32 -77.5t-78 -32q-29 0 -54.5 14.5t-40 40t-14.5 55.5z" />
<glyph unicode="&#xf8;" d="M99 549q0 126 42.5 236.5t114.5 187t168.5 121t201.5 44.5q97 0 190 -41l91 167l129 -69l-96 -178q56 -50 95.5 -116.5t62.5 -156t23 -192.5q0 -108 -26.5 -202t-73.5 -162.5t-110 -118t-137.5 -74.5t-153.5 -25q-119 0 -225 55l-99 -181l-126 66l108 198 q-84 79 -131.5 192.5t-47.5 248.5zM284 563q0 -176 81 -295l375 691q-59 30 -126 30q-51 0 -99.5 -18t-90 -54t-73 -86t-49.5 -119.5t-18 -148.5zM472 164q73 -43 149 -43q62 0 119.5 27.5t103.5 78.5t73.5 133.5t27.5 183.5q0 199 -91 319z" />
<glyph unicode="&#xf9;" d="M151 493l3 620h176v-620q0 -52 1 -81.5t10.5 -76t27.5 -83.5q32 -65 89.5 -101t123.5 -36q78 0 147.5 47t109.5 119q13 25 22 50.5t13.5 53.5t6.5 54.5t2 61.5v612h177v-1012q0 -64 12 -101h-184q-7 40 -5 86l2 84q-54 -92 -146.5 -144.5t-197.5 -52.5 q-111 0 -204.5 59.5t-141.5 167.5q-20 45 -30.5 101t-12 91.5t-1.5 100.5zM439 1601l154 103l215 -358l-123 -74z" />
<glyph unicode="&#xfa;" d="M151 493l3 620h176v-620q0 -52 1 -81.5t10.5 -76t27.5 -83.5q32 -65 89.5 -101t123.5 -36q78 0 147.5 47t109.5 119q13 25 22 50.5t13.5 53.5t6.5 54.5t2 61.5v612h177v-1012q0 -64 12 -101h-184q-7 40 -5 86l2 84q-54 -92 -146.5 -144.5t-197.5 -52.5 q-111 0 -204.5 59.5t-141.5 167.5q-20 45 -30.5 101t-12 91.5t-1.5 100.5zM496 1346l214 358l154 -103l-245 -329z" />
<glyph unicode="&#xfb;" d="M151 493l3 620h176v-620q0 -52 1 -81.5t10.5 -76t27.5 -83.5q32 -65 89.5 -101t123.5 -36q78 0 147.5 47t109.5 119q13 25 22 50.5t13.5 53.5t6.5 54.5t2 61.5v612h177v-1012q0 -64 12 -101h-184q-7 40 -5 86l2 84q-54 -92 -146.5 -144.5t-197.5 -52.5 q-111 0 -204.5 59.5t-141.5 167.5q-20 45 -30.5 101t-12 91.5t-1.5 100.5zM326 1327l271 343h53l269 -346l-113 -83l-190 250l-197 -247z" />
<glyph unicode="&#xfc;" d="M151 493l3 620h176v-620q0 -52 1 -81.5t10.5 -76t27.5 -83.5q32 -65 89.5 -101t123.5 -36q78 0 147.5 47t109.5 119q13 25 22 50.5t13.5 53.5t6.5 54.5t2 61.5v612h177v-1012q0 -64 12 -101h-184q-7 40 -5 86l2 84q-54 -92 -146.5 -144.5t-197.5 -52.5 q-111 0 -204.5 59.5t-141.5 167.5q-20 45 -30.5 101t-12 91.5t-1.5 100.5zM274 1497q0 51 35.5 87t86.5 36t87.5 -36t36.5 -87t-36.5 -87.5t-87 -36.5t-86.5 36.5t-36 87.5zM709 1497q0 51 36 87t86 36t86 -36t36 -87t-36 -87.5t-86 -36.5q-25 0 -47.5 10t-38.5 26.5 t-26 39.5t-10 48z" />
<glyph unicode="&#xfd;" d="M55 -330l90 157q7 -4 10 -11t5 -15.5t4 -12.5q3 -6 12 -15.5t24.5 -22t41 -21.5t53.5 -9q87 0 156 73q39 42 77 130l36 82l-452 1108h218q0 -8 -1.5 -15.5t-3.5 -12.5t-4 -12t-2 -13q0 -4 5 -19l326 -820l213 598q61 172 83 296h183q-47 -153 -112 -322l-346 -919 q-14 -39 -25 -63t-29.5 -55.5t-41.5 -57.5q-54 -61 -127 -91.5t-152 -30.5q-144 0 -241 94zM496 1346l214 358l154 -103l-245 -329z" />
<glyph unicode="&#xfe;" d="M148 -406v2026h192q1 -17 -7.5 -38.5t-8.5 -41.5v-598q28 46 67 82.5t84 61.5t96.5 38.5t104.5 13.5q67 0 131 -21t122.5 -67t102 -111t69.5 -160.5t26 -209.5q0 -119 -27 -219t-72 -169t-105 -117.5t-126.5 -71t-136.5 -22.5q-101 0 -190 47t-144 131v-554h-178z M324 517.5q0 -28.5 1.5 -71.5t5 -66.5t9.5 -50.5t16 -49q16 -37 43 -66.5t61 -48.5t72 -29t78 -10q26 0 52.5 4t60 15.5t63.5 30t60 50.5t51 73t34.5 101.5t13.5 132.5q0 84 -13.5 153t-35.5 115t-52 81t-60 55t-64 32t-59 16t-49 4q-56 0 -107 -19.5t-90.5 -56.5t-61.5 -86 q-17 -41 -23 -91.5t-6 -127.5v-90.5z" />
<glyph unicode="&#xff;" d="M55 -330l90 157q7 -4 10 -11t5 -15.5t4 -12.5q3 -6 12 -15.5t24.5 -22t41 -21.5t53.5 -9q87 0 156 73q39 42 77 130l36 82l-452 1108h218q0 -8 -1.5 -15.5t-3.5 -12.5t-4 -12t-2 -13q0 -4 5 -19l326 -820l213 598q61 172 83 296h183q-47 -153 -112 -322l-346 -919 q-14 -39 -25 -63t-29.5 -55.5t-41.5 -57.5q-54 -61 -127 -91.5t-152 -30.5q-144 0 -241 94zM274 1497q0 51 35.5 87t86.5 36t87.5 -36t36.5 -87t-36.5 -87.5t-87 -36.5t-86.5 36.5t-36 87.5zM709 1497q0 51 36 87t86 36t86 -36t36 -87t-36 -87.5t-86 -36.5q-25 0 -47.5 10 t-38.5 26.5t-26 39.5t-10 48z" />
<glyph unicode="&#x152;" d="M23 760q0 168 18 297.5t64 237.5q29 68 68 117.5t81.5 76t82.5 39t79 12.5q58 0 110 -23t90 -65v69h564v-151h-412v-499h349v-156h-349v-564h405v-151h-559v76q-36 -44 -88 -68.5t-111 -24.5q-47 0 -94 17t-93 52t-85.5 96.5t-65.5 144.5q-9 29 -19 70.5t-22.5 155 t-12.5 241.5zM178 790q0 -324 68 -490q20 -48 45 -82.5t51 -52t49 -25.5t46 -8q62 0 110.5 50.5t66.5 132.5v867q-7 22 -16 44.5t-22.5 48t-30 46.5t-36 39t-43.5 28t-51 10q-56 0 -106.5 -48.5t-82.5 -144.5q-48 -139 -48 -415z" />
<glyph unicode="&#x153;" d="M14 576q0 104 14 193t55 165q53 99 136.5 150.5t174.5 51.5q68 0 127.5 -29t98.5 -82q46 53 111.5 82t136.5 29q43 0 85.5 -12t82.5 -36t73 -65.5t52 -96.5q9 -22 15 -46t9.5 -52.5t5.5 -49t3 -55t1 -51v-56v-51.5v-27h-556q1 -117 8.5 -179.5t27.5 -106.5 q30 -69 90.5 -104t132.5 -35q60 0 119 23t102 72l86 -104q-40 -43 -90 -72.5t-106.5 -45t-114.5 -15.5q-157 0 -278 100q-49 -46 -112.5 -72t-128.5 -26q-38 0 -76.5 10.5t-78 32.5t-76 62t-62.5 93q-68 142 -68 405zM162 600q0 -189 36 -300q29 -92 83 -135.5t115 -43.5 q49 0 86 26t37 70q0 8 -8 54.5t-15.5 128.5t-7.5 175q0 79 5.5 148t10.5 109.5t5 50.5q0 31 -16 55.5t-43 37.5t-58 13q-54 0 -104.5 -36.5t-82.5 -105.5q-43 -91 -43 -247zM641 677h409v22q0 51 -1 76t-10 66t-26 71q-27 44 -71.5 67.5t-94.5 23.5q-54 0 -103.5 -31 t-75.5 -101q-29 -69 -27 -194z" />
<glyph unicode="&#x178;" d="M69 1521h194l372 -739l337 736h181l-432 -918v-600h-184v600zM263 1799q0 51 36 87t87 36t87 -36t36 -86.5t-36 -86.5t-87 -36t-87 35.5t-36 86.5zM699 1799.5q0 50.5 35.5 86.5t85.5 36t86 -36t36 -86.5t-36 -86.5t-86 -36t-85.5 36t-35.5 86.5z" />
<glyph unicode="&#x2c6;" d="M326 1327l271 343h53l269 -346l-113 -83l-190 250l-197 -247z" />
<glyph unicode="&#x2dc;" d="M221 1436q134 211 275 211q28 0 56 -9t46 -18t40.5 -28t29 -25.5t23.5 -24.5q36 -37 63.5 -56.5t58.5 -19.5q17 0 31.5 5.5t29.5 20.5t23.5 25.5t28 37.5t28.5 40l91 -98q-73 -90 -125.5 -131.5t-115.5 -41.5q-39 0 -76 19t-65.5 46.5t-55.5 54.5t-57 46t-60 19 q-44 0 -76.5 -34t-83.5 -116z" />
<glyph unicode="&#x2000;" horiz-adv-x="977" />
<glyph unicode="&#x2001;" horiz-adv-x="1954" />
<glyph unicode="&#x2002;" horiz-adv-x="977" />
<glyph unicode="&#x2003;" horiz-adv-x="1954" />
<glyph unicode="&#x2004;" horiz-adv-x="651" />
<glyph unicode="&#x2005;" horiz-adv-x="488" />
<glyph unicode="&#x2006;" horiz-adv-x="325" />
<glyph unicode="&#x2007;" horiz-adv-x="325" />
<glyph unicode="&#x2008;" horiz-adv-x="244" />
<glyph unicode="&#x2009;" horiz-adv-x="390" />
<glyph unicode="&#x200a;" horiz-adv-x="108" />
<glyph unicode="&#x2010;" d="M173 685v162h877v-162h-877z" />
<glyph unicode="&#x2011;" d="M173 685v162h877v-162h-877z" />
<glyph unicode="&#x2012;" d="M173 685v162h877v-162h-877z" />
<glyph unicode="&#x2013;" horiz-adv-x="1365" d="M173 685v162h1024v-162h-1024z" />
<glyph unicode="&#x2014;" horiz-adv-x="2389" d="M173 685v162h2048v-162h-2048z" />
<glyph unicode="&#x2018;" d="M444 1096q0 96 66 212.5t193 245.5l84 -74q-70 -64 -123 -151q-36 -57 -36 -102q0 -12 2.5 -22.5t8.5 -19.5t9.5 -14t13 -12.5t12 -9t11.5 -8.5q14 -9 21 -14.5t20.5 -19.5t20 -32.5t6.5 -41.5q0 -37 -18 -69t-50.5 -51t-71.5 -19q-68 0 -118.5 56t-50.5 146z" />
<glyph unicode="&#x2019;" d="M402 967q70 65 123 152q35 57 35 102q0 23 -11 42t-20 26.5t-26 18.5q-14 10 -20 14.5t-20 18.5t-20.5 32.5t-6.5 41.5q0 27 10.5 52.5t29 44.5t45 30.5t55.5 11.5q68 0 118.5 -56t50.5 -146q0 -96 -66 -212.5t-193 -245.5z" />
<glyph unicode="&#x201a;" d="M402 -337q68 63 123 153q35 57 35 101q0 23 -11 42t-20 26.5t-26 18.5q-14 9 -20 14t-20 19t-20.5 32.5t-6.5 41.5q0 56 40.5 97.5t99.5 41.5q68 0 118.5 -56t50.5 -146q0 -96 -66 -212.5t-193 -246.5z" />
<glyph unicode="&#x201c;" d="M192 1096q0 96 65.5 212.5t192.5 245.5l84 -74q-70 -64 -122 -151q-36 -57 -36 -102q0 -14 4.5 -27t9 -20.5t15 -16.5t14 -11.5t14.5 -10.5q14 -9 21 -14.5t20.5 -19.5t20 -32.5t6.5 -41.5q0 -56 -41 -97.5t-99 -41.5q-69 0 -119 56t-50 146zM696 1096q0 96 66 212.5 t194 245.5l83 -74q-70 -64 -123 -151q-35 -57 -35 -102q0 -18 5 -32t16 -25t16.5 -15.5t19.5 -13.5q13 -9 20 -14.5t20.5 -19.5t20.5 -32.5t7 -41.5q0 -37 -18.5 -69t-51 -51t-71.5 -19q-68 0 -118.5 56t-50.5 146z" />
<glyph unicode="&#x201d;" d="M149 967q70 65 122 152q37 59 37 102q0 23 -11 42t-20 26.5t-26 18.5q-15 10 -21 14.5t-20 18.5t-20.5 32.5t-6.5 41.5q0 56 41 97.5t100 41.5q68 0 118.5 -56t50.5 -146q0 -96 -66 -212.5t-194 -245.5zM654 967q70 65 123 152q36 57 36 102q0 23 -11.5 42t-20.5 26.5 t-25 18.5q-15 10 -21 14.5t-20 18.5t-20.5 32.5t-6.5 41.5q0 56 40.5 97.5t99.5 41.5q69 0 119 -56t50 -146q0 -96 -66 -212.5t-193 -245.5z" />
<glyph unicode="&#x201e;" d="M149 -337q68 63 122 153q37 59 37 101q0 23 -11 42t-20 26.5t-26 18.5q-15 9 -21 14t-20 19t-20.5 32.5t-6.5 41.5q0 36 18.5 68t51 51.5t71.5 19.5q68 0 118.5 -56t50.5 -146q0 -96 -66 -212.5t-194 -246.5zM654 -337q69 63 123 153q36 57 36 101q0 23 -11.5 42 t-20.5 26.5t-25 18.5q-15 9 -21 14t-20 19t-20.5 32.5t-6.5 41.5q0 56 40.5 97.5t99.5 41.5q69 0 119 -56t50 -146q0 -96 -66 -212.5t-193 -246.5z" />
<glyph unicode="&#x2022;" d="M416 722q0 42 16.5 79.5t44 64.5t66 43.5t81.5 16.5q86 0 146.5 -60t60.5 -144q0 -55 -27.5 -101.5t-75.5 -74t-104 -27.5q-86 0 -147 59.5t-61 143.5z" />
<glyph unicode="&#x2026;" d="M17 113q0 57 42 98t102 41q39 0 72 -18.5t52.5 -50.5t19.5 -70q0 -57 -42.5 -98.5t-101.5 -41.5q-60 0 -102 41t-42 99zM438 113q0 57 42 98t102 41t102 -41t42 -98t-42.5 -98.5t-101.5 -41.5q-29 0 -56 11t-46 30t-30.5 45t-11.5 54zM858 113q0 57 42 98t102 41 q39 0 72.5 -18.5t52.5 -50.5t19 -70q0 -57 -42.5 -98.5t-101.5 -41.5q-60 0 -102 41t-42 99z" />
<glyph unicode="&#x202f;" horiz-adv-x="390" />
<glyph unicode="&#x2039;" d="M353 559v57l371 360l95 -101l-295 -288l311 -341l-97 -97z" />
<glyph unicode="&#x203a;" d="M353 246l312 341l-295 288l95 101l370 -360v-57l-385 -410z" />
<glyph unicode="&#x205f;" horiz-adv-x="488" />
<glyph unicode="&#x20ac;" d="M80 532l32 142h97v38q0 93 6 157h-135l32 140h124q29 141 86 241q45 78 105.5 135t125.5 87.5t126.5 44t122.5 13.5q97 0 181.5 -34t148.5 -98l-61 -165q-10 8 -13 25.5t-8 24.5q-109 108 -257 108q-38 0 -75.5 -7.5t-76 -23.5t-74 -42.5t-67 -62.5t-58 -87t-43.5 -111 q-9 -33 -12 -48h602l-52 -140h-570q-6 -70 -6 -144q0 -35 1 -51h501l-55 -142h-433q25 -149 100 -249q61 -83 146.5 -123.5t175.5 -40.5q150 0 261 100l69 -123q-69 -60 -156.5 -91.5t-183.5 -31.5q-45 0 -90.5 7t-97 25t-98.5 45.5t-92.5 72t-81.5 101t-64 135.5t-42 173 h-141z" />
<glyph unicode="&#x2122;" d="M43 1449v98h539v-98h-219v-670h-111v670h-209zM652 779v768h86l175 -353l91 176l92 177h80v-768h-103v524l-73 -133l-73 -130l-38 2l-135 261v-524h-102z" />
<glyph unicode="&#x25fc;" horiz-adv-x="1107" d="M0 0v1109h1109v-1109h-1109z" />
</font>
</defs>
</svg>
