<?xml version="1.0" standalone="no"?>
<!DOCTYPE svg PUBLIC "-//W3C//DTD SVG 1.1//EN" "http://www.w3.org/Graphics/SVG/1.1/DTD/svg11.dtd" >
<svg xmlns="http://www.w3.org/2000/svg" xmlns:xlink="http://www.w3.org/1999/xlink" version="1.1">
<metadata></metadata>
<defs>
<font id="source_sans_proSBdIt" horiz-adv-x="0" >
<font-face units-per-em="2048" ascent="1536" descent="-512" />
<missing-glyph horiz-adv-x="442" />
<glyph unicode="ff" horiz-adv-x="1338" d="M91 0l187 922h-146l37 182l145 13l22 106q37 171 134.5 279t268.5 108q66 0 121.5 -15t107.5 -40l-81 -175q-26 11 -56.5 22.5t-69.5 11.5q-73 0 -118 -44.5t-64 -139.5l-22 -113h406l28 128q35 171 130.5 279t262.5 108q63 0 117 -14.5t102 -40.5l-80 -174 q-22 11 -52 22t-64 11q-69 0 -112 -44t-61 -140l-27 -135h209l-38 -195h-209l-187 -922h-243l187 922h-408l-184 -922h-243z" />
<glyph unicode="ft" horiz-adv-x="1377" d="M91 0l184 922h-143l37 182l145 13l27 128q34 171 129.5 279t264.5 108q63 0 116.5 -14.5t103.5 -40.5l-83 -174q-20 11 -50.5 22t-64.5 11q-68 0 -111 -44t-62 -140l-27 -135h361l89 299h205l-60 -299h269l-39 -195h-273l-113 -553q-7 -42 -7 -80q0 -61 29.5 -92 t100.5 -31q30 0 54.5 9t49.5 20l46 -173q-41 -18 -100.5 -34t-136.5 -16q-156 0 -223.5 79t-67.5 194q0 64 14 132l113 545h-350l-184 -922h-243z" />
<glyph />
<glyph />
<glyph unicode="&#xd;" horiz-adv-x="442" />
<glyph unicode=" "  horiz-adv-x="442" />
<glyph unicode="&#x09;" horiz-adv-x="442" />
<glyph unicode="&#xa0;" horiz-adv-x="442" />
<glyph unicode="!" horiz-adv-x="697" d="M100 113q0 37 14 72.5t40 62.5t60 44.5t75 17.5q61 0 97.5 -41t36.5 -103q0 -36 -14 -71.5t-39 -63t-58.5 -43.5t-75.5 -16q-61 0 -98.5 40t-37.5 101zM248 482l127 793l39 250h243l-54 -250l-191 -793h-164z" />
<glyph unicode="&#x22;" horiz-adv-x="1045" d="M282 896l50 379l39 250h241l-55 -250l-112 -379h-163zM720 896l50 379l39 250h241l-55 -250l-112 -379h-163z" />
<glyph unicode="#" horiz-adv-x="1119" d="M48 445l39 167h186l93 299h-177l41 167h188l128 399h152l-127 -399h254l127 399h152l-126 -399h174l-41 -167h-185l-94 -299h177l-39 -167h-191l-141 -445h-150l141 445h-256l-141 -445h-150l141 445h-175zM425 612h257l93 299h-257z" />
<glyph unicode="$" horiz-adv-x="1122" d="M26 193l152 150q52 -68 128 -120t171 -52q109 0 174 59t65 158q0 74 -35 128.5t-87.5 101t-112.5 89.5t-112.5 94t-88 115t-35.5 151q0 86 29.5 159.5t84.5 128.5t130 88.5t168 40.5l43 225h168l-45 -238q79 -22 147.5 -71t122.5 -118l-156 -139q-46 64 -108.5 105 t-132.5 41q-95 0 -152.5 -53.5t-57.5 -139.5q0 -61 35.5 -109t88 -91.5t113 -86.5t112.5 -97.5t87 -124t35 -164.5q0 -91 -30.5 -168t-86 -137.5t-135.5 -97t-178 -46.5l-45 -224h-168l48 234q-100 23 -186.5 78.5t-149.5 130.5z" />
<glyph unicode="%" horiz-adv-x="1840" d="M130 941q0 111 29.5 218.5t84 189t132.5 131.5t179 50q66 0 120 -26t94 -71.5t62 -111t22 -143.5q0 -113 -29.5 -220.5t-84.5 -189t-134.5 -132t-177.5 -50.5q-65 0 -121 27t-94.5 73t-60 111t-21.5 144zM309 948q0 -95 31 -153t101 -58q54 0 96.5 36t73 98t46.5 139 t16 159q0 95 -31 153t-101 58q-55 0 -97 -36t-72.5 -96.5t-46.5 -139t-16 -160.5zM314 -28l1089 1555h150l-1089 -1555h-150zM1035 327q0 111 29.5 218.5t84 189t132.5 131.5t179 50q66 0 120 -26t94 -71.5t62 -111t22 -143.5q0 -113 -29.5 -220.5t-84.5 -189t-134.5 -132 t-177.5 -50.5q-65 0 -121 27t-94.5 73t-60 111t-21.5 144zM1214 334q0 -95 31 -153t101 -58q54 0 96.5 36t73 98t46.5 139t16 159q0 95 -31 153t-101 58q-55 0 -97 -36t-72.5 -96.5t-46.5 -139t-16 -160.5z" />
<glyph unicode="&#x26;" horiz-adv-x="1381" d="M34 332q0 91 29.5 163.5t79.5 131.5t115 105.5t135 87.5q-20 66 -31.5 129.5t-11.5 123.5q0 94 33 174.5t91 139.5t135 93t164 34q136 0 205.5 -75t69.5 -196q0 -86 -35 -155t-92 -127.5t-130 -108t-147 -95.5q48 -98 114.5 -189t143.5 -168q85 91 147 194.5t115 223.5 h222q-67 -145 -151.5 -280.5t-193.5 -257.5q59 -44 118.5 -71t107.5 -43l-98 -194q-73 18 -147 57t-147 96q-98 -73 -208 -113t-235 -40q-184 0 -291 98.5t-107 261.5zM271 360q0 -89 55.5 -145t150.5 -56q130 0 262 91q-82 86 -152.5 185t-122.5 207q-84 -59 -138.5 -127.5 t-54.5 -154.5zM557 1082q0 -39 5.5 -79t16.5 -77q57 32 107.5 66t87.5 71t59 81.5t22 96.5q0 45 -24 76t-74 31q-82 0 -141 -72.5t-59 -193.5z" />
<glyph unicode="'" horiz-adv-x="606" d="M282 896l50 379l39 250h241l-55 -250l-112 -379h-163z" />
<glyph unicode="(" horiz-adv-x="703" d="M137 300q0 197 34.5 374.5t103 343.5t167.5 325.5t226 320.5l143 -74q-240 -315 -357.5 -640t-117.5 -670q0 -76 5.5 -158.5t16.5 -164.5t27.5 -158.5t41.5 -139.5l-158 -64q-53 145 -92.5 331.5t-39.5 373.5z" />
<glyph unicode=")" horiz-adv-x="708" d="M-87 -327q241 311 357 637t116 672q0 76 -5.5 158.5t-16 164t-27 157.5t-40.5 141l158 61q28 -73 51 -156t41.5 -174t28.5 -185.5t10 -187.5q0 -197 -35 -375.5t-103 -344.5t-167 -325t-227 -321z" />
<glyph unicode="*" horiz-adv-x="956" d="M256 1328l58 118l232 -75l66 250l132 -9l-19 -257l245 31l21 -126l-243 -80l87 -232l-119 -68l-130 207l-191 -180l-95 89l164 214z" />
<glyph unicode="+" horiz-adv-x="1122" d="M109 664v175h392v432h181v-432h391v-175h-394v-439h-184v439h-386z" />
<glyph unicode="," horiz-adv-x="606" d="M-65 -262q117 39 185.5 107t88.5 151q-66 0 -108 36t-42 100q0 68 47.5 123t129.5 55q78 0 118.5 -50.5t40.5 -136.5q0 -95 -30.5 -180.5t-87 -154t-136.5 -117t-178 -71.5z" />
<glyph unicode="-" horiz-adv-x="703" d="M78 484l35 180h516l-38 -180h-513z" />
<glyph unicode="." horiz-adv-x="606" d="M52 113q0 37 14 72.5t40 62.5t60 44.5t75 17.5q61 0 96.5 -41t35.5 -103q0 -36 -14 -71.5t-38 -63t-58.5 -43.5t-76.5 -16q-61 0 -97.5 40t-36.5 101z" />
<glyph unicode="/" horiz-adv-x="759" d="M-159 -364l914 1978h167l-918 -1978h-163z" />
<glyph unicode="0" horiz-adv-x="1122" d="M91 477q0 223 52 406.5t139 315t198 203t229 71.5q87 0 157.5 -35t119.5 -101t76 -160.5t27 -213.5q0 -223 -51 -404.5t-136.5 -312.5t-197 -202.5t-229.5 -71.5q-178 0 -281 135.5t-103 369.5zM319 460q0 -144 41.5 -220.5t127.5 -76.5q76 0 143 69.5t119.5 183 t83 261.5t30.5 305q0 144 -42 223t-128 79q-76 0 -143 -70.5t-119 -185t-82.5 -263.5t-30.5 -305z" />
<glyph unicode="1" horiz-adv-x="1122" d="M50 0l41 198h306l199 977h-262l32 155q109 18 189.5 45.5t153.5 70.5h185l-252 -1248h278l-38 -198h-832z" />
<glyph unicode="2" horiz-adv-x="1122" d="M-28 0l28 141q195 163 349 293t258.5 237.5t158.5 204.5t54 197q0 89 -51 147t-153 58q-65 0 -131.5 -34t-134.5 -96l-120 145q102 87 204 133.5t212 46.5q195 0 304 -103t109 -270q0 -113 -44.5 -214t-129.5 -205t-209.5 -219t-284.5 -256h555l-39 -206h-935z" />
<glyph unicode="3" horiz-adv-x="1122" d="M-28 228l156 126q56 -80 136.5 -131.5t176.5 -51.5q136 0 219.5 69.5t83.5 182.5q0 52 -19.5 94t-65 72.5t-119.5 48t-186 17.5l37 177q125 0 208 23t133.5 59t70.5 84t20 95q0 82 -50 133.5t-153 51.5q-123 0 -256 -103l-121 159q102 73 207 106t214 33q188 0 297.5 -92 t109.5 -247q0 -138 -76.5 -238t-246.5 -152v-9q118 -43 178.5 -124.5t60.5 -185.5q0 -106 -41 -190.5t-114 -142.5t-173 -89t-218 -31q-141 0 -264 68.5t-205 187.5z" />
<glyph unicode="4" horiz-adv-x="1122" d="M18 375l32 168l729 903h284l-176 -880h176l-35 -191h-178l-75 -375h-224l74 375h-607zM300 566h362l69 343q14 73 34 150.5t38 154.5h-9q-44 -65 -86 -129t-85 -122z" />
<glyph unicode="5" horiz-adv-x="1122" d="M-13 225l156 127q52 -78 122.5 -129.5t179.5 -51.5q61 0 118 22.5t99.5 65.5t68.5 104.5t26 137.5q0 121 -61.5 179.5t-168.5 58.5q-32 0 -58 -4t-51 -12.5t-53.5 -21t-64.5 -33.5l-96 78l180 700h730l-41 -205h-518l-98 -354q37 18 76.5 26.5t86.5 8.5q83 0 152 -23.5 t120.5 -71.5t80.5 -119.5t29 -166.5q0 -133 -47.5 -237t-126 -178t-179.5 -114t-211 -40q-143 0 -256.5 66t-194.5 187z" />
<glyph unicode="6" horiz-adv-x="1122" d="M115 475q0 221 53 404.5t146 316t221.5 205t280.5 72.5q63 0 116 -17t94 -44.5t72.5 -61.5t53.5 -68l-156 -130q-37 57 -83.5 90t-112.5 33q-75 0 -143.5 -36.5t-125 -104t-100 -168t-65.5 -227.5q70 76 156.5 113t152.5 37q156 0 255.5 -95.5t99.5 -281.5 q0 -107 -36.5 -204t-102.5 -172t-155.5 -119.5t-194.5 -44.5q-98 0 -176.5 37t-134 104t-85.5 159t-30 203zM343 457q0 -138 58.5 -219t153.5 -81q57 0 102.5 29.5t78 76.5t51 104.5t18.5 116.5q0 109 -48 170.5t-143 61.5q-50 0 -121.5 -33t-147.5 -126q-2 -25 -2 -50v-50z " />
<glyph unicode="7" horiz-adv-x="1122" d="M234 1241l41 205h927l-29 -155q-166 -154 -277 -310t-186.5 -316t-123.5 -326t-83 -339h-253q50 195 108 366.5t133 324.5t171.5 288t224.5 262h-653z" />
<glyph unicode="8" horiz-adv-x="1122" d="M82 350q0 77 26 143t70.5 118.5t103.5 92.5t125 66v9q-63 63 -95 133t-32 157q0 95 36 170t97.5 127.5t142 79.5t171.5 27q70 0 137.5 -20.5t120 -61t85 -104.5t32.5 -150q0 -141 -73.5 -237.5t-193.5 -162.5v-10q70 -48 128 -130.5t58 -196.5q0 -100 -41 -178.5 t-110.5 -134t-160.5 -85.5t-191 -30q-77 0 -155.5 23t-141 68.5t-101 117t-38.5 169.5zM302 377q0 -104 65 -168t167 -64q50 0 97.5 16.5t84.5 48t58.5 77t21.5 106.5q0 52 -21.5 94t-60.5 78t-91 66.5t-111 64.5q-91 -57 -150.5 -133.5t-59.5 -185.5zM495 1080 q0 -100 58.5 -159.5t162.5 -113.5q68 50 121.5 121.5t53.5 173.5q0 89 -48.5 142.5t-133.5 53.5q-86 0 -150 -57t-64 -161z" />
<glyph unicode="9" horiz-adv-x="1122" d="M32 163l159 130q34 -57 81 -89.5t112 -32.5q76 0 144 36t124.5 105.5t100 169.5t67.5 227q-67 -75 -155 -113.5t-153 -38.5q-157 0 -257.5 96.5t-100.5 281.5q0 104 37 201.5t103 172.5t154 119.5t196 44.5q97 0 176.5 -37t135 -103t85.5 -158.5t30 -204.5 q0 -223 -54 -405.5t-147 -314.5t-221 -205t-280 -73q-64 0 -115.5 17.5t-92 44.5t-74 61.5t-55.5 67.5zM380 961q0 -109 48.5 -170.5t144.5 -61.5q50 0 121.5 34.5t146.5 130.5q3 25 3 47v48q0 139 -58.5 219.5t-153.5 80.5q-57 0 -103.5 -29.5t-79.5 -76t-51 -105.5 t-18 -117z" />
<glyph unicode=":" horiz-adv-x="606" d="M52 113q0 37 14 72.5t40 62.5t60 44.5t75 17.5q61 0 96.5 -41t35.5 -103q0 -36 -14 -71.5t-38 -63t-58.5 -43.5t-76.5 -16q-61 0 -97.5 40t-36.5 101zM189 911q0 37 14 72.5t40 62.5t60 44.5t75 17.5q61 0 96.5 -41t35.5 -103q0 -36 -14 -71.5t-38 -63t-58.5 -43.5 t-76.5 -16q-61 0 -97.5 40t-36.5 101z" />
<glyph unicode=";" horiz-adv-x="606" d="M-65 -262q117 39 185.5 107t88.5 151q-66 0 -108 36t-42 100q0 68 47.5 123t129.5 55q78 0 118.5 -50.5t40.5 -136.5q0 -95 -30.5 -180.5t-87 -154t-136.5 -117t-178 -71.5zM189 911q0 37 14 72.5t40 62.5t60 44.5t75 17.5q61 0 96.5 -41t35.5 -103q0 -36 -14 -71.5 t-38 -63t-58.5 -43.5t-76.5 -16q-61 0 -97.5 40t-36.5 101z" />
<glyph unicode="&#x3c;" horiz-adv-x="1122" d="M104 664v175l969 389v-202l-425 -160l-288 -109v-9l288 -106l425 -160v-207z" />
<glyph unicode="=" horiz-adv-x="1122" d="M109 412v175h964v-175h-964zM109 916v175h964v-175h-964z" />
<glyph unicode="&#x3e;" horiz-adv-x="1122" d="M109 275v207l425 160l289 106v9l-289 109l-425 160v202l969 -389v-175z" />
<glyph unicode="?" horiz-adv-x="970" d="M209 113q0 37 13.5 72.5t38.5 62.5t60.5 44.5t75.5 17.5q61 0 96.5 -41t35.5 -103q0 -36 -13 -71.5t-37 -63t-59.5 -43.5t-76.5 -16q-61 0 -97.5 40t-36.5 101zM254 1391q73 73 166.5 116.5t195.5 43.5q173 0 276.5 -86.5t103.5 -243.5q0 -91 -30.5 -158t-78.5 -122.5 t-105 -105.5t-108 -103t-88.5 -114t-47.5 -143l-208 18q6 93 41.5 163.5t82.5 126.5t100 102.5t98.5 92t75 94.5t29.5 110q0 80 -45.5 125.5t-125.5 45.5q-54 0 -106.5 -27.5t-97.5 -75.5z" />
<glyph unicode="@" horiz-adv-x="1909" d="M100 371q0 238 84.5 443t225.5 355t324.5 235t384.5 85q169 0 300.5 -52.5t222.5 -144.5t138.5 -218t47.5 -271q0 -174 -42 -305.5t-112.5 -220t-162.5 -134t-195 -45.5q-79 0 -138 44t-78 127h-7q-47 -66 -115.5 -108.5t-140.5 -42.5q-57 0 -106 21.5t-86.5 62.5 t-59 100.5t-21.5 133.5q0 105 36 204t97.5 176.5t143 124t175.5 46.5q106 0 162 -112h4l35 93h152l-115 -497q-25 -102 0.5 -159.5t107.5 -57.5q50 0 103 34.5t97.5 100.5t73 162.5t28.5 223.5q0 115 -31.5 218t-100 179t-176.5 121.5t-260 45.5q-150 0 -296.5 -72 t-264 -197.5t-190 -297t-72.5 -372.5q0 -152 48 -267t127 -192.5t185 -116t219 -38.5q74 0 150 20.5t139 59.5l69 -137q-187 -98 -378 -98q-149 0 -282.5 48t-233.5 141t-158 231t-58 320zM750 455q0 -89 36.5 -133t98.5 -44q43 0 85.5 29t88.5 95l78 339q-26 48 -54.5 67 t-61.5 19q-59 0 -109.5 -35t-85.5 -89.5t-55.5 -120.5t-20.5 -127z" />
<glyph unicode="A" horiz-adv-x="1202" d="M-132 0l796 1486h291l159 -1486h-255l-29 418h-485l-206 -418h-271zM436 605h380l-16 225q-6 116 -14.5 227.5t-12.5 233.5h-9q-55 -123 -106 -234t-110 -227z" />
<glyph unicode="B" horiz-adv-x="1349" d="M73 0l296 1486h427q219 0 349 -82.5t130 -251.5q0 -70 -26 -130.5t-70.5 -108t-103.5 -81.5t-127 -49l-2 -10q121 -30 192.5 -100t71.5 -191q0 -128 -49.5 -219.5t-134.5 -150t-199.5 -85.5t-247.5 -27h-506zM354 191h225q185 0 289.5 68t104.5 212q0 102 -73 161.5 t-216 59.5h-229zM488 864h182q185 0 270.5 68t85.5 182q0 87 -68.5 134t-211.5 47h-169z" />
<glyph unicode="C" horiz-adv-x="1269" d="M130 584q0 184 57.5 352t161.5 297t247 205t313 76q130 0 225.5 -62.5t154.5 -165.5l-168 -129q-43 67 -98 106.5t-127 39.5q-113 0 -207.5 -61.5t-163 -160.5t-107 -224.5t-38.5 -253.5q0 -94 19 -171.5t61.5 -132t107 -85t155.5 -30.5q80 0 149 34t135 88l107 -156 q-75 -66 -185.5 -122t-253.5 -56q-128 0 -229 43.5t-171.5 123.5t-107.5 192t-37 253z" />
<glyph unicode="D" horiz-adv-x="1371" d="M73 0l296 1486h301q312 0 478 -148.5t166 -432.5q0 -211 -58 -379.5t-163.5 -284.5t-254.5 -178.5t-333 -62.5h-432zM357 198h144q125 0 228 46.5t178 135t115.5 217t40.5 292.5q0 200 -104 300t-295 100h-91z" />
<glyph unicode="E" horiz-adv-x="1169" d="M73 0l296 1486h852l-41 -206h-609l-80 -400h516l-41 -207h-513l-96 -467h628l-41 -206h-871z" />
<glyph unicode="F" horiz-adv-x="1111" d="M73 0l296 1486h852l-41 -206h-609l-87 -439h516l-41 -207h-514l-126 -634h-246z" />
<glyph unicode="G" horiz-adv-x="1363" d="M130 584q0 184 57.5 353.5t163.5 297t254 203.5t327 76q139 0 237 -62.5t156 -165.5l-168 -129q-44 67 -100.5 106.5t-138.5 39.5q-121 0 -220.5 -61.5t-170 -160.5t-109 -224.5t-38.5 -253.5q0 -94 19 -170t62.5 -133t112 -87.5t165.5 -30.5q64 0 116 19.5t91 50.5 l73 351h-275l39 200h492l-134 -678q-82 -65 -194 -109t-249 -44q-273 0 -420.5 164t-147.5 448z" />
<glyph unicode="H" horiz-adv-x="1449" d="M73 0l296 1486h245l-123 -601h589l120 601h246l-298 -1486h-246l137 670h-588l-132 -670h-246z" />
<glyph unicode="I" horiz-adv-x="620" d="M73 0l296 1486h245l-295 -1486h-246z" />
<glyph unicode="J" horiz-adv-x="1076" d="M-11 200l154 143q32 -70 92 -114.5t147 -44.5q102 0 164.5 76t91.5 220l201 1006h245l-209 -1045q-18 -100 -58 -185t-100 -147.5t-144.5 -99.5t-190.5 -37q-132 0 -234 60.5t-159 167.5z" />
<glyph unicode="K" horiz-adv-x="1322" d="M73 0l296 1486h245l-134 -672h8l651 672h271l-549 -590l334 -896h-254l-262 741l-267 -273l-93 -468h-246z" />
<glyph unicode="L" horiz-adv-x="1093" d="M73 0l296 1486h245l-254 -1280h592l-41 -206h-838z" />
<glyph unicode="M" horiz-adv-x="1642" d="M73 0l296 1486h273l117 -742l44 -287h8l148 287l410 742h270l-298 -1486h-232l149 714q11 52 25.5 112.5t30.5 121.5t32 120.5t32 111.5h-7l-182 -336l-393 -699h-114l-123 699l-47 336h-9q-11 -104 -26 -233t-36 -233l-144 -714h-224z" />
<glyph unicode="N" horiz-adv-x="1434" d="M73 0l296 1486h240l291 -861l87 -321h9q13 116 27 250.5t38 256.5l134 675h237l-298 -1486h-238l-289 859l-86 325h-9q-14 -121 -30 -250t-41 -252l-135 -682h-233z" />
<glyph unicode="O" horiz-adv-x="1470" d="M132 598q0 185 58 350.5t157.5 291.5t235 200t289.5 74q126 0 226 -43.5t169 -125t106 -197.5t37 -259q0 -184 -57.5 -350t-157 -292t-235 -200.5t-292.5 -74.5q-125 0 -225 43.5t-169.5 125.5t-105.5 198t-36 259zM384 616q0 -200 74 -316t224 -116q97 0 185 59 t152.5 154.5t102 219.5t37.5 253q0 200 -75 316.5t-225 116.5q-100 0 -186.5 -59.5t-149.5 -155t-101 -219t-38 -253.5z" />
<glyph unicode="P" horiz-adv-x="1288" d="M73 0l296 1486h445q106 0 196 -20t155 -66.5t101.5 -118t36.5 -174.5q0 -146 -51.5 -250t-141 -170.5t-212.5 -98t-264 -31.5h-207l-108 -557h-246zM468 753h187q197 0 300.5 80.5t103.5 239.5q0 116 -75 167t-216 51h-195z" />
<glyph unicode="Q" horiz-adv-x="1470" d="M132 598q0 185 58 350.5t157.5 291.5t235 200t289.5 74q126 0 226 -43.5t169 -125t106 -197.5t37 -259q0 -171 -50 -326.5t-138 -278.5t-207 -203.5t-260 -100.5q45 -87 134 -125.5t198 -38.5q39 0 71.5 4.5t64.5 13.5l14 -188q-39 -13 -83.5 -21.5t-82.5 -8.5 q-209 0 -356 93t-214 287q-176 52 -272.5 208t-96.5 394zM384 616q0 -200 74 -316t224 -116q97 0 185 59t152.5 154.5t102 219.5t37.5 253q0 200 -75 316.5t-225 116.5q-100 0 -186.5 -59.5t-149.5 -155t-101 -219t-38 -253.5z" />
<glyph unicode="R" horiz-adv-x="1308" d="M73 0l296 1486h438q107 0 195.5 -18.5t153.5 -63t101 -114t36 -167.5q0 -104 -30.5 -187.5t-85 -147t-128 -107t-162.5 -65.5l245 -616h-262l-215 586h-221l-115 -586h-246zM475 783h189q191 0 288.5 82.5t97.5 223.5q0 109 -74 155.5t-217 46.5h-186z" />
<glyph unicode="S" horiz-adv-x="1176" d="M18 243l177 137q66 -91 157 -144.5t201 -53.5q115 0 190 60t75 165q0 70 -49 117t-131 96l-156 96q-98 59 -162 144.5t-64 217.5q0 89 38 168t105 139.5t157 94.5t194 34q135 0 246 -60.5t191 -158.5l-157 -143q-57 63 -128.5 107t-164.5 44q-109 0 -168.5 -61.5 t-59.5 -139.5q0 -73 51.5 -117t137.5 -96l159 -95q109 -64 162.5 -143.5t53.5 -209.5q0 -100 -38.5 -185t-110.5 -149t-171.5 -99.5t-220.5 -35.5q-150 0 -280.5 64t-233.5 207z" />
<glyph unicode="T" horiz-adv-x="1184" d="M200 1278l41 208h1069l-41 -208h-412l-254 -1278h-246l255 1278h-412z" />
<glyph unicode="U" horiz-adv-x="1431" d="M175 466q0 50 8 109t19 117l160 794h245l-166 -831q-20 -96 -20 -175q0 -144 61 -220t202 -76q117 0 203 95.5t132 321.5l176 885h241l-178 -885q-66 -332 -214 -480.5t-369 -148.5q-248 0 -374 123.5t-126 370.5z" />
<glyph unicode="V" horiz-adv-x="1195" d="M182 1486h254l50 -777q7 -121 14 -241.5t12 -242.5h9q54 121 109.5 242t110.5 242l373 777h266l-771 -1486h-295z" />
<glyph unicode="W" horiz-adv-x="1761" d="M195 0l37 1486h250l-35 -763q-9 -121 -15.5 -240t-17.5 -242h9q50 123 102 243.5t100 238.5l338 763h212l14 -763q0 -241 -7 -482h9q43 123 88.5 243.5t89.5 238.5l286 763h236l-596 -1486h-308l-5 809q0 78 4.5 170t9.5 178h-9q-32 -87 -67 -174t-72 -174l-347 -809 h-306z" />
<glyph unicode="X" horiz-adv-x="1191" d="M-82 0l562 768l-239 718h271l100 -345q13 -52 25.5 -105.5t30.5 -117.5h9q39 61 76.5 118t69.5 110l225 340h262l-533 -731l260 -755h-271l-109 371q-18 56 -33 113t-33 121h-7q-43 -63 -81.5 -122.5t-75.5 -118.5l-247 -364h-262z" />
<glyph unicode="Y" horiz-adv-x="1104" d="M186 1486h252l85 -390q18 -87 31.5 -164t31.5 -164h10q50 87 95.5 166t97.5 164l243 388h263l-625 -927l-111 -559h-245l111 559z" />
<glyph unicode="Z" horiz-adv-x="1178" d="M-7 0l33 148l885 1132h-631l41 206h924l-28 -147l-881 -1133h696l-43 -206h-996z" />
<glyph unicode="[" horiz-adv-x="705" d="M4 -345l391 1955h421l-22 -135h-241l-337 -1686h239l-30 -134h-421z" />
<glyph unicode="\" horiz-adv-x="759" d="M195 1614h162l220 -1978h-163z" />
<glyph unicode="]" horiz-adv-x="708" d="M-89 -345l30 134h237l338 1686h-238l24 135h423l-391 -1955h-423z" />
<glyph unicode="^" horiz-adv-x="1119" d="M178 634l334 889h193l336 -889h-200l-125 355l-102 304h-7l-102 -304l-125 -355h-202z" />
<glyph unicode="_" horiz-adv-x="1095" d="M-95 -297l32 145h1036l-29 -145h-1039z" />
<glyph unicode="`" horiz-adv-x="1195" d="M541 1629h232l129 -329h-171z" />
<glyph unicode="a" horiz-adv-x="1236" d="M80 380q0 158 50 298t133.5 244t192 162.5t223.5 58.5q82 0 150.5 -42t107.5 -114h4l48 130h195l-223 -1117h-200l12 154h-7q-80 -82 -176.5 -132t-192.5 -50q-147 0 -232 105t-85 303zM332 414q0 -123 44.5 -182t121.5 -59q74 0 149.5 43t143.5 146l91 445 q-38 73 -87 105t-101 32q-70 0 -136.5 -42.5t-116.5 -115t-79.5 -169t-29.5 -203.5z" />
<glyph unicode="b" horiz-adv-x="1238" d="M50 0l323 1605h243l-80 -395l-54 -214h4q80 63 169 105t182 42q150 0 233.5 -103t83.5 -303q0 -161 -50 -300.5t-133.5 -242.5t-190.5 -162.5t-223 -59.5q-84 0 -149 42.5t-104 115.5h-4l-48 -130h-202zM357 310q37 -74 84 -105.5t100 -31.5q69 0 136 41.5t117 114.5 t80.5 170t30.5 206q0 123 -45 181t-123 58q-65 0 -143 -40t-141 -121z" />
<glyph unicode="c" horiz-adv-x="997" d="M75 427q0 150 51.5 281t138.5 227.5t204 152t247 55.5q102 0 174.5 -41t118.5 -95l-137 -148q-38 46 -76.5 66.5t-95.5 20.5q-75 0 -143.5 -41t-119.5 -110.5t-81.5 -161.5t-30.5 -197q0 -127 55.5 -196t170.5 -69q65 0 116 26t94 59l105 -154q-63 -45 -151 -87.5 t-214 -42.5q-94 0 -171.5 31t-134 89t-88.5 142.5t-32 192.5z" />
<glyph unicode="d" horiz-adv-x="1226" d="M80 380q0 158 50 298t133.5 244t192 162.5t223.5 58.5q82 0 146 -41t101 -106h6l31 214l78 395h243l-323 -1605h-200l12 154h-7q-80 -82 -176.5 -132t-192.5 -50q-147 0 -232 105t-85 303zM332 414q0 -123 44.5 -182t121.5 -59q74 0 148 43t145 146l91 445 q-38 73 -87 105t-101 32q-70 0 -136.5 -42.5t-116.5 -115t-79.5 -169t-29.5 -203.5z" />
<glyph unicode="e" horiz-adv-x="1108" d="M75 445q0 157 53.5 285.5t141 220.5t196.5 142t218 50q97 0 164.5 -31.5t109.5 -87.5t61.5 -131t19.5 -162q0 -73 -18.5 -140.5t-29.5 -95.5h-679q-3 -30 -3 -56q0 -54 12 -96q18 -63 55.5 -104t92 -60.5t117.5 -19.5q59 0 120.5 27.5t107.5 61.5l91 -157 q-68 -48 -164.5 -83.5t-217.5 -35.5q-100 0 -182 32.5t-141 92.5t-92 147.5t-33 200.5zM332 650h493q4 23 8 46.5t4 51.5q0 82 -40 144.5t-142 62.5t-192 -80.5t-131 -224.5z" />
<glyph unicode="f" horiz-adv-x="692" d="M91 0l184 922h-143l37 182l147 13l25 128q34 171 129.5 279t264.5 108q63 0 117.5 -15.5t102.5 -41.5l-83 -172q-20 11 -50.5 22t-64.5 11q-68 0 -111 -44t-62 -140l-27 -135h211l-39 -195h-213l-182 -922h-243z" />
<glyph unicode="g" horiz-adv-x="1222" d="M-16 -341l109 163q64 -52 138.5 -87t161.5 -35q128 0 205 74t114 208l54 207h-7q-80 -76 -167 -121.5t-187 -45.5q-141 0 -233 99.5t-92 294.5q0 152 49 284t130.5 231t187.5 155.5t219 56.5q82 0 149 -42t103 -114h8l47 130h198l-227 -1133q-48 -236 -191.5 -357.5 t-366.5 -121.5q-106 0 -209.5 40.5t-192.5 113.5zM332 447q0 -113 44 -167.5t117 -54.5q65 0 144 39.5t146 128.5l83 414q-39 73 -87 105t-100 32q-67 0 -130 -40t-112 -108.5t-77 -158t-28 -190.5z" />
<glyph unicode="h" horiz-adv-x="1211" d="M50 0l323 1605h243l-98 -473l-43 -162h9q87 73 176.5 123t191.5 50q141 0 203 -72.5t62 -209.5q0 -38 -4 -74.5t-15 -81.5l-141 -705h-243l136 673q7 39 12.5 66t5.5 52q0 144 -141 144q-59 0 -126 -41.5t-156 -132.5l-150 -761h-245z" />
<glyph unicode="i" horiz-adv-x="570" d="M50 0l225 1117h243l-223 -1117h-245zM316 1441q0 65 48 112.5t116 47.5q52 0 95 -33.5t43 -94.5q0 -68 -47.5 -113.5t-115.5 -45.5q-52 0 -95.5 33t-43.5 94z" />
<glyph unicode="j" horiz-adv-x="572" d="M-291 -423l77 178q43 -28 101 -28q61 0 93.5 47.5t56.5 143.5l241 1199h243l-241 -1204q-18 -82 -48 -152.5t-74.5 -121.5t-106.5 -79t-146 -28q-57 0 -102.5 10.5t-93.5 34.5zM319 1441q0 65 47.5 112.5t115.5 47.5q54 0 97.5 -33.5t43.5 -94.5q0 -68 -49 -113.5 t-114 -45.5q-55 0 -98 33t-43 94z" />
<glyph unicode="k" horiz-adv-x="1138" d="M50 0l323 1605h243l-202 -1009h9l493 521h273l-450 -479l266 -638h-246l-191 495l-218 -220l-55 -275h-245z" />
<glyph unicode="l" horiz-adv-x="594" d="M91 154q0 52 16 119l266 1332h243l-269 -1343q-4 -18 -4 -27.5v-15.5q0 -48 39 -48q11 0 18 1t23 6l-5 -182q-25 -12 -59 -18t-79 -6q-98 0 -143.5 48t-45.5 134z" />
<glyph unicode="m" horiz-adv-x="1848" d="M50 0l223 1117h198l-11 -158h8q87 76 180 130t184 54q64 0 109.5 -16t76 -43t47.5 -64.5t26 -82.5q100 95 197.5 150.5t188.5 55.5q139 0 202 -72.5t63 -209.5q0 -38 -4.5 -74.5t-14.5 -81.5l-141 -705h-246l137 673q9 39 13.5 66t4.5 52q0 144 -136 144 q-43 0 -111.5 -41.5t-154.5 -132.5l-152 -761h-243l133 673q9 39 14 66t5 52q0 144 -134 144q-46 0 -114.5 -41.5t-152.5 -132.5l-150 -761h-245z" />
<glyph unicode="n" horiz-adv-x="1224" d="M50 0l223 1117h198l-11 -158h8q89 76 183.5 130t200.5 54q141 0 203 -72.5t62 -209.5q0 -38 -4 -74.5t-15 -81.5l-141 -705h-243l136 673q7 39 12.5 66t5.5 52q0 144 -141 144q-59 0 -126 -41.5t-156 -132.5l-150 -761h-245z" />
<glyph unicode="o" horiz-adv-x="1191" d="M78 427q0 159 53 292t139.5 226.5t196.5 145.5t225 52q190 0 303.5 -121.5t113.5 -332.5q0 -158 -53.5 -290.5t-139.5 -226.5t-197 -147t-226 -53q-93 0 -170.5 32.5t-131.5 91t-83.5 143t-29.5 188.5zM323 436q0 -127 50 -196t148 -69q65 0 126.5 39.5t109.5 108.5 t76 162.5t28 200.5q0 127 -50 195.5t-145 68.5q-65 0 -128 -40t-110.5 -108.5t-76 -161.5t-28.5 -200z" />
<glyph unicode="p" horiz-adv-x="1236" d="M-39 -441l314 1558h198l-5 -137h7q80 70 173 116.5t189 46.5q150 0 233.5 -104t83.5 -302q0 -161 -50 -300.5t-133.5 -242.5t-190.5 -162.5t-223 -59.5q-80 0 -143.5 40t-103.5 106h-6l-35 -227l-65 -332h-243zM357 304q37 -70 84 -100.5t100 -30.5q69 0 136 41.5 t117 114.5t80.5 170t30.5 206q0 123 -45 181t-123 58q-65 0 -143 -40t-141 -121z" />
<glyph unicode="q" horiz-adv-x="1236" d="M80 380q0 158 50 298t133.5 244t192 162.5t223.5 58.5q82 0 150.5 -42t107.5 -114h4l48 130h195l-312 -1558h-245l69 332l77 266h-5q-80 -83 -177.5 -134t-193.5 -51q-147 0 -232 105t-85 303zM332 414q0 -123 44.5 -182t121.5 -59q66 0 144 43t149 146l91 445 q-38 73 -87 105t-101 32q-70 0 -136.5 -42.5t-116.5 -115t-79.5 -169t-29.5 -203.5z" />
<glyph unicode="r" horiz-adv-x="824" d="M50 0l223 1117h198l-20 -217h9q65 105 154 174t191 69q65 0 111 -20l-81 -214q-20 11 -48 15t-58 4q-80 0 -157 -61.5t-145 -191.5l-132 -675h-245z" />
<glyph unicode="s" horiz-adv-x="937" d="M-13 186l145 118q54 -73 121.5 -111.5t141.5 -38.5q80 0 138 42.5t58 103.5q0 52 -48 89.5t-152 96.5q-111 61 -175 134.5t-64 175.5q0 75 32 139.5t87.5 110t129.5 71.5t158 26q109 0 197 -45.5t153 -112.5l-136 -130q-44 43 -96 73.5t-118 30.5q-77 0 -127 -40.5 t-50 -100.5q0 -32 16 -54.5t43 -43t61 -38.5t71 -38q125 -66 186 -139t61 -175q0 -82 -32.5 -148.5t-92 -113t-141 -71.5t-177.5 -25q-52 0 -107.5 16t-108 43.5t-98 67.5t-76.5 87z" />
<glyph unicode="t" horiz-adv-x="785" d="M121 922l36 182l170 13l89 299h204l-58 -299h268l-39 -195h-273l-113 -553q-7 -42 -8 -80q0 -61 30 -92t100 -31q30 0 55 9t50 20l45 -173q-41 -18 -100 -34t-136 -16q-157 0 -224 79t-67 194q0 35 4.5 66.5t8.5 65.5l115 545h-157z" />
<glyph unicode="u" horiz-adv-x="1219" d="M107 254q0 39 4 77t14 81l141 705h243l-134 -674q-9 -39 -13.5 -66t-4.5 -52q0 -143 138 -143q111 0 275 172l150 763h244l-220 -1117h-198l9 159h-9q-84 -76 -177.5 -131.5t-195.5 -55.5q-141 0 -203.5 74.5t-62.5 207.5z" />
<glyph unicode="v" horiz-adv-x="1076" d="M134 1117h243l59 -594q9 -85 14 -168.5t10 -170.5h8q39 87 78.5 169.5t78.5 169.5l289 594h240l-581 -1117h-287z" />
<glyph unicode="w" horiz-adv-x="1653" d="M161 1117h241l19 -599q1 -36 1 -71q0 -44 -2 -88q-2 -79 -2 -161h9q33 82 63.5 161t66.5 159l259 599h223l30 -599q2 -80 2 -159t2 -161h9q32 82 60.5 161t61.5 159l249 599h226l-490 -1117h-291l-20 536q0 80 -1.5 161.5t-1.5 168.5h-9q-32 -87 -62.5 -168.5 t-62.5 -161.5l-229 -536h-284z" />
<glyph unicode="x" horiz-adv-x="1045" d="M-95 0l486 596l-202 521h247l82 -219q16 -50 30 -95.5t29 -93.5h9q32 46 65 93.5t65 95.5l154 219h262l-448 -576l216 -541h-250l-84 228q-18 50 -36 101t-37 98h-9q-32 -47 -67 -96t-74 -101l-174 -230h-264z" />
<glyph unicode="y" horiz-adv-x="1076" d="M-109 -418l77 177q39 -22 82 -23q73 0 138.5 56t111.5 151l34 68l-193 1106h243l71 -564q9 -76 15.5 -166t11.5 -168h9q38 80 78 167t79 167l278 564h236l-628 -1176q-52 -91 -105.5 -164.5t-113 -126t-128.5 -81.5t-153 -29q-27 0 -69.5 12t-73.5 30z" />
<glyph unicode="z" horiz-adv-x="970" d="M-22 0l26 139l664 783h-454l38 195h761l-26 -141l-666 -783h525l-39 -193h-829z" />
<glyph unicode="{" horiz-adv-x="701" d="M65 559l33 146q56 2 97 18t66 42t39 56.5t21 63.5q9 54 15.5 102t13.5 96.5t15 99.5t19 110q18 91 43.5 151.5t62.5 96.5t88 52.5t125 16.5h124l-29 -135h-50q-80 0 -116 -45.5t-55 -147.5q-18 -95 -33 -190.5t-32 -197.5q-26 -124 -75 -184t-133 -81l-2 -9 q113 -32 114 -149q0 -59 -17 -139t-38.5 -161.5t-39 -156.5t-17.5 -125q0 -52 23 -76t89 -24h46l-28 -134h-120q-113 0 -161.5 46.5t-48.5 144.5q0 63 19.5 146t41 165t41 153.5t19.5 116.5q0 48 -32 88t-128 44z" />
<glyph unicode="|" horiz-adv-x="551" d="M209 -568v2273h157v-2273h-157z" />
<glyph unicode="}" horiz-adv-x="708" d="M-102 -345l29 134h51q80 0 116 44t54 147q17 95 32 190.5t34 198.5q26 123 74 184t133 81l2 10q-61 18 -87 54.5t-26 95.5q0 56 16.5 135.5t38 161.5t39 157t17.5 125q0 52 -23 77t-88 25h-46l27 135h121q113 0 160.5 -48t47.5 -143q0 -66 -19 -148t-41 -163.5 t-40.5 -154.5t-18.5 -118q0 -22 6.5 -45.5t25 -42t49 -29.5t77.5 -13l-32 -146q-59 -2 -99 -18t-65 -42t-38 -56.5t-20 -62.5q-20 -107 -30.5 -200t-33.5 -212q-18 -91 -43 -151t-62.5 -96.5t-90 -51t-123.5 -14.5h-124z" />
<glyph unicode="~" horiz-adv-x="1122" d="M95 712q66 117 143.5 167.5t154.5 50.5q63 0 113.5 -29t95 -63.5t86 -63t87.5 -28.5q93 0 162 132l126 -84q-65 -118 -142 -168.5t-155 -50.5q-63 0 -113 28.5t-94.5 64t-86.5 63.5t-88 28q-93 0 -161 -132z" />
<glyph unicode="&#xa1;" horiz-adv-x="697" d="M43 -410l55 251l193 795h164l-130 -795l-39 -251h-243zM280 950q0 37 13 72t37 62t59.5 43t76.5 16q61 0 98 -40t37 -101q0 -34 -14 -69t-39 -63.5t-60 -45.5t-76 -17q-61 0 -96.5 41t-35.5 102z" />
<glyph unicode="&#xa2;" horiz-adv-x="1122" d="M171 653q0 143 49 258t128 197.5t180 132.5t209 64l46 225h143l-46 -227q85 -13 144.5 -57t107.5 -98l-145 -137q-35 39 -67.5 62t-78.5 34l-141 -719q61 7 114.5 31t99.5 58l77 -161q-73 -47 -153.5 -80.5t-175.5 -44.5l-46 -228h-143l45 232q-158 23 -252.5 140.5 t-94.5 317.5zM410 692q0 -109 38 -183.5t111 -106.5l139 698q-59 -16 -112.5 -52.5t-92 -89.5t-61 -120.5t-22.5 -145.5z" />
<glyph unicode="&#xa3;" horiz-adv-x="1122" d="M2 0l30 148q152 70 235 196.5t85 282.5h-218l35 167l172 11q-5 45 -8 87.5t-3 80.5q0 118 38.5 212.5t105.5 161.5t158 103t198 36q118 0 199.5 -54t139.5 -137l-162 -128q-39 56 -83 89t-108 33q-109 0 -184 -86t-75 -257q0 -32 2.5 -67t6.5 -74h341l-35 -178h-297 q-4 -130 -46.5 -226.5t-126.5 -184.5l-2 -10h561l-35 -206h-924z" />
<glyph unicode="&#xa4;" horiz-adv-x="1122" d="M20 364l155 134q-34 76 -34 172q0 105 35 192.5t99 156.5l-106 133l133 115l112 -144q59 35 124 53.5t130 18.5q135 0 226 -69l165 143l108 -128l-158 -139q34 -73 34 -170q0 -102 -33.5 -188.5t-93.5 -152.5l114 -146l-132 -111l-123 152q-118 -80 -259 -80 q-134 0 -225 74l-163 -144zM364 694q0 -102 46.5 -156t130.5 -54q52 0 102.5 25t88.5 68t62 103.5t24 130.5q0 103 -45 156.5t-131 53.5q-53 0 -102 -25.5t-88.5 -68t-63.5 -103t-24 -130.5z" />
<glyph unicode="&#xa5;" horiz-adv-x="1122" d="M52 352l26 123h345l28 143h-347l26 126h288l-195 705h248l72 -360q13 -76 27 -150.5t33 -153.5h6q48 80 93.5 155.5t91.5 148.5l208 360h246l-475 -705h288l-24 -126h-345l-28 -143h345l-27 -123h-344l-70 -352h-241l70 352h-345z" />
<glyph unicode="&#xa6;" horiz-adv-x="551" d="M209 475h157v-1043h-157v1043zM209 679v1026h157v-1026h-157z" />
<glyph unicode="&#xa7;" horiz-adv-x="1115" d="M18 22l125 153q57 -58 135.5 -103.5t159.5 -45.5q74 0 120.5 39t46.5 106q0 50 -36.5 87t-90 72.5t-117.5 71.5t-117 83t-89.5 108.5t-36.5 147.5q0 118 68 202.5t174 132.5q-18 32 -27.5 64.5t-9.5 71.5q0 78 27 142.5t77 110t118.5 71.5t150.5 26q104 0 198.5 -48 t166.5 -125l-129 -139q-45 50 -106.5 87.5t-131.5 37.5q-59 0 -103.5 -35t-44.5 -101q0 -46 36 -83t90.5 -72.5t119.5 -74.5t119.5 -88t91 -111t36.5 -146q0 -130 -62.5 -210.5t-176.5 -132.5q28 -55 27 -121q0 -80 -29.5 -145.5t-82.5 -113.5t-127 -74t-163 -26 q-106 0 -213.5 48t-193.5 133zM330 770q0 -56 36 -98.5t91 -78.5t120 -71.5t119 -78.5q61 28 95 72t34 119q0 54 -35 97.5t-88.5 81t-116 72.5t-119.5 78q-59 -27 -97.5 -73t-38.5 -120z" />
<glyph unicode="&#xa8;" horiz-adv-x="1195" d="M449 1432q0 59 42.5 103.5t101.5 44.5q47 0 80 -31t33 -85q0 -61 -42 -103t-101 -42q-50 0 -82 29.5t-32 83.5zM855 1432q0 59 41.5 103.5t101.5 44.5q50 0 81.5 -31t31.5 -85q0 -61 -42 -103t-101 -42q-50 0 -81.5 29.5t-31.5 83.5z" />
<glyph unicode="&#xa9;" horiz-adv-x="1518" d="M75 609q0 174 61.5 332.5t171.5 280t263.5 193t339.5 71.5q132 0 242.5 -46.5t191 -130.5t125 -198.5t44.5 -253.5q0 -175 -61.5 -334t-171.5 -279.5t-263.5 -193t-340.5 -72.5q-132 0 -242 46t-191 130.5t-125 200.5t-44 254zM195 620q0 -111 33.5 -207.5t95.5 -167 t153 -111.5t209 -41q152 0 283 63t224 167t146.5 240.5t53.5 282.5q0 111 -32.5 207.5t-95.5 167t-154 111.5t-209 41q-154 0 -284 -62.5t-223 -167t-146.5 -241t-53.5 -282.5zM402 634q0 123 44.5 222t115 168t157 107t172.5 38q80 0 135.5 -36.5t92.5 -82.5l-110 -102 q-32 37 -63.5 54t-77.5 17q-50 0 -101 -28t-92 -75.5t-67 -113t-26 -143.5q0 -108 53.5 -165.5t147.5 -57.5q56 0 99.5 22t95.5 56l72 -114q-70 -55 -144 -84.5t-160 -29.5q-154 0 -249 90.5t-95 257.5z" />
<glyph unicode="&#xaa;" horiz-adv-x="818" d="M130 855q0 104 34 196t90 160.5t128.5 108.5t149.5 40q52 0 93 -27.5t67 -78.5h8l35 87h140l-148 -740h-141l10 102h-10q-52 -57 -115.5 -89t-127.5 -32q-98 0 -155.5 69t-57.5 204zM310 878q0 -80 28 -115.5t72 -35.5q45 0 97 30t98 93l50 278q-22 47 -52 66.5t-62 19.5 q-44 0 -85.5 -27.5t-73.5 -72.5t-52 -106.5t-20 -129.5z" />
<glyph unicode="&#xab;" horiz-adv-x="990" d="M91 491l32 182l352 327l80 -86l-312 -350l184 -358l-102 -65zM486 491l32 182l352 327l80 -86l-312 -350l184 -358l-102 -65z" />
<glyph unicode="&#xac;" horiz-adv-x="1122" d="M109 664v175h964v-614h-182v439h-782z" />
<glyph unicode="&#xad;" horiz-adv-x="703" d="M80 484l35 180h516l-38 -180h-513z" />
<glyph unicode="&#xae;" horiz-adv-x="965" d="M175 1114q0 98 34 188.5t95.5 161t146.5 112.5t187 42q78 0 146 -29t120.5 -81.5t84.5 -124t32 -158.5q0 -97 -35.5 -188t-97 -160.5t-146.5 -111.5t-185 -42q-77 0 -146.5 28t-122 81t-83 124.5t-30.5 157.5zM275 1123q0 -132 77.5 -220.5t211.5 -88.5q78 0 142 33 t112 87.5t75 127t27 155.5q0 65 -20 121.5t-57.5 97.5t-91.5 65t-119 24q-78 0 -142.5 -32.5t-112 -87t-75 -128t-27.5 -154.5zM393 948l93 453h169q65 0 106.5 -35.5t41.5 -96.5q0 -50 -29.5 -90t-81.5 -58l58 -173h-106l-46 148h-69l-31 -148h-105zM546 1175h42 q48 0 74.5 23t26.5 60q0 27 -16 44t-53 17h-47z" />
<glyph unicode="&#xaf;" horiz-adv-x="1195" d="M477 1358l31 160h566l-28 -160h-569z" />
<glyph unicode="&#xb0;" horiz-adv-x="751" d="M223 1219q0 70 26 131.5t69.5 107t101 72.5t123.5 27q115 0 189.5 -72.5t74.5 -195.5q0 -70 -26 -131.5t-69.5 -108.5t-103 -73t-122.5 -26q-115 0 -189 73t-74 196zM360 1223q0 -61 35 -104t100 -43q39 0 71 17.5t55 46.5t35 66t12 78q0 61 -34.5 104.5t-99.5 43.5 q-39 0 -71.5 -18.5t-55.5 -46.5t-35 -65.5t-12 -78.5z" />
<glyph unicode="&#xb1;" horiz-adv-x="1122" d="M109 0v178h964v-178h-964zM109 712v177h392v382h181v-382h391v-177h-394v-389h-184v389h-386z" />
<glyph unicode="&#xb2;" horiz-adv-x="813" d="M187 1000l17 107q130 88 224.5 160t156 135.5t91 120t29.5 111.5q0 56 -30.5 88.5t-97.5 32.5q-41 0 -81.5 -27.5t-79.5 -65.5l-102 108q68 66 137.5 105t157.5 39q130 0 205 -65.5t75 -182.5q0 -132 -100 -250.5t-284 -261.5h318l-29 -154h-607z" />
<glyph unicode="&#xb3;" horiz-adv-x="809" d="M187 1154l122 87q32 -55 76.5 -87.5t107.5 -32.5q73 0 121 35t48 100q0 59 -48 99t-171 40l26 117q69 0 116 13t74 35t38.5 50t11.5 56q0 46 -31.5 74t-86.5 28q-46 0 -84 -14.5t-86 -48.5l-78 122q73 48 140.5 67.5t145.5 19.5q116 0 189 -59t73 -159 q0 -87 -48.5 -149.5t-144.5 -95.5q70 -33 106.5 -85t36.5 -112q0 -68 -26 -120t-72.5 -87.5t-107 -55t-128.5 -19.5q-115 0 -195 53t-125 129z" />
<glyph unicode="&#xb4;" horiz-adv-x="1195" d="M582 1300l263 329h251l-323 -329h-191z" />
<glyph unicode="&#xb5;" horiz-adv-x="1217" d="M-39 -423l308 1540h243l-135 -674q-8 -39 -12.5 -66t-4.5 -52q0 -143 138 -143q107 0 275 170l149 765h242l-218 -1117h-200l11 159h-9q-65 -74 -139.5 -124.5t-148.5 -50.5q-57 0 -101.5 19t-65.5 70l-24 -164l-65 -332h-243z" />
<glyph unicode="&#xb6;" horiz-adv-x="1299" d="M161 894q0 152 54 264.5t143 185t205 107.5t242 35h104l-200 -1002h-52q-100 0 -190 26t-158 79t-108 129t-40 176zM698 -182l332 1668h243l-332 -1668h-243z" />
<glyph unicode="&#xb7;" horiz-adv-x="606" d="M175 718q0 37 14 72.5t40 62.5t60 44.5t75 17.5q61 0 96.5 -41t35.5 -103q0 -36 -14 -71.5t-38 -63t-58.5 -43.5t-76.5 -16q-61 0 -97.5 40t-36.5 101z" />
<glyph unicode="&#xb8;" horiz-adv-x="1195" d="M204 -388q89 11 149 40t60 84q0 32 -24 53.5t-87 39.5l123 178h150l-78 -118q44 -16 73 -48t29 -84q0 -61 -31.5 -105.5t-84.5 -74.5t-123.5 -46.5t-146.5 -21.5z" />
<glyph unicode="&#xb9;" horiz-adv-x="831" d="M395 1677l24 117q45 6 80 14t66 19.5t57 26t55 33.5h141l-172 -887h-186l136 677h-201z" />
<glyph unicode="&#xba;" horiz-adv-x="801" d="M128 885q0 108 35 196t93 149t133 95.5t152 34.5q125 0 204.5 -80t79.5 -223q0 -109 -35 -196.5t-94.5 -149t-134 -95.5t-151.5 -34q-124 0 -203 79.5t-79 223.5zM302 889q0 -78 31 -122t92 -44q48 0 89 26t71.5 70.5t47.5 103.5t17 127q0 80 -31 123.5t-92 43.5 q-47 0 -88.5 -26.5t-72 -70.5t-47.5 -103.5t-17 -127.5z" />
<glyph unicode="&#xbb;" horiz-adv-x="990" d="M57 228l312 349l-187 358l104 65l235 -350l-35 -182l-349 -327zM452 228l312 349l-187 358l104 65l235 -350l-35 -182l-349 -327z" />
<glyph unicode="&#xbc;" horiz-adv-x="1731" d="M254 1291l24 117q45 6 80 14t66 19.5t57 26t55 33.5h141l-172 -887h-186l136 677h-201zM277 -28l1089 1555h150l-1089 -1555h-150zM918 221l18 98l464 568h217l-107 -542h131l-27 -124h-129l-44 -221h-158l43 221h-408zM1114 345h238l28 141l61 260h-9l-145 -191z" />
<glyph unicode="&#xbd;" horiz-adv-x="1802" d="M236 -28l1089 1555h150l-1089 -1555h-150zM245 1291l24 117q45 6 80 14t66 19.5t57 26t55 33.5h141l-172 -887h-186l136 677h-201zM983 0l17 107q130 88 224.5 160t156 135.5t91 120t29.5 111.5q0 56 -30.5 88.5t-97.5 32.5q-41 0 -81.5 -27.5t-79.5 -65.5l-102 108 q68 66 137.5 105t157.5 39q130 0 205 -65.5t75 -182.5q0 -132 -100 -250.5t-284 -261.5h318l-29 -154h-607z" />
<glyph unicode="&#xbe;" horiz-adv-x="1763" d="M96 768l122 87q32 -55 76.5 -87.5t107.5 -32.5q73 0 121 35t48 100q0 59 -48 99t-171 40l26 117q69 0 116 13t74 35t38.5 50t11.5 56q0 46 -31.5 74t-86.5 28q-46 0 -84 -14.5t-86 -48.5l-78 122q73 48 140.5 67.5t145.5 19.5q116 0 189 -59t73 -159q0 -87 -48.5 -149.5 t-144.5 -95.5q70 -33 106.5 -85t36.5 -112q0 -68 -26 -120t-72.5 -87.5t-107 -55t-128.5 -19.5q-115 0 -195 53t-125 129zM343 -28l1089 1555h150l-1089 -1555h-150zM954 221l18 98l464 568h217l-107 -542h131l-27 -124h-129l-44 -221h-158l43 221h-408zM1150 345h238 l28 141l61 260h-9l-145 -191z" />
<glyph unicode="&#xbf;" horiz-adv-x="970" d="M-4 -102q0 91 30.5 158t78 122.5t104.5 105.5t107 102t87.5 114t47.5 144l208 -19q-6 -93 -41.5 -163.5t-82.5 -126t-100 -102.5t-98.5 -92.5t-75 -94t-29.5 -109.5q0 -80 45.5 -125.5t124.5 -45.5q54 0 107 27t100 75l126 -141q-73 -73 -166.5 -116t-195.5 -43 q-171 0 -274 86.5t-103 243.5zM460 952q0 37 13 72t38 62.5t59.5 43.5t75.5 16q61 0 97 -39.5t36 -101.5q0 -37 -13 -72t-38 -62t-60.5 -44.5t-76.5 -17.5q-62 0 -96.5 41t-34.5 102z" />
<glyph unicode="&#xc0;" horiz-adv-x="1202" d="M-132 0l796 1486h291l159 -1486h-255l-29 418h-485l-206 -418h-271zM436 605h380l-16 225q-6 116 -14.5 227.5t-12.5 233.5h-9q-55 -123 -106 -234t-110 -227zM534 1859h251l143 -258h-188z" />
<glyph unicode="&#xc1;" horiz-adv-x="1202" d="M-132 0l796 1486h291l159 -1486h-255l-29 418h-485l-206 -418h-271zM436 605h380l-16 225q-6 116 -14.5 227.5t-12.5 233.5h-9q-55 -123 -106 -234t-110 -227zM658 1601l236 258h271l-303 -258h-204z" />
<glyph unicode="&#xc2;" horiz-adv-x="1202" d="M-132 0l796 1486h291l159 -1486h-255l-29 418h-485l-206 -418h-271zM436 605h380l-16 225q-6 116 -14.5 227.5t-12.5 233.5h-9q-55 -123 -106 -234t-110 -227zM471 1601l259 258h236l158 -258h-182l-105 149h-6l-160 -149h-200z" />
<glyph unicode="&#xc3;" horiz-adv-x="1202" d="M-132 0l796 1486h291l159 -1486h-255l-29 418h-485l-206 -418h-271zM436 605h380l-16 225q-6 116 -14.5 227.5t-12.5 233.5h-9q-55 -123 -106 -234t-110 -227zM458 1607q32 123 101 196t148 73q46 0 77.5 -18.5t57.5 -40t52.5 -40t60.5 -18.5q61 0 102 112h132 q-32 -123 -99.5 -195.5t-147.5 -72.5q-48 0 -79.5 18t-58.5 40t-52 39.5t-58 17.5q-63 0 -105 -111h-131z" />
<glyph unicode="&#xc4;" horiz-adv-x="1202" d="M-132 0l796 1486h291l159 -1486h-255l-29 418h-485l-206 -418h-271zM436 605h380l-16 225q-6 116 -14.5 227.5t-12.5 233.5h-9q-55 -123 -106 -234t-110 -227zM499 1720q0 57 40.5 102.5t99.5 45.5q45 0 78.5 -29.5t33.5 -81.5q0 -54 -41 -100.5t-100 -46.5 q-48 0 -79.5 29t-31.5 81zM903 1720q0 57 41 102.5t100 45.5q45 0 78 -29.5t33 -81.5q0 -54 -41 -100.5t-100 -46.5q-48 0 -79.5 29t-31.5 81z" />
<glyph unicode="&#xc5;" horiz-adv-x="1202" d="M-132 0l796 1486h291l159 -1486h-255l-29 418h-485l-206 -418h-271zM436 605h380l-16 225q-6 116 -14.5 227.5t-12.5 233.5h-9q-55 -123 -106 -234t-110 -227zM610 1770q0 48 19.5 92.5t52 76.5t76 51t93.5 19q86 0 148.5 -46.5t62.5 -142.5q0 -50 -19 -92.5t-52.5 -74.5 t-76.5 -50.5t-93 -18.5q-87 0 -149 44.5t-62 141.5zM735 1783q0 -44 22.5 -70t67.5 -26q46 0 79 36t33 89q0 41 -23.5 68t-67.5 27q-45 0 -78 -37t-33 -87z" />
<glyph unicode="&#xc6;" horiz-adv-x="1865" d="M-78 0l1000 1486h992l-40 -206h-585l-79 -400h493l-41 -207h-491l-95 -467h603l-40 -206h-848l79 395h-417l-253 -395h-278zM577 588h330l143 717h-7q-77 -117 -151 -229.5t-148 -227.5z" />
<glyph unicode="&#xc7;" horiz-adv-x="1269" d="M130 584q0 184 57.5 352t161.5 297t247 205t313 76q130 0 225.5 -62.5t154.5 -165.5l-168 -129q-43 67 -98 106.5t-127 39.5q-113 0 -207.5 -61.5t-163 -160.5t-107 -224.5t-38.5 -253.5q0 -94 19 -171.5t61.5 -132t107 -85t155.5 -30.5q80 0 149 34t135 88l107 -156 q-75 -66 -185.5 -122t-253.5 -56q-128 0 -229 43.5t-171.5 123.5t-107.5 192t-37 253zM359 -388q89 11 149 40t60 84q0 32 -24 53.5t-87 39.5l123 178h150l-78 -118q44 -16 73 -48t29 -84q0 -61 -31.5 -105.5t-84.5 -74.5t-123.5 -46.5t-146.5 -21.5z" />
<glyph unicode="&#xc8;" horiz-adv-x="1169" d="M73 0l296 1486h852l-41 -206h-609l-80 -400h516l-41 -207h-513l-96 -467h628l-41 -206h-871zM549 1859h251l143 -258h-188z" />
<glyph unicode="&#xc9;" horiz-adv-x="1169" d="M73 0l296 1486h852l-41 -206h-609l-80 -400h516l-41 -207h-513l-96 -467h628l-41 -206h-871zM673 1601l236 258h271l-303 -258h-204z" />
<glyph unicode="&#xca;" horiz-adv-x="1169" d="M73 0l296 1486h852l-41 -206h-609l-80 -400h516l-41 -207h-513l-96 -467h628l-41 -206h-871zM486 1601l259 258h236l158 -258h-182l-105 149h-6l-160 -149h-200z" />
<glyph unicode="&#xcb;" horiz-adv-x="1169" d="M73 0l296 1486h852l-41 -206h-609l-80 -400h516l-41 -207h-513l-96 -467h628l-41 -206h-871zM514 1720q0 57 40.5 102.5t99.5 45.5q45 0 78.5 -29.5t33.5 -81.5q0 -54 -41 -100.5t-100 -46.5q-48 0 -79.5 29t-31.5 81zM918 1720q0 57 41 102.5t100 45.5q45 0 78 -29.5 t33 -81.5q0 -54 -41 -100.5t-100 -46.5q-48 0 -79.5 29t-31.5 81z" />
<glyph unicode="&#xcc;" horiz-adv-x="620" d="M73 0l296 1486h245l-295 -1486h-246zM224 1859h251l143 -258h-188z" />
<glyph unicode="&#xcd;" horiz-adv-x="620" d="M73 0l296 1486h245l-295 -1486h-246zM348 1601l236 258h271l-303 -258h-204z" />
<glyph unicode="&#xce;" horiz-adv-x="620" d="M73 0l296 1486h245l-295 -1486h-246zM161 1601l259 258h236l158 -258h-182l-105 149h-6l-160 -149h-200z" />
<glyph unicode="&#xcf;" horiz-adv-x="620" d="M73 0l296 1486h245l-295 -1486h-246zM189 1720q0 57 40.5 102.5t99.5 45.5q45 0 78.5 -29.5t33.5 -81.5q0 -54 -41 -100.5t-100 -46.5q-48 0 -79.5 29t-31.5 81zM593 1720q0 57 41 102.5t100 45.5q45 0 78 -29.5t33 -81.5q0 -54 -41 -100.5t-100 -46.5q-48 0 -79.5 29 t-31.5 81z" />
<glyph unicode="&#xd0;" horiz-adv-x="1413" d="M95 716l26 119l161 9l128 642h302q311 0 477 -148.5t166 -432.5q0 -211 -58 -379.5t-163.5 -284.5t-255 -178.5t-332.5 -62.5h-433l143 716h-161zM397 198h144q125 0 228 46.5t178.5 135t116 217t40.5 292.5q0 200 -104 300t-295 100h-91l-89 -445h312l-28 -128h-308z " />
<glyph unicode="&#xd1;" horiz-adv-x="1434" d="M73 0l296 1486h240l291 -861l87 -321h9q13 116 27 250.5t38 256.5l134 675h237l-298 -1486h-238l-289 859l-86 325h-9q-14 -121 -30 -250t-41 -252l-135 -682h-233zM575 1607q32 123 101 196t148 73q46 0 77.5 -18.5t57.5 -40t52.5 -40t60.5 -18.5q61 0 102 112h132 q-32 -123 -99.5 -195.5t-147.5 -72.5q-48 0 -79.5 18t-58.5 40t-52 39.5t-58 17.5q-63 0 -105 -111h-131z" />
<glyph unicode="&#xd2;" horiz-adv-x="1470" d="M132 598q0 185 58 350.5t157.5 291.5t235 200t289.5 74q126 0 226 -43.5t169 -125t106 -197.5t37 -259q0 -184 -57.5 -350t-157 -292t-235 -200.5t-292.5 -74.5q-125 0 -225 43.5t-169.5 125.5t-105.5 198t-36 259zM384 616q0 -200 74 -316t224 -116q97 0 185 59 t152.5 154.5t102 219.5t37.5 253q0 200 -75 316.5t-225 116.5q-100 0 -186.5 -59.5t-149.5 -155t-101 -219t-38 -253.5zM663 1859h251l143 -258h-188z" />
<glyph unicode="&#xd3;" horiz-adv-x="1470" d="M132 598q0 185 58 350.5t157.5 291.5t235 200t289.5 74q126 0 226 -43.5t169 -125t106 -197.5t37 -259q0 -184 -57.5 -350t-157 -292t-235 -200.5t-292.5 -74.5q-125 0 -225 43.5t-169.5 125.5t-105.5 198t-36 259zM384 616q0 -200 74 -316t224 -116q97 0 185 59 t152.5 154.5t102 219.5t37.5 253q0 200 -75 316.5t-225 116.5q-100 0 -186.5 -59.5t-149.5 -155t-101 -219t-38 -253.5zM787 1601l236 258h271l-303 -258h-204z" />
<glyph unicode="&#xd4;" horiz-adv-x="1470" d="M132 598q0 185 58 350.5t157.5 291.5t235 200t289.5 74q126 0 226 -43.5t169 -125t106 -197.5t37 -259q0 -184 -57.5 -350t-157 -292t-235 -200.5t-292.5 -74.5q-125 0 -225 43.5t-169.5 125.5t-105.5 198t-36 259zM384 616q0 -200 74 -316t224 -116q97 0 185 59 t152.5 154.5t102 219.5t37.5 253q0 200 -75 316.5t-225 116.5q-100 0 -186.5 -59.5t-149.5 -155t-101 -219t-38 -253.5zM600 1601l259 258h236l158 -258h-182l-105 149h-6l-160 -149h-200z" />
<glyph unicode="&#xd5;" horiz-adv-x="1470" d="M132 598q0 185 58 350.5t157.5 291.5t235 200t289.5 74q126 0 226 -43.5t169 -125t106 -197.5t37 -259q0 -184 -57.5 -350t-157 -292t-235 -200.5t-292.5 -74.5q-125 0 -225 43.5t-169.5 125.5t-105.5 198t-36 259zM384 616q0 -200 74 -316t224 -116q97 0 185 59 t152.5 154.5t102 219.5t37.5 253q0 200 -75 316.5t-225 116.5q-100 0 -186.5 -59.5t-149.5 -155t-101 -219t-38 -253.5zM587 1607q32 123 101 196t148 73q46 0 77.5 -18.5t57.5 -40t52.5 -40t60.5 -18.5q61 0 102 112h132q-32 -123 -99.5 -195.5t-147.5 -72.5 q-48 0 -79.5 18t-58.5 40t-52 39.5t-58 17.5q-63 0 -105 -111h-131z" />
<glyph unicode="&#xd6;" horiz-adv-x="1470" d="M132 598q0 185 58 350.5t157.5 291.5t235 200t289.5 74q126 0 226 -43.5t169 -125t106 -197.5t37 -259q0 -184 -57.5 -350t-157 -292t-235 -200.5t-292.5 -74.5q-125 0 -225 43.5t-169.5 125.5t-105.5 198t-36 259zM384 616q0 -200 74 -316t224 -116q97 0 185 59 t152.5 154.5t102 219.5t37.5 253q0 200 -75 316.5t-225 116.5q-100 0 -186.5 -59.5t-149.5 -155t-101 -219t-38 -253.5zM628 1720q0 57 40.5 102.5t99.5 45.5q45 0 78.5 -29.5t33.5 -81.5q0 -54 -41 -100.5t-100 -46.5q-48 0 -79.5 29t-31.5 81zM1032 1720q0 57 41 102.5 t100 45.5q45 0 78 -29.5t33 -81.5q0 -54 -41 -100.5t-100 -46.5q-48 0 -79.5 29t-31.5 81z" />
<glyph unicode="&#xd7;" horiz-adv-x="1122" d="M145 414l323 339l-323 336l124 123l322 -337l323 337l123 -123l-323 -336l323 -339l-123 -123l-323 338l-322 -338z" />
<glyph unicode="&#xd8;" horiz-adv-x="1470" d="M-13 22l217 228q-73 145 -72 348q0 185 58 350.5t157.5 291.5t235 200t289.5 74q124 0 220.5 -41t165.5 -115l206 215l109 -102l-232 -243q68 -141 69 -339q0 -184 -57.5 -350t-157 -292t-235 -200.5t-292.5 -74.5q-234 0 -377 151l-191 -203zM384 616q0 -87 13 -161 l692 725q-39 59 -95.5 91t-134.5 32q-100 0 -186.5 -59.5t-149.5 -155t-101 -219t-38 -253.5zM460 297q77 -113 222 -113q97 0 185 59t152.5 154.5t102 219.5t37.5 253q0 82 -13 151z" />
<glyph unicode="&#xd9;" horiz-adv-x="1431" d="M175 466q0 50 8 109t19 117l160 794h245l-166 -831q-20 -96 -20 -175q0 -144 61 -220t202 -76q117 0 203 95.5t132 321.5l176 885h241l-178 -885q-66 -332 -214 -480.5t-369 -148.5q-248 0 -374 123.5t-126 370.5zM645 1859h251l143 -258h-188z" />
<glyph unicode="&#xda;" horiz-adv-x="1431" d="M175 466q0 50 8 109t19 117l160 794h245l-166 -831q-20 -96 -20 -175q0 -144 61 -220t202 -76q117 0 203 95.5t132 321.5l176 885h241l-178 -885q-66 -332 -214 -480.5t-369 -148.5q-248 0 -374 123.5t-126 370.5zM769 1601l236 258h271l-303 -258h-204z" />
<glyph unicode="&#xdb;" horiz-adv-x="1431" d="M175 466q0 50 8 109t19 117l160 794h245l-166 -831q-20 -96 -20 -175q0 -144 61 -220t202 -76q117 0 203 95.5t132 321.5l176 885h241l-178 -885q-66 -332 -214 -480.5t-369 -148.5q-248 0 -374 123.5t-126 370.5zM582 1601l259 258h236l158 -258h-182l-105 149h-6 l-160 -149h-200z" />
<glyph unicode="&#xdc;" horiz-adv-x="1431" d="M175 466q0 50 8 109t19 117l160 794h245l-166 -831q-20 -96 -20 -175q0 -144 61 -220t202 -76q117 0 203 95.5t132 321.5l176 885h241l-178 -885q-66 -332 -214 -480.5t-369 -148.5q-248 0 -374 123.5t-126 370.5zM610 1720q0 57 40.5 102.5t99.5 45.5q45 0 78.5 -29.5 t33.5 -81.5q0 -54 -41 -100.5t-100 -46.5q-48 0 -79.5 29t-31.5 81zM1014 1720q0 57 41 102.5t100 45.5q45 0 78 -29.5t33 -81.5q0 -54 -41 -100.5t-100 -46.5q-48 0 -79.5 29t-31.5 81z" />
<glyph unicode="&#xdd;" horiz-adv-x="1104" d="M186 1486h252l85 -390q18 -87 31.5 -164t31.5 -164h10q50 87 95.5 166t97.5 164l243 388h263l-625 -927l-111 -559h-245l111 559zM588 1601l236 258h271l-303 -258h-204z" />
<glyph unicode="&#xde;" horiz-adv-x="1315" d="M73 0l296 1501h245l-48 -251h230q102 0 187.5 -20t146.5 -65.5t95.5 -117t34.5 -175.5q0 -147 -53 -251.5t-142 -170.5t-212.5 -97.5t-264.5 -31.5h-211l-63 -321h-241zM418 516h189q200 0 304.5 81.5t104.5 239.5q0 115 -72 166t-207 51h-212z" />
<glyph unicode="&#xdf;" horiz-adv-x="1324" d="M50 0l236 1171q20 96 63.5 179.5t108.5 146.5t151.5 99t193.5 36q75 0 141.5 -19t119.5 -58t83.5 -99.5t30.5 -141.5q0 -102 -43.5 -168t-96.5 -117t-96.5 -96.5t-43.5 -105.5q0 -39 23 -70.5t57.5 -61t76 -62t77 -72.5t58 -91.5t22.5 -119.5q0 -80 -31 -148t-84.5 -119 t-127 -81t-158.5 -30q-86 0 -170 27t-157 81l104 161q50 -37 104 -60.5t117 -23.5q76 0 126 46.5t50 119.5q0 46 -24 82t-60.5 68t-79 62.5t-78.5 66.5t-60 79.5t-24 103.5q0 84 44.5 140.5t96.5 107.5t96.5 108t44.5 139q0 70 -35.5 113t-114.5 43q-52 0 -95 -25 t-78.5 -66.5t-60.5 -99.5t-39 -124l-223 -1121h-245z" />
<glyph unicode="&#xe0;" horiz-adv-x="1236" d="M80 380q0 158 50 298t133.5 244t192 162.5t223.5 58.5q82 0 150.5 -42t107.5 -114h4l48 130h195l-223 -1117h-200l12 154h-7q-80 -82 -176.5 -132t-192.5 -50q-147 0 -232 105t-85 303zM332 414q0 -123 44.5 -182t121.5 -59q74 0 149.5 43t143.5 146l91 445 q-38 73 -87 105t-101 32q-70 0 -136.5 -42.5t-116.5 -115t-79.5 -169t-29.5 -203.5zM537 1629h232l129 -329h-171z" />
<glyph unicode="&#xe1;" horiz-adv-x="1236" d="M80 380q0 158 50 298t133.5 244t192 162.5t223.5 58.5q82 0 150.5 -42t107.5 -114h4l48 130h195l-223 -1117h-200l12 154h-7q-80 -82 -176.5 -132t-192.5 -50q-147 0 -232 105t-85 303zM332 414q0 -123 44.5 -182t121.5 -59q74 0 149.5 43t143.5 146l91 445 q-38 73 -87 105t-101 32q-70 0 -136.5 -42.5t-116.5 -115t-79.5 -169t-29.5 -203.5zM578 1300l263 329h251l-323 -329h-191z" />
<glyph unicode="&#xe2;" horiz-adv-x="1236" d="M80 380q0 158 50 298t133.5 244t192 162.5t223.5 58.5q82 0 150.5 -42t107.5 -114h4l48 130h195l-223 -1117h-200l12 154h-7q-80 -82 -176.5 -132t-192.5 -50q-147 0 -232 105t-85 303zM332 414q0 -123 44.5 -182t121.5 -59q74 0 149.5 43t143.5 146l91 445 q-38 73 -87 105t-101 32q-70 0 -136.5 -42.5t-116.5 -115t-79.5 -169t-29.5 -203.5zM441 1300l278 329h188l146 -329h-162l-94 196h-9l-172 -196h-175z" />
<glyph unicode="&#xe3;" horiz-adv-x="1236" d="M80 380q0 158 50 298t133.5 244t192 162.5t223.5 58.5q82 0 150.5 -42t107.5 -114h4l48 130h195l-223 -1117h-200l12 154h-7q-80 -82 -176.5 -132t-192.5 -50q-147 0 -232 105t-85 303zM332 414q0 -123 44.5 -182t121.5 -59q74 0 149.5 43t143.5 146l91 445 q-38 73 -87 105t-101 32q-70 0 -136.5 -42.5t-116.5 -115t-79.5 -169t-29.5 -203.5zM423 1314q37 126 101.5 194.5t139.5 68.5q50 0 83 -16.5t59 -38t51 -39t61 -17.5q50 0 96 107h132q-35 -123 -99.5 -193t-141.5 -70q-50 0 -83.5 17.5t-59.5 38t-51 39t-61 18.5 q-50 0 -96 -109h-131z" />
<glyph unicode="&#xe4;" horiz-adv-x="1236" d="M80 380q0 158 50 298t133.5 244t192 162.5t223.5 58.5q82 0 150.5 -42t107.5 -114h4l48 130h195l-223 -1117h-200l12 154h-7q-80 -82 -176.5 -132t-192.5 -50q-147 0 -232 105t-85 303zM332 414q0 -123 44.5 -182t121.5 -59q74 0 149.5 43t143.5 146l91 445 q-38 73 -87 105t-101 32q-70 0 -136.5 -42.5t-116.5 -115t-79.5 -169t-29.5 -203.5zM445 1432q0 59 42.5 103.5t101.5 44.5q47 0 80 -31t33 -85q0 -61 -42 -103t-101 -42q-50 0 -82 29.5t-32 83.5zM851 1432q0 59 41.5 103.5t101.5 44.5q50 0 81.5 -31t31.5 -85 q0 -61 -42 -103t-101 -42q-50 0 -81.5 29.5t-31.5 83.5z" />
<glyph unicode="&#xe5;" horiz-adv-x="1236" d="M80 380q0 158 50 298t133.5 244t192 162.5t223.5 58.5q82 0 150.5 -42t107.5 -114h4l48 130h195l-223 -1117h-200l12 154h-7q-80 -82 -176.5 -132t-192.5 -50q-147 0 -232 105t-85 303zM332 414q0 -123 44.5 -182t121.5 -59q74 0 149.5 43t143.5 146l91 445 q-38 73 -87 105t-101 32q-70 0 -136.5 -42.5t-116.5 -115t-79.5 -169t-29.5 -203.5zM554 1429q0 50 18.5 95.5t51.5 77.5t76 51.5t95 19.5q91 0 149.5 -50t58.5 -144q0 -52 -18.5 -96.5t-51 -77t-76 -52t-93.5 -19.5q-91 0 -150.5 50t-59.5 145zM682 1436q0 -43 21.5 -71.5 t65.5 -28.5q45 0 76.5 40t31.5 95q0 43 -21.5 71t-64.5 28q-46 0 -77.5 -39.5t-31.5 -94.5z" />
<glyph unicode="&#xe6;" horiz-adv-x="1722" d="M61 248q0 121 54 203.5t148 136.5t223.5 79t281.5 29q7 43 7 72q0 182 -170 182q-68 0 -144.5 -25t-156.5 -66l-59 171q96 50 202 81.5t212 31.5q109 0 180.5 -44.5t99.5 -139.5q76 87 168.5 135.5t187.5 48.5q98 0 165 -31.5t109.5 -87.5t62 -131t19.5 -162 q0 -73 -18.5 -140.5t-29.5 -95.5h-653q-20 -156 51.5 -246t198.5 -90q59 0 119.5 27.5t107.5 61.5l89 -157q-65 -48 -157 -83.5t-209 -35.5q-121 0 -215 58.5t-139 142.5q-104 -95 -211.5 -148t-230.5 -53t-208 73t-85 203zM300 297q0 -65 42 -99.5t109 -34.5q58 0 133 40 t153 124q-9 57 -9 105t9 109q-214 -5 -325.5 -68t-111.5 -176zM970 650h466q5 28 9 49t4 49q0 82 -40 144.5t-142 62.5q-87 0 -172.5 -80.5t-124.5 -224.5z" />
<glyph unicode="&#xe7;" horiz-adv-x="997" d="M75 427q0 150 51.5 281t138.5 227.5t204 152t247 55.5q102 0 174.5 -41t118.5 -95l-137 -148q-38 46 -76.5 66.5t-95.5 20.5q-75 0 -143.5 -41t-119.5 -110.5t-81.5 -161.5t-30.5 -197q0 -127 55.5 -196t170.5 -69q65 0 116 26t94 59l105 -154q-63 -45 -151 -87.5 t-214 -42.5q-94 0 -171.5 31t-134 89t-88.5 142.5t-32 192.5zM180 -388q89 11 149 40t60 84q0 32 -24 53.5t-87 39.5l123 178h150l-78 -118q44 -16 73 -48t29 -84q0 -61 -31.5 -105.5t-84.5 -74.5t-123.5 -46.5t-146.5 -21.5z" />
<glyph unicode="&#xe8;" horiz-adv-x="1108" d="M75 445q0 157 53.5 285.5t141 220.5t196.5 142t218 50q97 0 164.5 -31.5t109.5 -87.5t61.5 -131t19.5 -162q0 -73 -18.5 -140.5t-29.5 -95.5h-679q-9 -89 9 -152t55.5 -104t92 -60.5t117.5 -19.5q59 0 120.5 27.5t107.5 61.5l91 -157q-68 -48 -164.5 -83.5t-217.5 -35.5 q-100 0 -182 32.5t-141 92.5t-92 147.5t-33 200.5zM332 650h493q4 23 8 46.5t4 51.5q0 82 -40 144.5t-142 62.5t-192 -80.5t-131 -224.5zM508 1629h232l129 -329h-171z" />
<glyph unicode="&#xe9;" horiz-adv-x="1108" d="M75 445q0 157 53.5 285.5t141 220.5t196.5 142t218 50q97 0 164.5 -31.5t109.5 -87.5t61.5 -131t19.5 -162q0 -73 -18.5 -140.5t-29.5 -95.5h-679q-9 -89 9 -152t55.5 -104t92 -60.5t117.5 -19.5q59 0 120.5 27.5t107.5 61.5l91 -157q-68 -48 -164.5 -83.5t-217.5 -35.5 q-100 0 -182 32.5t-141 92.5t-92 147.5t-33 200.5zM332 650h493q4 23 8 46.5t4 51.5q0 82 -40 144.5t-142 62.5t-192 -80.5t-131 -224.5zM549 1300l263 329h251l-323 -329h-191z" />
<glyph unicode="&#xea;" horiz-adv-x="1108" d="M75 445q0 157 53.5 285.5t141 220.5t196.5 142t218 50q97 0 164.5 -31.5t109.5 -87.5t61.5 -131t19.5 -162q0 -73 -18.5 -140.5t-29.5 -95.5h-679q-9 -89 9 -152t55.5 -104t92 -60.5t117.5 -19.5q59 0 120.5 27.5t107.5 61.5l91 -157q-68 -48 -164.5 -83.5t-217.5 -35.5 q-100 0 -182 32.5t-141 92.5t-92 147.5t-33 200.5zM332 650h493q4 23 8 46.5t4 51.5q0 82 -40 144.5t-142 62.5t-192 -80.5t-131 -224.5zM412 1300l278 329h188l146 -329h-162l-94 196h-9l-172 -196h-175z" />
<glyph unicode="&#xeb;" horiz-adv-x="1108" d="M75 445q0 157 53.5 285.5t141 220.5t196.5 142t218 50q97 0 164.5 -31.5t109.5 -87.5t61.5 -131t19.5 -162q0 -73 -18.5 -140.5t-29.5 -95.5h-679q-9 -89 9 -152t55.5 -104t92 -60.5t117.5 -19.5q59 0 120.5 27.5t107.5 61.5l91 -157q-68 -48 -164.5 -83.5t-217.5 -35.5 q-100 0 -182 32.5t-141 92.5t-92 147.5t-33 200.5zM332 650h493q4 23 8 46.5t4 51.5q0 82 -40 144.5t-142 62.5t-192 -80.5t-131 -224.5zM416 1432q0 59 42.5 103.5t101.5 44.5q47 0 80 -31t33 -85q0 -61 -42 -103t-101 -42q-50 0 -82 29.5t-32 83.5zM822 1432 q0 59 41.5 103.5t101.5 44.5q50 0 81.5 -31t31.5 -85q0 -61 -42 -103t-101 -42q-50 0 -81.5 29.5t-31.5 83.5z" />
<glyph unicode="&#xec;" horiz-adv-x="570" d="M50 0l225 1117h243l-223 -1117h-245zM217 1629h232l129 -329h-171z" />
<glyph unicode="&#xed;" horiz-adv-x="570" d="M50 0l225 1117h243l-223 -1117h-245zM258 1300l263 329h251l-323 -329h-191z" />
<glyph unicode="&#xee;" horiz-adv-x="570" d="M50 0l225 1117h243l-223 -1117h-245zM121 1300l278 329h188l146 -329h-162l-94 196h-9l-172 -196h-175z" />
<glyph unicode="&#xef;" horiz-adv-x="570" d="M50 0l225 1117h243l-223 -1117h-245zM125 1432q0 59 42.5 103.5t101.5 44.5q47 0 80 -31t33 -85q0 -61 -42 -103t-101 -42q-50 0 -82 29.5t-32 83.5zM531 1432q0 59 41.5 103.5t101.5 44.5q50 0 81.5 -31t31.5 -85q0 -61 -42 -103t-101 -42q-50 0 -81.5 29.5t-31.5 83.5z " />
<glyph unicode="&#xf0;" horiz-adv-x="1206" d="M87 402q0 115 35 227t103 199.5t164.5 142.5t219.5 55q80 0 145.5 -38t109.5 -108q-16 228 -120 384l-334 -136l-48 120l295 121q-41 43 -91 81.5t-109 76.5l111 144q82 -46 155 -101.5t132 -120.5l329 133l48 -120l-293 -119q76 -111 116.5 -245.5t40.5 -297.5 q0 -158 -38.5 -307.5t-114 -265.5t-186.5 -185.5t-256 -69.5q-87 0 -163 31t-132 88t-87.5 136t-31.5 175zM310 423q0 -102 54 -177t159 -75q70 0 129.5 39.5t103.5 108.5t71.5 163.5t36.5 203.5q-37 59 -92.5 105t-133.5 46q-80 0 -140 -36.5t-103 -94.5t-64 -133t-21 -150 z" />
<glyph unicode="&#xf1;" horiz-adv-x="1224" d="M50 0l223 1117h198l-11 -158h8q89 76 183.5 130t200.5 54q141 0 203 -72.5t62 -209.5q0 -38 -4 -74.5t-15 -81.5l-141 -705h-243l136 673q7 39 12.5 66t5.5 52q0 144 -141 144q-59 0 -126 -41.5t-156 -132.5l-150 -761h-245zM470 1314q37 126 101.5 194.5t139.5 68.5 q50 0 83 -16.5t59 -38t51 -39t61 -17.5q50 0 96 107h132q-35 -123 -99.5 -193t-141.5 -70q-50 0 -83.5 17.5t-59.5 38t-51 39t-61 18.5q-50 0 -96 -109h-131z" />
<glyph unicode="&#xf2;" horiz-adv-x="1191" d="M78 427q0 159 53 292t139.5 226.5t196.5 145.5t225 52q190 0 303.5 -121.5t113.5 -332.5q0 -158 -53.5 -290.5t-139.5 -226.5t-197 -147t-226 -53q-93 0 -170.5 32.5t-131.5 91t-83.5 143t-29.5 188.5zM323 436q0 -127 50 -196t148 -69q65 0 126.5 39.5t109.5 108.5 t76 162.5t28 200.5q0 127 -50 195.5t-145 68.5q-65 0 -128 -40t-110.5 -108.5t-76 -161.5t-28.5 -200zM541 1629h232l129 -329h-171z" />
<glyph unicode="&#xf3;" horiz-adv-x="1191" d="M78 427q0 159 53 292t139.5 226.5t196.5 145.5t225 52q190 0 303.5 -121.5t113.5 -332.5q0 -158 -53.5 -290.5t-139.5 -226.5t-197 -147t-226 -53q-93 0 -170.5 32.5t-131.5 91t-83.5 143t-29.5 188.5zM323 436q0 -127 50 -196t148 -69q65 0 126.5 39.5t109.5 108.5 t76 162.5t28 200.5q0 127 -50 195.5t-145 68.5q-65 0 -128 -40t-110.5 -108.5t-76 -161.5t-28.5 -200zM582 1300l263 329h251l-323 -329h-191z" />
<glyph unicode="&#xf4;" horiz-adv-x="1191" d="M78 427q0 159 53 292t139.5 226.5t196.5 145.5t225 52q190 0 303.5 -121.5t113.5 -332.5q0 -158 -53.5 -290.5t-139.5 -226.5t-197 -147t-226 -53q-93 0 -170.5 32.5t-131.5 91t-83.5 143t-29.5 188.5zM323 436q0 -127 50 -196t148 -69q65 0 126.5 39.5t109.5 108.5 t76 162.5t28 200.5q0 127 -50 195.5t-145 68.5q-65 0 -128 -40t-110.5 -108.5t-76 -161.5t-28.5 -200zM445 1300l278 329h188l146 -329h-162l-94 196h-9l-172 -196h-175z" />
<glyph unicode="&#xf5;" horiz-adv-x="1191" d="M78 427q0 159 53 292t139.5 226.5t196.5 145.5t225 52q190 0 303.5 -121.5t113.5 -332.5q0 -158 -53.5 -290.5t-139.5 -226.5t-197 -147t-226 -53q-93 0 -170.5 32.5t-131.5 91t-83.5 143t-29.5 188.5zM323 436q0 -127 50 -196t148 -69q65 0 126.5 39.5t109.5 108.5 t76 162.5t28 200.5q0 127 -50 195.5t-145 68.5q-65 0 -128 -40t-110.5 -108.5t-76 -161.5t-28.5 -200zM427 1314q37 126 101.5 194.5t139.5 68.5q50 0 83 -16.5t59 -38t51 -39t61 -17.5q50 0 96 107h132q-35 -123 -99.5 -193t-141.5 -70q-50 0 -83.5 17.5t-59.5 38t-51 39 t-61 18.5q-50 0 -96 -109h-131z" />
<glyph unicode="&#xf6;" horiz-adv-x="1191" d="M78 427q0 159 53 292t139.5 226.5t196.5 145.5t225 52q190 0 303.5 -121.5t113.5 -332.5q0 -158 -53.5 -290.5t-139.5 -226.5t-197 -147t-226 -53q-93 0 -170.5 32.5t-131.5 91t-83.5 143t-29.5 188.5zM323 436q0 -127 50 -196t148 -69q65 0 126.5 39.5t109.5 108.5 t76 162.5t28 200.5q0 127 -50 195.5t-145 68.5q-65 0 -128 -40t-110.5 -108.5t-76 -161.5t-28.5 -200zM449 1432q0 59 42.5 103.5t101.5 44.5q47 0 80 -31t33 -85q0 -61 -42 -103t-101 -42q-50 0 -82 29.5t-32 83.5zM855 1432q0 59 41.5 103.5t101.5 44.5q50 0 81.5 -31 t31.5 -85q0 -61 -42 -103t-101 -42q-50 0 -81.5 29.5t-31.5 83.5z" />
<glyph unicode="&#xf7;" horiz-adv-x="1122" d="M109 664v175h964v-175h-964zM445 336q0 59 42 100t104 41q61 0 103.5 -41t42.5 -100q0 -61 -42.5 -101t-103.5 -40q-62 0 -104 40t-42 101zM445 1164q0 59 42 99t104 40q61 0 103.5 -40t42.5 -99q0 -61 -42.5 -102t-103.5 -41q-62 0 -104 40.5t-42 102.5z" />
<glyph unicode="&#xf8;" horiz-adv-x="1191" d="M0 22l141 144q-63 109 -63 261q0 159 53 292t139.5 226.5t196.5 145.5t225 52q175 0 290 -108l129 134l84 -78l-145 -150q59 -104 59 -252q0 -161 -53.5 -293t-139.5 -226.5t-196.5 -146t-226.5 -51.5q-169 0 -284 106l-127 -132zM306 436q0 -48 8 -89l513 528 q-57 75 -154 75q-80 0 -146.5 -45.5t-115.5 -118t-77 -165t-28 -185.5zM362 234q54 -68 150 -68q82 0 148.5 44t115.5 117t75.5 165t26.5 185q0 41 -8 80z" />
<glyph unicode="&#xf9;" horiz-adv-x="1219" d="M107 254q0 39 4 77t14 81l141 705h243l-134 -674q-9 -39 -13.5 -66t-4.5 -52q0 -143 138 -143q111 0 275 172l150 763h244l-220 -1117h-198l9 159h-9q-84 -76 -177.5 -131.5t-195.5 -55.5q-141 0 -203.5 74.5t-62.5 207.5zM528 1629h232l129 -329h-171z" />
<glyph unicode="&#xfa;" horiz-adv-x="1219" d="M107 254q0 39 4 77t14 81l141 705h243l-134 -674q-9 -39 -13.5 -66t-4.5 -52q0 -143 138 -143q111 0 275 172l150 763h244l-220 -1117h-198l9 159h-9q-84 -76 -177.5 -131.5t-195.5 -55.5q-141 0 -203.5 74.5t-62.5 207.5zM569 1300l263 329h251l-323 -329h-191z" />
<glyph unicode="&#xfb;" horiz-adv-x="1219" d="M107 254q0 39 4 77t14 81l141 705h243l-134 -674q-9 -39 -13.5 -66t-4.5 -52q0 -143 138 -143q111 0 275 172l150 763h244l-220 -1117h-198l9 159h-9q-84 -76 -177.5 -131.5t-195.5 -55.5q-141 0 -203.5 74.5t-62.5 207.5zM432 1300l278 329h188l146 -329h-162l-94 196 h-9l-172 -196h-175z" />
<glyph unicode="&#xfc;" horiz-adv-x="1219" d="M107 254q0 39 4 77t14 81l141 705h243l-134 -674q-9 -39 -13.5 -66t-4.5 -52q0 -143 138 -143q111 0 275 172l150 763h244l-220 -1117h-198l9 159h-9q-84 -76 -177.5 -131.5t-195.5 -55.5q-141 0 -203.5 74.5t-62.5 207.5zM436 1432q0 59 42.5 103.5t101.5 44.5 q47 0 80 -31t33 -85q0 -61 -42 -103t-101 -42q-50 0 -82 29.5t-32 83.5zM842 1432q0 59 41.5 103.5t101.5 44.5q50 0 81.5 -31t31.5 -85q0 -61 -42 -103t-101 -42q-50 0 -81.5 29.5t-31.5 83.5z" />
<glyph unicode="&#xfd;" horiz-adv-x="1076" d="M-109 -418l77 177q39 -22 82 -23q73 0 138.5 56t111.5 151l34 68l-193 1106h243l71 -564q9 -76 15.5 -166t11.5 -168h9q38 80 78 167t79 167l278 564h236l-628 -1176q-52 -91 -105.5 -164.5t-113 -126t-128.5 -81.5t-153 -29q-27 0 -69.5 12t-73.5 30zM482 1300l263 329 h251l-323 -329h-191z" />
<glyph unicode="&#xfe;" horiz-adv-x="1236" d="M-39 -441l412 2046h243l-80 -395l-54 -214h4q80 63 169 105t182 42q150 0 233.5 -104t83.5 -302q0 -161 -50 -300.5t-133.5 -242.5t-190.5 -162.5t-223 -59.5q-80 0 -143.5 40t-103.5 106h-6l-35 -227l-65 -332h-243zM357 304q37 -70 84 -100.5t100 -30.5q69 0 136 41.5 t117 114.5t80.5 170t30.5 206q0 123 -45 181t-123 58q-65 0 -143 -40t-141 -121z" />
<glyph unicode="&#xff;" horiz-adv-x="1076" d="M-109 -418l77 177q39 -22 82 -23q73 0 138.5 56t111.5 151l34 68l-193 1106h243l71 -564q9 -76 15.5 -166t11.5 -168h9q38 80 78 167t79 167l278 564h236l-628 -1176q-52 -91 -105.5 -164.5t-113 -126t-128.5 -81.5t-153 -29q-27 0 -69.5 12t-73.5 30zM349 1432 q0 59 42.5 103.5t101.5 44.5q47 0 80 -31t33 -85q0 -61 -42 -103t-101 -42q-50 0 -82 29.5t-32 83.5zM755 1432q0 59 41.5 103.5t101.5 44.5q50 0 81.5 -31t31.5 -85q0 -61 -42 -103t-101 -42q-50 0 -81.5 29.5t-31.5 83.5z" />
<glyph unicode="&#x100;" horiz-adv-x="1202" d="M-132 0l796 1486h291l159 -1486h-255l-29 418h-485l-206 -418h-271zM436 605h380l-16 225q-6 116 -14.5 227.5t-12.5 233.5h-9q-55 -123 -106 -234t-110 -227zM521 1646l32 163h573l-32 -163h-573z" />
<glyph unicode="&#x101;" horiz-adv-x="1236" d="M80 380q0 158 50 298t133.5 244t192 162.5t223.5 58.5q82 0 150.5 -42t107.5 -114h4l48 130h195l-223 -1117h-200l12 154h-7q-80 -82 -176.5 -132t-192.5 -50q-147 0 -232 105t-85 303zM332 414q0 -123 44.5 -182t121.5 -59q74 0 149.5 43t143.5 146l91 445 q-38 73 -87 105t-101 32q-70 0 -136.5 -42.5t-116.5 -115t-79.5 -169t-29.5 -203.5zM473 1358l31 160h566l-28 -160h-569z" />
<glyph unicode="&#x102;" horiz-adv-x="1202" d="M-132 0l796 1486h291l159 -1486h-255l-29 418h-485l-206 -418h-271zM436 605h380l-16 225q-6 116 -14.5 227.5t-12.5 233.5h-9q-55 -123 -106 -234t-110 -227zM569 1859h134q-4 -54 25 -91.5t93 -37.5q65 0 106 38.5t62 90.5h139q-18 -54 -45.5 -100.5t-67 -81.5 t-93.5 -55.5t-123 -20.5q-64 0 -109.5 20.5t-74.5 55.5t-40 82.5t-6 99.5z" />
<glyph unicode="&#x103;" horiz-adv-x="1236" d="M80 380q0 158 50 298t133.5 244t192 162.5t223.5 58.5q82 0 150.5 -42t107.5 -114h4l48 130h195l-223 -1117h-200l12 154h-7q-80 -82 -176.5 -132t-192.5 -50q-147 0 -232 105t-85 303zM332 414q0 -123 44.5 -182t121.5 -59q74 0 149.5 43t143.5 146l91 445 q-38 73 -87 105t-101 32q-70 0 -136.5 -42.5t-116.5 -115t-79.5 -169t-29.5 -203.5zM519.5 1494.5q-8.5 53.5 3.5 110.5h134q-6 -70 19.5 -116t94.5 -46q70 0 115.5 46.5t68.5 115.5h141q-16 -57 -44.5 -110.5t-72 -95t-101 -66.5t-131.5 -25q-70 0 -117.5 25t-74.5 66.5 t-35.5 95z" />
<glyph unicode="&#x104;" horiz-adv-x="1202" d="M-132 0l796 1486h291l159 -1486q-123 -57 -176 -124t-53 -126q0 -39 23.5 -59.5t54.5 -20.5q35 0 74 24l50 -126q-46 -28 -101.5 -43.5t-103.5 -15.5q-86 0 -141 42t-55 122q0 52 21.5 100.5t54 91t70.5 76t73 59.5h-46l-29 418h-485l-206 -418h-271zM436 605h380 l-16 225q-6 116 -14.5 227.5t-12.5 233.5h-9q-55 -123 -106 -234t-110 -227z" />
<glyph unicode="&#x105;" horiz-adv-x="1236" d="M80 380q0 158 50 298t133.5 244t192 162.5t223.5 58.5q82 0 151.5 -43t106.5 -115h4l48 132h195l-223 -1117q-115 -46 -180 -109.5t-65 -135.5q0 -37 24 -56.5t56 -19.5q41 0 79 26l45 -110q-43 -30 -99.5 -49t-104.5 -19q-80 0 -132 40t-52 119q0 52 22.5 101.5t57 91 t75 75t77.5 55.5l9 148h-5q-80 -83 -177.5 -134t-193.5 -51q-147 0 -232 105t-85 303zM332 414q0 -123 44.5 -182t121.5 -59q66 0 145.5 43t147.5 146l91 447q-38 73 -87 104t-101 31q-70 0 -136.5 -42.5t-116.5 -115t-79.5 -169t-29.5 -203.5z" />
<glyph unicode="&#x106;" horiz-adv-x="1269" d="M130 584q0 184 57.5 352t161.5 297t247 205t313 76q130 0 225.5 -62.5t154.5 -165.5l-168 -129q-43 67 -98 106.5t-127 39.5q-113 0 -207.5 -61.5t-163 -160.5t-107 -224.5t-38.5 -253.5q0 -94 19 -171.5t61.5 -132t107 -85t155.5 -30.5q80 0 149 34t135 88l107 -156 q-75 -66 -185.5 -122t-253.5 -56q-128 0 -229 43.5t-171.5 123.5t-107.5 192t-37 253zM810 1601l236 258h271l-303 -258h-204z" />
<glyph unicode="&#x107;" horiz-adv-x="997" d="M75 427q0 150 51.5 281t138.5 227.5t204 152t247 55.5q102 0 174.5 -41t118.5 -95l-137 -148q-38 46 -76.5 66.5t-95.5 20.5q-75 0 -143.5 -41t-119.5 -110.5t-81.5 -161.5t-30.5 -197q0 -127 55.5 -196t170.5 -69q65 0 116 26t94 59l105 -154q-63 -45 -151 -87.5 t-214 -42.5q-94 0 -171.5 31t-134 89t-88.5 142.5t-32 192.5zM553 1300l263 329h251l-323 -329h-191z" />
<glyph unicode="&#x108;" horiz-adv-x="1269" d="M130 584q0 184 57.5 352t161.5 297t247 205t313 76q130 0 225.5 -62.5t154.5 -165.5l-168 -129q-43 67 -98 106.5t-127 39.5q-113 0 -207.5 -61.5t-163 -160.5t-107 -224.5t-38.5 -253.5q0 -94 19 -171.5t61.5 -132t107 -85t155.5 -30.5q80 0 149 34t135 88l107 -156 q-75 -66 -185.5 -122t-253.5 -56q-128 0 -229 43.5t-171.5 123.5t-107.5 192t-37 253zM623 1601l259 258h236l158 -258h-182l-105 149h-6l-160 -149h-200z" />
<glyph unicode="&#x109;" horiz-adv-x="997" d="M75 427q0 150 51.5 281t138.5 227.5t204 152t247 55.5q102 0 174.5 -41t118.5 -95l-137 -148q-38 46 -76.5 66.5t-95.5 20.5q-75 0 -143.5 -41t-119.5 -110.5t-81.5 -161.5t-30.5 -197q0 -127 55.5 -196t170.5 -69q65 0 116 26t94 59l105 -154q-63 -45 -151 -87.5 t-214 -42.5q-94 0 -171.5 31t-134 89t-88.5 142.5t-32 192.5zM416 1300l278 329h188l146 -329h-162l-94 196h-9l-172 -196h-175z" />
<glyph unicode="&#x10a;" horiz-adv-x="1269" d="M130 584q0 184 57.5 352t161.5 297t247 205t313 76q130 0 225.5 -62.5t154.5 -165.5l-168 -129q-43 67 -98 106.5t-127 39.5q-113 0 -207.5 -61.5t-163 -160.5t-107 -224.5t-38.5 -253.5q0 -94 19 -171.5t61.5 -132t107 -85t155.5 -30.5q80 0 149 34t135 88l107 -156 q-75 -66 -185.5 -122t-253.5 -56q-128 0 -229 43.5t-171.5 123.5t-107.5 192t-37 253zM827 1739q0 66 49 112.5t116 46.5q54 0 97.5 -34t43.5 -96q0 -67 -48.5 -111.5t-116.5 -44.5q-54 0 -97.5 31.5t-43.5 95.5z" />
<glyph unicode="&#x10b;" horiz-adv-x="997" d="M75 427q0 150 51.5 281t138.5 227.5t204 152t247 55.5q102 0 174.5 -41t118.5 -95l-137 -148q-38 46 -76.5 66.5t-95.5 20.5q-75 0 -143.5 -41t-119.5 -110.5t-81.5 -161.5t-30.5 -197q0 -127 55.5 -196t170.5 -69q65 0 116 26t94 59l105 -154q-63 -45 -151 -87.5 t-214 -42.5q-94 0 -171.5 31t-134 89t-88.5 142.5t-32 192.5zM598 1441q0 65 49 112.5t114 47.5q55 0 98 -33.5t43 -94.5q0 -68 -47.5 -113.5t-115.5 -45.5q-54 0 -97.5 33t-43.5 94z" />
<glyph unicode="&#x10c;" horiz-adv-x="1269" d="M130 584q0 184 57.5 352t161.5 297t247 205t313 76q130 0 225.5 -62.5t154.5 -165.5l-168 -129q-43 67 -98 106.5t-127 39.5q-113 0 -207.5 -61.5t-163 -160.5t-107 -224.5t-38.5 -253.5q0 -94 19 -171.5t61.5 -132t107 -85t155.5 -30.5q80 0 149 34t135 88l107 -156 q-75 -66 -185.5 -122t-253.5 -56q-128 0 -229 43.5t-171.5 123.5t-107.5 192t-37 253zM675 1859h182l105 -150h6l162 150h198l-260 -258h-234z" />
<glyph unicode="&#x10d;" horiz-adv-x="997" d="M75 427q0 150 51.5 281t138.5 227.5t204 152t247 55.5q102 0 174.5 -41t118.5 -95l-137 -148q-38 46 -76.5 66.5t-95.5 20.5q-75 0 -143.5 -41t-119.5 -110.5t-81.5 -161.5t-30.5 -197q0 -127 55.5 -196t170.5 -69q65 0 116 26t94 59l105 -154q-63 -45 -151 -87.5 t-214 -42.5q-94 0 -171.5 31t-134 89t-88.5 142.5t-32 192.5zM484 1629h162l95 -193h9l171 193h177l-278 -329h-188z" />
<glyph unicode="&#x10e;" horiz-adv-x="1371" d="M73 0l296 1486h301q312 0 478 -148.5t166 -432.5q0 -211 -58 -379.5t-163.5 -284.5t-254.5 -178.5t-333 -62.5h-432zM357 198h144q125 0 228 46.5t178 135t115.5 217t40.5 292.5q0 200 -104 300t-295 100h-91zM588 1859h182l105 -150h6l162 150h198l-260 -258h-234z" />
<glyph unicode="&#x10f;" horiz-adv-x="1263" d="M80 380q0 158 50 298t133.5 244t192 162.5t223.5 58.5q82 0 146 -41t101 -106h6l31 214l78 395h243l-323 -1605h-200l12 154h-7q-80 -82 -176.5 -132t-192.5 -50q-147 0 -232 105t-85 303zM332 414q0 -123 44.5 -182t121.5 -59q74 0 148 43t145 146l91 445 q-38 73 -87 105t-101 32q-70 0 -136.5 -42.5t-116.5 -115t-79.5 -169t-29.5 -203.5zM1312 1245l91 494h161l-29 -143l-112 -351h-111z" />
<glyph unicode="&#x110;" horiz-adv-x="1413" d="M95 716l26 119l161 9l128 642h302q311 0 477 -148.5t166 -432.5q0 -211 -58 -379.5t-163.5 -284.5t-255 -178.5t-332.5 -62.5h-433l143 716h-161zM397 198h144q125 0 228 46.5t178.5 135t116 217t40.5 292.5q0 200 -104 300t-295 100h-91l-89 -445h312l-28 -128h-308z " />
<glyph unicode="&#x111;" horiz-adv-x="1232" d="M80 380q0 143 50 273t132.5 228.5t191 157.5t223.5 59q82 0 145 -41t94 -107h6l33 214l23 120h-340l26 128h338l39 193h243l-39 -193h158l-28 -117l-154 -11l-260 -1284h-200l12 154h-7q-80 -82 -176.5 -132t-192.5 -50q-147 0 -232 105t-85 303zM332 414 q0 -123 44.5 -182t121.5 -59q74 0 148 43t145 146l81 399q-34 74 -81 105.5t-99 31.5q-70 0 -135.5 -42t-115.5 -110.5t-79.5 -154.5t-29.5 -177z" />
<glyph unicode="&#x112;" horiz-adv-x="1169" d="M73 0l296 1486h852l-41 -206h-609l-80 -400h516l-41 -207h-513l-96 -467h628l-41 -206h-871zM536 1646l32 163h573l-32 -163h-573z" />
<glyph unicode="&#x113;" horiz-adv-x="1108" d="M75 445q0 157 53.5 285.5t141 220.5t196.5 142t218 50q97 0 164.5 -31.5t109.5 -87.5t61.5 -131t19.5 -162q0 -73 -18.5 -140.5t-29.5 -95.5h-679q-9 -89 9 -152t55.5 -104t92 -60.5t117.5 -19.5q59 0 120.5 27.5t107.5 61.5l91 -157q-68 -48 -164.5 -83.5t-217.5 -35.5 q-100 0 -182 32.5t-141 92.5t-92 147.5t-33 200.5zM332 650h493q4 23 8 46.5t4 51.5q0 82 -40 144.5t-142 62.5t-192 -80.5t-131 -224.5zM444 1358l31 160h566l-28 -160h-569z" />
<glyph unicode="&#x114;" horiz-adv-x="1169" d="M73 0l296 1486h852l-41 -206h-609l-80 -400h516l-41 -207h-513l-96 -467h628l-41 -206h-871zM584 1859h134q-4 -54 25 -91.5t93 -37.5q65 0 106 38.5t62 90.5h139q-18 -54 -45.5 -100.5t-67 -81.5t-93.5 -55.5t-123 -20.5q-64 0 -109.5 20.5t-74.5 55.5t-40 82.5t-6 99.5 z" />
<glyph unicode="&#x115;" horiz-adv-x="1108" d="M75 445q0 157 53.5 285.5t141 220.5t196.5 142t218 50q97 0 164.5 -31.5t109.5 -87.5t61.5 -131t19.5 -162q0 -73 -18.5 -140.5t-29.5 -95.5h-679q-9 -89 9 -152t55.5 -104t92 -60.5t117.5 -19.5q59 0 120.5 27.5t107.5 61.5l91 -157q-68 -48 -164.5 -83.5t-217.5 -35.5 q-100 0 -182 32.5t-141 92.5t-92 147.5t-33 200.5zM332 650h493q4 23 8 46.5t4 51.5q0 82 -40 144.5t-142 62.5t-192 -80.5t-131 -224.5zM490.5 1494.5q-8.5 53.5 3.5 110.5h134q-6 -70 19.5 -116t94.5 -46q70 0 115.5 46.5t68.5 115.5h141q-16 -57 -44.5 -110.5t-72 -95 t-101 -66.5t-131.5 -25q-70 0 -117.5 25t-74.5 66.5t-35.5 95z" />
<glyph unicode="&#x116;" horiz-adv-x="1169" d="M73 0l296 1486h852l-41 -206h-609l-80 -400h516l-41 -207h-513l-96 -467h628l-41 -206h-871zM690 1739q0 66 49 112.5t116 46.5q54 0 97.5 -34t43.5 -96q0 -67 -48.5 -111.5t-116.5 -44.5q-54 0 -97.5 31.5t-43.5 95.5z" />
<glyph unicode="&#x117;" horiz-adv-x="1108" d="M75 445q0 157 53.5 285.5t141 220.5t196.5 142t218 50q97 0 164.5 -31.5t109.5 -87.5t61.5 -131t19.5 -162q0 -73 -18.5 -140.5t-29.5 -95.5h-679q-9 -89 9 -152t55.5 -104t92 -60.5t117.5 -19.5q59 0 120.5 27.5t107.5 61.5l91 -157q-68 -48 -164.5 -83.5t-217.5 -35.5 q-100 0 -182 32.5t-141 92.5t-92 147.5t-33 200.5zM332 650h493q4 23 8 46.5t4 51.5q0 82 -40 144.5t-142 62.5t-192 -80.5t-131 -224.5zM594 1441q0 65 49 112.5t114 47.5q55 0 98 -33.5t43 -94.5q0 -68 -47.5 -113.5t-115.5 -45.5q-54 0 -97.5 33t-43.5 94z" />
<glyph unicode="&#x118;" horiz-adv-x="1169" d="M73 0l296 1486h852l-41 -206h-609l-80 -400h516l-41 -207h-513l-96 -467h628l-41 -206q-53 -7 -97 -35t-76 -66t-50 -78t-18 -71q0 -39 23.5 -59.5t56.5 -20.5q34 0 72 24l50 -126q-46 -28 -101.5 -43.5t-103.5 -15.5q-86 0 -140.5 42t-54.5 122q0 54 23 104t55.5 93 t70.5 76.5t66 53.5h-647z" />
<glyph unicode="&#x119;" horiz-adv-x="1108" d="M75 445q0 157 53.5 285.5t141 220.5t196.5 142t218 50q97 0 164.5 -31.5t109.5 -87.5t61.5 -131t19.5 -162q0 -73 -18.5 -140.5t-29.5 -95.5h-679q-9 -89 9 -152t55.5 -104t92 -60.5t117.5 -19.5q59 0 120.5 27.5t107.5 61.5l91 -157q-100 -52 -163 -100t-100 -90 t-51 -79.5t-14 -66.5q0 -37 24 -56.5t58 -19.5q37 0 80 26l44 -110q-44 -30 -101 -49t-105 -19q-80 0 -131 39.5t-51 119.5q0 52 20.5 98.5t50 84.5t59.5 65t48 44q-11 -2 -24 -4t-24 -2q-100 0 -183 32.5t-142 92.5t-92 147.5t-33 200.5zM332 650h493q4 23 8 46.5t4 51.5 q0 82 -40 144.5t-142 62.5t-192 -80.5t-131 -224.5z" />
<glyph unicode="&#x11a;" horiz-adv-x="1169" d="M73 0l296 1486h852l-41 -206h-609l-80 -400h516l-41 -207h-513l-96 -467h628l-41 -206h-871zM538 1859h182l105 -150h6l162 150h198l-260 -258h-234z" />
<glyph unicode="&#x11b;" horiz-adv-x="1108" d="M75 445q0 157 53.5 285.5t141 220.5t196.5 142t218 50q97 0 164.5 -31.5t109.5 -87.5t61.5 -131t19.5 -162q0 -73 -18.5 -140.5t-29.5 -95.5h-679q-9 -89 9 -152t55.5 -104t92 -60.5t117.5 -19.5q59 0 120.5 27.5t107.5 61.5l91 -157q-68 -48 -164.5 -83.5t-217.5 -35.5 q-100 0 -182 32.5t-141 92.5t-92 147.5t-33 200.5zM332 650h493q4 23 8 46.5t4 51.5q0 82 -40 144.5t-142 62.5t-192 -80.5t-131 -224.5zM480 1629h162l95 -193h9l171 193h177l-278 -329h-188z" />
<glyph unicode="&#x11c;" horiz-adv-x="1363" d="M130 584q0 184 57.5 353.5t163.5 297t254 203.5t327 76q139 0 237 -62.5t156 -165.5l-168 -129q-44 67 -100.5 106.5t-138.5 39.5q-121 0 -220.5 -61.5t-170 -160.5t-109 -224.5t-38.5 -253.5q0 -94 19 -170t62.5 -133t112 -87.5t165.5 -30.5q64 0 116 19.5t91 50.5 l73 351h-275l39 200h492l-134 -678q-82 -65 -194 -109t-249 -44q-273 0 -420.5 164t-147.5 448zM616 1601l259 258h236l158 -258h-182l-105 149h-6l-160 -149h-200z" />
<glyph unicode="&#x11d;" horiz-adv-x="1222" d="M-16 -341l109 163q64 -52 138.5 -87t161.5 -35q128 0 205 74t114 208l54 207h-7q-80 -76 -167 -121.5t-187 -45.5q-141 0 -233 99.5t-92 294.5q0 152 49 284t130.5 231t187.5 155.5t219 56.5q82 0 149 -42t103 -114h8l47 130h198l-227 -1133q-48 -236 -191.5 -357.5 t-366.5 -121.5q-106 0 -209.5 40.5t-192.5 113.5zM332 447q0 -113 44 -167.5t117 -54.5q65 0 144 39.5t146 128.5l83 414q-39 73 -87 105t-100 32q-67 0 -130 -40t-112 -108.5t-77 -158t-28 -190.5zM425 1300l278 329h188l146 -329h-162l-94 196h-9l-172 -196h-175z" />
<glyph unicode="&#x11e;" horiz-adv-x="1363" d="M130 584q0 184 57.5 353.5t163.5 297t254 203.5t327 76q139 0 237 -62.5t156 -165.5l-168 -129q-44 67 -100.5 106.5t-138.5 39.5q-121 0 -220.5 -61.5t-170 -160.5t-109 -224.5t-38.5 -253.5q0 -94 19 -170t62.5 -133t112 -87.5t165.5 -30.5q64 0 116 19.5t91 50.5 l73 351h-275l39 200h492l-134 -678q-82 -65 -194 -109t-249 -44q-273 0 -420.5 164t-147.5 448zM714 1859h134q-4 -54 25 -91.5t93 -37.5q65 0 106 38.5t62 90.5h139q-18 -54 -45.5 -100.5t-67 -81.5t-93.5 -55.5t-123 -20.5q-64 0 -109.5 20.5t-74.5 55.5t-40 82.5t-6 99.5 z" />
<glyph unicode="&#x11f;" horiz-adv-x="1222" d="M-16 -341l109 163q64 -52 138.5 -87t161.5 -35q128 0 205 74t114 208l54 207h-7q-80 -76 -167 -121.5t-187 -45.5q-141 0 -233 99.5t-92 294.5q0 152 49 284t130.5 231t187.5 155.5t219 56.5q82 0 149 -42t103 -114h8l47 130h198l-227 -1133q-48 -236 -191.5 -357.5 t-366.5 -121.5q-106 0 -209.5 40.5t-192.5 113.5zM332 447q0 -113 44 -167.5t117 -54.5q65 0 144 39.5t146 128.5l83 414q-39 73 -87 105t-100 32q-67 0 -130 -40t-112 -108.5t-77 -158t-28 -190.5zM503.5 1494.5q-8.5 53.5 3.5 110.5h134q-6 -70 19.5 -116t94.5 -46 q70 0 115.5 46.5t68.5 115.5h141q-16 -57 -44.5 -110.5t-72 -95t-101 -66.5t-131.5 -25q-70 0 -117.5 25t-74.5 66.5t-35.5 95z" />
<glyph unicode="&#x120;" horiz-adv-x="1363" d="M130 584q0 184 57.5 353.5t163.5 297t254 203.5t327 76q139 0 237 -62.5t156 -165.5l-168 -129q-44 67 -100.5 106.5t-138.5 39.5q-121 0 -220.5 -61.5t-170 -160.5t-109 -224.5t-38.5 -253.5q0 -94 19 -170t62.5 -133t112 -87.5t165.5 -30.5q64 0 116 19.5t91 50.5 l73 351h-275l39 200h492l-134 -678q-82 -65 -194 -109t-249 -44q-273 0 -420.5 164t-147.5 448zM820 1739q0 66 49 112.5t116 46.5q54 0 97.5 -34t43.5 -96q0 -67 -48.5 -111.5t-116.5 -44.5q-54 0 -97.5 31.5t-43.5 95.5z" />
<glyph unicode="&#x121;" horiz-adv-x="1222" d="M-16 -341l109 163q64 -52 138.5 -87t161.5 -35q128 0 205 74t114 208l54 207h-7q-80 -76 -167 -121.5t-187 -45.5q-141 0 -233 99.5t-92 294.5q0 152 49 284t130.5 231t187.5 155.5t219 56.5q82 0 149 -42t103 -114h8l47 130h198l-227 -1133q-48 -236 -191.5 -357.5 t-366.5 -121.5q-106 0 -209.5 40.5t-192.5 113.5zM332 447q0 -113 44 -167.5t117 -54.5q65 0 144 39.5t146 128.5l83 414q-39 73 -87 105t-100 32q-67 0 -130 -40t-112 -108.5t-77 -158t-28 -190.5zM607 1441q0 65 49 112.5t114 47.5q55 0 98 -33.5t43 -94.5 q0 -68 -47.5 -113.5t-115.5 -45.5q-54 0 -97.5 33t-43.5 94z" />
<glyph unicode="&#x122;" horiz-adv-x="1363" d="M130 584q0 184 57.5 353.5t163.5 297t254 203.5t327 76q139 0 237 -62.5t156 -165.5l-168 -129q-44 67 -100.5 106.5t-138.5 39.5q-121 0 -220.5 -61.5t-170 -160.5t-109 -224.5t-38.5 -253.5q0 -94 19 -170t62.5 -133t112 -87.5t165.5 -30.5q64 0 116 19.5t91 50.5 l73 351h-275l39 200h492l-134 -678q-82 -65 -194 -109t-249 -44q-273 0 -420.5 164t-147.5 448zM430 -384q102 11 155.5 37t53.5 79q0 32 -24 49.5t-60 30.5l66 93q91 -18 143 -54.5t52 -105.5q0 -63 -30.5 -105.5t-82.5 -68.5t-120.5 -40t-143.5 -18z" />
<glyph unicode="&#x123;" horiz-adv-x="1222" d="M-16 -341l109 163q64 -52 138.5 -87t161.5 -35q128 0 205 74t114 208l54 207h-7q-80 -76 -167 -121.5t-187 -45.5q-141 0 -233 99.5t-92 294.5q0 152 49 284t130.5 231t187.5 155.5t219 56.5q82 0 149 -42t103 -114h8l47 130h198l-227 -1133q-48 -236 -191.5 -357.5 t-366.5 -121.5q-106 0 -209.5 40.5t-192.5 113.5zM332 447q0 -113 44 -167.5t117 -54.5q65 0 144 39.5t146 128.5l83 414q-39 73 -87 105t-100 32q-67 0 -130 -40t-112 -108.5t-77 -158t-28 -190.5zM593 1395q0 64 30.5 106.5t83 68.5t121 39.5t142.5 17.5l9 -102 q-102 -11 -155.5 -37t-53.5 -78q0 -32 24 -50.5t61 -31.5l-67 -94q-91 18 -143 56t-52 105z" />
<glyph unicode="&#x124;" horiz-adv-x="1449" d="M73 0l296 1486h245l-123 -601h589l120 601h246l-298 -1486h-246l137 670h-588l-132 -670h-246zM566 1601l259 258h236l158 -258h-182l-105 149h-6l-160 -149h-200z" />
<glyph unicode="&#x125;" horiz-adv-x="1211" d="M50 0l323 1605h243l-98 -473l-43 -162h9q87 73 176.5 123t191.5 50q141 0 203 -72.5t62 -209.5q0 -38 -4 -74.5t-15 -81.5l-141 -705h-243l136 673q7 39 12.5 66t5.5 52q0 144 -141 144q-59 0 -126 -41.5t-156 -132.5l-150 -761h-245zM178 1714l259 258h236l158 -258 h-182l-105 149h-6l-160 -149h-200z" />
<glyph unicode="&#x126;" horiz-adv-x="1477" d="M84 0l222 1117h-140l25 117l141 7l50 245h245l-50 -243h590l47 243h246l-48 -243h200l-25 -126h-203l-222 -1117h-246l134 670h-586l-134 -670h-246zM505 885h588l46 232h-586z" />
<glyph unicode="&#x127;" horiz-adv-x="1211" d="M50 0l260 1284h-160l23 117l161 11l39 193h243l-41 -193h384l-27 -128h-381l-42 -197l-43 -161h9q87 73 176.5 122.5t192.5 49.5q141 0 202 -73t61 -209q0 -39 -3.5 -75t-14.5 -82l-132 -659h-243l127 627q7 39 12.5 66t5.5 53q0 143 -141 143q-59 0 -126 -41t-156 -132 l-141 -716h-245z" />
<glyph unicode="&#x128;" horiz-adv-x="620" d="M73 0l296 1486h245l-295 -1486h-246zM148 1607q32 123 101 196t148 73q46 0 77.5 -18.5t57.5 -40t52.5 -40t60.5 -18.5q61 0 102 112h132q-32 -123 -99.5 -195.5t-147.5 -72.5q-48 0 -79.5 18t-58.5 40t-52 39.5t-58 17.5q-63 0 -105 -111h-131z" />
<glyph unicode="&#x129;" horiz-adv-x="570" d="M50 0l225 1117h243l-223 -1117h-245zM103 1314q37 126 101.5 194.5t139.5 68.5q50 0 83 -16.5t59 -38t51 -39t61 -17.5q50 0 96 107h132q-35 -123 -99.5 -193t-141.5 -70q-50 0 -83.5 17.5t-59.5 38t-51 39t-61 18.5q-50 0 -96 -109h-131z" />
<glyph unicode="&#x12a;" horiz-adv-x="620" d="M73 0l296 1486h245l-295 -1486h-246zM211 1646l32 163h573l-32 -163h-573z" />
<glyph unicode="&#x12b;" horiz-adv-x="570" d="M50 0l225 1117h243l-223 -1117h-245zM153 1358l31 160h566l-28 -160h-569z" />
<glyph unicode="&#x12c;" horiz-adv-x="620" d="M73 0l296 1486h245l-295 -1486h-246zM259 1859h134q-4 -54 25 -91.5t93 -37.5q65 0 106 38.5t62 90.5h139q-18 -54 -45.5 -100.5t-67 -81.5t-93.5 -55.5t-123 -20.5q-64 0 -109.5 20.5t-74.5 55.5t-40 82.5t-6 99.5z" />
<glyph unicode="&#x12d;" horiz-adv-x="570" d="M50 0l225 1117h243l-223 -1117h-245zM199.5 1494.5q-8.5 53.5 3.5 110.5h134q-6 -70 19.5 -116t94.5 -46q70 0 115.5 46.5t68.5 115.5h141q-16 -57 -44.5 -110.5t-72 -95t-101 -66.5t-131.5 -25q-70 0 -117.5 25t-74.5 66.5t-35.5 95z" />
<glyph unicode="&#x12e;" horiz-adv-x="620" d="M-84 -327q0 54 22.5 104t55 93t68.5 76.5t63 53.5h-52l296 1486h245l-295 -1486q-98 -48 -153 -119.5t-55 -130.5q0 -39 24 -59.5t58 -20.5q32 0 71 24l50 -121q-41 -30 -101.5 -47t-105.5 -17q-85 0 -138 42t-53 122z" />
<glyph unicode="&#x12f;" horiz-adv-x="570" d="M-91 -314q0 52 21.5 100t53.5 89t67.5 73t63.5 52h-65l225 1117h243l-223 -1117q-104 -52 -154 -116t-50 -129q0 -37 24 -56.5t58 -19.5q39 0 77 26l45 -110q-43 -30 -99.5 -49t-104.5 -19q-80 0 -131 40t-51 119zM316 1441q0 65 48 112.5t116 47.5q52 0 95 -33.5 t43 -94.5q0 -68 -47.5 -113.5t-115.5 -45.5q-52 0 -95.5 33t-43.5 94z" />
<glyph unicode="&#x130;" horiz-adv-x="620" d="M73 0l296 1486h245l-295 -1486h-246zM365 1739q0 66 49 112.5t116 46.5q54 0 97.5 -34t43.5 -96q0 -67 -48.5 -111.5t-116.5 -44.5q-54 0 -97.5 31.5t-43.5 95.5z" />
<glyph unicode="&#x131;" horiz-adv-x="570" d="M50 0l225 1117h243l-223 -1117h-245z" />
<glyph unicode="&#x134;" horiz-adv-x="1076" d="M-11 200l154 143q32 -70 92 -114.5t147 -44.5q102 0 164.5 76t91.5 220l201 1006h245l-209 -1045q-18 -100 -58 -185t-100 -147.5t-144.5 -99.5t-190.5 -37q-132 0 -234 60.5t-159 167.5zM629 1601l259 258h236l158 -258h-182l-105 149h-6l-160 -149h-200z" />
<glyph unicode="&#x135;" horiz-adv-x="572" d="M-291 -423l77 178q43 -28 101 -28q61 0 93.5 47.5t56.5 143.5l241 1199h243l-241 -1204q-18 -82 -48 -152.5t-74.5 -121.5t-106.5 -79t-146 -28q-57 0 -102.5 10.5t-93.5 34.5zM117 1300l278 329h188l146 -329h-162l-94 196h-9l-172 -196h-175z" />
<glyph unicode="&#x136;" horiz-adv-x="1322" d="M73 0l296 1486h245l-134 -672h8l651 672h271l-549 -590l334 -896h-254l-262 741l-267 -273l-93 -468h-246zM375 -384q102 11 155.5 37t53.5 79q0 32 -24 49.5t-60 30.5l66 93q91 -18 143 -54.5t52 -105.5q0 -63 -30.5 -105.5t-82.5 -68.5t-120.5 -40t-143.5 -18z" />
<glyph unicode="&#x137;" horiz-adv-x="1138" d="M50 0l323 1605h243l-202 -1009h9l493 521h273l-450 -479l266 -638h-246l-191 495l-218 -220l-55 -275h-245zM250 -384q102 11 155.5 37t53.5 79q0 32 -24 49.5t-60 30.5l66 93q91 -18 143 -54.5t52 -105.5q0 -63 -30.5 -105.5t-82.5 -68.5t-120.5 -40t-143.5 -18z" />
<glyph unicode="&#x138;" horiz-adv-x="1138" d="M50 0l223 1117h243l-102 -521h9l493 521h273l-450 -479l266 -638h-246l-191 495l-218 -220l-55 -275h-245z" />
<glyph unicode="&#x139;" horiz-adv-x="1093" d="M73 0l296 1486h245l-254 -1280h592l-41 -206h-838zM373 1601l236 258h271l-303 -258h-204z" />
<glyph unicode="&#x13a;" horiz-adv-x="594" d="M91 154q0 52 16 119l266 1332h243l-269 -1343q-4 -18 -4 -27.5v-15.5q0 -48 39 -48q11 0 18 1t23 6l-5 -182q-25 -12 -59 -18t-79 -6q-98 0 -143.5 48t-45.5 134zM376 1724l236 258h271l-303 -258h-204z" />
<glyph unicode="&#x13b;" horiz-adv-x="1093" d="M73 0l296 1486h245l-254 -1280h592l-41 -206h-838zM254 -384q102 11 155.5 37t53.5 79q0 32 -24 49.5t-60 30.5l66 93q91 -18 143 -54.5t52 -105.5q0 -63 -30.5 -105.5t-82.5 -68.5t-120.5 -40t-143.5 -18z" />
<glyph unicode="&#x13c;" horiz-adv-x="594" d="M-93 -384q102 11 155.5 37t53.5 79q0 32 -24 49.5t-60 30.5l66 93q91 -18 143 -54.5t52 -105.5q0 -63 -30.5 -105.5t-82.5 -68.5t-120.5 -40t-143.5 -18zM91 154q0 52 16 119l266 1332h243l-269 -1343q-4 -18 -4 -27.5v-15.5q0 -48 39 -48q11 0 18 1t23 6l-5 -182 q-25 -12 -59 -18t-79 -6q-98 0 -143.5 48t-45.5 134z" />
<glyph unicode="&#x13d;" horiz-adv-x="1093" d="M73 0l296 1486h245l-254 -1280h592l-41 -206h-838zM864 1161l91 494h161l-29 -143l-112 -351h-111z" />
<glyph unicode="&#x13e;" horiz-adv-x="594" d="M91 154q0 52 16 119l266 1332h243l-269 -1343q-4 -18 -4 -27.5v-15.5q0 -48 39 -48q11 0 18 1t23 6l-5 -182q-25 -12 -59 -18t-79 -6q-98 0 -143.5 48t-45.5 134zM644 1245l91 494h161l-29 -143l-112 -351h-111z" />
<glyph unicode="&#x13f;" horiz-adv-x="1093" d="M73 0l296 1486h245l-254 -1280h592l-41 -206h-838zM736 718q0 37 14 72.5t40 62.5t60 44.5t75 17.5q61 0 96.5 -41t35.5 -103q0 -36 -14 -71.5t-38 -63t-58.5 -43.5t-76.5 -16q-61 0 -97.5 40t-36.5 101z" />
<glyph unicode="&#x140;" horiz-adv-x="856" d="M91 154q0 52 16 119l266 1332h243l-269 -1343q-4 -18 -4 -27.5v-15.5q0 -48 39 -48q11 0 18 1t23 6l-5 -182q-25 -12 -59 -18t-79 -6q-98 0 -143.5 48t-45.5 134zM590 729q0 37 14 72.5t40 62.5t60 44.5t75 17.5q61 0 96.5 -41t35.5 -103q0 -36 -14 -71.5t-38 -63 t-58.5 -43.5t-76.5 -16q-61 0 -97.5 40t-36.5 101z" />
<glyph unicode="&#x141;" horiz-adv-x="1093" d="M-13 407l41 209l186 91l155 779h245l-130 -654l438 218l-40 -209l-441 -218l-81 -417h592l-41 -206h-838l100 498z" />
<glyph unicode="&#x142;" horiz-adv-x="610" d="M52 618l43 205l155 86l138 696h244l-114 -570l168 99l-36 -202l-173 -100l-113 -570q-4 -18 -4 -27.5v-15.5q0 -26 11 -37t29 -11q8 0 15.5 1t22.5 6l-4 -182q-26 -12 -59.5 -18t-79.5 -6q-97 0 -141.5 48t-44.5 134q0 46 14 119l86 432z" />
<glyph unicode="&#x143;" horiz-adv-x="1434" d="M73 0l296 1486h240l291 -861l87 -321h9q13 116 27 250.5t38 256.5l134 675h237l-298 -1486h-238l-289 859l-86 325h-9q-14 -121 -30 -250t-41 -252l-135 -682h-233zM775 1601l236 258h271l-303 -258h-204z" />
<glyph unicode="&#x144;" horiz-adv-x="1224" d="M50 0l223 1117h198l-11 -158h8q89 76 183.5 130t200.5 54q141 0 203 -72.5t62 -209.5q0 -38 -4 -74.5t-15 -81.5l-141 -705h-243l136 673q7 39 12.5 66t5.5 52q0 144 -141 144q-59 0 -126 -41.5t-156 -132.5l-150 -761h-245zM625 1300l263 329h251l-323 -329h-191z" />
<glyph unicode="&#x145;" horiz-adv-x="1434" d="M73 0l296 1486h240l291 -861l87 -321h9q13 116 27 250.5t38 256.5l134 675h237l-298 -1486h-238l-289 859l-86 325h-9q-14 -121 -30 -250t-41 -252l-135 -682h-233zM382 -402q102 11 155.5 37t53.5 79q0 32 -24 49.5t-60 30.5l66 93q91 -18 143 -54.5t52 -105.5 q0 -63 -30.5 -105.5t-82.5 -68.5t-120.5 -40t-143.5 -18z" />
<glyph unicode="&#x146;" horiz-adv-x="1224" d="M50 0l223 1117h198l-11 -158h8q89 76 183.5 130t200.5 54q141 0 203 -72.5t62 -209.5q0 -38 -4 -74.5t-15 -81.5l-141 -705h-243l136 673q7 39 12.5 66t5.5 52q0 144 -141 144q-59 0 -126 -41.5t-156 -132.5l-150 -761h-245zM257 -384q102 11 155.5 37t53.5 79 q0 32 -24 49.5t-60 30.5l66 93q91 -18 143 -54.5t52 -105.5q0 -63 -30.5 -105.5t-82.5 -68.5t-120.5 -40t-143.5 -18z" />
<glyph unicode="&#x147;" horiz-adv-x="1434" d="M73 0l296 1486h240l291 -861l87 -321h9q13 116 27 250.5t38 256.5l134 675h237l-298 -1486h-238l-289 859l-86 325h-9q-14 -121 -30 -250t-41 -252l-135 -682h-233zM640 1859h182l105 -150h6l162 150h198l-260 -258h-234z" />
<glyph unicode="&#x148;" horiz-adv-x="1224" d="M50 0l223 1117h198l-11 -158h8q89 76 183.5 130t200.5 54q141 0 203 -72.5t62 -209.5q0 -38 -4 -74.5t-15 -81.5l-141 -705h-243l136 673q7 39 12.5 66t5.5 52q0 144 -141 144q-59 0 -126 -41.5t-156 -132.5l-150 -761h-245zM556 1629h162l95 -193h9l171 193h177 l-278 -329h-188z" />
<glyph unicode="&#x149;" horiz-adv-x="1774" d="M248 1039q115 50 175.5 128t62.5 141h-11q-59 0 -99 31.5t-40 90.5q0 63 43.5 110t115.5 47q66 0 104.5 -49t38.5 -137q0 -91 -27 -166.5t-75 -135.5t-111 -103.5t-134 -67.5zM609 0l223 1117h198l-11 -158h8q89 76 183.5 130t200.5 54q141 0 203 -72.5t62 -209.5 q0 -38 -4 -74.5t-15 -81.5l-141 -705h-243l136 673q7 39 12.5 66t5.5 52q0 144 -141 144q-59 0 -126 -41.5t-156 -132.5l-150 -761h-245z" />
<glyph unicode="&#x14c;" horiz-adv-x="1470" d="M132 598q0 185 58 350.5t157.5 291.5t235 200t289.5 74q126 0 226 -43.5t169 -125t106 -197.5t37 -259q0 -184 -57.5 -350t-157 -292t-235 -200.5t-292.5 -74.5q-125 0 -225 43.5t-169.5 125.5t-105.5 198t-36 259zM384 616q0 -200 74 -316t224 -116q97 0 185 59 t152.5 154.5t102 219.5t37.5 253q0 200 -75 316.5t-225 116.5q-100 0 -186.5 -59.5t-149.5 -155t-101 -219t-38 -253.5zM650 1646l32 163h573l-32 -163h-573z" />
<glyph unicode="&#x14d;" horiz-adv-x="1191" d="M78 427q0 159 53 292t139.5 226.5t196.5 145.5t225 52q190 0 303.5 -121.5t113.5 -332.5q0 -158 -53.5 -290.5t-139.5 -226.5t-197 -147t-226 -53q-93 0 -170.5 32.5t-131.5 91t-83.5 143t-29.5 188.5zM323 436q0 -127 50 -196t148 -69q65 0 126.5 39.5t109.5 108.5 t76 162.5t28 200.5q0 127 -50 195.5t-145 68.5q-65 0 -128 -40t-110.5 -108.5t-76 -161.5t-28.5 -200zM477 1358l31 160h566l-28 -160h-569z" />
<glyph unicode="&#x14e;" horiz-adv-x="1470" d="M132 598q0 185 58 350.5t157.5 291.5t235 200t289.5 74q126 0 226 -43.5t169 -125t106 -197.5t37 -259q0 -184 -57.5 -350t-157 -292t-235 -200.5t-292.5 -74.5q-125 0 -225 43.5t-169.5 125.5t-105.5 198t-36 259zM384 616q0 -200 74 -316t224 -116q97 0 185 59 t152.5 154.5t102 219.5t37.5 253q0 200 -75 316.5t-225 116.5q-100 0 -186.5 -59.5t-149.5 -155t-101 -219t-38 -253.5zM698 1859h134q-4 -54 25 -91.5t93 -37.5q65 0 106 38.5t62 90.5h139q-18 -54 -45.5 -100.5t-67 -81.5t-93.5 -55.5t-123 -20.5q-64 0 -109.5 20.5 t-74.5 55.5t-40 82.5t-6 99.5z" />
<glyph unicode="&#x14f;" horiz-adv-x="1191" d="M78 427q0 159 53 292t139.5 226.5t196.5 145.5t225 52q190 0 303.5 -121.5t113.5 -332.5q0 -158 -53.5 -290.5t-139.5 -226.5t-197 -147t-226 -53q-93 0 -170.5 32.5t-131.5 91t-83.5 143t-29.5 188.5zM323 436q0 -127 50 -196t148 -69q65 0 126.5 39.5t109.5 108.5 t76 162.5t28 200.5q0 127 -50 195.5t-145 68.5q-65 0 -128 -40t-110.5 -108.5t-76 -161.5t-28.5 -200zM523.5 1494.5q-8.5 53.5 3.5 110.5h134q-6 -70 19.5 -116t94.5 -46q70 0 115.5 46.5t68.5 115.5h141q-16 -57 -44.5 -110.5t-72 -95t-101 -66.5t-131.5 -25 q-70 0 -117.5 25t-74.5 66.5t-35.5 95z" />
<glyph unicode="&#x150;" horiz-adv-x="1470" d="M132 598q0 185 58 350.5t157.5 291.5t235 200t289.5 74q126 0 226 -43.5t169 -125t106 -197.5t37 -259q0 -184 -57.5 -350t-157 -292t-235 -200.5t-292.5 -74.5q-125 0 -225 43.5t-169.5 125.5t-105.5 198t-36 259zM384 616q0 -200 74 -316t224 -116q97 0 185 59 t152.5 154.5t102 219.5t37.5 253q0 200 -75 316.5t-225 116.5q-100 0 -186.5 -59.5t-149.5 -155t-101 -219t-38 -253.5zM661 1601l198 260h214l-243 -260h-169zM1025 1601l196 260h214l-242 -260h-168z" />
<glyph unicode="&#x151;" horiz-adv-x="1191" d="M78 427q0 159 53 292t139.5 226.5t196.5 145.5t225 52q190 0 303.5 -121.5t113.5 -332.5q0 -158 -53.5 -290.5t-139.5 -226.5t-197 -147t-226 -53q-93 0 -170.5 32.5t-131.5 91t-83.5 143t-29.5 188.5zM323 436q0 -127 50 -196t148 -69q65 0 126.5 39.5t109.5 108.5 t76 162.5t28 200.5q0 127 -50 195.5t-145 68.5q-65 0 -128 -40t-110.5 -108.5t-76 -161.5t-28.5 -200zM497 1300l230 332h206l-275 -332h-161zM845 1300l229 332h208l-275 -332h-162z" />
<glyph unicode="&#x152;" horiz-adv-x="1874" d="M132 582q0 211 58 379.5t165 284.5t255.5 178t333.5 62h980l-41 -206h-573l-78 -400h480l-41 -207h-480l-95 -467h593l-41 -206h-871q-312 0 -478.5 148.5t-166.5 433.5zM384 598q0 -200 105 -300t296 -100h67l217 1091h-121q-125 0 -228.5 -47t-178.5 -135t-116 -217 t-41 -292z" />
<glyph unicode="&#x153;" horiz-adv-x="1829" d="M78 427q0 159 52 292t137 226.5t192 145.5t218 52q132 0 212.5 -63.5t119.5 -185.5q75 121 180.5 185t213.5 64q98 0 165 -31.5t109.5 -87.5t62 -131t19.5 -162q0 -73 -19.5 -140.5t-30.5 -95.5h-650q-7 -89 10.5 -152t51 -104t81.5 -60.5t106 -19.5t118 27.5t108 61.5 l89 -157q-66 -48 -163.5 -83.5t-218.5 -35.5t-207 67.5t-125 196.5q-80 -125 -193 -194.5t-236 -69.5q-185 0 -293.5 123.5t-108.5 331.5zM323 436q0 -127 50 -196t148 -69q63 0 122.5 39.5t105 108.5t72.5 162.5t27 200.5q0 127 -50 195.5t-145 68.5q-61 0 -120.5 -40 t-106 -108.5t-75 -161.5t-28.5 -200zM1082 650h464q5 23 7 46.5t2 51.5q0 82 -40 144.5t-142 62.5q-91 0 -171.5 -80.5t-119.5 -224.5z" />
<glyph unicode="&#x154;" horiz-adv-x="1308" d="M73 0l296 1486h438q107 0 195.5 -18.5t153.5 -63t101 -114t36 -167.5q0 -104 -30.5 -187.5t-85 -147t-128 -107t-162.5 -65.5l245 -616h-262l-215 586h-221l-115 -586h-246zM475 783h189q191 0 288.5 82.5t97.5 223.5q0 109 -74 155.5t-217 46.5h-186zM703 1601l236 258 h271l-303 -258h-204z" />
<glyph unicode="&#x155;" horiz-adv-x="824" d="M50 0l223 1117h198l-20 -217h9q65 105 154 174t191 69q65 0 111 -20l-81 -214q-20 11 -48 15t-58 4q-80 0 -157 -61.5t-145 -191.5l-132 -675h-245zM447 1300l263 329h251l-323 -329h-191z" />
<glyph unicode="&#x156;" horiz-adv-x="1308" d="M73 0l296 1486h438q107 0 195.5 -18.5t153.5 -63t101 -114t36 -167.5q0 -104 -30.5 -187.5t-85 -147t-128 -107t-162.5 -65.5l245 -616h-262l-215 586h-221l-115 -586h-246zM345 -402q102 11 155.5 37t53.5 79q0 32 -24 49.5t-60 30.5l66 93q91 -18 143 -54.5t52 -105.5 q0 -63 -30.5 -105.5t-82.5 -68.5t-120.5 -40t-143.5 -18zM475 783h189q191 0 288.5 82.5t97.5 223.5q0 109 -74 155.5t-217 46.5h-186z" />
<glyph unicode="&#x157;" horiz-adv-x="824" d="M-89 -384q102 11 155.5 37t53.5 79q0 32 -24 49.5t-60 30.5l66 93q91 -18 143 -54.5t52 -105.5q0 -63 -30.5 -105.5t-82.5 -68.5t-120.5 -40t-143.5 -18zM50 0l223 1117h198l-20 -217h9q65 105 154 174t191 69q65 0 111 -20l-81 -214q-20 11 -48 15t-58 4 q-80 0 -157 -61.5t-145 -191.5l-132 -675h-245z" />
<glyph unicode="&#x158;" horiz-adv-x="1308" d="M73 0l296 1486h438q107 0 195.5 -18.5t153.5 -63t101 -114t36 -167.5q0 -104 -30.5 -187.5t-85 -147t-128 -107t-162.5 -65.5l245 -616h-262l-215 586h-221l-115 -586h-246zM475 783h189q191 0 288.5 82.5t97.5 223.5q0 109 -74 155.5t-217 46.5h-186zM568 1859h182 l105 -150h6l162 150h198l-260 -258h-234z" />
<glyph unicode="&#x159;" horiz-adv-x="824" d="M50 0l223 1117h198l-20 -217h9q65 105 154 174t191 69q65 0 111 -20l-81 -214q-20 11 -48 15t-58 4q-80 0 -157 -61.5t-145 -191.5l-132 -675h-245zM378 1629h162l95 -193h9l171 193h177l-278 -329h-188z" />
<glyph unicode="&#x15a;" horiz-adv-x="1176" d="M18 243l177 137q66 -91 157 -144.5t201 -53.5q115 0 190 60t75 165q0 70 -49 117t-131 96l-156 96q-98 59 -162 144.5t-64 217.5q0 89 38 168t105 139.5t157 94.5t194 34q135 0 246 -60.5t191 -158.5l-157 -143q-57 63 -128.5 107t-164.5 44q-109 0 -168.5 -61.5 t-59.5 -139.5q0 -73 51.5 -117t137.5 -96l159 -95q109 -64 162.5 -143.5t53.5 -209.5q0 -100 -38.5 -185t-110.5 -149t-171.5 -99.5t-220.5 -35.5q-150 0 -280.5 64t-233.5 207zM660 1610l236 258h271l-303 -258h-204z" />
<glyph unicode="&#x15b;" horiz-adv-x="937" d="M-13 186l145 118q54 -73 121.5 -111.5t141.5 -38.5q80 0 138 42.5t58 103.5q0 52 -48 89.5t-152 96.5q-111 61 -175 134.5t-64 175.5q0 75 32 139.5t87.5 110t129.5 71.5t158 26q109 0 197 -45.5t153 -112.5l-136 -130q-44 43 -96 73.5t-118 30.5q-77 0 -127 -40.5 t-50 -100.5q0 -32 16 -54.5t43 -43t61 -38.5t71 -38q125 -66 186 -139t61 -175q0 -82 -32.5 -148.5t-92 -113t-141 -71.5t-177.5 -25q-52 0 -107.5 16t-108 43.5t-98 67.5t-76.5 87zM449 1300l263 329h251l-323 -329h-191z" />
<glyph unicode="&#x15c;" horiz-adv-x="1176" d="M18 243l177 137q66 -91 157 -144.5t201 -53.5q115 0 190 60t75 165q0 70 -49 117t-131 96l-156 96q-98 59 -162 144.5t-64 217.5q0 89 38 168t105 139.5t157 94.5t194 34q135 0 246 -60.5t191 -158.5l-157 -143q-57 63 -128.5 107t-164.5 44q-109 0 -168.5 -61.5 t-59.5 -139.5q0 -73 51.5 -117t137.5 -96l159 -95q109 -64 162.5 -143.5t53.5 -209.5q0 -100 -38.5 -185t-110.5 -149t-171.5 -99.5t-220.5 -35.5q-150 0 -280.5 64t-233.5 207zM473 1610l259 258h236l158 -258h-182l-105 149h-6l-160 -149h-200z" />
<glyph unicode="&#x15d;" horiz-adv-x="937" d="M-13 186l145 118q54 -73 121.5 -111.5t141.5 -38.5q80 0 138 42.5t58 103.5q0 52 -48 89.5t-152 96.5q-111 61 -175 134.5t-64 175.5q0 75 32 139.5t87.5 110t129.5 71.5t158 26q109 0 197 -45.5t153 -112.5l-136 -130q-44 43 -96 73.5t-118 30.5q-77 0 -127 -40.5 t-50 -100.5q0 -32 16 -54.5t43 -43t61 -38.5t71 -38q125 -66 186 -139t61 -175q0 -82 -32.5 -148.5t-92 -113t-141 -71.5t-177.5 -25q-52 0 -107.5 16t-108 43.5t-98 67.5t-76.5 87zM312 1300l278 329h188l146 -329h-162l-94 196h-9l-172 -196h-175z" />
<glyph unicode="&#x15e;" horiz-adv-x="1176" d="M18 243l177 137q66 -91 157 -144.5t201 -53.5q115 0 190 60t75 165q0 70 -49 117t-131 96l-156 96q-98 59 -162 144.5t-64 217.5q0 89 38 168t105 139.5t157 94.5t194 34q135 0 246 -60.5t191 -158.5l-157 -143q-57 63 -128.5 107t-164.5 44q-109 0 -168.5 -61.5 t-59.5 -139.5q0 -73 51.5 -117t137.5 -96l159 -95q109 -64 162.5 -143.5t53.5 -209.5q0 -100 -38.5 -185t-110.5 -149t-171.5 -99.5t-220.5 -35.5q-150 0 -280.5 64t-233.5 207zM252 -388q89 11 149 40t60 84q0 32 -24 53.5t-87 39.5l123 178h150l-78 -118q44 -16 73 -48 t29 -84q0 -61 -31.5 -105.5t-84.5 -74.5t-123.5 -46.5t-146.5 -21.5z" />
<glyph unicode="&#x15f;" horiz-adv-x="937" d="M-13 186l145 118q54 -73 121.5 -111.5t141.5 -38.5q80 0 138 42.5t58 103.5q0 52 -48 89.5t-152 96.5q-111 61 -175 134.5t-64 175.5q0 75 32 139.5t87.5 110t129.5 71.5t158 26q109 0 197 -45.5t153 -112.5l-136 -130q-44 43 -96 73.5t-118 30.5q-77 0 -127 -40.5 t-50 -100.5q0 -32 16 -54.5t43 -43t61 -38.5t71 -38q125 -66 186 -139t61 -175q0 -82 -32.5 -148.5t-92 -113t-141 -71.5t-177.5 -25q-52 0 -107.5 16t-108 43.5t-98 67.5t-76.5 87zM100 -388q89 11 149 40t60 84q0 32 -24 53.5t-87 39.5l123 178h150l-78 -118 q44 -16 73 -48t29 -84q0 -61 -31.5 -105.5t-84.5 -74.5t-123.5 -46.5t-146.5 -21.5z" />
<glyph unicode="&#x160;" horiz-adv-x="1176" d="M18 243l177 137q66 -91 157 -144.5t201 -53.5q115 0 190 60t75 165q0 70 -49 117t-131 96l-156 96q-98 59 -162 144.5t-64 217.5q0 89 38 168t105 139.5t157 94.5t194 34q135 0 246 -60.5t191 -158.5l-157 -143q-57 63 -128.5 107t-164.5 44q-109 0 -168.5 -61.5 t-59.5 -139.5q0 -73 51.5 -117t137.5 -96l159 -95q109 -64 162.5 -143.5t53.5 -209.5q0 -100 -38.5 -185t-110.5 -149t-171.5 -99.5t-220.5 -35.5q-150 0 -280.5 64t-233.5 207zM525 1868h182l105 -150h6l162 150h198l-260 -258h-234z" />
<glyph unicode="&#x161;" horiz-adv-x="937" d="M-13 186l145 118q54 -73 121.5 -111.5t141.5 -38.5q80 0 138 42.5t58 103.5q0 52 -48 89.5t-152 96.5q-111 61 -175 134.5t-64 175.5q0 75 32 139.5t87.5 110t129.5 71.5t158 26q109 0 197 -45.5t153 -112.5l-136 -130q-44 43 -96 73.5t-118 30.5q-77 0 -127 -40.5 t-50 -100.5q0 -32 16 -54.5t43 -43t61 -38.5t71 -38q125 -66 186 -139t61 -175q0 -82 -32.5 -148.5t-92 -113t-141 -71.5t-177.5 -25q-52 0 -107.5 16t-108 43.5t-98 67.5t-76.5 87zM380 1629h162l95 -193h9l171 193h177l-278 -329h-188z" />
<glyph unicode="&#x162;" horiz-adv-x="1184" d="M186 -388q89 11 149 40t60 84q0 32 -24 53.5t-87 39.5l123 178h150l-78 -118q44 -16 73 -48t29 -84q0 -61 -31.5 -105.5t-84.5 -74.5t-123.5 -46.5t-146.5 -21.5zM200 1278l41 208h1069l-41 -208h-412l-254 -1278h-246l255 1278h-412z" />
<glyph unicode="&#x163;" horiz-adv-x="785" d="M116 -388q89 11 149 40t60 84q0 32 -24 53.5t-87 39.5l123 178h150l-78 -118q44 -16 73 -48t29 -84q0 -61 -31.5 -105.5t-84.5 -74.5t-123.5 -46.5t-146.5 -21.5zM121 922l36 182l170 13l89 299h204l-58 -299h268l-39 -195h-273l-113 -553q-7 -42 -8 -80q0 -61 30 -92 t100 -31q30 0 55 9t50 20l45 -173q-41 -18 -100 -34t-136 -16q-157 0 -224 79t-67 194q0 35 4.5 66.5t8.5 65.5l115 545h-157z" />
<glyph unicode="&#x164;" horiz-adv-x="1184" d="M200 1278l41 208h1069l-41 -208h-412l-254 -1278h-246l255 1278h-412zM497 1859h182l105 -150h6l162 150h198l-260 -258h-234z" />
<glyph unicode="&#x165;" horiz-adv-x="785" d="M121 922l36 182l170 13l89 299h204l-58 -299h268l-39 -195h-273l-113 -553q-7 -42 -8 -80q0 -61 30 -92t100 -31q30 0 55 9t50 20l45 -173q-41 -18 -100 -34t-136 -16q-157 0 -224 79t-67 194q0 35 4.5 66.5t8.5 65.5l115 545h-157zM732 1245l91 494h161l-29 -143 l-112 -351h-111z" />
<glyph unicode="&#x168;" horiz-adv-x="1431" d="M175 466q0 50 8 109t19 117l160 794h245l-166 -831q-20 -96 -20 -175q0 -144 61 -220t202 -76q117 0 203 95.5t132 321.5l176 885h241l-178 -885q-66 -332 -214 -480.5t-369 -148.5q-248 0 -374 123.5t-126 370.5zM569 1607q32 123 101 196t148 73q46 0 77.5 -18.5 t57.5 -40t52.5 -40t60.5 -18.5q61 0 102 112h132q-32 -123 -99.5 -195.5t-147.5 -72.5q-48 0 -79.5 18t-58.5 40t-52 39.5t-58 17.5q-63 0 -105 -111h-131z" />
<glyph unicode="&#x169;" horiz-adv-x="1219" d="M107 254q0 39 4 77t14 81l141 705h243l-134 -674q-9 -39 -13.5 -66t-4.5 -52q0 -143 138 -143q111 0 275 172l150 763h244l-220 -1117h-198l9 159h-9q-84 -76 -177.5 -131.5t-195.5 -55.5q-141 0 -203.5 74.5t-62.5 207.5zM414 1314q37 126 101.5 194.5t139.5 68.5 q50 0 83 -16.5t59 -38t51 -39t61 -17.5q50 0 96 107h132q-35 -123 -99.5 -193t-141.5 -70q-50 0 -83.5 17.5t-59.5 38t-51 39t-61 18.5q-50 0 -96 -109h-131z" />
<glyph unicode="&#x16a;" horiz-adv-x="1431" d="M175 466q0 50 8 109t19 117l160 794h245l-166 -831q-20 -96 -20 -175q0 -144 61 -220t202 -76q117 0 203 95.5t132 321.5l176 885h241l-178 -885q-66 -332 -214 -480.5t-369 -148.5q-248 0 -374 123.5t-126 370.5zM632 1646l32 163h573l-32 -163h-573z" />
<glyph unicode="&#x16b;" horiz-adv-x="1219" d="M107 254q0 39 4 77t14 81l141 705h243l-134 -674q-9 -39 -13.5 -66t-4.5 -52q0 -143 138 -143q111 0 275 172l150 763h244l-220 -1117h-198l9 159h-9q-84 -76 -177.5 -131.5t-195.5 -55.5q-141 0 -203.5 74.5t-62.5 207.5zM464 1358l31 160h566l-28 -160h-569z" />
<glyph unicode="&#x16c;" horiz-adv-x="1431" d="M175 466q0 50 8 109t19 117l160 794h245l-166 -831q-20 -96 -20 -175q0 -144 61 -220t202 -76q117 0 203 95.5t132 321.5l176 885h241l-178 -885q-66 -332 -214 -480.5t-369 -148.5q-248 0 -374 123.5t-126 370.5zM680 1859h134q-4 -54 25 -91.5t93 -37.5q65 0 106 38.5 t62 90.5h139q-18 -54 -45.5 -100.5t-67 -81.5t-93.5 -55.5t-123 -20.5q-64 0 -109.5 20.5t-74.5 55.5t-40 82.5t-6 99.5z" />
<glyph unicode="&#x16d;" horiz-adv-x="1219" d="M107 254q0 39 4 77t14 81l141 705h243l-134 -674q-9 -39 -13.5 -66t-4.5 -52q0 -143 138 -143q111 0 275 172l150 763h244l-220 -1117h-198l9 159h-9q-84 -76 -177.5 -131.5t-195.5 -55.5q-141 0 -203.5 74.5t-62.5 207.5zM510.5 1494.5q-8.5 53.5 3.5 110.5h134 q-6 -70 19.5 -116t94.5 -46q70 0 115.5 46.5t68.5 115.5h141q-16 -57 -44.5 -110.5t-72 -95t-101 -66.5t-131.5 -25q-70 0 -117.5 25t-74.5 66.5t-35.5 95z" />
<glyph unicode="&#x16e;" horiz-adv-x="1431" d="M175 466q0 50 8 109t19 117l160 794h245l-166 -831q-20 -96 -20 -175q0 -144 61 -220t202 -76q117 0 203 95.5t132 321.5l176 885h241l-178 -885q-66 -332 -214 -480.5t-369 -148.5q-248 0 -374 123.5t-126 370.5zM721 1770q0 48 19.5 92.5t52 76.5t76 51t93.5 19 q86 0 148.5 -46.5t62.5 -142.5q0 -50 -19 -92.5t-52.5 -74.5t-76.5 -50.5t-93 -18.5q-87 0 -149 44.5t-62 141.5zM846 1783q0 -44 22.5 -70t67.5 -26q46 0 79 36t33 89q0 41 -23.5 68t-67.5 27q-45 0 -78 -37t-33 -87z" />
<glyph unicode="&#x16f;" horiz-adv-x="1219" d="M107 254q0 39 4 77t14 81l141 705h243l-134 -674q-9 -39 -13.5 -66t-4.5 -52q0 -143 138 -143q111 0 275 172l150 763h244l-220 -1117h-198l9 159h-9q-84 -76 -177.5 -131.5t-195.5 -55.5q-141 0 -203.5 74.5t-62.5 207.5zM545 1429q0 50 18.5 95.5t51.5 77.5t76 51.5 t95 19.5q91 0 149.5 -50t58.5 -144q0 -52 -18.5 -96.5t-51 -77t-76 -52t-93.5 -19.5q-91 0 -150.5 50t-59.5 145zM673 1436q0 -43 21.5 -71.5t65.5 -28.5q45 0 76.5 40t31.5 95q0 43 -21.5 71t-64.5 28q-46 0 -77.5 -39.5t-31.5 -94.5z" />
<glyph unicode="&#x170;" horiz-adv-x="1431" d="M175 466q0 50 8 109t19 117l160 794h245l-166 -831q-20 -96 -20 -175q0 -144 61 -220t202 -76q117 0 203 95.5t132 321.5l176 885h241l-178 -885q-66 -332 -214 -480.5t-369 -148.5q-248 0 -374 123.5t-126 370.5zM643 1601l198 260h214l-243 -260h-169zM1007 1601 l196 260h214l-242 -260h-168z" />
<glyph unicode="&#x171;" horiz-adv-x="1219" d="M107 254q0 39 4 77t14 81l141 705h243l-134 -674q-9 -39 -13.5 -66t-4.5 -52q0 -143 138 -143q111 0 275 172l150 763h244l-220 -1117h-198l9 159h-9q-84 -76 -177.5 -131.5t-195.5 -55.5q-141 0 -203.5 74.5t-62.5 207.5zM484 1300l230 332h206l-275 -332h-161z M832 1300l229 332h208l-275 -332h-162z" />
<glyph unicode="&#x172;" horiz-adv-x="1431" d="M175 466q0 50 8 109t19 117l160 794h245l-166 -831q-20 -96 -20 -175q0 -144 61 -220t202 -76q117 0 203 95.5t132 321.5l176 885h241l-178 -885q-28 -141 -68 -244t-95.5 -174.5t-128 -118t-163.5 -80.5q-126 -43 -180.5 -110t-54.5 -124q0 -39 24 -59.5t56 -20.5 q35 0 70 24l50 -126q-43 -28 -99.5 -43.5t-104.5 -15.5q-87 0 -140 42t-53 122q0 45 18 89.5t46.5 85.5t62.5 75t68 59q-193 28 -292 148t-99 336z" />
<glyph unicode="&#x173;" horiz-adv-x="1219" d="M107 254q0 39 4 77t14 81l141 705h243l-134 -674q-9 -39 -13.5 -66t-4.5 -52q0 -143 138 -143q111 0 275 172l150 763h244l-220 -1117q-114 -46 -180 -109.5t-66 -135.5q0 -37 24 -56.5t57 -19.5q37 0 80 26l43 -110q-43 -30 -99.5 -49t-104.5 -19q-80 0 -131 40t-51 119 q0 52 23 101.5t56.5 91t73.5 75t77 55.5l9 150h-9q-84 -76 -177.5 -131.5t-195.5 -55.5q-141 0 -203.5 74.5t-62.5 207.5z" />
<glyph unicode="&#x174;" horiz-adv-x="1761" d="M195 0l37 1486h250l-35 -763q-9 -121 -15.5 -240t-17.5 -242h9q50 123 102 243.5t100 238.5l338 763h212l14 -763q0 -241 -7 -482h9q43 123 88.5 243.5t89.5 238.5l286 763h236l-596 -1486h-308l-5 809q0 78 4.5 170t9.5 178h-9q-32 -87 -67 -174t-72 -174l-347 -809 h-306zM735 1601l259 258h236l158 -258h-182l-105 149h-6l-160 -149h-200z" />
<glyph unicode="&#x175;" horiz-adv-x="1653" d="M161 1117h241l19 -599q2 -80 -0.5 -159t-2.5 -161h9q33 82 63.5 161t66.5 159l259 599h223l30 -599q2 -80 2 -159t2 -161h9q32 82 60.5 161t61.5 159l249 599h226l-490 -1117h-291l-20 536q0 80 -1.5 161.5t-1.5 168.5h-9q-32 -87 -62.5 -168.5t-62.5 -161.5l-229 -536 h-284zM657 1300l278 329h188l146 -329h-162l-94 196h-9l-172 -196h-175z" />
<glyph unicode="&#x176;" horiz-adv-x="1104" d="M186 1486h252l85 -390q18 -87 31.5 -164t31.5 -164h10q50 87 95.5 166t97.5 164l243 388h263l-625 -927l-111 -559h-245l111 559zM401 1601l259 258h236l158 -258h-182l-105 149h-6l-160 -149h-200z" />
<glyph unicode="&#x177;" horiz-adv-x="1076" d="M-109 -418l77 177q39 -22 82 -23q73 0 138.5 56t111.5 151l34 68l-193 1106h243l71 -564q9 -76 15.5 -166t11.5 -168h9q38 80 78 167t79 167l278 564h236l-628 -1176q-52 -91 -105.5 -164.5t-113 -126t-128.5 -81.5t-153 -29q-27 0 -69.5 12t-73.5 30zM345 1300l278 329 h188l146 -329h-162l-94 196h-9l-172 -196h-175z" />
<glyph unicode="&#x178;" horiz-adv-x="1104" d="M186 1486h252l85 -390q18 -87 31.5 -164t31.5 -164h10q50 87 95.5 166t97.5 164l243 388h263l-625 -927l-111 -559h-245l111 559zM429 1720q0 57 40.5 102.5t99.5 45.5q45 0 78.5 -29.5t33.5 -81.5q0 -54 -41 -100.5t-100 -46.5q-48 0 -79.5 29t-31.5 81zM833 1720 q0 57 41 102.5t100 45.5q45 0 78 -29.5t33 -81.5q0 -54 -41 -100.5t-100 -46.5q-48 0 -79.5 29t-31.5 81z" />
<glyph unicode="&#x179;" horiz-adv-x="1178" d="M-7 0l33 148l885 1132h-631l41 206h924l-28 -147l-881 -1133h696l-43 -206h-996zM649 1601l236 258h271l-303 -258h-204z" />
<glyph unicode="&#x17a;" horiz-adv-x="970" d="M-22 0l26 139l664 783h-454l38 195h761l-26 -141l-666 -783h525l-39 -193h-829zM478 1300l263 329h251l-323 -329h-191z" />
<glyph unicode="&#x17b;" horiz-adv-x="1178" d="M-7 0l33 148l885 1132h-631l41 206h924l-28 -147l-881 -1133h696l-43 -206h-996zM666 1739q0 66 49 112.5t116 46.5q54 0 97.5 -34t43.5 -96q0 -67 -48.5 -111.5t-116.5 -44.5q-54 0 -97.5 31.5t-43.5 95.5z" />
<glyph unicode="&#x17c;" horiz-adv-x="970" d="M-22 0l26 139l664 783h-454l38 195h761l-26 -141l-666 -783h525l-39 -193h-829zM523 1441q0 65 49 112.5t114 47.5q55 0 98 -33.5t43 -94.5q0 -68 -47.5 -113.5t-115.5 -45.5q-54 0 -97.5 33t-43.5 94z" />
<glyph unicode="&#x17d;" horiz-adv-x="1178" d="M-7 0l33 148l885 1132h-631l41 206h924l-28 -147l-881 -1133h696l-43 -206h-996zM514 1859h182l105 -150h6l162 150h198l-260 -258h-234z" />
<glyph unicode="&#x17e;" horiz-adv-x="970" d="M-22 0l26 139l664 783h-454l38 195h761l-26 -141l-666 -783h525l-39 -193h-829zM409 1629h162l95 -193h9l171 193h177l-278 -329h-188z" />
<glyph unicode="&#x180;" horiz-adv-x="1211" d="M50 0l260 1284h-160l23 117l161 11l39 193h243l-39 -193h382l-27 -128h-379l-26 -120l-54 -214h4q80 63 169 105.5t181 42.5q150 0 234.5 -99t84.5 -285q0 -155 -49 -290t-130.5 -235t-187.5 -158.5t-222 -58.5q-84 0 -149 42.5t-104 115.5h-4l-48 -130h-202zM357 310 q37 -74 84 -105.5t100 -31.5q69 0 134.5 40.5t114.5 110t77.5 162.5t28.5 196q0 108 -45.5 162t-123.5 54q-65 0 -142.5 -40t-141.5 -121z" />
<glyph unicode="&#x18f;" horiz-adv-x="1481" d="M145 543q0 80 12 140.5t32 132.5h989q2 18 2 33v33q0 202 -69.5 319.5t-238.5 117.5q-104 0 -185.5 -41t-148.5 -98l-106 165q86 80 204.5 131t265.5 51q130 0 229 -43t164 -123.5t97.5 -195.5t32.5 -256q0 -206 -61 -377.5t-166 -296t-244.5 -194t-296.5 -69.5 q-121 0 -215.5 41t-160 116t-101 181t-35.5 233zM379.5 443.5q15.5 -83.5 56.5 -142t103 -89t136 -30.5q80 0 153.5 31.5t135.5 92t109.5 143.5t74.5 185h-768q-16 -107 -0.5 -190.5z" />
<glyph unicode="&#x192;" horiz-adv-x="1122" d="M-95 -166l73 175q22 -16 49 -25.5t60 -9.5q82 0 136.5 78t106.5 252l136 446h-180l37 170l159 10h39l47 157q66 216 174 327t284 111q47 0 97 -13.5t96 -38.5l-78 -178q-25 14 -54.5 24.5t-63.5 10.5q-38 0 -72.5 -20.5t-62 -54.5t-49 -79.5t-36.5 -93.5l-48 -152h250 l-37 -180h-268l-164 -529q-30 -93 -68 -174t-89.5 -140t-119.5 -93.5t-157 -34.5q-52 0 -103 11.5t-94 43.5z" />
<glyph unicode="&#x1a0;" horiz-adv-x="1470" d="M132 598q0 185 58 350.5t157.5 291.5t235 200t289.5 74q159 0 274 -68q93 9 147.5 54.5t54.5 111.5q0 34 -14 80l184 58q28 -65 28 -123q0 -102 -75.5 -177t-206.5 -99q70 -82 108 -198t38 -264q0 -184 -57.5 -350t-157 -292t-235 -200.5t-292.5 -74.5q-125 0 -225 43.5 t-169.5 125.5t-105.5 198t-36 259zM384 616q0 -200 74 -316t224 -116q97 0 185 59t152.5 154.5t102 219.5t37.5 253q0 200 -75 316.5t-225 116.5q-100 0 -186.5 -59.5t-149.5 -155t-101 -219t-38 -253.5z" />
<glyph unicode="&#x1a1;" horiz-adv-x="1199" d="M78 427q0 159 53 292t139.5 226.5t196.5 145.5t225 52t208 -50q85 11 138 55.5t53 111.5q0 39 -15 76l184 63q15 -33 20.5 -62t5.5 -62q0 -95 -66 -170t-209 -105q98 -118 98 -311q0 -158 -53.5 -290.5t-139.5 -226.5t-196.5 -147t-226.5 -53q-93 0 -170.5 32.5 t-131.5 91t-83.5 143t-29.5 188.5zM323 436q0 -127 50 -196t148 -69q65 0 126.5 39.5t109.5 108.5t76 162.5t28 200.5q0 127 -50 195.5t-145 68.5q-65 0 -128 -40t-110.5 -108.5t-76 -161.5t-28.5 -200z" />
<glyph unicode="&#x1af;" horiz-adv-x="1472" d="M175 466q0 50 8 109t19 117l160 794h245l-166 -831q-20 -96 -20 -175q0 -144 61 -220t202 -76q117 0 203 95.5t132 321.5l176 885h130q89 7 145.5 54t56.5 111q0 38 -15 79l184 62q16 -33 21.5 -62t5.5 -62q0 -100 -73 -177t-234 -107l-158 -783q-66 -332 -214 -480.5 t-369 -148.5q-248 0 -374 123.5t-126 370.5z" />
<glyph unicode="&#x1b0;" horiz-adv-x="1260" d="M107 254q0 39 4 77t14 81l141 705h243l-134 -674q-9 -39 -13.5 -66t-4.5 -52q0 -143 138 -143q111 0 275 172l150 763h101q80 11 134.5 55.5t54.5 109.5q0 37 -15 78l185 61q25 -59 25 -123q0 -103 -70.5 -173.5t-188.5 -101.5l-202 -1023h-198l9 159h-9 q-84 -76 -177.5 -131.5t-195.5 -55.5q-141 0 -203.5 74.5t-62.5 207.5z" />
<glyph unicode="&#x1cd;" horiz-adv-x="1202" d="M-132 0l796 1486h291l159 -1486h-255l-29 418h-485l-206 -418h-271zM436 605h380l-16 225q-6 116 -14.5 227.5t-12.5 233.5h-9q-55 -123 -106 -234t-110 -227zM523 1859h182l105 -150h6l162 150h198l-260 -258h-234z" />
<glyph unicode="&#x1ce;" horiz-adv-x="1236" d="M80 380q0 158 50 298t133.5 244t192 162.5t223.5 58.5q82 0 150.5 -42t107.5 -114h4l48 130h195l-223 -1117h-200l12 154h-7q-80 -82 -176.5 -132t-192.5 -50q-147 0 -232 105t-85 303zM332 414q0 -123 44.5 -182t121.5 -59q74 0 149.5 43t143.5 146l91 445 q-38 73 -87 105t-101 32q-70 0 -136.5 -42.5t-116.5 -115t-79.5 -169t-29.5 -203.5zM509 1629h162l95 -193h9l171 193h177l-278 -329h-188z" />
<glyph unicode="&#x1cf;" horiz-adv-x="620" d="M73 0l296 1486h245l-295 -1486h-246zM213 1859h182l105 -150h6l162 150h198l-260 -258h-234z" />
<glyph unicode="&#x1d0;" horiz-adv-x="570" d="M50 0l225 1117h243l-223 -1117h-245zM189 1629h162l95 -193h9l171 193h177l-278 -329h-188z" />
<glyph unicode="&#x1d1;" horiz-adv-x="1470" d="M132 598q0 185 58 350.5t157.5 291.5t235 200t289.5 74q126 0 226 -43.5t169 -125t106 -197.5t37 -259q0 -184 -57.5 -350t-157 -292t-235 -200.5t-292.5 -74.5q-125 0 -225 43.5t-169.5 125.5t-105.5 198t-36 259zM384 616q0 -200 74 -316t224 -116q97 0 185 59 t152.5 154.5t102 219.5t37.5 253q0 200 -75 316.5t-225 116.5q-100 0 -186.5 -59.5t-149.5 -155t-101 -219t-38 -253.5zM652 1859h182l105 -150h6l162 150h198l-260 -258h-234z" />
<glyph unicode="&#x1d2;" horiz-adv-x="1191" d="M78 427q0 159 53 292t139.5 226.5t196.5 145.5t225 52q190 0 303.5 -121.5t113.5 -332.5q0 -158 -53.5 -290.5t-139.5 -226.5t-197 -147t-226 -53q-93 0 -170.5 32.5t-131.5 91t-83.5 143t-29.5 188.5zM323 436q0 -127 50 -196t148 -69q65 0 126.5 39.5t109.5 108.5 t76 162.5t28 200.5q0 127 -50 195.5t-145 68.5q-65 0 -128 -40t-110.5 -108.5t-76 -161.5t-28.5 -200zM513 1629h162l95 -193h9l171 193h177l-278 -329h-188z" />
<glyph unicode="&#x1d3;" horiz-adv-x="1431" d="M175 466q0 50 8 109t19 117l160 794h245l-166 -831q-20 -96 -20 -175q0 -144 61 -220t202 -76q117 0 203 95.5t132 321.5l176 885h241l-178 -885q-66 -332 -214 -480.5t-369 -148.5q-248 0 -374 123.5t-126 370.5zM634 1859h182l105 -150h6l162 150h198l-260 -258h-234z " />
<glyph unicode="&#x1d4;" horiz-adv-x="1219" d="M107 254q0 39 4 77t14 81l141 705h243l-134 -674q-9 -39 -13.5 -66t-4.5 -52q0 -143 138 -143q111 0 275 172l150 763h244l-220 -1117h-198l9 159h-9q-84 -76 -177.5 -131.5t-195.5 -55.5q-141 0 -203.5 74.5t-62.5 207.5zM500 1629h162l95 -193h9l171 193h177l-278 -329 h-188z" />
<glyph unicode="&#x1d5;" horiz-adv-x="1431" d="M175 466q0 50 8 109t19 117l160 794h245l-166 -831q-20 -96 -20 -175q0 -144 61 -220t202 -76q117 0 203 95.5t132 321.5l176 885h241l-178 -885q-66 -332 -214 -480.5t-369 -148.5q-248 0 -374 123.5t-126 370.5zM634 1712q0 50 36.5 92t93.5 42q46 0 73 -27t27 -73 q0 -52 -36.5 -94t-93.5 -42q-43 0 -71.5 27t-28.5 75zM705 1964l25 125h575l-27 -125h-573zM1032 1712q0 50 36.5 92t95.5 42q41 0 70.5 -27t29.5 -73q0 -52 -37.5 -94t-93.5 -42q-44 0 -72.5 27t-28.5 75z" />
<glyph unicode="&#x1d6;" horiz-adv-x="1219" d="M107 254q0 39 4 77t14 81l141 705h243l-134 -674q-9 -39 -13.5 -66t-4.5 -52q0 -143 138 -143q111 0 275 172l150 763h244l-220 -1117h-198l9 159h-9q-84 -76 -177.5 -131.5t-195.5 -55.5q-141 0 -203.5 74.5t-62.5 207.5zM452 1416q0 59 38.5 99t91.5 40q45 0 72 -26 t27 -69q0 -59 -37.5 -100t-94.5 -41q-45 0 -71 28t-26 69zM540 1707l28 126h566l-27 -126h-567zM855 1416q0 59 38 99t93 40q43 0 69 -26t26 -69q0 -59 -37 -100t-92 -41q-43 0 -70 28t-27 69z" />
<glyph unicode="&#x1d7;" horiz-adv-x="1431" d="M175 466q0 50 8 109t19 117l160 794h245l-166 -831q-20 -96 -20 -175q0 -144 61 -220t202 -76q117 0 203 95.5t132 321.5l176 885h241l-178 -885q-66 -332 -214 -480.5t-369 -148.5q-248 0 -374 123.5t-126 370.5zM630 1712q0 50 37 92t94 42q43 0 71.5 -27t28.5 -73 q0 -52 -36 -94t-95 -42q-43 0 -71.5 27t-28.5 75zM845 1919l237 259h264l-303 -259h-198zM1030 1712q0 50 35 92t95 42q43 0 71 -27t28 -73q0 -52 -36.5 -94t-92.5 -42q-46 0 -73 27t-27 75z" />
<glyph unicode="&#x1d8;" horiz-adv-x="1219" d="M107 254q0 39 4 77t14 81l141 705h243l-134 -674q-9 -39 -13.5 -66t-4.5 -52q0 -143 138 -143q111 0 275 172l150 763h244l-220 -1117h-198l9 159h-9q-84 -76 -177.5 -131.5t-195.5 -55.5q-141 0 -203.5 74.5t-62.5 207.5zM452 1416q0 59 38.5 99t91.5 40q45 0 72 -26 t27 -69q0 -59 -37.5 -100t-94.5 -41q-45 0 -71 28t-26 69zM679 1651l226 238h224l-277 -238h-173zM855 1416q0 59 38 99t93 40q43 0 69 -26t26 -69q0 -59 -37 -100t-92 -41q-43 0 -70 28t-27 69z" />
<glyph unicode="&#x1d9;" horiz-adv-x="1431" d="M175 466q0 50 8 109t19 117l160 794h245l-166 -831q-20 -96 -20 -175q0 -144 61 -220t202 -76q117 0 203 95.5t132 321.5l176 885h241l-178 -885q-66 -332 -214 -480.5t-369 -148.5q-248 0 -374 123.5t-126 370.5zM630 1712q0 50 37 92t94 42q43 0 71.5 -27t28.5 -73 q0 -52 -36 -94t-95 -42q-43 0 -71.5 27t-28.5 75zM704 2178h191l100 -150h7l164 150h191l-260 -259h-234zM1030 1712q0 50 35 92t95 42q43 0 71 -27t28 -73q0 -52 -36.5 -94t-92.5 -42q-46 0 -73 27t-27 75z" />
<glyph unicode="&#x1da;" horiz-adv-x="1219" d="M107 254q0 39 4 77t14 81l141 705h243l-134 -674q-9 -39 -13.5 -66t-4.5 -52q0 -143 138 -143q111 0 275 172l150 763h244l-220 -1117h-198l9 159h-9q-84 -76 -177.5 -131.5t-195.5 -55.5q-141 0 -203.5 74.5t-62.5 207.5zM452 1416q0 59 38.5 99t91.5 40q45 0 72 -26 t27 -69q0 -59 -37.5 -100t-94.5 -41q-45 0 -71 28t-26 69zM564 1889h159l102 -136h9l147 136h169l-230 -238h-213zM855 1416q0 59 38 99t93 40q43 0 69 -26t26 -69q0 -59 -37 -100t-92 -41q-43 0 -70 28t-27 69z" />
<glyph unicode="&#x1db;" horiz-adv-x="1431" d="M175 466q0 50 8 109t19 117l160 794h245l-166 -831q-20 -96 -20 -175q0 -144 61 -220t202 -76q117 0 203 95.5t132 321.5l176 885h241l-178 -885q-66 -332 -214 -480.5t-369 -148.5q-248 0 -374 123.5t-126 370.5zM630 1712q0 50 37 92t94 42q43 0 71.5 -27t28.5 -73 q0 -52 -36 -94t-95 -42q-43 0 -71.5 27t-28.5 75zM718 2178h260l143 -259h-198zM1030 1712q0 50 35 92t95 42q43 0 71 -27t28 -73q0 -52 -36.5 -94t-92.5 -42q-46 0 -73 27t-27 75z" />
<glyph unicode="&#x1dc;" horiz-adv-x="1219" d="M107 254q0 39 4 77t14 81l141 705h243l-134 -674q-9 -39 -13.5 -66t-4.5 -52q0 -143 138 -143q111 0 275 172l150 763h244l-220 -1117h-198l9 159h-9q-84 -76 -177.5 -131.5t-195.5 -55.5q-141 0 -203.5 74.5t-62.5 207.5zM452 1416q0 59 38.5 99t91.5 40q45 0 72 -26 t27 -69q0 -59 -37.5 -100t-94.5 -41q-45 0 -71 28t-26 69zM584 1889h213l139 -238h-159zM855 1416q0 59 38 99t93 40q43 0 69 -26t26 -69q0 -59 -37 -100t-92 -41q-43 0 -70 28t-27 69z" />
<glyph unicode="&#x1e6;" horiz-adv-x="1363" d="M130 584q0 184 57.5 353.5t163.5 297t254 203.5t327 76q139 0 237 -62.5t156 -165.5l-168 -129q-44 67 -100.5 106.5t-138.5 39.5q-121 0 -220.5 -61.5t-170 -160.5t-109 -224.5t-38.5 -253.5q0 -94 19 -170t62.5 -133t112 -87.5t165.5 -30.5q64 0 116 19.5t91 50.5 l73 351h-275l39 200h492l-134 -678q-82 -65 -194 -109t-249 -44q-273 0 -420.5 164t-147.5 448zM668 1859h182l105 -150h6l162 150h198l-260 -258h-234z" />
<glyph unicode="&#x1e7;" horiz-adv-x="1222" d="M-16 -341l109 163q64 -52 138.5 -87t161.5 -35q128 0 205 74t114 208l54 207h-7q-80 -76 -167 -121.5t-187 -45.5q-141 0 -233 99.5t-92 294.5q0 152 49 284t130.5 231t187.5 155.5t219 56.5q82 0 149 -42t103 -114h8l47 130h198l-227 -1133q-48 -236 -191.5 -357.5 t-366.5 -121.5q-106 0 -209.5 40.5t-192.5 113.5zM332 447q0 -113 44 -167.5t117 -54.5q65 0 144 39.5t146 128.5l83 414q-39 73 -87 105t-100 32q-67 0 -130 -40t-112 -108.5t-77 -158t-28 -190.5zM493 1629h162l95 -193h9l171 193h177l-278 -329h-188z" />
<glyph unicode="&#x1ea;" horiz-adv-x="1470" d="M132 598q0 185 58 350.5t157.5 291.5t235 200t289.5 74q126 0 226 -43.5t169 -125t106 -197.5t37 -259q0 -150 -38 -288.5t-110.5 -255.5t-180.5 -207t-246 -145q-126 -50 -180 -117t-54 -126q0 -39 23.5 -59.5t54.5 -20.5q35 0 71 24l50 -126q-43 -28 -99.5 -43.5 t-104.5 -15.5q-87 0 -140.5 42t-53.5 122q0 49 19.5 96t48 87t62.5 70.5t64 51.5q-221 28 -342.5 190t-121.5 430zM384 616q0 -200 74 -316t224 -116q97 0 185 59t152.5 154.5t102 219.5t37.5 253q0 200 -75 316.5t-225 116.5q-100 0 -186.5 -59.5t-149.5 -155t-101 -219 t-38 -253.5z" />
<glyph unicode="&#x1eb;" horiz-adv-x="1191" d="M78 427q0 159 53 292t139.5 226.5t196.5 145.5t225 52q91 0 167 -30.5t131.5 -88.5t87 -142t31.5 -193q0 -138 -36 -250t-99 -197t-148 -147.5t-182 -103.5q-116 -48 -169.5 -116t-53.5 -120q0 -37 23.5 -56.5t58.5 -19.5q36 0 79 26l43 -110q-43 -30 -100 -49t-104 -19 q-80 0 -131 39.5t-51 119.5q0 52 21.5 100t51 86.5t61.5 67t54 42.5q-161 22 -255 135t-94 310zM323 436q0 -127 50 -196t148 -69q65 0 126.5 39.5t109.5 108.5t76 162.5t28 200.5q0 127 -50 195.5t-145 68.5q-65 0 -128 -40t-110.5 -108.5t-76 -161.5t-28.5 -200z" />
<glyph unicode="&#x218;" horiz-adv-x="1176" d="M18 243l177 137q66 -91 157 -144.5t201 -53.5q115 0 190 60t75 165q0 70 -49 117t-131 96l-156 96q-98 59 -162 144.5t-64 217.5q0 89 38 168t105 139.5t157 94.5t194 34q135 0 246 -60.5t191 -158.5l-157 -143q-57 63 -128.5 107t-164.5 44q-109 0 -168.5 -61.5 t-59.5 -139.5q0 -73 51.5 -117t137.5 -96l159 -95q109 -64 162.5 -143.5t53.5 -209.5q0 -100 -38.5 -185t-110.5 -149t-171.5 -99.5t-220.5 -35.5q-150 0 -280.5 64t-233.5 207zM259 -402q102 11 155.5 37t53.5 79q0 32 -24 49.5t-60 30.5l66 93q91 -18 143 -54.5t52 -105.5 q0 -63 -30.5 -105.5t-82.5 -68.5t-120.5 -40t-143.5 -18z" />
<glyph unicode="&#x219;" horiz-adv-x="937" d="M-13 186l145 118q54 -73 121.5 -111.5t141.5 -38.5q80 0 138 42.5t58 103.5q0 52 -48 89.5t-152 96.5q-111 61 -175 134.5t-64 175.5q0 75 32 139.5t87.5 110t129.5 71.5t158 26q109 0 197 -45.5t153 -112.5l-136 -130q-44 43 -96 73.5t-118 30.5q-77 0 -127 -40.5 t-50 -100.5q0 -32 16 -54.5t43 -43t61 -38.5t71 -38q125 -66 186 -139t61 -175q0 -82 -32.5 -148.5t-92 -113t-141 -71.5t-177.5 -25q-52 0 -107.5 16t-108 43.5t-98 67.5t-76.5 87zM130 -384q102 11 155.5 37t53.5 79q0 32 -24 49.5t-60 30.5l66 93q91 -18 143 -54.5 t52 -105.5q0 -63 -30.5 -105.5t-82.5 -68.5t-120.5 -40t-143.5 -18z" />
<glyph unicode="&#x21a;" horiz-adv-x="1184" d="M200 1278l41 208h1069l-41 -208h-412l-254 -1278h-246l255 1278h-412zM211 -384q102 11 155.5 37t53.5 79q0 32 -24 49.5t-60 30.5l66 93q91 -18 143 -54.5t52 -105.5q0 -63 -30.5 -105.5t-82.5 -68.5t-120.5 -40t-143.5 -18z" />
<glyph unicode="&#x21b;" horiz-adv-x="785" d="M113 -384q102 11 155.5 37t53.5 79q0 32 -24 49.5t-60 30.5l66 93q91 -18 143 -54.5t52 -105.5q0 -63 -30.5 -105.5t-82.5 -68.5t-120.5 -40t-143.5 -18zM121 922l36 182l170 13l89 299h204l-58 -299h268l-39 -195h-273l-113 -553q-7 -42 -8 -80q0 -61 30 -92t100 -31 q30 0 55 9t50 20l45 -173q-41 -18 -100 -34t-136 -16q-157 0 -224 79t-67 194q0 35 4.5 66.5t8.5 65.5l115 545h-157z" />
<glyph unicode="&#x237;" horiz-adv-x="572" d="M-291 -423l77 178q43 -28 101 -28q61 0 93.5 47.5t56.5 143.5l241 1199h243l-241 -1204q-18 -82 -48 -152.5t-74.5 -121.5t-106.5 -79t-146 -28q-57 0 -102.5 10.5t-93.5 34.5z" />
<glyph unicode="&#x243;" horiz-adv-x="1413" d="M34 405l25 116l160 11l191 954h427q219 0 349 -79t130 -240q0 -68 -26 -126.5t-70.5 -104t-103.5 -78.5t-127 -49l-2 -9q121 -32 192 -106t71 -199q0 -132 -49 -224.5t-134 -153t-199.5 -89t-247.5 -28.5h-507l80 405h-159zM391 178h227q182 0 288.5 78t106.5 242 q0 103 -72.5 165t-211.5 62h-226l-39 -193h311l-27 -127h-312zM532 885h180q179 0 267 67t88 176q0 180 -280 180h-169z" />
<glyph unicode="&#x251;" horiz-adv-x="1236" d="M80 380q0 158 50 298t133.5 244t192 162.5t223.5 58.5q82 0 150.5 -42t107.5 -114h4l48 130h195l-223 -1117h-200l12 154h-7q-80 -82 -176.5 -132t-192.5 -50q-147 0 -232 105t-85 303zM332 414q0 -123 44.5 -182t121.5 -59q74 0 149.5 43t143.5 146l91 445 q-38 73 -87 105t-101 32q-70 0 -136.5 -42.5t-116.5 -115t-79.5 -169t-29.5 -203.5z" />
<glyph unicode="&#x259;" horiz-adv-x="1102" d="M57 384q0 66 16 132t34 111h680q11 163 -54 246.5t-178 83.5q-59 0 -120.5 -21.5t-118.5 -53.5l-73 161q87 46 175.5 73t193.5 27q184 0 296.5 -119t112.5 -354q0 -156 -53.5 -285t-141 -220.5t-196.5 -142t-218 -50.5q-98 0 -165 32.5t-109.5 88t-61.5 130t-19 161.5z M259 369q0 -42 9.5 -79.5t30 -64.5t55 -44.5t87.5 -17.5q102 0 192 78t131 232h-491q-13 -52 -14 -104z" />
<glyph unicode="&#x261;" horiz-adv-x="1222" d="M-16 -341l109 163q64 -52 138.5 -87t161.5 -35q128 0 205 74t114 208l54 207h-7q-80 -76 -167 -121.5t-187 -45.5q-141 0 -233 99.5t-92 294.5q0 152 49 284t130.5 231t187.5 155.5t219 56.5q82 0 149 -42t103 -114h8l47 130h198l-227 -1133q-48 -236 -191.5 -357.5 t-366.5 -121.5q-106 0 -209.5 40.5t-192.5 113.5zM332 447q0 -113 44 -167.5t117 -54.5q65 0 144 39.5t146 128.5l83 414q-39 73 -87 105t-100 32q-67 0 -130 -40t-112 -108.5t-77 -158t-28 -190.5z" />
<glyph unicode="&#x2b0;" horiz-adv-x="820" d="M111 601l212 1058h178l-50 -252l-41 -159h6q52 45 113.5 78.5t129.5 33.5q96 0 137 -51t41 -142q0 -26 -5 -52t-9 -48l-94 -466h-174l87 442q6 26 9.5 41.5t3.5 32.5q0 93 -82 93q-80 0 -187 -114l-97 -495h-178z" />
<glyph unicode="&#x2b2;" horiz-adv-x="390" d="M-121 316l58 122q15 -6 32.5 -11.5t34.5 -5.5q44 0 64.5 30.5t31.5 91.5l159 798h175l-159 -812q-22 -108 -81.5 -177.5t-175.5 -69.5q-37 0 -69.5 7.5t-69.5 26.5zM284 1555q0 43 34 76t82 33q38 0 69.5 -23t31.5 -68q0 -46 -34.5 -77.5t-82.5 -31.5q-39 0 -69.5 23 t-30.5 68z" />
<glyph unicode="&#x2b3;" horiz-adv-x="540" d="M111 601l145 740h144l-9 -118h6q46 59 100 97t119 38q41 0 68 -15l-59 -152q-13 7 -26 8t-28 1q-53 0 -99.5 -30.5t-91.5 -102.5l-94 -466h-175z" />
<glyph unicode="&#x2b7;" horiz-adv-x="1117" d="M184 1341h170l17 -384l-2 -216h6l82 216l175 384h153l26 -384l5 -216h7l82 216l162 384h161l-328 -740h-208l-22 340v205h-6l-80 -207l-150 -338h-202z" />
<glyph unicode="&#x2b8;" horiz-adv-x="731" d="M-2 312l54 124q16 -6 31 -10.5t32 -4.5q59 0 99 37t70 90l18 38l-131 755h170l50 -386l16 -220h5l97 220l187 386h170l-413 -793q-32 -54 -65.5 -103.5t-73 -85.5t-87 -56.5t-109.5 -20.5q-35 0 -61.5 5.5t-58.5 24.5z" />
<glyph unicode="&#x2b9;" horiz-adv-x="606" d="M234 896l187 668h238l-91 -269l-173 -399h-161z" />
<glyph unicode="&#x2bb;" horiz-adv-x="606" d="M234 1082q0 91 27.5 166t75 135t110 103.5t135.5 68.5l43 -112q-116 -50 -176.5 -128t-62.5 -140h11q59 0 99 -32t40 -91q0 -63 -41.5 -109.5t-114.5 -46.5q-66 0 -106 48.5t-40 137.5z" />
<glyph unicode="&#x2bc;" horiz-adv-x="606" d="M248 1039q115 50 175.5 128t62.5 141h-11q-59 0 -99 31.5t-40 90.5q0 63 43.5 110t115.5 47q66 0 104.5 -49t38.5 -137q0 -91 -27 -166.5t-75 -135.5t-111 -103.5t-134 -67.5z" />
<glyph unicode="&#x2be;" horiz-adv-x="342" d="M219 1237l20 99q80 5 119 44t39 93q0 43 -26 71.5t-87 28.5l22 98q116 4 167.5 -48t51.5 -134q0 -109 -78 -180.5t-228 -71.5z" />
<glyph unicode="&#x2bf;" horiz-adv-x="362" d="M191 1425q0 109 79.5 180.5t230.5 71.5l-21 -100q-80 -4 -120.5 -42.5t-40.5 -93.5q0 -44 26 -72t87 -28l-20 -98q-116 -4 -168.5 49t-52.5 133z" />
<glyph unicode="&#x2c6;" horiz-adv-x="1195" d="M445 1300l278 329h188l146 -329h-162l-94 196h-9l-172 -196h-175z" />
<glyph unicode="&#x2c7;" horiz-adv-x="1195" d="M513 1629h162l95 -193h9l171 193h177l-278 -329h-188z" />
<glyph unicode="&#x2c8;" horiz-adv-x="280" d="M193 1245l66 438h203l-102 -438h-167z" />
<glyph unicode="&#x2c9;" horiz-adv-x="631" d="M184 1358l31 160h566l-28 -160h-569z" />
<glyph unicode="&#x2ca;" horiz-adv-x="495" d="M219 1300l263 329h251l-323 -329h-191z" />
<glyph unicode="&#x2cb;" horiz-adv-x="495" d="M178 1629h232l129 -329h-171z" />
<glyph unicode="&#x2cc;" horiz-adv-x="280" d="M-182 -591l102 437h167l-69 -437h-200z" />
<glyph unicode="&#x2d8;" horiz-adv-x="1195" d="M523.5 1494.5q-8.5 53.5 3.5 110.5h134q-6 -70 19.5 -116t94.5 -46q70 0 115.5 46.5t68.5 115.5h141q-16 -57 -44.5 -110.5t-72 -95t-101 -66.5t-131.5 -25q-70 0 -117.5 25t-74.5 66.5t-35.5 95z" />
<glyph unicode="&#x2d9;" horiz-adv-x="1195" d="M627 1441q0 65 49 112.5t114 47.5q55 0 98 -33.5t43 -94.5q0 -68 -47.5 -113.5t-115.5 -45.5q-54 0 -97.5 33t-43.5 94z" />
<glyph unicode="&#x2da;" horiz-adv-x="1195" d="M558 1427q0 50 18.5 95.5t51.5 77.5t76 51.5t95 19.5q91 0 149.5 -50t58.5 -144q0 -52 -18.5 -96.5t-51 -77t-76 -52t-93.5 -19.5q-91 0 -150.5 50t-59.5 145zM686 1434q0 -43 21.5 -71.5t65.5 -28.5q45 0 76.5 40t31.5 95q0 43 -21.5 71t-64.5 28q-46 0 -77.5 -39.5 t-31.5 -94.5z" />
<glyph unicode="&#x2db;" horiz-adv-x="1195" d="M239 -314q0 52 21 100t54 90t72 75t70 56h148q-182 -130 -182 -252q0 -37 23.5 -56.5t56.5 -19.5q22 0 40 7.5t40 18.5l45 -110q-45 -30 -101.5 -49t-103.5 -19q-80 0 -131.5 39.5t-51.5 119.5z" />
<glyph unicode="&#x2dc;" horiz-adv-x="1195" d="M427 1314q37 126 101.5 194.5t139.5 68.5q50 0 83 -16.5t59 -38t51 -39t61 -17.5q50 0 96 107h132q-35 -123 -99.5 -193t-141.5 -70q-50 0 -83.5 17.5t-59.5 38t-51 39t-61 18.5q-50 0 -96 -109h-131z" />
<glyph unicode="&#x2dd;" horiz-adv-x="1195" d="M497 1300l230 332h206l-275 -332h-161zM845 1300l229 332h208l-275 -332h-162z" />
<glyph unicode="&#x2e1;" horiz-adv-x="390" d="M141 714q0 17 3.5 39t7.5 47l171 859h178l-176 -874q-4 -11 -4 -30q0 -18 9 -24t20 -6q13 0 25 4v-131q-18 -6 -43.5 -11t-56.5 -5q-70 0 -102 35.5t-32 96.5z" />
<glyph unicode="&#x2e2;" horiz-adv-x="631" d="M57 709l102 96q41 -41 88.5 -68.5t99.5 -27.5q55 0 87 26t32 68q0 29 -30.5 53t-101.5 62q-65 39 -110.5 86.5t-45.5 118.5q0 50 21.5 94.5t57.5 75t86 49t108 18.5q77 0 139.5 -31t109.5 -71l-84 -108q-34 32 -76 56t-93 24q-47 0 -75.5 -26t-28.5 -65q0 -35 37.5 -60 t87.5 -51q74 -39 117.5 -86.5t43.5 -123.5q0 -109 -80.5 -172.5t-216.5 -63.5q-78 0 -150.5 35.5t-124.5 91.5z" />
<glyph unicode="&#x2e3;" horiz-adv-x="713" d="M9 601l330 392l-137 348h180l50 -137l43 -122h7l75 109l102 150h196l-304 -384l145 -356h-178l-56 140l-48 127h-9l-82 -115l-119 -152h-195z" />
<glyph unicode="&#x300;" d="M46 1629h232l129 -329h-171z" />
<glyph unicode="&#x301;" d="M87 1300l263 329h251l-323 -329h-191z" />
<glyph unicode="&#x302;" d="M-50 1300l278 329h188l146 -329h-162l-94 196h-9l-172 -196h-175z" />
<glyph unicode="&#x303;" d="M-68 1314q37 126 101.5 194.5t139.5 68.5q50 0 83 -16.5t59 -38t51 -39t61 -17.5q50 0 96 107h132q-35 -123 -99.5 -193t-141.5 -70q-50 0 -83.5 17.5t-59.5 38t-51 39t-61 18.5q-50 0 -96 -109h-131z" />
<glyph unicode="&#x304;" d="M-18 1358l31 160h566l-28 -160h-569z" />
<glyph unicode="&#x306;" d="M28.5 1494.5q-8.5 53.5 3.5 110.5h134q-6 -70 19.5 -116t94.5 -46q70 0 115.5 46.5t68.5 115.5h141q-16 -57 -44.5 -110.5t-72 -95t-101 -66.5t-131.5 -25q-70 0 -117.5 25t-74.5 66.5t-35.5 95z" />
<glyph unicode="&#x307;" d="M132 1441q0 65 49 112.5t114 47.5q55 0 98 -33.5t43 -94.5q0 -68 -47.5 -113.5t-115.5 -45.5q-54 0 -97.5 33t-43.5 94z" />
<glyph unicode="&#x308;" d="M-46 1432q0 59 42.5 103.5t101.5 44.5q47 0 80 -31t33 -85q0 -61 -42 -103t-101 -42q-50 0 -82 29.5t-32 83.5zM360 1432q0 59 41.5 103.5t101.5 44.5q50 0 81.5 -31t31.5 -85q0 -61 -42 -103t-101 -42q-50 0 -81.5 29.5t-31.5 83.5z" />
<glyph unicode="&#x309;" d="M173 1546l48 127q166 -5 233 -50.5t67 -115.5q0 -56 -24 -98.5t-66.5 -71.5t-99 -48.5t-120.5 -28.5l-13 104q63 18 100.5 38.5t37.5 63.5q0 35 -35 53.5t-128 26.5z" />
<glyph unicode="&#x30a;" d="M63 1427q0 50 18.5 95.5t51.5 77.5t76 51.5t95 19.5q91 0 149.5 -50t58.5 -144q0 -52 -18.5 -96.5t-51 -77t-76 -52t-93.5 -19.5q-91 0 -150.5 50t-59.5 145zM191 1434q0 -43 21.5 -71.5t65.5 -28.5q45 0 76.5 40t31.5 95q0 43 -21.5 71t-64.5 28q-46 0 -77.5 -39.5 t-31.5 -94.5z" />
<glyph unicode="&#x30b;" d="M2 1300l230 332h206l-275 -332h-161zM350 1300l229 332h208l-275 -332h-162z" />
<glyph unicode="&#x30c;" d="M18 1629h162l95 -193h9l171 193h177l-278 -329h-188z" />
<glyph unicode="&#x30f;" d="M-154 1632h202l91 -332h-152zM189 1632h202l91 -332h-155z" />
<glyph unicode="&#x312;" d="M132 1366q0 103 62 187t203 130l24 -89q-70 -28 -108 -59.5t-57 -79.5h17q37 0 65 -27t28 -68q0 -59 -35.5 -92.5t-87.5 -33.5t-81.5 37t-29.5 95z" />
<glyph unicode="&#x313;" d="M152 1323q70 26 109 58.5t55 80.5h-16q-37 0 -65.5 27t-28.5 68q0 59 37 92.5t89 33.5q50 0 79.5 -36.5t29.5 -95.5q0 -102 -61 -186.5t-202 -130.5z" />
<glyph unicode="&#x31b;" d="M182 1093q89 7 145.5 53.5t56.5 113.5q0 36 -13 76l184 63q28 -66 27 -124q0 -56 -24 -106t-73 -90t-124 -65t-177 -32z" />
<glyph unicode="&#x323;" d="M-230 -377q0 65 48 111.5t117 46.5q52 0 95 -32.5t43 -93.5q0 -68 -48 -114t-116 -46q-52 0 -95.5 33.5t-43.5 94.5z" />
<glyph unicode="&#x324;" d="M-400 -360q0 55 38.5 102t102.5 47q46 0 77.5 -30t31.5 -82q0 -54 -39 -101t-102 -47q-48 0 -78.5 29.5t-30.5 81.5zM4 -360q0 55 40 102t104 47q45 0 78 -30t33 -82q0 -54 -40 -101t-104 -47q-45 0 -78 29.5t-33 81.5z" />
<glyph unicode="&#x326;" d="M-284 -402q102 11 155.5 37t53.5 79q0 32 -24 49.5t-60 30.5l66 93q91 -18 143 -54.5t52 -105.5q0 -63 -30.5 -105.5t-82.5 -68.5t-120.5 -40t-143.5 -18z" />
<glyph unicode="&#x327;" d="M-291 -388q89 11 149 40t60 84q0 32 -24 53.5t-87 39.5l123 178h150l-78 -118q44 -16 73 -48t29 -84q0 -61 -31.5 -105.5t-84.5 -74.5t-123.5 -46.5t-146.5 -21.5z" />
<glyph unicode="&#x328;" d="M-256 -314q0 52 21 100t54 90t72 75t70 56h148q-182 -130 -182 -252q0 -37 23.5 -56.5t56.5 -19.5q22 0 40 7.5t40 18.5l45 -110q-45 -30 -101.5 -49t-103.5 -19q-80 0 -131.5 39.5t-51.5 119.5z" />
<glyph unicode="&#x32e;" d="M-335 -301q-8 53 3 110h134q-6 -70 20 -115.5t94 -45.5q70 0 116 46.5t68 114.5h141q-16 -57 -44 -110t-71.5 -95t-101 -67t-131.5 -25q-69 0 -117.5 25t-75.5 67t-35 95z" />
<glyph unicode="&#x331;" d="M-373 -407l32 162h566l-30 -162h-568z" />
<glyph unicode="&#x3c0;" horiz-adv-x="1274" d="M121 918l33 184l160 12h1005l-41 -196h-155l-130 -643q-11 -52 -3 -80.5t42 -28.5q26 0 55 12l9 -178q-33 -13 -64.5 -20.5t-76.5 -7.5q-70 0 -114.5 24t-68.5 64t-28.5 92t9.5 112l127 654h-332l-182 -918h-241l181 918h-185z" />
<glyph unicode="&#x1d43;" horiz-adv-x="818" d="M130 855q0 104 34 196t90 160.5t128.5 108.5t149.5 40q52 0 93 -27.5t67 -78.5h8l35 87h140l-148 -740h-141l10 102h-10q-52 -57 -115.5 -89t-127.5 -32q-98 0 -155.5 69t-57.5 204zM310 878q0 -80 28 -115.5t72 -35.5q45 0 97 30t98 93l50 278q-22 47 -52 66.5t-62 19.5 q-44 0 -85.5 -27.5t-73.5 -72.5t-52 -106.5t-20 -129.5z" />
<glyph unicode="&#x1d47;" horiz-adv-x="829" d="M111 601l212 1058h178l-50 -252l-41 -147h6q48 43 105.5 71.5t122.5 28.5q97 0 155 -70.5t58 -202.5q0 -107 -34 -199t-90 -160.5t-128.5 -107t-149.5 -38.5q-52 0 -93 26t-67 76h-9l-34 -83h-141zM332 811q22 -45 52 -64.5t61 -19.5q43 0 85.5 26t74 72.5t52 108.5 t20.5 129q0 80 -28.5 115.5t-71.5 35.5q-45 0 -95 -25t-96 -85z" />
<glyph unicode="&#x1d48;" horiz-adv-x="844" d="M130 855q0 104 34 196t90 160.5t128.5 108.5t149.5 40q52 0 93 -26t64 -72h9l16 148l47 243h176l-210 -1052h-141l10 102h-10q-52 -57 -115.5 -89t-127.5 -32q-98 0 -155.5 69t-57.5 204zM310 878q0 -80 28 -115.5t72 -35.5q45 0 97 30t98 93l50 278q-22 47 -52 66.5 t-62 19.5q-44 0 -85.5 -27.5t-73.5 -72.5t-52 -106.5t-20 -129.5z" />
<glyph unicode="&#x1d49;" horiz-adv-x="744" d="M128 898q0 102 36 187.5t94 145.5t131 94.5t147 34.5q68 0 115 -23t75.5 -61.5t40.5 -88.5t12 -105q0 -50 -12 -94t-23 -66h-451q-7 -102 43 -154t139 -52q41 0 77 15t73 37l54 -115q-54 -33 -119 -52t-130 -19q-137 0 -219.5 83t-82.5 233zM312 1035h313q4 15 5.5 29 t1.5 27q0 52 -25 92t-91 40q-59 0 -119.5 -50t-84.5 -138z" />
<glyph unicode="&#x1d4d;" horiz-adv-x="818" d="M68 364l75 118q46 -32 100 -57t114 -25q76 0 126.5 50.5t75.5 135.5l32 117h-9q-55 -44 -112.5 -67.5t-124.5 -23.5q-100 0 -156.5 67t-56.5 189q0 100 33 190t89 157t127.5 106t150.5 39q52 0 93 -27.5t67 -78.5h8l35 87h140l-150 -750q-32 -161 -128 -245t-247 -84 q-66 0 -141 25t-141 77zM312 891q0 -70 28.5 -103t73.5 -33q46 0 95.5 22.5t93.5 72.5l52 278q-22 47 -52 66.5t-62 19.5q-46 0 -86.5 -26t-72.5 -70.5t-51 -103.5t-19 -123z" />
<glyph unicode="&#x1d4f;" horiz-adv-x="772" d="M111 601l212 1058h178l-132 -650h8l315 332h193l-301 -318l182 -422h-175l-127 321l-139 -135l-36 -186h-178z" />
<glyph unicode="&#x1d50;" horiz-adv-x="1238" d="M113 601l146 740h141l-5 -104h10q55 52 116 87.5t129 35.5q83 0 119 -39t49 -96q63 55 127 95t133 40q95 0 134.5 -50t39.5 -146q0 -45 -13 -103l-91 -460h-175l86 440q4 22 8 41.5t4 38.5q0 89 -78 89q-34 0 -80.5 -29t-96.5 -85l-98 -495h-172l86 440q4 22 9 39.5 t5 36.5q0 93 -84 93q-33 0 -79.5 -30t-96.5 -84l-97 -495h-176z" />
<glyph unicode="&#x1d52;" horiz-adv-x="801" d="M128 885q0 108 35 196t93 149t133 95.5t152 34.5q125 0 204.5 -80t79.5 -223q0 -109 -35 -196.5t-94.5 -149t-134 -95.5t-151.5 -34q-124 0 -203 79.5t-79 223.5zM302 889q0 -78 31 -122t92 -44q48 0 89 26t71.5 70.5t47.5 103.5t17 127q0 80 -31 123.5t-92 43.5 q-47 0 -88.5 -26.5t-72 -70.5t-47.5 -103.5t-17 -127.5z" />
<glyph unicode="&#x1d56;" horiz-adv-x="826" d="M50 293l209 1048h141l2 -87h10q54 48 110.5 77t121.5 29q97 0 155 -70.5t58 -202.5q0 -107 -34 -199t-90 -160.5t-128.5 -107t-149.5 -38.5q-50 0 -92 26t-68 76h-9l-13 -159l-45 -232h-178zM332 811q22 -45 50 -65.5t59 -20.5q43 0 85 27t76 72.5t54.5 108.5t20.5 130 q0 80 -28.5 115.5t-71.5 35.5q-45 0 -95 -25t-96 -85z" />
<glyph unicode="&#x1d57;" horiz-adv-x="533" d="M152 1200l26 132l113 9l59 195h145l-38 -195h185l-26 -141h-186l-70 -345q-3 -14 -4.5 -26.5t-1.5 -23.5q0 -85 76 -85q25 0 39.5 5.5t31.5 11.5l28 -128q-32 -11 -72.5 -19t-79.5 -8q-111 0 -156.5 55t-45.5 136q0 22 3.5 43l7.5 45l70 339h-104z" />
<glyph unicode="&#x1d58;" horiz-adv-x="818" d="M143 775q0 25 4.5 49t9.5 51l93 466h177l-88 -443q-7 -26 -9.5 -42.5t-2.5 -32.5q0 -92 80 -92q44 0 86.5 28t97.5 87l98 495h177l-148 -740h-141l5 104h-9q-57 -52 -118.5 -87.5t-131.5 -35.5q-95 0 -137.5 50t-42.5 143z" />
<glyph unicode="&#x1d5b;" horiz-adv-x="733" d="M166 1341h175l36 -386l16 -224h7l105 224l187 386h172l-389 -740h-204z" />
<glyph unicode="&#x1d9c;" horiz-adv-x="668" d="M128 878q0 91 31.5 178t88 154.5t135.5 108.5t172 41q65 0 117.5 -26t86.5 -65l-102 -107q-45 55 -111 55q-52 0 -96.5 -29t-76.5 -74t-50.5 -102t-18.5 -114q0 -89 44.5 -132t106.5 -43q41 0 72.5 15t60.5 32l58 -111q-34 -30 -94.5 -53.5t-133.5 -23.5 q-125 0 -207.5 78.5t-82.5 217.5z" />
<glyph unicode="&#x1da0;" horiz-adv-x="475" d="M137 601l119 599h-95l23 130l102 11l16 82q22 115 88.5 189.5t184.5 74.5q78 0 150 -39l-57 -125q-13 9 -33.5 17t-43.5 8q-87 0 -114 -127l-15 -80h143l-28 -141h-145l-120 -599h-175z" />
<glyph unicode="&#x1dbb;" horiz-adv-x="656" d="M57 601l18 97l430 502h-294l28 141h516l-18 -102l-431 -500h340l-28 -138h-561z" />
<glyph unicode="&#x1e06;" horiz-adv-x="1349" d="M73 0l296 1486h427q219 0 349 -82.5t130 -251.5q0 -70 -26 -130.5t-70.5 -108t-103.5 -81.5t-127 -49l-2 -10q121 -30 192.5 -100t71.5 -191q0 -128 -49.5 -219.5t-134.5 -150t-199.5 -85.5t-247.5 -27h-506zM230 -389l32 162h566l-30 -162h-568zM354 191h225 q185 0 289.5 68t104.5 212q0 102 -73 161.5t-216 59.5h-229zM488 864h182q185 0 270.5 68t85.5 182q0 87 -68.5 134t-211.5 47h-169z" />
<glyph unicode="&#x1e07;" horiz-adv-x="1238" d="M50 0l323 1605h243l-80 -395l-54 -214h4q80 63 169 105t182 42q150 0 233.5 -103t83.5 -303q0 -161 -50 -300.5t-133.5 -242.5t-190.5 -162.5t-223 -59.5q-84 0 -149 42.5t-104 115.5h-4l-48 -130h-202zM178 -389l32 162h566l-30 -162h-568zM357 310q37 -74 84 -105.5 t100 -31.5q69 0 136 41.5t117 114.5t80.5 170t30.5 206q0 123 -45 181t-123 58q-65 0 -143 -40t-141 -121z" />
<glyph unicode="&#x1e0c;" horiz-adv-x="1371" d="M73 0l296 1486h301q312 0 478 -148.5t166 -432.5q0 -211 -58 -379.5t-163.5 -284.5t-254.5 -178.5t-333 -62.5h-432zM357 198h144q125 0 228 46.5t178 135t115.5 217t40.5 292.5q0 200 -104 300t-295 100h-91zM406 -359q0 65 48 111.5t117 46.5q52 0 95 -32.5t43 -93.5 q0 -68 -48 -114t-116 -46q-52 0 -95.5 33.5t-43.5 94.5z" />
<glyph unicode="&#x1e0d;" horiz-adv-x="1226" d="M80 380q0 158 50 298t133.5 244t192 162.5t223.5 58.5q82 0 146 -41t101 -106h6l31 214l78 395h243l-323 -1605h-200l12 154h-7q-80 -82 -176.5 -132t-192.5 -50q-147 0 -232 105t-85 303zM316 -359q0 65 48 111.5t117 46.5q52 0 95 -32.5t43 -93.5q0 -68 -48 -114 t-116 -46q-52 0 -95.5 33.5t-43.5 94.5zM332 414q0 -123 44.5 -182t121.5 -59q74 0 148 43t145 146l91 445q-38 73 -87 105t-101 32q-70 0 -136.5 -42.5t-116.5 -115t-79.5 -169t-29.5 -203.5z" />
<glyph unicode="&#x1e0e;" horiz-adv-x="1371" d="M73 0l296 1486h301q312 0 478 -148.5t166 -432.5q0 -211 -58 -379.5t-163.5 -284.5t-254.5 -178.5t-333 -62.5h-432zM263 -389l32 162h566l-30 -162h-568zM357 198h144q125 0 228 46.5t178 135t115.5 217t40.5 292.5q0 200 -104 300t-295 100h-91z" />
<glyph unicode="&#x1e0f;" horiz-adv-x="1226" d="M80 380q0 158 50 298t133.5 244t192 162.5t223.5 58.5q82 0 146 -41t101 -106h6l31 214l78 395h243l-323 -1605h-200l12 154h-7q-80 -82 -176.5 -132t-192.5 -50q-147 0 -232 105t-85 303zM173 -389l32 162h566l-30 -162h-568zM332 414q0 -123 44.5 -182t121.5 -59 q74 0 148 43t145 146l91 445q-38 73 -87 105t-101 32q-70 0 -136.5 -42.5t-116.5 -115t-79.5 -169t-29.5 -203.5z" />
<glyph unicode="&#x1e16;" horiz-adv-x="1169" d="M73 0l296 1486h852l-41 -206h-609l-80 -400h516l-41 -207h-513l-96 -467h628l-41 -206h-871zM542 1646l31 163h573l-32 -163h-572zM750 1919l237 259h264l-303 -259h-198z" />
<glyph unicode="&#x1e17;" horiz-adv-x="1108" d="M75 445q0 157 53.5 285.5t141 220.5t196.5 142t218 50q97 0 164.5 -31.5t109.5 -87.5t61.5 -131t19.5 -162q0 -73 -18.5 -140.5t-29.5 -95.5h-679q-9 -89 9 -152t55.5 -104t92 -60.5t117.5 -19.5q59 0 120.5 27.5t107.5 61.5l91 -157q-68 -48 -164.5 -83.5t-217.5 -35.5 q-100 0 -182 32.5t-141 92.5t-92 147.5t-33 200.5zM332 650h493q4 23 8 46.5t4 51.5q0 82 -40 144.5t-142 62.5t-192 -80.5t-131 -224.5zM451 1358l28 160h569l-31 -160h-566zM659 1651l226 238h224l-277 -238h-173z" />
<glyph unicode="&#x1e20;" horiz-adv-x="1363" d="M130 584q0 184 57.5 353.5t163.5 297t254 203.5t327 76q139 0 237 -62.5t156 -165.5l-168 -129q-44 67 -100.5 106.5t-138.5 39.5q-121 0 -220.5 -61.5t-170 -160.5t-109 -224.5t-38.5 -253.5q0 -94 19 -170t62.5 -133t112 -87.5t165.5 -30.5q64 0 116 19.5t91 50.5 l73 351h-275l39 200h492l-134 -678q-82 -65 -194 -109t-249 -44q-273 0 -420.5 164t-147.5 448zM666 1646l32 163h573l-32 -163h-573z" />
<glyph unicode="&#x1e21;" horiz-adv-x="1222" d="M-16 -341l109 163q64 -52 138.5 -87t161.5 -35q128 0 205 74t114 208l54 207h-7q-80 -76 -167 -121.5t-187 -45.5q-141 0 -233 99.5t-92 294.5q0 152 49 284t130.5 231t187.5 155.5t219 56.5q82 0 149 -42t103 -114h8l47 130h198l-227 -1133q-48 -236 -191.5 -357.5 t-366.5 -121.5q-106 0 -209.5 40.5t-192.5 113.5zM332 447q0 -113 44 -167.5t117 -54.5q65 0 144 39.5t146 128.5l83 414q-39 73 -87 105t-100 32q-67 0 -130 -40t-112 -108.5t-77 -158t-28 -190.5zM457 1358l31 160h566l-28 -160h-569z" />
<glyph unicode="&#x1e24;" horiz-adv-x="1449" d="M73 0l296 1486h245l-123 -601h589l120 601h246l-298 -1486h-246l137 670h-588l-132 -670h-246zM423 -359q0 65 48 111.5t117 46.5q52 0 95 -32.5t43 -93.5q0 -68 -48 -114t-116 -46q-52 0 -95.5 33.5t-43.5 94.5z" />
<glyph unicode="&#x1e25;" horiz-adv-x="1211" d="M50 0l323 1605h243l-98 -473l-43 -162h9q87 73 176.5 123t191.5 50q141 0 203 -72.5t62 -209.5q0 -38 -4 -74.5t-15 -81.5l-141 -705h-243l136 673q7 39 12.5 66t5.5 52q0 144 -141 144q-59 0 -126 -41.5t-156 -132.5l-150 -761h-245zM306 -359q0 65 48 111.5t117 46.5 q52 0 95 -32.5t43 -93.5q0 -68 -48 -114t-116 -46q-52 0 -95.5 33.5t-43.5 94.5z" />
<glyph unicode="&#x1e2a;" horiz-adv-x="1449" d="M73 0l296 1486h245l-123 -601h589l120 601h246l-298 -1486h-246l137 670h-588l-132 -670h-246zM318 -283q-8 53 3 110h134q-6 -70 20 -115.5t94 -45.5q70 0 116 46.5t68 114.5h141q-16 -57 -44 -110t-71.5 -95t-101 -67t-131.5 -25q-69 0 -117.5 25t-75.5 67t-35 95z" />
<glyph unicode="&#x1e2b;" horiz-adv-x="1211" d="M50 0l323 1605h243l-98 -473l-43 -162h9q87 73 176.5 123t191.5 50q141 0 203 -72.5t62 -209.5q0 -38 -4 -74.5t-15 -81.5l-141 -705h-243l136 673q7 39 12.5 66t5.5 52q0 144 -141 144q-59 0 -126 -41.5t-156 -132.5l-150 -761h-245zM201 -283q-8 53 3 110h134 q-6 -70 20 -115.5t94 -45.5q70 0 116 46.5t68 114.5h141q-16 -57 -44 -110t-71.5 -95t-101 -67t-131.5 -25q-69 0 -117.5 25t-75.5 67t-35 95z" />
<glyph unicode="&#x1e34;" horiz-adv-x="1322" d="M73 0l296 1486h245l-134 -672h8l651 672h271l-549 -590l334 -896h-254l-262 741l-267 -273l-93 -468h-246zM286 -389l32 162h566l-30 -162h-568z" />
<glyph unicode="&#x1e35;" horiz-adv-x="1138" d="M50 0l323 1605h243l-202 -1009h9l493 521h273l-450 -479l266 -638h-246l-191 495l-218 -220l-55 -275h-245zM163 -389l32 162h566l-30 -162h-568z" />
<glyph unicode="&#x1e36;" horiz-adv-x="1093" d="M73 0l296 1486h245l-254 -1280h592l-41 -206h-838zM308 -359q0 65 48 111.5t117 46.5q52 0 95 -32.5t43 -93.5q0 -68 -48 -114t-116 -46q-52 0 -95.5 33.5t-43.5 94.5z" />
<glyph unicode="&#x1e37;" horiz-adv-x="594" d="M-39 -359q0 65 48 111.5t117 46.5q52 0 95 -32.5t43 -93.5q0 -68 -48 -114t-116 -46q-52 0 -95.5 33.5t-43.5 94.5zM91 154q0 52 16 119l266 1332h243l-269 -1343q-4 -18 -4 -27.5v-15.5q0 -48 39 -48q11 0 18 1t23 6l-5 -182q-25 -12 -59 -18t-79 -6q-98 0 -143.5 48 t-45.5 134z" />
<glyph unicode="&#x1e38;" horiz-adv-x="1093" d="M73 0l296 1486h245l-254 -1280h592l-41 -206h-838zM236 1646l32 163h573l-32 -163h-573zM308 -359q0 65 48 111.5t117 46.5q52 0 95 -32.5t43 -93.5q0 -68 -48 -114t-116 -46q-52 0 -95.5 33.5t-43.5 94.5z" />
<glyph unicode="&#x1e39;" horiz-adv-x="594" d="M-39 -359q0 65 48 111.5t117 46.5q52 0 95 -32.5t43 -93.5q0 -68 -48 -114t-116 -46q-52 0 -95.5 33.5t-43.5 94.5zM91 154q0 52 16 119l266 1332h243l-269 -1343q-4 -18 -4 -27.5v-15.5q0 -48 39 -48q11 0 18 1t23 6l-5 -182q-25 -12 -59 -18t-79 -6q-98 0 -143.5 48 t-45.5 134zM246 1849l31 160h566l-28 -160h-569z" />
<glyph unicode="&#x1e3a;" horiz-adv-x="1093" d="M73 0l296 1486h245l-254 -1280h592l-41 -206h-838zM165 -389l32 162h566l-30 -162h-568z" />
<glyph unicode="&#x1e3b;" horiz-adv-x="594" d="M-182 -389l32 162h566l-30 -162h-568zM91 154q0 52 16 119l266 1332h243l-269 -1343q-4 -18 -4 -27.5v-15.5q0 -48 39 -48q11 0 18 1t23 6l-5 -182q-25 -12 -59 -18t-79 -6q-98 0 -143.5 48t-45.5 134z" />
<glyph unicode="&#x1e42;" horiz-adv-x="1642" d="M73 0l296 1486h273l117 -742l44 -287h8l148 287l410 742h270l-298 -1486h-232l149 714q11 52 25.5 112.5t30.5 121.5t32 120.5t32 111.5h-7l-182 -336l-393 -699h-114l-123 699l-47 336h-9q-11 -104 -26 -233t-36 -233l-144 -714h-224zM509 -377q0 65 48 111.5t117 46.5 q52 0 95 -32.5t43 -93.5q0 -68 -48 -114t-116 -46q-52 0 -95.5 33.5t-43.5 94.5z" />
<glyph unicode="&#x1e43;" horiz-adv-x="1848" d="M50 0l223 1117h198l-11 -158h8q87 76 180 130t184 54q64 0 109.5 -16t76 -43t47.5 -64.5t26 -82.5q100 95 197.5 150.5t188.5 55.5q139 0 202 -72.5t63 -209.5q0 -38 -4.5 -74.5t-14.5 -81.5l-141 -705h-246l137 673q9 39 13.5 66t4.5 52q0 144 -136 144 q-43 0 -111.5 -41.5t-154.5 -132.5l-152 -761h-243l133 673q9 39 14 66t5 52q0 144 -134 144q-46 0 -114.5 -41.5t-152.5 -132.5l-150 -761h-245zM618 -359q0 65 48 111.5t117 46.5q52 0 95 -32.5t43 -93.5q0 -68 -48 -114t-116 -46q-52 0 -95.5 33.5t-43.5 94.5z" />
<glyph unicode="&#x1e44;" horiz-adv-x="1434" d="M73 0l296 1486h240l291 -861l87 -321h9q13 116 27 250.5t38 256.5l134 675h237l-298 -1486h-238l-289 859l-86 325h-9q-14 -121 -30 -250t-41 -252l-135 -682h-233zM792 1739q0 66 49 112.5t116 46.5q54 0 97.5 -34t43.5 -96q0 -67 -48.5 -111.5t-116.5 -44.5 q-54 0 -97.5 31.5t-43.5 95.5z" />
<glyph unicode="&#x1e45;" horiz-adv-x="1224" d="M50 0l223 1117h198l-11 -158h8q89 76 183.5 130t200.5 54q141 0 203 -72.5t62 -209.5q0 -38 -4 -74.5t-15 -81.5l-141 -705h-243l136 673q7 39 12.5 66t5.5 52q0 144 -141 144q-59 0 -126 -41.5t-156 -132.5l-150 -761h-245zM670 1441q0 65 49 112.5t114 47.5 q55 0 98 -33.5t43 -94.5q0 -68 -47.5 -113.5t-115.5 -45.5q-54 0 -97.5 33t-43.5 94z" />
<glyph unicode="&#x1e46;" horiz-adv-x="1434" d="M73 0l296 1486h240l291 -861l87 -321h9q13 116 27 250.5t38 256.5l134 675h237l-298 -1486h-238l-289 859l-86 325h-9q-14 -121 -30 -250t-41 -252l-135 -682h-233zM436 -377q0 65 48 111.5t117 46.5q52 0 95 -32.5t43 -93.5q0 -68 -48 -114t-116 -46q-52 0 -95.5 33.5 t-43.5 94.5z" />
<glyph unicode="&#x1e47;" horiz-adv-x="1224" d="M50 0l223 1117h198l-11 -158h8q89 76 183.5 130t200.5 54q141 0 203 -72.5t62 -209.5q0 -38 -4 -74.5t-15 -81.5l-141 -705h-243l136 673q7 39 12.5 66t5.5 52q0 144 -141 144q-59 0 -126 -41.5t-156 -132.5l-150 -761h-245zM311 -359q0 65 48 111.5t117 46.5 q52 0 95 -32.5t43 -93.5q0 -68 -48 -114t-116 -46q-52 0 -95.5 33.5t-43.5 94.5z" />
<glyph unicode="&#x1e48;" horiz-adv-x="1434" d="M73 0l296 1486h240l291 -861l87 -321h9q13 116 27 250.5t38 256.5l134 675h237l-298 -1486h-238l-289 859l-86 325h-9q-14 -121 -30 -250t-41 -252l-135 -682h-233zM293 -407l32 162h566l-30 -162h-568z" />
<glyph unicode="&#x1e49;" horiz-adv-x="1224" d="M50 0l223 1117h198l-11 -158h8q89 76 183.5 130t200.5 54q141 0 203 -72.5t62 -209.5q0 -38 -4 -74.5t-15 -81.5l-141 -705h-243l136 673q7 39 12.5 66t5.5 52q0 144 -141 144q-59 0 -126 -41.5t-156 -132.5l-150 -761h-245zM168 -389l32 162h566l-30 -162h-568z" />
<glyph unicode="&#x1e52;" horiz-adv-x="1470" d="M132 598q0 185 58 350.5t157.5 291.5t235 200t289.5 74q126 0 226 -43.5t169 -125t106 -197.5t37 -259q0 -184 -57.5 -350t-157 -292t-235 -200.5t-292.5 -74.5q-125 0 -225 43.5t-169.5 125.5t-105.5 198t-36 259zM384 616q0 -200 74 -316t224 -116q97 0 185 59 t152.5 154.5t102 219.5t37.5 253q0 200 -75 316.5t-225 116.5q-100 0 -186.5 -59.5t-149.5 -155t-101 -219t-38 -253.5zM655 1646l31 163h573l-32 -163h-572zM863 1919l237 259h264l-303 -259h-198z" />
<glyph unicode="&#x1e53;" horiz-adv-x="1191" d="M78 427q0 159 53 292t139.5 226.5t196.5 145.5t225 52q190 0 303.5 -121.5t113.5 -332.5q0 -158 -53.5 -290.5t-139.5 -226.5t-197 -147t-226 -53q-93 0 -170.5 32.5t-131.5 91t-83.5 143t-29.5 188.5zM323 436q0 -127 50 -196t148 -69q65 0 126.5 39.5t109.5 108.5 t76 162.5t28 200.5q0 127 -50 195.5t-145 68.5q-65 0 -128 -40t-110.5 -108.5t-76 -161.5t-28.5 -200zM483 1358l28 160h569l-31 -160h-566zM691 1651l226 238h224l-277 -238h-173z" />
<glyph unicode="&#x1e5a;" horiz-adv-x="1308" d="M73 0l296 1486h438q107 0 195.5 -18.5t153.5 -63t101 -114t36 -167.5q0 -104 -30.5 -187.5t-85 -147t-128 -107t-162.5 -65.5l245 -616h-262l-215 586h-221l-115 -586h-246zM399 -377q0 65 48 111.5t117 46.5q52 0 95 -32.5t43 -93.5q0 -68 -48 -114t-116 -46 q-52 0 -95.5 33.5t-43.5 94.5zM475 783h189q191 0 288.5 82.5t97.5 223.5q0 109 -74 155.5t-217 46.5h-186z" />
<glyph unicode="&#x1e5b;" horiz-adv-x="824" d="M-35 -359q0 65 48 111.5t117 46.5q52 0 95 -32.5t43 -93.5q0 -68 -48 -114t-116 -46q-52 0 -95.5 33.5t-43.5 94.5zM50 0l223 1117h198l-20 -217h9q65 105 154 174t191 69q65 0 111 -20l-81 -214q-20 11 -48 15t-58 4q-80 0 -157 -61.5t-145 -191.5l-132 -675h-245z" />
<glyph unicode="&#x1e5c;" horiz-adv-x="1308" d="M73 0l296 1486h438q107 0 195.5 -18.5t153.5 -63t101 -114t36 -167.5q0 -104 -30.5 -187.5t-85 -147t-128 -107t-162.5 -65.5l245 -616h-262l-215 586h-221l-115 -586h-246zM399 -377q0 65 48 111.5t117 46.5q52 0 95 -32.5t43 -93.5q0 -68 -48 -114t-116 -46 q-52 0 -95.5 33.5t-43.5 94.5zM475 783h189q191 0 288.5 82.5t97.5 223.5q0 109 -74 155.5t-217 46.5h-186zM566 1646l32 163h573l-32 -163h-573z" />
<glyph unicode="&#x1e5d;" horiz-adv-x="824" d="M-35 -359q0 65 48 111.5t117 46.5q52 0 95 -32.5t43 -93.5q0 -68 -48 -114t-116 -46q-52 0 -95.5 33.5t-43.5 94.5zM50 0l223 1117h198l-20 -217h9q65 105 154 174t191 69q65 0 111 -20l-81 -214q-20 11 -48 15t-58 4q-80 0 -157 -61.5t-145 -191.5l-132 -675h-245z M342 1358l31 160h566l-28 -160h-569z" />
<glyph unicode="&#x1e5e;" horiz-adv-x="1308" d="M73 0l296 1486h438q107 0 195.5 -18.5t153.5 -63t101 -114t36 -167.5q0 -104 -30.5 -187.5t-85 -147t-128 -107t-162.5 -65.5l245 -616h-262l-215 586h-221l-115 -586h-246zM256 -407l32 162h566l-30 -162h-568zM475 783h189q191 0 288.5 82.5t97.5 223.5 q0 109 -74 155.5t-217 46.5h-186z" />
<glyph unicode="&#x1e5f;" horiz-adv-x="824" d="M-178 -389l32 162h566l-30 -162h-568zM50 0l223 1117h198l-20 -217h9q65 105 154 174t191 69q65 0 111 -20l-81 -214q-20 11 -48 15t-58 4q-80 0 -157 -61.5t-145 -191.5l-132 -675h-245z" />
<glyph unicode="&#x1e60;" horiz-adv-x="1176" d="M18 243l177 137q66 -91 157 -144.5t201 -53.5q115 0 190 60t75 165q0 70 -49 117t-131 96l-156 96q-98 59 -162 144.5t-64 217.5q0 89 38 168t105 139.5t157 94.5t194 34q135 0 246 -60.5t191 -158.5l-157 -143q-57 63 -128.5 107t-164.5 44q-109 0 -168.5 -61.5 t-59.5 -139.5q0 -73 51.5 -117t137.5 -96l159 -95q109 -64 162.5 -143.5t53.5 -209.5q0 -100 -38.5 -185t-110.5 -149t-171.5 -99.5t-220.5 -35.5q-150 0 -280.5 64t-233.5 207zM677 1748q0 66 49 112.5t116 46.5q54 0 97.5 -34t43.5 -96q0 -67 -48.5 -111.5t-116.5 -44.5 q-54 0 -97.5 31.5t-43.5 95.5z" />
<glyph unicode="&#x1e61;" horiz-adv-x="937" d="M-13 186l145 118q54 -73 121.5 -111.5t141.5 -38.5q80 0 138 42.5t58 103.5q0 52 -48 89.5t-152 96.5q-111 61 -175 134.5t-64 175.5q0 75 32 139.5t87.5 110t129.5 71.5t158 26q109 0 197 -45.5t153 -112.5l-136 -130q-44 43 -96 73.5t-118 30.5q-77 0 -127 -40.5 t-50 -100.5q0 -32 16 -54.5t43 -43t61 -38.5t71 -38q125 -66 186 -139t61 -175q0 -82 -32.5 -148.5t-92 -113t-141 -71.5t-177.5 -25q-52 0 -107.5 16t-108 43.5t-98 67.5t-76.5 87zM494 1441q0 65 49 112.5t114 47.5q55 0 98 -33.5t43 -94.5q0 -68 -47.5 -113.5 t-115.5 -45.5q-54 0 -97.5 33t-43.5 94z" />
<glyph unicode="&#x1e62;" horiz-adv-x="1176" d="M18 243l177 137q66 -91 157 -144.5t201 -53.5q115 0 190 60t75 165q0 70 -49 117t-131 96l-156 96q-98 59 -162 144.5t-64 217.5q0 89 38 168t105 139.5t157 94.5t194 34q135 0 246 -60.5t191 -158.5l-157 -143q-57 63 -128.5 107t-164.5 44q-109 0 -168.5 -61.5 t-59.5 -139.5q0 -73 51.5 -117t137.5 -96l159 -95q109 -64 162.5 -143.5t53.5 -209.5q0 -100 -38.5 -185t-110.5 -149t-171.5 -99.5t-220.5 -35.5q-150 0 -280.5 64t-233.5 207zM313 -377q0 65 48 111.5t117 46.5q52 0 95 -32.5t43 -93.5q0 -68 -48 -114t-116 -46 q-52 0 -95.5 33.5t-43.5 94.5z" />
<glyph unicode="&#x1e63;" horiz-adv-x="937" d="M-13 186l145 118q54 -73 121.5 -111.5t141.5 -38.5q80 0 138 42.5t58 103.5q0 52 -48 89.5t-152 96.5q-111 61 -175 134.5t-64 175.5q0 75 32 139.5t87.5 110t129.5 71.5t158 26q109 0 197 -45.5t153 -112.5l-136 -130q-44 43 -96 73.5t-118 30.5q-77 0 -127 -40.5 t-50 -100.5q0 -32 16 -54.5t43 -43t61 -38.5t71 -38q125 -66 186 -139t61 -175q0 -82 -32.5 -148.5t-92 -113t-141 -71.5t-177.5 -25q-52 0 -107.5 16t-108 43.5t-98 67.5t-76.5 87zM184 -359q0 65 48 111.5t117 46.5q52 0 95 -32.5t43 -93.5q0 -68 -48 -114t-116 -46 q-52 0 -95.5 33.5t-43.5 94.5z" />
<glyph unicode="&#x1e6c;" horiz-adv-x="1184" d="M200 1278l41 208h1069l-41 -208h-412l-254 -1278h-246l255 1278h-412zM265 -359q0 65 48 111.5t117 46.5q52 0 95 -32.5t43 -93.5q0 -68 -48 -114t-116 -46q-52 0 -95.5 33.5t-43.5 94.5z" />
<glyph unicode="&#x1e6d;" horiz-adv-x="785" d="M121 922l36 182l170 13l89 299h204l-58 -299h268l-39 -195h-273l-113 -553q-7 -42 -8 -80q0 -61 30 -92t100 -31q30 0 55 9t50 20l45 -173q-41 -18 -100 -34t-136 -16q-157 0 -224 79t-67 194q0 35 4.5 66.5t8.5 65.5l115 545h-157zM167 -359q0 65 48 111.5t117 46.5 q52 0 95 -32.5t43 -93.5q0 -68 -48 -114t-116 -46q-52 0 -95.5 33.5t-43.5 94.5z" />
<glyph unicode="&#x1e6e;" horiz-adv-x="1184" d="M122 -389l32 162h566l-30 -162h-568zM200 1278l41 208h1069l-41 -208h-412l-254 -1278h-246l255 1278h-412z" />
<glyph unicode="&#x1e6f;" horiz-adv-x="785" d="M24 -389l32 162h566l-30 -162h-568zM121 922l36 182l170 13l89 299h204l-58 -299h268l-39 -195h-273l-113 -553q-7 -42 -8 -80q0 -61 30 -92t100 -31q30 0 55 9t50 20l45 -173q-41 -18 -100 -34t-136 -16q-157 0 -224 79t-67 194q0 35 4.5 66.5t8.5 65.5l115 545h-157z " />
<glyph unicode="&#x1e80;" horiz-adv-x="1761" d="M195 0l37 1486h250l-35 -763q-9 -121 -15.5 -240t-17.5 -242h9q50 123 102 243.5t100 238.5l338 763h212l14 -763q0 -241 -7 -482h9q43 123 88.5 243.5t89.5 238.5l286 763h236l-596 -1486h-308l-5 809q0 78 4.5 170t9.5 178h-9q-32 -87 -67 -174t-72 -174l-347 -809 h-306zM798 1859h251l143 -258h-188z" />
<glyph unicode="&#x1e81;" horiz-adv-x="1653" d="M161 1117h241l19 -599q2 -80 -0.5 -159t-2.5 -161h9q33 82 63.5 161t66.5 159l259 599h223l30 -599q2 -80 2 -159t2 -161h9q32 82 60.5 161t61.5 159l249 599h226l-490 -1117h-291l-20 536q0 80 -1.5 161.5t-1.5 168.5h-9q-32 -87 -62.5 -168.5t-62.5 -161.5l-229 -536 h-284zM753 1629h232l129 -329h-171z" />
<glyph unicode="&#x1e82;" horiz-adv-x="1761" d="M195 0l37 1486h250l-35 -763q-9 -121 -15.5 -240t-17.5 -242h9q50 123 102 243.5t100 238.5l338 763h212l14 -763q0 -241 -7 -482h9q43 123 88.5 243.5t89.5 238.5l286 763h236l-596 -1486h-308l-5 809q0 78 4.5 170t9.5 178h-9q-32 -87 -67 -174t-72 -174l-347 -809 h-306zM922 1601l236 258h271l-303 -258h-204z" />
<glyph unicode="&#x1e83;" horiz-adv-x="1653" d="M161 1117h241l19 -599q2 -80 -0.5 -159t-2.5 -161h9q33 82 63.5 161t66.5 159l259 599h223l30 -599q2 -80 2 -159t2 -161h9q32 82 60.5 161t61.5 159l249 599h226l-490 -1117h-291l-20 536q0 80 -1.5 161.5t-1.5 168.5h-9q-32 -87 -62.5 -168.5t-62.5 -161.5l-229 -536 h-284zM794 1300l263 329h251l-323 -329h-191z" />
<glyph unicode="&#x1e84;" horiz-adv-x="1761" d="M195 0l37 1486h250l-35 -763q-9 -121 -15.5 -240t-17.5 -242h9q50 123 102 243.5t100 238.5l338 763h212l14 -763q0 -241 -7 -482h9q43 123 88.5 243.5t89.5 238.5l286 763h236l-596 -1486h-308l-5 809q0 78 4.5 170t9.5 178h-9q-32 -87 -67 -174t-72 -174l-347 -809 h-306zM763 1720q0 57 40.5 102.5t99.5 45.5q45 0 78.5 -29.5t33.5 -81.5q0 -54 -41 -100.5t-100 -46.5q-48 0 -79.5 29t-31.5 81zM1167 1720q0 57 41 102.5t100 45.5q45 0 78 -29.5t33 -81.5q0 -54 -41 -100.5t-100 -46.5q-48 0 -79.5 29t-31.5 81z" />
<glyph unicode="&#x1e85;" horiz-adv-x="1653" d="M161 1117h241l19 -599q2 -80 -0.5 -159t-2.5 -161h9q33 82 63.5 161t66.5 159l259 599h223l30 -599q2 -80 2 -159t2 -161h9q32 82 60.5 161t61.5 159l249 599h226l-490 -1117h-291l-20 536q0 80 -1.5 161.5t-1.5 168.5h-9q-32 -87 -62.5 -168.5t-62.5 -161.5l-229 -536 h-284zM661 1432q0 59 42.5 103.5t101.5 44.5q47 0 80 -31t33 -85q0 -61 -42 -103t-101 -42q-50 0 -82 29.5t-32 83.5zM1067 1432q0 59 41.5 103.5t101.5 44.5q50 0 81.5 -31t31.5 -85q0 -61 -42 -103t-101 -42q-50 0 -81.5 29.5t-31.5 83.5z" />
<glyph unicode="&#x1e8e;" horiz-adv-x="1104" d="M186 1486h252l85 -390q18 -87 31.5 -164t31.5 -164h10q50 87 95.5 166t97.5 164l243 388h263l-625 -927l-111 -559h-245l111 559zM605 1739q0 66 49 112.5t116 46.5q54 0 97.5 -34t43.5 -96q0 -67 -48.5 -111.5t-116.5 -44.5q-54 0 -97.5 31.5t-43.5 95.5z" />
<glyph unicode="&#x1e8f;" horiz-adv-x="1076" d="M-109 -418l77 177q39 -22 82 -23q73 0 138.5 56t111.5 151l34 68l-193 1106h243l71 -564q9 -76 15.5 -166t11.5 -168h9q38 80 78 167t79 167l278 564h236l-628 -1176q-52 -91 -105.5 -164.5t-113 -126t-128.5 -81.5t-153 -29q-27 0 -69.5 12t-73.5 30zM527 1441 q0 65 49 112.5t114 47.5q55 0 98 -33.5t43 -94.5q0 -68 -47.5 -113.5t-115.5 -45.5q-54 0 -97.5 33t-43.5 94z" />
<glyph unicode="&#x1e92;" horiz-adv-x="1178" d="M-7 0l33 148l885 1132h-631l41 206h924l-28 -147l-881 -1133h696l-43 -206h-996zM268 -377q0 65 48 111.5t117 46.5q52 0 95 -32.5t43 -93.5q0 -68 -48 -114t-116 -46q-52 0 -95.5 33.5t-43.5 94.5z" />
<glyph unicode="&#x1e93;" horiz-adv-x="970" d="M-22 0l26 139l664 783h-454l38 195h761l-26 -141l-666 -783h525l-39 -193h-829zM191 -359q0 65 48 111.5t117 46.5q52 0 95 -32.5t43 -93.5q0 -68 -48 -114t-116 -46q-52 0 -95.5 33.5t-43.5 94.5z" />
<glyph unicode="&#x1e97;" horiz-adv-x="785" d="M121 922l36 182l170 13l89 299h204l-58 -299h268l-39 -195h-273l-113 -553q-7 -42 -8 -80q0 -61 30 -92t100 -31q30 0 55 9t50 20l45 -173q-41 -18 -100 -34t-136 -16q-157 0 -224 79t-67 194q0 35 4.5 66.5t8.5 65.5l115 545h-157zM232 1746q0 59 42.5 103.5t101.5 44.5 q47 0 80 -31t33 -85q0 -61 -42 -103t-101 -42q-50 0 -82 29.5t-32 83.5zM638 1746q0 59 41.5 103.5t101.5 44.5q50 0 81.5 -31t31.5 -85q0 -61 -42 -103t-101 -42q-50 0 -81.5 29.5t-31.5 83.5z" />
<glyph unicode="&#x1e9e;" horiz-adv-x="1481" d="M73 0l196 985q22 115 70.5 214t125 171.5t182.5 114.5t242 42q98 0 183 -23.5t151 -74.5t110.5 -130.5t57.5 -191.5l-339 -298q155 -59 243.5 -157.5t88.5 -228.5q0 -96 -34 -178t-94.5 -142t-145 -95.5t-188.5 -35.5q-123 0 -227 46.5t-179 140.5l143 151 q44 -59 102.5 -99t145.5 -40q45 0 86.5 17.5t72 50t48.5 75.5t18 93q0 78 -76 153.5t-258 125.5l13 149l339 304q-32 95 -103 143t-175 48q-136 0 -235 -102t-136 -300l-182 -928h-246z" />
<glyph unicode="&#x1ea0;" horiz-adv-x="1202" d="M-132 0l796 1486h291l159 -1486h-255l-29 418h-485l-206 -418h-271zM304 -359q0 65 48 111.5t117 46.5q52 0 95 -32.5t43 -93.5q0 -68 -48 -114t-116 -46q-52 0 -95.5 33.5t-43.5 94.5zM436 605h380l-16 225q-6 116 -14.5 227.5t-12.5 233.5h-9q-55 -123 -106 -234 t-110 -227z" />
<glyph unicode="&#x1ea1;" horiz-adv-x="1236" d="M80 380q0 158 50 298t133.5 244t192 162.5t223.5 58.5q82 0 150.5 -42t107.5 -114h4l48 130h195l-223 -1117h-200l12 154h-7q-80 -82 -176.5 -132t-192.5 -50q-147 0 -232 105t-85 303zM327 -359q0 65 48 111.5t117 46.5q52 0 95 -32.5t43 -93.5q0 -68 -48 -114t-116 -46 q-52 0 -95.5 33.5t-43.5 94.5zM332 414q0 -123 44.5 -182t121.5 -59q74 0 149.5 43t143.5 146l91 445q-38 73 -87 105t-101 32q-70 0 -136.5 -42.5t-116.5 -115t-79.5 -169t-29.5 -203.5z" />
<glyph unicode="&#x1ea2;" horiz-adv-x="1202" d="M-132 0l796 1486h291l159 -1486h-255l-29 418h-485l-206 -418h-271zM436 605h380l-16 225q-6 116 -14.5 227.5t-12.5 233.5h-9q-55 -123 -106 -234t-110 -227zM680 1861l50 130q161 -6 228.5 -53t67.5 -112q0 -57 -24 -99t-67 -72t-100.5 -49t-120.5 -29l-11 102 q63 16 100 38t37 66q0 34 -33.5 54t-126.5 24z" />
<glyph unicode="&#x1ea3;" horiz-adv-x="1236" d="M80 380q0 158 50 298t133.5 244t192 162.5t223.5 58.5q82 0 150.5 -42t107.5 -114h4l48 130h195l-223 -1117h-200l12 154h-7q-80 -82 -176.5 -132t-192.5 -50q-147 0 -232 105t-85 303zM332 414q0 -123 44.5 -182t121.5 -59q74 0 149.5 43t143.5 146l91 445 q-38 73 -87 105t-101 32q-70 0 -136.5 -42.5t-116.5 -115t-79.5 -169t-29.5 -203.5zM664 1546l48 127q166 -5 233 -50.5t67 -115.5q0 -56 -24 -98.5t-66.5 -71.5t-99 -48.5t-120.5 -28.5l-13 104q63 18 100.5 38.5t37.5 63.5q0 35 -35 53.5t-128 26.5z" />
<glyph unicode="&#x1ea4;" horiz-adv-x="1202" d="M-132 0l796 1486h291l159 -1486h-255l-29 418h-485l-206 -418h-271zM436 605h380l-16 225q-6 116 -14.5 227.5t-12.5 233.5h-9q-55 -123 -106 -234t-110 -227zM497 1601l252 245h210l156 -245h-177l-100 134h-9l-152 -134h-180zM1070 1746l188 261h191l-236 -261h-143z " />
<glyph unicode="&#x1ea5;" horiz-adv-x="1236" d="M80 380q0 158 50 298t133.5 244t192 162.5t223.5 58.5q82 0 150.5 -42t107.5 -114h4l48 130h195l-223 -1117h-200l12 154h-7q-80 -82 -176.5 -132t-192.5 -50q-147 0 -232 105t-85 303zM332 414q0 -123 44.5 -182t121.5 -59q74 0 149.5 43t143.5 146l91 445 q-38 73 -87 105t-101 32q-70 0 -136.5 -42.5t-116.5 -115t-79.5 -169t-29.5 -203.5zM469 1300l238 280h187l123 -280h-145l-87 157h-9l-143 -157h-164zM996 1457l203 263h191l-250 -263h-144z" />
<glyph unicode="&#x1ea6;" horiz-adv-x="1202" d="M-132 0l796 1486h291l159 -1486h-255l-29 418h-485l-206 -418h-271zM436 605h380l-16 225q-6 116 -14.5 227.5t-12.5 233.5h-9q-55 -123 -106 -234t-110 -227zM497 1601l252 245h210l156 -245h-177l-100 134h-9l-152 -134h-180zM1011 2007h191l93 -261h-143z" />
<glyph unicode="&#x1ea7;" horiz-adv-x="1236" d="M80 380q0 158 50 298t133.5 244t192 162.5t223.5 58.5q82 0 150.5 -42t107.5 -114h4l48 130h195l-223 -1117h-200l12 154h-7q-80 -82 -176.5 -132t-192.5 -50q-147 0 -232 105t-85 303zM332 414q0 -123 44.5 -182t121.5 -59q74 0 149.5 43t143.5 146l91 445 q-38 73 -87 105t-101 32q-70 0 -136.5 -42.5t-116.5 -115t-79.5 -169t-29.5 -203.5zM469 1300l238 280h187l123 -280h-145l-87 157h-9l-143 -157h-164zM971 1720h187l102 -263h-143z" />
<glyph unicode="&#x1ea8;" horiz-adv-x="1202" d="M-132 0l796 1486h291l159 -1486h-255l-29 418h-485l-206 -418h-271zM436 605h380l-16 225q-6 116 -14.5 227.5t-12.5 233.5h-9q-55 -123 -106 -234t-110 -227zM497 1601l252 245h210l156 -245h-177l-100 134h-9l-152 -134h-180zM1068 1959l43 108q143 -5 199.5 -45 t56.5 -98q0 -102 -72.5 -150.5t-188.5 -66.5l-11 87q55 13 83 36t28 61q0 30 -29.5 47t-108.5 21z" />
<glyph unicode="&#x1ea9;" horiz-adv-x="1236" d="M80 380q0 158 50 298t133.5 244t192 162.5t223.5 58.5q82 0 150.5 -42t107.5 -114h4l48 130h195l-223 -1117h-200l12 154h-7q-80 -82 -176.5 -132t-192.5 -50q-147 0 -232 105t-85 303zM332 414q0 -123 44.5 -182t121.5 -59q74 0 149.5 43t143.5 146l91 445 q-38 73 -87 105t-101 32q-70 0 -136.5 -42.5t-116.5 -115t-79.5 -169t-29.5 -203.5zM469 1300l238 280h187l123 -280h-145l-87 157h-9l-143 -157h-164zM1012 1692l42 108q143 -6 203 -46t60 -101q0 -55 -20.5 -93.5t-57 -64.5t-86.5 -42.5t-106 -27.5l-8 89q57 18 82.5 39.5 t25.5 60.5q0 32 -29 50.5t-106 27.5z" />
<glyph unicode="&#x1eaa;" horiz-adv-x="1202" d="M-132 0l796 1486h291l159 -1486h-255l-29 418h-485l-206 -418h-271zM436 605h380l-16 225q-6 116 -14.5 227.5t-12.5 233.5h-9q-55 -123 -106 -234t-110 -227zM497 1601l252 245h210l156 -245h-177l-100 134h-9l-152 -134h-180zM558 1926q32 111 93.5 172.5t134.5 61.5 q36 0 65.5 -16t55.5 -36.5t49 -36.5t50 -16q59 0 103 103h113q-32 -111 -94.5 -172.5t-132.5 -61.5q-38 0 -66.5 15.5t-53.5 35t-48 35.5t-50 16q-66 0 -102 -100h-117z" />
<glyph unicode="&#x1eab;" horiz-adv-x="1236" d="M80 380q0 158 50 298t133.5 244t192 162.5t223.5 58.5q82 0 150.5 -42t107.5 -114h4l48 130h195l-223 -1117h-200l12 154h-7q-80 -82 -176.5 -132t-192.5 -50q-147 0 -232 105t-85 303zM332 414q0 -123 44.5 -182t121.5 -59q74 0 149.5 43t143.5 146l91 445 q-38 73 -87 105t-101 32q-70 0 -136.5 -42.5t-116.5 -115t-79.5 -169t-29.5 -203.5zM449 1300l234 238h221l135 -238h-154l-105 136h-8l-148 -136h-175zM507 1623q35 109 93.5 168t125.5 59q41 0 69.5 -15t52.5 -32.5t45.5 -32.5t47.5 -15t53 24t43 69h114 q-34 -109 -94.5 -168t-126.5 -59q-41 0 -69 15t-51 33t-44.5 32.5t-48.5 14.5q-25 0 -51 -24t-42 -69h-117z" />
<glyph unicode="&#x1eac;" horiz-adv-x="1202" d="M-132 0l796 1486h291l159 -1486h-255l-29 418h-485l-206 -418h-271zM304 -359q0 65 48 111.5t117 46.5q52 0 95 -32.5t43 -93.5q0 -68 -48 -114t-116 -46q-52 0 -95.5 33.5t-43.5 94.5zM436 605h380l-16 225q-6 116 -14.5 227.5t-12.5 233.5h-9q-55 -123 -106 -234 t-110 -227zM471 1601l259 258h236l158 -258h-182l-105 149h-6l-160 -149h-200z" />
<glyph unicode="&#x1ead;" horiz-adv-x="1236" d="M80 380q0 158 50 298t133.5 244t192 162.5t223.5 58.5q82 0 150.5 -42t107.5 -114h4l48 130h195l-223 -1117h-200l12 154h-7q-80 -82 -176.5 -132t-192.5 -50q-147 0 -232 105t-85 303zM327 -359q0 65 48 111.5t117 46.5q52 0 95 -32.5t43 -93.5q0 -68 -48 -114t-116 -46 q-52 0 -95.5 33.5t-43.5 94.5zM332 414q0 -123 44.5 -182t121.5 -59q74 0 149.5 43t143.5 146l91 445q-38 73 -87 105t-101 32q-70 0 -136.5 -42.5t-116.5 -115t-79.5 -169t-29.5 -203.5zM441 1300l278 329h188l146 -329h-162l-94 196h-9l-172 -196h-175z" />
<glyph unicode="&#x1eae;" horiz-adv-x="1202" d="M-132 0l796 1486h291l159 -1486h-255l-29 418h-485l-206 -418h-271zM436 605h380l-16 225q-6 116 -14.5 227.5t-12.5 233.5h-9q-55 -123 -106 -234t-110 -227zM570 1855h122q-4 -66 31.5 -101.5t98.5 -35.5q66 0 114.5 38t67.5 99h125q-33 -107 -112 -180.5t-218 -73.5 q-128 0 -184.5 73.5t-44.5 180.5zM747 1826l205 250h191l-266 -250h-130z" />
<glyph unicode="&#x1eaf;" horiz-adv-x="1236" d="M80 380q0 158 50 298t133.5 244t192 162.5t223.5 58.5q82 0 150.5 -42t107.5 -114h4l48 130h195l-223 -1117h-200l12 154h-7q-80 -82 -176.5 -132t-192.5 -50q-147 0 -232 105t-85 303zM332 414q0 -123 44.5 -182t121.5 -59q74 0 149.5 43t143.5 146l91 445 q-38 73 -87 105t-101 32q-70 0 -136.5 -42.5t-116.5 -115t-79.5 -169t-29.5 -203.5zM519 1494.5q-7 53.5 2 110.5h114q-9 -78 23.5 -124.5t112.5 -46.5q74 0 126.5 48t78.5 123h121q-16 -57 -45 -110.5t-73 -95t-102 -66.5t-131 -25q-70 0 -118 25t-75 66.5t-34 95z M700 1551l180 261h187l-235 -261h-132z" />
<glyph unicode="&#x1eb0;" horiz-adv-x="1202" d="M-132 0l796 1486h291l159 -1486h-255l-29 418h-485l-206 -418h-271zM436 605h380l-16 225q-6 116 -14.5 227.5t-12.5 233.5h-9q-55 -123 -106 -234t-110 -227zM570 1855h122q-4 -66 31.5 -101.5t98.5 -35.5q66 0 114.5 38t67.5 99h125q-33 -107 -112 -180.5t-218 -73.5 q-128 0 -184.5 73.5t-44.5 180.5zM679 2076h187l72 -250h-129z" />
<glyph unicode="&#x1eb1;" horiz-adv-x="1236" d="M80 380q0 158 50 298t133.5 244t192 162.5t223.5 58.5q82 0 150.5 -42t107.5 -114h4l48 130h195l-223 -1117h-200l12 154h-7q-80 -82 -176.5 -132t-192.5 -50q-147 0 -232 105t-85 303zM332 414q0 -123 44.5 -182t121.5 -59q74 0 149.5 43t143.5 146l91 445 q-38 73 -87 105t-101 32q-70 0 -136.5 -42.5t-116.5 -115t-79.5 -169t-29.5 -203.5zM519 1494.5q-7 53.5 2 110.5h114q-9 -78 23.5 -124.5t112.5 -46.5q74 0 126.5 48t78.5 123h121q-16 -57 -45 -110.5t-73 -95t-102 -66.5t-131 -25q-70 0 -118 25t-75 66.5t-34 95z M630 1812h180l77 -261h-128z" />
<glyph unicode="&#x1eb2;" horiz-adv-x="1202" d="M-132 0l796 1486h291l159 -1486h-255l-29 418h-485l-206 -418h-271zM436 605h380l-16 225q-6 116 -14.5 227.5t-12.5 233.5h-9q-55 -123 -106 -234t-110 -227zM570 1855h122q-4 -66 31.5 -101.5t98.5 -35.5q66 0 114.5 38t67.5 99h125q-33 -107 -112 -180.5t-218 -73.5 q-128 0 -184.5 73.5t-44.5 180.5zM738 2071l41 107q145 -5 202.5 -43.5t57.5 -97.5q0 -102 -73.5 -151t-191.5 -68l-8 87q54 13 81 36t27 61q0 30 -29 47.5t-107 21.5z" />
<glyph unicode="&#x1eb3;" horiz-adv-x="1236" d="M80 380q0 158 50 298t133.5 244t192 162.5t223.5 58.5q82 0 150.5 -42t107.5 -114h4l48 130h195l-223 -1117h-200l12 154h-7q-80 -82 -176.5 -132t-192.5 -50q-147 0 -232 105t-85 303zM332 414q0 -123 44.5 -182t121.5 -59q74 0 149.5 43t143.5 146l91 445 q-38 73 -87 105t-101 32q-70 0 -136.5 -42.5t-116.5 -115t-79.5 -169t-29.5 -203.5zM519 1494.5q-7 53.5 2 110.5h114q-9 -78 23.5 -124.5t112.5 -46.5q74 0 126.5 48t78.5 123h121q-16 -57 -45 -110.5t-73 -95t-102 -66.5t-131 -25q-70 0 -118 25t-75 66.5t-34 95z M707 1830l41 111q141 -4 198 -44t57 -99q0 -109 -71.5 -156.5t-187.5 -73.5l-7 94q52 15 76 35.5t24 59.5q0 32 -26 47.5t-104 25.5z" />
<glyph unicode="&#x1eb4;" horiz-adv-x="1202" d="M-132 0l796 1486h291l159 -1486h-255l-29 418h-485l-206 -418h-271zM436 605h380l-16 225q-6 116 -14.5 227.5t-12.5 233.5h-9q-55 -123 -106 -234t-110 -227zM558 1926q32 111 93.5 172.5t134.5 61.5q36 0 65.5 -16t55.5 -36.5t49 -36.5t50 -16q59 0 103 103h113 q-32 -111 -94.5 -172.5t-132.5 -61.5q-38 0 -66.5 15.5t-53.5 35t-48 35.5t-50 16q-66 0 -102 -100h-117zM570 1855h122q-4 -66 31.5 -101.5t98.5 -35.5q66 0 114.5 38t67.5 99h125q-33 -107 -112 -180.5t-218 -73.5q-128 0 -184.5 73.5t-44.5 180.5z" />
<glyph unicode="&#x1eb5;" horiz-adv-x="1236" d="M80 380q0 158 50 298t133.5 244t192 162.5t223.5 58.5q82 0 150.5 -42t107.5 -114h4l48 130h195l-223 -1117h-200l12 154h-7q-80 -82 -176.5 -132t-192.5 -50q-147 0 -232 105t-85 303zM332 414q0 -123 44.5 -182t121.5 -59q74 0 149.5 43t143.5 146l91 445 q-38 73 -87 105t-101 32q-70 0 -136.5 -42.5t-116.5 -115t-79.5 -169t-29.5 -203.5zM507 1623q35 109 93.5 168t125.5 59q41 0 69.5 -15t52.5 -32.5t45.5 -32.5t47.5 -15t53 24t43 69h114q-34 -109 -94.5 -168t-126.5 -59q-41 0 -69 15t-51 33t-44.5 32.5t-48.5 14.5 q-25 0 -51 -24t-42 -69h-117zM514 1562h112q2 -55 35 -93.5t108 -38.5q74 0 125.5 40t74.5 92h116q-14 -48 -42 -93.5t-70.5 -81.5t-100.5 -57.5t-128 -21.5q-73 0 -119.5 21.5t-73.5 57.5t-35.5 81.5t-1.5 93.5z" />
<glyph unicode="&#x1eb6;" horiz-adv-x="1202" d="M-132 0l796 1486h291l159 -1486h-255l-29 418h-485l-206 -418h-271zM304 -359q0 65 48 111.5t117 46.5q52 0 95 -32.5t43 -93.5q0 -68 -48 -114t-116 -46q-52 0 -95.5 33.5t-43.5 94.5zM436 605h380l-16 225q-6 116 -14.5 227.5t-12.5 233.5h-9q-55 -123 -106 -234 t-110 -227zM569 1859h134q-4 -54 25 -91.5t93 -37.5q65 0 106 38.5t62 90.5h139q-18 -54 -45.5 -100.5t-67 -81.5t-93.5 -55.5t-123 -20.5q-64 0 -109.5 20.5t-74.5 55.5t-40 82.5t-6 99.5z" />
<glyph unicode="&#x1eb7;" horiz-adv-x="1236" d="M80 380q0 158 50 298t133.5 244t192 162.5t223.5 58.5q82 0 150.5 -42t107.5 -114h4l48 130h195l-223 -1117h-200l12 154h-7q-80 -82 -176.5 -132t-192.5 -50q-147 0 -232 105t-85 303zM327 -359q0 65 48 111.5t117 46.5q52 0 95 -32.5t43 -93.5q0 -68 -48 -114t-116 -46 q-52 0 -95.5 33.5t-43.5 94.5zM332 414q0 -123 44.5 -182t121.5 -59q74 0 149.5 43t143.5 146l91 445q-38 73 -87 105t-101 32q-70 0 -136.5 -42.5t-116.5 -115t-79.5 -169t-29.5 -203.5zM519.5 1494.5q-8.5 53.5 3.5 110.5h134q-6 -70 19.5 -116t94.5 -46q70 0 115.5 46.5 t68.5 115.5h141q-16 -57 -44.5 -110.5t-72 -95t-101 -66.5t-131.5 -25q-70 0 -117.5 25t-74.5 66.5t-35.5 95z" />
<glyph unicode="&#x1eb8;" horiz-adv-x="1169" d="M73 0l296 1486h852l-41 -206h-609l-80 -400h516l-41 -207h-513l-96 -467h628l-41 -206h-871zM336 -359q0 65 48 111.5t117 46.5q52 0 95 -32.5t43 -93.5q0 -68 -48 -114t-116 -46q-52 0 -95.5 33.5t-43.5 94.5z" />
<glyph unicode="&#x1eb9;" horiz-adv-x="1108" d="M75 445q0 157 53.5 285.5t141 220.5t196.5 142t218 50q97 0 164.5 -31.5t109.5 -87.5t61.5 -131t19.5 -162q0 -73 -18.5 -140.5t-29.5 -95.5h-679q-9 -89 9 -152t55.5 -104t92 -60.5t117.5 -19.5q59 0 120.5 27.5t107.5 61.5l91 -157q-68 -48 -164.5 -83.5t-217.5 -35.5 q-100 0 -182 32.5t-141 92.5t-92 147.5t-33 200.5zM282 -359q0 65 48 111.5t117 46.5q52 0 95 -32.5t43 -93.5q0 -68 -48 -114t-116 -46q-52 0 -95.5 33.5t-43.5 94.5zM332 650h493q4 23 8 46.5t4 51.5q0 82 -40 144.5t-142 62.5t-192 -80.5t-131 -224.5z" />
<glyph unicode="&#x1eba;" horiz-adv-x="1169" d="M73 0l296 1486h852l-41 -206h-609l-80 -400h516l-41 -207h-513l-96 -467h628l-41 -206h-871zM695 1861l50 130q161 -6 228.5 -53t67.5 -112q0 -57 -24 -99t-67 -72t-100.5 -49t-120.5 -29l-11 102q63 16 100 38t37 66q0 34 -33.5 54t-126.5 24z" />
<glyph unicode="&#x1ebb;" horiz-adv-x="1108" d="M75 445q0 157 53.5 285.5t141 220.5t196.5 142t218 50q97 0 164.5 -31.5t109.5 -87.5t61.5 -131t19.5 -162q0 -73 -18.5 -140.5t-29.5 -95.5h-679q-9 -89 9 -152t55.5 -104t92 -60.5t117.5 -19.5q59 0 120.5 27.5t107.5 61.5l91 -157q-68 -48 -164.5 -83.5t-217.5 -35.5 q-100 0 -182 32.5t-141 92.5t-92 147.5t-33 200.5zM332 650h493q4 23 8 46.5t4 51.5q0 82 -40 144.5t-142 62.5t-192 -80.5t-131 -224.5zM650 1546l48 127q166 -5 233 -50.5t67 -115.5q0 -56 -24 -98.5t-66.5 -71.5t-99 -48.5t-120.5 -28.5l-13 104q63 18 100.5 38.5 t37.5 63.5q0 35 -35 53.5t-128 26.5z" />
<glyph unicode="&#x1ebc;" horiz-adv-x="1169" d="M73 0l296 1486h852l-41 -206h-609l-80 -400h516l-41 -207h-513l-96 -467h628l-41 -206h-871zM473 1607q32 123 101 196t148 73q46 0 77.5 -18.5t57.5 -40t52.5 -40t60.5 -18.5q61 0 102 112h132q-32 -123 -99.5 -195.5t-147.5 -72.5q-48 0 -79.5 18t-58.5 40t-52 39.5 t-58 17.5q-63 0 -105 -111h-131z" />
<glyph unicode="&#x1ebd;" horiz-adv-x="1108" d="M75 445q0 157 53.5 285.5t141 220.5t196.5 142t218 50q97 0 164.5 -31.5t109.5 -87.5t61.5 -131t19.5 -162q0 -73 -18.5 -140.5t-29.5 -95.5h-679q-9 -89 9 -152t55.5 -104t92 -60.5t117.5 -19.5q59 0 120.5 27.5t107.5 61.5l91 -157q-68 -48 -164.5 -83.5t-217.5 -35.5 q-100 0 -182 32.5t-141 92.5t-92 147.5t-33 200.5zM332 650h493q4 23 8 46.5t4 51.5q0 82 -40 144.5t-142 62.5t-192 -80.5t-131 -224.5zM394 1314q37 126 101.5 194.5t139.5 68.5q50 0 83 -16.5t59 -38t51 -39t61 -17.5q50 0 96 107h132q-35 -123 -99.5 -193t-141.5 -70 q-50 0 -83.5 17.5t-59.5 38t-51 39t-61 18.5q-50 0 -96 -109h-131z" />
<glyph unicode="&#x1ebe;" horiz-adv-x="1169" d="M73 0l296 1486h852l-41 -206h-609l-80 -400h516l-41 -207h-513l-96 -467h628l-41 -206h-871zM514 1601l252 245h210l156 -245h-177l-100 134h-9l-152 -134h-180zM1087 1746l188 261h191l-236 -261h-143z" />
<glyph unicode="&#x1ebf;" horiz-adv-x="1108" d="M75 445q0 157 53.5 285.5t141 220.5t196.5 142t218 50q97 0 164.5 -31.5t109.5 -87.5t61.5 -131t19.5 -162q0 -73 -18.5 -140.5t-29.5 -95.5h-679q-9 -89 9 -152t55.5 -104t92 -60.5t117.5 -19.5q59 0 120.5 27.5t107.5 61.5l91 -157q-68 -48 -164.5 -83.5t-217.5 -35.5 q-100 0 -182 32.5t-141 92.5t-92 147.5t-33 200.5zM332 650h493q4 23 8 46.5t4 51.5q0 82 -40 144.5t-142 62.5t-192 -80.5t-131 -224.5zM439 1300l238 280h187l123 -280h-145l-87 157h-9l-143 -157h-164zM966 1457l203 263h191l-250 -263h-144z" />
<glyph unicode="&#x1ec0;" horiz-adv-x="1169" d="M73 0l296 1486h852l-41 -206h-609l-80 -400h516l-41 -207h-513l-96 -467h628l-41 -206h-871zM514 1601l252 245h210l156 -245h-177l-100 134h-9l-152 -134h-180zM1028 2007h191l93 -261h-143z" />
<glyph unicode="&#x1ec1;" horiz-adv-x="1108" d="M75 445q0 157 53.5 285.5t141 220.5t196.5 142t218 50q97 0 164.5 -31.5t109.5 -87.5t61.5 -131t19.5 -162q0 -73 -18.5 -140.5t-29.5 -95.5h-679q-9 -89 9 -152t55.5 -104t92 -60.5t117.5 -19.5q59 0 120.5 27.5t107.5 61.5l91 -157q-68 -48 -164.5 -83.5t-217.5 -35.5 q-100 0 -182 32.5t-141 92.5t-92 147.5t-33 200.5zM332 650h493q4 23 8 46.5t4 51.5q0 82 -40 144.5t-142 62.5t-192 -80.5t-131 -224.5zM439 1300l238 280h187l123 -280h-145l-87 157h-9l-143 -157h-164zM941 1720h187l102 -263h-143z" />
<glyph unicode="&#x1ec2;" horiz-adv-x="1169" d="M73 0l296 1486h852l-41 -206h-609l-80 -400h516l-41 -207h-513l-96 -467h628l-41 -206h-871zM514 1601l252 245h210l156 -245h-177l-100 134h-9l-152 -134h-180zM1085 1959l43 108q143 -5 199.5 -45t56.5 -98q0 -102 -72.5 -150.5t-188.5 -66.5l-11 87q55 13 83 36t28 61 q0 30 -29.5 47t-108.5 21z" />
<glyph unicode="&#x1ec3;" horiz-adv-x="1108" d="M75 445q0 157 53.5 285.5t141 220.5t196.5 142t218 50q97 0 164.5 -31.5t109.5 -87.5t61.5 -131t19.5 -162q0 -73 -18.5 -140.5t-29.5 -95.5h-679q-9 -89 9 -152t55.5 -104t92 -60.5t117.5 -19.5q59 0 120.5 27.5t107.5 61.5l91 -157q-68 -48 -164.5 -83.5t-217.5 -35.5 q-100 0 -182 32.5t-141 92.5t-92 147.5t-33 200.5zM332 650h493q4 23 8 46.5t4 51.5q0 82 -40 144.5t-142 62.5t-192 -80.5t-131 -224.5zM439 1300l238 280h187l123 -280h-145l-87 157h-9l-143 -157h-164zM982 1692l42 108q143 -6 203 -46t60 -101q0 -55 -20.5 -93.5 t-57 -64.5t-86.5 -42.5t-106 -27.5l-8 89q57 18 82.5 39.5t25.5 60.5q0 32 -29 50.5t-106 27.5z" />
<glyph unicode="&#x1ec4;" horiz-adv-x="1169" d="M73 0l296 1486h852l-41 -206h-609l-80 -400h516l-41 -207h-513l-96 -467h628l-41 -206h-871zM514 1601l252 245h210l156 -245h-177l-100 134h-9l-152 -134h-180zM575 1926q32 111 93.5 172.5t134.5 61.5q36 0 65.5 -16t55.5 -36.5t49 -36.5t50 -16q59 0 103 103h113 q-32 -111 -94.5 -172.5t-132.5 -61.5q-38 0 -66.5 15.5t-53.5 35t-48 35.5t-50 16q-66 0 -102 -100h-117z" />
<glyph unicode="&#x1ec5;" horiz-adv-x="1108" d="M75 445q0 157 53.5 285.5t141 220.5t196.5 142t218 50q97 0 164.5 -31.5t109.5 -87.5t61.5 -131t19.5 -162q0 -73 -18.5 -140.5t-29.5 -95.5h-679q-9 -89 9 -152t55.5 -104t92 -60.5t117.5 -19.5q59 0 120.5 27.5t107.5 61.5l91 -157q-68 -48 -164.5 -83.5t-217.5 -35.5 q-100 0 -182 32.5t-141 92.5t-92 147.5t-33 200.5zM332 650h493q4 23 8 46.5t4 51.5q0 82 -40 144.5t-142 62.5t-192 -80.5t-131 -224.5zM419 1300l234 238h221l135 -238h-154l-105 136h-8l-148 -136h-175zM477 1623q35 109 93.5 168t125.5 59q41 0 69.5 -15t52.5 -32.5 t45.5 -32.5t47.5 -15t53 24t43 69h114q-34 -109 -94.5 -168t-126.5 -59q-41 0 -69 15t-51 33t-44.5 32.5t-48.5 14.5q-25 0 -51 -24t-42 -69h-117z" />
<glyph unicode="&#x1ec6;" horiz-adv-x="1169" d="M73 0l296 1486h852l-41 -206h-609l-80 -400h516l-41 -207h-513l-96 -467h628l-41 -206h-871zM336 -359q0 65 48 111.5t117 46.5q52 0 95 -32.5t43 -93.5q0 -68 -48 -114t-116 -46q-52 0 -95.5 33.5t-43.5 94.5zM486 1601l259 258h236l158 -258h-182l-105 149h-6 l-160 -149h-200z" />
<glyph unicode="&#x1ec7;" horiz-adv-x="1108" d="M75 445q0 157 53.5 285.5t141 220.5t196.5 142t218 50q97 0 164.5 -31.5t109.5 -87.5t61.5 -131t19.5 -162q0 -73 -18.5 -140.5t-29.5 -95.5h-679q-9 -89 9 -152t55.5 -104t92 -60.5t117.5 -19.5q59 0 120.5 27.5t107.5 61.5l91 -157q-68 -48 -164.5 -83.5t-217.5 -35.5 q-100 0 -182 32.5t-141 92.5t-92 147.5t-33 200.5zM282 -359q0 65 48 111.5t117 46.5q52 0 95 -32.5t43 -93.5q0 -68 -48 -114t-116 -46q-52 0 -95.5 33.5t-43.5 94.5zM332 650h493q4 23 8 46.5t4 51.5q0 82 -40 144.5t-142 62.5t-192 -80.5t-131 -224.5zM412 1300l278 329 h188l146 -329h-162l-94 196h-9l-172 -196h-175z" />
<glyph unicode="&#x1ec8;" horiz-adv-x="620" d="M73 0l296 1486h245l-295 -1486h-246zM370 1861l50 130q161 -6 228.5 -53t67.5 -112q0 -57 -24 -99t-67 -72t-100.5 -49t-120.5 -29l-11 102q63 16 100 38t37 66q0 34 -33.5 54t-126.5 24z" />
<glyph unicode="&#x1ec9;" horiz-adv-x="570" d="M50 0l225 1117h243l-223 -1117h-245zM357 1546l48 127q166 -5 233 -50.5t67 -115.5q0 -56 -24 -98.5t-66.5 -71.5t-99 -48.5t-120.5 -28.5l-13 104q63 18 100.5 38.5t37.5 63.5q0 35 -35 53.5t-128 26.5z" />
<glyph unicode="&#x1eca;" horiz-adv-x="620" d="M-11 -366q0 65 48 111.5t117 46.5q52 0 95 -32.5t43 -93.5q0 -68 -48 -114t-116 -46q-52 0 -95.5 33.5t-43.5 94.5zM73 0l296 1486h245l-295 -1486h-246z" />
<glyph unicode="&#x1ecb;" horiz-adv-x="570" d="M-32 -359q0 65 48 111.5t117 46.5q52 0 95 -32.5t43 -93.5q0 -68 -48 -114t-116 -46q-52 0 -95.5 33.5t-43.5 94.5zM50 0l225 1117h243l-223 -1117h-245zM316 1441q0 65 48 112.5t116 47.5q52 0 95 -33.5t43 -94.5q0 -68 -47.5 -113.5t-115.5 -45.5q-52 0 -95.5 33 t-43.5 94z" />
<glyph unicode="&#x1ecc;" horiz-adv-x="1470" d="M132 598q0 185 58 350.5t157.5 291.5t235 200t289.5 74q126 0 226 -43.5t169 -125t106 -197.5t37 -259q0 -184 -57.5 -350t-157 -292t-235 -200.5t-292.5 -74.5q-125 0 -225 43.5t-169.5 125.5t-105.5 198t-36 259zM384 616q0 -200 74 -316t224 -116q97 0 185 59 t152.5 154.5t102 219.5t37.5 253q0 200 -75 316.5t-225 116.5q-100 0 -186.5 -59.5t-149.5 -155t-101 -219t-38 -253.5zM434 -359q0 65 48 111.5t117 46.5q52 0 95 -32.5t43 -93.5q0 -68 -48 -114t-116 -46q-52 0 -95.5 33.5t-43.5 94.5z" />
<glyph unicode="&#x1ecd;" horiz-adv-x="1191" d="M78 427q0 159 53 292t139.5 226.5t196.5 145.5t225 52q190 0 303.5 -121.5t113.5 -332.5q0 -158 -53.5 -290.5t-139.5 -226.5t-197 -147t-226 -53q-93 0 -170.5 32.5t-131.5 91t-83.5 143t-29.5 188.5zM230 -359q0 65 48 111.5t117 46.5q52 0 95 -32.5t43 -93.5 q0 -68 -48 -114t-116 -46q-52 0 -95.5 33.5t-43.5 94.5zM323 436q0 -127 50 -196t148 -69q65 0 126.5 39.5t109.5 108.5t76 162.5t28 200.5q0 127 -50 195.5t-145 68.5q-65 0 -128 -40t-110.5 -108.5t-76 -161.5t-28.5 -200z" />
<glyph unicode="&#x1ece;" horiz-adv-x="1470" d="M132 598q0 185 58 350.5t157.5 291.5t235 200t289.5 74q126 0 226 -43.5t169 -125t106 -197.5t37 -259q0 -184 -57.5 -350t-157 -292t-235 -200.5t-292.5 -74.5q-125 0 -225 43.5t-169.5 125.5t-105.5 198t-36 259zM384 616q0 -200 74 -316t224 -116q97 0 185 59 t152.5 154.5t102 219.5t37.5 253q0 200 -75 316.5t-225 116.5q-100 0 -186.5 -59.5t-149.5 -155t-101 -219t-38 -253.5zM809 1861l50 130q161 -6 228.5 -53t67.5 -112q0 -57 -24 -99t-67 -72t-100.5 -49t-120.5 -29l-11 102q63 16 100 38t37 66q0 34 -33.5 54t-126.5 24z " />
<glyph unicode="&#x1ecf;" horiz-adv-x="1191" d="M78 427q0 159 53 292t139.5 226.5t196.5 145.5t225 52q190 0 303.5 -121.5t113.5 -332.5q0 -158 -53.5 -290.5t-139.5 -226.5t-197 -147t-226 -53q-93 0 -170.5 32.5t-131.5 91t-83.5 143t-29.5 188.5zM323 436q0 -127 50 -196t148 -69q65 0 126.5 39.5t109.5 108.5 t76 162.5t28 200.5q0 127 -50 195.5t-145 68.5q-65 0 -128 -40t-110.5 -108.5t-76 -161.5t-28.5 -200zM668 1546l48 127q166 -5 233 -50.5t67 -115.5q0 -56 -24 -98.5t-66.5 -71.5t-99 -48.5t-120.5 -28.5l-13 104q63 18 100.5 38.5t37.5 63.5q0 35 -35 53.5t-128 26.5z" />
<glyph unicode="&#x1ed0;" horiz-adv-x="1470" d="M132 598q0 185 58 350.5t157.5 291.5t235 200t289.5 74q126 0 226 -43.5t169 -125t106 -197.5t37 -259q0 -184 -57.5 -350t-157 -292t-235 -200.5t-292.5 -74.5q-125 0 -225 43.5t-169.5 125.5t-105.5 198t-36 259zM384 616q0 -200 74 -316t224 -116q97 0 185 59 t152.5 154.5t102 219.5t37.5 253q0 200 -75 316.5t-225 116.5q-100 0 -186.5 -59.5t-149.5 -155t-101 -219t-38 -253.5zM629 1601l252 245h210l156 -245h-177l-100 134h-9l-152 -134h-180zM1202 1746l188 261h191l-236 -261h-143z" />
<glyph unicode="&#x1ed1;" horiz-adv-x="1191" d="M78 427q0 159 53 292t139.5 226.5t196.5 145.5t225 52q190 0 303.5 -121.5t113.5 -332.5q0 -158 -53.5 -290.5t-139.5 -226.5t-197 -147t-226 -53q-93 0 -170.5 32.5t-131.5 91t-83.5 143t-29.5 188.5zM323 436q0 -127 50 -196t148 -69q65 0 126.5 39.5t109.5 108.5 t76 162.5t28 200.5q0 127 -50 195.5t-145 68.5q-65 0 -128 -40t-110.5 -108.5t-76 -161.5t-28.5 -200zM473 1300l238 280h187l123 -280h-145l-87 157h-9l-143 -157h-164zM1000 1457l203 263h191l-250 -263h-144z" />
<glyph unicode="&#x1ed2;" horiz-adv-x="1470" d="M132 598q0 185 58 350.5t157.5 291.5t235 200t289.5 74q126 0 226 -43.5t169 -125t106 -197.5t37 -259q0 -184 -57.5 -350t-157 -292t-235 -200.5t-292.5 -74.5q-125 0 -225 43.5t-169.5 125.5t-105.5 198t-36 259zM384 616q0 -200 74 -316t224 -116q97 0 185 59 t152.5 154.5t102 219.5t37.5 253q0 200 -75 316.5t-225 116.5q-100 0 -186.5 -59.5t-149.5 -155t-101 -219t-38 -253.5zM629 1601l252 245h210l156 -245h-177l-100 134h-9l-152 -134h-180zM1143 2007h191l93 -261h-143z" />
<glyph unicode="&#x1ed3;" horiz-adv-x="1191" d="M78 427q0 159 53 292t139.5 226.5t196.5 145.5t225 52q190 0 303.5 -121.5t113.5 -332.5q0 -158 -53.5 -290.5t-139.5 -226.5t-197 -147t-226 -53q-93 0 -170.5 32.5t-131.5 91t-83.5 143t-29.5 188.5zM323 436q0 -127 50 -196t148 -69q65 0 126.5 39.5t109.5 108.5 t76 162.5t28 200.5q0 127 -50 195.5t-145 68.5q-65 0 -128 -40t-110.5 -108.5t-76 -161.5t-28.5 -200zM473 1300l238 280h187l123 -280h-145l-87 157h-9l-143 -157h-164zM975 1720h187l102 -263h-143z" />
<glyph unicode="&#x1ed4;" horiz-adv-x="1470" d="M132 598q0 185 58 350.5t157.5 291.5t235 200t289.5 74q126 0 226 -43.5t169 -125t106 -197.5t37 -259q0 -184 -57.5 -350t-157 -292t-235 -200.5t-292.5 -74.5q-125 0 -225 43.5t-169.5 125.5t-105.5 198t-36 259zM384 616q0 -200 74 -316t224 -116q97 0 185 59 t152.5 154.5t102 219.5t37.5 253q0 200 -75 316.5t-225 116.5q-100 0 -186.5 -59.5t-149.5 -155t-101 -219t-38 -253.5zM629 1601l252 245h210l156 -245h-177l-100 134h-9l-152 -134h-180zM1200 1959l43 108q143 -5 199.5 -45t56.5 -98q0 -102 -72.5 -150.5t-188.5 -66.5 l-11 87q55 13 83 36t28 61q0 30 -29.5 47t-108.5 21z" />
<glyph unicode="&#x1ed5;" horiz-adv-x="1191" d="M78 427q0 159 53 292t139.5 226.5t196.5 145.5t225 52q190 0 303.5 -121.5t113.5 -332.5q0 -158 -53.5 -290.5t-139.5 -226.5t-197 -147t-226 -53q-93 0 -170.5 32.5t-131.5 91t-83.5 143t-29.5 188.5zM323 436q0 -127 50 -196t148 -69q65 0 126.5 39.5t109.5 108.5 t76 162.5t28 200.5q0 127 -50 195.5t-145 68.5q-65 0 -128 -40t-110.5 -108.5t-76 -161.5t-28.5 -200zM473 1300l238 280h187l123 -280h-145l-87 157h-9l-143 -157h-164zM1016 1692l42 108q143 -6 203 -46t60 -101q0 -55 -20.5 -93.5t-57 -64.5t-86.5 -42.5t-106 -27.5 l-8 89q57 18 82.5 39.5t25.5 60.5q0 32 -29 50.5t-106 27.5z" />
<glyph unicode="&#x1ed6;" horiz-adv-x="1470" d="M132 598q0 185 58 350.5t157.5 291.5t235 200t289.5 74q126 0 226 -43.5t169 -125t106 -197.5t37 -259q0 -184 -57.5 -350t-157 -292t-235 -200.5t-292.5 -74.5q-125 0 -225 43.5t-169.5 125.5t-105.5 198t-36 259zM384 616q0 -200 74 -316t224 -116q97 0 185 59 t152.5 154.5t102 219.5t37.5 253q0 200 -75 316.5t-225 116.5q-100 0 -186.5 -59.5t-149.5 -155t-101 -219t-38 -253.5zM629 1601l252 245h210l156 -245h-177l-100 134h-9l-152 -134h-180zM690 1926q32 111 93.5 172.5t134.5 61.5q36 0 65.5 -16t55.5 -36.5t49 -36.5t50 -16 q59 0 103 103h113q-32 -111 -94.5 -172.5t-132.5 -61.5q-38 0 -66.5 15.5t-53.5 35t-48 35.5t-50 16q-66 0 -102 -100h-117z" />
<glyph unicode="&#x1ed7;" horiz-adv-x="1191" d="M78 427q0 159 53 292t139.5 226.5t196.5 145.5t225 52q190 0 303.5 -121.5t113.5 -332.5q0 -158 -53.5 -290.5t-139.5 -226.5t-197 -147t-226 -53q-93 0 -170.5 32.5t-131.5 91t-83.5 143t-29.5 188.5zM323 436q0 -127 50 -196t148 -69q65 0 126.5 39.5t109.5 108.5 t76 162.5t28 200.5q0 127 -50 195.5t-145 68.5q-65 0 -128 -40t-110.5 -108.5t-76 -161.5t-28.5 -200zM453 1300l234 238h221l135 -238h-154l-105 136h-8l-148 -136h-175zM511 1623q35 109 93.5 168t125.5 59q41 0 69.5 -15t52.5 -32.5t45.5 -32.5t47.5 -15t53 24t43 69h114 q-34 -109 -94.5 -168t-126.5 -59q-41 0 -69 15t-51 33t-44.5 32.5t-48.5 14.5q-25 0 -51 -24t-42 -69h-117z" />
<glyph unicode="&#x1ed8;" horiz-adv-x="1470" d="M132 598q0 185 58 350.5t157.5 291.5t235 200t289.5 74q126 0 226 -43.5t169 -125t106 -197.5t37 -259q0 -184 -57.5 -350t-157 -292t-235 -200.5t-292.5 -74.5q-125 0 -225 43.5t-169.5 125.5t-105.5 198t-36 259zM384 616q0 -200 74 -316t224 -116q97 0 185 59 t152.5 154.5t102 219.5t37.5 253q0 200 -75 316.5t-225 116.5q-100 0 -186.5 -59.5t-149.5 -155t-101 -219t-38 -253.5zM434 -359q0 65 48 111.5t117 46.5q52 0 95 -32.5t43 -93.5q0 -68 -48 -114t-116 -46q-52 0 -95.5 33.5t-43.5 94.5zM600 1601l259 258h236l158 -258 h-182l-105 149h-6l-160 -149h-200z" />
<glyph unicode="&#x1ed9;" horiz-adv-x="1191" d="M78 427q0 159 53 292t139.5 226.5t196.5 145.5t225 52q190 0 303.5 -121.5t113.5 -332.5q0 -158 -53.5 -290.5t-139.5 -226.5t-197 -147t-226 -53q-93 0 -170.5 32.5t-131.5 91t-83.5 143t-29.5 188.5zM230 -359q0 65 48 111.5t117 46.5q52 0 95 -32.5t43 -93.5 q0 -68 -48 -114t-116 -46q-52 0 -95.5 33.5t-43.5 94.5zM323 436q0 -127 50 -196t148 -69q65 0 126.5 39.5t109.5 108.5t76 162.5t28 200.5q0 127 -50 195.5t-145 68.5q-65 0 -128 -40t-110.5 -108.5t-76 -161.5t-28.5 -200zM445 1300l278 329h188l146 -329h-162l-94 196h-9 l-172 -196h-175z" />
<glyph unicode="&#x1eda;" horiz-adv-x="1470" d="M132 598q0 185 58 350.5t157.5 291.5t235 200t289.5 74q159 0 274 -68q93 9 147.5 54.5t54.5 111.5q0 34 -14 80l184 58q28 -65 28 -123q0 -102 -75.5 -177t-206.5 -99q70 -82 108 -198t38 -264q0 -184 -57.5 -350t-157 -292t-235 -200.5t-292.5 -74.5q-125 0 -225 43.5 t-169.5 125.5t-105.5 198t-36 259zM384 616q0 -200 74 -316t224 -116q97 0 185 59t152.5 154.5t102 219.5t37.5 253q0 200 -75 316.5t-225 116.5q-100 0 -186.5 -59.5t-149.5 -155t-101 -219t-38 -253.5zM755 1601l236 258h271l-303 -258h-204z" />
<glyph unicode="&#x1edb;" horiz-adv-x="1199" d="M78 427q0 159 53 292t139.5 226.5t196.5 145.5t225 52t208 -50q85 11 138 55.5t53 111.5q0 39 -15 76l184 63q15 -33 20.5 -62t5.5 -62q0 -95 -66 -170t-209 -105q98 -118 98 -311q0 -158 -53.5 -290.5t-139.5 -226.5t-196.5 -147t-226.5 -53q-93 0 -170.5 32.5 t-131.5 91t-83.5 143t-29.5 188.5zM323 436q0 -127 50 -196t148 -69q65 0 126.5 39.5t109.5 108.5t76 162.5t28 200.5q0 127 -50 195.5t-145 68.5q-65 0 -128 -40t-110.5 -108.5t-76 -161.5t-28.5 -200zM551 1300l263 329h251l-323 -329h-191z" />
<glyph unicode="&#x1edc;" horiz-adv-x="1470" d="M132 598q0 185 58 350.5t157.5 291.5t235 200t289.5 74q159 0 274 -68q93 9 147.5 54.5t54.5 111.5q0 34 -14 80l184 58q28 -65 28 -123q0 -102 -75.5 -177t-206.5 -99q70 -82 108 -198t38 -264q0 -184 -57.5 -350t-157 -292t-235 -200.5t-292.5 -74.5q-125 0 -225 43.5 t-169.5 125.5t-105.5 198t-36 259zM384 616q0 -200 74 -316t224 -116q97 0 185 59t152.5 154.5t102 219.5t37.5 253q0 200 -75 316.5t-225 116.5q-100 0 -186.5 -59.5t-149.5 -155t-101 -219t-38 -253.5zM631 1859h251l143 -258h-188z" />
<glyph unicode="&#x1edd;" horiz-adv-x="1199" d="M78 427q0 159 53 292t139.5 226.5t196.5 145.5t225 52t208 -50q85 11 138 55.5t53 111.5q0 39 -15 76l184 63q15 -33 20.5 -62t5.5 -62q0 -95 -66 -170t-209 -105q98 -118 98 -311q0 -158 -53.5 -290.5t-139.5 -226.5t-196.5 -147t-226.5 -53q-93 0 -170.5 32.5 t-131.5 91t-83.5 143t-29.5 188.5zM323 436q0 -127 50 -196t148 -69q65 0 126.5 39.5t109.5 108.5t76 162.5t28 200.5q0 127 -50 195.5t-145 68.5q-65 0 -128 -40t-110.5 -108.5t-76 -161.5t-28.5 -200zM510 1629h232l129 -329h-171z" />
<glyph unicode="&#x1ede;" horiz-adv-x="1470" d="M132 598q0 185 58 350.5t157.5 291.5t235 200t289.5 74q159 0 274 -68q93 9 147.5 54.5t54.5 111.5q0 34 -14 80l184 58q28 -65 28 -123q0 -102 -75.5 -177t-206.5 -99q70 -82 108 -198t38 -264q0 -184 -57.5 -350t-157 -292t-235 -200.5t-292.5 -74.5q-125 0 -225 43.5 t-169.5 125.5t-105.5 198t-36 259zM384 616q0 -200 74 -316t224 -116q97 0 185 59t152.5 154.5t102 219.5t37.5 253q0 200 -75 316.5t-225 116.5q-100 0 -186.5 -59.5t-149.5 -155t-101 -219t-38 -253.5zM777 1861l50 130q161 -6 228.5 -53t67.5 -112q0 -57 -24 -99t-67 -72 t-100.5 -49t-120.5 -29l-11 102q63 16 100 38t37 66q0 34 -33.5 54t-126.5 24z" />
<glyph unicode="&#x1edf;" horiz-adv-x="1199" d="M78 427q0 159 53 292t139.5 226.5t196.5 145.5t225 52t208 -50q85 11 138 55.5t53 111.5q0 39 -15 76l184 63q15 -33 20.5 -62t5.5 -62q0 -95 -66 -170t-209 -105q98 -118 98 -311q0 -158 -53.5 -290.5t-139.5 -226.5t-196.5 -147t-226.5 -53q-93 0 -170.5 32.5 t-131.5 91t-83.5 143t-29.5 188.5zM323 436q0 -127 50 -196t148 -69q65 0 126.5 39.5t109.5 108.5t76 162.5t28 200.5q0 127 -50 195.5t-145 68.5q-65 0 -128 -40t-110.5 -108.5t-76 -161.5t-28.5 -200zM637 1546l48 127q166 -5 233 -50.5t67 -115.5q0 -56 -24 -98.5 t-66.5 -71.5t-99 -48.5t-120.5 -28.5l-13 104q63 18 100.5 38.5t37.5 63.5q0 35 -35 53.5t-128 26.5z" />
<glyph unicode="&#x1ee0;" horiz-adv-x="1470" d="M132 598q0 185 58 350.5t157.5 291.5t235 200t289.5 74q159 0 274 -68q93 9 147.5 54.5t54.5 111.5q0 34 -14 80l184 58q28 -65 28 -123q0 -102 -75.5 -177t-206.5 -99q70 -82 108 -198t38 -264q0 -184 -57.5 -350t-157 -292t-235 -200.5t-292.5 -74.5q-125 0 -225 43.5 t-169.5 125.5t-105.5 198t-36 259zM384 616q0 -200 74 -316t224 -116q97 0 185 59t152.5 154.5t102 219.5t37.5 253q0 200 -75 316.5t-225 116.5q-100 0 -186.5 -59.5t-149.5 -155t-101 -219t-38 -253.5zM555 1607q32 123 101 196t148 73q46 0 77.5 -18.5t57.5 -40t52.5 -40 t60.5 -18.5q61 0 102 112h132q-32 -123 -99.5 -195.5t-147.5 -72.5q-48 0 -79.5 18t-58.5 40t-52 39.5t-58 17.5q-63 0 -105 -111h-131z" />
<glyph unicode="&#x1ee1;" horiz-adv-x="1199" d="M78 427q0 159 53 292t139.5 226.5t196.5 145.5t225 52t208 -50q85 11 138 55.5t53 111.5q0 39 -15 76l184 63q15 -33 20.5 -62t5.5 -62q0 -95 -66 -170t-209 -105q98 -118 98 -311q0 -158 -53.5 -290.5t-139.5 -226.5t-196.5 -147t-226.5 -53q-93 0 -170.5 32.5 t-131.5 91t-83.5 143t-29.5 188.5zM323 436q0 -127 50 -196t148 -69q65 0 126.5 39.5t109.5 108.5t76 162.5t28 200.5q0 127 -50 195.5t-145 68.5q-65 0 -128 -40t-110.5 -108.5t-76 -161.5t-28.5 -200zM396 1314q37 126 101.5 194.5t139.5 68.5q50 0 83 -16.5t59 -38 t51 -39t61 -17.5q50 0 96 107h132q-35 -123 -99.5 -193t-141.5 -70q-50 0 -83.5 17.5t-59.5 38t-51 39t-61 18.5q-50 0 -96 -109h-131z" />
<glyph unicode="&#x1ee2;" horiz-adv-x="1470" d="M132 598q0 185 58 350.5t157.5 291.5t235 200t289.5 74q159 0 274 -68q93 9 147.5 54.5t54.5 111.5q0 34 -14 80l184 58q28 -65 28 -123q0 -102 -75.5 -177t-206.5 -99q70 -82 108 -198t38 -264q0 -184 -57.5 -350t-157 -292t-235 -200.5t-292.5 -74.5q-125 0 -225 43.5 t-169.5 125.5t-105.5 198t-36 259zM384 616q0 -200 74 -316t224 -116q97 0 185 59t152.5 154.5t102 219.5t37.5 253q0 200 -75 316.5t-225 116.5q-100 0 -186.5 -59.5t-149.5 -155t-101 -219t-38 -253.5zM429 -359q0 65 48 111.5t117 46.5q52 0 95 -32.5t43 -93.5 q0 -68 -48 -114t-116 -46q-52 0 -95.5 33.5t-43.5 94.5z" />
<glyph unicode="&#x1ee3;" horiz-adv-x="1199" d="M78 427q0 159 53 292t139.5 226.5t196.5 145.5t225 52t208 -50q85 11 138 55.5t53 111.5q0 39 -15 76l184 63q15 -33 20.5 -62t5.5 -62q0 -95 -66 -170t-209 -105q98 -118 98 -311q0 -158 -53.5 -290.5t-139.5 -226.5t-196.5 -147t-226.5 -53q-93 0 -170.5 32.5 t-131.5 91t-83.5 143t-29.5 188.5zM227 -359q0 65 48 111.5t117 46.5q52 0 95 -32.5t43 -93.5q0 -68 -48 -114t-116 -46q-52 0 -95.5 33.5t-43.5 94.5zM323 436q0 -127 50 -196t148 -69q65 0 126.5 39.5t109.5 108.5t76 162.5t28 200.5q0 127 -50 195.5t-145 68.5 q-65 0 -128 -40t-110.5 -108.5t-76 -161.5t-28.5 -200z" />
<glyph unicode="&#x1ee4;" horiz-adv-x="1431" d="M175 466q0 50 8 109t19 117l160 794h245l-166 -831q-20 -96 -20 -175q0 -144 61 -220t202 -76q117 0 203 95.5t132 321.5l176 885h241l-178 -885q-66 -332 -214 -480.5t-369 -148.5q-248 0 -374 123.5t-126 370.5zM404 -359q0 65 48 111.5t117 46.5q52 0 95 -32.5 t43 -93.5q0 -68 -48 -114t-116 -46q-52 0 -95.5 33.5t-43.5 94.5z" />
<glyph unicode="&#x1ee5;" horiz-adv-x="1219" d="M107 254q0 39 4 77t14 81l141 705h243l-134 -674q-9 -39 -13.5 -66t-4.5 -52q0 -143 138 -143q111 0 275 172l150 763h244l-220 -1117h-198l9 159h-9q-84 -76 -177.5 -131.5t-195.5 -55.5q-141 0 -203.5 74.5t-62.5 207.5zM343 -370q0 65 48 111.5t117 46.5 q52 0 95 -32.5t43 -93.5q0 -68 -48 -114t-116 -46q-52 0 -95.5 33.5t-43.5 94.5z" />
<glyph unicode="&#x1ee6;" horiz-adv-x="1431" d="M175 466q0 50 8 109t19 117l160 794h245l-166 -831q-20 -96 -20 -175q0 -144 61 -220t202 -76q117 0 203 95.5t132 321.5l176 885h241l-178 -885q-66 -332 -214 -480.5t-369 -148.5q-248 0 -374 123.5t-126 370.5zM791 1861l50 130q161 -6 228.5 -53t67.5 -112 q0 -57 -24 -99t-67 -72t-100.5 -49t-120.5 -29l-11 102q63 16 100 38t37 66q0 34 -33.5 54t-126.5 24z" />
<glyph unicode="&#x1ee7;" horiz-adv-x="1219" d="M107 254q0 39 4 77t14 81l141 705h243l-134 -674q-9 -39 -13.5 -66t-4.5 -52q0 -143 138 -143q111 0 275 172l150 763h244l-220 -1117h-198l9 159h-9q-84 -76 -177.5 -131.5t-195.5 -55.5q-141 0 -203.5 74.5t-62.5 207.5zM655 1546l48 127q166 -5 233 -50.5t67 -115.5 q0 -56 -24 -98.5t-66.5 -71.5t-99 -48.5t-120.5 -28.5l-13 104q63 18 100.5 38.5t37.5 63.5q0 35 -35 53.5t-128 26.5z" />
<glyph unicode="&#x1ee8;" horiz-adv-x="1472" d="M175 466q0 50 8 109t19 117l160 794h245l-166 -831q-20 -96 -20 -175q0 -144 61 -220t202 -76q117 0 203 95.5t132 321.5l176 885h130q89 7 145.5 54t56.5 111q0 38 -15 79l184 62q16 -33 21.5 -62t5.5 -62q0 -100 -73 -177t-234 -107l-158 -783q-66 -332 -214 -480.5 t-369 -148.5q-248 0 -374 123.5t-126 370.5zM762 1601l236 258h271l-303 -258h-204z" />
<glyph unicode="&#x1ee9;" horiz-adv-x="1260" d="M107 254q0 39 4 77t14 81l141 705h243l-134 -674q-9 -39 -13.5 -66t-4.5 -52q0 -143 138 -143q111 0 275 172l150 763h101q80 11 134.5 55.5t54.5 109.5q0 37 -15 78l185 61q25 -59 25 -123q0 -103 -70.5 -173.5t-188.5 -101.5l-202 -1023h-198l9 159h-9 q-84 -76 -177.5 -131.5t-195.5 -55.5q-141 0 -203.5 74.5t-62.5 207.5zM569 1300l263 329h251l-323 -329h-191z" />
<glyph unicode="&#x1eea;" horiz-adv-x="1472" d="M175 466q0 50 8 109t19 117l160 794h245l-166 -831q-20 -96 -20 -175q0 -144 61 -220t202 -76q117 0 203 95.5t132 321.5l176 885h130q89 7 145.5 54t56.5 111q0 38 -15 79l184 62q16 -33 21.5 -62t5.5 -62q0 -100 -73 -177t-234 -107l-158 -783q-66 -332 -214 -480.5 t-369 -148.5q-248 0 -374 123.5t-126 370.5zM638 1859h251l143 -258h-188z" />
<glyph unicode="&#x1eeb;" horiz-adv-x="1260" d="M107 254q0 39 4 77t14 81l141 705h243l-134 -674q-9 -39 -13.5 -66t-4.5 -52q0 -143 138 -143q111 0 275 172l150 763h101q80 11 134.5 55.5t54.5 109.5q0 37 -15 78l185 61q25 -59 25 -123q0 -103 -70.5 -173.5t-188.5 -101.5l-202 -1023h-198l9 159h-9 q-84 -76 -177.5 -131.5t-195.5 -55.5q-141 0 -203.5 74.5t-62.5 207.5zM528 1629h232l129 -329h-171z" />
<glyph unicode="&#x1eec;" horiz-adv-x="1472" d="M175 466q0 50 8 109t19 117l160 794h245l-166 -831q-20 -96 -20 -175q0 -144 61 -220t202 -76q117 0 203 95.5t132 321.5l176 885h130q89 7 145.5 54t56.5 111q0 38 -15 79l184 62q16 -33 21.5 -62t5.5 -62q0 -100 -73 -177t-234 -107l-158 -783q-66 -332 -214 -480.5 t-369 -148.5q-248 0 -374 123.5t-126 370.5zM784 1861l50 130q161 -6 228.5 -53t67.5 -112q0 -57 -24 -99t-67 -72t-100.5 -49t-120.5 -29l-11 102q63 16 100 38t37 66q0 34 -33.5 54t-126.5 24z" />
<glyph unicode="&#x1eed;" horiz-adv-x="1260" d="M107 254q0 39 4 77t14 81l141 705h243l-134 -674q-9 -39 -13.5 -66t-4.5 -52q0 -143 138 -143q111 0 275 172l150 763h101q80 11 134.5 55.5t54.5 109.5q0 37 -15 78l185 61q25 -59 25 -123q0 -103 -70.5 -173.5t-188.5 -101.5l-202 -1023h-198l9 159h-9 q-84 -76 -177.5 -131.5t-195.5 -55.5q-141 0 -203.5 74.5t-62.5 207.5zM655 1546l48 127q166 -5 233 -50.5t67 -115.5q0 -56 -24 -98.5t-66.5 -71.5t-99 -48.5t-120.5 -28.5l-13 104q63 18 100.5 38.5t37.5 63.5q0 35 -35 53.5t-128 26.5z" />
<glyph unicode="&#x1eee;" horiz-adv-x="1472" d="M175 466q0 50 8 109t19 117l160 794h245l-166 -831q-20 -96 -20 -175q0 -144 61 -220t202 -76q117 0 203 95.5t132 321.5l176 885h130q89 7 145.5 54t56.5 111q0 38 -15 79l184 62q16 -33 21.5 -62t5.5 -62q0 -100 -73 -177t-234 -107l-158 -783q-66 -332 -214 -480.5 t-369 -148.5q-248 0 -374 123.5t-126 370.5zM562 1607q32 123 101 196t148 73q46 0 77.5 -18.5t57.5 -40t52.5 -40t60.5 -18.5q61 0 102 112h132q-32 -123 -99.5 -195.5t-147.5 -72.5q-48 0 -79.5 18t-58.5 40t-52 39.5t-58 17.5q-63 0 -105 -111h-131z" />
<glyph unicode="&#x1eef;" horiz-adv-x="1260" d="M107 254q0 39 4 77t14 81l141 705h243l-134 -674q-9 -39 -13.5 -66t-4.5 -52q0 -143 138 -143q111 0 275 172l150 763h101q80 11 134.5 55.5t54.5 109.5q0 37 -15 78l185 61q25 -59 25 -123q0 -103 -70.5 -173.5t-188.5 -101.5l-202 -1023h-198l9 159h-9 q-84 -76 -177.5 -131.5t-195.5 -55.5q-141 0 -203.5 74.5t-62.5 207.5zM414 1314q37 126 101.5 194.5t139.5 68.5q50 0 83 -16.5t59 -38t51 -39t61 -17.5q50 0 96 107h132q-35 -123 -99.5 -193t-141.5 -70q-50 0 -83.5 17.5t-59.5 38t-51 39t-61 18.5q-50 0 -96 -109h-131z " />
<glyph unicode="&#x1ef0;" horiz-adv-x="1472" d="M175 466q0 50 8 109t19 117l160 794h245l-166 -831q-20 -96 -20 -175q0 -144 61 -220t202 -76q117 0 203 95.5t132 321.5l176 885h130q89 7 145.5 54t56.5 111q0 38 -15 79l184 62q16 -33 21.5 -62t5.5 -62q0 -100 -73 -177t-234 -107l-158 -783q-66 -332 -214 -480.5 t-369 -148.5q-248 0 -374 123.5t-126 370.5zM408 -359q0 65 48 111.5t117 46.5q52 0 95 -32.5t43 -93.5q0 -68 -48 -114t-116 -46q-52 0 -95.5 33.5t-43.5 94.5z" />
<glyph unicode="&#x1ef1;" horiz-adv-x="1260" d="M107 254q0 39 4 77t14 81l141 705h243l-134 -674q-9 -39 -13.5 -66t-4.5 -52q0 -143 138 -143q111 0 275 172l150 763h101q80 11 134.5 55.5t54.5 109.5q0 37 -15 78l185 61q25 -59 25 -123q0 -103 -70.5 -173.5t-188.5 -101.5l-202 -1023h-198l9 159h-9 q-84 -76 -177.5 -131.5t-195.5 -55.5q-141 0 -203.5 74.5t-62.5 207.5zM341 -370q0 65 48 111.5t117 46.5q52 0 95 -32.5t43 -93.5q0 -68 -48 -114t-116 -46q-52 0 -95.5 33.5t-43.5 94.5z" />
<glyph unicode="&#x1ef2;" horiz-adv-x="1104" d="M186 1486h252l85 -390q18 -87 31.5 -164t31.5 -164h10q50 87 95.5 166t97.5 164l243 388h263l-625 -927l-111 -559h-245l111 559zM464 1859h251l143 -258h-188z" />
<glyph unicode="&#x1ef3;" horiz-adv-x="1076" d="M-109 -418l77 177q39 -22 82 -23q73 0 138.5 56t111.5 151l34 68l-193 1106h243l71 -564q9 -76 15.5 -166t11.5 -168h9q38 80 78 167t79 167l278 564h236l-628 -1176q-52 -91 -105.5 -164.5t-113 -126t-128.5 -81.5t-153 -29q-27 0 -69.5 12t-73.5 30zM441 1629h232 l129 -329h-171z" />
<glyph unicode="&#x1ef4;" horiz-adv-x="1104" d="M186 1486h252l85 -390q18 -87 31.5 -164t31.5 -164h10q50 87 95.5 166t97.5 164l243 388h263l-625 -927l-111 -559h-245l111 559zM227 -377q0 65 48 111.5t117 46.5q52 0 95 -32.5t43 -93.5q0 -68 -48 -114t-116 -46q-52 0 -95.5 33.5t-43.5 94.5z" />
<glyph unicode="&#x1ef5;" horiz-adv-x="1076" d="M-109 -418l77 177q39 -22 82 -23q73 0 138.5 56t111.5 151l34 68l-193 1106h243l71 -564q9 -76 15.5 -166t11.5 -168h9q38 80 78 167t79 167l278 564h236l-628 -1176q-52 -91 -105.5 -164.5t-113 -126t-128.5 -81.5t-153 -29q-27 0 -69.5 12t-73.5 30zM553 -377 q0 65 48 111.5t117 46.5q52 0 95 -32.5t43 -93.5q0 -68 -48 -114t-116 -46q-52 0 -95.5 33.5t-43.5 94.5z" />
<glyph unicode="&#x1ef6;" horiz-adv-x="1104" d="M186 1486h252l85 -390q18 -87 31.5 -164t31.5 -164h10q50 87 95.5 166t97.5 164l243 388h263l-625 -927l-111 -559h-245l111 559zM610 1861l50 130q161 -6 228.5 -53t67.5 -112q0 -57 -24 -99t-67 -72t-100.5 -49t-120.5 -29l-11 102q63 16 100 38t37 66q0 34 -33.5 54 t-126.5 24z" />
<glyph unicode="&#x1ef7;" horiz-adv-x="1076" d="M-109 -418l77 177q39 -22 82 -23q73 0 138.5 56t111.5 151l34 68l-193 1106h243l71 -564q9 -76 15.5 -166t11.5 -168h9q38 80 78 167t79 167l278 564h236l-628 -1176q-52 -91 -105.5 -164.5t-113 -126t-128.5 -81.5t-153 -29q-27 0 -69.5 12t-73.5 30zM568 1546l48 127 q166 -5 233 -50.5t67 -115.5q0 -56 -24 -98.5t-66.5 -71.5t-99 -48.5t-120.5 -28.5l-13 104q63 18 100.5 38.5t37.5 63.5q0 35 -35 53.5t-128 26.5z" />
<glyph unicode="&#x1ef8;" horiz-adv-x="1104" d="M186 1486h252l85 -390q18 -87 31.5 -164t31.5 -164h10q50 87 95.5 166t97.5 164l243 388h263l-625 -927l-111 -559h-245l111 559zM388 1607q32 123 101 196t148 73q46 0 77.5 -18.5t57.5 -40t52.5 -40t60.5 -18.5q61 0 102 112h132q-32 -123 -99.5 -195.5t-147.5 -72.5 q-48 0 -79.5 18t-58.5 40t-52 39.5t-58 17.5q-63 0 -105 -111h-131z" />
<glyph unicode="&#x1ef9;" horiz-adv-x="1076" d="M-109 -418l77 177q39 -22 82 -23q73 0 138.5 56t111.5 151l34 68l-193 1106h243l71 -564q9 -76 15.5 -166t11.5 -168h9q38 80 78 167t79 167l278 564h236l-628 -1176q-52 -91 -105.5 -164.5t-113 -126t-128.5 -81.5t-153 -29q-27 0 -69.5 12t-73.5 30zM327 1314 q37 126 101.5 194.5t139.5 68.5q50 0 83 -16.5t59 -38t51 -39t61 -17.5q50 0 96 107h132q-35 -123 -99.5 -193t-141.5 -70q-50 0 -83.5 17.5t-59.5 38t-51 39t-61 18.5q-50 0 -96 -109h-131z" />
<glyph unicode="&#x2000;" horiz-adv-x="1089" />
<glyph unicode="&#x2001;" horiz-adv-x="2178" />
<glyph unicode="&#x2002;" horiz-adv-x="1089" />
<glyph unicode="&#x2003;" horiz-adv-x="2178" />
<glyph unicode="&#x2004;" horiz-adv-x="726" />
<glyph unicode="&#x2005;" horiz-adv-x="544" />
<glyph unicode="&#x2006;" horiz-adv-x="363" />
<glyph unicode="&#x2007;" horiz-adv-x="1122" />
<glyph unicode="&#x2008;" horiz-adv-x="272" />
<glyph unicode="&#x2009;" horiz-adv-x="435" />
<glyph unicode="&#x200a;" horiz-adv-x="121" />
<glyph unicode="&#x2010;" horiz-adv-x="703" d="M78 484l35 180h516l-38 -180h-513z" />
<glyph unicode="&#x2011;" horiz-adv-x="703" d="M78 484l35 180h516l-38 -180h-513z" />
<glyph unicode="&#x2012;" horiz-adv-x="1122" d="M80 491l31 164h935l-37 -164h-929z" />
<glyph unicode="&#x2013;" horiz-adv-x="1052" d="M80 491l31 164h862l-34 -164h-859z" />
<glyph unicode="&#x2014;" horiz-adv-x="1749" d="M80 491l31 164h1562l-34 -164h-1559z" />
<glyph unicode="&#x2015;" horiz-adv-x="1749" d="M80 491l31 164h1562l-34 -164h-1559z" />
<glyph unicode="&#x2018;" horiz-adv-x="606" d="M234 1082q0 91 27.5 166t75 135t110 103.5t135.5 68.5l43 -112q-116 -50 -176.5 -128t-62.5 -140h11q59 0 99 -32t40 -91q0 -63 -41.5 -109.5t-114.5 -46.5q-66 0 -106 48.5t-40 137.5z" />
<glyph unicode="&#x2019;" horiz-adv-x="606" d="M248 1039q115 50 175.5 128t62.5 141h-11q-59 0 -99 31.5t-40 90.5q0 63 43.5 110t115.5 47q66 0 104.5 -49t38.5 -137q0 -91 -27 -166.5t-75 -135.5t-111 -103.5t-134 -67.5z" />
<glyph unicode="&#x201a;" horiz-adv-x="606" d="M-6 -234q115 50 175.5 128t62.5 141h-11q-59 0 -99 31.5t-40 90.5q0 63 43.5 110t115.5 47q66 0 104.5 -49t38.5 -137q0 -91 -27 -166.5t-75 -135.5t-111 -103.5t-134 -67.5z" />
<glyph unicode="&#x201c;" horiz-adv-x="1045" d="M234 1082q0 91 27.5 166t75 135t110 103.5t135.5 68.5l43 -112q-116 -50 -176.5 -128t-62.5 -140h11q59 0 99 -32t40 -91q0 -63 -41.5 -109.5t-114.5 -46.5q-66 0 -106 48.5t-40 137.5zM672 1082q0 91 27.5 166t75 135t110 103.5t135.5 68.5l43 -112 q-116 -50 -176.5 -128t-62.5 -140h11q59 0 99 -32t40 -91q0 -63 -41.5 -109.5t-114.5 -46.5q-66 0 -106 48.5t-40 137.5z" />
<glyph unicode="&#x201d;" horiz-adv-x="1045" d="M248 1039q115 50 175.5 128t62.5 141h-11q-59 0 -99 31.5t-40 90.5q0 63 43.5 110t115.5 47q66 0 104.5 -49t38.5 -137q0 -91 -27 -166.5t-75 -135.5t-111 -103.5t-134 -67.5zM686 1039q115 50 175.5 128t62.5 141h-11q-59 0 -99 31.5t-40 90.5q0 63 43.5 110t115.5 47 q66 0 104.5 -49t38.5 -137q0 -91 -27 -166.5t-75 -135.5t-111 -103.5t-134 -67.5z" />
<glyph unicode="&#x201e;" horiz-adv-x="788" d="M-6 -234q115 50 175.5 128t62.5 141h-11q-59 0 -99 31.5t-40 90.5q0 63 43.5 110t115.5 47q66 0 104.5 -49t38.5 -137q0 -91 -27 -166.5t-75 -135.5t-111 -103.5t-134 -67.5zM430 -234q115 50 175.5 128t62.5 141h-11q-59 0 -99 31.5t-40 90.5q0 63 43.5 110t115.5 47 q66 0 104.5 -49t38.5 -137q0 -91 -27 -166.5t-75 -135.5t-111 -103.5t-134 -67.5z" />
<glyph unicode="&#x2020;" horiz-adv-x="1050" d="M206 1054l42 204l323 -17l61 377h203l-91 -377l332 17l-39 -204l-325 17l-237 -1253h-202l268 1253z" />
<glyph unicode="&#x2021;" horiz-adv-x="1050" d="M32 178l38 199l327 -17l56 358l88 360l-335 -24l39 204l326 -17l61 377h200l-88 -377l332 17l-39 -204l-325 24l-57 -360l-87 -358l334 17l-41 -199l-327 13l-57 -373h-202l87 373z" />
</font>
</defs>
</svg>
