<?xml version="1.0" standalone="no"?>
<!DOCTYPE svg PUBLIC "-//W3C//DTD SVG 1.1//EN" "http://www.w3.org/Graphics/SVG/1.1/DTD/svg11.dtd" >
<svg xmlns="http://www.w3.org/2000/svg" xmlns:xlink="http://www.w3.org/1999/xlink" version="1.1">
<metadata></metadata>
<defs>
<font id="source_sans_proregular" horiz-adv-x="0" >
<font-face units-per-em="2048" ascent="1536" descent="-512" />
<missing-glyph horiz-adv-x="462" />
<glyph unicode="ff" horiz-adv-x="1316" d="M68 961v142l153 11v147q0 175 85.5 275.5t260.5 100.5q55 0 108.5 -11t95.5 -30l-40 -142q-68 30 -149 30q-82 0 -127.5 -58t-45.5 -169v-143h462v177q0 173 79.5 271.5t246.5 98.5q53 0 100 -10.5t86 -26.5l-39 -144q-66 28 -127 28q-157 0 -157 -217v-177h236v-153 h-236v-961h-189v961h-462v-961h-188v961h-153z" />
<glyph unicode="ft" horiz-adv-x="1361" d="M68 961v142l153 11v177q0 173 79 271.5t245 98.5q53 0 100 -10.5t86 -26.5l-41 -144q-62 28 -126 28q-155 0 -155 -217v-177h407l24 313h156v-313h302v-153h-302v-619q0 -103 38.5 -159t134.5 -56q31 0 65.5 8.5t61.5 20.5l37 -143q-46 -15 -100 -28t-106 -13 q-90 0 -151 28t-98.5 76t-53.5 116.5t-16 151.5v617h-399v-961h-188v961h-153z" />
<glyph />
<glyph />
<glyph unicode="&#xd;" horiz-adv-x="462" />
<glyph unicode=" "  horiz-adv-x="462" />
<glyph unicode="&#x09;" horiz-adv-x="462" />
<glyph unicode="&#xa0;" horiz-adv-x="462" />
<glyph unicode="!" horiz-adv-x="661" d="M195 114q0 66 40.5 106.5t97.5 40.5q55 0 95 -40t40 -107q0 -61 -40 -101.5t-95 -40.5q-57 0 -97.5 40.5t-40.5 101.5zM236 1537h191l-5 -215l-26 -867h-129l-26 867z" />
<glyph unicode="&#x22;" horiz-adv-x="974" d="M184 1583h201l-6 -211l-37 -383h-115l-37 383zM587 1583h201l-6 -211l-37 -383h-115l-37 383z" />
<glyph unicode="#" horiz-adv-x="1139" d="M81 468v131h199l41 340h-194v132h210l53 420h122l-53 -420h305l55 420h122l-55 -420h185v-132h-200l-41 -340h195v-131h-211l-57 -468h-122l55 468h-302l-58 -468h-124l58 468h-183zM403 599h304l41 340h-303z" />
<glyph unicode="$" horiz-adv-x="1139" d="M119 151l87 131q74 -64 162.5 -108.5t193.5 -44.5q129 0 191.5 63.5t62.5 172.5q0 92 -47 152.5t-118 105.5t-154.5 84t-154.5 89.5t-118 122.5t-47 184q0 154 90 256.5t243 126.5v230h137v-228q110 -11 187 -59t138 -114l-101 -113q-63 61 -124.5 96t-155.5 35 q-105 0 -166.5 -60t-61.5 -161q0 -83 47 -135.5t118 -92.5t154.5 -78t154.5 -91.5t118 -132.5t47 -203q0 -165 -95 -271t-260 -128v-232h-137v226q-110 11 -213.5 61t-177.5 116z" />
<glyph unicode="%" horiz-adv-x="1889" d="M81 1059q0 227 93 350t248 123q154 0 248 -123t94 -350q0 -229 -94 -353t-248 -124q-155 0 -248 124.5t-93 352.5zM223 1059q0 -179 55 -269t144 -90q88 0 142.5 90.5t54.5 268.5q0 179 -54.5 267.5t-142.5 88.5q-89 0 -144 -88.5t-55 -267.5zM464 -28l830 1560h129 l-830 -1560h-129zM1129 449q0 227 93 350t248 123q154 0 248 -123t94 -350q0 -229 -94 -353t-248 -124q-155 0 -248 124.5t-93 352.5zM1271 449q0 -179 55 -269t144 -90q88 0 142.5 90.5t54.5 268.5q0 179 -54.5 267.5t-142.5 88.5q-89 0 -144 -88.5t-55 -267.5z" />
<glyph unicode="&#x26;" horiz-adv-x="1396" d="M74 390q0 76 24 137.5t65 115t95 97.5t112 83q-46 94 -72.5 182.5t-26.5 171.5q0 76 25 140t71 112t110 75.5t142 27.5q140 0 218 -82t78 -216q0 -74 -29.5 -135.5t-78 -116t-109.5 -101.5t-122 -91q74 -117 173.5 -225t206.5 -198q69 94 123 204t88 241h177 q-46 -149 -110.5 -284.5t-152.5 -254.5q78 -52 148.5 -89t133.5 -55l-51 -157q-81 22 -168 65.5t-179 106.5q-87 -78 -193.5 -125t-239.5 -47q-103 0 -187 31.5t-144.5 86t-93.5 131.5t-33 169zM256 401q0 -62 23 -113.5t63.5 -88.5t94.5 -56t116 -19q79 0 149.5 32 t137.5 89q-110 97 -212.5 211.5t-182.5 235.5q-81 -64 -135 -134t-54 -157zM433 1179q0 -61 20 -128t52 -136q51 35 98 70t82 73t56 81t21 93q0 66 -33 115.5t-110 49.5q-85 0 -135.5 -62t-50.5 -156z" />
<glyph unicode="'" horiz-adv-x="570" d="M184 1583h201l-6 -211l-37 -383h-115l-37 383z" />
<glyph unicode="(" horiz-adv-x="694" d="M188 637q0 303 80 556.5t223 485.5l117 -55q-133 -221 -198.5 -471.5t-65.5 -515.5q0 -264 65.5 -515t198.5 -470l-117 -55q-143 229 -223 483.5t-80 556.5z" />
<glyph unicode=")" horiz-adv-x="694" d="M87 -348q134 220 199 471t65 514q0 265 -65 515.5t-199 471.5l117 55q142 -232 222.5 -485t80.5 -557q0 -302 -80.5 -557t-222.5 -483z" />
<glyph unicode="*" horiz-adv-x="958" d="M133 1337l35 106l233 -58l21 248h112l22 -245l236 55l33 -106l-221 -92l127 -215l-89 -67l-163 197l-162 -197l-92 67l130 215z" />
<glyph unicode="+" horiz-adv-x="1139" d="M78 685v143h417v448h149v-448h418v-143h-418v-446h-149v446h-417z" />
<glyph unicode="," horiz-adv-x="570" d="M108 -280q96 44 151.5 115t55.5 165q-7 -2 -24 -2q-55 0 -95 33t-40 98q0 61 41.5 96.5t98.5 35.5q74 0 116.5 -59.5t42.5 -162.5q0 -149 -81 -259t-221 -170z" />
<glyph unicode="-" horiz-adv-x="712" d="M94 503v144h528v-144h-528z" />
<glyph unicode="." horiz-adv-x="570" d="M149 114q0 66 40.5 106.5t97.5 40.5q55 0 95 -40t40 -107q0 -61 -40 -101.5t-95 -40.5q-57 0 -97.5 40.5t-40.5 101.5z" />
<glyph unicode="/" horiz-adv-x="801" d="M22 -367l613 1995h138l-613 -1995h-138z" />
<glyph unicode="0" horiz-adv-x="1139" d="M101 736q0 369 123.5 562t346.5 193q221 0 344.5 -193t123.5 -562q0 -370 -123.5 -567t-344.5 -197q-223 0 -346.5 197.5t-123.5 566.5zM284 736q0 -322 79 -467t208 -145q64 0 115.5 35.5t89.5 110t59 190.5t21 276t-21 275.5t-59 187.5t-89.5 106.5t-115.5 34.5 t-117 -34.5t-90.5 -106.5t-58.5 -187t-21 -276z" />
<glyph unicode="1" horiz-adv-x="1139" d="M181 0v156h335v1078h-266v121q101 18 175.5 45t134.5 64h144v-1308h303v-156h-826z" />
<glyph unicode="2" horiz-adv-x="1139" d="M83 1269q92 101 195 161.5t247 60.5q204 0 321 -118.5t117 -312.5q0 -104 -44.5 -208t-123.5 -215.5t-188.5 -232t-239.5 -255.5q60 4 124.5 8.5t121.5 4.5h424v-162h-945v112q164 165 293 298t216 247t133 209t46 185q0 126 -69 206t-208 80q-92 0 -170.5 -51.5 t-142.5 -125.5z" />
<glyph unicode="3" horiz-adv-x="1139" d="M59 179l97 123q66 -68 154.5 -120.5t219.5 -52.5q133 0 217.5 72t84.5 195q0 64 -24 118.5t-79 93.5t-144.5 59.5t-219.5 20.5v144q117 0 196 21t128 58t70 87t21 107q0 108 -68 170t-184 62q-92 0 -169 -41.5t-143 -107.5l-102 119q85 81 187 132.5t233 51.5 q97 0 177.5 -25.5t138.5 -72.5t90 -116t32 -158q0 -133 -73.5 -218t-191.5 -130v-9q66 -16 123.5 -47.5t100.5 -78.5t67.5 -108.5t24.5 -137.5q0 -97 -37.5 -174.5t-103.5 -131.5t-153 -83t-188 -29q-87 0 -159.5 17.5t-132 46t-106.5 65.5t-84 78z" />
<glyph unicode="4" horiz-adv-x="1139" d="M39 403v125l626 936h211v-908h200v-153h-200v-403h-178v403h-659zM239 556h459v423q0 59 3 141t8 141h-9q-28 -53 -57.5 -103t-62.5 -103z" />
<glyph unicode="5" horiz-adv-x="1139" d="M57 172l92 124q64 -66 152.5 -116.5t217.5 -50.5q66 0 124.5 24t102.5 67.5t69 105.5t25 138q0 151 -85 235.5t-227 84.5q-77 0 -130.5 -23t-119.5 -65l-101 63l48 705h731v-164h-566l-39 -433q52 28 105.5 43.5t119.5 15.5q94 0 176 -27.5t144.5 -83.5t98 -142 t35.5 -205t-41 -211t-110 -155t-157.5 -96.5t-185.5 -33.5q-87 0 -159 17.5t-130.5 45t-105.5 63t-84 74.5z" />
<glyph unicode="6" horiz-adv-x="1139" d="M110 676q0 221 46 375.5t123.5 252t178 142.5t210.5 45q118 0 204.5 -45t147.5 -111l-105 -118q-46 53 -108.5 84.5t-132.5 31.5q-76 0 -144.5 -32t-121.5 -106t-85 -191.5t-34 -292.5q68 85 160 134.5t182 49.5q190 0 303.5 -112.5t113.5 -340.5q0 -105 -34.5 -191 t-94 -148t-137.5 -96.5t-167 -34.5q-108 0 -199.5 43.5t-159.5 132t-107 220.5t-39 308zM293 560q18 -216 100 -327t222 -111q55 0 101 23t80 65t53.5 101t19.5 131q0 145 -66.5 228t-203.5 83q-68 0 -150 -45t-156 -148z" />
<glyph unicode="7" horiz-adv-x="1139" d="M101 1300v164h943v-118q-131 -164 -212.5 -316t-129.5 -309t-70 -332.5t-31 -388.5h-196q9 206 37 378.5t77.5 327t126 299t184.5 295.5h-729z" />
<glyph unicode="8" horiz-adv-x="1139" d="M94 374q0 71 24 132t62 110t87.5 87t102.5 65v9q-81 57 -143 139t-62 198q0 86 32.5 154.5t87 118t130.5 77t165 27.5q96 0 172 -28.5t130 -80t82.5 -124t28.5 -157.5q0 -57 -19.5 -109.5t-48 -98.5t-64.5 -83t-69 -62v-10q48 -28 93.5 -63t81 -79.5t57.5 -102t22 -130.5 q0 -83 -34.5 -154t-96.5 -124t-149 -83t-193 -30q-103 0 -191.5 30t-151 84t-99.5 127.5t-37 160.5zM264 392q0 -62 24 -112t66 -88.5t100 -59t124 -20.5q129 0 208 71t79 187q0 70 -32 120.5t-87.5 88.5t-128 69t-149.5 63q-87 -59 -145.5 -138.5t-58.5 -180.5zM339 1114 q0 -66 27.5 -113t74.5 -84t108 -65t127 -53q74 66 114 139t40 154q0 110 -66 184.5t-188 74.5q-103 0 -170 -64t-67 -173z" />
<glyph unicode="9" horiz-adv-x="1139" d="M92 1020q0 106 34 192t93 148t138 96.5t166 34.5q108 0 200.5 -44t160.5 -131.5t106 -220t38 -309.5q0 -220 -46 -375t-124 -252t-178 -142t-210 -45q-116 0 -204.5 43.5t-149.5 111.5l107 118q46 -52 108.5 -84t132.5 -32q78 0 146.5 32t121 106.5t85 193.5t34.5 296 q-68 -87 -160 -137.5t-184 -50.5q-190 0 -302.5 112.5t-112.5 338.5zM269 1020q0 -144 66 -226.5t204 -82.5q70 0 152 45t156 150q-18 216 -101 326t-223 110q-53 0 -100 -23t-81.5 -65.5t-53.5 -102t-19 -131.5z" />
<glyph unicode=":" horiz-adv-x="570" d="M149 114q0 66 40.5 106.5t97.5 40.5q55 0 95 -40t40 -107q0 -61 -40 -101.5t-95 -40.5q-57 0 -97.5 40.5t-40.5 101.5zM149 942q0 66 40.5 106.5t97.5 40.5q55 0 95 -40t40 -107q0 -61 -40 -101.5t-95 -40.5q-57 0 -97.5 40.5t-40.5 101.5z" />
<glyph unicode=";" horiz-adv-x="570" d="M108 -280q96 44 151.5 115t55.5 165q-7 -2 -24 -2q-55 0 -95 33t-40 98q0 61 41.5 96.5t98.5 35.5q74 0 116.5 -59.5t42.5 -162.5q0 -149 -81 -259t-221 -170zM149 942q0 66 40.5 106.5t97.5 40.5q55 0 95 -40t40 -107q0 -61 -40 -101.5t-95 -40.5q-57 0 -97.5 40.5 t-40.5 101.5z" />
<glyph unicode="&#x3c;" horiz-adv-x="1139" d="M78 685v153l984 385v-163l-484 -180l-307 -114v-9l307 -115l484 -178v-164z" />
<glyph unicode="=" horiz-adv-x="1139" d="M78 442v143h984v-143h-984zM78 930v143h984v-143h-984z" />
<glyph unicode="&#x3e;" horiz-adv-x="1139" d="M78 300v164l484 178l307 115v9l-307 114l-484 180v163l984 -385v-153z" />
<glyph unicode="?" horiz-adv-x="974" d="M87 1374q74 83 167.5 137t218.5 54q179 0 285.5 -97.5t106.5 -270.5q0 -76 -27.5 -137.5t-68 -116.5t-85 -109t-82.5 -111.5t-58.5 -123t-11.5 -144.5h-165q-13 89 6 161t53.5 133t79.5 113.5t83.5 104t65 104.5t26.5 115q0 92 -56 157t-166 65q-76 0 -143.5 -35.5 t-120.5 -96.5zM319 114q0 66 38.5 106.5t97.5 40.5q57 0 96.5 -40t39.5 -107q0 -61 -39.5 -101.5t-96.5 -40.5t-96.5 40.5t-39.5 101.5z" />
<glyph unicode="@" horiz-adv-x="1942" d="M116 466q0 230 77.5 417.5t209 320.5t304.5 205.5t366 72.5q175 0 313.5 -55t236 -154.5t150.5 -239.5t53 -311q0 -151 -43 -264.5t-109 -190.5t-147.5 -116t-158.5 -39q-95 0 -160.5 43.5t-76.5 131.5h-4q-57 -66 -131 -111t-149 -45q-117 0 -196.5 82.5t-79.5 241.5 q0 92 31 186.5t88.5 171.5t139 125.5t181.5 48.5q60 0 106 -26.5t78 -84.5h5l25 92h126l-90 -458q-68 -269 124 -269q55 0 109 32t98.5 93t72 149.5t27.5 200.5q0 137 -39.5 255.5t-120 203t-200 132.5t-275.5 48q-153 0 -297.5 -62.5t-257 -177.5t-180.5 -278t-68 -364 q0 -168 51.5 -298.5t143.5 -220.5t217.5 -137t272.5 -47q105 0 199 29t171 74l51 -112q-195 -116 -436 -116q-170 0 -316.5 52.5t-255.5 157t-172.5 258.5t-63.5 353zM722 466q0 -110 46 -158.5t115 -48.5q48 0 100 32.5t111 102.5l66 365q-32 53 -66 75t-80 22 q-69 0 -122.5 -37t-91.5 -94t-58 -126t-20 -133z" />
<glyph unicode="A" horiz-adv-x="1247" d="M7 0l509 1504h215l510 -1504h-204l-142 459h-549l-144 -459h-195zM394 613h453l-72 229q-41 127 -77.5 251t-73.5 255h-9q-35 -131 -71.5 -255.5t-77.5 -250.5z" />
<glyph unicode="B" horiz-adv-x="1348" d="M206 0v1504h448q114 0 209.5 -20t163 -64t105 -114t37.5 -168q0 -112 -63.5 -203t-197.5 -125v-9q165 -26 257 -115.5t92 -245.5q0 -110 -41 -192.5t-117 -137.5t-181.5 -82.5t-232.5 -27.5h-479zM396 151h263q194 0 301.5 72.5t107.5 225.5q0 140 -105 205.5t-304 65.5 h-263v-569zM396 862h223q195 0 279 67t84 192q0 124 -88.5 178t-265.5 54h-232v-491z" />
<glyph unicode="C" horiz-adv-x="1309" d="M119 753q0 181 51 325.5t140 245.5t211.5 154.5t268.5 53.5q137 0 240 -56t170 -130l-108 -121q-59 64 -131.5 102t-168.5 38q-108 0 -195 -42.5t-149.5 -122t-96.5 -191.5t-34 -252q0 -142 33 -255.5t93 -194t145.5 -124t193.5 -43.5q110 0 191.5 43.5t155.5 123.5 l107 -117q-89 -103 -201.5 -160.5t-257.5 -57.5q-142 0 -262.5 53t-208.5 153t-137.5 245.5t-49.5 329.5z" />
<glyph unicode="D" horiz-adv-x="1410" d="M206 0v1504h376q349 0 530.5 -192.5t181.5 -552.5q0 -179 -46 -320t-135.5 -238.5t-220 -149t-301.5 -51.5h-385zM396 156h173q264 0 395.5 158.5t131.5 444.5q0 287 -132 438t-395 151h-173v-1192z" />
<glyph unicode="E" horiz-adv-x="1208" d="M206 0v1504h867v-160h-677v-473h572v-162h-572v-547h700v-162h-890z" />
<glyph unicode="F" horiz-adv-x="1132" d="M206 0v1504h867v-160h-677v-510h574v-160h-574v-674h-190z" />
<glyph unicode="G" horiz-adv-x="1414" d="M119 753q0 181 52 325.5t145 245.5t219 154.5t277 53.5q156 0 260.5 -58t170.5 -128l-107 -121q-57 60 -132.5 100t-189.5 40t-206 -42.5t-156 -122t-99.5 -191.5t-35.5 -252q0 -142 33 -255.5t96.5 -194t156.5 -124t213 -43.5q81 0 153.5 24t118.5 66v392h-320v158h493 v-633q-74 -76 -193.5 -125.5t-271.5 -49.5q-149 0 -273 53t-213 153t-140 245.5t-51 329.5z" />
<glyph unicode="H" horiz-adv-x="1495" d="M206 0v1504h190v-630h700v630h193v-1504h-193v709h-700v-709h-190z" />
<glyph unicode="I" horiz-adv-x="602" d="M206 0v1504h190v-1504h-190z" />
<glyph unicode="J" horiz-adv-x="1100" d="M71 213l137 96q51 -89 115.5 -129t144.5 -40q122 0 181.5 74.5t59.5 246.5v1043h193v-1062q0 -96 -24.5 -181.5t-73.5 -150t-128.5 -101.5t-189.5 -37q-282 0 -415 241z" />
<glyph unicode="K" horiz-adv-x="1327" d="M206 0v1504h190v-754h7l627 754h215l-470 -573l544 -931h-214l-449 782l-260 -305v-477h-190z" />
<glyph unicode="L" horiz-adv-x="1114" d="M206 0v1504h190v-1342h659v-162h-849z" />
<glyph unicode="M" horiz-adv-x="1666" d="M206 0v1504h225l291 -806l110 -308h10l106 308l288 806h226v-1504h-182v828q0 100 8 222.5t17 222.5h-9l-121 -334l-289 -788h-109l-291 788l-119 334h-10q7 -100 16.5 -222.5t9.5 -222.5v-828h-177z" />
<glyph unicode="N" horiz-adv-x="1484" d="M206 0v1504h197l545 -944l162 -312h9q-7 114 -15 237t-8 242v777h182v-1504h-197l-547 948l-162 309h-9q9 -115 17 -233t8 -238v-786h-182z" />
<glyph unicode="O" horiz-adv-x="1522" d="M119 759q0 182 47 325.5t132 243t203 152t261 52.5q142 0 260 -53.5t204 -153.5t133 -243t47 -323q0 -181 -47 -326.5t-133 -247.5t-204 -157.5t-260 -55.5q-143 0 -261 55.5t-203 157.5t-132 247.5t-47 326.5zM317 759q0 -142 32 -255.5t90 -195t140 -125t183 -43.5 q100 0 181.5 43.5t140 125t90.5 195t32 255.5q0 140 -32 252.5t-90.5 190.5t-140 120.5t-181.5 42.5q-101 0 -183 -42.5t-140 -120.5t-90 -190.5t-32 -252.5z" />
<glyph unicode="P" horiz-adv-x="1320" d="M206 0v1504h462q124 0 227 -22.5t175 -74.5t112.5 -136.5t40.5 -208.5q0 -119 -40.5 -206.5t-113.5 -144.5t-175 -86t-226 -29h-272v-596h-190zM396 753h248q197 0 293 74.5t96 234.5q0 162 -96.5 225.5t-292.5 63.5h-248v-598z" />
<glyph unicode="Q" horiz-adv-x="1522" d="M119 759q0 182 47 325.5t132 243t203 152t261 52.5q142 0 260 -53.5t204 -153.5t133 -243t47 -323q0 -162 -37.5 -296.5t-107.5 -234t-169 -163t-218 -83.5q52 -101 148.5 -149.5t220.5 -48.5q51 0 89 7t69 16l37 -149q-35 -11 -92 -22.5t-123 -11.5q-208 0 -348.5 99.5 t-206.5 256.5q-125 16 -225.5 77.5t-173 162.5t-111.5 237.5t-39 301.5zM317 759q0 -144 32 -260t90 -198.5t140 -126t183 -43.5q100 0 181.5 43.5t140 126t90.5 198.5t32 260q0 140 -32 252.5t-90.5 190.5t-140 120.5t-181.5 42.5q-101 0 -183 -42.5t-140 -120.5 t-90 -190.5t-32 -252.5z" />
<glyph unicode="R" horiz-adv-x="1331" d="M206 0v1504h470q115 0 213 -21t168 -72t108.5 -131t38.5 -197q0 -177 -92 -282t-245 -145l381 -656h-215l-363 635h-274v-635h-190zM396 792h254q177 0 270.5 72t93.5 219q0 149 -94.5 208.5t-269.5 59.5h-254v-559z" />
<glyph unicode="S" horiz-adv-x="1224" d="M96 195l115 133q80 -85 189.5 -136.5t225.5 -51.5q149 0 232 68t83 177q0 57 -19.5 97.5t-53.5 69t-79 51.5t-99 49l-215 94q-53 22 -108 54t-98.5 78t-71 109.5t-27.5 145.5q0 86 35.5 159t98.5 127t149 83.5t189 29.5q135 0 250 -51.5t196 -134.5l-104 -123 q-68 66 -152 104t-190 38q-127 0 -203 -58.5t-76 -161.5q0 -55 21 -93t58 -67t81 -50.5t90 -39.5l212 -92q64 -28 122 -63.5t99.5 -82.5t65.5 -110t24 -146q0 -90 -36 -167.5t-102.5 -136t-160 -92t-213.5 -33.5q-158 0 -293.5 60t-234.5 163z" />
<glyph unicode="T" horiz-adv-x="1228" d="M64 1344v160h1101v-160h-454v-1344h-192v1344h-455z" />
<glyph unicode="U" horiz-adv-x="1478" d="M199 622v882h191v-887q0 -135 27.5 -227t74.5 -147t111.5 -79t137.5 -24q77 0 140.5 24t112 79t75.5 147t27 227v887h184v-882q0 -182 -41.5 -305.5t-113.5 -200.5t-170.5 -110.5t-213.5 -33.5q-114 0 -214 33.5t-172.5 110.5t-114 200.5t-41.5 305.5z" />
<glyph unicode="V" horiz-adv-x="1180" d="M0 1504h204l241 -812q41 -135 72 -249.5t74 -247.5h10q42 133 74 248t71 249l241 812h195l-478 -1504h-222z" />
<glyph unicode="W" horiz-adv-x="1802" d="M53 1504h197l159 -819q20 -124 43 -242.5t43 -243.5h10q26 125 53 245t52 241l209 819h174l209 -819q28 -118 55.5 -239.5t54.5 -246.5h10q20 125 40.5 245t43.5 241l159 819h183l-312 -1504h-230l-227 906q-20 87 -37.5 170.5t-35.5 171.5h-9q-18 -88 -37.5 -171.5 t-38.5 -170.5l-222 -906h-227z" />
<glyph unicode="X" horiz-adv-x="1176" d="M35 0l438 777l-409 727h212l203 -385q31 -53 57 -102t60 -115h10q32 66 55.5 115t51.5 102l200 385h201l-410 -736l438 -768h-211l-220 405q-30 55 -61 114t-68 128h-9q-32 -68 -61.5 -127t-56.5 -115l-219 -405h-201z" />
<glyph unicode="Y" horiz-adv-x="1090" d="M-2 1504h204l194 -423q37 -83 72 -163t73 -165h10q39 85 78 165t73 163l193 423h199l-452 -922v-582h-193v582z" />
<glyph unicode="Z" horiz-adv-x="1235" d="M103 0v114l792 1230h-720v160h958v-112l-794 -1230h801v-162h-1037z" />
<glyph unicode="[" horiz-adv-x="694" d="M216 -348v1972h410v-108h-269v-1757h269v-107h-410z" />
<glyph unicode="\" horiz-adv-x="801" d="M32 1628h136l612 -1995h-136z" />
<glyph unicode="]" horiz-adv-x="694" d="M71 -241h266v1757h-266v108h408v-1972h-408v107z" />
<glyph unicode="^" horiz-adv-x="1139" d="M138 652l348 885h168l348 -885h-164l-150 403l-112 305h-9l-116 -305l-149 -403h-164z" />
<glyph unicode="_" horiz-adv-x="1146" d="M28 -162h1091v-127h-1091v127z" />
<glyph unicode="`" horiz-adv-x="1243" d="M368 1637h197l206 -322h-145z" />
<glyph unicode="a" horiz-adv-x="1173" d="M133 289q0 184 164 281.5t522 136.5q0 52 -10 102.5t-36.5 90t-70 63.5t-113.5 24q-98 0 -181.5 -37t-151.5 -83l-75 131q79 50 191 97t247 47q204 0 296 -124.5t92 -334.5v-683h-156l-17 133h-4q-81 -66 -173.5 -113.5t-195.5 -47.5q-142 0 -235 83t-93 234zM319 302 q0 -96 56 -137t139 -41q81 0 152.5 37.5t152.5 111.5v309q-140 -18 -236.5 -43t-154.5 -59.5t-83.5 -79.5t-25.5 -98z" />
<glyph unicode="b" horiz-adv-x="1272" d="M188 0v1633h188v-445l-4 -201q76 66 165 110.5t183 44.5q108 0 190.5 -40t138.5 -114.5t85 -179t29 -232.5q0 -143 -39 -255.5t-105.5 -190t-154 -118t-183.5 -40.5q-78 0 -161.5 36t-156.5 102h-8l-16 -110h-151zM376 248q74 -64 146 -90.5t128 -26.5q68 0 126 31 t101 87t67 138.5t24 185.5q0 92 -16 167.5t-51.5 129.5t-91.5 84t-135 30q-135 0 -298 -152v-584z" />
<glyph unicode="c" horiz-adv-x="1044" d="M105 556q0 140 44 248.5t117 184t170.5 114.5t205.5 39q110 0 189.5 -40t136.5 -93l-94 -121q-51 44 -104.5 71.5t-119.5 27.5q-77 0 -141 -31.5t-110 -88.5t-72.5 -136t-26.5 -175q0 -97 25.5 -175.5t70 -134.5t109 -86.5t139.5 -30.5q81 0 146.5 33t115.5 79l85 -125 q-76 -66 -169 -105t-194 -39q-109 0 -205.5 39t-166.5 113.5t-110.5 184t-40.5 247.5z" />
<glyph unicode="d" horiz-adv-x="1272" d="M108 556q0 135 40 243.5t106.5 184.5t153.5 117t183 41q97 0 168 -34.5t145 -93.5l-9 190v429h190v-1633h-157l-15 131h-7q-66 -64 -152 -111.5t-185 -47.5q-211 0 -336 152t-125 432zM302 558q0 -202 81 -314.5t227 -112.5q79 0 147 37.5t138 115.5v583 q-71 64 -137 90.5t-134 26.5q-66 0 -125 -31t-102.5 -87t-69 -134t-25.5 -174z" />
<glyph unicode="e" horiz-adv-x="1136" d="M105 556q0 137 42.5 246t112.5 184.5t160 115.5t186 40q105 0 188.5 -37t140 -105.5t86.5 -165t30 -215.5q0 -61 -7 -103h-753q11 -181 111.5 -286.5t260.5 -105.5q81 0 148 24t130 63l66 -124q-74 -46 -163 -80.5t-204 -34.5q-112 0 -209.5 40.5t-170 115t-114 182.5 t-41.5 246zM289 640h597q0 172 -72.5 262.5t-203.5 90.5q-59 0 -113.5 -24t-98 -68.5t-72 -110t-37.5 -150.5z" />
<glyph unicode="f" horiz-adv-x="669" d="M68 961v142l153 11v177q0 173 79 271.5t245 98.5q53 0 100 -10.5t86 -26.5l-41 -144q-62 28 -126 28q-155 0 -155 -217v-177h235v-153h-235v-961h-188v961h-153z" />
<glyph unicode="g" horiz-adv-x="1155" d="M103 -213q0 71 43.5 135.5t120.5 116.5v9q-42 26 -70.5 70t-28.5 112q0 70 38.5 122.5t82.5 83.5v9q-55 46 -100 122.5t-45 178.5q0 92 33.5 165t91 125t134 79t161.5 27q46 0 86 -7.5t72 -20.5h388v-144h-230q40 -39 66 -98.5t26 -130.5q0 -89 -32 -161.5t-86.5 -121.5 t-129 -77t-160.5 -28q-41 0 -84.5 10.5t-83.5 28.5q-30 -26 -50 -56.5t-20 -76.5q0 -53 41.5 -87t155.5 -34h215q195 0 293 -63.5t98 -203.5q0 -78 -39 -147.5t-112.5 -122t-177.5 -84t-236 -31.5q-103 0 -188 19.5t-145.5 59t-94 94t-33.5 128.5zM269 -188 q0 -90 85.5 -142.5t236.5 -52.5q81 0 146.5 19.5t111.5 50.5t71 72.5t25 84.5q0 79 -57.5 108.5t-167.5 29.5h-192q-33 0 -70.5 3.5t-74.5 14.5q-59 -44 -86.5 -92t-27.5 -96zM328 746q0 -62 18.5 -111.5t51.5 -84t75.5 -53t90.5 -18.5q49 0 91.5 18.5t75.5 53t51.5 83.5 t18.5 112q0 124 -69 191.5t-168 67.5q-98 0 -167 -68t-69 -191z" />
<glyph unicode="h" horiz-adv-x="1247" d="M188 0v1633h188v-445l-6 -229q80 76 167 129.5t204 53.5q177 0 258.5 -110t81.5 -325v-707h-188v681q0 158 -50.5 228t-161.5 70q-87 0 -153.5 -43t-151.5 -128v-808h-188z" />
<glyph unicode="i" horiz-adv-x="563" d="M153 1466q0 55 38.5 88t92.5 33q55 0 93.5 -33t38.5 -88q0 -53 -38.5 -87.5t-93.5 -34.5q-54 0 -92.5 34.5t-38.5 87.5zM188 0v1114h188v-1114h-188z" />
<glyph unicode="j" horiz-adv-x="565" d="M-92 -468l39 142q21 -7 48 -12.5t58 -5.5q83 0 110 57t27 160v1241h189v-1241q0 -170 -69 -270t-236 -100q-53 0 -94.5 9t-71.5 20zM156 1466q0 55 38 88t93 33q52 0 90.5 -33t38.5 -88q0 -53 -38.5 -87.5t-90.5 -34.5q-55 0 -93 34.5t-38 87.5z" />
<glyph unicode="k" horiz-adv-x="1134" d="M188 0v1633h186v-1105h7l475 586h208l-374 -446l424 -668h-206l-326 536l-208 -243v-293h-186z" />
<glyph unicode="l" horiz-adv-x="584" d="M188 225v1408h188v-1422q0 -46 16.5 -64t36.5 -18h17.5t23.5 4l25 -142q-18 -9 -43 -14t-64 -5q-108 0 -154 64.5t-46 188.5z" />
<glyph unicode="m" horiz-adv-x="1900" d="M188 0v1114h156l17 -160h6q74 81 160 134.5t186 53.5q129 0 201.5 -56t105.5 -158q88 97 176.5 155.5t191.5 58.5q172 0 255.5 -110t83.5 -325v-707h-188v681q0 158 -50.5 228t-155.5 70q-127 0 -280 -171v-808h-188v681q0 158 -50.5 228t-158.5 70q-126 0 -280 -171 v-808h-188z" />
<glyph unicode="n" horiz-adv-x="1254" d="M188 0v1114h156l17 -160h6q81 81 169 134.5t205 53.5q177 0 258.5 -110t81.5 -325v-707h-188v681q0 158 -50.5 228t-161.5 70q-87 0 -153.5 -43t-151.5 -128v-808h-188z" />
<glyph unicode="o" horiz-adv-x="1243" d="M105 556q0 140 42.5 248.5t114 184t164.5 114.5t196 39t196 -39t164 -114.5t113.5 -184t42.5 -248.5q0 -138 -42.5 -247.5t-113.5 -184t-164 -113.5t-196 -39t-196 39t-164.5 113.5t-114 184t-42.5 247.5zM300 556q0 -97 23 -175.5t65.5 -134.5t102.5 -86.5t131 -30.5 q70 0 130 30.5t102.5 86.5t65.5 134.5t23 175.5q0 96 -23 175t-65.5 136t-102.5 88.5t-130 31.5q-71 0 -131 -31.5t-102.5 -88.5t-65.5 -136t-23 -175z" />
<glyph unicode="p" horiz-adv-x="1272" d="M188 -470v1584h156l17 -127h6q77 64 167 109.5t188 45.5q108 0 191 -40t137.5 -114.5t83.5 -179t29 -235.5q0 -142 -39 -253.5t-105.5 -189t-154 -118t-183.5 -40.5q-78 0 -155 34.5t-154 94.5l4 -195v-376h-188zM376 248q76 -64 147 -90.5t127 -26.5q68 0 126 31t101 87 t67 138.5t24 185.5q0 92 -16 167.5t-51.5 129.5t-91.5 84t-135 30q-70 0 -142.5 -39t-155.5 -113v-584z" />
<glyph unicode="q" horiz-adv-x="1261" d="M108 556q0 135 40 243.5t106.5 184.5t153.5 117t183 41q97 0 170 -33t150 -100h4l19 105h151v-1584h-190v396l9 198q-66 -61 -152.5 -106.5t-182.5 -45.5q-211 0 -336 152t-125 432zM302 558q0 -202 81 -314.5t227 -112.5q79 0 147 37.5t138 115.5v583q-71 64 -137 90.5 t-134 26.5q-66 0 -125 -31t-102.5 -87t-69 -134t-25.5 -174z" />
<glyph unicode="r" horiz-adv-x="795" d="M188 0v1114h156l17 -201h6q57 105 138.5 167t177.5 62q66 0 120 -23l-37 -165q-28 9 -51 13.5t-56 4.5q-71 0 -148.5 -57t-134.5 -199v-716h-188z" />
<glyph unicode="s" horiz-adv-x="960" d="M64 127l94 125q74 -59 150.5 -96t177.5 -37q110 0 165.5 51t55.5 123q0 44 -23 76t-59 56t-82 42.5t-92 37.5q-59 20 -118.5 46.5t-106.5 64.5t-77 88.5t-30 120.5q0 67 26.5 125.5t76 101t120.5 66.5t161 24q105 0 193 -37t153 -89l-90 -119q-57 44 -119 71.5t-135 27.5 q-105 0 -155 -48.5t-50 -113.5q0 -39 21 -67.5t55.5 -49.5t79 -38.5t92.5 -36.5q59 -23 120 -48t109 -63t79.5 -93t31.5 -133q0 -69 -27 -129t-78.5 -105t-128 -72t-175.5 -27q-118 0 -226.5 43.5t-188.5 111.5z" />
<glyph unicode="t" horiz-adv-x="775" d="M55 961v142l175 11l22 313h159v-313h300v-153h-300v-619q0 -103 37.5 -159t133.5 -56q31 0 65 8.5t62 20.5l37 -143q-46 -15 -100.5 -28t-106.5 -13q-90 0 -150.5 28t-98.5 76t-53.5 116.5t-15.5 151.5v617h-166z" />
<glyph unicode="u" horiz-adv-x="1247" d="M172 409v705h191v-681q0 -157 49 -227t159 -70q88 0 154.5 44.5t145.5 143.5v790h189v-1114h-156l-16 175h-8q-78 -92 -163.5 -147.5t-202.5 -55.5q-179 0 -260.5 110.5t-81.5 326.5z" />
<glyph unicode="v" horiz-adv-x="1070" d="M28 1114h195l210 -632q26 -83 52.5 -165.5t50.5 -163.5h9q26 81 51.5 163.5t50.5 165.5l211 632h186l-394 -1114h-221z" />
<glyph unicode="w" horiz-adv-x="1646" d="M55 1114h193l165 -644q18 -80 34.5 -155.5t31.5 -154.5h9q18 79 36.5 155.5t39.5 154.5l172 644h184l174 -644q20 -80 40 -155.5t39 -154.5h9q18 79 34 154.5t34 155.5l163 644h179l-298 -1114h-230l-160 599q-20 81 -37.5 158t-38.5 163h-9q-18 -86 -36.5 -165 t-41.5 -159l-156 -596h-220z" />
<glyph unicode="x" horiz-adv-x="1022" d="M32 0l364 582l-337 532h205l149 -245q26 -46 53 -93t57 -93h9q26 46 51 93t50 93l135 245h197l-337 -552l363 -562h-205l-162 259q-30 50 -60 101t-61 99h-10q-30 -48 -57 -97.5t-55 -102.5l-151 -259h-198z" />
<glyph unicode="y" horiz-adv-x="1070" d="M28 1114h195l226 -617q26 -74 54.5 -155t54.5 -158h9q25 76 47.5 158t46.5 155l199 617h184l-420 -1206q-30 -83 -66.5 -154t-87 -122.5t-115 -81t-149.5 -29.5q-39 0 -71 5.5t-59 16.5l36 150q18 -4 41.5 -10.5t43.5 -6.5q96 0 157.5 68t94.5 171l26 83z" />
<glyph unicode="z" horiz-adv-x="974" d="M71 0v101l588 860h-523v153h761v-100l-588 -861h606v-153h-844z" />
<glyph unicode="{" horiz-adv-x="694" d="M78 578v120q58 0 96.5 15.5t60 39.5t31.5 56.5t10 64.5q0 116 -11 217.5t-11 227.5q0 177 67 241t202 64h103v-108h-62q-94 0 -124.5 -48t-30.5 -161q0 -105 6.5 -201.5t6.5 -212.5q0 -112 -32.5 -171t-105.5 -80v-9q74 -20 106 -80t32 -170q0 -116 -6.5 -212.5 t-6.5 -202.5q0 -112 30.5 -160.5t124.5 -48.5h62v-107h-103q-135 0 -202 63.5t-67 240.5q0 62 3.5 118.5t7.5 109t7.5 105.5t3.5 110q0 34 -10 65t-31.5 56t-60 41.5t-96.5 16.5z" />
<glyph unicode="|" horiz-adv-x="552" d="M211 -573v2293h133v-2293h-133z" />
<glyph unicode="}" horiz-adv-x="694" d="M71 -241h60q94 0 125 48.5t31 160.5q0 105 -5.5 202t-5.5 213q0 110 30.5 170t104.5 80v9q-74 20 -104.5 79t-30.5 172q0 116 5.5 212.5t5.5 201.5q0 112 -31 160.5t-125 48.5h-60v108h101q69 0 119.5 -15t84 -49.5t49 -93t15.5 -147.5q0 -126 -10 -227t-10 -218 q0 -66 41.5 -120t155.5 -56v-120q-57 0 -95 -16.5t-61 -41.5t-32 -56t-9 -65q0 -57 3.5 -110t6.5 -105.5t6.5 -109t3.5 -118.5q0 -89 -15.5 -147.5t-49 -93t-84 -49t-119.5 -14.5h-101v107z" />
<glyph unicode="~" horiz-adv-x="1139" d="M83 718q61 110 137 158t150 48q68 0 121.5 -29.5t101 -66t91 -67t91.5 -30.5q50 0 94 34t83 106l105 -77q-61 -110 -137 -157.5t-149 -47.5q-69 0 -123 30.5t-101 66.5t-90.5 66t-91.5 30q-50 0 -94 -33t-83 -107z" />
<glyph unicode="&#xa1;" horiz-adv-x="661" d="M195 1000q0 62 40.5 102t97.5 40q55 0 95 -40t40 -102q0 -66 -40 -106.5t-95 -40.5q-57 0 -97.5 40.5t-40.5 106.5zM236 -422l5 216l26 867h129l26 -867l5 -216h-191z" />
<glyph unicode="&#xa2;" horiz-adv-x="1139" d="M140 711q0 119 35.5 213t97.5 163t147 111.5t181 55.5v243h119v-236q101 -4 174.5 -43t125.5 -89l-92 -120q-45 42 -96.5 67t-111.5 29v-788q74 4 133.5 35t105.5 72l83 -119q-66 -60 -149 -98.5t-173 -46.5v-236h-119v238q-103 12 -188 54.5t-146 111t-94 165t-33 218.5 zM328 711q0 -153 71 -254.5t202 -130.5v768q-126 -30 -199.5 -131t-73.5 -252z" />
<glyph unicode="&#xa3;" horiz-adv-x="1139" d="M122 654v119l154 9h41q-22 74 -42.5 144t-20.5 142q0 97 31.5 175.5t87.5 133t134 84.5t174 30q124 0 210 -49.5t146 -122.5l-111 -108q-43 52 -98 87t-132 35q-125 0 -190.5 -74.5t-65.5 -194.5q0 -74 17.5 -141t37.5 -141h365v-128h-335q5 -32 8 -63t3 -66 q0 -122 -36 -202t-106 -151v-10h645v-162h-915v114q117 64 180 173t63 241q0 32 -5 63t-11 63h-229z" />
<glyph unicode="&#xa4;" horiz-adv-x="1139" d="M59 339l147 149q-39 53 -60.5 119.5t-21.5 147.5t22 148t60 120l-147 152l101 103l157 -161q110 85 254 85q66 0 133 -22t119 -63l156 161l102 -103l-150 -152q39 -53 62 -121t23 -147q0 -81 -23 -147.5t-62 -119.5l150 -149l-102 -103l-156 158q-52 -43 -119 -65 t-133 -22q-147 0 -254 87l-157 -158zM298 755q0 -68 22 -125t59 -98t87 -63t105 -22t104.5 22t86.5 63t58.5 97t21.5 126q0 68 -21.5 124.5t-58.5 97.5t-86.5 63t-104.5 22t-105 -22t-87 -63t-59 -97.5t-22 -124.5z" />
<glyph unicode="&#xa5;" horiz-adv-x="1139" d="M53 1464h197l179 -393q35 -76 68 -152.5t70 -156.5h9q39 80 72 157t68 152l179 393h193l-377 -735h326v-107h-374v-149h374v-110h-374v-363h-188v363h-372v110h372v149h-372v107h324z" />
<glyph unicode="&#xa6;" horiz-adv-x="552" d="M211 491h133v-1064h-133v1064zM211 668v1052h133v-1052h-133z" />
<glyph unicode="&#xa7;" horiz-adv-x="1139" d="M103 786q0 101 55 175t142 122q-35 37 -54 82.5t-19 105.5t22 113.5t67 95t108.5 65.5t151.5 24q109 0 197.5 -39t154.5 -92l-90 -121q-55 46 -117 75.5t-139 29.5q-96 0 -138.5 -42.5t-42.5 -101.5q0 -62 47 -103.5t118 -76t153 -68.5t153 -83.5t118 -119.5t47 -175 q0 -110 -54.5 -178.5t-140.5 -118.5q33 -39 51 -83.5t18 -103.5q0 -68 -27.5 -126t-77 -99.5t-117 -65.5t-148.5 -24q-124 0 -224.5 44t-172.5 119l115 103q57 -55 123.5 -87t158.5 -32t143.5 46t51.5 112q0 64 -47 107.5t-116.5 78.5t-152.5 68t-153 81t-117 118t-47 175z M269 799q0 -77 46 -126t115.5 -85.5t151 -70t152.5 -75.5q66 33 101.5 76.5t35.5 118.5q0 79 -45.5 129t-114.5 88.5t-150.5 70t-151.5 73.5q-66 -37 -103 -83t-37 -116z" />
<glyph unicode="&#xa8;" horiz-adv-x="1243" d="M313 1462q0 48 30.5 80t81.5 32q48 0 80 -32t32 -80q0 -49 -32 -81.5t-80 -32.5q-51 0 -81.5 32.5t-30.5 81.5zM707 1462q0 48 32 80t80 32q51 0 81.5 -32t30.5 -80q0 -49 -30.5 -81.5t-81.5 -32.5q-48 0 -80 32.5t-32 81.5z" />
<glyph unicode="&#xa9;" horiz-adv-x="1705" d="M112 741q0 175 60 314.5t160.5 238t236 151t284.5 52.5t283.5 -52.5t236.5 -151t161.5 -238.5t59.5 -314q0 -177 -59.5 -318t-161.5 -240.5t-236.5 -154t-283.5 -54.5t-284.5 54.5t-236 154t-160.5 240.5t-60 318zM221 741q0 -151 50 -274t136 -211t200.5 -136.5 t245.5 -48.5t245.5 48.5t200.5 136.5t136.5 210.5t50.5 274.5q0 149 -50.5 272t-136.5 209.5t-200.5 133.5t-245.5 47t-245.5 -47t-200.5 -133.5t-136 -209.5t-50 -272zM455 741q0 99 35 179t93.5 137t135.5 87.5t159 30.5q96 0 164 -38t123 -93l-80 -90q-46 46 -93 70 t-106 24q-127 0 -203.5 -86t-76.5 -221q0 -151 74.5 -239.5t197.5 -88.5q74 0 129 28.5t105 72.5l70 -96q-64 -55 -136 -93t-175 -38q-87 0 -162.5 30.5t-132.5 89.5t-89 143t-32 191z" />
<glyph unicode="&#xaa;" horiz-adv-x="790" d="M85 810q0 122 108.5 184.5t347.5 86.5q-2 74 -32 121.5t-110 47.5q-60 0 -123 -24t-108 -53l-54 96q57 37 136.5 68t169.5 31q138 0 200.5 -81t62.5 -227v-450h-114l-16 86h-10q-46 -42 -103 -73.5t-128 -31.5q-103 0 -165 60t-62 159zM225 821q0 -59 34 -86.5t94 -27.5 q89 0 188 92v194q-177 -20 -246.5 -63.5t-69.5 -108.5z" />
<glyph unicode="&#xab;" horiz-adv-x="983" d="M103 507v143l313 355l81 -69l-270 -358l270 -362l-81 -65zM466 507v143l313 355l81 -69l-270 -358l270 -362l-81 -65z" />
<glyph unicode="&#xac;" horiz-adv-x="1139" d="M78 685v143h984v-589h-151v446h-833z" />
<glyph unicode="&#xad;" horiz-adv-x="712" d="M94 503v144h528v-144h-528z" />
<glyph unicode="&#xae;" horiz-adv-x="969" d="M53 1184q0 101 34.5 183t93 142t136 93t167.5 33q89 0 168 -33t138 -93t93 -142t34 -183t-34 -184t-93 -142t-138 -93t-168 -34q-90 0 -167.5 34t-136 93t-93 142t-34.5 184zM144 1184q0 -83 26.5 -151t71.5 -116t106.5 -74.5t135.5 -26.5q70 0 133.5 26.5t109.5 74.5 t72 116t26 151q0 80 -26 147.5t-72 116.5t-108.5 76.5t-134.5 27.5q-74 0 -135.5 -27.5t-106.5 -76.5t-71.5 -117t-26.5 -147zM319 956v466h174q74 0 126.5 -33.5t52.5 -115.5q0 -41 -23 -77t-62 -49l105 -191h-105l-80 161h-94v-161h-94zM413 1191h60q98 0 98 78 q0 35 -20.5 55t-73.5 20h-64v-153z" />
<glyph unicode="&#xaf;" horiz-adv-x="1243" d="M340 1379v131h564v-131h-564z" />
<glyph unicode="&#xb0;" horiz-adv-x="758" d="M94 1276q0 68 23 122t63.5 93t92 59.5t108.5 20.5t108.5 -20.5t92 -59.5t63.5 -93t23 -122q0 -66 -23 -120.5t-63.5 -92.5t-92 -58.5t-108.5 -20.5t-108.5 20.5t-92 58.5t-63.5 91.5t-23 121.5zM208 1276q0 -81 48.5 -133.5t124.5 -52.5t124 52.5t48 133.5 q0 85 -48 137.5t-124 52.5t-124.5 -53t-48.5 -137z" />
<glyph unicode="&#xb1;" horiz-adv-x="1139" d="M78 0v142h984v-142h-984zM78 698v142h417v436h149v-436h418v-142h-418v-407h-149v407h-417z" />
<glyph unicode="&#xb2;" horiz-adv-x="841" d="M92 1757q52 79 129 126.5t169 47.5q135 0 216.5 -73.5t81.5 -215.5q0 -64 -25.5 -124t-70 -120.5t-105 -125t-132.5 -136.5h379v-127h-615v85q103 94 183.5 168.5t133 136t80 116t27.5 104.5q0 88 -46 138.5t-125 50.5q-57 0 -105.5 -38.5t-87.5 -92.5z" />
<glyph unicode="&#xb3;" horiz-adv-x="841" d="M81 1156l98 76q42 -62 99 -97.5t127 -35.5q74 0 127 41t53 119t-73.5 118.5t-204.5 40.5v94q116 0 180 45.5t64 114.5q0 64 -45 103t-118 39q-51 0 -97 -30.5t-85 -76.5l-90 77q60 66 130.5 106.5t164.5 40.5q57 0 108.5 -16t91 -47t62.5 -76t23 -102q0 -81 -44 -134.5 t-113 -85.5q76 -17 134 -74t58 -146q0 -62 -25 -111t-68.5 -85t-102 -54.5t-122.5 -18.5q-109 0 -194.5 49.5t-137.5 125.5z" />
<glyph unicode="&#xb4;" horiz-adv-x="1243" d="M473 1315l206 322h197l-258 -322h-145z" />
<glyph unicode="&#xb5;" horiz-adv-x="1261" d="M188 -459v1573h188v-681q0 -157 50.5 -227t160.5 -70q87 0 152.5 44.5t146.5 143.5v790h187v-1114h-156l-15 175h-5q-66 -90 -145.5 -141.5t-175.5 -51.5q-66 0 -119.5 19t-91.5 80l11 -208v-332h-188z" />
<glyph unicode="&#xb6;" horiz-adv-x="1283" d="M94 1016q0 135 41.5 228t116 151.5t175.5 83.5t220 25h101v-985h-76q-124 0 -230.5 28.5t-183.5 89.5t-120.5 155t-43.5 224zM871 -184v1688h193v-1688h-193z" />
<glyph unicode="&#xb7;" horiz-adv-x="570" d="M149 736q0 66 40.5 106.5t97.5 40.5q55 0 95 -40t40 -107q0 -61 -40 -101.5t-95 -40.5q-57 0 -97.5 40.5t-40.5 101.5z" />
<glyph unicode="&#xb8;" horiz-adv-x="1243" d="M440 -394q92 11 148 37.5t56 72.5q0 45 -37.5 69.5t-107.5 42.5l92 179h122l-58 -121q55 -18 95.5 -55t40.5 -109q0 -50 -27.5 -86.5t-73.5 -61.5t-106.5 -40.5t-125.5 -21.5z" />
<glyph unicode="&#xb9;" horiz-adv-x="841" d="M199 1716v96q77 13 127 35t96 57h119v-895h-147v707h-195z" />
<glyph unicode="&#xba;" horiz-adv-x="836" d="M68 979q0 92 28 164t76.5 122t111 76.5t134.5 26.5q70 0 133.5 -26.5t111.5 -76.5t75.5 -122t27.5 -164t-27.5 -163.5t-75.5 -121.5t-111.5 -76.5t-133.5 -26.5q-71 0 -134 26.5t-111.5 76.5t-76.5 122t-28 163zM213 979q0 -122 54 -196t151 -74q96 0 148.5 74.5 t52.5 195.5q0 124 -52.5 197.5t-148.5 73.5q-97 0 -151 -73.5t-54 -197.5z" />
<glyph unicode="&#xbb;" horiz-adv-x="983" d="M124 216l270 362l-270 358l80 69l315 -355v-143l-315 -356zM487 216l270 362l-270 358l80 69l315 -355v-143l-315 -356z" />
<glyph unicode="&#xbc;" horiz-adv-x="1790" d="M146 1317v96q77 13 127 35t96 57h119v-895h-147v707h-195zM413 -28l830 1560h129l-830 -1560h-129zM1044 239v76l377 580h164v-551h134v-105h-134v-239h-132v239h-409zM1198 344h255v161l9 250h-9l-115 -186z" />
<glyph unicode="&#xbd;" horiz-adv-x="1852" d="M146 1317v96q77 13 127 35t96 57h119v-895h-147v707h-195zM365 -28l830 1560h129l-830 -1560h-129zM1103 748q52 79 129 126.5t169 47.5q135 0 216.5 -73.5t81.5 -215.5q0 -64 -25.5 -124t-70 -120.5t-105 -125t-132.5 -136.5h379v-127h-615v85q103 94 183.5 168.5 t133 136t80 116t27.5 104.5q0 88 -46 138.5t-125 50.5q-57 0 -105.5 -38.5t-87.5 -92.5z" />
<glyph unicode="&#xbe;" horiz-adv-x="1825" d="M81 757l98 76q42 -62 99 -97.5t127 -35.5q74 0 127 41t53 119t-73.5 118.5t-204.5 40.5v94q116 0 180 45.5t64 114.5q0 64 -45 103t-118 39q-51 0 -97 -30.5t-85 -76.5l-90 77q60 66 130.5 106.5t164.5 40.5q57 0 108.5 -16t91 -47t62.5 -76t23 -102q0 -81 -44 -134.5 t-113 -85.5q76 -17 134 -74t58 -146q0 -62 -25 -111t-68.5 -85t-102 -54.5t-122.5 -18.5q-109 0 -194.5 49.5t-137.5 125.5zM497 -28l830 1560h129l-830 -1560h-129zM1078 239v76l377 580h164v-551h134v-105h-134v-239h-132v239h-409zM1232 344h255v161l9 250h-9l-115 -186z " />
<glyph unicode="&#xbf;" horiz-adv-x="974" d="M110 -83q0 76 27.5 137.5t67.5 117t85 109.5t82 111t57 122.5t11 146.5h168q11 -90 -7.5 -162t-52.5 -133t-79 -114t-84 -104.5t-65.5 -105t-26.5 -113.5q0 -91 55 -155.5t168 -64.5q76 0 142.5 34t118.5 97l111 -99q-74 -80 -168 -135t-217 -55q-179 0 -286 97.5 t-107 268.5zM383 1000q0 62 40.5 102t97.5 40q55 0 95 -40t40 -102q0 -66 -40 -106.5t-95 -40.5q-57 0 -97.5 40.5t-40.5 106.5z" />
<glyph unicode="&#xc0;" horiz-adv-x="1247" d="M7 0l509 1504h215l510 -1504h-204l-142 459h-549l-144 -459h-195zM322 1876h215l201 -256h-157zM394 613h453l-72 229q-41 127 -77.5 251t-73.5 255h-9q-35 -131 -71.5 -255.5t-77.5 -250.5z" />
<glyph unicode="&#xc1;" horiz-adv-x="1247" d="M7 0l509 1504h215l510 -1504h-204l-142 459h-549l-144 -459h-195zM394 613h453l-72 229q-41 127 -77.5 251t-73.5 255h-9q-35 -131 -71.5 -255.5t-77.5 -250.5zM506 1620l201 256h215l-259 -256h-157z" />
<glyph unicode="&#xc2;" horiz-adv-x="1247" d="M7 0l509 1504h215l510 -1504h-204l-142 459h-549l-144 -459h-195zM310 1620l220 256h184l220 -256h-154l-154 155h-8l-154 -155h-154zM394 613h453l-72 229q-41 127 -77.5 251t-73.5 255h-9q-35 -131 -71.5 -255.5t-77.5 -250.5z" />
<glyph unicode="&#xc3;" horiz-adv-x="1247" d="M7 0l509 1504h215l510 -1504h-204l-142 459h-549l-144 -459h-195zM289 1631q12 107 62 177t133 70q46 0 83 -18t68 -41t60.5 -41t62.5 -18q32 0 57 30.5t34 87.5h106q-12 -105 -62 -176t-133 -71q-46 0 -83 18.5t-68 41.5t-60.5 41.5t-62.5 18.5q-32 0 -57 -30.5 t-34 -89.5h-106zM394 613h453l-72 229q-41 127 -77.5 251t-73.5 255h-9q-35 -131 -71.5 -255.5t-77.5 -250.5z" />
<glyph unicode="&#xc4;" horiz-adv-x="1247" d="M7 0l509 1504h215l510 -1504h-204l-142 459h-549l-144 -459h-195zM313 1753q0 50 30.5 81t81.5 31q48 0 80 -31t32 -81q0 -48 -32 -80.5t-80 -32.5q-51 0 -81.5 32.5t-30.5 80.5zM394 613h453l-72 229q-41 127 -77.5 251t-73.5 255h-9q-35 -131 -71.5 -255.5 t-77.5 -250.5zM707 1753q0 50 32 81t80 31q51 0 81.5 -31t30.5 -81q0 -48 -30.5 -80.5t-81.5 -32.5q-48 0 -80 32.5t-32 80.5z" />
<glyph unicode="&#xc5;" horiz-adv-x="1247" d="M7 0l509 1504h215l510 -1504h-204l-142 459h-549l-144 -459h-195zM394 613h453l-72 229q-41 127 -77.5 251t-73.5 255h-9q-35 -131 -71.5 -255.5t-77.5 -250.5zM409 1805q0 92 59.5 147t153.5 55q92 0 152.5 -55t60.5 -147q0 -94 -60.5 -147.5t-152.5 -53.5 q-94 0 -153.5 53.5t-59.5 147.5zM512 1805q0 -57 32 -88t78 -31q44 0 76 31t32 88q0 53 -32 85t-76 32q-46 0 -78 -32t-32 -85z" />
<glyph unicode="&#xc6;" horiz-adv-x="1884" d="M18 0l790 1504h943v-160h-639v-473h532v-162h-532v-547h661v-162h-853v438h-473l-226 -438h-203zM525 591h395v762h-9q-123 -245 -246 -491z" />
<glyph unicode="&#xc7;" horiz-adv-x="1309" d="M119 753q0 181 51 325.5t140 245.5t211.5 154.5t268.5 53.5q137 0 240 -56t170 -130l-108 -121q-59 64 -131.5 102t-168.5 38q-108 0 -195 -42.5t-149.5 -122t-96.5 -191.5t-34 -252q0 -142 33 -255.5t93 -194t145.5 -124t193.5 -43.5q110 0 191.5 43.5t155.5 123.5 l107 -117q-89 -103 -201.5 -160.5t-257.5 -57.5q-142 0 -262.5 53t-208.5 153t-137.5 245.5t-49.5 329.5zM591 -394q92 11 148 37.5t56 72.5q0 45 -37.5 69.5t-107.5 42.5l92 179h122l-58 -121q55 -18 95.5 -55t40.5 -109q0 -50 -27.5 -86.5t-73.5 -61.5t-106.5 -40.5 t-125.5 -21.5z" />
<glyph unicode="&#xc8;" horiz-adv-x="1208" d="M206 0v1504h867v-160h-677v-473h572v-162h-572v-547h700v-162h-890zM352 1876h215l201 -256h-157z" />
<glyph unicode="&#xc9;" horiz-adv-x="1208" d="M206 0v1504h867v-160h-677v-473h572v-162h-572v-547h700v-162h-890zM536 1620l201 256h215l-259 -256h-157z" />
<glyph unicode="&#xca;" horiz-adv-x="1208" d="M206 0v1504h867v-160h-677v-473h572v-162h-572v-547h700v-162h-890zM340 1620l220 256h184l220 -256h-154l-154 155h-8l-154 -155h-154z" />
<glyph unicode="&#xcb;" horiz-adv-x="1208" d="M206 0v1504h867v-160h-677v-473h572v-162h-572v-547h700v-162h-890zM343 1753q0 50 30.5 81t81.5 31q48 0 80 -31t32 -81q0 -48 -32 -80.5t-80 -32.5q-51 0 -81.5 32.5t-30.5 80.5zM737 1753q0 50 32 81t80 31q51 0 81.5 -31t30.5 -81q0 -48 -30.5 -80.5t-81.5 -32.5 q-48 0 -80 32.5t-32 80.5z" />
<glyph unicode="&#xcc;" horiz-adv-x="602" d="M0 1876h215l201 -256h-157zM206 0v1504h190v-1504h-190z" />
<glyph unicode="&#xcd;" horiz-adv-x="602" d="M184 1620l201 256h215l-259 -256h-157zM206 0v1504h190v-1504h-190z" />
<glyph unicode="&#xce;" horiz-adv-x="602" d="M-12 1620l220 256h184l220 -256h-154l-154 155h-8l-154 -155h-154zM206 0v1504h190v-1504h-190z" />
<glyph unicode="&#xcf;" horiz-adv-x="602" d="M-9 1753q0 50 30.5 81t81.5 31q48 0 80 -31t32 -81q0 -48 -32 -80.5t-80 -32.5q-51 0 -81.5 32.5t-30.5 80.5zM206 0v1504h190v-1504h-190zM385 1753q0 50 32 81t80 31q51 0 81.5 -31t30.5 -81q0 -48 -30.5 -80.5t-81.5 -32.5q-48 0 -80 32.5t-32 80.5z" />
<glyph unicode="&#xd0;" horiz-adv-x="1462" d="M76 736v98l180 10v660h377q348 0 529.5 -192.5t181.5 -552.5q0 -179 -46 -320t-135.5 -238.5t-220 -149t-300.5 -51.5h-386v736h-180zM447 156h172q265 0 396.5 158.5t131.5 444.5q0 287 -132 438t-396 151h-172v-504h343v-108h-343v-580z" />
<glyph unicode="&#xd1;" horiz-adv-x="1484" d="M206 0v1504h197l545 -944l162 -312h9q-7 114 -15 237t-8 242v777h182v-1504h-197l-547 948l-162 309h-9q9 -115 17 -233t8 -238v-786h-182zM415 1631q12 107 62 177t133 70q46 0 83 -18t68 -41t60.5 -41t62.5 -18q32 0 57 30.5t34 87.5h106q-12 -105 -62 -176t-133 -71 q-46 0 -83 18.5t-68 41.5t-60.5 41.5t-62.5 18.5q-32 0 -57 -30.5t-34 -89.5h-106z" />
<glyph unicode="&#xd2;" horiz-adv-x="1522" d="M119 759q0 182 47 325.5t132 243t203 152t261 52.5q142 0 260 -53.5t204 -153.5t133 -243t47 -323q0 -181 -47 -326.5t-133 -247.5t-204 -157.5t-260 -55.5q-143 0 -261 55.5t-203 157.5t-132 247.5t-47 326.5zM317 759q0 -142 32 -255.5t90 -195t140 -125t183 -43.5 q100 0 181.5 43.5t140 125t90.5 195t32 255.5q0 140 -32 252.5t-90.5 190.5t-140 120.5t-181.5 42.5q-101 0 -183 -42.5t-140 -120.5t-90 -190.5t-32 -252.5zM462 1876h215l201 -256h-157z" />
<glyph unicode="&#xd3;" horiz-adv-x="1522" d="M119 759q0 182 47 325.5t132 243t203 152t261 52.5q142 0 260 -53.5t204 -153.5t133 -243t47 -323q0 -181 -47 -326.5t-133 -247.5t-204 -157.5t-260 -55.5q-143 0 -261 55.5t-203 157.5t-132 247.5t-47 326.5zM317 759q0 -142 32 -255.5t90 -195t140 -125t183 -43.5 q100 0 181.5 43.5t140 125t90.5 195t32 255.5q0 140 -32 252.5t-90.5 190.5t-140 120.5t-181.5 42.5q-101 0 -183 -42.5t-140 -120.5t-90 -190.5t-32 -252.5zM646 1620l201 256h215l-259 -256h-157z" />
<glyph unicode="&#xd4;" horiz-adv-x="1522" d="M119 759q0 182 47 325.5t132 243t203 152t261 52.5q142 0 260 -53.5t204 -153.5t133 -243t47 -323q0 -181 -47 -326.5t-133 -247.5t-204 -157.5t-260 -55.5q-143 0 -261 55.5t-203 157.5t-132 247.5t-47 326.5zM317 759q0 -142 32 -255.5t90 -195t140 -125t183 -43.5 q100 0 181.5 43.5t140 125t90.5 195t32 255.5q0 140 -32 252.5t-90.5 190.5t-140 120.5t-181.5 42.5q-101 0 -183 -42.5t-140 -120.5t-90 -190.5t-32 -252.5zM450 1620l220 256h184l220 -256h-154l-154 155h-8l-154 -155h-154z" />
<glyph unicode="&#xd5;" horiz-adv-x="1522" d="M119 759q0 182 47 325.5t132 243t203 152t261 52.5q142 0 260 -53.5t204 -153.5t133 -243t47 -323q0 -181 -47 -326.5t-133 -247.5t-204 -157.5t-260 -55.5q-143 0 -261 55.5t-203 157.5t-132 247.5t-47 326.5zM317 759q0 -142 32 -255.5t90 -195t140 -125t183 -43.5 q100 0 181.5 43.5t140 125t90.5 195t32 255.5q0 140 -32 252.5t-90.5 190.5t-140 120.5t-181.5 42.5q-101 0 -183 -42.5t-140 -120.5t-90 -190.5t-32 -252.5zM429 1631q12 107 62 177t133 70q46 0 83 -18t68 -41t60.5 -41t62.5 -18q32 0 57 30.5t34 87.5h106 q-12 -105 -62 -176t-133 -71q-46 0 -83 18.5t-68 41.5t-60.5 41.5t-62.5 18.5q-32 0 -57 -30.5t-34 -89.5h-106z" />
<glyph unicode="&#xd6;" horiz-adv-x="1522" d="M119 759q0 182 47 325.5t132 243t203 152t261 52.5q142 0 260 -53.5t204 -153.5t133 -243t47 -323q0 -181 -47 -326.5t-133 -247.5t-204 -157.5t-260 -55.5q-143 0 -261 55.5t-203 157.5t-132 247.5t-47 326.5zM317 759q0 -142 32 -255.5t90 -195t140 -125t183 -43.5 q100 0 181.5 43.5t140 125t90.5 195t32 255.5q0 140 -32 252.5t-90.5 190.5t-140 120.5t-181.5 42.5q-101 0 -183 -42.5t-140 -120.5t-90 -190.5t-32 -252.5zM453 1753q0 50 30.5 81t81.5 31q48 0 80 -31t32 -81q0 -48 -32 -80.5t-80 -32.5q-51 0 -81.5 32.5t-30.5 80.5z M847 1753q0 50 32 81t80 31q51 0 81.5 -31t30.5 -81q0 -48 -30.5 -80.5t-81.5 -32.5q-48 0 -80 32.5t-32 80.5z" />
<glyph unicode="&#xd7;" horiz-adv-x="1139" d="M114 392l356 365l-356 362l102 104l355 -365l353 365l101 -104l-355 -362l355 -365l-101 -103l-353 367l-355 -367z" />
<glyph unicode="&#xd8;" horiz-adv-x="1522" d="M114 13l162 210q-74 101 -113 236t-39 300q0 182 47 325.5t133 243t204 152t260 52.5q239 0 401 -144l146 186l105 -81l-159 -206q71 -99 110.5 -231t39.5 -297q0 -181 -47 -326.5t-133 -247.5t-204.5 -157.5t-258.5 -55.5q-118 0 -220.5 38t-182.5 112l-144 -190z M321 759q0 -220 78 -376l661 858q-117 124 -292 124q-100 0 -182.5 -42.5t-141.5 -120.5t-91 -190.5t-32 -252.5zM477 267q57 -60 130.5 -93.5t160.5 -33.5q101 0 183 43.5t140 125t90 195t32 255.5q0 110 -19 202t-56 166z" />
<glyph unicode="&#xd9;" horiz-adv-x="1478" d="M199 622v882h191v-887q0 -135 27.5 -227t74.5 -147t111.5 -79t137.5 -24q77 0 140.5 24t112 79t75.5 147t27 227v887h184v-882q0 -182 -41.5 -305.5t-113.5 -200.5t-170.5 -110.5t-213.5 -33.5q-114 0 -214 33.5t-172.5 110.5t-114 200.5t-41.5 305.5zM438 1876h215 l201 -256h-157z" />
<glyph unicode="&#xda;" horiz-adv-x="1478" d="M199 622v882h191v-887q0 -135 27.5 -227t74.5 -147t111.5 -79t137.5 -24q77 0 140.5 24t112 79t75.5 147t27 227v887h184v-882q0 -182 -41.5 -305.5t-113.5 -200.5t-170.5 -110.5t-213.5 -33.5q-114 0 -214 33.5t-172.5 110.5t-114 200.5t-41.5 305.5zM622 1620l201 256 h215l-259 -256h-157z" />
<glyph unicode="&#xdb;" horiz-adv-x="1478" d="M199 622v882h191v-887q0 -135 27.5 -227t74.5 -147t111.5 -79t137.5 -24q77 0 140.5 24t112 79t75.5 147t27 227v887h184v-882q0 -182 -41.5 -305.5t-113.5 -200.5t-170.5 -110.5t-213.5 -33.5q-114 0 -214 33.5t-172.5 110.5t-114 200.5t-41.5 305.5zM426 1620l220 256 h184l220 -256h-154l-154 155h-8l-154 -155h-154z" />
<glyph unicode="&#xdc;" horiz-adv-x="1478" d="M199 622v882h191v-887q0 -135 27.5 -227t74.5 -147t111.5 -79t137.5 -24q77 0 140.5 24t112 79t75.5 147t27 227v887h184v-882q0 -182 -41.5 -305.5t-113.5 -200.5t-170.5 -110.5t-213.5 -33.5q-114 0 -214 33.5t-172.5 110.5t-114 200.5t-41.5 305.5zM429 1753 q0 50 30.5 81t81.5 31q48 0 80 -31t32 -81q0 -48 -32 -80.5t-80 -32.5q-51 0 -81.5 32.5t-30.5 80.5zM823 1753q0 50 32 81t80 31q51 0 81.5 -31t30.5 -81q0 -48 -30.5 -80.5t-81.5 -32.5q-48 0 -80 32.5t-32 80.5z" />
<glyph unicode="&#xdd;" horiz-adv-x="1090" d="M-2 1504h204l194 -423q37 -83 72 -163t73 -165h10q39 85 78 165t73 163l193 423h199l-452 -922v-582h-193v582zM429 1620l201 256h215l-259 -256h-157z" />
<glyph unicode="&#xde;" horiz-adv-x="1336" d="M206 0v1504h190v-252h272q124 0 227 -23t175 -75.5t112.5 -136t40.5 -207.5q0 -119 -40.5 -207.5t-113.5 -146t-175 -85t-226 -27.5h-272v-344h-190zM396 500h248q197 0 293 73.5t96 236.5q0 162 -96.5 224t-292.5 62h-248v-596z" />
<glyph unicode="&#xdf;" horiz-adv-x="1320" d="M188 0v1182q0 216 117 345t332 129q90 0 160 -26t118 -72t72 -107t24 -129q0 -88 -31.5 -149t-72 -111.5t-72.5 -97.5t-32 -106q0 -55 33 -92t83.5 -65.5t109.5 -58t109 -71t83 -104t33 -152.5q0 -74 -25 -136.5t-73 -107.5t-116 -72t-152 -27q-96 0 -174.5 30t-149.5 83 l76 133q59 -50 117.5 -74.5t125.5 -24.5q96 0 144.5 55.5t48.5 127.5q0 66 -33.5 110.5t-84 76.5t-108.5 60.5t-109 65.5t-84 88.5t-33 130.5t30.5 134t69 105.5t70 103.5t31.5 126q0 87 -47 143t-143 56q-124 0 -191.5 -88t-67.5 -267v-1147h-188z" />
<glyph unicode="&#xe0;" horiz-adv-x="1173" d="M133 289q0 184 164 281.5t522 136.5q0 52 -10 102.5t-36.5 90t-70 63.5t-113.5 24q-98 0 -181.5 -37t-151.5 -83l-75 131q79 50 191 97t247 47q204 0 296 -124.5t92 -334.5v-683h-156l-17 133h-4q-81 -66 -173.5 -113.5t-195.5 -47.5q-142 0 -235 83t-93 234zM319 302 q0 -96 56 -137t139 -41q81 0 152.5 37.5t152.5 111.5v309q-140 -18 -236.5 -43t-154.5 -59.5t-83.5 -79.5t-25.5 -98zM363 1637h197l206 -322h-145z" />
<glyph unicode="&#xe1;" horiz-adv-x="1173" d="M133 289q0 184 164 281.5t522 136.5q0 52 -10 102.5t-36.5 90t-70 63.5t-113.5 24q-98 0 -181.5 -37t-151.5 -83l-75 131q79 50 191 97t247 47q204 0 296 -124.5t92 -334.5v-683h-156l-17 133h-4q-81 -66 -173.5 -113.5t-195.5 -47.5q-142 0 -235 83t-93 234zM319 302 q0 -96 56 -137t139 -41q81 0 152.5 37.5t152.5 111.5v309q-140 -18 -236.5 -43t-154.5 -59.5t-83.5 -79.5t-25.5 -98zM468 1315l206 322h197l-258 -322h-145z" />
<glyph unicode="&#xe2;" horiz-adv-x="1173" d="M133 289q0 184 164 281.5t522 136.5q0 52 -10 102.5t-36.5 90t-70 63.5t-113.5 24q-98 0 -181.5 -37t-151.5 -83l-75 131q79 50 191 97t247 47q204 0 296 -124.5t92 -334.5v-683h-156l-17 133h-4q-81 -66 -173.5 -113.5t-195.5 -47.5q-142 0 -235 83t-93 234zM319 302 q0 -96 56 -137t139 -41q81 0 152.5 37.5t152.5 111.5v309q-140 -18 -236.5 -43t-154.5 -59.5t-83.5 -79.5t-25.5 -98zM321 1315l218 322h156l218 -322h-138l-154 208h-8l-154 -208h-138z" />
<glyph unicode="&#xe3;" horiz-adv-x="1173" d="M133 289q0 184 164 281.5t522 136.5q0 52 -10 102.5t-36.5 90t-70 63.5t-113.5 24q-98 0 -181.5 -37t-151.5 -83l-75 131q79 50 191 97t247 47q204 0 296 -124.5t92 -334.5v-683h-156l-17 133h-4q-81 -66 -173.5 -113.5t-195.5 -47.5q-142 0 -235 83t-93 234zM298 1328 q9 103 55 173t131 70q43 0 80 -18.5t68 -40t58.5 -40t55.5 -18.5q64 0 84 117h106q-9 -103 -55 -173t-131 -70q-43 0 -79 18.5t-67 40t-58.5 40t-57.5 18.5q-64 0 -84 -117h-106zM319 302q0 -96 56 -137t139 -41q81 0 152.5 37.5t152.5 111.5v309q-140 -18 -236.5 -43 t-154.5 -59.5t-83.5 -79.5t-25.5 -98z" />
<glyph unicode="&#xe4;" horiz-adv-x="1173" d="M133 289q0 184 164 281.5t522 136.5q0 52 -10 102.5t-36.5 90t-70 63.5t-113.5 24q-98 0 -181.5 -37t-151.5 -83l-75 131q79 50 191 97t247 47q204 0 296 -124.5t92 -334.5v-683h-156l-17 133h-4q-81 -66 -173.5 -113.5t-195.5 -47.5q-142 0 -235 83t-93 234zM308 1462 q0 48 30.5 80t81.5 32q48 0 80 -32t32 -80q0 -49 -32 -81.5t-80 -32.5q-51 0 -81.5 32.5t-30.5 81.5zM319 302q0 -96 56 -137t139 -41q81 0 152.5 37.5t152.5 111.5v309q-140 -18 -236.5 -43t-154.5 -59.5t-83.5 -79.5t-25.5 -98zM702 1462q0 48 32 80t80 32q51 0 81.5 -32 t30.5 -80q0 -49 -30.5 -81.5t-81.5 -32.5q-48 0 -80 32.5t-32 81.5z" />
<glyph unicode="&#xe5;" horiz-adv-x="1173" d="M133 289q0 184 164 281.5t522 136.5q0 52 -10 102.5t-36.5 90t-70 63.5t-113.5 24q-98 0 -181.5 -37t-151.5 -83l-75 131q79 50 191 97t247 47q204 0 296 -124.5t92 -334.5v-683h-156l-17 133h-4q-81 -66 -173.5 -113.5t-195.5 -47.5q-142 0 -235 83t-93 234zM319 302 q0 -96 56 -137t139 -41q81 0 152.5 37.5t152.5 111.5v309q-140 -18 -236.5 -43t-154.5 -59.5t-83.5 -79.5t-25.5 -98zM404 1456q0 96 59.5 154t153.5 58t153.5 -58t59.5 -154t-59.5 -154.5t-153.5 -58.5t-153.5 58.5t-59.5 154.5zM507 1456q0 -59 32 -93.5t78 -34.5t78 34.5 t32 93.5q0 57 -32 92t-78 35t-78 -34.5t-32 -92.5z" />
<glyph unicode="&#xe6;" horiz-adv-x="1799" d="M133 289q0 184 163 281.5t512 136.5q0 52 -9 102.5t-36 90t-70 63.5t-113 24q-92 0 -174 -37t-150 -83l-75 131q79 50 188.5 97t234.5 47q124 0 204 -63t114 -173q66 110 159.5 173t207.5 63q103 0 182 -37t133.5 -105.5t82 -166t27.5 -216.5q0 -64 -7 -105h-723 q3 -88 31.5 -159t74.5 -121.5t107.5 -77.5t133.5 -27q80 0 144 26t127 65l68 -131q-74 -46 -161 -80.5t-202 -34.5q-140 0 -234 63.5t-158 145.5q-114 -103 -230 -156t-224 -53q-142 0 -235 83t-93 234zM319 302q0 -96 56 -137t139 -41q78 0 169.5 44.5t167.5 127.5 q-18 43 -29.5 104t-13.5 125v57q-134 -18 -227 -43t-151 -59.5t-84.5 -79.5t-26.5 -98zM984 637h564q0 173 -67.5 264.5t-195.5 91.5q-117 0 -201 -95t-100 -261z" />
<glyph unicode="&#xe7;" horiz-adv-x="1044" d="M105 556q0 140 44 248.5t117 184t170.5 114.5t205.5 39q110 0 189.5 -40t136.5 -93l-94 -121q-51 44 -104.5 71.5t-119.5 27.5q-77 0 -141 -31.5t-110 -88.5t-72.5 -136t-26.5 -175q0 -97 25.5 -175.5t70 -134.5t109 -86.5t139.5 -30.5q81 0 146.5 33t115.5 79l85 -125 q-76 -66 -169 -105t-194 -39q-109 0 -205.5 39t-166.5 113.5t-110.5 184t-40.5 247.5zM429 -394q92 11 148 37.5t56 72.5q0 45 -37.5 69.5t-107.5 42.5l92 179h122l-58 -121q55 -18 95.5 -55t40.5 -109q0 -50 -27.5 -86.5t-73.5 -61.5t-106.5 -40.5t-125.5 -21.5z" />
<glyph unicode="&#xe8;" horiz-adv-x="1136" d="M105 556q0 137 42.5 246t112.5 184.5t160 115.5t186 40q105 0 188.5 -37t140 -105.5t86.5 -165t30 -215.5q0 -61 -7 -103h-753q11 -181 111.5 -286.5t260.5 -105.5q81 0 148 24t130 63l66 -124q-74 -46 -163 -80.5t-204 -34.5q-112 0 -209.5 40.5t-170 115t-114 182.5 t-41.5 246zM289 640h597q0 172 -72.5 262.5t-203.5 90.5q-59 0 -113.5 -24t-98 -68.5t-72 -110t-37.5 -150.5zM354 1637h197l206 -322h-145z" />
<glyph unicode="&#xe9;" horiz-adv-x="1136" d="M105 556q0 137 42.5 246t112.5 184.5t160 115.5t186 40q105 0 188.5 -37t140 -105.5t86.5 -165t30 -215.5q0 -61 -7 -103h-753q11 -181 111.5 -286.5t260.5 -105.5q81 0 148 24t130 63l66 -124q-74 -46 -163 -80.5t-204 -34.5q-112 0 -209.5 40.5t-170 115t-114 182.5 t-41.5 246zM289 640h597q0 172 -72.5 262.5t-203.5 90.5q-59 0 -113.5 -24t-98 -68.5t-72 -110t-37.5 -150.5zM459 1315l206 322h197l-258 -322h-145z" />
<glyph unicode="&#xea;" horiz-adv-x="1136" d="M105 556q0 137 42.5 246t112.5 184.5t160 115.5t186 40q105 0 188.5 -37t140 -105.5t86.5 -165t30 -215.5q0 -61 -7 -103h-753q11 -181 111.5 -286.5t260.5 -105.5q81 0 148 24t130 63l66 -124q-74 -46 -163 -80.5t-204 -34.5q-112 0 -209.5 40.5t-170 115t-114 182.5 t-41.5 246zM289 640h597q0 172 -72.5 262.5t-203.5 90.5q-59 0 -113.5 -24t-98 -68.5t-72 -110t-37.5 -150.5zM312 1315l218 322h156l218 -322h-138l-154 208h-8l-154 -208h-138z" />
<glyph unicode="&#xeb;" horiz-adv-x="1136" d="M105 556q0 137 42.5 246t112.5 184.5t160 115.5t186 40q105 0 188.5 -37t140 -105.5t86.5 -165t30 -215.5q0 -61 -7 -103h-753q11 -181 111.5 -286.5t260.5 -105.5q81 0 148 24t130 63l66 -124q-74 -46 -163 -80.5t-204 -34.5q-112 0 -209.5 40.5t-170 115t-114 182.5 t-41.5 246zM289 640h597q0 172 -72.5 262.5t-203.5 90.5q-59 0 -113.5 -24t-98 -68.5t-72 -110t-37.5 -150.5zM299 1462q0 48 30.5 80t81.5 32q48 0 80 -32t32 -80q0 -49 -32 -81.5t-80 -32.5q-51 0 -81.5 32.5t-30.5 81.5zM693 1462q0 48 32 80t80 32q51 0 81.5 -32 t30.5 -80q0 -49 -30.5 -81.5t-81.5 -32.5q-48 0 -80 32.5t-32 81.5z" />
<glyph unicode="&#xec;" horiz-adv-x="563" d="M28 1637h197l206 -322h-145zM188 0v1114h188v-1114h-188z" />
<glyph unicode="&#xed;" horiz-adv-x="563" d="M133 1315l206 322h197l-258 -322h-145zM188 0v1114h188v-1114h-188z" />
<glyph unicode="&#xee;" horiz-adv-x="563" d="M-14 1315l218 322h156l218 -322h-138l-154 208h-8l-154 -208h-138zM188 0v1114h188v-1114h-188z" />
<glyph unicode="&#xef;" horiz-adv-x="563" d="M-27 1462q0 48 30.5 80t81.5 32q48 0 80 -32t32 -80q0 -49 -32 -81.5t-80 -32.5q-51 0 -81.5 32.5t-30.5 81.5zM188 0v1114h188v-1114h-188zM367 1462q0 48 32 80t80 32q51 0 81.5 -32t30.5 -80q0 -49 -30.5 -81.5t-81.5 -32.5q-48 0 -80 32.5t-32 81.5z" />
<glyph unicode="&#xf0;" horiz-adv-x="1249" d="M122 510q0 116 36.5 211t99.5 163t149 104.5t187 36.5q87 0 167.5 -36.5t140.5 -114.5q-33 142 -95.5 248t-150.5 193l-323 -168l-55 94l291 149q-119 92 -257 166l87 118q83 -46 163 -96t154 -112l326 167l54 -94l-295 -151q138 -140 224.5 -333t86.5 -466 q0 -138 -35 -251t-100.5 -194.5t-156.5 -126.5t-203 -45q-96 0 -185.5 37t-158.5 107t-110 169.5t-41 224.5zM300 510q0 -88 25.5 -158t70 -119t102.5 -76.5t124 -27.5q78 0 135 33t96.5 93t58.5 143.5t19 183.5q0 33 -1.5 65t-3.5 62q-76 101 -151 135t-153 34 q-77 0 -136 -27.5t-100.5 -78t-63.5 -118t-22 -144.5z" />
<glyph unicode="&#xf1;" horiz-adv-x="1254" d="M188 0v1114h156l17 -160h6q81 81 169 134.5t205 53.5q177 0 258.5 -110t81.5 -325v-707h-188v681q0 158 -50.5 228t-161.5 70q-87 0 -153.5 -43t-151.5 -128v-808h-188zM351 1328q9 103 55 173t131 70q43 0 80 -18.5t68 -40t58.5 -40t55.5 -18.5q64 0 84 117h106 q-9 -103 -55 -173t-131 -70q-43 0 -79 18.5t-67 40t-58.5 40t-57.5 18.5q-64 0 -84 -117h-106z" />
<glyph unicode="&#xf2;" horiz-adv-x="1243" d="M105 556q0 140 42.5 248.5t114 184t164.5 114.5t196 39t196 -39t164 -114.5t113.5 -184t42.5 -248.5q0 -138 -42.5 -247.5t-113.5 -184t-164 -113.5t-196 -39t-196 39t-164.5 113.5t-114 184t-42.5 247.5zM300 556q0 -97 23 -175.5t65.5 -134.5t102.5 -86.5t131 -30.5 q70 0 130 30.5t102.5 86.5t65.5 134.5t23 175.5q0 96 -23 175t-65.5 136t-102.5 88.5t-130 31.5q-71 0 -131 -31.5t-102.5 -88.5t-65.5 -136t-23 -175zM368 1637h197l206 -322h-145z" />
<glyph unicode="&#xf3;" horiz-adv-x="1243" d="M105 556q0 140 42.5 248.5t114 184t164.5 114.5t196 39t196 -39t164 -114.5t113.5 -184t42.5 -248.5q0 -138 -42.5 -247.5t-113.5 -184t-164 -113.5t-196 -39t-196 39t-164.5 113.5t-114 184t-42.5 247.5zM300 556q0 -97 23 -175.5t65.5 -134.5t102.5 -86.5t131 -30.5 q70 0 130 30.5t102.5 86.5t65.5 134.5t23 175.5q0 96 -23 175t-65.5 136t-102.5 88.5t-130 31.5q-71 0 -131 -31.5t-102.5 -88.5t-65.5 -136t-23 -175zM473 1315l206 322h197l-258 -322h-145z" />
<glyph unicode="&#xf4;" horiz-adv-x="1243" d="M105 556q0 140 42.5 248.5t114 184t164.5 114.5t196 39t196 -39t164 -114.5t113.5 -184t42.5 -248.5q0 -138 -42.5 -247.5t-113.5 -184t-164 -113.5t-196 -39t-196 39t-164.5 113.5t-114 184t-42.5 247.5zM300 556q0 -97 23 -175.5t65.5 -134.5t102.5 -86.5t131 -30.5 q70 0 130 30.5t102.5 86.5t65.5 134.5t23 175.5q0 96 -23 175t-65.5 136t-102.5 88.5t-130 31.5q-71 0 -131 -31.5t-102.5 -88.5t-65.5 -136t-23 -175zM326 1315l218 322h156l218 -322h-138l-154 208h-8l-154 -208h-138z" />
<glyph unicode="&#xf5;" horiz-adv-x="1243" d="M105 556q0 140 42.5 248.5t114 184t164.5 114.5t196 39t196 -39t164 -114.5t113.5 -184t42.5 -248.5q0 -138 -42.5 -247.5t-113.5 -184t-164 -113.5t-196 -39t-196 39t-164.5 113.5t-114 184t-42.5 247.5zM300 556q0 -97 23 -175.5t65.5 -134.5t102.5 -86.5t131 -30.5 q70 0 130 30.5t102.5 86.5t65.5 134.5t23 175.5q0 96 -23 175t-65.5 136t-102.5 88.5t-130 31.5q-71 0 -131 -31.5t-102.5 -88.5t-65.5 -136t-23 -175zM303 1328q9 103 55 173t131 70q43 0 80 -18.5t68 -40t58.5 -40t55.5 -18.5q64 0 84 117h106q-9 -103 -55 -173t-131 -70 q-43 0 -79 18.5t-67 40t-58.5 40t-57.5 18.5q-64 0 -84 -117h-106z" />
<glyph unicode="&#xf6;" horiz-adv-x="1243" d="M105 556q0 140 42.5 248.5t114 184t164.5 114.5t196 39t196 -39t164 -114.5t113.5 -184t42.5 -248.5q0 -138 -42.5 -247.5t-113.5 -184t-164 -113.5t-196 -39t-196 39t-164.5 113.5t-114 184t-42.5 247.5zM300 556q0 -97 23 -175.5t65.5 -134.5t102.5 -86.5t131 -30.5 q70 0 130 30.5t102.5 86.5t65.5 134.5t23 175.5q0 96 -23 175t-65.5 136t-102.5 88.5t-130 31.5q-71 0 -131 -31.5t-102.5 -88.5t-65.5 -136t-23 -175zM313 1462q0 48 30.5 80t81.5 32q48 0 80 -32t32 -80q0 -49 -32 -81.5t-80 -32.5q-51 0 -81.5 32.5t-30.5 81.5zM707 1462 q0 48 32 80t80 32q51 0 81.5 -32t30.5 -80q0 -49 -30.5 -81.5t-81.5 -32.5q-48 0 -80 32.5t-32 81.5z" />
<glyph unicode="&#xf7;" horiz-adv-x="1139" d="M78 685v143h984v-143h-984zM445 344q0 52 37 87t89 35q53 0 89 -35t36 -87q0 -55 -36 -89t-89 -34q-52 0 -89 34t-37 89zM445 1169q0 53 37 87.5t89 34.5q53 0 89 -34t36 -88q0 -55 -36 -89t-89 -34q-52 0 -89 34t-37 89z" />
<glyph unicode="&#xf8;" horiz-adv-x="1243" d="M105 13l125 149q-58 74 -91.5 171.5t-33.5 222.5q0 140 42.5 248.5t114 184t164.5 114.5t196 39q87 0 169.5 -28.5t149.5 -85.5l114 139l83 -66l-124 -149q57 -74 90.5 -173.5t33.5 -222.5q0 -138 -42.5 -247.5t-113.5 -184t-164 -113.5t-196 -39q-182 0 -320 113 l-112 -138zM291 564q0 -153 53 -259l490 594q-85 92 -212 92q-71 0 -132 -31.5t-104.5 -87.5t-69 -134.5t-25.5 -173.5zM409 213q89 -90 213 -89q70 0 131 31t106 87t69 134.5t24 171.5q0 153 -55 262z" />
<glyph unicode="&#xf9;" horiz-adv-x="1247" d="M172 409v705h191v-681q0 -157 49 -227t159 -70q88 0 154.5 44.5t145.5 143.5v790h189v-1114h-156l-16 175h-8q-78 -92 -163.5 -147.5t-202.5 -55.5q-179 0 -260.5 110.5t-81.5 326.5zM370 1637h197l206 -322h-145z" />
<glyph unicode="&#xfa;" horiz-adv-x="1247" d="M172 409v705h191v-681q0 -157 49 -227t159 -70q88 0 154.5 44.5t145.5 143.5v790h189v-1114h-156l-16 175h-8q-78 -92 -163.5 -147.5t-202.5 -55.5q-179 0 -260.5 110.5t-81.5 326.5zM475 1315l206 322h197l-258 -322h-145z" />
<glyph unicode="&#xfb;" horiz-adv-x="1247" d="M172 409v705h191v-681q0 -157 49 -227t159 -70q88 0 154.5 44.5t145.5 143.5v790h189v-1114h-156l-16 175h-8q-78 -92 -163.5 -147.5t-202.5 -55.5q-179 0 -260.5 110.5t-81.5 326.5zM328 1315l218 322h156l218 -322h-138l-154 208h-8l-154 -208h-138z" />
<glyph unicode="&#xfc;" horiz-adv-x="1247" d="M172 409v705h191v-681q0 -157 49 -227t159 -70q88 0 154.5 44.5t145.5 143.5v790h189v-1114h-156l-16 175h-8q-78 -92 -163.5 -147.5t-202.5 -55.5q-179 0 -260.5 110.5t-81.5 326.5zM315 1462q0 48 30.5 80t81.5 32q48 0 80 -32t32 -80q0 -49 -32 -81.5t-80 -32.5 q-51 0 -81.5 32.5t-30.5 81.5zM709 1462q0 48 32 80t80 32q51 0 81.5 -32t30.5 -80q0 -49 -30.5 -81.5t-81.5 -32.5q-48 0 -80 32.5t-32 81.5z" />
<glyph unicode="&#xfd;" horiz-adv-x="1070" d="M28 1114h195l226 -617q26 -74 54.5 -155t54.5 -158h9q25 76 47.5 158t46.5 155l199 617h184l-420 -1206q-30 -83 -66.5 -154t-87 -122.5t-115 -81t-149.5 -29.5q-39 0 -71 5.5t-59 16.5l36 150q18 -4 41.5 -10.5t43.5 -6.5q96 0 157.5 68t94.5 171l26 83zM407 1315 l206 322h197l-258 -322h-145z" />
<glyph unicode="&#xfe;" horiz-adv-x="1272" d="M188 -470v2103h188v-445l-2 -190q74 59 161 101.5t178 42.5q110 0 194 -40t141 -114.5t86 -179t29 -235.5q0 -142 -39 -253.5t-105.5 -189t-154 -118t-183.5 -40.5q-81 0 -156.5 32.5t-150.5 91.5l2 -190v-376h-188zM376 248q76 -64 147 -90.5t127 -26.5q68 0 126 31 t101 87t67 138.5t24 185.5q0 92 -16 167.5t-51.5 129.5t-91.5 84t-135 30q-70 0 -142.5 -39t-155.5 -113v-584z" />
<glyph unicode="&#xff;" horiz-adv-x="1070" d="M28 1114h195l226 -617q26 -74 54.5 -155t54.5 -158h9q25 76 47.5 158t46.5 155l199 617h184l-420 -1206q-30 -83 -66.5 -154t-87 -122.5t-115 -81t-149.5 -29.5q-39 0 -71 5.5t-59 16.5l36 150q18 -4 41.5 -10.5t43.5 -6.5q96 0 157.5 68t94.5 171l26 83zM247 1462 q0 48 30.5 80t81.5 32q48 0 80 -32t32 -80q0 -49 -32 -81.5t-80 -32.5q-51 0 -81.5 32.5t-30.5 81.5zM641 1462q0 48 32 80t80 32q51 0 81.5 -32t30.5 -80q0 -49 -30.5 -81.5t-81.5 -32.5q-48 0 -80 32.5t-32 81.5z" />
<glyph unicode="&#x100;" horiz-adv-x="1247" d="M7 0l509 1504h215l510 -1504h-204l-142 459h-549l-144 -459h-195zM338 1672v131h568v-131h-568zM394 613h453l-72 229q-41 127 -77.5 251t-73.5 255h-9q-35 -131 -71.5 -255.5t-77.5 -250.5z" />
<glyph unicode="&#x101;" horiz-adv-x="1173" d="M133 289q0 184 164 281.5t522 136.5q0 52 -10 102.5t-36.5 90t-70 63.5t-113.5 24q-98 0 -181.5 -37t-151.5 -83l-75 131q79 50 191 97t247 47q204 0 296 -124.5t92 -334.5v-683h-156l-17 133h-4q-81 -66 -173.5 -113.5t-195.5 -47.5q-142 0 -235 83t-93 234zM319 302 q0 -96 56 -137t139 -41q81 0 152.5 37.5t152.5 111.5v309q-140 -18 -236.5 -43t-154.5 -59.5t-83.5 -79.5t-25.5 -98zM335 1379v131h564v-131h-564z" />
<glyph unicode="&#x102;" horiz-adv-x="1247" d="M7 0l509 1504h215l510 -1504h-204l-142 459h-549l-144 -459h-195zM340 1876h114q11 -55 50.5 -99.5t117.5 -44.5t117 44.5t51 99.5h114q-6 -48 -24.5 -94t-53 -80t-85.5 -56t-119 -22t-119 22t-85.5 56t-53 80t-24.5 94zM394 613h453l-72 229q-41 127 -77.5 251 t-73.5 255h-9q-35 -131 -71.5 -255.5t-77.5 -250.5z" />
<glyph unicode="&#x103;" horiz-adv-x="1173" d="M133 289q0 184 164 281.5t522 136.5q0 52 -10 102.5t-36.5 90t-70 63.5t-113.5 24q-98 0 -181.5 -37t-151.5 -83l-75 131q79 50 191 97t247 47q204 0 296 -124.5t92 -334.5v-683h-156l-17 133h-4q-81 -66 -173.5 -113.5t-195.5 -47.5q-142 0 -235 83t-93 234zM319 302 q0 -96 56 -137t139 -41q81 0 152.5 37.5t152.5 111.5v309q-140 -18 -236.5 -43t-154.5 -59.5t-83.5 -79.5t-25.5 -98zM328 1611h117q8 -67 49.5 -121t122.5 -54t121.5 53.5t50.5 121.5h117q-5 -51 -22 -103t-51.5 -94t-88 -68.5t-127.5 -26.5t-127.5 26.5t-88 68.5t-53 94 t-20.5 103z" />
<glyph unicode="&#x104;" horiz-adv-x="1247" d="M7 0l509 1504h215l510 -1504q-81 -32 -132.5 -103.5t-51.5 -141.5q0 -53 32 -79.5t74 -26.5q52 0 96 32l53 -103q-35 -26 -86 -45t-97 -19q-92 0 -156.5 50.5t-64.5 148.5q0 46 16.5 90t41.5 80t55 66.5t60 50.5h-44l-142 459h-549l-144 -459h-195zM394 613h453l-72 229 q-41 127 -77.5 251t-73.5 255h-9q-35 -131 -71.5 -255.5t-77.5 -250.5z" />
<glyph unicode="&#x105;" horiz-adv-x="1173" d="M133 289q0 184 164 281.5t522 136.5q0 52 -10 102.5t-36.5 90t-70 63.5t-113.5 24q-98 0 -181.5 -37t-151.5 -83l-75 131q79 50 191 97t247 47q204 0 296 -124.5t92 -334.5v-683q-96 -39 -147.5 -107t-51.5 -134q0 -52 33 -78.5t74 -26.5q28 0 50 8t42 21l48 -94 q-32 -26 -83.5 -44t-95.5 -18q-88 0 -147 49.5t-59 145.5q0 46 16 88.5t42.5 79t58.5 68t66 51.5l-19 124h-4q-81 -66 -173.5 -113.5t-195.5 -47.5q-142 0 -235 83t-93 234zM319 302q0 -96 56 -137t139 -41q81 0 152.5 37.5t152.5 111.5v309q-140 -18 -236.5 -43 t-154.5 -59.5t-83.5 -79.5t-25.5 -98z" />
<glyph unicode="&#x106;" horiz-adv-x="1309" d="M119 753q0 181 51 325.5t140 245.5t211.5 154.5t268.5 53.5q137 0 240 -56t170 -130l-108 -121q-59 64 -131.5 102t-168.5 38q-108 0 -195 -42.5t-149.5 -122t-96.5 -191.5t-34 -252q0 -142 33 -255.5t93 -194t145.5 -124t193.5 -43.5q110 0 191.5 43.5t155.5 123.5 l107 -117q-89 -103 -201.5 -160.5t-257.5 -57.5q-142 0 -262.5 53t-208.5 153t-137.5 245.5t-49.5 329.5zM641 1620l201 256h215l-259 -256h-157z" />
<glyph unicode="&#x107;" horiz-adv-x="1044" d="M105 556q0 140 44 248.5t117 184t170.5 114.5t205.5 39q110 0 189.5 -40t136.5 -93l-94 -121q-51 44 -104.5 71.5t-119.5 27.5q-77 0 -141 -31.5t-110 -88.5t-72.5 -136t-26.5 -175q0 -97 25.5 -175.5t70 -134.5t109 -86.5t139.5 -30.5q81 0 146.5 33t115.5 79l85 -125 q-76 -66 -169 -105t-194 -39q-109 0 -205.5 39t-166.5 113.5t-110.5 184t-40.5 247.5zM491 1315l206 322h197l-258 -322h-145z" />
<glyph unicode="&#x108;" horiz-adv-x="1309" d="M119 753q0 181 51 325.5t140 245.5t211.5 154.5t268.5 53.5q137 0 240 -56t170 -130l-108 -121q-59 64 -131.5 102t-168.5 38q-108 0 -195 -42.5t-149.5 -122t-96.5 -191.5t-34 -252q0 -142 33 -255.5t93 -194t145.5 -124t193.5 -43.5q110 0 191.5 43.5t155.5 123.5 l107 -117q-89 -103 -201.5 -160.5t-257.5 -57.5q-142 0 -262.5 53t-208.5 153t-137.5 245.5t-49.5 329.5zM445 1620l220 256h184l220 -256h-154l-154 155h-8l-154 -155h-154z" />
<glyph unicode="&#x109;" horiz-adv-x="1044" d="M105 556q0 140 44 248.5t117 184t170.5 114.5t205.5 39q110 0 189.5 -40t136.5 -93l-94 -121q-51 44 -104.5 71.5t-119.5 27.5q-77 0 -141 -31.5t-110 -88.5t-72.5 -136t-26.5 -175q0 -97 25.5 -175.5t70 -134.5t109 -86.5t139.5 -30.5q81 0 146.5 33t115.5 79l85 -125 q-76 -66 -169 -105t-194 -39q-109 0 -205.5 39t-166.5 113.5t-110.5 184t-40.5 247.5zM344 1315l218 322h156l218 -322h-138l-154 208h-8l-154 -208h-138z" />
<glyph unicode="&#x10a;" horiz-adv-x="1309" d="M119 753q0 181 51 325.5t140 245.5t211.5 154.5t268.5 53.5q137 0 240 -56t170 -130l-108 -121q-59 64 -131.5 102t-168.5 38q-108 0 -195 -42.5t-149.5 -122t-96.5 -191.5t-34 -252q0 -142 33 -255.5t93 -194t145.5 -124t193.5 -43.5q110 0 191.5 43.5t155.5 123.5 l107 -117q-89 -103 -201.5 -160.5t-257.5 -57.5q-142 0 -262.5 53t-208.5 153t-137.5 245.5t-49.5 329.5zM626 1762q0 52 38 86.5t93 34.5t93 -34.5t38 -86.5q0 -55 -38 -90t-93 -35t-93 35t-38 90z" />
<glyph unicode="&#x10b;" horiz-adv-x="1044" d="M105 556q0 140 44 248.5t117 184t170.5 114.5t205.5 39q110 0 189.5 -40t136.5 -93l-94 -121q-51 44 -104.5 71.5t-119.5 27.5q-77 0 -141 -31.5t-110 -88.5t-72.5 -136t-26.5 -175q0 -97 25.5 -175.5t70 -134.5t109 -86.5t139.5 -30.5q81 0 146.5 33t115.5 79l85 -125 q-76 -66 -169 -105t-194 -39q-109 0 -205.5 39t-166.5 113.5t-110.5 184t-40.5 247.5zM516 1468q0 53 35.5 88.5t88.5 35.5t88.5 -35.5t35.5 -88.5q0 -55 -35.5 -89.5t-88.5 -34.5t-88.5 34.5t-35.5 89.5z" />
<glyph unicode="&#x10c;" horiz-adv-x="1309" d="M119 753q0 181 51 325.5t140 245.5t211.5 154.5t268.5 53.5q137 0 240 -56t170 -130l-108 -121q-59 64 -131.5 102t-168.5 38q-108 0 -195 -42.5t-149.5 -122t-96.5 -191.5t-34 -252q0 -142 33 -255.5t93 -194t145.5 -124t193.5 -43.5q110 0 191.5 43.5t155.5 123.5 l107 -117q-89 -103 -201.5 -160.5t-257.5 -57.5q-142 0 -262.5 53t-208.5 153t-137.5 245.5t-49.5 329.5zM445 1876h154l154 -156h8l154 156h154l-220 -256h-184z" />
<glyph unicode="&#x10d;" horiz-adv-x="1044" d="M105 556q0 140 44 248.5t117 184t170.5 114.5t205.5 39q110 0 189.5 -40t136.5 -93l-94 -121q-51 44 -104.5 71.5t-119.5 27.5q-77 0 -141 -31.5t-110 -88.5t-72.5 -136t-26.5 -175q0 -97 25.5 -175.5t70 -134.5t109 -86.5t139.5 -30.5q81 0 146.5 33t115.5 79l85 -125 q-76 -66 -169 -105t-194 -39q-109 0 -205.5 39t-166.5 113.5t-110.5 184t-40.5 247.5zM344 1637h138l154 -210h8l154 210h138l-218 -322h-156z" />
<glyph unicode="&#x10e;" horiz-adv-x="1410" d="M206 0v1504h376q349 0 530.5 -192.5t181.5 -552.5q0 -179 -46 -320t-135.5 -238.5t-220 -149t-301.5 -51.5h-385zM392 1876h154l154 -156h8l154 156h154l-220 -256h-184zM396 156h173q264 0 395.5 158.5t131.5 444.5q0 287 -132 438t-395 151h-173v-1192z" />
<glyph unicode="&#x10f;" horiz-adv-x="1313" d="M108 556q0 135 40 243.5t106.5 184.5t153.5 117t183 41q97 0 168 -34.5t145 -93.5l-9 190v429h190v-1633h-157l-15 131h-7q-66 -64 -152 -111.5t-185 -47.5q-211 0 -336 152t-125 432zM302 558q0 -202 81 -314.5t227 -112.5q79 0 147 37.5t138 115.5v583 q-71 64 -137 90.5t-134 26.5q-66 0 -125 -31t-102.5 -87t-69 -134t-25.5 -174zM1207 1743h134l-2 -130l-31 -356h-92z" />
<glyph unicode="&#x110;" horiz-adv-x="1462" d="M76 736v98l180 10v660h377q348 0 529.5 -192.5t181.5 -552.5q0 -179 -46 -320t-135.5 -238.5t-220 -149t-300.5 -51.5h-386v736h-180zM447 156h172q265 0 396.5 158.5t131.5 444.5q0 287 -132 438t-396 151h-172v-504h343v-108h-343v-580z" />
<glyph unicode="&#x111;" horiz-adv-x="1272" d="M108 532q0 131 40 235t106.5 177.5t153.5 112.5t183 39q97 0 168 -34t145 -94l-9 190v151h-370v111h370v213h190v-213h165v-98l-165 -13v-1309h-161l-13 127h-7q-64 -64 -149 -109.5t-186 -45.5q-211 0 -336 144.5t-125 415.5zM302 534q0 -192 81 -297.5t227 -105.5 q79 0 147 37.5t138 115.5v537q-71 64 -137 91t-134 27q-66 0 -125 -29.5t-102.5 -83t-69 -128t-25.5 -164.5z" />
<glyph unicode="&#x112;" horiz-adv-x="1208" d="M206 0v1504h867v-160h-677v-473h572v-162h-572v-547h700v-162h-890zM368 1672v131h568v-131h-568z" />
<glyph unicode="&#x113;" horiz-adv-x="1136" d="M105 556q0 137 42.5 246t112.5 184.5t160 115.5t186 40q105 0 188.5 -37t140 -105.5t86.5 -165t30 -215.5q0 -61 -7 -103h-753q11 -181 111.5 -286.5t260.5 -105.5q81 0 148 24t130 63l66 -124q-74 -46 -163 -80.5t-204 -34.5q-112 0 -209.5 40.5t-170 115t-114 182.5 t-41.5 246zM289 640h597q0 172 -72.5 262.5t-203.5 90.5q-59 0 -113.5 -24t-98 -68.5t-72 -110t-37.5 -150.5zM326 1379v131h564v-131h-564z" />
<glyph unicode="&#x114;" horiz-adv-x="1208" d="M206 0v1504h867v-160h-677v-473h572v-162h-572v-547h700v-162h-890zM370 1876h114q11 -55 50.5 -99.5t117.5 -44.5t117 44.5t51 99.5h114q-6 -48 -24.5 -94t-53 -80t-85.5 -56t-119 -22t-119 22t-85.5 56t-53 80t-24.5 94z" />
<glyph unicode="&#x115;" horiz-adv-x="1136" d="M105 556q0 137 42.5 246t112.5 184.5t160 115.5t186 40q105 0 188.5 -37t140 -105.5t86.5 -165t30 -215.5q0 -61 -7 -103h-753q11 -181 111.5 -286.5t260.5 -105.5q81 0 148 24t130 63l66 -124q-74 -46 -163 -80.5t-204 -34.5q-112 0 -209.5 40.5t-170 115t-114 182.5 t-41.5 246zM289 640h597q0 172 -72.5 262.5t-203.5 90.5q-59 0 -113.5 -24t-98 -68.5t-72 -110t-37.5 -150.5zM319 1611h117q8 -67 49.5 -121t122.5 -54t121.5 53.5t50.5 121.5h117q-5 -51 -22 -103t-51.5 -94t-88 -68.5t-127.5 -26.5t-127.5 26.5t-88 68.5t-53 94 t-20.5 103z" />
<glyph unicode="&#x116;" horiz-adv-x="1208" d="M206 0v1504h867v-160h-677v-473h572v-162h-572v-547h700v-162h-890zM521 1762q0 52 38 86.5t93 34.5t93 -34.5t38 -86.5q0 -55 -38 -90t-93 -35t-93 35t-38 90z" />
<glyph unicode="&#x117;" horiz-adv-x="1136" d="M105 556q0 137 42.5 246t112.5 184.5t160 115.5t186 40q105 0 188.5 -37t140 -105.5t86.5 -165t30 -215.5q0 -61 -7 -103h-753q11 -181 111.5 -286.5t260.5 -105.5q81 0 148 24t130 63l66 -124q-74 -46 -163 -80.5t-204 -34.5q-112 0 -209.5 40.5t-170 115t-114 182.5 t-41.5 246zM289 640h597q0 172 -72.5 262.5t-203.5 90.5q-59 0 -113.5 -24t-98 -68.5t-72 -110t-37.5 -150.5zM484 1468q0 53 35.5 88.5t88.5 35.5t88.5 -35.5t35.5 -88.5q0 -55 -35.5 -89.5t-88.5 -34.5t-88.5 34.5t-35.5 89.5z" />
<glyph unicode="&#x118;" horiz-adv-x="1208" d="M206 0v1504h867v-160h-677v-473h572v-162h-572v-547h700v-162h-6q-39 -4 -77.5 -26t-68 -55t-48 -75.5t-18.5 -88.5q0 -53 35 -79.5t76 -26.5q48 0 92 32l52 -103q-32 -26 -84.5 -45t-98.5 -19q-92 0 -156.5 50.5t-64.5 148.5q0 97 54.5 171.5t118.5 115.5h-696z" />
<glyph unicode="&#x119;" horiz-adv-x="1136" d="M105 556q0 137 42.5 246t112.5 184.5t160 115.5t186 40q105 0 188.5 -37t140 -105.5t86.5 -165t30 -215.5q0 -61 -7 -103h-753q11 -181 111.5 -286.5t260.5 -105.5q81 0 148 24t130 63l66 -124q-76 -52 -124.5 -97t-78 -84t-40.5 -74.5t-11 -72.5q0 -52 31.5 -78.5 t75.5 -26.5q28 0 49.5 8t42.5 21l48 -94q-32 -26 -83.5 -44t-95.5 -18q-87 0 -146.5 49.5t-59.5 145.5q0 44 12.5 83t33 73.5t44.5 62t48 48.5q-31 -11 -58 -14t-55 -3q-112 0 -209.5 40.5t-170 115t-114 182.5t-41.5 246zM289 640h597q0 172 -71 262.5t-205 90.5 q-59 0 -113.5 -24t-98 -68.5t-72 -110t-37.5 -150.5z" />
<glyph unicode="&#x11a;" horiz-adv-x="1208" d="M206 0v1504h867v-160h-677v-473h572v-162h-572v-547h700v-162h-890zM340 1876h154l154 -156h8l154 156h154l-220 -256h-184z" />
<glyph unicode="&#x11b;" horiz-adv-x="1136" d="M105 556q0 137 42.5 246t112.5 184.5t160 115.5t186 40q105 0 188.5 -37t140 -105.5t86.5 -165t30 -215.5q0 -61 -7 -103h-753q11 -181 111.5 -286.5t260.5 -105.5q81 0 148 24t130 63l66 -124q-74 -46 -163 -80.5t-204 -34.5q-112 0 -209.5 40.5t-170 115t-114 182.5 t-41.5 246zM289 640h597q0 172 -72.5 262.5t-203.5 90.5q-59 0 -113.5 -24t-98 -68.5t-72 -110t-37.5 -150.5zM312 1637h138l154 -210h8l154 210h138l-218 -322h-156z" />
<glyph unicode="&#x11c;" horiz-adv-x="1414" d="M119 753q0 181 52 325.5t145 245.5t219 154.5t277 53.5q156 0 260.5 -58t170.5 -128l-107 -121q-57 60 -132.5 100t-189.5 40t-206 -42.5t-156 -122t-99.5 -191.5t-35.5 -252q0 -142 33 -255.5t96.5 -194t156.5 -124t213 -43.5q81 0 153.5 24t118.5 66v392h-320v158h493 v-633q-74 -76 -193.5 -125.5t-271.5 -49.5q-149 0 -273 53t-213 153t-140 245.5t-51 329.5zM498 1620l220 256h184l220 -256h-154l-154 155h-8l-154 -155h-154z" />
<glyph unicode="&#x11d;" horiz-adv-x="1155" d="M103 -213q0 71 43.5 135.5t120.5 116.5v9q-42 26 -70.5 70t-28.5 112q0 70 38.5 122.5t82.5 83.5v9q-55 46 -100 122.5t-45 178.5q0 92 33.5 165t91 125t134 79t161.5 27q46 0 86 -7.5t72 -20.5h388v-144h-230q40 -39 66 -98.5t26 -130.5q0 -89 -32 -161.5t-86.5 -121.5 t-129 -77t-160.5 -28q-41 0 -84.5 10.5t-83.5 28.5q-30 -26 -50 -56.5t-20 -76.5q0 -53 41.5 -87t155.5 -34h215q195 0 293 -63.5t98 -203.5q0 -78 -39 -147.5t-112.5 -122t-177.5 -84t-236 -31.5q-103 0 -188 19.5t-145.5 59t-94 94t-33.5 128.5zM252 1315l218 322h156 l218 -322h-138l-154 208h-8l-154 -208h-138zM269 -188q0 -90 85.5 -142.5t236.5 -52.5q81 0 146.5 19.5t111.5 50.5t71 72.5t25 84.5q0 79 -57.5 108.5t-167.5 29.5h-192q-33 0 -70.5 3.5t-74.5 14.5q-59 -44 -86.5 -92t-27.5 -96zM328 746q0 -62 18.5 -111.5t51.5 -84 t75.5 -53t90.5 -18.5q49 0 91.5 18.5t75.5 53t51.5 83.5t18.5 112q0 124 -69 191.5t-168 67.5q-98 0 -167 -68t-69 -191z" />
<glyph unicode="&#x11e;" horiz-adv-x="1414" d="M119 753q0 181 52 325.5t145 245.5t219 154.5t277 53.5q156 0 260.5 -58t170.5 -128l-107 -121q-57 60 -132.5 100t-189.5 40t-206 -42.5t-156 -122t-99.5 -191.5t-35.5 -252q0 -142 33 -255.5t96.5 -194t156.5 -124t213 -43.5q81 0 153.5 24t118.5 66v392h-320v158h493 v-633q-74 -76 -193.5 -125.5t-271.5 -49.5q-149 0 -273 53t-213 153t-140 245.5t-51 329.5zM528 1876h114q11 -55 50.5 -99.5t117.5 -44.5t117 44.5t51 99.5h114q-6 -48 -24.5 -94t-53 -80t-85.5 -56t-119 -22t-119 22t-85.5 56t-53 80t-24.5 94z" />
<glyph unicode="&#x11f;" horiz-adv-x="1155" d="M103 -213q0 71 43.5 135.5t120.5 116.5v9q-42 26 -70.5 70t-28.5 112q0 70 38.5 122.5t82.5 83.5v9q-55 46 -100 122.5t-45 178.5q0 92 33.5 165t91 125t134 79t161.5 27q46 0 86 -7.5t72 -20.5h388v-144h-230q40 -39 66 -98.5t26 -130.5q0 -89 -32 -161.5t-86.5 -121.5 t-129 -77t-160.5 -28q-41 0 -84.5 10.5t-83.5 28.5q-30 -26 -50 -56.5t-20 -76.5q0 -53 41.5 -87t155.5 -34h215q195 0 293 -63.5t98 -203.5q0 -78 -39 -147.5t-112.5 -122t-177.5 -84t-236 -31.5q-103 0 -188 19.5t-145.5 59t-94 94t-33.5 128.5zM259 1611h117 q8 -67 49.5 -121t122.5 -54t121.5 53.5t50.5 121.5h117q-5 -51 -22 -103t-51.5 -94t-88 -68.5t-127.5 -26.5t-127.5 26.5t-88 68.5t-53 94t-20.5 103zM269 -188q0 -90 85.5 -142.5t236.5 -52.5q81 0 146.5 19.5t111.5 50.5t71 72.5t25 84.5q0 79 -57.5 108.5t-167.5 29.5 h-192q-33 0 -70.5 3.5t-74.5 14.5q-59 -44 -86.5 -92t-27.5 -96zM328 746q0 -62 18.5 -111.5t51.5 -84t75.5 -53t90.5 -18.5q49 0 91.5 18.5t75.5 53t51.5 83.5t18.5 112q0 124 -69 191.5t-168 67.5q-98 0 -167 -68t-69 -191z" />
<glyph unicode="&#x120;" horiz-adv-x="1414" d="M119 753q0 181 52 325.5t145 245.5t219 154.5t277 53.5q156 0 260.5 -58t170.5 -128l-107 -121q-57 60 -132.5 100t-189.5 40t-206 -42.5t-156 -122t-99.5 -191.5t-35.5 -252q0 -142 33 -255.5t96.5 -194t156.5 -124t213 -43.5q81 0 153.5 24t118.5 66v392h-320v158h493 v-633q-74 -76 -193.5 -125.5t-271.5 -49.5q-149 0 -273 53t-213 153t-140 245.5t-51 329.5zM679 1762q0 52 38 86.5t93 34.5t93 -34.5t38 -86.5q0 -55 -38 -90t-93 -35t-93 35t-38 90z" />
<glyph unicode="&#x121;" horiz-adv-x="1155" d="M103 -213q0 71 43.5 135.5t120.5 116.5v9q-42 26 -70.5 70t-28.5 112q0 70 38.5 122.5t82.5 83.5v9q-55 46 -100 122.5t-45 178.5q0 92 33.5 165t91 125t134 79t161.5 27q46 0 86 -7.5t72 -20.5h388v-144h-230q40 -39 66 -98.5t26 -130.5q0 -89 -32 -161.5t-86.5 -121.5 t-129 -77t-160.5 -28q-41 0 -84.5 10.5t-83.5 28.5q-30 -26 -50 -56.5t-20 -76.5q0 -53 41.5 -87t155.5 -34h215q195 0 293 -63.5t98 -203.5q0 -78 -39 -147.5t-112.5 -122t-177.5 -84t-236 -31.5q-103 0 -188 19.5t-145.5 59t-94 94t-33.5 128.5zM269 -188 q0 -90 85.5 -142.5t236.5 -52.5q81 0 146.5 19.5t111.5 50.5t71 72.5t25 84.5q0 79 -57.5 108.5t-167.5 29.5h-192q-33 0 -70.5 3.5t-74.5 14.5q-59 -44 -86.5 -92t-27.5 -96zM328 746q0 -62 18.5 -111.5t51.5 -84t75.5 -53t90.5 -18.5q49 0 91.5 18.5t75.5 53t51.5 83.5 t18.5 112q0 124 -69 191.5t-168 67.5q-98 0 -167 -68t-69 -191zM424 1468q0 53 35.5 88.5t88.5 35.5t88.5 -35.5t35.5 -88.5q0 -55 -35.5 -89.5t-88.5 -34.5t-88.5 34.5t-35.5 89.5z" />
<glyph unicode="&#x122;" horiz-adv-x="1414" d="M119 753q0 181 52 325.5t145 245.5t219 154.5t277 53.5q156 0 260.5 -58t170.5 -128l-107 -121q-57 60 -132.5 100t-189.5 40t-206 -42.5t-156 -122t-99.5 -191.5t-35.5 -252q0 -142 33 -255.5t96.5 -194t156.5 -124t213 -43.5q81 0 153.5 24t118.5 66v392h-320v158h493 v-633q-74 -76 -193.5 -125.5t-271.5 -49.5q-149 0 -273 53t-213 153t-140 245.5t-51 329.5zM604 -403q92 11 148 35t56 70t-34 68t-83 33l42 87q116 -18 169 -58t53 -119q0 -50 -27.5 -87t-73.5 -62t-106.5 -40t-125.5 -19z" />
<glyph unicode="&#x123;" horiz-adv-x="1155" d="M103 -213q0 71 43.5 135.5t120.5 116.5v9q-42 26 -70.5 70t-28.5 112q0 70 38.5 122.5t82.5 83.5v9q-55 46 -100 122.5t-45 178.5q0 92 33.5 165t91 125t134 79t161.5 27q46 0 86 -7.5t72 -20.5h388v-144h-230q40 -39 66 -98.5t26 -130.5q0 -89 -32 -161.5t-86.5 -121.5 t-129 -77t-160.5 -28q-41 0 -84.5 10.5t-83.5 28.5q-30 -26 -50 -56.5t-20 -76.5q0 -53 41.5 -87t155.5 -34h215q195 0 293 -63.5t98 -203.5q0 -78 -39 -147.5t-112.5 -122t-177.5 -84t-236 -31.5q-103 0 -188 19.5t-145.5 59t-94 94t-33.5 128.5zM269 -188 q0 -90 85.5 -142.5t236.5 -52.5q81 0 146.5 19.5t111.5 50.5t71 72.5t25 84.5q0 79 -57.5 108.5t-167.5 29.5h-192q-33 0 -70.5 3.5t-74.5 14.5q-59 -44 -86.5 -92t-27.5 -96zM328 746q0 -62 18.5 -111.5t51.5 -84t75.5 -53t90.5 -18.5q49 0 91.5 18.5t75.5 53t51.5 83.5 t18.5 112q0 124 -69 191.5t-168 67.5q-98 0 -167 -68t-69 -191zM390 1418q0 50 27.5 86.5t73.5 62t105.5 40.5t123.5 21l18 -94q-89 -11 -145 -35t-56 -68q0 -46 33 -68.5t83 -34.5l-41 -87q-117 18 -169.5 59.5t-52.5 117.5z" />
<glyph unicode="&#x124;" horiz-adv-x="1495" d="M206 0v1504h190v-630h700v630h193v-1504h-193v709h-700v-709h-190zM436 1620l220 256h184l220 -256h-154l-154 155h-8l-154 -155h-154z" />
<glyph unicode="&#x125;" horiz-adv-x="1247" d="M-28 1716l220 256h184l220 -256h-154l-154 155h-8l-154 -155h-154zM188 0v1633h188v-445l-6 -229q80 76 167 129.5t204 53.5q177 0 258.5 -110t81.5 -325v-707h-188v681q0 158 -50.5 228t-161.5 70q-87 0 -153.5 -43t-151.5 -128v-808h-188z" />
<glyph unicode="&#x126;" horiz-adv-x="1574" d="M74 1129v96l178 11v268h190v-268h700v268h193v-268h165v-107h-165v-1129h-193v709h-700v-709h-190v1129h-178zM442 874h700v255h-700v-255z" />
<glyph unicode="&#x127;" horiz-adv-x="1247" d="M18 1309v99l170 12v213h188v-213h418v-111h-418v-167l-6 -229q80 76 167 129.5t204 53.5q177 0 258.5 -110t81.5 -325v-661h-188v635q0 158 -50.5 228.5t-161.5 70.5q-87 0 -153.5 -43.5t-151.5 -128.5v-762h-188v1309h-170z" />
<glyph unicode="&#x128;" horiz-adv-x="602" d="M-33 1631q12 107 62 177t133 70q46 0 83 -18t68 -41t60.5 -41t62.5 -18q32 0 57 30.5t34 87.5h106q-12 -105 -62 -176t-133 -71q-46 0 -83 18.5t-68 41.5t-60.5 41.5t-62.5 18.5q-32 0 -57 -30.5t-34 -89.5h-106zM206 0v1504h190v-1504h-190z" />
<glyph unicode="&#x129;" horiz-adv-x="563" d="M-37 1328q9 103 55 173t131 70q43 0 80 -18.5t68 -40t58.5 -40t55.5 -18.5q64 0 84 117h106q-9 -103 -55 -173t-131 -70q-43 0 -79 18.5t-67 40t-58.5 40t-57.5 18.5q-64 0 -84 -117h-106zM188 0v1114h188v-1114h-188z" />
<glyph unicode="&#x12a;" horiz-adv-x="602" d="M16 1672v131h568v-131h-568zM206 0v1504h190v-1504h-190z" />
<glyph unicode="&#x12b;" horiz-adv-x="563" d="M0 1379v131h564v-131h-564zM188 0v1114h188v-1114h-188z" />
<glyph unicode="&#x12c;" horiz-adv-x="602" d="M18 1876h114q11 -55 50.5 -99.5t117.5 -44.5t117 44.5t51 99.5h114q-6 -48 -24.5 -94t-53 -80t-85.5 -56t-119 -22t-119 22t-85.5 56t-53 80t-24.5 94zM206 0v1504h190v-1504h-190z" />
<glyph unicode="&#x12d;" horiz-adv-x="563" d="M-5 1611h117q8 -67 49.5 -121t122.5 -54t121.5 53.5t50.5 121.5h117q-5 -51 -22 -103t-51.5 -94t-88 -68.5t-127.5 -26.5t-127.5 26.5t-88 68.5t-53 94t-20.5 103zM188 0v1114h188v-1114h-188z" />
<glyph unicode="&#x12e;" horiz-adv-x="602" d="M99 -287q0 99 49 168t104 119h-46v1504h190v-1504q-70 -55 -109 -115t-39 -130q0 -53 34.5 -79.5t72.5 -26.5q50 0 94 32l54 -103q-35 -26 -86.5 -45t-97.5 -19q-92 0 -156 50.5t-64 148.5z" />
<glyph unicode="&#x12f;" horiz-adv-x="563" d="M87 -278q0 92 49.5 161t97.5 117h-46v1114h188v-1114q-68 -50 -108.5 -112.5t-40.5 -128.5q0 -52 32 -78.5t76 -26.5q26 0 47 8t45 21l48 -94q-33 -26 -84.5 -44t-94.5 -18q-88 0 -148.5 49.5t-60.5 145.5zM151 1466q0 55 38 88t93 33q53 0 91 -33t38 -88 q0 -53 -38 -87.5t-91 -34.5q-55 0 -93 34.5t-38 87.5z" />
<glyph unicode="&#x130;" horiz-adv-x="602" d="M169 1762q0 52 38 86.5t93 34.5t93 -34.5t38 -86.5q0 -55 -38 -90t-93 -35t-93 35t-38 90zM206 0v1504h190v-1504h-190z" />
<glyph unicode="&#x131;" horiz-adv-x="563" d="M188 0v1114h188v-1114h-188z" />
<glyph unicode="&#x134;" horiz-adv-x="1100" d="M71 213l137 96q51 -89 115.5 -129t144.5 -40q122 0 181.5 74.5t59.5 246.5v1043h193v-1062q0 -96 -24.5 -181.5t-73.5 -150t-128.5 -101.5t-189.5 -37q-282 0 -415 241zM487 1620l220 256h184l220 -256h-154l-154 155h-8l-154 -155h-154z" />
<glyph unicode="&#x135;" horiz-adv-x="565" d="M-92 -468l39 142q21 -7 48 -12.5t58 -5.5q83 0 110 57t27 160v1241h189v-1241q0 -170 -69 -270t-236 -100q-53 0 -94.5 9t-71.5 20zM-14 1315l218 322h156l218 -322h-138l-154 208h-8l-154 -208h-138z" />
<glyph unicode="&#x136;" horiz-adv-x="1327" d="M206 0v1504h190v-754h7l627 754h215l-470 -573l544 -931h-214l-449 782l-260 -305v-477h-190zM551 -403q92 11 148 35t56 70t-34 68t-83 33l42 87q116 -18 169 -58t53 -119q0 -50 -27.5 -87t-73.5 -62t-106.5 -40t-125.5 -19z" />
<glyph unicode="&#x137;" horiz-adv-x="1134" d="M188 0v1633h186v-1105h7l475 586h208l-374 -446l424 -668h-206l-326 536l-208 -243v-293h-186zM427 -403q92 11 148 35t56 70t-34 68t-83 33l42 87q116 -18 169 -58t53 -119q0 -50 -27.5 -87t-73.5 -62t-106.5 -40t-125.5 -19z" />
<glyph unicode="&#x138;" horiz-adv-x="1134" d="M188 0v1114h188v-591h7l473 591h208l-368 -446l418 -668h-206l-326 530l-206 -243v-287h-188z" />
<glyph unicode="&#x139;" horiz-adv-x="1114" d="M191 1620l201 256h215l-259 -256h-157zM206 0v1504h190v-1342h659v-162h-849z" />
<glyph unicode="&#x13a;" horiz-adv-x="584" d="M157 1739l201 256h215l-259 -256h-157zM188 225v1408h188v-1422q0 -46 16.5 -64t36.5 -18h17.5t23.5 4l25 -142q-18 -9 -43 -14t-64 -5q-108 0 -154 64.5t-46 188.5z" />
<glyph unicode="&#x13b;" horiz-adv-x="1114" d="M206 0v1504h190v-1342h659v-162h-849zM466 -403q92 11 148 35t56 70t-34 68t-83 33l42 87q116 -18 169 -58t53 -119q0 -50 -27.5 -87t-73.5 -62t-106.5 -40t-125.5 -19z" />
<glyph unicode="&#x13c;" horiz-adv-x="584" d="M188 225v1408h188v-1422q0 -46 16.5 -64t36.5 -18h17.5t23.5 4l25 -142q-18 -9 -43 -14t-64 -5q-108 0 -154 64.5t-46 188.5zM195 -403q92 11 148 35t56 70t-34 68t-83 33l42 87q116 -18 169 -58t53 -119q0 -50 -27.5 -87t-73.5 -62t-106.5 -40t-125.5 -19z" />
<glyph unicode="&#x13d;" horiz-adv-x="1114" d="M206 0v1504h190v-1342h659v-162h-849zM757 1667h134l-2 -130l-31 -356h-92z" />
<glyph unicode="&#x13e;" horiz-adv-x="604" d="M188 225v1408h188v-1422q0 -46 16.5 -64t36.5 -18h17.5t23.5 4l25 -142q-18 -9 -43 -14t-64 -5q-108 0 -154 64.5t-46 188.5zM498 1743h134l-2 -130l-31 -356h-92z" />
<glyph unicode="&#x13f;" horiz-adv-x="1114" d="M206 0v1504h190v-1342h659v-162h-849zM727 745q0 66 40.5 106.5t97.5 40.5q55 0 95 -40t40 -107q0 -61 -40 -101.5t-95 -40.5q-57 0 -97.5 40.5t-40.5 101.5z" />
<glyph unicode="&#x140;" horiz-adv-x="829" d="M188 225v1408h188v-1422q0 -46 16.5 -64t36.5 -18h17.5t23.5 4l25 -142q-18 -9 -43 -14t-64 -5q-108 0 -154 64.5t-46 188.5zM560 745q0 66 40.5 106.5t97.5 40.5q55 0 95 -40t40 -107q0 -61 -40 -101.5t-95 -40.5q-57 0 -97.5 40.5t-40.5 101.5z" />
<glyph unicode="&#x141;" horiz-adv-x="1121" d="M30 445v154l188 108v797h193v-712l423 228v-155l-423 -228v-475h655v-162h-848v551z" />
<glyph unicode="&#x142;" horiz-adv-x="600" d="M53 668v160l144 92v713h191v-615l160 103v-160l-160 -103v-647q0 -46 16 -64t36 -18h15.5t26.5 4l25 -142q-20 -9 -45.5 -14t-65.5 -5q-105 0 -152 64.5t-47 188.5v534z" />
<glyph unicode="&#x143;" horiz-adv-x="1484" d="M206 0v1504h197l545 -944l162 -312h9q-7 114 -15 237t-8 242v777h182v-1504h-197l-547 948l-162 309h-9q9 -115 17 -233t8 -238v-786h-182zM632 1620l201 256h215l-259 -256h-157z" />
<glyph unicode="&#x144;" horiz-adv-x="1254" d="M188 0v1114h156l17 -160h6q81 81 169 134.5t205 53.5q177 0 258.5 -110t81.5 -325v-707h-188v681q0 158 -50.5 228t-161.5 70q-87 0 -153.5 -43t-151.5 -128v-808h-188zM521 1315l206 322h197l-258 -322h-145z" />
<glyph unicode="&#x145;" horiz-adv-x="1484" d="M206 0v1504h197l545 -944l162 -312h9q-7 114 -15 237t-8 242v777h182v-1504h-197l-547 948l-162 309h-9q9 -115 17 -233t8 -238v-786h-182zM558 -403q92 11 148 35t56 70t-34 68t-83 33l42 87q116 -18 169 -58t53 -119q0 -50 -27.5 -87t-73.5 -62t-106.5 -40t-125.5 -19z " />
<glyph unicode="&#x146;" horiz-adv-x="1254" d="M188 0v1114h156l17 -160h6q81 81 169 134.5t205 53.5q177 0 258.5 -110t81.5 -325v-707h-188v681q0 158 -50.5 228t-161.5 70q-87 0 -153.5 -43t-151.5 -128v-808h-188zM445 -403q92 11 148 35t56 70t-34 68t-83 33l42 87q116 -18 169 -58t53 -119q0 -50 -27.5 -87 t-73.5 -62t-106.5 -40t-125.5 -19z" />
<glyph unicode="&#x147;" horiz-adv-x="1484" d="M206 0v1504h197l545 -944l162 -312h9q-7 114 -15 237t-8 242v777h182v-1504h-197l-547 948l-162 309h-9q9 -115 17 -233t8 -238v-786h-182zM436 1876h154l154 -156h8l154 156h154l-220 -256h-184z" />
<glyph unicode="&#x148;" horiz-adv-x="1254" d="M188 0v1114h156l17 -160h6q81 81 169 134.5t205 53.5q177 0 258.5 -110t81.5 -325v-707h-188v681q0 158 -50.5 228t-161.5 70q-87 0 -153.5 -43t-151.5 -128v-808h-188zM374 1637h138l154 -210h8l154 210h138l-218 -322h-156z" />
<glyph unicode="&#x149;" horiz-adv-x="1777" d="M144 1076q88 57 130.5 121t42.5 166q-7 -2 -19 -3q-48 0 -84.5 30t-36.5 85q0 59 34 94t87 35q66 0 105 -54.5t39 -155.5q0 -137 -62.5 -237t-182.5 -168zM698 0v1114h156l17 -160h6q81 81 169 134.5t205 53.5q177 0 258.5 -110t81.5 -325v-707h-188v681q0 158 -50.5 228 t-161.5 70q-87 0 -153.5 -43t-151.5 -128v-808h-188z" />
<glyph unicode="&#x14c;" horiz-adv-x="1522" d="M119 759q0 182 47 325.5t132 243t203 152t261 52.5q142 0 260 -53.5t204 -153.5t133 -243t47 -323q0 -181 -47 -326.5t-133 -247.5t-204 -157.5t-260 -55.5q-143 0 -261 55.5t-203 157.5t-132 247.5t-47 326.5zM317 759q0 -142 32 -255.5t90 -195t140 -125t183 -43.5 q100 0 181.5 43.5t140 125t90.5 195t32 255.5q0 140 -32 252.5t-90.5 190.5t-140 120.5t-181.5 42.5q-101 0 -183 -42.5t-140 -120.5t-90 -190.5t-32 -252.5zM478 1672v131h568v-131h-568z" />
<glyph unicode="&#x14d;" horiz-adv-x="1243" d="M105 556q0 140 42.5 248.5t114 184t164.5 114.5t196 39t196 -39t164 -114.5t113.5 -184t42.5 -248.5q0 -138 -42.5 -247.5t-113.5 -184t-164 -113.5t-196 -39t-196 39t-164.5 113.5t-114 184t-42.5 247.5zM300 556q0 -97 23 -175.5t65.5 -134.5t102.5 -86.5t131 -30.5 q70 0 130 30.5t102.5 86.5t65.5 134.5t23 175.5q0 96 -23 175t-65.5 136t-102.5 88.5t-130 31.5q-71 0 -131 -31.5t-102.5 -88.5t-65.5 -136t-23 -175zM340 1379v131h564v-131h-564z" />
<glyph unicode="&#x14e;" horiz-adv-x="1522" d="M119 759q0 182 47 325.5t132 243t203 152t261 52.5q142 0 260 -53.5t204 -153.5t133 -243t47 -323q0 -181 -47 -326.5t-133 -247.5t-204 -157.5t-260 -55.5q-143 0 -261 55.5t-203 157.5t-132 247.5t-47 326.5zM317 759q0 -142 32 -255.5t90 -195t140 -125t183 -43.5 q100 0 181.5 43.5t140 125t90.5 195t32 255.5q0 140 -32 252.5t-90.5 190.5t-140 120.5t-181.5 42.5q-101 0 -183 -42.5t-140 -120.5t-90 -190.5t-32 -252.5zM480 1876h114q11 -55 50.5 -99.5t117.5 -44.5t117 44.5t51 99.5h114q-6 -48 -24.5 -94t-53 -80t-85.5 -56 t-119 -22t-119 22t-85.5 56t-53 80t-24.5 94z" />
<glyph unicode="&#x14f;" horiz-adv-x="1243" d="M105 556q0 140 42.5 248.5t114 184t164.5 114.5t196 39t196 -39t164 -114.5t113.5 -184t42.5 -248.5q0 -138 -42.5 -247.5t-113.5 -184t-164 -113.5t-196 -39t-196 39t-164.5 113.5t-114 184t-42.5 247.5zM300 556q0 -97 23 -175.5t65.5 -134.5t102.5 -86.5t131 -30.5 q70 0 130 30.5t102.5 86.5t65.5 134.5t23 175.5q0 96 -23 175t-65.5 136t-102.5 88.5t-130 31.5q-71 0 -131 -31.5t-102.5 -88.5t-65.5 -136t-23 -175zM333 1611h117q8 -67 49.5 -121t122.5 -54t121.5 53.5t50.5 121.5h117q-5 -51 -22 -103t-51.5 -94t-88 -68.5 t-127.5 -26.5t-127.5 26.5t-88 68.5t-53 94t-20.5 103z" />
<glyph unicode="&#x150;" horiz-adv-x="1522" d="M119 759q0 182 47 325.5t132 243t203 152t261 52.5q142 0 260 -53.5t204 -153.5t133 -243t47 -323q0 -181 -47 -326.5t-133 -247.5t-204 -157.5t-260 -55.5q-143 0 -261 55.5t-203 157.5t-132 247.5t-47 326.5zM317 759q0 -142 32 -255.5t90 -195t140 -125t183 -43.5 q100 0 181.5 43.5t140 125t90.5 195t32 255.5q0 140 -32 252.5t-90.5 190.5t-140 120.5t-181.5 42.5q-101 0 -183 -42.5t-140 -120.5t-90 -190.5t-32 -252.5zM512 1620l151 256h177l-190 -256h-138zM874 1620l152 256h176l-192 -256h-136z" />
<glyph unicode="&#x151;" horiz-adv-x="1243" d="M105 556q0 140 42.5 248.5t114 184t164.5 114.5t196 39t196 -39t164 -114.5t113.5 -184t42.5 -248.5q0 -138 -42.5 -247.5t-113.5 -184t-164 -113.5t-196 -39t-196 39t-164.5 113.5t-114 184t-42.5 247.5zM300 556q0 -97 23 -175.5t65.5 -134.5t102.5 -86.5t131 -30.5 q70 0 130 30.5t102.5 86.5t65.5 134.5t23 175.5q0 96 -23 175t-65.5 136t-102.5 88.5t-130 31.5q-71 0 -131 -31.5t-102.5 -88.5t-65.5 -136t-23 -175zM397 1309l161 328h167l-202 -328h-126zM734 1309l164 328h164l-201 -328h-127z" />
<glyph unicode="&#x152;" horiz-adv-x="1942" d="M119 759q0 361 193 553t544 192h952v-160h-639v-473h533v-162h-533v-547h661v-162h-983q-173 0 -307.5 51.5t-228 149t-143 238.5t-49.5 320zM317 759q0 -289 139.5 -446t412.5 -157h110v1192h-110q-273 0 -412.5 -151t-139.5 -438z" />
<glyph unicode="&#x153;" horiz-adv-x="1924" d="M105 556q0 140 41.5 248.5t110.5 184t161 114.5t192 39q129 0 236.5 -71t167.5 -209q63 131 165.5 205.5t226.5 74.5q103 0 183.5 -37t135.5 -105.5t83.5 -166t28.5 -216.5q0 -64 -7 -105h-731q2 -88 30.5 -159t75.5 -121.5t110.5 -77.5t133.5 -27q81 0 147.5 26 t128.5 65l69 -131q-74 -46 -163.5 -80.5t-203.5 -34.5q-131 0 -238.5 73.5t-172.5 204.5q-131 -278 -410 -278q-101 0 -191.5 39t-159.5 113.5t-109.5 184t-40.5 247.5zM298 556q0 -97 23 -175.5t64.5 -134.5t98.5 -86.5t126 -30.5t126.5 30.5t98.5 86.5t64 134.5t23 175.5 q0 96 -23 175t-64 136t-98.5 88.5t-126.5 31.5q-68 0 -125.5 -31.5t-99 -88.5t-64.5 -136t-23 -175zM1099 637h573q0 173 -71 264.5t-200 91.5q-116 0 -201.5 -95t-100.5 -261z" />
<glyph unicode="&#x154;" horiz-adv-x="1331" d="M206 0v1504h470q115 0 213 -21t168 -72t108.5 -131t38.5 -197q0 -177 -92 -282t-245 -145l381 -656h-215l-363 635h-274v-635h-190zM396 792h254q177 0 270.5 72t93.5 219q0 149 -94.5 208.5t-269.5 59.5h-254v-559zM558 1620l201 256h215l-259 -256h-157z" />
<glyph unicode="&#x155;" horiz-adv-x="795" d="M188 0v1114h156l17 -201h6q57 105 138.5 167t177.5 62q66 0 120 -23l-37 -165q-28 9 -51 13.5t-56 4.5q-71 0 -148.5 -57t-134.5 -199v-716h-188zM348 1315l206 322h197l-258 -322h-145z" />
<glyph unicode="&#x156;" horiz-adv-x="1331" d="M206 0v1504h470q115 0 213 -21t168 -72t108.5 -131t38.5 -197q0 -177 -92 -282t-245 -145l381 -656h-215l-363 635h-274v-635h-190zM396 792h254q177 0 270.5 72t93.5 219q0 149 -94.5 208.5t-269.5 59.5h-254v-559zM514 -403q92 11 148 35t56 70t-34 68t-83 33l42 87 q116 -18 169 -58t53 -119q0 -50 -27.5 -87t-73.5 -62t-106.5 -40t-125.5 -19z" />
<glyph unicode="&#x157;" horiz-adv-x="795" d="M83 -403q92 11 148 35t56 70t-34 68t-83 33l42 87q116 -18 169 -58t53 -119q0 -50 -27.5 -87t-73.5 -62t-106.5 -40t-125.5 -19zM188 0v1114h156l17 -201h6q57 105 138.5 167t177.5 62q66 0 120 -23l-37 -165q-28 9 -51 13.5t-56 4.5q-71 0 -148.5 -57t-134.5 -199v-716 h-188z" />
<glyph unicode="&#x158;" horiz-adv-x="1331" d="M206 0v1504h470q115 0 213 -21t168 -72t108.5 -131t38.5 -197q0 -177 -92 -282t-245 -145l381 -656h-215l-363 635h-274v-635h-190zM362 1876h154l154 -156h8l154 156h154l-220 -256h-184zM396 792h254q177 0 270.5 72t93.5 219q0 149 -94.5 208.5t-269.5 59.5h-254v-559 z" />
<glyph unicode="&#x159;" horiz-adv-x="795" d="M188 0v1114h156l17 -201h6q57 105 138.5 167t177.5 62q66 0 120 -23l-37 -165q-28 9 -51 13.5t-56 4.5q-71 0 -148.5 -57t-134.5 -199v-716h-188zM201 1637h138l154 -210h8l154 210h138l-218 -322h-156z" />
<glyph unicode="&#x15a;" horiz-adv-x="1224" d="M96 195l115 133q80 -85 189.5 -136.5t225.5 -51.5q149 0 232 68t83 177q0 57 -19.5 97.5t-53.5 69t-79 51.5t-99 49l-215 94q-53 22 -108 54t-98.5 78t-71 109.5t-27.5 145.5q0 86 35.5 159t98.5 127t149 83.5t189 29.5q135 0 250 -51.5t196 -134.5l-104 -123 q-68 66 -152 104t-190 38q-127 0 -203 -58.5t-76 -161.5q0 -55 21 -93t58 -67t81 -50.5t90 -39.5l212 -92q64 -28 122 -63.5t99.5 -82.5t65.5 -110t24 -146q0 -90 -36 -167.5t-102.5 -136t-160 -92t-213.5 -33.5q-158 0 -293.5 60t-234.5 163zM524 1620l201 256h215 l-259 -256h-157z" />
<glyph unicode="&#x15b;" horiz-adv-x="960" d="M64 127l94 125q74 -59 150.5 -96t177.5 -37q110 0 165.5 51t55.5 123q0 44 -23 76t-59 56t-82 42.5t-92 37.5q-59 20 -118.5 46.5t-106.5 64.5t-77 88.5t-30 120.5q0 67 26.5 125.5t76 101t120.5 66.5t161 24q105 0 193 -37t153 -89l-90 -119q-57 44 -119 71.5t-135 27.5 q-105 0 -155 -48.5t-50 -113.5q0 -39 21 -67.5t55.5 -49.5t79 -38.5t92.5 -36.5q59 -23 120 -48t109 -63t79.5 -93t31.5 -133q0 -69 -27 -129t-78.5 -105t-128 -72t-175.5 -27q-118 0 -226.5 43.5t-188.5 111.5zM354 1315l206 322h197l-258 -322h-145z" />
<glyph unicode="&#x15c;" horiz-adv-x="1224" d="M96 195l115 133q80 -85 189.5 -136.5t225.5 -51.5q149 0 232 68t83 177q0 57 -19.5 97.5t-53.5 69t-79 51.5t-99 49l-215 94q-53 22 -108 54t-98.5 78t-71 109.5t-27.5 145.5q0 86 35.5 159t98.5 127t149 83.5t189 29.5q135 0 250 -51.5t196 -134.5l-104 -123 q-68 66 -152 104t-190 38q-127 0 -203 -58.5t-76 -161.5q0 -55 21 -93t58 -67t81 -50.5t90 -39.5l212 -92q64 -28 122 -63.5t99.5 -82.5t65.5 -110t24 -146q0 -90 -36 -167.5t-102.5 -136t-160 -92t-213.5 -33.5q-158 0 -293.5 60t-234.5 163zM328 1620l220 256h184 l220 -256h-154l-154 155h-8l-154 -155h-154z" />
<glyph unicode="&#x15d;" horiz-adv-x="960" d="M64 127l94 125q74 -59 150.5 -96t177.5 -37q110 0 165.5 51t55.5 123q0 44 -23 76t-59 56t-82 42.5t-92 37.5q-59 20 -118.5 46.5t-106.5 64.5t-77 88.5t-30 120.5q0 67 26.5 125.5t76 101t120.5 66.5t161 24q105 0 193 -37t153 -89l-90 -119q-57 44 -119 71.5t-135 27.5 q-105 0 -155 -48.5t-50 -113.5q0 -39 21 -67.5t55.5 -49.5t79 -38.5t92.5 -36.5q59 -23 120 -48t109 -63t79.5 -93t31.5 -133q0 -69 -27 -129t-78.5 -105t-128 -72t-175.5 -27q-118 0 -226.5 43.5t-188.5 111.5zM207 1315l218 322h156l218 -322h-138l-154 208h-8l-154 -208 h-138z" />
<glyph unicode="&#x15e;" horiz-adv-x="1224" d="M96 195l115 133q80 -85 189.5 -136.5t225.5 -51.5q149 0 232 68t83 177q0 57 -19.5 97.5t-53.5 69t-79 51.5t-99 49l-215 94q-53 22 -108 54t-98.5 78t-71 109.5t-27.5 145.5q0 86 35.5 159t98.5 127t149 83.5t189 29.5q135 0 250 -51.5t196 -134.5l-104 -123 q-68 66 -152 104t-190 38q-127 0 -203 -58.5t-76 -161.5q0 -55 21 -93t58 -67t81 -50.5t90 -39.5l212 -92q64 -28 122 -63.5t99.5 -82.5t65.5 -110t24 -146q0 -90 -36 -167.5t-102.5 -136t-160 -92t-213.5 -33.5q-158 0 -293.5 60t-234.5 163zM431 -394q92 11 148 37.5 t56 72.5q0 45 -37.5 69.5t-107.5 42.5l92 179h122l-58 -121q55 -18 95.5 -55t40.5 -109q0 -50 -27.5 -86.5t-73.5 -61.5t-106.5 -40.5t-125.5 -21.5z" />
<glyph unicode="&#x15f;" horiz-adv-x="960" d="M64 127l94 125q74 -59 150.5 -96t177.5 -37q110 0 165.5 51t55.5 123q0 44 -23 76t-59 56t-82 42.5t-92 37.5q-59 20 -118.5 46.5t-106.5 64.5t-77 88.5t-30 120.5q0 67 26.5 125.5t76 101t120.5 66.5t161 24q105 0 193 -37t153 -89l-90 -119q-57 44 -119 71.5t-135 27.5 q-105 0 -155 -48.5t-50 -113.5q0 -39 21 -67.5t55.5 -49.5t79 -38.5t92.5 -36.5q59 -23 120 -48t109 -63t79.5 -93t31.5 -133q0 -69 -27 -129t-78.5 -105t-128 -72t-175.5 -27q-118 0 -226.5 43.5t-188.5 111.5zM315 -394q92 11 148 37.5t56 72.5q0 45 -37.5 69.5 t-107.5 42.5l92 179h122l-58 -121q55 -18 95.5 -55t40.5 -109q0 -50 -27.5 -86.5t-73.5 -61.5t-106.5 -40.5t-125.5 -21.5z" />
<glyph unicode="&#x160;" horiz-adv-x="1224" d="M96 195l115 133q80 -85 189.5 -136.5t225.5 -51.5q149 0 232 68t83 177q0 57 -19.5 97.5t-53.5 69t-79 51.5t-99 49l-215 94q-53 22 -108 54t-98.5 78t-71 109.5t-27.5 145.5q0 86 35.5 159t98.5 127t149 83.5t189 29.5q135 0 250 -51.5t196 -134.5l-104 -123 q-68 66 -152 104t-190 38q-127 0 -203 -58.5t-76 -161.5q0 -55 21 -93t58 -67t81 -50.5t90 -39.5l212 -92q64 -28 122 -63.5t99.5 -82.5t65.5 -110t24 -146q0 -90 -36 -167.5t-102.5 -136t-160 -92t-213.5 -33.5q-158 0 -293.5 60t-234.5 163zM328 1876h154l154 -156h8 l154 156h154l-220 -256h-184z" />
<glyph unicode="&#x161;" horiz-adv-x="960" d="M64 127l94 125q74 -59 150.5 -96t177.5 -37q110 0 165.5 51t55.5 123q0 44 -23 76t-59 56t-82 42.5t-92 37.5q-59 20 -118.5 46.5t-106.5 64.5t-77 88.5t-30 120.5q0 67 26.5 125.5t76 101t120.5 66.5t161 24q105 0 193 -37t153 -89l-90 -119q-57 44 -119 71.5t-135 27.5 q-105 0 -155 -48.5t-50 -113.5q0 -39 21 -67.5t55.5 -49.5t79 -38.5t92.5 -36.5q59 -23 120 -48t109 -63t79.5 -93t31.5 -133q0 -69 -27 -129t-78.5 -105t-128 -72t-175.5 -27q-118 0 -226.5 43.5t-188.5 111.5zM207 1637h138l154 -210h8l154 210h138l-218 -322h-156z" />
<glyph unicode="&#x162;" horiz-adv-x="1228" d="M64 1344v160h1101v-160h-454v-1344h-192v1344h-455zM411 -394q92 11 148 37.5t56 72.5q0 45 -37.5 69.5t-107.5 42.5l92 179h122l-58 -121q55 -18 95.5 -55t40.5 -109q0 -50 -27.5 -86.5t-73.5 -61.5t-106.5 -40.5t-125.5 -21.5z" />
<glyph unicode="&#x163;" horiz-adv-x="775" d="M55 961v142l175 11l22 313h159v-313h300v-153h-300v-619q0 -103 37.5 -159t133.5 -56q31 0 65 8.5t62 20.5l37 -143q-46 -15 -100.5 -28t-106.5 -13q-90 0 -150.5 28t-98.5 76t-53.5 116.5t-15.5 151.5v617h-166zM300 -394q92 11 148 37.5t56 72.5q0 45 -37.5 69.5 t-107.5 42.5l92 179h122l-58 -121q55 -18 95.5 -55t40.5 -109q0 -50 -27.5 -86.5t-73.5 -61.5t-106.5 -40.5t-125.5 -21.5z" />
<glyph unicode="&#x164;" horiz-adv-x="1228" d="M64 1344v160h1101v-160h-454v-1344h-192v1344h-455zM301 1876h154l154 -156h8l154 156h154l-220 -256h-184z" />
<glyph unicode="&#x165;" horiz-adv-x="775" d="M55 961v142l175 11l22 313h159v-313h300v-153h-300v-619q0 -103 37.5 -159t133.5 -56q31 0 65 8.5t62 20.5l37 -143q-46 -15 -100.5 -28t-106.5 -13q-90 0 -150.5 28t-98.5 76t-53.5 116.5t-15.5 151.5v617h-166zM581 1743h134l-2 -130l-31 -356h-92z" />
<glyph unicode="&#x168;" horiz-adv-x="1478" d="M199 622v882h191v-887q0 -135 27.5 -227t74.5 -147t111.5 -79t137.5 -24q77 0 140.5 24t112 79t75.5 147t27 227v887h184v-882q0 -182 -41.5 -305.5t-113.5 -200.5t-170.5 -110.5t-213.5 -33.5q-114 0 -214 33.5t-172.5 110.5t-114 200.5t-41.5 305.5zM405 1631 q12 107 62 177t133 70q46 0 83 -18t68 -41t60.5 -41t62.5 -18q32 0 57 30.5t34 87.5h106q-12 -105 -62 -176t-133 -71q-46 0 -83 18.5t-68 41.5t-60.5 41.5t-62.5 18.5q-32 0 -57 -30.5t-34 -89.5h-106z" />
<glyph unicode="&#x169;" horiz-adv-x="1247" d="M172 409v705h191v-681q0 -157 49 -227t159 -70q88 0 154.5 44.5t145.5 143.5v790h189v-1114h-156l-16 175h-8q-78 -92 -163.5 -147.5t-202.5 -55.5q-179 0 -260.5 110.5t-81.5 326.5zM305 1328q9 103 55 173t131 70q43 0 80 -18.5t68 -40t58.5 -40t55.5 -18.5 q64 0 84 117h106q-9 -103 -55 -173t-131 -70q-43 0 -79 18.5t-67 40t-58.5 40t-57.5 18.5q-64 0 -84 -117h-106z" />
<glyph unicode="&#x16a;" horiz-adv-x="1478" d="M199 622v882h191v-887q0 -135 27.5 -227t74.5 -147t111.5 -79t137.5 -24q77 0 140.5 24t112 79t75.5 147t27 227v887h184v-882q0 -182 -41.5 -305.5t-113.5 -200.5t-170.5 -110.5t-213.5 -33.5q-114 0 -214 33.5t-172.5 110.5t-114 200.5t-41.5 305.5zM454 1672v131h568 v-131h-568z" />
<glyph unicode="&#x16b;" horiz-adv-x="1247" d="M172 409v705h191v-681q0 -157 49 -227t159 -70q88 0 154.5 44.5t145.5 143.5v790h189v-1114h-156l-16 175h-8q-78 -92 -163.5 -147.5t-202.5 -55.5q-179 0 -260.5 110.5t-81.5 326.5zM335 1379v131h564v-131h-564z" />
<glyph unicode="&#x16c;" horiz-adv-x="1478" d="M199 622v882h191v-887q0 -135 27.5 -227t74.5 -147t111.5 -79t137.5 -24q77 0 140.5 24t112 79t75.5 147t27 227v887h184v-882q0 -182 -41.5 -305.5t-113.5 -200.5t-170.5 -110.5t-213.5 -33.5q-114 0 -214 33.5t-172.5 110.5t-114 200.5t-41.5 305.5zM456 1876h114 q11 -55 50.5 -99.5t117.5 -44.5t117 44.5t51 99.5h114q-6 -48 -24.5 -94t-53 -80t-85.5 -56t-119 -22t-119 22t-85.5 56t-53 80t-24.5 94z" />
<glyph unicode="&#x16d;" horiz-adv-x="1247" d="M172 409v705h191v-681q0 -157 49 -227t159 -70q88 0 154.5 44.5t145.5 143.5v790h189v-1114h-156l-16 175h-8q-78 -92 -163.5 -147.5t-202.5 -55.5q-179 0 -260.5 110.5t-81.5 326.5zM335 1611h117q8 -67 49.5 -121t122.5 -54t121.5 53.5t50.5 121.5h117q-5 -51 -22 -103 t-51.5 -94t-88 -68.5t-127.5 -26.5t-127.5 26.5t-88 68.5t-53 94t-20.5 103z" />
<glyph unicode="&#x16e;" horiz-adv-x="1478" d="M199 622v882h191v-887q0 -135 27.5 -227t74.5 -147t111.5 -79t137.5 -24q77 0 140.5 24t112 79t75.5 147t27 227v887h184v-882q0 -182 -41.5 -305.5t-113.5 -200.5t-170.5 -110.5t-213.5 -33.5q-114 0 -214 33.5t-172.5 110.5t-114 200.5t-41.5 305.5zM525 1805 q0 92 59.5 147t153.5 55q92 0 152.5 -55t60.5 -147q0 -94 -60.5 -147.5t-152.5 -53.5q-94 0 -153.5 53.5t-59.5 147.5zM628 1805q0 -57 32 -88t78 -31q44 0 76 31t32 88q0 53 -32 85t-76 32q-46 0 -78 -32t-32 -85z" />
<glyph unicode="&#x16f;" horiz-adv-x="1247" d="M172 409v705h191v-681q0 -157 49 -227t159 -70q88 0 154.5 44.5t145.5 143.5v790h189v-1114h-156l-16 175h-8q-78 -92 -163.5 -147.5t-202.5 -55.5q-179 0 -260.5 110.5t-81.5 326.5zM411 1456q0 96 59.5 154t153.5 58t153.5 -58t59.5 -154t-59.5 -154.5t-153.5 -58.5 t-153.5 58.5t-59.5 154.5zM514 1456q0 -59 32 -93.5t78 -34.5t78 34.5t32 93.5q0 57 -32 92t-78 35t-78 -34.5t-32 -92.5z" />
<glyph unicode="&#x170;" horiz-adv-x="1478" d="M199 622v882h191v-887q0 -135 27.5 -227t74.5 -147t111.5 -79t137.5 -24q77 0 140.5 24t112 79t75.5 147t27 227v887h184v-882q0 -182 -41.5 -305.5t-113.5 -200.5t-170.5 -110.5t-213.5 -33.5q-114 0 -214 33.5t-172.5 110.5t-114 200.5t-41.5 305.5zM488 1620l151 256 h177l-190 -256h-138zM850 1620l152 256h176l-192 -256h-136z" />
<glyph unicode="&#x171;" horiz-adv-x="1247" d="M172 409v705h191v-681q0 -157 49 -227t159 -70q88 0 154.5 44.5t145.5 143.5v790h189v-1114h-156l-16 175h-8q-78 -92 -163.5 -147.5t-202.5 -55.5q-179 0 -260.5 110.5t-81.5 326.5zM399 1309l161 328h167l-202 -328h-126zM736 1309l164 328h164l-201 -328h-127z" />
<glyph unicode="&#x172;" horiz-adv-x="1478" d="M199 622v882h191v-887q0 -135 27.5 -227t74.5 -147t111.5 -79t137.5 -24q77 0 140.5 24t112 79t75.5 147t27 227v887h184v-882q0 -152 -26 -256.5t-74.5 -177t-116 -119.5t-150.5 -85q-90 -43 -136 -107.5t-46 -121.5q0 -53 35 -79.5t76 -26.5q48 0 92 32l53 -103 q-33 -26 -85.5 -45t-98.5 -19q-92 0 -156.5 50.5t-64.5 148.5q0 48 15.5 86.5t37 70t48 58l46.5 46.5q-116 2 -213.5 39t-167.5 114t-109.5 198.5t-39.5 296.5z" />
<glyph unicode="&#x173;" horiz-adv-x="1247" d="M172 409v705h191v-681q0 -157 48 -227t160 -70q88 0 154.5 44.5t145.5 143.5v790h189v-1114q-104 -50 -152 -112.5t-48 -128.5q0 -52 33 -78.5t72 -26.5q28 0 51 8t44 21l48 -94q-33 -26 -84.5 -44t-95.5 -18q-87 0 -147.5 49.5t-60.5 145.5q0 94 56 164t130 123l-18 166 h-8q-78 -92 -163.5 -147.5t-202.5 -55.5q-179 0 -260.5 110.5t-81.5 326.5z" />
<glyph unicode="&#x174;" horiz-adv-x="1802" d="M53 1504h197l159 -819q20 -124 43 -242.5t43 -243.5h10q26 125 53 245t52 241l209 819h174l209 -819q28 -118 55.5 -239.5t54.5 -246.5h10q20 125 40.5 245t43.5 241l159 819h183l-312 -1504h-230l-227 906q-20 87 -37.5 170.5t-35.5 171.5h-9q-18 -88 -37.5 -171.5 t-38.5 -170.5l-222 -906h-227zM590 1620l220 256h184l220 -256h-154l-154 155h-8l-154 -155h-154z" />
<glyph unicode="&#x175;" horiz-adv-x="1646" d="M55 1114h193l165 -644q18 -80 34.5 -155.5t31.5 -154.5h9q18 79 36.5 155.5t39.5 154.5l172 644h184l174 -644q20 -80 40 -155.5t39 -154.5h9q18 79 34 154.5t34 155.5l163 644h179l-298 -1114h-230l-160 599q-20 81 -37.5 158t-38.5 163h-9q-18 -86 -36.5 -165 t-41.5 -159l-156 -596h-220zM529 1315l218 322h156l218 -322h-138l-154 208h-8l-154 -208h-138z" />
<glyph unicode="&#x176;" horiz-adv-x="1090" d="M-2 1504h204l194 -423q37 -83 72 -163t73 -165h10q39 85 78 165t73 163l193 423h199l-452 -922v-582h-193v582zM233 1620l220 256h184l220 -256h-154l-154 155h-8l-154 -155h-154z" />
<glyph unicode="&#x177;" horiz-adv-x="1070" d="M28 1114h195l226 -617q26 -74 54.5 -155t54.5 -158h9q25 76 47.5 158t46.5 155l199 617h184l-420 -1206q-30 -83 -66.5 -154t-87 -122.5t-115 -81t-149.5 -29.5q-39 0 -71 5.5t-59 16.5l36 150q18 -4 41.5 -10.5t43.5 -6.5q96 0 157.5 68t94.5 171l26 83zM260 1315 l218 322h156l218 -322h-138l-154 208h-8l-154 -208h-138z" />
<glyph unicode="&#x178;" horiz-adv-x="1090" d="M-2 1504h204l194 -423q37 -83 72 -163t73 -165h10q39 85 78 165t73 163l193 423h199l-452 -922v-582h-193v582zM236 1753q0 50 30.5 81t81.5 31q48 0 80 -31t32 -81q0 -48 -32 -80.5t-80 -32.5q-51 0 -81.5 32.5t-30.5 80.5zM630 1753q0 50 32 81t80 31q51 0 81.5 -31 t30.5 -81q0 -48 -30.5 -80.5t-81.5 -32.5q-48 0 -80 32.5t-32 80.5z" />
<glyph unicode="&#x179;" horiz-adv-x="1235" d="M103 0v114l792 1230h-720v160h958v-112l-794 -1230h801v-162h-1037zM526 1620l201 256h215l-259 -256h-157z" />
<glyph unicode="&#x17a;" horiz-adv-x="974" d="M71 0v101l588 860h-523v153h761v-100l-588 -861h606v-153h-844zM374 1315l206 322h197l-258 -322h-145z" />
<glyph unicode="&#x17b;" horiz-adv-x="1235" d="M103 0v114l792 1230h-720v160h958v-112l-794 -1230h801v-162h-1037zM511 1762q0 52 38 86.5t93 34.5t93 -34.5t38 -86.5q0 -55 -38 -90t-93 -35t-93 35t-38 90z" />
<glyph unicode="&#x17c;" horiz-adv-x="974" d="M71 0v101l588 860h-523v153h761v-100l-588 -861h606v-153h-844zM399 1468q0 53 35.5 88.5t88.5 35.5t88.5 -35.5t35.5 -88.5q0 -55 -35.5 -89.5t-88.5 -34.5t-88.5 34.5t-35.5 89.5z" />
<glyph unicode="&#x17d;" horiz-adv-x="1235" d="M103 0v114l792 1230h-720v160h958v-112l-794 -1230h801v-162h-1037zM330 1876h154l154 -156h8l154 156h154l-220 -256h-184z" />
<glyph unicode="&#x17e;" horiz-adv-x="974" d="M71 0v101l588 860h-523v153h761v-100l-588 -861h606v-153h-844zM227 1637h138l154 -210h8l154 210h138l-218 -322h-156z" />
<glyph unicode="&#x180;" horiz-adv-x="1247" d="M18 1309v99l170 12v213h188v-213h418v-111h-418v-167l-4 -201q76 66 165 110.5t183 44.5q108 0 190.5 -39t138.5 -109t85 -171t29 -224q0 -137 -39 -245.5t-105.5 -183t-154 -113.5t-183.5 -39q-78 0 -161.5 36t-156.5 102h-8l-16 -110h-151v1309h-170zM376 248 q74 -64 146 -90.5t128 -26.5q68 0 126 28.5t101 82.5t67 131.5t24 177.5q0 175 -68 281.5t-226 106.5q-135 0 -298 -153v-538z" />
<glyph unicode="&#x18f;" horiz-adv-x="1510" d="M133 746q0 11 1.5 25.5t3.5 31.5h1064q-11 267 -127 419t-329 152q-112 0 -206.5 -41.5t-160.5 -107.5l-92 130q80 79 200.5 128t274.5 49q144 0 261 -53.5t198.5 -153.5t126 -243t44.5 -325q0 -181 -47 -325.5t-131.5 -246.5t-202.5 -157.5t-258 -55.5 q-143 0 -256.5 55.5t-194.5 157.5t-125 244t-44 317zM328 656q7 -124 40 -221.5t89.5 -165t131 -103t164.5 -35.5q183 0 302.5 140t141.5 385h-869z" />
<glyph unicode="&#x192;" horiz-adv-x="1139" d="M41 -188l35 142q53 -22 114 -22q108 0 155 90t66 267l55 503h-199v134l157 10h58l13 128q26 230 114.5 349t270.5 119q51 0 99.5 -12t80.5 -29l-42 -145q-26 11 -55 22t-73 11q-52 0 -89 -25.5t-61 -67t-39.5 -95t-21.5 -110.5l-16 -145h289v-144h-305l-60 -544 q-11 -106 -36.5 -192t-69 -147.5t-110 -96.5t-163.5 -35q-52 0 -96 9.5t-71 25.5z" />
<glyph unicode="&#x1a0;" horiz-adv-x="1522" d="M124 759q0 182 47 325.5t133 243t204 152t260 52.5q165 0 298 -73q97 18 141.5 53.5t44.5 100.5q0 26 -9 48t-22 46l134 66q23 -33 38 -69t15 -80q0 -99 -63 -157.5t-170 -83.5q110 -101 173 -258t63 -366q0 -181 -47 -326.5t-133 -247.5t-204.5 -157.5t-258.5 -55.5 q-142 0 -260 55.5t-204 157.5t-133 247.5t-47 326.5zM321 759q0 -142 32 -255.5t91 -195t141.5 -125t182.5 -43.5q101 0 183 43.5t140 125t90 195t32 255.5q0 140 -32 252.5t-90 190.5t-140 120.5t-183 42.5q-100 0 -182.5 -42.5t-141.5 -120.5t-91 -190.5t-32 -252.5z" />
<glyph unicode="&#x1a1;" horiz-adv-x="1243" d="M105 556q0 140 42.5 248.5t114 184t164.5 114.5t196 39q114 0 216 -48q80 14 124.5 49.5t44.5 99.5q0 26 -9 50t-26 47l138 66q22 -33 37.5 -69.5t15.5 -79.5q0 -103 -64 -157t-149 -80q85 -76 136.5 -192.5t51.5 -271.5q0 -138 -42.5 -247.5t-113.5 -184t-164 -113.5 t-196 -39t-196 39t-164.5 113.5t-114 184t-42.5 247.5zM300 556q0 -97 23 -175.5t65.5 -134.5t102.5 -86.5t131 -30.5q70 0 130 30.5t102.5 86.5t65.5 134.5t23 175.5q0 96 -23 175t-65.5 136t-102.5 88.5t-130 31.5q-71 0 -131 -31.5t-102.5 -88.5t-65.5 -136t-23 -175z " />
<glyph unicode="&#x1af;" horiz-adv-x="1510" d="M199 622v882h191v-887q0 -135 27.5 -227t74.5 -147t111.5 -79t137.5 -24q77 0 140.5 24t112 79t75.5 147t27 227v887h77q96 9 151 41.5t55 113.5q0 25 -9.5 47.5t-25.5 46.5l136 66q25 -33 38.5 -69t13.5 -80q0 -57 -20.5 -98.5t-55 -71t-80 -48t-96.5 -30.5v-800 q0 -182 -41.5 -305.5t-113.5 -200.5t-170.5 -110.5t-213.5 -33.5q-114 0 -214 33.5t-172.5 110.5t-114 200.5t-41.5 305.5z" />
<glyph unicode="&#x1b0;" horiz-adv-x="1247" d="M172 409v705h191v-681q0 -157 49 -227t159 -70q88 0 154.5 44.5t145.5 143.5v790h49q80 9 136 41.5t56 110.5q0 25 -9 49.5t-22 47.5l134 66q23 -32 38.5 -68.5t15.5 -80.5q0 -52 -18.5 -91.5t-47 -68t-66.5 -47t-77 -29.5v-1044h-156l-16 175h-8q-78 -92 -163.5 -147.5 t-202.5 -55.5q-179 0 -260.5 110.5t-81.5 326.5z" />
<glyph unicode="&#x1cd;" horiz-adv-x="1247" d="M7 0l509 1504h215l510 -1504h-204l-142 459h-549l-144 -459h-195zM310 1876h154l154 -156h8l154 156h154l-220 -256h-184zM394 613h453l-72 229q-41 127 -77.5 251t-73.5 255h-9q-35 -131 -71.5 -255.5t-77.5 -250.5z" />
<glyph unicode="&#x1ce;" horiz-adv-x="1173" d="M133 289q0 184 164 281.5t522 136.5q0 52 -10 102.5t-36.5 90t-70 63.5t-113.5 24q-98 0 -181.5 -37t-151.5 -83l-75 131q79 50 191 97t247 47q204 0 296 -124.5t92 -334.5v-683h-156l-17 133h-4q-81 -66 -173.5 -113.5t-195.5 -47.5q-142 0 -235 83t-93 234zM319 302 q0 -96 56 -137t139 -41q81 0 152.5 37.5t152.5 111.5v309q-140 -18 -236.5 -43t-154.5 -59.5t-83.5 -79.5t-25.5 -98zM321 1637h138l154 -210h8l154 210h138l-218 -322h-156z" />
<glyph unicode="&#x1cf;" horiz-adv-x="602" d="M-12 1876h154l154 -156h8l154 156h154l-220 -256h-184zM206 0v1504h190v-1504h-190z" />
<glyph unicode="&#x1d0;" horiz-adv-x="563" d="M-14 1637h138l154 -210h8l154 210h138l-218 -322h-156zM188 0v1114h188v-1114h-188z" />
<glyph unicode="&#x1d1;" horiz-adv-x="1522" d="M119 759q0 182 47 325.5t132 243t203 152t261 52.5q142 0 260 -53.5t204 -153.5t133 -243t47 -323q0 -181 -47 -326.5t-133 -247.5t-204 -157.5t-260 -55.5q-143 0 -261 55.5t-203 157.5t-132 247.5t-47 326.5zM317 759q0 -142 32 -255.5t90 -195t140 -125t183 -43.5 q100 0 181.5 43.5t140 125t90.5 195t32 255.5q0 140 -32 252.5t-90.5 190.5t-140 120.5t-181.5 42.5q-101 0 -183 -42.5t-140 -120.5t-90 -190.5t-32 -252.5zM450 1876h154l154 -156h8l154 156h154l-220 -256h-184z" />
<glyph unicode="&#x1d2;" horiz-adv-x="1243" d="M105 556q0 140 42.5 248.5t114 184t164.5 114.5t196 39t196 -39t164 -114.5t113.5 -184t42.5 -248.5q0 -138 -42.5 -247.5t-113.5 -184t-164 -113.5t-196 -39t-196 39t-164.5 113.5t-114 184t-42.5 247.5zM300 556q0 -97 23 -175.5t65.5 -134.5t102.5 -86.5t131 -30.5 q70 0 130 30.5t102.5 86.5t65.5 134.5t23 175.5q0 96 -23 175t-65.5 136t-102.5 88.5t-130 31.5q-71 0 -131 -31.5t-102.5 -88.5t-65.5 -136t-23 -175zM326 1637h138l154 -210h8l154 210h138l-218 -322h-156z" />
<glyph unicode="&#x1d3;" horiz-adv-x="1478" d="M199 622v882h191v-887q0 -135 27.5 -227t74.5 -147t111.5 -79t137.5 -24q77 0 140.5 24t112 79t75.5 147t27 227v887h184v-882q0 -182 -41.5 -305.5t-113.5 -200.5t-170.5 -110.5t-213.5 -33.5q-114 0 -214 33.5t-172.5 110.5t-114 200.5t-41.5 305.5zM426 1876h154 l154 -156h8l154 156h154l-220 -256h-184z" />
<glyph unicode="&#x1d4;" horiz-adv-x="1247" d="M172 409v705h191v-681q0 -157 49 -227t159 -70q88 0 154.5 44.5t145.5 143.5v790h189v-1114h-156l-16 175h-8q-78 -92 -163.5 -147.5t-202.5 -55.5q-179 0 -260.5 110.5t-81.5 326.5zM328 1637h138l154 -210h8l154 210h138l-218 -322h-156z" />
<glyph unicode="&#x1d5;" horiz-adv-x="1478" d="M199 622v882h191v-887q0 -135 27.5 -227t74.5 -147t111.5 -79t137.5 -24q77 0 140.5 24t112 79t75.5 147t27 227v887h184v-882q0 -182 -41.5 -305.5t-113.5 -200.5t-170.5 -110.5t-213.5 -33.5q-114 0 -214 33.5t-172.5 110.5t-114 200.5t-41.5 305.5zM436 1746 q0 46 29.5 74.5t75.5 28.5t74.5 -29t28.5 -74q0 -46 -28.5 -76t-74.5 -30t-75.5 30t-29.5 76zM454 1975v106h568v-106h-568zM832 1746q0 46 28.5 74.5t74.5 28.5t75.5 -29t29.5 -74q0 -46 -29.5 -76t-75.5 -30t-74.5 30t-28.5 76z" />
<glyph unicode="&#x1d6;" horiz-adv-x="1247" d="M172 409v705h191v-681q0 -157 49 -227t159 -70q88 0 154.5 44.5t145.5 143.5v790h189v-1114h-156l-16 175h-8q-78 -92 -163.5 -147.5t-202.5 -55.5q-179 0 -260.5 110.5t-81.5 326.5zM322 1452q0 45 29.5 75.5t75.5 30.5t74.5 -30.5t28.5 -75.5q0 -44 -28.5 -74 t-74.5 -30t-75.5 30t-29.5 74zM340 1720v108h566v-108h-566zM718 1452q0 45 28.5 75.5t74.5 30.5t75.5 -30.5t29.5 -75.5q0 -44 -29.5 -74t-75.5 -30t-74.5 30t-28.5 74z" />
<glyph unicode="&#x1d7;" horiz-adv-x="1478" d="M199 622v882h191v-887q0 -135 27.5 -227t74.5 -147t111.5 -79t137.5 -24q77 0 140.5 24t112 79t75.5 147t27 227v887h184v-882q0 -182 -41.5 -305.5t-113.5 -200.5t-170.5 -110.5t-213.5 -33.5q-114 0 -214 33.5t-172.5 110.5t-114 200.5t-41.5 305.5zM436 1746 q0 46 29.5 74.5t75.5 28.5t74.5 -29t28.5 -74q0 -46 -28.5 -76t-74.5 -30t-75.5 30t-29.5 76zM622 1924l203 256h209l-257 -256h-155zM832 1746q0 46 28.5 74.5t74.5 28.5t75.5 -29t29.5 -74q0 -46 -29.5 -76t-75.5 -30t-74.5 30t-28.5 76z" />
<glyph unicode="&#x1d8;" horiz-adv-x="1247" d="M172 409v705h191v-681q0 -157 49 -227t159 -70q88 0 154.5 44.5t145.5 143.5v790h189v-1114h-156l-16 175h-8q-78 -92 -163.5 -147.5t-202.5 -55.5q-179 0 -260.5 110.5t-81.5 326.5zM322 1452q0 45 29.5 75.5t75.5 30.5t74.5 -30.5t28.5 -75.5q0 -44 -28.5 -74 t-74.5 -30t-75.5 30t-29.5 74zM502 1652l188 236h182l-237 -236h-133zM718 1452q0 45 28.5 75.5t74.5 30.5t75.5 -30.5t29.5 -75.5q0 -44 -29.5 -74t-75.5 -30t-74.5 30t-28.5 74z" />
<glyph unicode="&#x1d9;" horiz-adv-x="1478" d="M199 622v882h191v-887q0 -135 27.5 -227t74.5 -147t111.5 -79t137.5 -24q77 0 140.5 24t112 79t75.5 147t27 227v887h184v-882q0 -182 -41.5 -305.5t-113.5 -200.5t-170.5 -110.5t-213.5 -33.5q-114 0 -214 33.5t-172.5 110.5t-114 200.5t-41.5 305.5zM426 2180h154 l154 -157h8l154 157h154l-220 -256h-184zM436 1746q0 46 29.5 74.5t75.5 28.5t74.5 -29t28.5 -74q0 -46 -28.5 -76t-74.5 -30t-75.5 30t-29.5 76zM832 1746q0 46 28.5 74.5t74.5 28.5t75.5 -29t29.5 -74q0 -46 -29.5 -76t-75.5 -30t-74.5 30t-28.5 76z" />
<glyph unicode="&#x1da;" horiz-adv-x="1247" d="M172 409v705h191v-681q0 -157 49 -227t159 -70q88 0 154.5 44.5t145.5 143.5v790h189v-1114h-156l-16 175h-8q-78 -92 -163.5 -147.5t-202.5 -55.5q-179 0 -260.5 110.5t-81.5 326.5zM322 1452q0 45 29.5 75.5t75.5 30.5t74.5 -30.5t28.5 -75.5q0 -44 -28.5 -74 t-74.5 -30t-75.5 30t-29.5 74zM335 1888h140l145 -148h8l145 148h140l-208 -236h-162zM718 1452q0 45 28.5 75.5t74.5 30.5t75.5 -30.5t29.5 -75.5q0 -44 -29.5 -74t-75.5 -30t-74.5 30t-28.5 74z" />
<glyph unicode="&#x1db;" horiz-adv-x="1478" d="M199 622v882h191v-887q0 -135 27.5 -227t74.5 -147t111.5 -79t137.5 -24q77 0 140.5 24t112 79t75.5 147t27 227v887h184v-882q0 -182 -41.5 -305.5t-113.5 -200.5t-170.5 -110.5t-213.5 -33.5q-114 0 -214 33.5t-172.5 110.5t-114 200.5t-41.5 305.5zM436 1746 q0 46 29.5 74.5t75.5 28.5t74.5 -29t28.5 -74q0 -46 -28.5 -76t-74.5 -30t-75.5 30t-29.5 76zM442 2180h209l203 -256h-155zM832 1746q0 46 28.5 74.5t74.5 28.5t75.5 -29t29.5 -74q0 -46 -29.5 -76t-75.5 -30t-74.5 30t-28.5 76z" />
<glyph unicode="&#x1dc;" horiz-adv-x="1247" d="M172 409v705h191v-681q0 -157 49 -227t159 -70q88 0 154.5 44.5t145.5 143.5v790h189v-1114h-156l-16 175h-8q-78 -92 -163.5 -147.5t-202.5 -55.5q-179 0 -260.5 110.5t-81.5 326.5zM322 1452q0 45 29.5 75.5t75.5 30.5t74.5 -30.5t28.5 -75.5q0 -44 -28.5 -74 t-74.5 -30t-75.5 30t-29.5 74zM376 1888h182l188 -236h-133zM718 1452q0 45 28.5 75.5t74.5 30.5t75.5 -30.5t29.5 -75.5q0 -44 -29.5 -74t-75.5 -30t-74.5 30t-28.5 74z" />
<glyph unicode="&#x1e6;" horiz-adv-x="1414" d="M119 753q0 181 52 325.5t145 245.5t219 154.5t277 53.5q156 0 260.5 -58t170.5 -128l-107 -121q-57 60 -132.5 100t-189.5 40t-206 -42.5t-156 -122t-99.5 -191.5t-35.5 -252q0 -142 33 -255.5t96.5 -194t156.5 -124t213 -43.5q81 0 153.5 24t118.5 66v392h-320v158h493 v-633q-74 -76 -193.5 -125.5t-271.5 -49.5q-149 0 -273 53t-213 153t-140 245.5t-51 329.5zM498 1876h154l154 -156h8l154 156h154l-220 -256h-184z" />
<glyph unicode="&#x1e7;" horiz-adv-x="1155" d="M103 -213q0 71 43.5 135.5t120.5 116.5v9q-42 26 -70.5 70t-28.5 112q0 70 38.5 122.5t82.5 83.5v9q-55 46 -100 122.5t-45 178.5q0 92 33.5 165t91 125t134 79t161.5 27q46 0 86 -7.5t72 -20.5h388v-144h-230q40 -39 66 -98.5t26 -130.5q0 -89 -32 -161.5t-86.5 -121.5 t-129 -77t-160.5 -28q-41 0 -84.5 10.5t-83.5 28.5q-30 -26 -50 -56.5t-20 -76.5q0 -53 41.5 -87t155.5 -34h215q195 0 293 -63.5t98 -203.5q0 -78 -39 -147.5t-112.5 -122t-177.5 -84t-236 -31.5q-103 0 -188 19.5t-145.5 59t-94 94t-33.5 128.5zM252 1637h138l154 -210h8 l154 210h138l-218 -322h-156zM269 -188q0 -90 85.5 -142.5t236.5 -52.5q81 0 146.5 19.5t111.5 50.5t71 72.5t25 84.5q0 79 -57.5 108.5t-167.5 29.5h-192q-33 0 -70.5 3.5t-74.5 14.5q-59 -44 -86.5 -92t-27.5 -96zM328 746q0 -62 18.5 -111.5t51.5 -84t75.5 -53 t90.5 -18.5q49 0 91.5 18.5t75.5 53t51.5 83.5t18.5 112q0 124 -69 191.5t-168 67.5q-98 0 -167 -68t-69 -191z" />
<glyph unicode="&#x1ea;" horiz-adv-x="1522" d="M119 759q0 182 47 325.5t132 243t203 152t261 52.5q142 0 260 -53.5t204 -153.5t133 -243t47 -323q0 -153 -31 -274.5t-91.5 -215.5t-148 -164t-199.5 -121q-94 -41 -136.5 -105.5t-42.5 -123.5q0 -53 34 -79.5t76 -26.5q28 0 50 8t42 24l52 -103q-32 -26 -84.5 -45 t-98.5 -19q-92 0 -155 50.5t-63 148.5q0 76 40 143.5t100 117.5q-144 2 -261 60t-200 160t-126.5 245t-43.5 320zM317 759q0 -142 32 -255.5t90 -195t140 -125t183 -43.5q100 0 181.5 43.5t140 125t90.5 195t32 255.5q0 140 -32 252.5t-90.5 190.5t-140 120.5t-181.5 42.5 q-101 0 -183 -42.5t-140 -120.5t-90 -190.5t-32 -252.5z" />
<glyph unicode="&#x1eb;" horiz-adv-x="1243" d="M105 556q0 140 42.5 248.5t114 184t164.5 114.5t196 39t196 -39t164 -114.5t113.5 -184t42.5 -248.5q0 -117 -26.5 -206t-74.5 -156t-114.5 -116.5t-149.5 -86.5q-79 -37 -121 -101.5t-42 -130.5q0 -52 32 -78.5t74 -26.5q28 0 49 8t45 21l48 -94q-33 -26 -84.5 -44 t-97.5 -18q-87 0 -146.5 49.5t-59.5 145.5q0 44 12.5 82t32 71t41.5 58.5t43 40.5q-101 5 -190.5 47.5t-157 116t-107 179t-39.5 239.5zM300 556q0 -97 23 -175.5t65.5 -134.5t102.5 -86.5t131 -30.5q70 0 130 30.5t102.5 86.5t65.5 134.5t23 175.5q0 96 -23 175t-65.5 136 t-102.5 88.5t-130 31.5q-71 0 -131 -31.5t-102.5 -88.5t-65.5 -136t-23 -175z" />
<glyph unicode="&#x218;" horiz-adv-x="1224" d="M96 195l115 133q80 -85 189.5 -136.5t225.5 -51.5q149 0 232 68t83 177q0 57 -19.5 97.5t-53.5 69t-79 51.5t-99 49l-215 94q-53 22 -108 54t-98.5 78t-71 109.5t-27.5 145.5q0 86 35.5 159t98.5 127t149 83.5t189 29.5q135 0 250 -51.5t196 -134.5l-104 -123 q-68 66 -152 104t-190 38q-127 0 -203 -58.5t-76 -161.5q0 -55 21 -93t58 -67t81 -50.5t90 -39.5l212 -92q64 -28 122 -63.5t99.5 -82.5t65.5 -110t24 -146q0 -90 -36 -167.5t-102.5 -136t-160 -92t-213.5 -33.5q-158 0 -293.5 60t-234.5 163zM431 -403q92 11 148 35t56 70 t-34 68t-83 33l42 87q116 -18 169 -58t53 -119q0 -50 -27.5 -87t-73.5 -62t-106.5 -40t-125.5 -19z" />
<glyph unicode="&#x219;" horiz-adv-x="960" d="M64 127l94 125q74 -59 150.5 -96t177.5 -37q110 0 165.5 51t55.5 123q0 44 -23 76t-59 56t-82 42.5t-92 37.5q-59 20 -118.5 46.5t-106.5 64.5t-77 88.5t-30 120.5q0 67 26.5 125.5t76 101t120.5 66.5t161 24q105 0 193 -37t153 -89l-90 -119q-57 44 -119 71.5t-135 27.5 q-105 0 -155 -48.5t-50 -113.5q0 -39 21 -67.5t55.5 -49.5t79 -38.5t92.5 -36.5q59 -23 120 -48t109 -63t79.5 -93t31.5 -133q0 -69 -27 -129t-78.5 -105t-128 -72t-175.5 -27q-118 0 -226.5 43.5t-188.5 111.5zM315 -403q92 11 148 35t56 70t-34 68t-83 33l42 87 q116 -18 169 -58t53 -119q0 -50 -27.5 -87t-73.5 -62t-106.5 -40t-125.5 -19z" />
<glyph unicode="&#x21a;" horiz-adv-x="1228" d="M64 1344v160h1101v-160h-454v-1344h-192v1344h-455zM422 -403q92 11 148 35t56 70t-34 68t-83 33l42 87q116 -18 169 -58t53 -119q0 -50 -27.5 -87t-73.5 -62t-106.5 -40t-125.5 -19z" />
<glyph unicode="&#x21b;" horiz-adv-x="775" d="M55 961v142l175 11l22 313h159v-313h300v-153h-300v-619q0 -103 37.5 -159t133.5 -56q31 0 65 8.5t62 20.5l37 -143q-46 -15 -100.5 -28t-106.5 -13q-90 0 -150.5 28t-98.5 76t-53.5 116.5t-15.5 151.5v617h-166zM293 -403q92 11 148 35t56 70t-34 68t-83 33l42 87 q116 -18 169 -58t53 -119q0 -50 -27.5 -87t-73.5 -62t-106.5 -40t-125.5 -19z" />
<glyph unicode="&#x237;" horiz-adv-x="565" d="M-92 -468l39 142q21 -7 48 -12.5t58 -5.5q83 0 110 57t27 160v1241h189v-1241q0 -170 -69 -270t-236 -100q-53 0 -94.5 9t-71.5 20z" />
<glyph unicode="&#x243;" horiz-adv-x="1382" d="M68 405v100l177 9v990h447q114 0 210 -20t163.5 -64t105 -112.5t37.5 -165.5q0 -109 -63.5 -195.5t-196.5 -121.5v-9q164 -25 256 -116.5t92 -250.5q0 -114 -41.5 -197.5t-117 -140t-180 -84t-230.5 -27.5h-482v405h-177zM436 144h264q195 0 302.5 77t107.5 238 q0 149 -106.5 218t-303.5 69h-264v-232h348v-109h-348v-261zM436 871h225q192 0 278 65.5t86 192.5q0 124 -90.5 179t-266.5 55h-232v-492z" />
<glyph unicode="&#x251;" horiz-adv-x="1272" d="M108 556q0 135 40 243.5t108 184.5t154.5 117t183.5 41q94 0 167 -34.5t150 -100.5h4l16 107h154v-1114h-157l-15 131h-7q-66 -64 -152 -111.5t-185 -47.5q-211 0 -336 152t-125 432zM302 558q0 -202 81 -314.5t227 -112.5q79 0 147 37.5t138 115.5v583q-71 64 -137 90.5 t-134 26.5q-66 0 -125 -31t-102.5 -87t-69 -134t-25.5 -174z" />
<glyph unicode="&#x259;" horiz-adv-x="1136" d="M85 510q0 32 2.5 58t6.5 47h750q-8 172 -94.5 275t-237.5 103q-85 0 -154 -26t-135 -70l-67 123q78 53 173 87.5t212 34.5q105 0 194.5 -39t155 -114.5t104 -183t38.5 -245.5t-38.5 -247t-104 -184.5t-154.5 -116t-191 -40.5q-105 0 -189.5 37t-145.5 107t-93 169.5 t-32 224.5zM252 488q0 -186 78.5 -275t210.5 -89q131 0 210 94t96 270h-595z" />
<glyph unicode="&#x261;" horiz-adv-x="1281" d="M114 573q0 131 40.5 236.5t107 179t155 113.5t182.5 40q97 0 169 -33t143 -98h4l16 103h159v-1169q0 -208 -129 -324t-367 -116q-103 0 -207.5 31t-191.5 90l69 133q83 -55 166.5 -79t163.5 -24q153 0 228 79t80 215l2 210q-64 -61 -148 -105t-183 -44q-105 0 -190 39.5 t-144.5 111.5t-92 176t-32.5 235zM307 576q0 -188 80.5 -298t227.5 -110q78 0 145.5 37.5t141.5 115.5v546q-74 64 -139 90.5t-135 26.5q-66 0 -124.5 -30t-102.5 -85t-69 -129.5t-25 -163.5z" />
<glyph unicode="&#x2b0;" horiz-adv-x="838" d="M119 610v1076h142v-289l-7 -152q46 49 110.5 86t138.5 37q129 0 181 -81t52 -208v-469h-142v447q0 88 -26.5 138t-112.5 50q-85 0 -194 -107v-528h-142z" />
<glyph unicode="&#x2b2;" horiz-adv-x="387" d="M-59 298l29 111q13 -5 27 -9t38 -4q52 0 70.5 36t18.5 102v814h143v-805q0 -124 -49 -193.5t-165 -69.5q-40 0 -64 3.5t-48 14.5zM101 1580q0 40 27.5 65t68.5 25q42 0 69 -25t27 -65q0 -39 -27 -64t-69 -25q-41 0 -68.5 25t-27.5 64z" />
<glyph unicode="&#x2b3;" horiz-adv-x="549" d="M119 610v738h115l16 -131h6q88 149 210 151q55 0 87 -17l-28 -126q-13 5 -34 8t-40 3q-48 0 -98.5 -35.5t-88.5 -121.5v-469h-145z" />
<glyph unicode="&#x2b7;" horiz-adv-x="1116" d="M37 1348h147l100 -409l44 -212h9l51 212l107 409h129l114 -409l52 -212h9l48 212l98 409h136l-201 -738h-171l-99 377l-48 208h-4l-48 -208l-99 -377h-170z" />
<glyph unicode="&#x2b8;" horiz-adv-x="731" d="M18 1348h144l145 -387q18 -50 36 -103t36 -110h9q15 55 31.5 107.5t35.5 105.5l118 387h140l-273 -779q-41 -117 -107 -192t-184 -75q-53 0 -94 15l30 114q26 -11 55 -11q59 0 100.5 41.5t61.5 107.5l17 46z" />
<glyph unicode="&#x2b9;" horiz-adv-x="570" d="M186 996l53 587h185l-36 -230l-79 -357h-123z" />
<glyph unicode="&#x2bb;" horiz-adv-x="570" d="M131 1188q0 138 61.5 239t181.5 169l55 -88q-87 -58 -131 -122t-44 -163q7 2 22 2q45 0 82.5 -30t37.5 -87q0 -60 -34 -93t-86 -33q-69 0 -107 53t-38 153z" />
<glyph unicode="&#x2bc;" horiz-adv-x="570" d="M144 1076q88 57 130.5 121t42.5 166q-7 -2 -19 -3q-48 0 -84.5 30t-36.5 85q0 59 34 94t87 35q66 0 105 -54.5t39 -155.5q0 -137 -62.5 -237t-182.5 -168z" />
<glyph unicode="&#x2be;" horiz-adv-x="343" d="M68 1243v83q81 0 114.5 35.5t33.5 94.5q0 57 -33.5 93t-114.5 36v83q125 4 190.5 -54t65.5 -158q0 -101 -65.5 -159t-190.5 -54z" />
<glyph unicode="&#x2bf;" horiz-adv-x="370" d="M46 1456q0 99 65.5 157.5t188.5 54.5v-83q-80 0 -113.5 -35.5t-33.5 -93.5q0 -59 34 -94.5t113 -35.5v-83q-124 -4 -189 54t-65 159z" />
<glyph unicode="&#x2c6;" horiz-adv-x="1243" d="M326 1315l218 322h156l218 -322h-138l-154 208h-8l-154 -208h-138z" />
<glyph unicode="&#x2c7;" horiz-adv-x="1243" d="M326 1637h138l154 -210h8l154 210h138l-218 -322h-156z" />
<glyph unicode="&#x2c8;" horiz-adv-x="260" d="M50 1642h161l-14 -419h-133z" />
<glyph unicode="&#x2c9;" horiz-adv-x="635" d="M37 1379v131h564v-131h-564z" />
<glyph unicode="&#x2ca;" horiz-adv-x="515" d="M105 1315l206 322h197l-258 -322h-145z" />
<glyph unicode="&#x2cb;" horiz-adv-x="515" d="M0 1637h197l206 -322h-145z" />
<glyph unicode="&#x2cc;" horiz-adv-x="260" d="M50 -582l14 420h133l14 -420h-161z" />
<glyph unicode="&#x2d8;" horiz-adv-x="1243" d="M333 1611h117q8 -67 49.5 -121t122.5 -54t121.5 53.5t50.5 121.5h117q-5 -51 -22 -103t-51.5 -94t-88 -68.5t-127.5 -26.5t-127.5 26.5t-88 68.5t-53 94t-20.5 103z" />
<glyph unicode="&#x2d9;" horiz-adv-x="1243" d="M498 1468q0 53 35.5 88.5t88.5 35.5t88.5 -35.5t35.5 -88.5q0 -55 -35.5 -89.5t-88.5 -34.5t-88.5 34.5t-35.5 89.5z" />
<glyph unicode="&#x2da;" horiz-adv-x="1243" d="M409 1456q0 96 59.5 154t153.5 58t153.5 -58t59.5 -154t-59.5 -154.5t-153.5 -58.5t-153.5 58.5t-59.5 154.5zM512 1456q0 -59 32 -93.5t78 -34.5t78 34.5t32 93.5q0 57 -32 92t-78 35t-78 -34.5t-32 -92.5z" />
<glyph unicode="&#x2db;" horiz-adv-x="1243" d="M471 -278q0 94 52.5 167.5t109.5 117.5h133q-73 -55 -114 -118.5t-41 -129.5q0 -52 32 -78.5t73 -26.5q50 0 92 29l50 -94q-32 -26 -84.5 -44t-96.5 -18q-87 0 -146.5 49.5t-59.5 145.5z" />
<glyph unicode="&#x2dc;" horiz-adv-x="1243" d="M303 1328q9 103 55 173t131 70q43 0 80 -18.5t68 -40t58.5 -40t55.5 -18.5q64 0 84 117h106q-9 -103 -55 -173t-131 -70q-43 0 -79 18.5t-67 40t-58.5 40t-57.5 18.5q-64 0 -84 -117h-106z" />
<glyph unicode="&#x2dd;" horiz-adv-x="1243" d="M397 1309l161 328h167l-202 -328h-126zM734 1309l164 328h164l-201 -328h-127z" />
<glyph unicode="&#x2e1;" horiz-adv-x="398" d="M119 780v906h142v-920q0 -57 37 -57h14t18 4l21 -105q-16 -7 -34.5 -12t-47.5 -5q-83 0 -116.5 50.5t-33.5 138.5z" />
<glyph unicode="&#x2e2;" horiz-adv-x="648" d="M44 692l68 94q50 -39 104.5 -61.5t116.5 -22.5q63 0 98 30t35 76q0 25 -14 44t-38 33t-54 26.5t-62 24.5q-39 16 -78 34.5t-70 43.5t-50 59.5t-19 82.5q0 85 66 148.5t188 63.5q81 0 140 -25.5t105 -57.5l-70 -92q-42 30 -80 47t-91 17q-61 0 -92 -28.5t-31 -65.5 q0 -26 13.5 -44t36.5 -32t52.5 -24t62.5 -24q39 -15 79 -32.5t72 -41.5t52 -60t20 -86q0 -99 -73.5 -163.5t-200.5 -64.5q-82 0 -156.5 30.5t-129.5 70.5z" />
<glyph unicode="&#x2e3;" horiz-adv-x="703" d="M18 610l249 388l-228 350h156l94 -151l72 -116h9l61 116l85 151h152l-226 -366l241 -372h-155l-99 161l-81 126h-9l-75 -126l-94 -161h-152z" />
<glyph unicode="&#x300;" d="M-254 1637h197l206 -322h-145z" />
<glyph unicode="&#x301;" d="M-149 1315l206 322h197l-258 -322h-145z" />
<glyph unicode="&#x302;" d="M-296 1315l218 322h156l218 -322h-138l-154 208h-8l-154 -208h-138z" />
<glyph unicode="&#x303;" d="M-319 1328q9 103 55 173t131 70q43 0 80 -18.5t68 -40t58.5 -40t55.5 -18.5q64 0 84 117h106q-9 -103 -55 -173t-131 -70q-43 0 -79 18.5t-67 40t-58.5 40t-57.5 18.5q-64 0 -84 -117h-106z" />
<glyph unicode="&#x304;" d="M-282 1379v131h564v-131h-564z" />
<glyph unicode="&#x306;" d="M-289 1611h117q8 -67 49.5 -121t122.5 -54t121.5 53.5t50.5 121.5h117q-5 -51 -22 -103t-51.5 -94t-88 -68.5t-127.5 -26.5t-127.5 26.5t-88 68.5t-53 94t-20.5 103z" />
<glyph unicode="&#x307;" d="M-124 1468q0 53 35.5 88.5t88.5 35.5t88.5 -35.5t35.5 -88.5q0 -55 -35.5 -89.5t-88.5 -34.5t-88.5 34.5t-35.5 89.5z" />
<glyph unicode="&#x308;" d="M-309 1462q0 48 30.5 80t81.5 32q48 0 80 -32t32 -80q0 -49 -32 -81.5t-80 -32.5q-51 0 -81.5 32.5t-30.5 81.5zM85 1462q0 48 32 80t80 32q51 0 81.5 -32t30.5 -80q0 -49 -30.5 -81.5t-81.5 -32.5q-48 0 -80 32.5t-32 81.5z" />
<glyph unicode="&#x309;" d="M-147 1558l20 110q152 -5 234.5 -52t82.5 -134q0 -51 -20.5 -86.5t-56 -62t-81 -41t-96.5 -23.5l-21 86q55 16 92 39.5t37 67.5q0 89 -191 96z" />
<glyph unicode="&#x30a;" d="M-213 1456q0 96 59.5 154t153.5 58t153.5 -58t59.5 -154t-59.5 -154.5t-153.5 -58.5t-153.5 58.5t-59.5 154.5zM-110 1456q0 -59 32 -93.5t78 -34.5t78 34.5t32 93.5q0 57 -32 92t-78 35t-78 -34.5t-32 -92.5z" />
<glyph unicode="&#x30b;" d="M-225 1309l161 328h167l-202 -328h-126zM112 1309l164 328h164l-201 -328h-127z" />
<glyph unicode="&#x30c;" d="M-296 1637h138l154 -210h8l154 210h138l-218 -322h-156z" />
<glyph unicode="&#x30f;" d="M-440 1637h164l164 -328h-127zM-103 1637h167l161 -328h-126z" />
<glyph unicode="&#x312;" d="M-122 1408q0 80 43.5 152.5t142.5 118.5l41 -73q-66 -32 -95.5 -72.5t-35.5 -93.5q7 3 19 3q35 0 64.5 -22t29.5 -68q0 -53 -26 -78t-65 -25q-117 0 -118 158z" />
<glyph unicode="&#x313;" d="M-108 1322q125 59 130 164q-6 -2 -20 -2q-34 0 -64 22t-30 68q0 50 27.5 75t66.5 25q114 0 114 -158q0 -80 -43 -151t-141 -117z" />
<glyph unicode="&#x31b;" d="M-20 1090q96 11 144 45t48 106q0 26 -9.5 50t-22.5 46l136 64q22 -32 37 -68.5t15 -78.5q0 -61 -25 -107t-70 -77t-105 -49.5t-130 -24.5z" />
<glyph unicode="&#x323;" d="M-124 -348q0 52 35.5 86.5t88.5 34.5t88.5 -34.5t35.5 -86.5q0 -55 -35.5 -90t-88.5 -35t-88.5 35t-35.5 90z" />
<glyph unicode="&#x324;" d="M-309 -348q0 48 30.5 80t81.5 32q48 0 80 -32t32 -80q0 -46 -32 -79.5t-80 -33.5q-51 0 -81.5 33.5t-30.5 79.5zM85 -348q0 48 32 80t80 32q51 0 81.5 -32t30.5 -80q0 -46 -30.5 -79.5t-81.5 -33.5q-48 0 -80 33.5t-32 79.5z" />
<glyph unicode="&#x326;" d="M-195 -403q92 11 148 35t56 70t-34 68t-83 33l42 87q116 -18 169 -58t53 -119q0 -50 -27.5 -87t-73.5 -62t-106.5 -40t-125.5 -19z" />
<glyph unicode="&#x327;" d="M-195 -394q92 11 148 37.5t56 72.5q0 45 -37.5 69.5t-107.5 42.5l92 179h122l-58 -121q55 -18 95.5 -55t40.5 -109q0 -50 -27.5 -86.5t-73.5 -61.5t-106.5 -40.5t-125.5 -21.5z" />
<glyph unicode="&#x328;" d="M-151 -278q0 94 52.5 167.5t109.5 117.5h133q-73 -55 -114 -118.5t-41 -129.5q0 -52 32 -78.5t73 -26.5q50 0 92 29l50 -94q-32 -26 -84.5 -44t-96.5 -18q-87 0 -146.5 49.5t-59.5 145.5z" />
<glyph unicode="&#x32e;" d="M-289 -181h117q8 -67 49.5 -120.5t122.5 -53.5t121.5 53.5t50.5 120.5h117q-5 -51 -22 -102.5t-51.5 -94t-88 -69t-127.5 -26.5t-127.5 26.5t-88 69t-53 94t-20.5 102.5z" />
<glyph unicode="&#x331;" d="M-284 -259h566v-133h-566v133z" />
<glyph unicode="&#x3c0;" horiz-adv-x="1285" d="M55 959v144l158 11h1002v-155h-169v-714q0 -55 19.5 -85.5t58.5 -30.5q12 0 24 3.5t31 7.5l25 -144q-53 -23 -125 -24q-125 0 -174 77.5t-49 209.5v700h-418v-959h-186v959h-197z" />
<glyph unicode="&#x1d43;" horiz-adv-x="790" d="M85 810q0 122 108.5 184.5t347.5 86.5q-2 74 -32 121.5t-110 47.5q-60 0 -123 -24t-108 -53l-54 96q57 37 136.5 68t169.5 31q138 0 200.5 -81t62.5 -227v-450h-114l-16 86h-10q-46 -42 -103 -73.5t-128 -31.5q-103 0 -165 60t-62 159zM225 821q0 -59 34 -86.5t94 -27.5 q89 0 188 92v194q-177 -20 -246.5 -63.5t-69.5 -108.5z" />
<glyph unicode="&#x1d47;" horiz-adv-x="856" d="M119 610v1076h142v-289l-7 -134q53 44 109.5 74.5t120.5 30.5q144 0 221 -101.5t77 -273.5q0 -96 -26.5 -170.5t-71 -126.5t-102 -78.5t-121.5 -26.5q-52 0 -107.5 24.5t-101.5 69.5h-9l-13 -75h-111zM261 782q46 -39 93 -56t86 -17q83 0 139 73.5t56 210.5 q0 119 -45 187t-141 68q-92 0 -188 -97v-369z" />
<glyph unicode="&#x1d48;" horiz-adv-x="856" d="M76 993q0 86 26.5 155t71 118t103 75.5t119.5 26.5q60 0 111 -22t97 -61l-8 126v275h142v-1076h-114l-16 80h-7q-45 -39 -96 -69t-115 -30q-147 0 -230.5 105t-83.5 297zM223 993q0 -137 48 -210.5t151 -73.5q46 0 87.5 25t86.5 71v372q-46 39 -90.5 56t-85.5 17 q-81 0 -139 -71t-58 -186z" />
<glyph unicode="&#x1d49;" horiz-adv-x="770" d="M64 979q0 89 27.5 161.5t74.5 122t110 77.5t133 28q85 0 143 -32.5t93.5 -83t50.5 -110t15 -114.5q0 -26 -2 -41t-7 -39h-498q7 -115 71 -178t167 -63q53 0 101 15.5t88 41.5l54 -90q-52 -34 -117 -58.5t-141 -24.5t-142.5 25.5t-114.5 76.5t-77 122t-29 164zM202 1042 h383q0 37 -9 75.5t-30 68t-54 49t-83 19.5q-83 0 -138 -56t-69 -156z" />
<glyph unicode="&#x1d4d;" horiz-adv-x="786" d="M68 473q0 96 107 160v9q-31 18 -49 48t-18 74t25 78t57 55v9q-39 30 -68.5 80.5t-29.5 116.5q0 62 23 111t63 83t91.5 52.5t111.5 18.5q64 0 116 -22h253v-110h-142q23 -22 38 -60t15 -77q0 -60 -22 -108t-60 -81.5t-89.5 -50.5t-108.5 -17q-26 0 -54.5 4.5t-55.5 18.5 q-18 -16 -31 -34.5t-13 -46.5q0 -35 27.5 -53t100.5 -18h142q136 0 200.5 -42.5t64.5 -138.5q0 -53 -26.5 -100t-77 -81t-121.5 -54.5t-161 -20.5q-137 0 -222.5 50t-85.5 147zM190 493q0 -57 55 -88t154 -31q101 0 163 42.5t62 95.5q0 46 -38 64t-107 18h-122q-18 0 -44 1 t-52 9q-71 -52 -71 -111zM227 1103q0 -76 44 -120t110 -44q61 0 106 44.5t45 119.5q0 76 -45 118t-106 42q-66 0 -110 -40.5t-44 -119.5z" />
<glyph unicode="&#x1d4f;" horiz-adv-x="772" d="M119 610v1076h142v-707h10l300 369h158l-256 -302l289 -436h-158l-214 340l-129 -151v-189h-142z" />
<glyph unicode="&#x1d50;" horiz-adv-x="1281" d="M119 610v738h115l11 -105h9q46 53 101.5 89t130.5 36q154 0 206 -138q53 55 114 96.5t135 41.5q124 0 178 -80t54 -209v-469h-143v447q0 88 -28 138t-107 50q-42 0 -84.5 -25t-94.5 -82v-528h-143v447q0 88 -27 138t-108 50q-39 0 -81 -25t-96 -82v-528h-142z" />
<glyph unicode="&#x1d52;" horiz-adv-x="836" d="M68 979q0 92 28 164t76.5 122t111 76.5t134.5 26.5q70 0 133.5 -26.5t111.5 -76.5t75.5 -122t27.5 -164t-27.5 -163.5t-75.5 -121.5t-111.5 -76.5t-133.5 -26.5q-71 0 -134 26.5t-111.5 76.5t-76.5 122t-28 163zM213 979q0 -122 54 -196t151 -74q96 0 148.5 74.5 t52.5 195.5q0 124 -52.5 197.5t-148.5 73.5q-97 0 -151 -73.5t-54 -197.5z" />
<glyph unicode="&#x1d56;" horiz-adv-x="856" d="M119 296v1052h113l16 -85h6q46 40 105 72.5t125 32.5q144 0 221 -101.5t77 -273.5q0 -96 -26.5 -170.5t-71 -126.5t-102 -78.5t-121.5 -26.5q-50 0 -106.5 23t-102.5 62l9 -142v-238h-142zM261 782q46 -39 93 -56t86 -17q83 0 139 73.5t56 210.5q0 119 -45 187t-141 68 q-92 0 -188 -97v-369z" />
<glyph unicode="&#x1d57;" horiz-adv-x="532" d="M37 1234v108l114 6l19 210h119v-210h202v-114h-202v-383q0 -142 112 -142q46 0 85 16l30 -106q-32 -11 -71.5 -19.5t-77.5 -8.5q-122 0 -171 72.5t-49 187.5v383h-110z" />
<glyph unicode="&#x1d58;" horiz-adv-x="847" d="M114 880v468h142v-446q0 -88 26.5 -137t113.5 -49q90 0 193 105v527h142v-738h-112l-15 103h-8q-46 -48 -109 -85t-136 -37q-129 0 -183 81t-54 208z" />
<glyph unicode="&#x1d5b;" horiz-adv-x="735" d="M18 1348h142l133 -403l72 -220h9l71 220l133 403h140l-267 -738h-167z" />
<glyph unicode="&#x1d9c;" horiz-adv-x="701" d="M68 979q0 92 29.5 164t78.5 122t114 76.5t137 26.5q80 0 136 -25.5t91 -55.5l-69 -94q-35 30 -67 43.5t-82 13.5q-97 0 -160 -74.5t-63 -196.5q0 -119 62 -194.5t161 -75.5q59 0 98 19.5t72 44.5l59 -94q-39 -33 -97 -60.5t-146 -27.5q-153 0 -253.5 101.5t-100.5 286.5z " />
<glyph unicode="&#x1da0;" horiz-adv-x="460" d="M44 1236v106l103 6v97q0 114 54.5 190t174.5 76q76 0 129 -25l-30 -106q-16 7 -36.5 11.5t-48.5 4.5q-51 0 -76 -37.5t-25 -104.5v-106h156v-112h-156v-626h-142v626h-103z" />
<glyph unicode="&#x1dbb;" horiz-adv-x="664" d="M48 610v78l385 546h-339v114h519v-79l-383 -542h394v-117h-576z" />
<glyph unicode="&#x1e06;" horiz-adv-x="1348" d="M206 0v1504h448q114 0 209.5 -20t163 -64t105 -114t37.5 -168q0 -112 -63.5 -203t-197.5 -125v-9q165 -26 257 -115.5t92 -245.5q0 -110 -41 -192.5t-117 -137.5t-181.5 -82.5t-232.5 -27.5h-479zM396 151h263q194 0 301.5 72.5t107.5 225.5q0 140 -105 205.5t-304 65.5 h-263v-569zM396 862h223q195 0 279 67t84 192q0 124 -88.5 178t-265.5 54h-232v-491zM404 -259h566v-133h-566v133z" />
<glyph unicode="&#x1e07;" horiz-adv-x="1272" d="M188 0v1633h188v-445l-4 -201q76 66 165 110.5t183 44.5q108 0 190.5 -40t138.5 -114.5t85 -179t29 -232.5q0 -143 -39 -255.5t-105.5 -190t-154 -118t-183.5 -40.5q-78 0 -161.5 36t-156.5 102h-8l-16 -110h-151zM366 -259h566v-133h-566v133zM376 248q74 -64 146 -90.5 t128 -26.5q68 0 126 31t101 87t67 138.5t24 185.5q0 92 -16 167.5t-51.5 129.5t-91.5 84t-135 30q-135 0 -298 -152v-584z" />
<glyph unicode="&#x1e0c;" horiz-adv-x="1410" d="M206 0v1504h376q349 0 530.5 -192.5t181.5 -552.5q0 -179 -46 -320t-135.5 -238.5t-220 -149t-301.5 -51.5h-385zM396 156h173q264 0 395.5 158.5t131.5 444.5q0 287 -132 438t-395 151h-173v-1192zM574 -348q0 52 35.5 86.5t88.5 34.5t88.5 -34.5t35.5 -86.5 q0 -55 -35.5 -90t-88.5 -35t-88.5 35t-35.5 90z" />
<glyph unicode="&#x1e0d;" horiz-adv-x="1272" d="M108 556q0 135 40 243.5t106.5 184.5t153.5 117t183 41q97 0 168 -34.5t145 -93.5l-9 190v429h190v-1633h-157l-15 131h-7q-66 -64 -152 -111.5t-185 -47.5q-211 0 -336 152t-125 432zM302 558q0 -202 81 -314.5t227 -112.5q79 0 147 37.5t138 115.5v583 q-71 64 -137 90.5t-134 26.5q-66 0 -125 -31t-102.5 -87t-69 -134t-25.5 -174zM568 -348q0 52 35.5 86.5t88.5 34.5t88.5 -34.5t35.5 -86.5q0 -55 -35.5 -90t-88.5 -35t-88.5 35t-35.5 90z" />
<glyph unicode="&#x1e0e;" horiz-adv-x="1410" d="M206 0v1504h376q349 0 530.5 -192.5t181.5 -552.5q0 -179 -46 -320t-135.5 -238.5t-220 -149t-301.5 -51.5h-385zM396 156h173q264 0 395.5 158.5t131.5 444.5q0 287 -132 438t-395 151h-173v-1192zM414 -259h566v-133h-566v133z" />
<glyph unicode="&#x1e0f;" horiz-adv-x="1272" d="M108 556q0 135 40 243.5t106.5 184.5t153.5 117t183 41q97 0 168 -34.5t145 -93.5l-9 190v429h190v-1633h-157l-15 131h-7q-66 -64 -152 -111.5t-185 -47.5q-211 0 -336 152t-125 432zM302 558q0 -202 81 -314.5t227 -112.5q79 0 147 37.5t138 115.5v583 q-71 64 -137 90.5t-134 26.5q-66 0 -125 -31t-102.5 -87t-69 -134t-25.5 -174zM406 -259h566v-133h-566v133z" />
<glyph unicode="&#x1e16;" horiz-adv-x="1208" d="M206 0v1504h867v-160h-677v-473h572v-162h-572v-547h700v-162h-890zM363 1672v131h568v-131h-568zM531 1924l203 256h209l-257 -256h-155z" />
<glyph unicode="&#x1e17;" horiz-adv-x="1136" d="M105 556q0 137 42.5 246t112.5 184.5t160 115.5t186 40q105 0 188.5 -37t140 -105.5t86.5 -165t30 -215.5q0 -61 -7 -103h-753q11 -181 111.5 -286.5t260.5 -105.5q81 0 148 24t130 63l66 -124q-74 -46 -163 -80.5t-204 -34.5q-112 0 -209.5 40.5t-170 115t-114 182.5 t-41.5 246zM289 640h597q0 172 -72.5 262.5t-203.5 90.5q-59 0 -113.5 -24t-98 -68.5t-72 -110t-37.5 -150.5zM326 1379v131h564v-131h-564zM486 1652l188 236h182l-237 -236h-133z" />
<glyph unicode="&#x1e20;" horiz-adv-x="1414" d="M119 753q0 181 52 325.5t145 245.5t219 154.5t277 53.5q156 0 260.5 -58t170.5 -128l-107 -121q-57 60 -132.5 100t-189.5 40t-206 -42.5t-156 -122t-99.5 -191.5t-35.5 -252q0 -142 33 -255.5t96.5 -194t156.5 -124t213 -43.5q81 0 153.5 24t118.5 66v392h-320v158h493 v-633q-74 -76 -193.5 -125.5t-271.5 -49.5q-149 0 -273 53t-213 153t-140 245.5t-51 329.5zM526 1672v131h568v-131h-568z" />
<glyph unicode="&#x1e21;" horiz-adv-x="1155" d="M103 -213q0 71 43.5 135.5t120.5 116.5v9q-42 26 -70.5 70t-28.5 112q0 70 38.5 122.5t82.5 83.5v9q-55 46 -100 122.5t-45 178.5q0 92 33.5 165t91 125t134 79t161.5 27q46 0 86 -7.5t72 -20.5h388v-144h-230q40 -39 66 -98.5t26 -130.5q0 -89 -32 -161.5t-86.5 -121.5 t-129 -77t-160.5 -28q-41 0 -84.5 10.5t-83.5 28.5q-30 -26 -50 -56.5t-20 -76.5q0 -53 41.5 -87t155.5 -34h215q195 0 293 -63.5t98 -203.5q0 -78 -39 -147.5t-112.5 -122t-177.5 -84t-236 -31.5q-103 0 -188 19.5t-145.5 59t-94 94t-33.5 128.5zM266 1379v131h564v-131 h-564zM269 -188q0 -90 85.5 -142.5t236.5 -52.5q81 0 146.5 19.5t111.5 50.5t71 72.5t25 84.5q0 79 -57.5 108.5t-167.5 29.5h-192q-33 0 -70.5 3.5t-74.5 14.5q-59 -44 -86.5 -92t-27.5 -96zM328 746q0 -62 18.5 -111.5t51.5 -84t75.5 -53t90.5 -18.5q49 0 91.5 18.5 t75.5 53t51.5 83.5t18.5 112q0 124 -69 191.5t-168 67.5q-98 0 -167 -68t-69 -191z" />
<glyph unicode="&#x1e24;" horiz-adv-x="1495" d="M206 0v1504h190v-630h700v630h193v-1504h-193v709h-700v-709h-190zM624 -348q0 52 35.5 86.5t88.5 34.5t88.5 -34.5t35.5 -86.5q0 -55 -35.5 -90t-88.5 -35t-88.5 35t-35.5 90z" />
<glyph unicode="&#x1e25;" horiz-adv-x="1247" d="M188 0v1633h188v-445l-6 -229q80 76 167 129.5t204 53.5q177 0 258.5 -110t81.5 -325v-707h-188v681q0 158 -50.5 228t-161.5 70q-87 0 -153.5 -43t-151.5 -128v-808h-188zM532 -348q0 52 35.5 86.5t88.5 34.5t88.5 -34.5t35.5 -86.5q0 -55 -35.5 -90t-88.5 -35t-88.5 35 t-35.5 90z" />
<glyph unicode="&#x1e2a;" horiz-adv-x="1495" d="M206 0v1504h190v-630h700v630h193v-1504h-193v709h-700v-709h-190zM459 -181h117q8 -67 49.5 -120.5t122.5 -53.5t121.5 53.5t50.5 120.5h117q-5 -51 -22 -102.5t-51.5 -94t-88 -69t-127.5 -26.5t-127.5 26.5t-88 69t-53 94t-20.5 102.5z" />
<glyph unicode="&#x1e2b;" horiz-adv-x="1247" d="M188 0v1633h188v-445l-6 -229q80 76 167 129.5t204 53.5q177 0 258.5 -110t81.5 -325v-707h-188v681q0 158 -50.5 228t-161.5 70q-87 0 -153.5 -43t-151.5 -128v-808h-188zM365 -181h117q8 -67 49.5 -120.5t122.5 -53.5t121.5 53.5t50.5 120.5h117q-5 -51 -22 -102.5 t-51.5 -94t-88 -69t-127.5 -26.5t-127.5 26.5t-88 69t-53 94t-20.5 102.5z" />
<glyph unicode="&#x1e34;" horiz-adv-x="1327" d="M206 0v1504h190v-754h7l627 754h215l-470 -573l544 -931h-214l-449 782l-260 -305v-477h-190zM462 -259h566v-133h-566v133z" />
<glyph unicode="&#x1e35;" horiz-adv-x="1134" d="M188 0v1633h186v-1105h7l475 586h208l-374 -446l424 -668h-206l-326 536l-208 -243v-293h-186zM338 -259h566v-133h-566v133z" />
<glyph unicode="&#x1e36;" horiz-adv-x="1114" d="M206 0v1504h190v-1342h659v-162h-849zM537 -348q0 52 35.5 86.5t88.5 34.5t88.5 -34.5t35.5 -86.5q0 -55 -35.5 -90t-88.5 -35t-88.5 35t-35.5 90z" />
<glyph unicode="&#x1e37;" horiz-adv-x="584" d="M188 225v1408h188v-1422q0 -46 16.5 -64t36.5 -18h17.5t23.5 4l25 -142q-18 -9 -43 -14t-64 -5q-108 0 -154 64.5t-46 188.5zM266 -348q0 52 35.5 86.5t88.5 34.5t88.5 -34.5t35.5 -86.5q0 -55 -35.5 -90t-88.5 -35t-88.5 35t-35.5 90z" />
<glyph unicode="&#x1e38;" horiz-adv-x="1114" d="M23 1672v131h568v-131h-568zM206 0v1504h190v-1342h659v-162h-849zM537 -348q0 52 35.5 86.5t88.5 34.5t88.5 -34.5t35.5 -86.5q0 -55 -35.5 -90t-88.5 -35t-88.5 35t-35.5 90z" />
<glyph unicode="&#x1e39;" horiz-adv-x="584" d="M-2 1886v131h564v-131h-564zM188 225v1408h188v-1422q0 -46 16.5 -64t36.5 -18h17.5t23.5 4l25 -142q-18 -9 -43 -14t-64 -5q-108 0 -154 64.5t-46 188.5zM266 -348q0 52 35.5 86.5t88.5 34.5t88.5 -34.5t35.5 -86.5q0 -55 -35.5 -90t-88.5 -35t-88.5 35t-35.5 90z" />
<glyph unicode="&#x1e3a;" horiz-adv-x="1114" d="M206 0v1504h190v-1342h659v-162h-849zM377 -259h566v-133h-566v133z" />
<glyph unicode="&#x1e3b;" horiz-adv-x="584" d="M106 -259h566v-133h-566v133zM188 225v1408h188v-1422q0 -46 16.5 -64t36.5 -18h17.5t23.5 4l25 -142q-18 -9 -43 -14t-64 -5q-108 0 -154 64.5t-46 188.5z" />
<glyph unicode="&#x1e42;" horiz-adv-x="1666" d="M206 0v1504h225l291 -806l110 -308h10l106 308l288 806h226v-1504h-182v828q0 100 8 222.5t17 222.5h-9l-121 -334l-289 -788h-109l-291 788l-119 334h-10q7 -100 16.5 -222.5t9.5 -222.5v-828h-177zM710 -348q0 52 35.5 86.5t88.5 34.5t88.5 -34.5t35.5 -86.5 q0 -55 -35.5 -90t-88.5 -35t-88.5 35t-35.5 90z" />
<glyph unicode="&#x1e43;" horiz-adv-x="1900" d="M188 0v1114h156l17 -160h6q74 81 160 134.5t186 53.5q129 0 201.5 -56t105.5 -158q88 97 176.5 155.5t191.5 58.5q172 0 255.5 -110t83.5 -325v-707h-188v681q0 158 -50.5 228t-155.5 70q-127 0 -280 -171v-808h-188v681q0 158 -50.5 228t-158.5 70q-126 0 -280 -171 v-808h-188zM853 -348q0 52 35.5 86.5t88.5 34.5t88.5 -34.5t35.5 -86.5q0 -55 -35.5 -90t-88.5 -35t-88.5 35t-35.5 90z" />
<glyph unicode="&#x1e44;" horiz-adv-x="1484" d="M206 0v1504h197l545 -944l162 -312h9q-7 114 -15 237t-8 242v777h182v-1504h-197l-547 948l-162 309h-9q9 -115 17 -233t8 -238v-786h-182zM617 1762q0 52 38 86.5t93 34.5t93 -34.5t38 -86.5q0 -55 -38 -90t-93 -35t-93 35t-38 90z" />
<glyph unicode="&#x1e45;" horiz-adv-x="1254" d="M188 0v1114h156l17 -160h6q81 81 169 134.5t205 53.5q177 0 258.5 -110t81.5 -325v-707h-188v681q0 158 -50.5 228t-161.5 70q-87 0 -153.5 -43t-151.5 -128v-808h-188zM546 1468q0 53 35.5 88.5t88.5 35.5t88.5 -35.5t35.5 -88.5q0 -55 -35.5 -89.5t-88.5 -34.5 t-88.5 34.5t-35.5 89.5z" />
<glyph unicode="&#x1e46;" horiz-adv-x="1484" d="M206 0v1504h197l545 -944l162 -312h9q-7 114 -15 237t-8 242v777h182v-1504h-197l-547 948l-162 309h-9q9 -115 17 -233t8 -238v-786h-182zM629 -348q0 52 35.5 86.5t88.5 34.5t88.5 -34.5t35.5 -86.5q0 -55 -35.5 -90t-88.5 -35t-88.5 35t-35.5 90z" />
<glyph unicode="&#x1e47;" horiz-adv-x="1254" d="M188 0v1114h156l17 -160h6q81 81 169 134.5t205 53.5q177 0 258.5 -110t81.5 -325v-707h-188v681q0 158 -50.5 228t-161.5 70q-87 0 -153.5 -43t-151.5 -128v-808h-188zM516 -348q0 52 35.5 86.5t88.5 34.5t88.5 -34.5t35.5 -86.5q0 -55 -35.5 -90t-88.5 -35t-88.5 35 t-35.5 90z" />
<glyph unicode="&#x1e48;" horiz-adv-x="1484" d="M206 0v1504h197l545 -944l162 -312h9q-7 114 -15 237t-8 242v777h182v-1504h-197l-547 948l-162 309h-9q9 -115 17 -233t8 -238v-786h-182zM469 -259h566v-133h-566v133z" />
<glyph unicode="&#x1e49;" horiz-adv-x="1254" d="M188 0v1114h156l17 -160h6q81 81 169 134.5t205 53.5q177 0 258.5 -110t81.5 -325v-707h-188v681q0 158 -50.5 228t-161.5 70q-87 0 -153.5 -43t-151.5 -128v-808h-188zM356 -259h566v-133h-566v133z" />
<glyph unicode="&#x1e52;" horiz-adv-x="1522" d="M119 759q0 182 47 325.5t132 243t203 152t261 52.5q142 0 260 -53.5t204 -153.5t133 -243t47 -323q0 -181 -47 -326.5t-133 -247.5t-204 -157.5t-260 -55.5q-143 0 -261 55.5t-203 157.5t-132 247.5t-47 326.5zM317 759q0 -142 32 -255.5t90 -195t140 -125t183 -43.5 q100 0 181.5 43.5t140 125t90.5 195t32 255.5q0 140 -32 252.5t-90.5 190.5t-140 120.5t-181.5 42.5q-101 0 -183 -42.5t-140 -120.5t-90 -190.5t-32 -252.5zM471 1672v131h568v-131h-568zM639 1924l203 256h209l-257 -256h-155z" />
<glyph unicode="&#x1e53;" horiz-adv-x="1243" d="M105 556q0 140 42.5 248.5t114 184t164.5 114.5t196 39t196 -39t164 -114.5t113.5 -184t42.5 -248.5q0 -138 -42.5 -247.5t-113.5 -184t-164 -113.5t-196 -39t-196 39t-164.5 113.5t-114 184t-42.5 247.5zM300 556q0 -97 23 -175.5t65.5 -134.5t102.5 -86.5t131 -30.5 q70 0 130 30.5t102.5 86.5t65.5 134.5t23 175.5q0 96 -23 175t-65.5 136t-102.5 88.5t-130 31.5q-71 0 -131 -31.5t-102.5 -88.5t-65.5 -136t-23 -175zM340 1379v131h564v-131h-564zM500 1652l188 236h182l-237 -236h-133z" />
<glyph unicode="&#x1e5a;" horiz-adv-x="1331" d="M206 0v1504h470q115 0 213 -21t168 -72t108.5 -131t38.5 -197q0 -177 -92 -282t-245 -145l381 -656h-215l-363 635h-274v-635h-190zM396 792h254q177 0 270.5 72t93.5 219q0 149 -94.5 208.5t-269.5 59.5h-254v-559zM585 -348q0 52 35.5 86.5t88.5 34.5t88.5 -34.5 t35.5 -86.5q0 -55 -35.5 -90t-88.5 -35t-88.5 35t-35.5 90z" />
<glyph unicode="&#x1e5b;" horiz-adv-x="795" d="M154 -348q0 52 35.5 86.5t88.5 34.5t88.5 -34.5t35.5 -86.5q0 -55 -35.5 -90t-88.5 -35t-88.5 35t-35.5 90zM188 0v1114h156l17 -201h6q57 105 138.5 167t177.5 62q66 0 120 -23l-37 -165q-28 9 -51 13.5t-56 4.5q-71 0 -148.5 -57t-134.5 -199v-716h-188z" />
<glyph unicode="&#x1e5c;" horiz-adv-x="1331" d="M206 0v1504h470q115 0 213 -21t168 -72t108.5 -131t38.5 -197q0 -177 -92 -282t-245 -145l381 -656h-215l-363 635h-274v-635h-190zM390 1672v131h568v-131h-568zM396 792h254q177 0 270.5 72t93.5 219q0 149 -94.5 208.5t-269.5 59.5h-254v-559zM585 -348 q0 52 35.5 86.5t88.5 34.5t88.5 -34.5t35.5 -86.5q0 -55 -35.5 -90t-88.5 -35t-88.5 35t-35.5 90z" />
<glyph unicode="&#x1e5d;" horiz-adv-x="795" d="M154 -348q0 52 35.5 86.5t88.5 34.5t88.5 -34.5t35.5 -86.5q0 -55 -35.5 -90t-88.5 -35t-88.5 35t-35.5 90zM188 0v1114h156l17 -201h6q57 105 138.5 167t177.5 62q66 0 120 -23l-37 -165q-28 9 -51 13.5t-56 4.5q-71 0 -148.5 -57t-134.5 -199v-716h-188zM215 1379v131 h564v-131h-564z" />
<glyph unicode="&#x1e5e;" horiz-adv-x="1331" d="M206 0v1504h470q115 0 213 -21t168 -72t108.5 -131t38.5 -197q0 -177 -92 -282t-245 -145l381 -656h-215l-363 635h-274v-635h-190zM396 792h254q177 0 270.5 72t93.5 219q0 149 -94.5 208.5t-269.5 59.5h-254v-559zM425 -259h566v-133h-566v133z" />
<glyph unicode="&#x1e5f;" horiz-adv-x="795" d="M-6 -259h566v-133h-566v133zM188 0v1114h156l17 -201h6q57 105 138.5 167t177.5 62q66 0 120 -23l-37 -165q-28 9 -51 13.5t-56 4.5q-71 0 -148.5 -57t-134.5 -199v-716h-188z" />
<glyph unicode="&#x1e60;" horiz-adv-x="1224" d="M96 195l115 133q80 -85 189.5 -136.5t225.5 -51.5q149 0 232 68t83 177q0 57 -19.5 97.5t-53.5 69t-79 51.5t-99 49l-215 94q-53 22 -108 54t-98.5 78t-71 109.5t-27.5 145.5q0 86 35.5 159t98.5 127t149 83.5t189 29.5q135 0 250 -51.5t196 -134.5l-104 -123 q-68 66 -152 104t-190 38q-127 0 -203 -58.5t-76 -161.5q0 -55 21 -93t58 -67t81 -50.5t90 -39.5l212 -92q64 -28 122 -63.5t99.5 -82.5t65.5 -110t24 -146q0 -90 -36 -167.5t-102.5 -136t-160 -92t-213.5 -33.5q-158 0 -293.5 60t-234.5 163zM509 1762q0 52 38 86.5 t93 34.5t93 -34.5t38 -86.5q0 -55 -38 -90t-93 -35t-93 35t-38 90z" />
<glyph unicode="&#x1e61;" horiz-adv-x="960" d="M64 127l94 125q74 -59 150.5 -96t177.5 -37q110 0 165.5 51t55.5 123q0 44 -23 76t-59 56t-82 42.5t-92 37.5q-59 20 -118.5 46.5t-106.5 64.5t-77 88.5t-30 120.5q0 67 26.5 125.5t76 101t120.5 66.5t161 24q105 0 193 -37t153 -89l-90 -119q-57 44 -119 71.5t-135 27.5 q-105 0 -155 -48.5t-50 -113.5q0 -39 21 -67.5t55.5 -49.5t79 -38.5t92.5 -36.5q59 -23 120 -48t109 -63t79.5 -93t31.5 -133q0 -69 -27 -129t-78.5 -105t-128 -72t-175.5 -27q-118 0 -226.5 43.5t-188.5 111.5zM379 1468q0 53 35.5 88.5t88.5 35.5t88.5 -35.5t35.5 -88.5 q0 -55 -35.5 -89.5t-88.5 -34.5t-88.5 34.5t-35.5 89.5z" />
<glyph unicode="&#x1e62;" horiz-adv-x="1224" d="M96 195l115 133q80 -85 189.5 -136.5t225.5 -51.5q149 0 232 68t83 177q0 57 -19.5 97.5t-53.5 69t-79 51.5t-99 49l-215 94q-53 22 -108 54t-98.5 78t-71 109.5t-27.5 145.5q0 86 35.5 159t98.5 127t149 83.5t189 29.5q135 0 250 -51.5t196 -134.5l-104 -123 q-68 66 -152 104t-190 38q-127 0 -203 -58.5t-76 -161.5q0 -55 21 -93t58 -67t81 -50.5t90 -39.5l212 -92q64 -28 122 -63.5t99.5 -82.5t65.5 -110t24 -146q0 -90 -36 -167.5t-102.5 -136t-160 -92t-213.5 -33.5q-158 0 -293.5 60t-234.5 163zM502 -348q0 52 35.5 86.5 t88.5 34.5t88.5 -34.5t35.5 -86.5q0 -55 -35.5 -90t-88.5 -35t-88.5 35t-35.5 90z" />
<glyph unicode="&#x1e63;" horiz-adv-x="960" d="M64 127l94 125q74 -59 150.5 -96t177.5 -37q110 0 165.5 51t55.5 123q0 44 -23 76t-59 56t-82 42.5t-92 37.5q-59 20 -118.5 46.5t-106.5 64.5t-77 88.5t-30 120.5q0 67 26.5 125.5t76 101t120.5 66.5t161 24q105 0 193 -37t153 -89l-90 -119q-57 44 -119 71.5t-135 27.5 q-105 0 -155 -48.5t-50 -113.5q0 -39 21 -67.5t55.5 -49.5t79 -38.5t92.5 -36.5q59 -23 120 -48t109 -63t79.5 -93t31.5 -133q0 -69 -27 -129t-78.5 -105t-128 -72t-175.5 -27q-118 0 -226.5 43.5t-188.5 111.5zM388 -348q0 52 35.5 86.5t88.5 34.5t88.5 -34.5t35.5 -86.5 q0 -55 -35.5 -90t-88.5 -35t-88.5 35t-35.5 90z" />
<glyph unicode="&#x1e6c;" horiz-adv-x="1228" d="M64 1344v160h1101v-160h-454v-1344h-192v1344h-455zM493 -348q0 52 35.5 86.5t88.5 34.5t88.5 -34.5t35.5 -86.5q0 -55 -35.5 -90t-88.5 -35t-88.5 35t-35.5 90z" />
<glyph unicode="&#x1e6d;" horiz-adv-x="775" d="M55 961v142l175 11l22 313h159v-313h300v-153h-300v-619q0 -103 37.5 -159t133.5 -56q31 0 65 8.5t62 20.5l37 -143q-46 -15 -100.5 -28t-106.5 -13q-90 0 -150.5 28t-98.5 76t-53.5 116.5t-15.5 151.5v617h-166zM367 -348q0 52 35.5 86.5t88.5 34.5t88.5 -34.5 t35.5 -86.5q0 -55 -35.5 -90t-88.5 -35t-88.5 35t-35.5 90z" />
<glyph unicode="&#x1e6e;" horiz-adv-x="1228" d="M64 1344v160h1101v-160h-454v-1344h-192v1344h-455zM333 -259h566v-133h-566v133z" />
<glyph unicode="&#x1e6f;" horiz-adv-x="775" d="M55 961v142l175 11l22 313h159v-313h300v-153h-300v-619q0 -103 37.5 -159t133.5 -56q31 0 65 8.5t62 20.5l37 -143q-46 -15 -100.5 -28t-106.5 -13q-90 0 -150.5 28t-98.5 76t-53.5 116.5t-15.5 151.5v617h-166zM204 -259h566v-133h-566v133z" />
<glyph unicode="&#x1e80;" horiz-adv-x="1802" d="M53 1504h197l159 -819q20 -124 43 -242.5t43 -243.5h10q26 125 53 245t52 241l209 819h174l209 -819q28 -118 55.5 -239.5t54.5 -246.5h10q20 125 40.5 245t43.5 241l159 819h183l-312 -1504h-230l-227 906q-20 87 -37.5 170.5t-35.5 171.5h-9q-18 -88 -37.5 -171.5 t-38.5 -170.5l-222 -906h-227zM602 1876h215l201 -256h-157z" />
<glyph unicode="&#x1e81;" horiz-adv-x="1646" d="M55 1114h193l165 -644q18 -80 34.5 -155.5t31.5 -154.5h9q18 79 36.5 155.5t39.5 154.5l172 644h184l174 -644q20 -80 40 -155.5t39 -154.5h9q18 79 34 154.5t34 155.5l163 644h179l-298 -1114h-230l-160 599q-20 81 -37.5 158t-38.5 163h-9q-18 -86 -36.5 -165 t-41.5 -159l-156 -596h-220zM571 1637h197l206 -322h-145z" />
<glyph unicode="&#x1e82;" horiz-adv-x="1802" d="M53 1504h197l159 -819q20 -124 43 -242.5t43 -243.5h10q26 125 53 245t52 241l209 819h174l209 -819q28 -118 55.5 -239.5t54.5 -246.5h10q20 125 40.5 245t43.5 241l159 819h183l-312 -1504h-230l-227 906q-20 87 -37.5 170.5t-35.5 171.5h-9q-18 -88 -37.5 -171.5 t-38.5 -170.5l-222 -906h-227zM786 1620l201 256h215l-259 -256h-157z" />
<glyph unicode="&#x1e83;" horiz-adv-x="1646" d="M55 1114h193l165 -644q18 -80 34.5 -155.5t31.5 -154.5h9q18 79 36.5 155.5t39.5 154.5l172 644h184l174 -644q20 -80 40 -155.5t39 -154.5h9q18 79 34 154.5t34 155.5l163 644h179l-298 -1114h-230l-160 599q-20 81 -37.5 158t-38.5 163h-9q-18 -86 -36.5 -165 t-41.5 -159l-156 -596h-220zM676 1315l206 322h197l-258 -322h-145z" />
<glyph unicode="&#x1e84;" horiz-adv-x="1802" d="M53 1504h197l159 -819q20 -124 43 -242.5t43 -243.5h10q26 125 53 245t52 241l209 819h174l209 -819q28 -118 55.5 -239.5t54.5 -246.5h10q20 125 40.5 245t43.5 241l159 819h183l-312 -1504h-230l-227 906q-20 87 -37.5 170.5t-35.5 171.5h-9q-18 -88 -37.5 -171.5 t-38.5 -170.5l-222 -906h-227zM593 1753q0 50 30.5 81t81.5 31q48 0 80 -31t32 -81q0 -48 -32 -80.5t-80 -32.5q-51 0 -81.5 32.5t-30.5 80.5zM987 1753q0 50 32 81t80 31q51 0 81.5 -31t30.5 -81q0 -48 -30.5 -80.5t-81.5 -32.5q-48 0 -80 32.5t-32 80.5z" />
<glyph unicode="&#x1e85;" horiz-adv-x="1646" d="M55 1114h193l165 -644q18 -80 34.5 -155.5t31.5 -154.5h9q18 79 36.5 155.5t39.5 154.5l172 644h184l174 -644q20 -80 40 -155.5t39 -154.5h9q18 79 34 154.5t34 155.5l163 644h179l-298 -1114h-230l-160 599q-20 81 -37.5 158t-38.5 163h-9q-18 -86 -36.5 -165 t-41.5 -159l-156 -596h-220zM516 1462q0 48 30.5 80t81.5 32q48 0 80 -32t32 -80q0 -49 -32 -81.5t-80 -32.5q-51 0 -81.5 32.5t-30.5 81.5zM910 1462q0 48 32 80t80 32q51 0 81.5 -32t30.5 -80q0 -49 -30.5 -81.5t-81.5 -32.5q-48 0 -80 32.5t-32 81.5z" />
<glyph unicode="&#x1e8e;" horiz-adv-x="1090" d="M-2 1504h204l194 -423q37 -83 72 -163t73 -165h10q39 85 78 165t73 163l193 423h199l-452 -922v-582h-193v582zM414 1762q0 52 38 86.5t93 34.5t93 -34.5t38 -86.5q0 -55 -38 -90t-93 -35t-93 35t-38 90z" />
<glyph unicode="&#x1e8f;" horiz-adv-x="1070" d="M28 1114h195l226 -617q26 -74 54.5 -155t54.5 -158h9q25 76 47.5 158t46.5 155l199 617h184l-420 -1206q-30 -83 -66.5 -154t-87 -122.5t-115 -81t-149.5 -29.5q-39 0 -71 5.5t-59 16.5l36 150q18 -4 41.5 -10.5t43.5 -6.5q96 0 157.5 68t94.5 171l26 83zM432 1468 q0 53 35.5 88.5t88.5 35.5t88.5 -35.5t35.5 -88.5q0 -55 -35.5 -89.5t-88.5 -34.5t-88.5 34.5t-35.5 89.5z" />
<glyph unicode="&#x1e92;" horiz-adv-x="1235" d="M103 0v114l792 1230h-720v160h958v-112l-794 -1230h801v-162h-1037zM520 -348q0 52 35.5 86.5t88.5 34.5t88.5 -34.5t35.5 -86.5q0 -55 -35.5 -90t-88.5 -35t-88.5 35t-35.5 90z" />
<glyph unicode="&#x1e93;" horiz-adv-x="974" d="M71 0v101l588 860h-523v153h761v-100l-588 -861h606v-153h-844zM399 -348q0 52 35.5 86.5t88.5 34.5t88.5 -34.5t35.5 -86.5q0 -55 -35.5 -90t-88.5 -35t-88.5 35t-35.5 90z" />
<glyph unicode="&#x1e97;" horiz-adv-x="775" d="M21 1774q0 48 30.5 80t81.5 32q48 0 80 -32t32 -80q0 -49 -32 -81.5t-80 -32.5q-51 0 -81.5 32.5t-30.5 81.5zM55 961v142l175 11l22 313h159v-313h300v-153h-300v-619q0 -103 37.5 -159t133.5 -56q31 0 65 8.5t62 20.5l37 -143q-46 -15 -100.5 -28t-106.5 -13 q-90 0 -150.5 28t-98.5 76t-53.5 116.5t-15.5 151.5v617h-166zM415 1774q0 48 32 80t80 32q51 0 81.5 -32t30.5 -80q0 -49 -30.5 -81.5t-81.5 -32.5q-48 0 -80 32.5t-32 81.5z" />
<glyph unicode="&#x1e9e;" horiz-adv-x="1529" d="M208 0v956q0 272 154 424t434 152q193 0 314.5 -96t183.5 -257l-317 -349q240 -48 347 -160t107 -278q0 -90 -30.5 -166.5t-88.5 -132.5t-138 -88.5t-178 -32.5q-134 0 -239 48t-177 127l110 124q66 -74 135.5 -106t153.5 -32q122 0 188.5 72.5t66.5 186.5 q0 53 -19.5 101t-70 89.5t-136.5 73.5t-216 55l-12 123l314 352q-39 78 -113.5 133t-190.5 55q-184 0 -286.5 -109t-102.5 -343v-922h-193z" />
<glyph unicode="&#x1ea0;" horiz-adv-x="1247" d="M7 0l509 1504h215l510 -1504h-204l-142 459h-549l-144 -459h-195zM394 613h453l-72 229q-41 127 -77.5 251t-73.5 255h-9q-35 -131 -71.5 -255.5t-77.5 -250.5zM498 -348q0 52 35.5 86.5t88.5 34.5t88.5 -34.5t35.5 -86.5q0 -55 -35.5 -90t-88.5 -35t-88.5 35t-35.5 90z " />
<glyph unicode="&#x1ea1;" horiz-adv-x="1173" d="M133 289q0 184 164 281.5t522 136.5q0 52 -10 102.5t-36.5 90t-70 63.5t-113.5 24q-98 0 -181.5 -37t-151.5 -83l-75 131q79 50 191 97t247 47q204 0 296 -124.5t92 -334.5v-683h-156l-17 133h-4q-81 -66 -173.5 -113.5t-195.5 -47.5q-142 0 -235 83t-93 234zM319 302 q0 -96 56 -137t139 -41q81 0 152.5 37.5t152.5 111.5v309q-140 -18 -236.5 -43t-154.5 -59.5t-83.5 -79.5t-25.5 -98zM456 -348q0 52 35.5 86.5t88.5 34.5t88.5 -34.5t35.5 -86.5q0 -55 -35.5 -90t-88.5 -35t-88.5 35t-35.5 90z" />
<glyph unicode="&#x1ea2;" horiz-adv-x="1247" d="M7 0l509 1504h215l510 -1504h-204l-142 459h-549l-144 -459h-195zM394 613h453l-72 229q-41 127 -77.5 251t-73.5 255h-9q-35 -131 -71.5 -255.5t-77.5 -250.5zM475 1891l20 109q152 -4 234.5 -51t82.5 -135q0 -50 -20.5 -86t-56 -62t-81 -40.5t-96.5 -23.5l-21 86 q55 16 92 39.5t37 66.5q0 90 -191 97z" />
<glyph unicode="&#x1ea3;" horiz-adv-x="1173" d="M133 289q0 184 164 281.5t522 136.5q0 52 -10 102.5t-36.5 90t-70 63.5t-113.5 24q-98 0 -181.5 -37t-151.5 -83l-75 131q79 50 191 97t247 47q204 0 296 -124.5t92 -334.5v-683h-156l-17 133h-4q-81 -66 -173.5 -113.5t-195.5 -47.5q-142 0 -235 83t-93 234zM319 302 q0 -96 56 -137t139 -41q81 0 152.5 37.5t152.5 111.5v309q-140 -18 -236.5 -43t-154.5 -59.5t-83.5 -79.5t-25.5 -98zM470 1558l20 110q152 -5 234.5 -52t82.5 -134q0 -51 -20.5 -86.5t-56 -62t-81 -41t-96.5 -23.5l-21 86q55 16 92 39.5t37 67.5q0 89 -191 96z" />
<glyph unicode="&#x1ea4;" horiz-adv-x="1247" d="M7 0l509 1504h215l510 -1504h-204l-142 459h-549l-144 -459h-195zM329 1620l210 243h166l210 -243h-144l-145 142h-8l-145 -142h-144zM394 613h453l-72 229q-41 127 -77.5 251t-73.5 255h-9q-35 -131 -71.5 -255.5t-77.5 -250.5zM830 1766l164 254h164l-208 -254h-120z " />
<glyph unicode="&#x1ea5;" horiz-adv-x="1173" d="M133 289q0 184 164 281.5t522 136.5q0 52 -10 102.5t-36.5 90t-70 63.5t-113.5 24q-98 0 -181.5 -37t-151.5 -83l-75 131q79 50 191 97t247 47q204 0 296 -124.5t92 -334.5v-683h-156l-17 133h-4q-81 -66 -173.5 -113.5t-195.5 -47.5q-142 0 -235 83t-93 234zM319 302 q0 -96 56 -137t139 -41q81 0 152.5 37.5t152.5 111.5v309q-140 -18 -236.5 -43t-154.5 -59.5t-83.5 -79.5t-25.5 -98zM350 1315l189 272h156l189 -272h-129l-134 167h-8l-134 -167h-129zM821 1468l168 261h160l-211 -261h-117z" />
<glyph unicode="&#x1ea6;" horiz-adv-x="1247" d="M7 0l509 1504h215l510 -1504h-204l-142 459h-549l-144 -459h-195zM329 1620l210 243h166l210 -243h-144l-145 142h-8l-145 -142h-144zM394 613h453l-72 229q-41 127 -77.5 251t-73.5 255h-9q-35 -131 -71.5 -255.5t-77.5 -250.5zM716 2020h165l163 -254h-120z" />
<glyph unicode="&#x1ea7;" horiz-adv-x="1173" d="M133 289q0 184 164 281.5t522 136.5q0 52 -10 102.5t-36.5 90t-70 63.5t-113.5 24q-98 0 -181.5 -37t-151.5 -83l-75 131q79 50 191 97t247 47q204 0 296 -124.5t92 -334.5v-683h-156l-17 133h-4q-81 -66 -173.5 -113.5t-195.5 -47.5q-142 0 -235 83t-93 234zM319 302 q0 -96 56 -137t139 -41q81 0 152.5 37.5t152.5 111.5v309q-140 -18 -236.5 -43t-154.5 -59.5t-83.5 -79.5t-25.5 -98zM350 1315l189 272h156l189 -272h-129l-134 167h-8l-134 -167h-129zM750 1729h158l170 -261h-117z" />
<glyph unicode="&#x1ea8;" horiz-adv-x="1247" d="M7 0l509 1504h215l510 -1504h-204l-142 459h-549l-144 -459h-195zM329 1620l210 243h166l210 -243h-144l-145 142h-8l-145 -142h-144zM394 613h453l-72 229q-41 127 -77.5 251t-73.5 255h-9q-35 -131 -71.5 -255.5t-77.5 -250.5zM801 1981l20 97q136 -5 206 -46t70 -121 q0 -88 -64.5 -128t-146.5 -54l-25 81q43 11 73 28.5t30 54.5q0 46 -37.5 65t-125.5 23z" />
<glyph unicode="&#x1ea9;" horiz-adv-x="1173" d="M133 289q0 184 164 281.5t522 136.5q0 52 -10 102.5t-36.5 90t-70 63.5t-113.5 24q-98 0 -181.5 -37t-151.5 -83l-75 131q79 50 191 97t247 47q204 0 296 -124.5t92 -334.5v-683h-156l-17 133h-4q-81 -66 -173.5 -113.5t-195.5 -47.5q-142 0 -235 83t-93 234zM319 302 q0 -96 56 -137t139 -41q81 0 152.5 37.5t152.5 111.5v309q-140 -18 -236.5 -43t-154.5 -59.5t-83.5 -79.5t-25.5 -98zM350 1315l189 272h156l189 -272h-129l-134 167h-8l-134 -167h-129zM801 1705l15 94q136 -5 208 -46.5t72 -121.5q0 -46 -18.5 -78t-48 -54t-67.5 -36 t-78 -23l-22 81q44 11 70.5 32t26.5 58q0 45 -36.5 67t-121.5 27z" />
<glyph unicode="&#x1eaa;" horiz-adv-x="1247" d="M7 0l509 1504h215l510 -1504h-204l-142 459h-549l-144 -459h-195zM320 1941q9 92 54.5 152.5t125.5 60.5q41 0 73.5 -16.5t59 -35.5t51.5 -35t52 -16q35 0 59 27.5t33 75.5h96q-9 -90 -54.5 -151.5t-125.5 -61.5q-41 0 -73.5 15.5t-59 35.5t-51.5 36t-52 16 q-74 0 -92 -103h-96zM329 1620l210 243h166l210 -243h-144l-145 142h-8l-145 -142h-144zM394 613h453l-72 229q-41 127 -77.5 251t-73.5 255h-9q-35 -131 -71.5 -255.5t-77.5 -250.5z" />
<glyph unicode="&#x1eab;" horiz-adv-x="1173" d="M133 289q0 184 164 281.5t522 136.5q0 52 -10 102.5t-36.5 90t-70 63.5t-113.5 24q-98 0 -181.5 -37t-151.5 -83l-75 131q79 50 191 97t247 47q204 0 296 -124.5t92 -334.5v-683h-156l-17 133h-4q-81 -66 -173.5 -113.5t-195.5 -47.5q-142 0 -235 83t-93 234zM317 1631 q9 92 55 150t126 58q44 0 75 -14.5t57 -34t50 -35t51 -15.5q74 0 90 99h96q-9 -92 -55 -150t-126 -58q-44 0 -75 15t-57 34.5t-50 34t-51 14.5q-74 0 -90 -98h-96zM319 302q0 -96 56 -137t139 -41q81 0 152.5 37.5t152.5 111.5v309q-140 -18 -236.5 -43t-154.5 -59.5 t-83.5 -79.5t-25.5 -98zM333 1309l197 239h174l197 -239h-133l-147 150h-8l-147 -150h-133z" />
<glyph unicode="&#x1eac;" horiz-adv-x="1247" d="M7 0l509 1504h215l510 -1504h-204l-142 459h-549l-144 -459h-195zM310 1620l220 256h184l220 -256h-154l-154 155h-8l-154 -155h-154zM394 613h453l-72 229q-41 127 -77.5 251t-73.5 255h-9q-35 -131 -71.5 -255.5t-77.5 -250.5zM498 -348q0 52 35.5 86.5t88.5 34.5 t88.5 -34.5t35.5 -86.5q0 -55 -35.5 -90t-88.5 -35t-88.5 35t-35.5 90z" />
<glyph unicode="&#x1ead;" horiz-adv-x="1173" d="M133 289q0 184 164 281.5t522 136.5q0 52 -10 102.5t-36.5 90t-70 63.5t-113.5 24q-98 0 -181.5 -37t-151.5 -83l-75 131q79 50 191 97t247 47q204 0 296 -124.5t92 -334.5v-683h-156l-17 133h-4q-81 -66 -173.5 -113.5t-195.5 -47.5q-142 0 -235 83t-93 234zM319 302 q0 -96 56 -137t139 -41q81 0 152.5 37.5t152.5 111.5v309q-140 -18 -236.5 -43t-154.5 -59.5t-83.5 -79.5t-25.5 -98zM321 1315l218 322h156l218 -322h-138l-154 208h-8l-154 -208h-138zM456 -348q0 52 35.5 86.5t88.5 34.5t88.5 -34.5t35.5 -86.5q0 -55 -35.5 -90 t-88.5 -35t-88.5 35t-35.5 90z" />
<glyph unicode="&#x1eae;" horiz-adv-x="1247" d="M7 0l509 1504h215l510 -1504h-204l-142 459h-549l-144 -459h-195zM342 1869h103q13 -59 53.5 -102.5t123.5 -43.5t122.5 43.5t54.5 102.5h103q-7 -48 -26.5 -91.5t-54 -78t-84 -55t-115.5 -20.5t-115.5 20.5t-84 55t-54 78t-26.5 91.5zM394 613h453l-72 229 q-41 127 -77.5 251t-73.5 255h-9q-35 -131 -71.5 -255.5t-77.5 -250.5zM532 1839l171 242h164l-223 -242h-112z" />
<glyph unicode="&#x1eaf;" horiz-adv-x="1173" d="M133 289q0 184 164 281.5t522 136.5q0 52 -10 102.5t-36.5 90t-70 63.5t-113.5 24q-98 0 -181.5 -37t-151.5 -83l-75 131q79 50 191 97t247 47q204 0 296 -124.5t92 -334.5v-683h-156l-17 133h-4q-81 -66 -173.5 -113.5t-195.5 -47.5q-142 0 -235 83t-93 234zM319 302 q0 -96 56 -137t139 -41q81 0 152.5 37.5t152.5 111.5v309q-140 -18 -236.5 -43t-154.5 -59.5t-83.5 -79.5t-25.5 -98zM328 1611h99q11 -71 57 -127.5t133 -56.5t133 56t57 128h99q-5 -51 -22 -103t-51.5 -94t-88 -68.5t-127.5 -26.5t-127.5 26.5t-88 68.5t-53 94t-20.5 103z M532 1552l156 258h156l-201 -258h-111z" />
<glyph unicode="&#x1eb0;" horiz-adv-x="1247" d="M7 0l509 1504h215l510 -1504h-204l-142 459h-549l-144 -459h-195zM342 1869h103q13 -59 53.5 -102.5t123.5 -43.5t122.5 43.5t54.5 102.5h103q-7 -48 -26.5 -91.5t-54 -78t-84 -55t-115.5 -20.5t-115.5 20.5t-84 55t-54 78t-26.5 91.5zM377 2081h164l171 -242h-112z M394 613h453l-72 229q-41 127 -77.5 251t-73.5 255h-9q-35 -131 -71.5 -255.5t-77.5 -250.5z" />
<glyph unicode="&#x1eb1;" horiz-adv-x="1173" d="M133 289q0 184 164 281.5t522 136.5q0 52 -10 102.5t-36.5 90t-70 63.5t-113.5 24q-98 0 -181.5 -37t-151.5 -83l-75 131q79 50 191 97t247 47q204 0 296 -124.5t92 -334.5v-683h-156l-17 133h-4q-81 -66 -173.5 -113.5t-195.5 -47.5q-142 0 -235 83t-93 234zM319 302 q0 -96 56 -137t139 -41q81 0 152.5 37.5t152.5 111.5v309q-140 -18 -236.5 -43t-154.5 -59.5t-83.5 -79.5t-25.5 -98zM328 1611h99q11 -71 57 -127.5t133 -56.5t133 56t57 128h99q-5 -51 -22 -103t-51.5 -94t-88 -68.5t-127.5 -26.5t-127.5 26.5t-88 68.5t-53 94t-20.5 103z M390 1810h156l156 -258h-111z" />
<glyph unicode="&#x1eb2;" horiz-adv-x="1247" d="M7 0l509 1504h215l510 -1504h-204l-142 459h-549l-144 -459h-195zM342 1869h103q13 -59 53.5 -102.5t123.5 -43.5t122.5 43.5t54.5 102.5h103q-7 -48 -26.5 -91.5t-54 -78t-84 -55t-115.5 -20.5t-115.5 20.5t-84 55t-54 78t-26.5 91.5zM394 613h453l-72 229 q-41 127 -77.5 251t-73.5 255h-9q-35 -131 -71.5 -255.5t-77.5 -250.5zM486 2088l20 96q135 -4 205.5 -45.5t70.5 -122.5q0 -44 -18 -74.5t-47 -52.5t-67.5 -34.5t-80.5 -19.5l-23 80q41 11 71.5 28.5t30.5 54.5q0 46 -38 65.5t-124 24.5z" />
<glyph unicode="&#x1eb3;" horiz-adv-x="1173" d="M133 289q0 184 164 281.5t522 136.5q0 52 -10 102.5t-36.5 90t-70 63.5t-113.5 24q-98 0 -181.5 -37t-151.5 -83l-75 131q79 50 191 97t247 47q204 0 296 -124.5t92 -334.5v-683h-156l-17 133h-4q-81 -66 -173.5 -113.5t-195.5 -47.5q-142 0 -235 83t-93 234zM319 302 q0 -96 56 -137t139 -41q81 0 152.5 37.5t152.5 111.5v309q-140 -18 -236.5 -43t-154.5 -59.5t-83.5 -79.5t-25.5 -98zM328 1611h99q11 -71 57 -127.5t133 -56.5t133 56t57 128h99q-5 -51 -22 -103t-51.5 -94t-88 -68.5t-127.5 -26.5t-127.5 26.5t-88 68.5t-53 94t-20.5 103z M475 1830l15 94q136 -4 208 -44.5t72 -122.5q0 -46 -18.5 -78.5t-48 -53.5t-68 -35t-80.5 -23l-19 79q42 12 69.5 33t27.5 57q0 46 -36.5 68t-121.5 26z" />
<glyph unicode="&#x1eb4;" horiz-adv-x="1247" d="M7 0l509 1504h215l510 -1504h-204l-142 459h-549l-144 -459h-195zM320 1941q9 92 54.5 152.5t125.5 60.5q41 0 73.5 -16.5t59 -35.5t51.5 -35t52 -16q35 0 59 27.5t33 75.5h96q-9 -90 -54.5 -151.5t-125.5 -61.5q-41 0 -73.5 15.5t-59 35.5t-51.5 36t-52 16 q-74 0 -92 -103h-96zM342 1869h103q13 -59 53.5 -102.5t123.5 -43.5t122.5 43.5t54.5 102.5h103q-7 -48 -26.5 -91.5t-54 -78t-84 -55t-115.5 -20.5t-115.5 20.5t-84 55t-54 78t-26.5 91.5zM394 613h453l-72 229q-41 127 -77.5 251t-73.5 255h-9q-35 -131 -71.5 -255.5 t-77.5 -250.5z" />
<glyph unicode="&#x1eb5;" horiz-adv-x="1173" d="M133 289q0 184 164 281.5t522 136.5q0 52 -10 102.5t-36.5 90t-70 63.5t-113.5 24q-98 0 -181.5 -37t-151.5 -83l-75 131q79 50 191 97t247 47q204 0 296 -124.5t92 -334.5v-683h-156l-17 133h-4q-81 -66 -173.5 -113.5t-195.5 -47.5q-142 0 -235 83t-93 234zM317 1631 q9 92 55 150t126 58q44 0 75 -14.5t57 -34t50 -35t51 -15.5q74 0 90 99h96q-9 -92 -55 -150t-126 -58q-44 0 -75 15t-57 34.5t-50 34t-51 14.5q-74 0 -90 -98h-96zM319 302q0 -96 56 -137t139 -41q81 0 152.5 37.5t152.5 111.5v309q-140 -18 -236.5 -43t-154.5 -59.5 t-83.5 -79.5t-25.5 -98zM330 1565h103q12 -55 54.5 -99t129.5 -44t129.5 44t54.5 99h103q-5 -46 -22 -90t-51.5 -78t-87 -56t-126.5 -22t-126.5 22t-87 56t-52.5 78t-21 90z" />
<glyph unicode="&#x1eb6;" horiz-adv-x="1247" d="M7 0l509 1504h215l510 -1504h-204l-142 459h-549l-144 -459h-195zM340 1876h114q11 -55 50.5 -99.5t117.5 -44.5t117 44.5t51 99.5h114q-6 -48 -24.5 -94t-53 -80t-85.5 -56t-119 -22t-119 22t-85.5 56t-53 80t-24.5 94zM394 613h453l-72 229q-41 127 -77.5 251 t-73.5 255h-9q-35 -131 -71.5 -255.5t-77.5 -250.5zM498 -348q0 52 35.5 86.5t88.5 34.5t88.5 -34.5t35.5 -86.5q0 -55 -35.5 -90t-88.5 -35t-88.5 35t-35.5 90z" />
<glyph unicode="&#x1eb7;" horiz-adv-x="1173" d="M133 289q0 184 164 281.5t522 136.5q0 52 -10 102.5t-36.5 90t-70 63.5t-113.5 24q-98 0 -181.5 -37t-151.5 -83l-75 131q79 50 191 97t247 47q204 0 296 -124.5t92 -334.5v-683h-156l-17 133h-4q-81 -66 -173.5 -113.5t-195.5 -47.5q-142 0 -235 83t-93 234zM319 302 q0 -96 56 -137t139 -41q81 0 152.5 37.5t152.5 111.5v309q-140 -18 -236.5 -43t-154.5 -59.5t-83.5 -79.5t-25.5 -98zM328 1611h117q8 -67 49.5 -121t122.5 -54t121.5 53.5t50.5 121.5h117q-5 -51 -22 -103t-51.5 -94t-88 -68.5t-127.5 -26.5t-127.5 26.5t-88 68.5t-53 94 t-20.5 103zM456 -348q0 52 35.5 86.5t88.5 34.5t88.5 -34.5t35.5 -86.5q0 -55 -35.5 -90t-88.5 -35t-88.5 35t-35.5 90z" />
<glyph unicode="&#x1eb8;" horiz-adv-x="1208" d="M206 0v1504h867v-160h-677v-473h572v-162h-572v-547h700v-162h-890zM552 -348q0 52 35.5 86.5t88.5 34.5t88.5 -34.5t35.5 -86.5q0 -55 -35.5 -90t-88.5 -35t-88.5 35t-35.5 90z" />
<glyph unicode="&#x1eb9;" horiz-adv-x="1136" d="M105 556q0 137 42.5 246t112.5 184.5t160 115.5t186 40q105 0 188.5 -37t140 -105.5t86.5 -165t30 -215.5q0 -61 -7 -103h-753q11 -181 111.5 -286.5t260.5 -105.5q81 0 148 24t130 63l66 -124q-74 -46 -163 -80.5t-204 -34.5q-112 0 -209.5 40.5t-170 115t-114 182.5 t-41.5 246zM289 640h597q0 172 -72.5 262.5t-203.5 90.5q-59 0 -113.5 -24t-98 -68.5t-72 -110t-37.5 -150.5zM480 -348q0 52 35.5 86.5t88.5 34.5t88.5 -34.5t35.5 -86.5q0 -55 -35.5 -90t-88.5 -35t-88.5 35t-35.5 90z" />
<glyph unicode="&#x1eba;" horiz-adv-x="1208" d="M206 0v1504h867v-160h-677v-473h572v-162h-572v-547h700v-162h-890zM505 1891l20 109q152 -4 234.5 -51t82.5 -135q0 -50 -20.5 -86t-56 -62t-81 -40.5t-96.5 -23.5l-21 86q55 16 92 39.5t37 66.5q0 90 -191 97z" />
<glyph unicode="&#x1ebb;" horiz-adv-x="1136" d="M105 556q0 137 42.5 246t112.5 184.5t160 115.5t186 40q105 0 188.5 -37t140 -105.5t86.5 -165t30 -215.5q0 -61 -7 -103h-753q11 -181 111.5 -286.5t260.5 -105.5q81 0 148 24t130 63l66 -124q-74 -46 -163 -80.5t-204 -34.5q-112 0 -209.5 40.5t-170 115t-114 182.5 t-41.5 246zM289 640h597q0 172 -72.5 262.5t-203.5 90.5q-59 0 -113.5 -24t-98 -68.5t-72 -110t-37.5 -150.5zM461 1558l20 110q152 -5 234.5 -52t82.5 -134q0 -51 -20.5 -86.5t-56 -62t-81 -41t-96.5 -23.5l-21 86q55 16 92 39.5t37 67.5q0 89 -191 96z" />
<glyph unicode="&#x1ebc;" horiz-adv-x="1208" d="M206 0v1504h867v-160h-677v-473h572v-162h-572v-547h700v-162h-890zM319 1631q12 107 62 177t133 70q46 0 83 -18t68 -41t60.5 -41t62.5 -18q32 0 57 30.5t34 87.5h106q-12 -105 -62 -176t-133 -71q-46 0 -83 18.5t-68 41.5t-60.5 41.5t-62.5 18.5q-32 0 -57 -30.5 t-34 -89.5h-106z" />
<glyph unicode="&#x1ebd;" horiz-adv-x="1136" d="M105 556q0 137 42.5 246t112.5 184.5t160 115.5t186 40q105 0 188.5 -37t140 -105.5t86.5 -165t30 -215.5q0 -61 -7 -103h-753q11 -181 111.5 -286.5t260.5 -105.5q81 0 148 24t130 63l66 -124q-74 -46 -163 -80.5t-204 -34.5q-112 0 -209.5 40.5t-170 115t-114 182.5 t-41.5 246zM289 640h597q0 172 -72.5 262.5t-203.5 90.5q-59 0 -113.5 -24t-98 -68.5t-72 -110t-37.5 -150.5zM289 1328q9 103 55 173t131 70q43 0 80 -18.5t68 -40t58.5 -40t55.5 -18.5q64 0 84 117h106q-9 -103 -55 -173t-131 -70q-43 0 -79 18.5t-67 40t-58.5 40 t-57.5 18.5q-64 0 -84 -117h-106z" />
<glyph unicode="&#x1ebe;" horiz-adv-x="1208" d="M206 0v1504h867v-160h-677v-473h572v-162h-572v-547h700v-162h-890zM359 1620l210 243h166l210 -243h-144l-145 142h-8l-145 -142h-144zM860 1766l164 254h164l-208 -254h-120z" />
<glyph unicode="&#x1ebf;" horiz-adv-x="1136" d="M105 556q0 137 42.5 246t112.5 184.5t160 115.5t186 40q105 0 188.5 -37t140 -105.5t86.5 -165t30 -215.5q0 -61 -7 -103h-753q11 -181 111.5 -286.5t260.5 -105.5q81 0 148 24t130 63l66 -124q-74 -46 -163 -80.5t-204 -34.5q-112 0 -209.5 40.5t-170 115t-114 182.5 t-41.5 246zM289 640h597q0 172 -72.5 262.5t-203.5 90.5q-59 0 -113.5 -24t-98 -68.5t-72 -110t-37.5 -150.5zM341 1315l189 272h156l189 -272h-129l-134 167h-8l-134 -167h-129zM812 1468l168 261h160l-211 -261h-117z" />
<glyph unicode="&#x1ec0;" horiz-adv-x="1208" d="M206 0v1504h867v-160h-677v-473h572v-162h-572v-547h700v-162h-890zM359 1620l210 243h166l210 -243h-144l-145 142h-8l-145 -142h-144zM746 2020h165l163 -254h-120z" />
<glyph unicode="&#x1ec1;" horiz-adv-x="1136" d="M105 556q0 137 42.5 246t112.5 184.5t160 115.5t186 40q105 0 188.5 -37t140 -105.5t86.5 -165t30 -215.5q0 -61 -7 -103h-753q11 -181 111.5 -286.5t260.5 -105.5q81 0 148 24t130 63l66 -124q-74 -46 -163 -80.5t-204 -34.5q-112 0 -209.5 40.5t-170 115t-114 182.5 t-41.5 246zM289 640h597q0 172 -72.5 262.5t-203.5 90.5q-59 0 -113.5 -24t-98 -68.5t-72 -110t-37.5 -150.5zM341 1315l189 272h156l189 -272h-129l-134 167h-8l-134 -167h-129zM741 1729h158l170 -261h-117z" />
<glyph unicode="&#x1ec2;" horiz-adv-x="1208" d="M206 0v1504h867v-160h-677v-473h572v-162h-572v-547h700v-162h-890zM359 1620l210 243h166l210 -243h-144l-145 142h-8l-145 -142h-144zM831 1981l20 97q136 -5 206 -46t70 -121q0 -88 -64.5 -128t-146.5 -54l-25 81q43 11 73 28.5t30 54.5q0 46 -37.5 65t-125.5 23z" />
<glyph unicode="&#x1ec3;" horiz-adv-x="1136" d="M105 556q0 137 42.5 246t112.5 184.5t160 115.5t186 40q105 0 188.5 -37t140 -105.5t86.5 -165t30 -215.5q0 -61 -7 -103h-753q11 -181 111.5 -286.5t260.5 -105.5q81 0 148 24t130 63l66 -124q-74 -46 -163 -80.5t-204 -34.5q-112 0 -209.5 40.5t-170 115t-114 182.5 t-41.5 246zM289 640h597q0 172 -72.5 262.5t-203.5 90.5q-59 0 -113.5 -24t-98 -68.5t-72 -110t-37.5 -150.5zM341 1315l189 272h156l189 -272h-129l-134 167h-8l-134 -167h-129zM792 1705l15 94q136 -5 208 -46.5t72 -121.5q0 -46 -18.5 -78t-48 -54t-67.5 -36t-78 -23 l-22 81q44 11 70.5 32t26.5 58q0 45 -36.5 67t-121.5 27z" />
<glyph unicode="&#x1ec4;" horiz-adv-x="1208" d="M206 0v1504h867v-160h-677v-473h572v-162h-572v-547h700v-162h-890zM350 1941q9 92 54.5 152.5t125.5 60.5q41 0 73.5 -16.5t59 -35.5t51.5 -35t52 -16q35 0 59 27.5t33 75.5h96q-9 -90 -54.5 -151.5t-125.5 -61.5q-41 0 -73.5 15.5t-59 35.5t-51.5 36t-52 16 q-74 0 -92 -103h-96zM359 1620l210 243h166l210 -243h-144l-145 142h-8l-145 -142h-144z" />
<glyph unicode="&#x1ec5;" horiz-adv-x="1136" d="M105 556q0 137 42.5 246t112.5 184.5t160 115.5t186 40q105 0 188.5 -37t140 -105.5t86.5 -165t30 -215.5q0 -61 -7 -103h-753q11 -181 111.5 -286.5t260.5 -105.5q81 0 148 24t130 63l66 -124q-74 -46 -163 -80.5t-204 -34.5q-112 0 -209.5 40.5t-170 115t-114 182.5 t-41.5 246zM289 640h597q0 172 -72.5 262.5t-203.5 90.5q-59 0 -113.5 -24t-98 -68.5t-72 -110t-37.5 -150.5zM308 1631q9 92 55 150t126 58q44 0 75 -14.5t57 -34t50 -35t51 -15.5q74 0 90 99h96q-9 -92 -55 -150t-126 -58q-44 0 -75 15t-57 34.5t-50 34t-51 14.5 q-74 0 -90 -98h-96zM324 1309l197 239h174l197 -239h-133l-147 150h-8l-147 -150h-133z" />
<glyph unicode="&#x1ec6;" horiz-adv-x="1208" d="M206 0v1504h867v-160h-677v-473h572v-162h-572v-547h700v-162h-890zM340 1620l220 256h184l220 -256h-154l-154 155h-8l-154 -155h-154zM552 -348q0 52 35.5 86.5t88.5 34.5t88.5 -34.5t35.5 -86.5q0 -55 -35.5 -90t-88.5 -35t-88.5 35t-35.5 90z" />
<glyph unicode="&#x1ec7;" horiz-adv-x="1136" d="M105 556q0 137 42.5 246t112.5 184.5t160 115.5t186 40q105 0 188.5 -37t140 -105.5t86.5 -165t30 -215.5q0 -61 -7 -103h-753q11 -181 111.5 -286.5t260.5 -105.5q81 0 148 24t130 63l66 -124q-74 -46 -163 -80.5t-204 -34.5q-112 0 -209.5 40.5t-170 115t-114 182.5 t-41.5 246zM289 640h597q0 172 -72.5 262.5t-203.5 90.5q-59 0 -113.5 -24t-98 -68.5t-72 -110t-37.5 -150.5zM312 1315l218 322h156l218 -322h-138l-154 208h-8l-154 -208h-138zM477 -348q0 52 35.5 86.5t88.5 34.5t88.5 -34.5t35.5 -86.5q0 -55 -35.5 -90t-88.5 -35 t-88.5 35t-35.5 90z" />
<glyph unicode="&#x1ec8;" horiz-adv-x="602" d="M153 1891l20 109q152 -4 234.5 -51t82.5 -135q0 -50 -20.5 -86t-56 -62t-81 -40.5t-96.5 -23.5l-21 86q55 16 92 39.5t37 66.5q0 90 -191 97zM206 0v1504h190v-1504h-190z" />
<glyph unicode="&#x1ec9;" horiz-adv-x="563" d="M135 1558l20 110q152 -5 234.5 -52t82.5 -134q0 -51 -20.5 -86.5t-56 -62t-81 -41t-96.5 -23.5l-21 86q55 16 92 39.5t37 67.5q0 89 -191 96zM188 0v1114h188v-1114h-188z" />
<glyph unicode="&#x1eca;" horiz-adv-x="602" d="M178 -348q0 52 35.5 86.5t88.5 34.5t88.5 -34.5t35.5 -86.5q0 -55 -35.5 -90t-88.5 -35t-88.5 35t-35.5 90zM206 0v1504h190v-1504h-190z" />
<glyph unicode="&#x1ecb;" horiz-adv-x="563" d="M153 1466q0 55 38.5 88t92.5 33q55 0 93.5 -33t38.5 -88q0 -53 -38.5 -87.5t-93.5 -34.5q-54 0 -92.5 34.5t-38.5 87.5zM160 -348q0 52 35.5 86.5t88.5 34.5t88.5 -34.5t35.5 -86.5q0 -55 -35.5 -90t-88.5 -35t-88.5 35t-35.5 90zM188 0v1114h188v-1114h-188z" />
<glyph unicode="&#x1ecc;" horiz-adv-x="1522" d="M119 759q0 182 47 325.5t132 243t203 152t261 52.5q142 0 260 -53.5t204 -153.5t133 -243t47 -323q0 -181 -47 -326.5t-133 -247.5t-204 -157.5t-260 -55.5q-143 0 -261 55.5t-203 157.5t-132 247.5t-47 326.5zM317 759q0 -142 32 -255.5t90 -195t140 -125t183 -43.5 q100 0 181.5 43.5t140 125t90.5 195t32 255.5q0 140 -32 252.5t-90.5 190.5t-140 120.5t-181.5 42.5q-101 0 -183 -42.5t-140 -120.5t-90 -190.5t-32 -252.5zM638 -348q0 52 35.5 86.5t88.5 34.5t88.5 -34.5t35.5 -86.5q0 -55 -35.5 -90t-88.5 -35t-88.5 35t-35.5 90z" />
<glyph unicode="&#x1ecd;" horiz-adv-x="1243" d="M105 556q0 140 42.5 248.5t114 184t164.5 114.5t196 39t196 -39t164 -114.5t113.5 -184t42.5 -248.5q0 -138 -42.5 -247.5t-113.5 -184t-164 -113.5t-196 -39t-196 39t-164.5 113.5t-114 184t-42.5 247.5zM300 556q0 -97 23 -175.5t65.5 -134.5t102.5 -86.5t131 -30.5 q70 0 130 30.5t102.5 86.5t65.5 134.5t23 175.5q0 96 -23 175t-65.5 136t-102.5 88.5t-130 31.5q-71 0 -131 -31.5t-102.5 -88.5t-65.5 -136t-23 -175zM500 -348q0 52 35.5 86.5t88.5 34.5t88.5 -34.5t35.5 -86.5q0 -55 -35.5 -90t-88.5 -35t-88.5 35t-35.5 90z" />
<glyph unicode="&#x1ece;" horiz-adv-x="1522" d="M119 759q0 182 47 325.5t132 243t203 152t261 52.5q142 0 260 -53.5t204 -153.5t133 -243t47 -323q0 -181 -47 -326.5t-133 -247.5t-204 -157.5t-260 -55.5q-143 0 -261 55.5t-203 157.5t-132 247.5t-47 326.5zM317 759q0 -142 32 -255.5t90 -195t140 -125t183 -43.5 q100 0 181.5 43.5t140 125t90.5 195t32 255.5q0 140 -32 252.5t-90.5 190.5t-140 120.5t-181.5 42.5q-101 0 -183 -42.5t-140 -120.5t-90 -190.5t-32 -252.5zM615 1891l20 109q152 -4 234.5 -51t82.5 -135q0 -50 -20.5 -86t-56 -62t-81 -40.5t-96.5 -23.5l-21 86 q55 16 92 39.5t37 66.5q0 90 -191 97z" />
<glyph unicode="&#x1ecf;" horiz-adv-x="1243" d="M105 556q0 140 42.5 248.5t114 184t164.5 114.5t196 39t196 -39t164 -114.5t113.5 -184t42.5 -248.5q0 -138 -42.5 -247.5t-113.5 -184t-164 -113.5t-196 -39t-196 39t-164.5 113.5t-114 184t-42.5 247.5zM300 556q0 -97 23 -175.5t65.5 -134.5t102.5 -86.5t131 -30.5 q70 0 130 30.5t102.5 86.5t65.5 134.5t23 175.5q0 96 -23 175t-65.5 136t-102.5 88.5t-130 31.5q-71 0 -131 -31.5t-102.5 -88.5t-65.5 -136t-23 -175zM475 1558l20 110q152 -5 234.5 -52t82.5 -134q0 -51 -20.5 -86.5t-56 -62t-81 -41t-96.5 -23.5l-21 86q55 16 92 39.5 t37 67.5q0 89 -191 96z" />
<glyph unicode="&#x1ed0;" horiz-adv-x="1522" d="M119 759q0 182 47 325.5t132 243t203 152t261 52.5q142 0 260 -53.5t204 -153.5t133 -243t47 -323q0 -181 -47 -326.5t-133 -247.5t-204 -157.5t-260 -55.5q-143 0 -261 55.5t-203 157.5t-132 247.5t-47 326.5zM317 759q0 -142 32 -255.5t90 -195t140 -125t183 -43.5 q100 0 181.5 43.5t140 125t90.5 195t32 255.5q0 140 -32 252.5t-90.5 190.5t-140 120.5t-181.5 42.5q-101 0 -183 -42.5t-140 -120.5t-90 -190.5t-32 -252.5zM469 1620l210 243h166l210 -243h-144l-145 142h-8l-145 -142h-144zM970 1766l164 254h164l-208 -254h-120z" />
<glyph unicode="&#x1ed1;" horiz-adv-x="1243" d="M105 556q0 140 42.5 248.5t114 184t164.5 114.5t196 39t196 -39t164 -114.5t113.5 -184t42.5 -248.5q0 -138 -42.5 -247.5t-113.5 -184t-164 -113.5t-196 -39t-196 39t-164.5 113.5t-114 184t-42.5 247.5zM300 556q0 -97 23 -175.5t65.5 -134.5t102.5 -86.5t131 -30.5 q70 0 130 30.5t102.5 86.5t65.5 134.5t23 175.5q0 96 -23 175t-65.5 136t-102.5 88.5t-130 31.5q-71 0 -131 -31.5t-102.5 -88.5t-65.5 -136t-23 -175zM355 1315l189 272h156l189 -272h-129l-134 167h-8l-134 -167h-129zM826 1468l168 261h160l-211 -261h-117z" />
<glyph unicode="&#x1ed2;" horiz-adv-x="1522" d="M119 759q0 182 47 325.5t132 243t203 152t261 52.5q142 0 260 -53.5t204 -153.5t133 -243t47 -323q0 -181 -47 -326.5t-133 -247.5t-204 -157.5t-260 -55.5q-143 0 -261 55.5t-203 157.5t-132 247.5t-47 326.5zM317 759q0 -142 32 -255.5t90 -195t140 -125t183 -43.5 q100 0 181.5 43.5t140 125t90.5 195t32 255.5q0 140 -32 252.5t-90.5 190.5t-140 120.5t-181.5 42.5q-101 0 -183 -42.5t-140 -120.5t-90 -190.5t-32 -252.5zM469 1620l210 243h166l210 -243h-144l-145 142h-8l-145 -142h-144zM856 2020h165l163 -254h-120z" />
<glyph unicode="&#x1ed3;" horiz-adv-x="1243" d="M105 556q0 140 42.5 248.5t114 184t164.5 114.5t196 39t196 -39t164 -114.5t113.5 -184t42.5 -248.5q0 -138 -42.5 -247.5t-113.5 -184t-164 -113.5t-196 -39t-196 39t-164.5 113.5t-114 184t-42.5 247.5zM300 556q0 -97 23 -175.5t65.5 -134.5t102.5 -86.5t131 -30.5 q70 0 130 30.5t102.5 86.5t65.5 134.5t23 175.5q0 96 -23 175t-65.5 136t-102.5 88.5t-130 31.5q-71 0 -131 -31.5t-102.5 -88.5t-65.5 -136t-23 -175zM355 1315l189 272h156l189 -272h-129l-134 167h-8l-134 -167h-129zM755 1729h158l170 -261h-117z" />
<glyph unicode="&#x1ed4;" horiz-adv-x="1522" d="M119 759q0 182 47 325.5t132 243t203 152t261 52.5q142 0 260 -53.5t204 -153.5t133 -243t47 -323q0 -181 -47 -326.5t-133 -247.5t-204 -157.5t-260 -55.5q-143 0 -261 55.5t-203 157.5t-132 247.5t-47 326.5zM317 759q0 -142 32 -255.5t90 -195t140 -125t183 -43.5 q100 0 181.5 43.5t140 125t90.5 195t32 255.5q0 140 -32 252.5t-90.5 190.5t-140 120.5t-181.5 42.5q-101 0 -183 -42.5t-140 -120.5t-90 -190.5t-32 -252.5zM469 1620l210 243h166l210 -243h-144l-145 142h-8l-145 -142h-144zM941 1981l20 97q136 -5 206 -46t70 -121 q0 -88 -64.5 -128t-146.5 -54l-25 81q43 11 73 28.5t30 54.5q0 46 -37.5 65t-125.5 23z" />
<glyph unicode="&#x1ed5;" horiz-adv-x="1243" d="M105 556q0 140 42.5 248.5t114 184t164.5 114.5t196 39t196 -39t164 -114.5t113.5 -184t42.5 -248.5q0 -138 -42.5 -247.5t-113.5 -184t-164 -113.5t-196 -39t-196 39t-164.5 113.5t-114 184t-42.5 247.5zM300 556q0 -97 23 -175.5t65.5 -134.5t102.5 -86.5t131 -30.5 q70 0 130 30.5t102.5 86.5t65.5 134.5t23 175.5q0 96 -23 175t-65.5 136t-102.5 88.5t-130 31.5q-71 0 -131 -31.5t-102.5 -88.5t-65.5 -136t-23 -175zM355 1315l189 272h156l189 -272h-129l-134 167h-8l-134 -167h-129zM806 1705l15 94q136 -5 208 -46.5t72 -121.5 q0 -46 -18.5 -78t-48 -54t-67.5 -36t-78 -23l-22 81q44 11 70.5 32t26.5 58q0 45 -36.5 67t-121.5 27z" />
<glyph unicode="&#x1ed6;" horiz-adv-x="1522" d="M119 759q0 182 47 325.5t132 243t203 152t261 52.5q142 0 260 -53.5t204 -153.5t133 -243t47 -323q0 -181 -47 -326.5t-133 -247.5t-204 -157.5t-260 -55.5q-143 0 -261 55.5t-203 157.5t-132 247.5t-47 326.5zM317 759q0 -142 32 -255.5t90 -195t140 -125t183 -43.5 q100 0 181.5 43.5t140 125t90.5 195t32 255.5q0 140 -32 252.5t-90.5 190.5t-140 120.5t-181.5 42.5q-101 0 -183 -42.5t-140 -120.5t-90 -190.5t-32 -252.5zM460 1941q9 92 54.5 152.5t125.5 60.5q41 0 73.5 -16.5t59 -35.5t51.5 -35t52 -16q35 0 59 27.5t33 75.5h96 q-9 -90 -54.5 -151.5t-125.5 -61.5q-41 0 -73.5 15.5t-59 35.5t-51.5 36t-52 16q-74 0 -92 -103h-96zM469 1620l210 243h166l210 -243h-144l-145 142h-8l-145 -142h-144z" />
<glyph unicode="&#x1ed7;" horiz-adv-x="1243" d="M105 556q0 140 42.5 248.5t114 184t164.5 114.5t196 39t196 -39t164 -114.5t113.5 -184t42.5 -248.5q0 -138 -42.5 -247.5t-113.5 -184t-164 -113.5t-196 -39t-196 39t-164.5 113.5t-114 184t-42.5 247.5zM300 556q0 -97 23 -175.5t65.5 -134.5t102.5 -86.5t131 -30.5 q70 0 130 30.5t102.5 86.5t65.5 134.5t23 175.5q0 96 -23 175t-65.5 136t-102.5 88.5t-130 31.5q-71 0 -131 -31.5t-102.5 -88.5t-65.5 -136t-23 -175zM322 1631q9 92 55 150t126 58q44 0 75 -14.5t57 -34t50 -35t51 -15.5q74 0 90 99h96q-9 -92 -55 -150t-126 -58 q-44 0 -75 15t-57 34.5t-50 34t-51 14.5q-74 0 -90 -98h-96zM338 1309l197 239h174l197 -239h-133l-147 150h-8l-147 -150h-133z" />
<glyph unicode="&#x1ed8;" horiz-adv-x="1522" d="M119 759q0 182 47 325.5t132 243t203 152t261 52.5q142 0 260 -53.5t204 -153.5t133 -243t47 -323q0 -181 -47 -326.5t-133 -247.5t-204 -157.5t-260 -55.5q-143 0 -261 55.5t-203 157.5t-132 247.5t-47 326.5zM317 759q0 -142 32 -255.5t90 -195t140 -125t183 -43.5 q100 0 181.5 43.5t140 125t90.5 195t32 255.5q0 140 -32 252.5t-90.5 190.5t-140 120.5t-181.5 42.5q-101 0 -183 -42.5t-140 -120.5t-90 -190.5t-32 -252.5zM450 1620l220 256h184l220 -256h-154l-154 155h-8l-154 -155h-154zM638 -348q0 52 35.5 86.5t88.5 34.5 t88.5 -34.5t35.5 -86.5q0 -55 -35.5 -90t-88.5 -35t-88.5 35t-35.5 90z" />
<glyph unicode="&#x1ed9;" horiz-adv-x="1243" d="M105 556q0 140 42.5 248.5t114 184t164.5 114.5t196 39t196 -39t164 -114.5t113.5 -184t42.5 -248.5q0 -138 -42.5 -247.5t-113.5 -184t-164 -113.5t-196 -39t-196 39t-164.5 113.5t-114 184t-42.5 247.5zM300 556q0 -97 23 -175.5t65.5 -134.5t102.5 -86.5t131 -30.5 q70 0 130 30.5t102.5 86.5t65.5 134.5t23 175.5q0 96 -23 175t-65.5 136t-102.5 88.5t-130 31.5q-71 0 -131 -31.5t-102.5 -88.5t-65.5 -136t-23 -175zM326 1315l218 322h156l218 -322h-138l-154 208h-8l-154 -208h-138zM500 -348q0 52 35.5 86.5t88.5 34.5t88.5 -34.5 t35.5 -86.5q0 -55 -35.5 -90t-88.5 -35t-88.5 35t-35.5 90z" />
<glyph unicode="&#x1eda;" horiz-adv-x="1522" d="M124 759q0 182 47 325.5t133 243t204 152t260 52.5q165 0 298 -73q97 18 141.5 53.5t44.5 100.5q0 26 -9 48t-22 46l134 66q23 -33 38 -69t15 -80q0 -99 -63 -157.5t-170 -83.5q110 -101 173 -258t63 -366q0 -181 -47 -326.5t-133 -247.5t-204.5 -157.5t-258.5 -55.5 q-142 0 -260 55.5t-204 157.5t-133 247.5t-47 326.5zM321 759q0 -142 32 -255.5t91 -195t141.5 -125t182.5 -43.5q101 0 183 43.5t140 125t90 195t32 255.5q0 140 -32 252.5t-90 190.5t-140 120.5t-183 42.5q-100 0 -182.5 -42.5t-141.5 -120.5t-91 -190.5t-32 -252.5z M646 1620l201 256h215l-259 -256h-157z" />
<glyph unicode="&#x1edb;" horiz-adv-x="1243" d="M105 556q0 140 42.5 248.5t114 184t164.5 114.5t196 39q114 0 216 -48q80 14 124.5 49.5t44.5 99.5q0 26 -9 50t-26 47l138 66q22 -33 37.5 -69.5t15.5 -79.5q0 -103 -64 -157t-149 -80q85 -76 136.5 -192.5t51.5 -271.5q0 -138 -42.5 -247.5t-113.5 -184t-164 -113.5 t-196 -39t-196 39t-164.5 113.5t-114 184t-42.5 247.5zM300 556q0 -97 23 -175.5t65.5 -134.5t102.5 -86.5t131 -30.5q70 0 130 30.5t102.5 86.5t65.5 134.5t23 175.5q0 96 -23 175t-65.5 136t-102.5 88.5t-130 31.5q-71 0 -131 -31.5t-102.5 -88.5t-65.5 -136t-23 -175z M473 1315l206 322h197l-258 -322h-145z" />
<glyph unicode="&#x1edc;" horiz-adv-x="1522" d="M124 759q0 182 47 325.5t133 243t204 152t260 52.5q165 0 298 -73q97 18 141.5 53.5t44.5 100.5q0 26 -9 48t-22 46l134 66q23 -33 38 -69t15 -80q0 -99 -63 -157.5t-170 -83.5q110 -101 173 -258t63 -366q0 -181 -47 -326.5t-133 -247.5t-204.5 -157.5t-258.5 -55.5 q-142 0 -260 55.5t-204 157.5t-133 247.5t-47 326.5zM321 759q0 -142 32 -255.5t91 -195t141.5 -125t182.5 -43.5q101 0 183 43.5t140 125t90 195t32 255.5q0 140 -32 252.5t-90 190.5t-140 120.5t-183 42.5q-100 0 -182.5 -42.5t-141.5 -120.5t-91 -190.5t-32 -252.5z M462 1876h215l201 -256h-157z" />
<glyph unicode="&#x1edd;" horiz-adv-x="1243" d="M105 556q0 140 42.5 248.5t114 184t164.5 114.5t196 39q114 0 216 -48q80 14 124.5 49.5t44.5 99.5q0 26 -9 50t-26 47l138 66q22 -33 37.5 -69.5t15.5 -79.5q0 -103 -64 -157t-149 -80q85 -76 136.5 -192.5t51.5 -271.5q0 -138 -42.5 -247.5t-113.5 -184t-164 -113.5 t-196 -39t-196 39t-164.5 113.5t-114 184t-42.5 247.5zM300 556q0 -97 23 -175.5t65.5 -134.5t102.5 -86.5t131 -30.5q70 0 130 30.5t102.5 86.5t65.5 134.5t23 175.5q0 96 -23 175t-65.5 136t-102.5 88.5t-130 31.5q-71 0 -131 -31.5t-102.5 -88.5t-65.5 -136t-23 -175z M368 1637h197l206 -322h-145z" />
<glyph unicode="&#x1ede;" horiz-adv-x="1522" d="M124 759q0 182 47 325.5t133 243t204 152t260 52.5q165 0 298 -73q97 18 141.5 53.5t44.5 100.5q0 26 -9 48t-22 46l134 66q23 -33 38 -69t15 -80q0 -99 -63 -157.5t-170 -83.5q110 -101 173 -258t63 -366q0 -181 -47 -326.5t-133 -247.5t-204.5 -157.5t-258.5 -55.5 q-142 0 -260 55.5t-204 157.5t-133 247.5t-47 326.5zM321 759q0 -142 32 -255.5t91 -195t141.5 -125t182.5 -43.5q101 0 183 43.5t140 125t90 195t32 255.5q0 140 -32 252.5t-90 190.5t-140 120.5t-183 42.5q-100 0 -182.5 -42.5t-141.5 -120.5t-91 -190.5t-32 -252.5z M615 1891l20 109q152 -4 234.5 -51t82.5 -135q0 -50 -20.5 -86t-56 -62t-81 -40.5t-96.5 -23.5l-21 86q55 16 92 39.5t37 66.5q0 90 -191 97z" />
<glyph unicode="&#x1edf;" horiz-adv-x="1243" d="M105 556q0 140 42.5 248.5t114 184t164.5 114.5t196 39q114 0 216 -48q80 14 124.5 49.5t44.5 99.5q0 26 -9 50t-26 47l138 66q22 -33 37.5 -69.5t15.5 -79.5q0 -103 -64 -157t-149 -80q85 -76 136.5 -192.5t51.5 -271.5q0 -138 -42.5 -247.5t-113.5 -184t-164 -113.5 t-196 -39t-196 39t-164.5 113.5t-114 184t-42.5 247.5zM300 556q0 -97 23 -175.5t65.5 -134.5t102.5 -86.5t131 -30.5q70 0 130 30.5t102.5 86.5t65.5 134.5t23 175.5q0 96 -23 175t-65.5 136t-102.5 88.5t-130 31.5q-71 0 -131 -31.5t-102.5 -88.5t-65.5 -136t-23 -175z M475 1558l20 110q152 -5 234.5 -52t82.5 -134q0 -51 -20.5 -86.5t-56 -62t-81 -41t-96.5 -23.5l-21 86q55 16 92 39.5t37 67.5q0 89 -191 96z" />
<glyph unicode="&#x1ee0;" horiz-adv-x="1522" d="M124 759q0 182 47 325.5t133 243t204 152t260 52.5q165 0 298 -73q97 18 141.5 53.5t44.5 100.5q0 26 -9 48t-22 46l134 66q23 -33 38 -69t15 -80q0 -99 -63 -157.5t-170 -83.5q110 -101 173 -258t63 -366q0 -181 -47 -326.5t-133 -247.5t-204.5 -157.5t-258.5 -55.5 q-142 0 -260 55.5t-204 157.5t-133 247.5t-47 326.5zM321 759q0 -142 32 -255.5t91 -195t141.5 -125t182.5 -43.5q101 0 183 43.5t140 125t90 195t32 255.5q0 140 -32 252.5t-90 190.5t-140 120.5t-183 42.5q-100 0 -182.5 -42.5t-141.5 -120.5t-91 -190.5t-32 -252.5z M429 1631q12 107 62 177t133 70q46 0 83 -18t68 -41t60.5 -41t62.5 -18q32 0 57 30.5t34 87.5h106q-12 -105 -62 -176t-133 -71q-46 0 -83 18.5t-68 41.5t-60.5 41.5t-62.5 18.5q-32 0 -57 -30.5t-34 -89.5h-106z" />
<glyph unicode="&#x1ee1;" horiz-adv-x="1243" d="M105 556q0 140 42.5 248.5t114 184t164.5 114.5t196 39q114 0 216 -48q80 14 124.5 49.5t44.5 99.5q0 26 -9 50t-26 47l138 66q22 -33 37.5 -69.5t15.5 -79.5q0 -103 -64 -157t-149 -80q85 -76 136.5 -192.5t51.5 -271.5q0 -138 -42.5 -247.5t-113.5 -184t-164 -113.5 t-196 -39t-196 39t-164.5 113.5t-114 184t-42.5 247.5zM300 556q0 -97 23 -175.5t65.5 -134.5t102.5 -86.5t131 -30.5q70 0 130 30.5t102.5 86.5t65.5 134.5t23 175.5q0 96 -23 175t-65.5 136t-102.5 88.5t-130 31.5q-71 0 -131 -31.5t-102.5 -88.5t-65.5 -136t-23 -175z M303 1328q9 103 55 173t131 70q43 0 80 -18.5t68 -40t58.5 -40t55.5 -18.5q64 0 84 117h106q-9 -103 -55 -173t-131 -70q-43 0 -79 18.5t-67 40t-58.5 40t-57.5 18.5q-64 0 -84 -117h-106z" />
<glyph unicode="&#x1ee2;" horiz-adv-x="1522" d="M124 759q0 182 47 325.5t133 243t204 152t260 52.5q165 0 298 -73q97 18 141.5 53.5t44.5 100.5q0 26 -9 48t-22 46l134 66q23 -33 38 -69t15 -80q0 -99 -63 -157.5t-170 -83.5q110 -101 173 -258t63 -366q0 -181 -47 -326.5t-133 -247.5t-204.5 -157.5t-258.5 -55.5 q-142 0 -260 55.5t-204 157.5t-133 247.5t-47 326.5zM321 759q0 -142 32 -255.5t91 -195t141.5 -125t182.5 -43.5q101 0 183 43.5t140 125t90 195t32 255.5q0 140 -32 252.5t-90 190.5t-140 120.5t-183 42.5q-100 0 -182.5 -42.5t-141.5 -120.5t-91 -190.5t-32 -252.5z M638 -348q0 52 35.5 86.5t88.5 34.5t88.5 -34.5t35.5 -86.5q0 -55 -35.5 -90t-88.5 -35t-88.5 35t-35.5 90z" />
<glyph unicode="&#x1ee3;" horiz-adv-x="1243" d="M105 556q0 140 42.5 248.5t114 184t164.5 114.5t196 39q114 0 216 -48q80 14 124.5 49.5t44.5 99.5q0 26 -9 50t-26 47l138 66q22 -33 37.5 -69.5t15.5 -79.5q0 -103 -64 -157t-149 -80q85 -76 136.5 -192.5t51.5 -271.5q0 -138 -42.5 -247.5t-113.5 -184t-164 -113.5 t-196 -39t-196 39t-164.5 113.5t-114 184t-42.5 247.5zM300 556q0 -97 23 -175.5t65.5 -134.5t102.5 -86.5t131 -30.5q70 0 130 30.5t102.5 86.5t65.5 134.5t23 175.5q0 96 -23 175t-65.5 136t-102.5 88.5t-130 31.5q-71 0 -131 -31.5t-102.5 -88.5t-65.5 -136t-23 -175z M500 -348q0 52 35.5 86.5t88.5 34.5t88.5 -34.5t35.5 -86.5q0 -55 -35.5 -90t-88.5 -35t-88.5 35t-35.5 90z" />
<glyph unicode="&#x1ee4;" horiz-adv-x="1478" d="M199 622v882h191v-887q0 -135 27.5 -227t74.5 -147t111.5 -79t137.5 -24q77 0 140.5 24t112 79t75.5 147t27 227v887h184v-882q0 -182 -41.5 -305.5t-113.5 -200.5t-170.5 -110.5t-213.5 -33.5q-114 0 -214 33.5t-172.5 110.5t-114 200.5t-41.5 305.5zM614 -348 q0 52 35.5 86.5t88.5 34.5t88.5 -34.5t35.5 -86.5q0 -55 -35.5 -90t-88.5 -35t-88.5 35t-35.5 90z" />
<glyph unicode="&#x1ee5;" horiz-adv-x="1247" d="M172 409v705h191v-681q0 -157 49 -227t159 -70q88 0 154.5 44.5t145.5 143.5v790h189v-1114h-156l-16 175h-8q-78 -92 -163.5 -147.5t-202.5 -55.5q-179 0 -260.5 110.5t-81.5 326.5zM541 -348q0 52 35.5 86.5t88.5 34.5t88.5 -34.5t35.5 -86.5q0 -55 -35.5 -90 t-88.5 -35t-88.5 35t-35.5 90z" />
<glyph unicode="&#x1ee6;" horiz-adv-x="1478" d="M199 622v882h191v-887q0 -135 27.5 -227t74.5 -147t111.5 -79t137.5 -24q77 0 140.5 24t112 79t75.5 147t27 227v887h184v-882q0 -182 -41.5 -305.5t-113.5 -200.5t-170.5 -110.5t-213.5 -33.5q-114 0 -214 33.5t-172.5 110.5t-114 200.5t-41.5 305.5zM591 1891l20 109 q152 -4 234.5 -51t82.5 -135q0 -50 -20.5 -86t-56 -62t-81 -40.5t-96.5 -23.5l-21 86q55 16 92 39.5t37 66.5q0 90 -191 97z" />
<glyph unicode="&#x1ee7;" horiz-adv-x="1247" d="M172 409v705h191v-681q0 -157 49 -227t159 -70q88 0 154.5 44.5t145.5 143.5v790h189v-1114h-156l-16 175h-8q-78 -92 -163.5 -147.5t-202.5 -55.5q-179 0 -260.5 110.5t-81.5 326.5zM477 1558l20 110q152 -5 234.5 -52t82.5 -134q0 -51 -20.5 -86.5t-56 -62t-81 -41 t-96.5 -23.5l-21 86q55 16 92 39.5t37 67.5q0 89 -191 96z" />
<glyph unicode="&#x1ee8;" horiz-adv-x="1510" d="M199 622v882h191v-887q0 -135 27.5 -227t74.5 -147t111.5 -79t137.5 -24q77 0 140.5 24t112 79t75.5 147t27 227v887h77q96 9 151 41.5t55 113.5q0 25 -9.5 47.5t-25.5 46.5l136 66q25 -33 38.5 -69t13.5 -80q0 -57 -20.5 -98.5t-55 -71t-80 -48t-96.5 -30.5v-800 q0 -182 -41.5 -305.5t-113.5 -200.5t-170.5 -110.5t-213.5 -33.5q-114 0 -214 33.5t-172.5 110.5t-114 200.5t-41.5 305.5zM622 1620l201 256h215l-259 -256h-157z" />
<glyph unicode="&#x1ee9;" horiz-adv-x="1247" d="M172 409v705h191v-681q0 -157 49 -227t159 -70q88 0 154.5 44.5t145.5 143.5v790h49q80 9 136 41.5t56 110.5q0 25 -9 49.5t-22 47.5l134 66q23 -32 38.5 -68.5t15.5 -80.5q0 -52 -18.5 -91.5t-47 -68t-66.5 -47t-77 -29.5v-1044h-156l-16 175h-8q-78 -92 -163.5 -147.5 t-202.5 -55.5q-179 0 -260.5 110.5t-81.5 326.5zM461 1315l206 322h197l-258 -322h-145z" />
<glyph unicode="&#x1eea;" horiz-adv-x="1510" d="M199 622v882h191v-887q0 -135 27.5 -227t74.5 -147t111.5 -79t137.5 -24q77 0 140.5 24t112 79t75.5 147t27 227v887h77q96 9 151 41.5t55 113.5q0 25 -9.5 47.5t-25.5 46.5l136 66q25 -33 38.5 -69t13.5 -80q0 -57 -20.5 -98.5t-55 -71t-80 -48t-96.5 -30.5v-800 q0 -182 -41.5 -305.5t-113.5 -200.5t-170.5 -110.5t-213.5 -33.5q-114 0 -214 33.5t-172.5 110.5t-114 200.5t-41.5 305.5zM438 1876h215l201 -256h-157z" />
<glyph unicode="&#x1eeb;" horiz-adv-x="1247" d="M172 409v705h191v-681q0 -157 49 -227t159 -70q88 0 154.5 44.5t145.5 143.5v790h49q80 9 136 41.5t56 110.5q0 25 -9 49.5t-22 47.5l134 66q23 -32 38.5 -68.5t15.5 -80.5q0 -52 -18.5 -91.5t-47 -68t-66.5 -47t-77 -29.5v-1044h-156l-16 175h-8q-78 -92 -163.5 -147.5 t-202.5 -55.5q-179 0 -260.5 110.5t-81.5 326.5zM356 1637h197l206 -322h-145z" />
<glyph unicode="&#x1eec;" horiz-adv-x="1510" d="M199 622v882h191v-887q0 -135 27.5 -227t74.5 -147t111.5 -79t137.5 -24q77 0 140.5 24t112 79t75.5 147t27 227v887h77q96 9 151 41.5t55 113.5q0 25 -9.5 47.5t-25.5 46.5l136 66q25 -33 38.5 -69t13.5 -80q0 -57 -20.5 -98.5t-55 -71t-80 -48t-96.5 -30.5v-800 q0 -182 -41.5 -305.5t-113.5 -200.5t-170.5 -110.5t-213.5 -33.5q-114 0 -214 33.5t-172.5 110.5t-114 200.5t-41.5 305.5zM591 1891l20 109q152 -4 234.5 -51t82.5 -135q0 -50 -20.5 -86t-56 -62t-81 -40.5t-96.5 -23.5l-21 86q55 16 92 39.5t37 66.5q0 90 -191 97z" />
<glyph unicode="&#x1eed;" horiz-adv-x="1247" d="M172 409v705h191v-681q0 -157 49 -227t159 -70q88 0 154.5 44.5t145.5 143.5v790h49q80 9 136 41.5t56 110.5q0 25 -9 49.5t-22 47.5l134 66q23 -32 38.5 -68.5t15.5 -80.5q0 -52 -18.5 -91.5t-47 -68t-66.5 -47t-77 -29.5v-1044h-156l-16 175h-8q-78 -92 -163.5 -147.5 t-202.5 -55.5q-179 0 -260.5 110.5t-81.5 326.5zM463 1558l20 110q152 -5 234.5 -52t82.5 -134q0 -51 -20.5 -86.5t-56 -62t-81 -41t-96.5 -23.5l-21 86q55 16 92 39.5t37 67.5q0 89 -191 96z" />
<glyph unicode="&#x1eee;" horiz-adv-x="1510" d="M199 622v882h191v-887q0 -135 27.5 -227t74.5 -147t111.5 -79t137.5 -24q77 0 140.5 24t112 79t75.5 147t27 227v887h77q96 9 151 41.5t55 113.5q0 25 -9.5 47.5t-25.5 46.5l136 66q25 -33 38.5 -69t13.5 -80q0 -57 -20.5 -98.5t-55 -71t-80 -48t-96.5 -30.5v-800 q0 -182 -41.5 -305.5t-113.5 -200.5t-170.5 -110.5t-213.5 -33.5q-114 0 -214 33.5t-172.5 110.5t-114 200.5t-41.5 305.5zM405 1631q12 107 62 177t133 70q46 0 83 -18t68 -41t60.5 -41t62.5 -18q32 0 57 30.5t34 87.5h106q-12 -105 -62 -176t-133 -71q-46 0 -83 18.5 t-68 41.5t-60.5 41.5t-62.5 18.5q-32 0 -57 -30.5t-34 -89.5h-106z" />
<glyph unicode="&#x1eef;" horiz-adv-x="1247" d="M172 409v705h191v-681q0 -157 49 -227t159 -70q88 0 154.5 44.5t145.5 143.5v790h49q80 9 136 41.5t56 110.5q0 25 -9 49.5t-22 47.5l134 66q23 -32 38.5 -68.5t15.5 -80.5q0 -52 -18.5 -91.5t-47 -68t-66.5 -47t-77 -29.5v-1044h-156l-16 175h-8q-78 -92 -163.5 -147.5 t-202.5 -55.5q-179 0 -260.5 110.5t-81.5 326.5zM291 1328q9 103 55 173t131 70q43 0 80 -18.5t68 -40t58.5 -40t55.5 -18.5q64 0 84 117h106q-9 -103 -55 -173t-131 -70q-43 0 -79 18.5t-67 40t-58.5 40t-57.5 18.5q-64 0 -84 -117h-106z" />
<glyph unicode="&#x1ef0;" horiz-adv-x="1510" d="M199 622v882h191v-887q0 -135 27.5 -227t74.5 -147t111.5 -79t137.5 -24q77 0 140.5 24t112 79t75.5 147t27 227v887h77q96 9 151 41.5t55 113.5q0 25 -9.5 47.5t-25.5 46.5l136 66q25 -33 38.5 -69t13.5 -80q0 -57 -20.5 -98.5t-55 -71t-80 -48t-96.5 -30.5v-800 q0 -182 -41.5 -305.5t-113.5 -200.5t-170.5 -110.5t-213.5 -33.5q-114 0 -214 33.5t-172.5 110.5t-114 200.5t-41.5 305.5zM614 -348q0 52 35.5 86.5t88.5 34.5t88.5 -34.5t35.5 -86.5q0 -55 -35.5 -90t-88.5 -35t-88.5 35t-35.5 90z" />
<glyph unicode="&#x1ef1;" horiz-adv-x="1247" d="M172 409v705h191v-681q0 -157 49 -227t159 -70q88 0 154.5 44.5t145.5 143.5v790h49q80 9 136 41.5t56 110.5q0 25 -9 49.5t-22 47.5l134 66q23 -32 38.5 -68.5t15.5 -80.5q0 -52 -18.5 -91.5t-47 -68t-66.5 -47t-77 -29.5v-1044h-156l-16 175h-8q-78 -92 -163.5 -147.5 t-202.5 -55.5q-179 0 -260.5 110.5t-81.5 326.5zM528 -348q0 52 35.5 86.5t88.5 34.5t88.5 -34.5t35.5 -86.5q0 -55 -35.5 -90t-88.5 -35t-88.5 35t-35.5 90z" />
<glyph unicode="&#x1ef2;" horiz-adv-x="1090" d="M-2 1504h204l194 -423q37 -83 72 -163t73 -165h10q39 85 78 165t73 163l193 423h199l-452 -922v-582h-193v582zM245 1876h215l201 -256h-157z" />
<glyph unicode="&#x1ef3;" horiz-adv-x="1070" d="M28 1114h195l226 -617q26 -74 54.5 -155t54.5 -158h9q25 76 47.5 158t46.5 155l199 617h184l-420 -1206q-30 -83 -66.5 -154t-87 -122.5t-115 -81t-149.5 -29.5q-39 0 -71 5.5t-59 16.5l36 150q18 -4 41.5 -10.5t43.5 -6.5q96 0 157.5 68t94.5 171l26 83zM302 1637h197 l206 -322h-145z" />
<glyph unicode="&#x1ef4;" horiz-adv-x="1090" d="M-2 1504h204l194 -423q37 -83 72 -163t73 -165h10q39 85 78 165t73 163l193 423h199l-452 -922v-582h-193v582zM427 -348q0 52 35.5 86.5t88.5 34.5t88.5 -34.5t35.5 -86.5q0 -55 -35.5 -90t-88.5 -35t-88.5 35t-35.5 90z" />
<glyph unicode="&#x1ef5;" horiz-adv-x="1070" d="M28 1114h195l226 -617q26 -74 54.5 -155t54.5 -158h9q25 76 47.5 158t46.5 155l199 617h184l-420 -1206q-30 -83 -66.5 -154t-87 -122.5t-115 -81t-149.5 -29.5q-39 0 -71 5.5t-59 16.5l36 150q18 -4 41.5 -10.5t43.5 -6.5q96 0 157.5 68t94.5 171l26 83zM773 -339 q0 52 35.5 86.5t88.5 34.5t88.5 -34.5t35.5 -86.5q0 -55 -35.5 -90t-88.5 -35t-88.5 35t-35.5 90z" />
<glyph unicode="&#x1ef6;" horiz-adv-x="1090" d="M-2 1504h204l194 -423q37 -83 72 -163t73 -165h10q39 85 78 165t73 163l193 423h199l-452 -922v-582h-193v582zM398 1891l20 109q152 -4 234.5 -51t82.5 -135q0 -50 -20.5 -86t-56 -62t-81 -40.5t-96.5 -23.5l-21 86q55 16 92 39.5t37 66.5q0 90 -191 97z" />
<glyph unicode="&#x1ef7;" horiz-adv-x="1070" d="M28 1114h195l226 -617q26 -74 54.5 -155t54.5 -158h9q25 76 47.5 158t46.5 155l199 617h184l-420 -1206q-30 -83 -66.5 -154t-87 -122.5t-115 -81t-149.5 -29.5q-39 0 -71 5.5t-59 16.5l36 150q18 -4 41.5 -10.5t43.5 -6.5q96 0 157.5 68t94.5 171l26 83zM409 1558 l20 110q152 -5 234.5 -52t82.5 -134q0 -51 -20.5 -86.5t-56 -62t-81 -41t-96.5 -23.5l-21 86q55 16 92 39.5t37 67.5q0 89 -191 96z" />
<glyph unicode="&#x1ef8;" horiz-adv-x="1090" d="M-2 1504h204l194 -423q37 -83 72 -163t73 -165h10q39 85 78 165t73 163l193 423h199l-452 -922v-582h-193v582zM212 1631q12 107 62 177t133 70q46 0 83 -18t68 -41t60.5 -41t62.5 -18q32 0 57 30.5t34 87.5h106q-12 -105 -62 -176t-133 -71q-46 0 -83 18.5t-68 41.5 t-60.5 41.5t-62.5 18.5q-32 0 -57 -30.5t-34 -89.5h-106z" />
<glyph unicode="&#x1ef9;" horiz-adv-x="1070" d="M28 1114h195l226 -617q26 -74 54.5 -155t54.5 -158h9q25 76 47.5 158t46.5 155l199 617h184l-420 -1206q-30 -83 -66.5 -154t-87 -122.5t-115 -81t-149.5 -29.5q-39 0 -71 5.5t-59 16.5l36 150q18 -4 41.5 -10.5t43.5 -6.5q96 0 157.5 68t94.5 171l26 83zM237 1328 q9 103 55 173t131 70q43 0 80 -18.5t68 -40t58.5 -40t55.5 -18.5q64 0 84 117h106q-9 -103 -55 -173t-131 -70q-43 0 -79 18.5t-67 40t-58.5 40t-57.5 18.5q-64 0 -84 -117h-106z" />
<glyph unicode="&#x2000;" horiz-adv-x="1092" />
<glyph unicode="&#x2001;" horiz-adv-x="2184" />
<glyph unicode="&#x2002;" horiz-adv-x="1092" />
<glyph unicode="&#x2003;" horiz-adv-x="2184" />
<glyph unicode="&#x2004;" horiz-adv-x="728" />
<glyph unicode="&#x2005;" horiz-adv-x="546" />
<glyph unicode="&#x2006;" horiz-adv-x="364" />
<glyph unicode="&#x2007;" horiz-adv-x="1139" />
<glyph unicode="&#x2008;" horiz-adv-x="273" />
<glyph unicode="&#x2009;" horiz-adv-x="436" />
<glyph unicode="&#x200a;" horiz-adv-x="121" />
<glyph unicode="&#x2010;" horiz-adv-x="712" d="M94 503v144h528v-144h-528z" />
<glyph unicode="&#x2011;" horiz-adv-x="712" d="M94 503v144h528v-144h-528z" />
<glyph unicode="&#x2012;" horiz-adv-x="1139" d="M94 512v130h954v-130h-954z" />
<glyph unicode="&#x2013;" horiz-adv-x="1100" d="M94 512v130h913v-130h-913z" />
<glyph unicode="&#x2014;" horiz-adv-x="1834" d="M94 512v130h1646v-130h-1646z" />
<glyph unicode="&#x2015;" horiz-adv-x="1834" d="M94 512v130h1646v-130h-1646z" />
<glyph unicode="&#x2016;" horiz-adv-x="893" d="M211 -573v2293h133v-2293h-133zM551 -573v2293h132v-2293h-132z" />
<glyph unicode="&#x2018;" horiz-adv-x="570" d="M131 1188q0 138 61.5 239t181.5 169l55 -88q-87 -58 -131 -122t-44 -163q7 2 22 2q45 0 82.5 -30t37.5 -87q0 -60 -34 -93t-86 -33q-69 0 -107 53t-38 153z" />
<glyph unicode="&#x2019;" horiz-adv-x="570" d="M144 1076q88 57 130.5 121t42.5 166q-7 -2 -19 -3q-48 0 -84.5 30t-36.5 85q0 59 34 94t87 35q66 0 105 -54.5t39 -155.5q0 -137 -62.5 -237t-182.5 -168z" />
<glyph unicode="&#x201a;" horiz-adv-x="570" d="M144 -243q88 57 130.5 121t42.5 166q-7 -2 -19 -3q-48 0 -84.5 30t-36.5 85q0 59 34 94t87 35q66 0 105 -54.5t39 -155.5q0 -137 -62.5 -237t-182.5 -168z" />
<glyph unicode="&#x201c;" horiz-adv-x="974" d="M131 1188q0 138 61.5 239t181.5 169l55 -88q-87 -58 -131 -122t-44 -163q7 2 22 2q45 0 82.5 -30t37.5 -87q0 -60 -34 -93t-86 -33q-69 0 -107 53t-38 153zM534 1188q0 138 61.5 239t181.5 169l55 -88q-87 -58 -131 -122t-44 -163q7 2 22 2q45 0 82.5 -30t37.5 -87 q0 -60 -34 -93t-86 -33q-69 0 -107 53t-38 153z" />
<glyph unicode="&#x201d;" horiz-adv-x="974" d="M144 1076q88 57 130.5 121t42.5 166q-7 -2 -19 -3q-48 0 -84.5 30t-36.5 85q0 59 34 94t87 35q66 0 105 -54.5t39 -155.5q0 -137 -62.5 -237t-182.5 -168zM547 1076q88 57 130.5 121t42.5 166q-7 -2 -19 -3q-48 0 -84.5 30t-36.5 85q0 59 34 94t87 35q66 0 105 -54.5 t39 -155.5q0 -137 -62.5 -237t-182.5 -168z" />
<glyph unicode="&#x201e;" horiz-adv-x="974" d="M144 -243q88 57 130.5 121t42.5 166q-7 -2 -19 -3q-48 0 -84.5 30t-36.5 85q0 59 34 94t87 35q66 0 105 -54.5t39 -155.5q0 -137 -62.5 -237t-182.5 -168zM547 -243q88 57 130.5 121t42.5 166q-7 -2 -19 -3q-48 0 -84.5 30t-36.5 85q0 59 34 94t87 35q66 0 105 -54.5 t39 -155.5q0 -137 -62.5 -237t-182.5 -168z" />
<glyph unicode="&#x2020;" horiz-adv-x="1040" d="M124 1114v164l327 -12l-11 367h161l-12 -367l328 12v-164l-328 13l12 -1311h-161l11 1311z" />
<glyph unicode="&#x2021;" horiz-adv-x="1040" d="M124 172v163l327 -16l-11 406l11 406l-327 -17v164l327 -12l-11 367h161l-12 -367l328 12v-164l-328 17l12 -406l-12 -406l328 16v-163l-328 12l12 -368h-161l11 368z" />
<glyph unicode="&#x2022;" horiz-adv-x="696" d="M92 604q0 61 20.5 112.5t56 87.5t81.5 56t98 20q51 0 98 -20t82.5 -56t56.5 -87.5t21 -112.5q0 -62 -21 -113t-56.5 -87.5t-82.5 -56t-98 -19.5q-52 0 -98 19.5t-81.5 56t-56 87t-20.5 113.5z" />
<glyph unicode="&#x2026;" horiz-adv-x="2173" d="M215 114q0 66 40.5 106.5t97.5 40.5q55 0 95 -40t40 -107q0 -61 -40 -101.5t-95 -40.5q-57 0 -97.5 40.5t-40.5 101.5zM983 114q0 66 40.5 106.5t97.5 40.5q55 0 95 -40t40 -107q0 -61 -40 -101.5t-95 -40.5q-57 0 -97.5 40.5t-40.5 101.5zM1753 114q0 66 40.5 106.5 t97.5 40.5q55 0 95 -40t40 -107q0 -61 -40 -101.5t-95 -40.5q-57 0 -97.5 40.5t-40.5 101.5z" />
<glyph unicode="&#x202f;" horiz-adv-x="436" />
</font>
</defs>
</svg>
